<svg width="389" height="75" viewBox="0 0 389 75" fill="none" xmlns="http://www.w3.org/2000/svg">
<rect width="390" height="80" fill="#2C2C2C"/>
<path d="M0 0.5H390" stroke="#111111"/>
<path d="M43.5071 17.905L51.4518 9.10149C51.8067 8.70815 52.4494 9.06461 52.3037 9.57399L51.066 13.9001C50.6989 15.1834 51.6679 16.4593 53.0026 16.4502L57.6888 16.4181C58.5646 16.4121 59.0245 17.4552 58.4292 18.0977L50.0555 27.1355C49.7081 27.5105 49.0885 27.1842 49.201 26.6856L50.2555 22.0155C50.538 20.7647 49.5869 19.575 48.3046 19.575H44.2494C43.383 19.575 42.9266 18.5482 43.5071 17.905Z" stroke="#E7E7E7" stroke-width="1.5"/>
<path d="M38.52 41.949H49.986V42.703H44.149V46.811C44.409 46.772 44.669 46.733 44.903 46.694V47.435C44.669 47.474 44.409 47.513 44.149 47.565V48.826H43.239V47.682C42.004 47.825 40.483 47.955 38.676 48.059L38.559 47.253L39.768 47.201V42.703H38.52V41.949ZM40.613 47.162C41.575 47.097 42.459 47.019 43.239 46.928V46.044H40.613V47.162ZM40.613 45.355H43.239V44.38H40.613V45.355ZM40.613 43.678H43.239V42.703H40.613V43.678ZM40.171 37.347H48.387V41.091H40.171V37.347ZM47.49 40.415V39.544H41.068V40.415H47.49ZM41.068 38.881H47.49V38.049H41.068V38.881ZM45.241 44.341H44.825V43.574H49.258V44.302C49.011 45.303 48.569 46.161 47.945 46.889C48.517 47.318 49.193 47.695 49.999 48.033L49.518 48.813C48.66 48.41 47.932 47.968 47.347 47.487C46.749 48.007 46.021 48.449 45.176 48.813L44.695 48.085C45.475 47.747 46.151 47.357 46.71 46.889C45.982 46.135 45.501 45.29 45.241 44.341ZM47.282 46.33C47.802 45.732 48.179 45.069 48.413 44.341H46.047C46.281 45.082 46.684 45.745 47.282 46.33ZM62.882 37.009L63.35 37.841C62.206 38.283 60.945 38.556 59.541 38.634V41H63.74V41.897H62.388V48.839H61.465V41.897H59.541V43.444C59.476 45.68 58.982 47.461 58.046 48.787L57.383 48.085C58.15 46.967 58.566 45.42 58.631 43.444V37.88C60.204 37.854 61.621 37.555 62.882 37.009ZM52.053 38.01H54.536C54.354 37.594 54.159 37.217 53.938 36.879L54.9 36.723C55.095 37.113 55.277 37.542 55.459 38.01H57.916V38.868H52.053V38.01ZM51.923 40.961H53.418C53.223 40.441 52.989 39.947 52.729 39.492L53.561 39.193C53.808 39.674 54.042 40.259 54.25 40.961H55.68C55.94 40.389 56.161 39.791 56.356 39.167L57.201 39.453C56.993 40.012 56.772 40.519 56.525 40.961H57.994V41.806H55.485V43.262H57.773V44.12H55.485V47.799C55.485 48.501 55.108 48.852 54.354 48.852H53.652L53.457 47.981C53.665 48.02 53.86 48.046 54.042 48.046C54.38 48.046 54.549 47.89 54.549 47.578V44.12H52.131V43.262H54.549V41.806H51.923V40.961ZM53.041 44.822L53.899 45.004C53.561 46.317 53.08 47.461 52.482 48.436L51.702 47.942C52.313 47.006 52.755 45.966 53.041 44.822ZM56.772 44.731C57.162 45.576 57.474 46.343 57.682 47.045L56.902 47.344C56.655 46.525 56.356 45.719 55.992 44.939L56.772 44.731Z" fill="#E7E7E7"/>
<path d="M147.049 12.8301L146.361 13.129C146.48 13.4029 146.75 13.5801 147.049 13.5801C147.347 13.5801 147.618 13.4029 147.737 13.129L147.049 12.8301ZM156.048 12H156.798H156.048ZM156.048 22.4111L156.798 22.4114V22.4111H156.048ZM151.058 23.8604V23.1104H151.058L151.058 23.8604ZM147.484 26.6152L148.209 26.8071L148.21 26.8064L147.484 26.6152ZM147.472 26.6475L148.18 26.8952L148.18 26.8941L147.472 26.6475ZM147.465 26.668L146.77 26.3862L146.769 26.3874L147.465 26.668ZM147.438 26.7217L148.09 27.0935L148.09 27.093L147.438 26.7217ZM147.426 26.7422L146.795 26.3359L146.795 26.3361L147.426 26.7422ZM147.396 26.7812L146.814 26.3085L146.814 26.3091L147.396 26.7812ZM147.376 26.8057L147.923 27.3188L147.924 27.3178L147.376 26.8057ZM147.341 26.8398L146.853 26.27L146.852 26.2712L147.341 26.8398ZM147.313 26.8613L147.756 27.4671L147.757 27.4661L147.313 26.8613ZM147.284 26.8809L146.891 26.2424L146.889 26.2431L147.284 26.8809ZM147.245 26.9033L147.573 27.5779L147.574 27.5775L147.245 26.9033ZM147.203 26.9209L146.945 26.2167L146.945 26.2167L147.203 26.9209ZM147.175 26.9297L147.386 27.6494H147.386L147.175 26.9297ZM147.128 26.9404L146.996 26.2022L146.995 26.2022L147.128 26.9404ZM147.106 26.9463L147.202 27.6901L147.203 27.6901L147.106 26.9463ZM147.09 26.9463L147.158 27.6932L147.159 27.6931L147.09 26.9463ZM147.049 26.9482L147.05 26.1982L147.048 26.1982L147.049 26.9482ZM147.007 26.9463L146.936 27.693L146.937 27.693L147.007 26.9463ZM146.991 26.9463L146.895 27.6901L146.895 27.6901L146.991 26.9463ZM146.969 26.9404L147.103 26.2025L147.103 26.2025L146.969 26.9404ZM146.922 26.9297L146.71 27.649L146.71 27.649L146.922 26.9297ZM146.894 26.9209L147.153 26.2173L147.153 26.2172L146.894 26.9209ZM146.852 26.9033L146.522 27.5769L146.522 27.5772L146.852 26.9033ZM146.812 26.8809L147.208 26.2439L147.207 26.2431L146.812 26.8809ZM146.783 26.8613L146.339 27.4653L146.34 27.4663L146.783 26.8613ZM146.756 26.8398L147.246 26.272L147.244 26.2709L146.756 26.8398ZM146.721 26.8057L146.172 27.317L146.173 27.318L146.721 26.8057ZM146.7 26.7812L147.284 26.3099L147.283 26.3093L146.7 26.7812ZM146.671 26.7422L147.302 26.3368L147.302 26.3367L146.671 26.7422ZM146.658 26.7217L146.006 27.0923L146.006 27.0928L146.658 26.7217ZM146.632 26.668L147.328 26.3879L147.327 26.3868L146.632 26.668ZM146.625 26.6475L145.917 26.8936L145.917 26.8947L146.625 26.6475ZM146.613 26.6152L145.888 26.8064L145.888 26.8071L146.613 26.6152ZM143.04 23.8604L143.04 23.1104H143.04V23.8604ZM139.388 23.8604L139.388 24.6104H139.388V23.8604ZM138.05 22.5225H137.3V22.5227L138.05 22.5225ZM138.05 12H137.3H138.05ZM142.049 9.5498V10.2998C143.978 10.2998 145.637 11.4627 146.361 13.129L147.049 12.8301L147.737 12.5311C146.783 10.3373 144.597 8.7998 142.049 8.7998V9.5498ZM147.049 12.8301L147.737 13.129C148.461 11.4627 150.12 10.2998 152.049 10.2998V9.5498V8.7998C149.501 8.7998 147.314 10.3373 146.361 12.5311L147.049 12.8301ZM152.049 9.5498V10.2998H153.598V9.5498V8.7998H152.049V9.5498ZM153.598 9.5498V10.2998C154.537 10.2998 155.298 11.0611 155.298 12H156.048H156.798C156.798 10.2327 155.365 8.7998 153.598 8.7998V9.5498ZM156.048 12H155.298V22.4111H156.048H156.798V12H156.048ZM156.048 22.4111L155.298 22.4108C155.298 22.797 154.984 23.1104 154.598 23.1104V23.8604V24.6104C155.812 24.6104 156.797 23.6263 156.798 22.4114L156.048 22.4111ZM154.598 23.8604V23.1104H151.058V23.8604V24.6104H154.598V23.8604ZM151.058 23.8604L151.058 23.1104C149.038 23.1105 147.274 24.4721 146.759 26.4241L147.484 26.6152L148.21 26.8064C148.551 25.5124 149.72 24.6105 151.058 24.6104L151.058 23.8604ZM147.484 26.6152L146.759 26.4234C146.767 26.3938 146.775 26.3704 146.781 26.3552C146.784 26.3476 146.787 26.3414 146.789 26.3372C146.79 26.3331 146.792 26.3302 146.792 26.3295C146.792 26.3291 146.792 26.3289 146.792 26.3294C146.792 26.3295 146.791 26.3309 146.791 26.3318C146.79 26.334 146.788 26.3387 146.785 26.3443C146.781 26.3552 146.772 26.3754 146.763 26.4008L147.472 26.6475L148.18 26.8941C148.173 26.9141 148.167 26.929 148.164 26.9346C148.163 26.9376 148.162 26.9396 148.162 26.9391C148.163 26.9387 148.162 26.9388 148.163 26.9376C148.163 26.9367 148.164 26.9352 148.165 26.9335C148.167 26.9275 148.174 26.9116 148.182 26.8917C148.19 26.8712 148.2 26.8423 148.209 26.8071L147.484 26.6152ZM147.472 26.6475L146.764 26.3997C146.759 26.412 146.756 26.4221 146.755 26.4276C146.754 26.4303 146.753 26.4327 146.753 26.4337C146.752 26.4352 146.752 26.4349 146.752 26.4346C146.753 26.4339 146.754 26.4283 146.757 26.4206C146.76 26.4127 146.764 26.4007 146.77 26.3862L147.465 26.668L148.16 26.9497C148.167 26.9319 148.173 26.9165 148.177 26.9052C148.18 26.8941 148.183 26.885 148.184 26.8809C148.185 26.879 148.186 26.8769 148.186 26.8767C148.186 26.876 148.186 26.8766 148.185 26.8777C148.185 26.8797 148.183 26.8864 148.18 26.8952L147.472 26.6475ZM147.465 26.668L146.769 26.3874C146.777 26.3673 146.785 26.3541 146.787 26.3504L147.438 26.7217L148.09 27.093C148.112 27.0547 148.137 27.0062 148.16 26.9486L147.465 26.668ZM147.438 26.7217L146.787 26.3498C146.792 26.3421 146.795 26.3366 146.796 26.3345C146.797 26.3333 146.797 26.3328 146.797 26.3331C146.797 26.3335 146.797 26.3341 146.795 26.3359L147.426 26.7422L148.056 27.1484C148.059 27.1441 148.074 27.1208 148.09 27.0935L147.438 26.7217ZM147.426 26.7422L146.795 26.3361C146.805 26.3216 146.812 26.3115 146.815 26.3072C146.817 26.305 146.818 26.3037 146.818 26.3041C146.817 26.3045 146.817 26.3055 146.814 26.3085L147.396 26.7812L147.979 27.254C147.987 27.2436 148.022 27.2014 148.056 27.1483L147.426 26.7422ZM147.396 26.7812L146.814 26.3091C146.812 26.311 146.811 26.3126 146.81 26.3139C146.809 26.3154 146.808 26.3158 146.808 26.3167C146.807 26.3181 146.807 26.3176 146.808 26.3164C146.81 26.3141 146.817 26.3052 146.828 26.2935L147.376 26.8057L147.924 27.3178C147.942 27.2984 147.956 27.2814 147.965 27.2709C147.969 27.2656 147.973 27.261 147.975 27.2583C147.978 27.2544 147.978 27.2547 147.979 27.2534L147.396 26.7812ZM147.376 26.8057L146.829 26.2925C146.826 26.2953 146.836 26.2846 146.853 26.27L147.341 26.8398L147.829 27.4096C147.871 27.3737 147.903 27.3401 147.923 27.3188L147.376 26.8057ZM147.341 26.8398L146.852 26.2712C146.863 26.2613 146.871 26.2557 146.87 26.2566L147.313 26.8613L147.757 27.4661C147.775 27.4532 147.801 27.4335 147.83 27.4085L147.341 26.8398ZM147.313 26.8613L146.871 26.2556C146.881 26.2481 146.889 26.2435 146.891 26.2424L147.284 26.8809L147.678 27.5193C147.7 27.5058 147.726 27.4885 147.756 27.4671L147.313 26.8613ZM147.284 26.8809L146.889 26.2431C146.885 26.2457 146.884 26.2464 146.883 26.2472C146.882 26.2477 146.883 26.2471 146.885 26.2458C146.889 26.2434 146.901 26.2369 146.917 26.2291L147.245 26.9033L147.574 27.5775C147.628 27.5512 147.674 27.5216 147.679 27.5186L147.284 26.8809ZM147.245 26.9033L146.917 26.2288C146.933 26.2212 146.944 26.2172 146.945 26.2167L147.203 26.9209L147.461 27.6251C147.491 27.6141 147.53 27.5988 147.573 27.5779L147.245 26.9033ZM147.203 26.9209L146.945 26.2167C146.96 26.2114 146.97 26.2081 146.973 26.2073C146.974 26.2069 146.975 26.2068 146.973 26.2073C146.972 26.2077 146.972 26.2076 146.97 26.2083C146.968 26.2087 146.966 26.2093 146.964 26.2099L147.175 26.9297L147.386 27.6494C147.387 27.6491 147.387 27.6492 147.391 27.6479C147.394 27.6471 147.399 27.6455 147.405 27.6437C147.417 27.6401 147.437 27.6338 147.461 27.6251L147.203 26.9209ZM147.175 26.9297L146.964 26.2099C146.982 26.2046 146.994 26.2024 146.996 26.2022L147.128 26.9404L147.26 27.6787C147.293 27.6727 147.337 27.6638 147.386 27.6494L147.175 26.9297ZM147.128 26.9404L146.995 26.2022C146.975 26.2059 146.957 26.2099 146.943 26.2136C146.928 26.2173 146.916 26.2208 146.906 26.2236C146.897 26.2264 146.89 26.2288 146.885 26.2302C146.883 26.2309 146.882 26.2315 146.881 26.2317C146.88 26.2319 146.88 26.232 146.88 26.2321C146.88 26.2321 146.88 26.2321 146.88 26.2321C146.88 26.232 146.884 26.2307 146.889 26.2291C146.894 26.2274 146.903 26.2248 146.913 26.2219C146.934 26.2162 146.968 26.208 147.01 26.2025L147.106 26.9463L147.203 27.6901C147.249 27.6841 147.286 27.6751 147.31 27.6684C147.333 27.6621 147.352 27.6558 147.355 27.6549C147.359 27.6536 147.355 27.6547 147.354 27.655C147.352 27.6558 147.346 27.6576 147.339 27.6599C147.325 27.6642 147.297 27.6721 147.26 27.6786L147.128 26.9404ZM147.106 26.9463L147.01 26.2025C147.052 26.1972 147.085 26.1964 147.106 26.1965C147.116 26.1966 147.125 26.1968 147.13 26.1971C147.135 26.1973 147.139 26.1975 147.139 26.1975C147.139 26.1975 147.139 26.1975 147.139 26.1975C147.139 26.1975 147.138 26.1974 147.138 26.1974C147.137 26.1974 147.135 26.1973 147.133 26.1972C147.128 26.1969 147.121 26.1966 147.111 26.1964C147.101 26.1962 147.089 26.196 147.074 26.1964C147.059 26.1967 147.041 26.1976 147.021 26.1995L147.09 26.9463L147.159 27.6931C147.122 27.6965 147.093 27.6963 147.077 27.696C147.069 27.6958 147.062 27.6955 147.059 27.6954C147.057 27.6953 147.054 27.6951 147.057 27.6953C147.059 27.6953 147.064 27.6956 147.07 27.6959C147.077 27.6961 147.087 27.6965 147.099 27.6965C147.122 27.6966 147.159 27.6958 147.202 27.6901L147.106 26.9463ZM147.09 26.9463L147.022 26.1994C147.027 26.1989 147.037 26.1982 147.05 26.1982L147.049 26.9482L147.048 27.6982C147.089 27.6983 147.126 27.6961 147.158 27.6932L147.09 26.9463ZM147.049 26.9482L147.048 26.1982C147.058 26.1982 147.068 26.1987 147.077 26.1995L147.007 26.9463L146.937 27.693C146.974 27.6965 147.011 27.6983 147.05 27.6982L147.049 26.9482ZM147.007 26.9463L147.077 26.1996C147.057 26.1977 147.039 26.1968 147.024 26.1964C147.009 26.196 146.996 26.1961 146.986 26.1964C146.976 26.1966 146.969 26.1969 146.964 26.1972C146.962 26.1973 146.96 26.1974 146.959 26.1974C146.959 26.1974 146.958 26.1975 146.958 26.1975C146.958 26.1975 146.958 26.1975 146.958 26.1975C146.958 26.1975 146.959 26.1974 146.96 26.1974C146.962 26.1973 146.964 26.1972 146.967 26.1971C146.972 26.1968 146.981 26.1966 146.991 26.1965C147.012 26.1964 147.046 26.1971 147.087 26.2025L146.991 26.9463L146.895 27.6901C146.939 27.6958 146.976 27.6966 146.999 27.6965C147.011 27.6964 147.021 27.6961 147.027 27.6958C147.034 27.6956 147.039 27.6953 147.04 27.6952C147.043 27.6951 147.04 27.6952 147.038 27.6953C147.035 27.6955 147.028 27.6958 147.02 27.696C147.004 27.6964 146.974 27.6965 146.936 27.693L147.007 26.9463ZM146.991 26.9463L147.088 26.2025C147.126 26.2074 147.156 26.2145 147.175 26.2194C147.184 26.2219 147.192 26.2241 147.197 26.2256C147.202 26.227 147.205 26.2281 147.205 26.2282C147.205 26.2282 147.205 26.2282 147.205 26.2282C147.205 26.2282 147.205 26.2281 147.205 26.2281C147.205 26.228 147.205 26.228 147.205 26.2279C147.204 26.2277 147.202 26.2272 147.2 26.2266C147.197 26.2255 147.19 26.2235 147.182 26.2211C147.174 26.2187 147.163 26.2157 147.15 26.2125C147.137 26.2093 147.121 26.2058 147.103 26.2025L146.969 26.9404L146.835 27.6783C146.803 27.6726 146.779 27.666 146.767 27.6624C146.76 27.6606 146.756 27.6592 146.754 27.6586C146.754 27.6585 146.75 27.6575 146.755 27.6588C146.758 27.6598 146.775 27.6653 146.796 27.6709C146.819 27.6768 146.853 27.6847 146.895 27.6901L146.991 26.9463ZM146.969 26.9404L147.103 26.2025C147.1 26.202 147.114 26.2043 147.134 26.2104L146.922 26.9297L146.71 27.649C146.761 27.6641 146.805 27.673 146.835 27.6784L146.969 26.9404ZM146.922 26.9297L147.134 26.2104C147.129 26.209 147.125 26.2076 147.123 26.2072C147.121 26.2066 147.122 26.2067 147.123 26.2071C147.125 26.2079 147.137 26.2114 147.153 26.2173L146.894 26.9209L146.634 27.6245C146.659 27.6338 146.68 27.6403 146.692 27.6439C146.698 27.6457 146.704 27.6473 146.706 27.648C146.708 27.6485 146.708 27.6486 146.709 27.6489C146.71 27.649 146.71 27.6491 146.71 27.649L146.922 26.9297ZM146.894 26.9209L147.153 26.2172C147.151 26.2165 147.163 26.2207 147.181 26.2294L146.852 26.9033L146.522 27.5772C146.568 27.5993 146.607 27.6148 146.634 27.6246L146.894 26.9209ZM146.852 26.9033L147.181 26.2297C147.196 26.237 147.207 26.2431 147.211 26.2455C147.213 26.2467 147.214 26.2474 147.214 26.2471C147.213 26.2466 147.212 26.2459 147.208 26.2439L146.812 26.8809L146.417 27.5179C146.425 27.5231 146.469 27.551 146.522 27.5769L146.852 26.9033ZM146.812 26.8809L147.207 26.2431C147.206 26.2426 147.214 26.2476 147.226 26.2563L146.783 26.8613L146.34 27.4663C146.371 27.489 146.399 27.5067 146.418 27.5186L146.812 26.8809ZM146.783 26.8613L147.228 26.2573C147.226 26.2562 147.228 26.2572 147.231 26.2594C147.234 26.2618 147.239 26.2661 147.246 26.272L146.756 26.8398L146.266 27.4077C146.296 27.434 146.324 27.4543 146.339 27.4653L146.783 26.8613ZM146.756 26.8398L147.244 26.2709C147.26 26.2843 147.269 26.294 147.268 26.2933L146.721 26.8057L146.173 27.318C146.195 27.3414 146.227 27.3741 146.267 27.4088L146.756 26.8398ZM146.721 26.8057L147.269 26.2943C147.28 26.3053 147.287 26.3136 147.288 26.316C147.289 26.3172 147.29 26.3177 147.289 26.3165C147.288 26.3159 147.288 26.3153 147.287 26.3141C147.286 26.3131 147.285 26.3115 147.284 26.3099L146.7 26.7812L146.117 27.2526C146.12 27.2559 146.117 27.2527 146.122 27.2584C146.124 27.2614 146.128 27.266 146.132 27.2713C146.141 27.2818 146.155 27.2982 146.172 27.317L146.721 26.8057ZM146.7 26.7812L147.283 26.3093C147.28 26.3059 147.279 26.3048 147.279 26.304C147.278 26.3035 147.279 26.3046 147.281 26.3068C147.284 26.311 147.292 26.3216 147.302 26.3368L146.671 26.7422L146.04 27.1476C146.075 27.2015 146.111 27.245 146.117 27.2532L146.7 26.7812ZM146.671 26.7422L147.302 26.3367C147.3 26.3344 147.3 26.3338 147.299 26.333C147.299 26.3325 147.299 26.333 147.3 26.3341C147.301 26.3361 147.305 26.3421 147.31 26.3505L146.658 26.7217L146.006 27.0928C146.022 27.1208 146.039 27.1456 146.04 27.1477L146.671 26.7422ZM146.658 26.7217L147.31 26.3511C147.312 26.3534 147.319 26.3668 147.328 26.3879L146.632 26.668L145.936 26.948C145.96 27.0066 145.985 27.0554 146.006 27.0923L146.658 26.7217ZM146.632 26.668L147.327 26.3868C147.333 26.401 147.337 26.4128 147.34 26.4206C147.342 26.4281 147.344 26.4336 147.344 26.4343C147.344 26.4345 147.344 26.4349 147.344 26.4334C147.344 26.4325 147.343 26.4301 147.342 26.4274C147.34 26.4221 147.337 26.4122 147.333 26.4002L146.625 26.6475L145.917 26.8947C145.914 26.8861 145.912 26.8797 145.911 26.8778C145.911 26.8768 145.911 26.8762 145.911 26.8769C145.911 26.8772 145.912 26.8793 145.912 26.8812C145.914 26.8854 145.916 26.8943 145.92 26.9052C145.924 26.9164 145.929 26.9316 145.937 26.9491L146.632 26.668ZM146.625 26.6475L147.333 26.4013C147.328 26.385 147.323 26.3719 147.32 26.3651C147.319 26.3617 147.317 26.3586 147.317 26.3575C147.316 26.3558 147.316 26.3562 147.317 26.3568C147.317 26.358 147.32 26.3655 147.324 26.376C147.328 26.3868 147.333 26.4031 147.338 26.4234L146.613 26.6152L145.888 26.8071C145.901 26.8564 145.917 26.8949 145.921 26.9062C145.922 26.9095 145.923 26.9125 145.924 26.9135C145.924 26.915 145.924 26.9146 145.924 26.9138C145.923 26.9124 145.92 26.9045 145.917 26.8936L146.625 26.6475ZM146.613 26.6152L147.339 26.4241C146.824 24.4721 145.059 23.1105 143.04 23.1104L143.04 23.8604L143.04 24.6104C144.377 24.6105 145.547 25.5124 145.888 26.8064L146.613 26.6152ZM143.04 23.8604V23.1104H139.388V23.8604V24.6104H143.04V23.8604ZM139.388 23.8604L139.388 23.1104C139.063 23.1103 138.8 22.8472 138.8 22.5223L138.05 22.5225L137.3 22.5227C137.3 23.6756 138.234 24.6101 139.388 24.6104L139.388 23.8604ZM138.05 22.5225H138.8V12H138.05H137.3V22.5225H138.05ZM138.05 12H138.8C138.8 11.0611 139.561 10.2998 140.5 10.2998V9.5498V8.7998C138.733 8.7998 137.3 10.2327 137.3 12H138.05ZM140.5 9.5498V10.2998H142.049V9.5498V8.7998H140.5V9.5498Z" fill="#E7E7E7"/>
<path d="M147 15.5L147 21.5" stroke="#E7E7E7" stroke-width="1.5" stroke-linecap="round"/>
<path d="M139.902 36.866H140.578C142.229 38.777 144.14 40.285 146.298 41.377L145.791 42.274C143.62 41.104 141.774 39.583 140.24 37.711C138.823 39.479 136.951 41 134.637 42.3L134.143 41.403C136.457 40.181 138.368 38.673 139.902 36.866ZM144.348 43.548V48.787H143.438V48.007H137.042V48.787H136.132V43.548H144.348ZM137.042 47.11H143.438V44.432H137.042V47.11ZM136.86 41H143.62V41.897H136.86V41ZM152.161 45.641H148.157V44.796H153.331V44.12H154.267V44.796H159.363V45.641H155.424C156.308 46.473 157.673 47.136 159.506 47.63L159.103 48.462C156.945 47.734 155.424 46.798 154.514 45.641H154.267V48.813H153.331V45.641H153.084C152.265 46.746 150.744 47.708 148.521 48.514L148.027 47.708C150.029 47.097 151.407 46.408 152.161 45.641ZM149.431 40.116C149.093 40.506 148.729 40.87 148.339 41.234L147.806 40.506C148.963 39.466 149.821 38.244 150.393 36.84L151.264 37.061C151.134 37.412 150.978 37.75 150.822 38.075H153.63C153.448 37.672 153.266 37.295 153.058 36.957L154.02 36.801C154.202 37.178 154.371 37.607 154.54 38.075H158.739V38.855H154.605V39.739H158.258V40.467H154.605V41.325H158.258V42.053H154.605V42.976H158.986V43.769H149.431V40.116ZM153.682 42.976V42.053H150.302V42.976H153.682ZM153.682 41.325V40.467H150.302V41.325H153.682ZM153.682 39.739V38.855H150.367L150.302 38.959V39.739H153.682Z" fill="#E7E7E7"/>
<g clip-path="url(#clip0_4199_57886)">
<path d="M243.912 18.7141C244.585 18.2475 245.136 17.6282 245.516 16.9085C245.896 16.1887 246.095 15.3896 246.096 14.5784C246.096 11.7785 243.766 9.5 240.902 9.5C238.038 9.5 235.709 11.7795 235.709 14.5793C235.71 15.3905 235.908 16.1897 236.288 16.9094C236.669 17.6292 237.219 18.2484 237.893 18.7151C236.45 19.2941 235.214 20.2824 234.343 21.5543C233.472 22.8262 233.005 24.3243 233 25.8584C233 26.0625 233.082 26.2582 233.229 26.4025C233.375 26.5468 233.574 26.6279 233.781 26.6279C233.989 26.6279 234.187 26.5468 234.334 26.4025C234.481 26.2582 234.563 26.0625 234.563 25.8584C234.563 22.4392 237.407 19.6577 240.904 19.6577C244.401 19.6577 247.245 22.4392 247.245 25.8584C247.245 26.0625 247.328 26.2582 247.474 26.4025C247.621 26.5468 247.819 26.6279 248.027 26.6279C248.234 26.6279 248.433 26.5468 248.579 26.4025C248.726 26.2582 248.808 26.0625 248.808 25.8584C248.803 24.3237 248.335 22.825 247.463 21.5529C246.591 20.2808 245.355 19.2926 243.912 18.7141ZM237.269 14.5784C237.265 13.8701 237.474 13.1763 237.87 12.5851C238.266 11.9939 238.831 11.5318 239.494 11.2575C240.157 10.9831 240.888 10.9089 241.595 11.0441C242.301 11.1794 242.95 11.518 243.46 12.0172C243.971 12.5163 244.319 13.1534 244.461 13.8478C244.603 14.5421 244.533 15.2623 244.259 15.9172C243.984 16.572 243.519 17.1319 242.921 17.5259C242.324 17.9199 241.62 18.1303 240.901 18.1303C239.942 18.1324 239.021 17.7597 238.34 17.094C237.66 16.4283 237.275 15.5239 237.27 14.5793L237.269 14.5784Z" fill="#E7E7E7"/>
<path d="M249.362 18.2619C250.061 17.7012 250.598 16.9546 250.914 16.1028C251.231 15.251 251.316 14.3262 251.159 13.4284C251.003 12.5306 250.612 11.6938 250.027 11.0084C249.443 10.3229 248.688 9.81484 247.844 9.53897C247.651 9.47413 247.441 9.49069 247.26 9.58503C247.079 9.67936 246.941 9.84377 246.878 10.0422C246.847 10.1402 246.835 10.2436 246.843 10.3463C246.851 10.449 246.879 10.5491 246.925 10.6408C246.97 10.7324 247.033 10.8139 247.109 10.8806C247.186 10.9472 247.274 10.9976 247.369 11.029C248.077 11.2612 248.69 11.7287 249.111 12.3582C249.533 12.9877 249.74 13.7435 249.7 14.5071C249.659 15.2707 249.374 15.999 248.888 16.5776C248.403 17.1562 247.745 17.5526 247.017 17.7044C246.887 17.7324 246.767 17.7946 246.667 17.8849C246.568 17.9752 246.493 18.0905 246.45 18.2195C246.45 18.2294 246.443 18.2382 246.44 18.2481C246.438 18.2574 246.436 18.2666 246.433 18.2757C246.433 18.2925 246.426 18.3083 246.422 18.3261C246.418 18.3438 246.422 18.3379 246.422 18.3438C246.418 18.3637 246.415 18.3838 246.414 18.404C246.415 18.4099 246.415 18.4159 246.414 18.4218C246.413 18.4405 246.413 18.4593 246.414 18.478V18.554C246.414 18.5668 246.419 18.5905 246.422 18.6083C246.422 18.6145 246.422 18.6208 246.422 18.627C246.422 18.6408 246.428 18.6537 246.431 18.6665C246.434 18.6793 246.437 18.6882 246.441 18.6991C246.444 18.7105 246.448 18.7218 246.452 18.7326C246.452 18.7444 246.461 18.7573 246.466 18.7691C246.471 18.781 246.473 18.7869 246.478 18.7958C246.483 18.8046 246.491 18.8234 246.497 18.8362L246.51 18.8589C246.518 18.8732 246.526 18.887 246.536 18.9004L246.547 18.9181L246.579 18.9605L246.591 18.9753C246.603 18.9892 246.615 19.003 246.629 19.0168L246.639 19.0276C246.656 19.0448 246.674 19.0605 246.691 19.075L246.708 19.0878L246.747 19.1155C246.755 19.122 246.765 19.1279 246.774 19.1332L246.806 19.152L246.836 19.1678L246.869 19.1836L246.899 19.1954L246.939 19.2102L246.964 19.2181L247.023 19.2319H247.033C247.058 19.237 247.083 19.2406 247.109 19.2428C248.357 19.343 249.516 19.9496 250.33 20.9291C251.144 21.9087 251.548 23.181 251.451 24.4667C251.437 24.6741 251.502 24.879 251.634 25.037C251.765 25.195 251.952 25.2932 252.153 25.3103H252.215C252.407 25.3111 252.592 25.2376 252.734 25.1044C252.876 24.9712 252.965 24.788 252.982 24.591C253.08 23.2815 252.785 21.9726 252.138 20.8408C251.491 19.7091 250.522 18.809 249.362 18.2619Z" fill="#E7E7E7"/>
</g>
<path d="M231.885 48.683H230.715L230.52 47.773C230.884 47.799 231.222 47.825 231.56 47.825C231.872 47.825 232.041 47.656 232.041 47.331V44.159C231.547 44.354 231.04 44.536 230.533 44.692L230.312 43.756C230.897 43.613 231.469 43.431 232.041 43.21V40.272H230.468V39.375H232.041V36.918H233.003V39.375H234.316V40.272H233.003V42.807C233.38 42.625 233.757 42.443 234.121 42.235V43.184C233.757 43.379 233.38 43.561 233.003 43.743V47.578C233.003 48.306 232.626 48.683 231.885 48.683ZM235.33 37.334H240.998V41.845H235.33V37.334ZM240.088 41.078V39.96H236.24V41.078H240.088ZM236.24 39.232H240.088V38.101H236.24V39.232ZM234.42 42.755H241.856V43.587H238.606V45.056H241.323V45.901H238.606V47.578C239.126 47.656 239.737 47.695 240.452 47.695C241.128 47.695 241.713 47.669 242.194 47.63L241.934 48.54C241.414 48.54 240.933 48.527 240.517 48.527C238.801 48.514 237.631 48.345 237.007 48.033C236.513 47.773 236.058 47.279 235.668 46.551C235.356 47.357 234.927 48.098 234.368 48.774L233.679 48.176C234.667 46.98 235.213 45.628 235.317 44.146L236.149 44.237C236.123 44.705 236.058 45.147 235.954 45.589C236.37 46.46 236.851 47.019 237.397 47.266C237.488 47.305 237.592 47.344 237.709 47.383V43.587H234.42V42.755ZM253.543 48.722H252.152L251.918 47.851L253.348 47.877C253.842 47.877 254.089 47.591 254.089 47.019V38.543H249.045V37.633H255.038V47.266C255.038 48.228 254.531 48.722 253.543 48.722ZM244.482 39.037H245.431V48.813H244.482V39.037ZM247.394 40.909H252.074V45.797H247.394V40.909ZM251.125 44.9V41.806H248.343V44.9H251.125ZM246.419 36.775C247.017 37.49 247.563 38.27 248.031 39.128L247.199 39.557C246.705 38.647 246.146 37.854 245.548 37.152L246.419 36.775Z" fill="#E7E7E7"/>
<g clip-path="url(#clip1_4199_57886)">
<path d="M341.912 17.7128C342.585 17.2462 343.136 16.627 343.516 15.9074C343.896 15.1878 344.095 14.3887 344.096 13.5776C344.096 10.7782 341.766 8.5 338.902 8.5C336.038 8.5 333.709 10.7792 333.709 13.5786C333.71 14.3897 333.908 15.1887 334.288 15.9084C334.669 16.628 335.219 17.2472 335.893 17.7137C334.45 18.2927 333.214 19.2808 332.343 20.5525C331.472 21.8242 331.005 23.3222 331 24.8561C331 25.0601 331.082 25.2558 331.229 25.4001C331.375 25.5443 331.574 25.6254 331.781 25.6254C331.989 25.6254 332.187 25.5443 332.334 25.4001C332.481 25.2558 332.563 25.0601 332.563 24.8561C332.563 21.4373 335.407 18.6562 338.904 18.6562C342.401 18.6562 345.245 21.4373 345.245 24.8561C345.245 25.0601 345.328 25.2558 345.474 25.4001C345.621 25.5443 345.819 25.6254 346.027 25.6254C346.234 25.6254 346.433 25.5443 346.579 25.4001C346.726 25.2558 346.808 25.0601 346.808 24.8561C346.803 23.3216 346.335 21.8231 345.463 20.5512C344.592 19.2792 343.355 18.2912 341.912 17.7128ZM335.269 13.5776C335.265 12.8694 335.474 12.1758 335.87 11.5847C336.266 10.9935 336.831 10.5315 337.494 10.2572C338.158 9.98289 338.888 9.90865 339.595 10.0439C340.301 10.1791 340.95 10.5177 341.46 11.0168C341.971 11.5159 342.319 12.1529 342.461 12.8471C342.603 13.5414 342.533 14.2615 342.259 14.9162C341.984 15.571 341.519 16.1308 340.921 16.5248C340.324 16.9187 339.62 17.129 338.901 17.1291C337.942 17.1311 337.021 16.7585 336.34 16.0929C335.66 15.4273 335.275 14.5231 335.27 13.5786L335.269 13.5776Z" fill="#E7E7E7"/>
<mask id="path-11-inside-1_4199_57886" fill="white">
<path d="M338.931 9.40918C341.302 9.40934 343.223 11.3311 343.224 13.7021C343.224 15.3636 342.279 16.8028 340.898 17.5166C343.651 18.4277 345.845 21.1436 346.683 24.6338C346.826 25.2277 346.355 25.7725 345.744 25.7725H331.986C331.375 25.7725 330.904 25.2277 331.047 24.6338C331.893 21.1102 334.121 18.375 336.91 17.4902C335.558 16.7675 334.637 15.3427 334.637 13.7021C334.637 11.331 336.559 9.40918 338.931 9.40918Z"/>
</mask>
<path d="M338.931 9.40918C341.302 9.40934 343.223 11.3311 343.224 13.7021C343.224 15.3636 342.279 16.8028 340.898 17.5166C343.651 18.4277 345.845 21.1436 346.683 24.6338C346.826 25.2277 346.355 25.7725 345.744 25.7725H331.986C331.375 25.7725 330.904 25.2277 331.047 24.6338C331.893 21.1102 334.121 18.375 336.91 17.4902C335.558 16.7675 334.637 15.3427 334.637 13.7021C334.637 11.331 336.559 9.40918 338.931 9.40918Z" fill="#E7E7E7"/>
<path d="M338.931 9.40918L338.931 8.40918H338.931V9.40918ZM343.224 13.7021H344.224V13.7021L343.224 13.7021ZM340.898 17.5166L340.439 16.6283L338.329 17.7194L340.584 18.4659L340.898 17.5166ZM346.683 24.6338L347.656 24.4003L347.656 24.4002L346.683 24.6338ZM331.047 24.6338L330.074 24.4003L330.074 24.4003L331.047 24.6338ZM336.91 17.4902L337.212 18.4434L339.473 17.7263L337.381 16.6083L336.91 17.4902ZM334.637 13.7021L333.637 13.7021V13.7021H334.637ZM338.931 9.40918L338.93 10.4092C340.749 10.4093 342.223 11.8835 342.224 13.7022L343.224 13.7021L344.224 13.7021C344.223 10.7788 341.854 8.40938 338.931 8.40918L338.931 9.40918ZM343.224 13.7021H342.224C342.224 14.9743 341.501 16.0791 340.439 16.6283L340.898 17.5166L341.358 18.4049C343.056 17.5265 344.224 15.7528 344.224 13.7021H343.224ZM340.898 17.5166L340.584 18.4659C342.924 19.2404 344.93 21.617 345.711 24.8673L346.683 24.6338L347.656 24.4002C346.76 20.6703 344.378 17.615 341.213 16.5673L340.898 17.5166ZM346.683 24.6338L345.711 24.8673C345.709 24.8575 345.708 24.8395 345.713 24.8195C345.717 24.8014 345.725 24.7897 345.73 24.7835C345.739 24.7722 345.747 24.7725 345.744 24.7725V25.7725V26.7725C346.936 26.7725 347.964 25.685 347.656 24.4003L346.683 24.6338ZM345.744 25.7725V24.7725H331.986V25.7725V26.7725H345.744V25.7725ZM331.986 25.7725V24.7725C331.983 24.7725 331.991 24.7722 332 24.7835C332.006 24.7897 332.013 24.8014 332.018 24.8195C332.023 24.8395 332.021 24.8575 332.019 24.8673L331.047 24.6338L330.074 24.4003C329.766 25.685 330.794 26.7725 331.986 26.7725V25.7725ZM331.047 24.6338L332.019 24.8673C332.808 21.5847 334.844 19.1945 337.212 18.4434L336.91 17.4902L336.608 16.537C333.397 17.5554 330.979 20.6356 330.074 24.4003L331.047 24.6338ZM336.91 17.4902L337.381 16.6083C336.341 16.0522 335.637 14.9586 335.637 13.7021H334.637H333.637C333.637 15.7268 334.774 17.4827 336.439 18.3722L336.91 17.4902ZM334.637 13.7021L335.637 13.7022C335.637 11.8836 337.111 10.4092 338.931 10.4092V9.40918V8.40918C336.007 8.40918 333.637 10.7785 333.637 13.7021L334.637 13.7021Z" fill="#E7E7E7" mask="url(#path-11-inside-1_4199_57886)"/>
</g>
<path d="M332.383 44.107C331.733 44.3237 331.014 44.536 330.225 44.744V47.37C330.225 48.2453 329.77 48.683 328.86 48.683H327.391L327.092 47.396C327.551 47.448 327.985 47.474 328.392 47.474C328.695 47.474 328.847 47.3267 328.847 47.032V45.069C328.058 45.2337 327.283 45.3767 326.52 45.498L326.325 44.133C327.157 44.0117 327.998 43.86 328.847 43.678V41.442H326.312V40.142H328.847V38.933C328.266 39.0543 327.621 39.1627 326.91 39.258L326.624 37.971C328.444 37.7717 330.047 37.3903 331.434 36.827L331.902 38.101C331.417 38.283 330.858 38.4563 330.225 38.621V40.142H332.89C332.821 39.2493 332.786 38.1487 332.786 36.84H334.151C334.168 38.14 334.212 39.2407 334.281 40.142H338.168V41.442H334.385C334.463 42.2567 334.576 42.95 334.723 43.522L334.879 44.094C335.416 43.4267 335.88 42.69 336.27 41.884L337.44 42.508C336.868 43.6867 336.183 44.705 335.386 45.563C335.516 45.8837 335.655 46.148 335.802 46.356C336.166 46.928 336.443 47.214 336.634 47.214C336.773 47.214 336.92 46.5597 337.076 45.251L338.285 45.888C337.947 47.7513 337.462 48.683 336.829 48.683C336.257 48.683 335.663 48.2973 335.048 47.526C334.797 47.2053 334.58 46.863 334.398 46.499C333.514 47.227 332.53 47.799 331.447 48.215L330.693 47.058C331.898 46.616 332.946 45.992 333.839 45.186C333.7 44.77 333.57 44.341 333.449 43.899C333.258 43.223 333.111 42.404 333.007 41.442H330.225V43.366C331.066 43.1493 331.785 42.937 332.383 42.729V44.107ZM335.581 36.957C336.491 37.529 337.271 38.101 337.921 38.673L336.946 39.648C336.426 39.0933 335.668 38.4867 334.671 37.828L335.581 36.957ZM344.681 38.933V48.046H343.381V47.396H341.457V48.423H340.157V38.933H341.405C341.639 38.2397 341.808 37.5247 341.912 36.788L343.277 36.97C343.138 37.6633 342.948 38.3177 342.705 38.933H344.681ZM341.457 46.148H343.381V43.691H341.457V46.148ZM341.457 42.482H343.381V40.207H341.457V42.482ZM347.047 42.092C347.87 43.1407 348.512 44.068 348.971 44.874L347.879 45.628C347.411 44.7873 346.765 43.8383 345.942 42.781L347.047 42.092ZM351.376 38.933C351.376 43.483 351.311 46.291 351.181 47.357C351.051 48.267 350.427 48.722 349.309 48.722C349.049 48.722 348.581 48.696 347.905 48.644L347.58 47.409C348.213 47.4523 348.715 47.474 349.088 47.474C349.556 47.474 349.829 47.2183 349.907 46.707C349.976 46.1523 350.024 44.003 350.05 40.259H346.904C346.557 41.039 346.141 41.741 345.656 42.365L344.837 41.286C345.686 40.0813 346.267 38.5777 346.579 36.775L347.918 36.944C347.797 37.6113 347.632 38.2743 347.424 38.933H351.376Z" fill="#E7E7E7"/>
<rect x="125" y="69.5" width="140" height="4" rx="2" fill="#E9E9E9"/>
<defs>
<clipPath id="clip0_4199_57886">
<rect width="24" height="24" fill="white" transform="translate(231 6.5)"/>
</clipPath>
<clipPath id="clip1_4199_57886">
<rect width="24" height="24" fill="white" transform="translate(327 6.5)"/>
</clipPath>
</defs>
</svg>
