<svg width="387" height="52" viewBox="0 0 387 52" fill="none" xmlns="http://www.w3.org/2000/svg">
<rect x="13" width="358" height="52" rx="6" fill="white" fill-opacity="0.05"/>
<rect x="13.5" y="0.5" width="357" height="51" rx="5.5" stroke="white" stroke-opacity="0.05"/>
<rect x="25" y="12" width="28" height="28" rx="14" fill="#EEE6DB" fill-opacity="0.3"/>
<path d="M34.2321 22.6176C32.2642 23.0632 31.2802 23.2856 31.0458 24.0384C30.8122 24.7904 31.4826 25.5752 32.8241 27.1441L33.1713 27.5497C33.5521 27.9953 33.7433 28.2185 33.8289 28.4937C33.9145 28.7697 33.8857 29.0673 33.8281 29.6617L33.7753 30.2033C33.5729 32.2969 33.4713 33.3433 34.0841 33.8081C34.6969 34.2729 35.6185 33.8489 37.46 33.0009L37.9376 32.7817C38.4608 32.5401 38.7224 32.4201 39 32.4201C39.2776 32.4201 39.5392 32.5401 40.0632 32.7817L40.5392 33.0009C42.3815 33.8489 43.3031 34.2729 43.9151 33.8089C44.5287 33.3433 44.4271 32.2969 44.2247 30.2033M45.1759 27.1441C46.5174 25.576 47.1878 24.7912 46.9542 24.0384C46.7206 23.2856 45.7358 23.0624 43.7679 22.6176L43.2591 22.5024C42.6999 22.376 42.4207 22.3128 42.1959 22.1424C41.9711 21.972 41.8279 21.7136 41.5399 21.1968L41.2775 20.7264C40.264 18.9088 39.7576 18 39 18C38.2424 18 37.736 18.9088 36.7225 20.7264" stroke="#E7E7E7" stroke-width="1.5" stroke-linecap="round"/>
<path d="M68.154 25.918V27.276C67.398 27.528 66.6 27.752 65.76 27.976V30.902C65.76 31.798 65.284 32.26 64.346 32.26H62.778L62.484 30.986C62.974 31.042 63.436 31.07 63.884 31.07C64.234 31.07 64.416 30.902 64.416 30.566V28.284C63.576 28.466 62.722 28.634 61.826 28.774L61.644 27.444C62.61 27.29 63.534 27.122 64.416 26.94V24.434H61.644V23.16H64.416V21.676C63.716 21.816 63.002 21.928 62.26 22.04L61.98 20.78C63.94 20.57 65.676 20.164 67.188 19.548L67.65 20.794C67.048 21.004 66.418 21.2 65.76 21.382V23.16H68.784C68.7 22.068 68.658 20.864 68.658 19.548H70.002C70.002 20.92 70.044 22.124 70.128 23.16H74.356V24.434H70.24C70.324 25.358 70.45 26.128 70.618 26.744C70.674 27.01 70.744 27.248 70.814 27.472C71.416 26.744 71.948 25.918 72.396 24.994L73.544 25.596C72.914 26.884 72.172 27.99 71.304 28.914C71.472 29.292 71.626 29.614 71.794 29.866C72.214 30.496 72.536 30.818 72.76 30.818C72.942 30.818 73.124 30.09 73.306 28.634L74.482 29.25C74.132 31.238 73.614 32.246 72.942 32.246C72.34 32.246 71.71 31.826 71.052 31C70.786 30.664 70.548 30.286 70.338 29.838C69.372 30.65 68.294 31.294 67.09 31.756L66.348 30.608C67.664 30.132 68.812 29.446 69.792 28.55C69.624 28.088 69.484 27.612 69.358 27.108C69.162 26.352 69.008 25.456 68.896 24.434H65.76V26.632C66.6 26.408 67.398 26.17 68.154 25.918ZM71.542 19.674C72.536 20.304 73.376 20.934 74.076 21.564L73.11 22.516C72.522 21.9 71.71 21.242 70.646 20.528L71.542 19.674ZM80.782 21.83V31.574H79.508V30.846H77.296V31.98H76.022V21.83H77.352C77.604 21.074 77.8 20.304 77.912 19.492L79.242 19.674C79.102 20.444 78.892 21.158 78.626 21.83H80.782ZM77.296 29.614H79.508V26.856H77.296V29.614ZM77.296 25.666H79.508V23.09H77.296V25.666ZM83.302 25.19C84.226 26.338 84.94 27.332 85.43 28.2L84.38 28.942C83.848 28.018 83.12 26.996 82.224 25.862L83.302 25.19ZM88.006 21.844C88.006 26.674 87.936 29.656 87.796 30.776C87.656 31.784 86.984 32.288 85.794 32.288C85.514 32.288 85.01 32.26 84.31 32.218L83.988 31C84.604 31.028 85.136 31.056 85.584 31.056C86.144 31.056 86.466 30.762 86.55 30.174C86.634 29.474 86.676 27.122 86.704 23.132H83.19C82.798 23.972 82.35 24.742 81.818 25.442L81.02 24.392C81.944 23.048 82.588 21.41 82.924 19.478L84.24 19.646C84.1 20.43 83.904 21.158 83.68 21.844H88.006ZM90.19 29.754L89.798 28.634C90.022 28.55 90.148 28.41 90.148 28.228V20.752H91.45V28.172C92.038 27.99 92.612 27.794 93.186 27.57V19.59H94.488V31.168C95.874 30.496 96.994 29.614 97.834 28.55C97.148 27.556 96.574 26.492 96.112 25.372C95.874 25.736 95.622 26.058 95.37 26.366L94.558 25.358C95.664 23.902 96.42 21.942 96.812 19.478L98.142 19.702C98.03 20.346 97.89 20.962 97.75 21.536H102.174V22.838H101.068C100.956 25.022 100.41 26.912 99.458 28.508C100.326 29.6 101.362 30.58 102.538 31.448L101.628 32.526C100.48 31.658 99.486 30.692 98.646 29.642C97.736 30.734 96.588 31.658 95.188 32.414L94.488 31.28V32.344H93.186V28.844C92.234 29.18 91.226 29.488 90.19 29.754ZM97.344 22.838C97.204 23.23 97.05 23.594 96.882 23.958C97.33 25.19 97.918 26.324 98.618 27.36C99.318 26.072 99.71 24.56 99.808 22.838H97.344ZM103.868 20.304H107.018V19.52H108.362V20.304H111.652V19.534H112.996V20.304H116.146V21.466H112.996V22.11H113.696C113.696 22.334 113.696 22.558 113.71 22.768H114.55C114.424 22.432 114.284 22.138 114.144 21.858L115.25 21.69C115.362 22.012 115.488 22.376 115.628 22.768H116.244V23.874H113.738C113.766 25.582 113.864 26.856 114.018 27.724V27.752C114.326 26.842 114.536 25.806 114.662 24.644L115.768 24.882C115.544 26.842 115.11 28.452 114.466 29.712C114.522 29.894 114.578 30.048 114.634 30.174C114.858 30.664 115.012 30.916 115.124 30.916C115.25 30.916 115.376 30.342 115.516 29.222L116.468 29.754C116.216 31.518 115.824 32.4 115.32 32.4C114.928 32.4 114.522 32.05 114.088 31.378C113.976 31.21 113.864 31.014 113.78 30.804C113.276 31.476 112.674 31.994 112.002 32.386L111.442 31.476H108.012V24.518H112.072V25.554H111.022V26.52H112.1V29.362H111.022V30.426H112.072V30.902C112.548 30.496 112.954 30.006 113.29 29.432C113.178 29.068 113.08 28.662 112.996 28.228C112.772 27.108 112.632 25.666 112.576 23.874H107.41V27.962C107.382 29.824 107.06 31.322 106.472 32.456L105.52 31.588C105.968 30.734 106.192 29.544 106.22 28.018H105.366C105.282 29.838 104.96 31.126 104.372 31.854L103.476 31.14C103.98 30.566 104.274 29.53 104.344 28.018H103.602V26.912H106.22V25.722H104.106V22.432H105.24V24.616H106.22V22.768H112.548V22.306H111.652V21.466H108.362V22.292H107.018V21.466H103.868V20.304ZM110 25.554H109.062V26.52H110V25.554ZM109.062 27.472V28.396H111.092V27.472H109.062ZM109.062 29.362V30.426H110V29.362H109.062Z" fill="#E7E7E7"/>
<path d="M348.746 31.4543L354.186 26.0143C354.205 25.9084 354.205 25.8001 354.186 25.6943L348.746 20.2543C348.704 20.236 348.586 20.2351 348.426 20.2543L347.786 20.8943C347.768 21.0613 347.767 21.1823 347.786 21.2143L352.266 25.6943C352.298 25.7416 352.315 25.7973 352.315 25.8543C352.315 25.9113 352.298 25.9669 352.266 26.0143L347.786 30.4943C347.768 30.5256 347.766 30.646 347.786 30.8143L348.426 31.4543C348.584 31.4725 348.704 31.4735 348.746 31.4543Z" fill="#E7E7E7" fill-opacity="0.5"/>
</svg>
