<svg width="387" height="52" viewBox="0 0 387 52" fill="none" xmlns="http://www.w3.org/2000/svg">
<rect x="13" width="358" height="52" rx="6" fill="white" fill-opacity="0.05"/>
<rect x="13.5" y="0.5" width="357" height="51" rx="5.5" stroke="white" stroke-opacity="0.05"/>
<rect x="25" y="12" width="28" height="28" rx="14" fill="#EEE6DB" fill-opacity="0.3"/>
<path d="M33.0248 29.6647C32 28.8463 32 28.227 32 25.5914C32 22.9558 32 21.6376 33.0248 20.8191C34.051 20 35.7002 20 39 20C42.2998 20 43.9497 20 44.9745 20.8191C45.9993 21.6383 46 22.9558 46 25.5914C46 28.227 46 28.8463 44.9745 29.6647C43.9504 30.4839 42.2998 30.4839 39 30.4839C37.243 30.4839 35.9475 31.7419 34.6875 33L34.8 30.3357C34.0342 30.2218 33.4707 30.0212 33.0248 29.6647Z" stroke="#E7E7E7" stroke-width="1.4" stroke-linecap="round" stroke-linejoin="round"/>
<path d="M69.19 19.562H70.534V23.3H73.502V30.748C73.502 31.798 72.998 32.33 71.99 32.33H70.436L70.086 31.042L71.556 31.084C71.962 31.084 72.172 30.874 72.172 30.454V29.418H67.594V32.358H66.25V23.3H69.19V19.562ZM67.594 27.01V28.284H72.172V27.01H67.594ZM72.172 25.876V24.588H67.594V25.876H72.172ZM66.684 19.884C67.188 20.598 67.678 21.382 68.154 22.236L67.104 22.754C66.628 21.886 66.124 21.116 65.578 20.416L66.684 19.884ZM72.984 19.87L74.062 20.388C73.67 21.256 73.138 22.096 72.494 22.908L71.472 22.362C72.116 21.522 72.62 20.696 72.984 19.87ZM64.094 26.772L65.27 27.22C64.598 29.012 63.842 30.706 63.03 32.288L61.798 31.742C62.666 30.118 63.436 28.466 64.094 26.772ZM63.002 19.66C63.968 20.36 64.78 21.046 65.452 21.746L64.5 22.698C63.912 22.04 63.1 21.34 62.05 20.584L63.002 19.66ZM62.61 22.936C63.52 23.636 64.29 24.336 64.906 25.036L63.968 25.988C63.408 25.344 62.638 24.63 61.658 23.86L62.61 22.936ZM77.576 20.472H80.67C80.838 20.122 80.964 19.772 81.062 19.408L82.448 19.59C82.364 19.898 82.238 20.192 82.098 20.472H86.536V27.542H77.576V20.472ZM85.248 26.408V25.498H78.864V26.408H85.248ZM78.864 24.434H85.248V23.552H78.864V24.434ZM78.864 22.502H85.248V21.606H78.864V22.502ZM76.82 28.354L78.08 28.606C77.744 29.908 77.296 31.028 76.708 31.98L75.588 31.266C76.176 30.37 76.582 29.39 76.82 28.354ZM83.792 32.232H80.236C79.312 32.232 78.85 31.784 78.85 30.888V28.326H80.194V30.608C80.194 30.888 80.334 31.042 80.614 31.042H83.54C83.806 31.042 83.988 30.972 84.086 30.832C84.24 30.664 84.338 30.174 84.38 29.348L85.654 29.754C85.542 30.944 85.332 31.658 85.038 31.91C84.758 32.12 84.352 32.232 83.792 32.232ZM82.07 27.78C82.756 28.48 83.288 29.082 83.652 29.614L82.658 30.314C82.266 29.726 81.748 29.082 81.09 28.382L82.07 27.78ZM86.55 28.074C87.39 29.166 88.02 30.132 88.468 30.944L87.418 31.686C86.942 30.79 86.312 29.81 85.514 28.718L86.55 28.074ZM91.296 32.316H90.064L89.77 31.028C90.134 31.07 90.498 31.098 90.834 31.098C91.156 31.098 91.324 30.93 91.324 30.608V27.612C90.848 27.794 90.358 27.962 89.868 28.13L89.546 26.786C90.148 26.646 90.736 26.464 91.324 26.254V23.37H89.742V22.096H91.324V19.562H92.668V22.096H93.97V23.37H92.668V25.694C93.032 25.526 93.382 25.344 93.732 25.148V26.506C93.368 26.688 93.018 26.87 92.668 27.038V30.958C92.668 31.854 92.206 32.316 91.296 32.316ZM94.922 19.954H101.222V25.008H94.922V19.954ZM99.92 23.93V22.978H96.21V23.93H99.92ZM96.21 21.97H99.92V21.032H96.21V21.97ZM94.012 25.736H102.062V26.926H98.702V28.214H101.46V29.39H98.702V30.874C99.22 30.93 99.822 30.972 100.522 30.972C101.278 30.972 101.922 30.944 102.454 30.888L102.09 32.176C101.544 32.176 101.054 32.162 100.606 32.148C98.744 32.134 97.47 31.966 96.784 31.63C96.294 31.378 95.846 30.93 95.454 30.286C95.132 31.056 94.712 31.77 94.194 32.428L93.2 31.574C94.208 30.314 94.768 28.928 94.88 27.388L96.056 27.528C96.028 28.032 95.958 28.508 95.86 28.97C96.28 29.782 96.756 30.314 97.302 30.538L97.428 30.58V26.926H94.012V25.736ZM105.044 29.32V30.552H108.138V29.32H105.044ZM108.138 31.672H105.044V32.358H103.994V22.586H105.268V21.158H103.616V20.01H109.426V21.158H107.9V22.586H109.174V27.976C109.776 27.206 110.196 26.268 110.42 25.176L111.568 25.302C111.498 25.624 111.428 25.932 111.344 26.212H112.478V25.232H113.752V26.212H116.048V27.374H113.752V28.55H115.74V29.698H113.752V30.93H116.398V32.176H109.706V30.93H112.478V29.698H110.448V28.55H112.478V27.374H110.91C110.63 27.962 110.308 28.494 109.916 28.97L109.174 28.004V32.344H108.138V31.672ZM106.892 22.586V21.158H106.276V22.586H106.892ZM108.138 28.27V27.136H107.564C107.088 27.136 106.864 26.87 106.864 26.352V23.678H106.346V24.49C106.332 25.974 106.038 27.066 105.45 27.752L105.044 27.388V28.27H108.138ZM107.592 23.678V26.142C107.592 26.254 107.648 26.324 107.774 26.324H108.138V23.678H107.592ZM105.044 27.066C105.422 26.478 105.618 25.61 105.632 24.49V23.678H105.044V27.066ZM110.014 19.982H115.88V24.896H110.014V19.982ZM114.634 23.846V22.964H111.246V23.846H114.634ZM111.246 21.928H114.634V21.032H111.246V21.928Z" fill="#E7E7E7"/>
<rect x="313" y="18" width="22" height="16" rx="8" fill="#E59E2E"/>
<path d="M320.915 22.146H321.619V30H320.717V23.246C320.222 23.752 319.606 24.104 318.869 24.324V23.422C319.221 23.323 319.595 23.169 319.969 22.949C320.343 22.707 320.651 22.443 320.915 22.146ZM326.43 21.992C327.156 21.992 327.75 22.201 328.223 22.619C328.685 23.037 328.927 23.598 328.927 24.28C328.927 24.962 328.663 25.578 328.157 26.128C327.882 26.414 327.343 26.843 326.529 27.393C325.528 28.064 324.956 28.669 324.813 29.197H328.938V30H323.702C323.702 29.285 323.955 28.636 324.483 28.053C324.791 27.701 325.352 27.228 326.188 26.656C326.804 26.216 327.211 25.897 327.42 25.677C327.816 25.248 328.025 24.775 328.025 24.269C328.025 23.785 327.882 23.422 327.596 23.158C327.31 22.894 326.903 22.762 326.397 22.762C325.858 22.762 325.44 22.938 325.154 23.312C324.846 23.664 324.681 24.192 324.67 24.885H323.768C323.768 24.005 324.021 23.301 324.505 22.784C324.989 22.256 325.638 21.992 326.43 21.992Z" fill="#1F1F1F"/>
<path d="M348.746 31.4543L354.186 26.0143C354.205 25.9084 354.205 25.8001 354.186 25.6943L348.746 20.2543C348.704 20.236 348.586 20.2351 348.426 20.2543L347.786 20.8943C347.768 21.0613 347.767 21.1823 347.786 21.2143L352.266 25.6943C352.298 25.7416 352.315 25.7973 352.315 25.8543C352.315 25.9113 352.298 25.9669 352.266 26.0143L347.786 30.4943C347.768 30.5256 347.766 30.646 347.786 30.8143L348.426 31.4543C348.584 31.4725 348.704 31.4735 348.746 31.4543Z" fill="#E7E7E7" fill-opacity="0.5"/>
</svg>
