<svg width="387" height="52" viewBox="0 0 387 52" fill="none" xmlns="http://www.w3.org/2000/svg">
<rect x="13" width="358" height="52" rx="6" fill="white" fill-opacity="0.05"/>
<rect x="25" y="12" width="28" height="28" rx="14" fill="#EEE6DB" fill-opacity="0.3"/>
<path d="M39.2967 17.5071H39.6372C38.5241 18.5682 37.8086 19.9959 37.6151 21.542C37.4216 23.0881 37.7623 24.6549 38.5781 25.97C39.3939 27.2851 40.6332 28.2654 42.0805 28.7404C43.5277 29.2155 45.0915 29.1552 46.5 28.5702C45.9582 29.9075 45.0727 31.0689 43.9379 31.9305C42.8031 32.792 41.4616 33.3214 40.0566 33.4621C38.6515 33.6029 37.2355 33.3497 35.9597 32.7297C34.6839 32.1096 33.596 31.146 32.8123 29.9414C32.0285 28.7369 31.5781 27.3367 31.5093 25.8902C31.4404 24.4437 31.7556 23.0052 32.4213 21.728C33.0869 20.4509 34.078 19.383 35.2889 18.6384C36.4998 17.8938 37.8849 17.5003 39.2967 17.5V17.5071Z" stroke="#E7E7E7" stroke-width="1.5" stroke-linecap="round" stroke-linejoin="round"/>
<path d="M68.322 21.97L69.428 22.404C68.798 23.692 67.972 24.672 66.936 25.344L65.97 24.518C67.034 23.874 67.818 23.034 68.322 21.97ZM71.15 21.872C72.2 22.88 72.998 23.776 73.558 24.546L72.494 25.274C71.934 24.434 71.15 23.496 70.17 22.488L71.15 21.872ZM62.862 19.674C63.884 20.374 64.752 21.088 65.466 21.788L64.57 22.684C63.954 22.012 63.086 21.298 61.966 20.542L62.862 19.674ZM62.526 22.95C63.506 23.664 64.318 24.378 64.99 25.092L64.108 25.974C63.52 25.302 62.694 24.588 61.644 23.832L62.526 22.95ZM64.276 26.912L65.368 27.346C64.696 29.11 63.94 30.762 63.1 32.302L61.868 31.756C62.792 30.188 63.604 28.564 64.276 26.912ZM68.126 27.36H65.718V26.142H69.246V24.728H70.534V26.142H74.09V27.36H71.64C72.256 28.508 73.222 29.53 74.566 30.454L73.726 31.504C72.298 30.272 71.29 28.886 70.688 27.36H70.534V32.386H69.246V27.36H69.106C68.378 29.068 67.202 30.496 65.578 31.63L64.892 30.51C66.348 29.67 67.426 28.62 68.126 27.36ZM73.88 19.996V22.754H72.62V21.2H67.16V22.81H65.914V19.996H73.88ZM81.594 24.672H78.612V26.87H81.594V24.672ZM82.924 26.87H85.878V24.672H82.924V26.87ZM79.564 21.928C79.06 22.474 78.514 22.978 77.954 23.426H82.42C82.868 23.006 83.316 22.502 83.792 21.928H79.564ZM77.268 23.958C76.974 24.154 76.694 24.35 76.414 24.532L75.518 23.454C77.226 22.488 78.682 21.144 79.9 19.436L81.258 19.73C81.034 20.08 80.796 20.416 80.558 20.724H85.514V21.732C85.066 22.39 84.618 22.95 84.184 23.426H87.222V28.13H78.612V30.314C78.612 30.72 78.836 30.93 79.256 30.93H85.752C86.186 30.902 86.48 30.776 86.62 30.524C86.732 30.328 86.858 29.768 86.97 28.844L88.272 29.264C88.16 30.174 88.02 30.818 87.88 31.21C87.628 31.854 87.068 32.19 86.2 32.218H78.696C77.744 32.218 77.268 31.756 77.268 30.832V23.958ZM93.886 20.598H95.776V19.562H97.022V20.598H98.968V19.562H100.228V20.598H102.286V21.774H100.228V22.67H98.968V21.774H97.022V22.67H95.776V21.774H93.886V20.598ZM97.876 29.726C97.708 30.006 97.54 30.272 97.358 30.51C96.714 31.322 95.58 31.966 93.956 32.442L93.494 31.35C94.838 30.972 95.818 30.44 96.406 29.754C96.49 29.642 96.56 29.558 96.616 29.474H93.578V28.27H97.204C97.288 28.004 97.358 27.724 97.414 27.444H94.544V23.006H101.432V27.444H98.59L98.422 28.27H102.314V29.474H99.08C99.864 30.258 100.998 30.916 102.482 31.434L101.586 32.498C99.906 31.77 98.66 30.846 97.876 29.726ZM92.682 25.638V32.4H91.422V26.058C91.044 27.178 90.582 28.2 90.036 29.138L89.462 27.668C90.344 26.45 91.002 25.064 91.422 23.524V23.398H89.91V22.18H91.422V19.604H92.682V22.18H94.04V23.398H92.682V24.182C93.256 24.854 93.844 25.624 94.446 26.464L93.746 27.514C93.34 26.758 92.99 26.142 92.682 25.638ZM100.228 26.436V25.722H95.734V26.436H100.228ZM95.734 24.742H100.228V24.042H95.734V24.742ZM103.882 21.914H110.588C110.546 21.158 110.532 20.36 110.532 19.548H111.904C111.904 20.374 111.918 21.158 111.96 21.914H114.144C113.78 21.242 113.374 20.64 112.94 20.108L114.032 19.59C114.466 20.15 114.886 20.752 115.278 21.424L114.284 21.914H116.16V23.202H112.03C112.198 25.33 112.52 27.136 112.996 28.592C113.584 30.146 114.074 30.93 114.466 30.93C114.676 30.916 114.914 30.16 115.166 28.676L116.37 29.292C115.95 31.364 115.348 32.414 114.55 32.428C113.206 32.344 112.114 30.762 111.274 27.668C110.98 26.38 110.77 24.896 110.658 23.202H103.882V21.914ZM104.078 25.246H110.098V26.492H107.746V29.726C108.726 29.53 109.692 29.306 110.644 29.054V30.356C108.6 30.846 106.402 31.266 104.064 31.602L103.756 30.342C104.652 30.23 105.548 30.104 106.43 29.964V26.492H104.078V25.246Z" fill="#E7E7E7"/>
<path d="M347.75 14.75H330.25C327.266 14.75 324.405 15.9353 322.295 18.045C320.185 20.1548 319 23.0163 319 26C319 28.9837 320.185 31.8452 322.295 33.955C324.405 36.0647 327.266 37.25 330.25 37.25H347.75C350.734 37.25 353.595 36.0647 355.705 33.955C357.815 31.8452 359 28.9837 359 26C359 23.0163 357.815 20.1548 355.705 18.045C353.595 15.9353 350.734 14.75 347.75 14.75ZM347.75 32.7188C346.421 32.7188 345.122 32.3247 344.017 31.5864C342.912 30.8482 342.051 29.7988 341.543 28.5712C341.034 27.3435 340.901 25.9925 341.16 24.6892C341.42 23.3859 342.059 22.1888 342.999 21.2491C343.939 20.3095 345.136 19.6696 346.439 19.4103C347.743 19.1511 349.093 19.2842 350.321 19.7927C351.549 20.3012 352.598 21.1624 353.336 22.2673C354.075 23.3722 354.469 24.6712 354.469 26C354.47 26.8827 354.297 27.7569 353.96 28.5726C353.623 29.3883 353.128 30.1295 352.504 30.7536C351.879 31.3778 351.138 31.8726 350.323 32.2098C349.507 32.547 348.633 32.72 347.75 32.7188Z" fill="#E59E2E"/>
</svg>
