<svg width="358" height="52" viewBox="0 0 358 52" fill="none" xmlns="http://www.w3.org/2000/svg">
<rect width="358" height="52" rx="6" fill="white" fill-opacity="0.05"/>
<rect x="0.5" y="0.5" width="357" height="51" rx="5.5" stroke="white" stroke-opacity="0.05"/>
<rect x="12" y="12" width="28" height="28" rx="14" fill="#EEE6DB" fill-opacity="0.3"/>
<path d="M27.6254 18C27.7495 18 27.8704 18.0384 27.9707 18.1097C28.0711 18.1809 28.1456 18.2814 28.1836 18.3966L28.8285 20.3497C29.0994 20.4789 29.3586 20.624 29.606 20.7874L31.6653 20.3554C31.7867 20.3302 31.9132 20.3431 32.0266 20.3924C32.14 20.4417 32.2344 20.5248 32.2962 20.6297L33.9216 23.3714C33.9836 23.4763 34.0099 23.5977 33.9966 23.718C33.9834 23.8384 33.9312 23.9515 33.8477 24.0411L32.4346 25.5611C32.4552 25.8526 32.4552 26.1451 32.4346 26.4366L33.8477 27.9589C33.9312 28.0485 33.9834 28.1616 33.9966 28.282C34.0099 28.4023 33.9836 28.5237 33.9216 28.6286L32.2962 31.3714C32.2342 31.4761 32.1397 31.559 32.0264 31.6081C31.913 31.6572 31.7866 31.6699 31.6653 31.6446L29.606 31.2126C29.3598 31.3749 29.0994 31.5211 28.8297 31.6503L28.1836 33.6034C28.1456 33.7186 28.0711 33.8191 27.9707 33.8903C27.8704 33.9616 27.7495 34 27.6254 34H24.3746C24.2505 34 24.1296 33.9616 24.0293 33.8903C23.9289 33.8191 23.8544 33.7186 23.8164 33.6034L23.1726 31.6514C22.9025 31.5227 22.6419 31.3756 22.3928 31.2114L20.3347 31.6446C20.2133 31.6698 20.0868 31.6569 19.9734 31.6076C19.86 31.5583 19.7656 31.4752 19.7038 31.3703L18.0784 28.6286C18.0164 28.5237 17.9901 28.4023 18.0034 28.282C18.0166 28.1616 18.0688 28.0485 18.1523 27.9589L19.5654 26.4366C19.5449 26.1459 19.5449 25.8541 19.5654 25.5634L18.1523 24.0411C18.0688 23.9515 18.0166 23.8384 18.0034 23.718C17.9901 23.5977 18.0164 23.4763 18.0784 23.3714L19.7038 20.6286C19.7658 20.5239 19.8603 20.441 19.9736 20.3919C20.087 20.3428 20.2134 20.3301 20.3347 20.3554L22.3928 20.7886C22.6414 20.6251 22.9017 20.4777 23.1726 20.3486L23.8176 18.3966C23.8555 18.2818 23.9296 18.1816 24.0295 18.1103C24.1293 18.0391 24.2497 18.0005 24.3735 18H27.6242H27.6254ZM27.1962 19.1429H24.8039L24.1378 21.1623L23.6886 21.376C23.4678 21.4813 23.2547 21.6012 23.0507 21.7349L22.6355 22.0091L20.5059 21.5611L19.3098 23.5817L20.7698 25.1566L20.7346 25.6411C20.7177 25.8801 20.7177 26.1199 20.7346 26.3589L20.7698 26.8434L19.3074 28.4183L20.5047 30.4389L22.6344 29.992L23.0495 30.2651C23.2535 30.3988 23.4666 30.5187 23.6874 30.624L24.1366 30.8377L24.8039 32.8571H27.1985L27.8669 30.8366L28.3149 30.624C28.5355 30.519 28.7482 30.3991 28.9517 30.2651L29.3656 29.992L31.4964 30.4389L32.6926 28.4183L31.2314 26.8434L31.2666 26.3589C31.2835 26.1195 31.2835 25.8793 31.2666 25.64L31.2314 25.1554L32.6938 23.5817L31.4964 21.5611L29.3656 22.0069L28.9517 21.7349C28.7482 21.6009 28.5355 21.481 28.3149 21.376L27.8669 21.1634L27.1973 19.1429H27.1962ZM26 22.5714C26.9331 22.5714 27.8279 22.9327 28.4877 23.5756C29.1474 24.2186 29.5181 25.0907 29.5181 26C29.5181 26.9093 29.1474 27.7814 28.4877 28.4244C27.8279 29.0673 26.9331 29.4286 26 29.4286C25.0669 29.4286 24.1721 29.0673 23.5123 28.4244C22.8526 27.7814 22.4819 26.9093 22.4819 26C22.4819 25.0907 22.8526 24.2186 23.5123 23.5756C24.1721 22.9327 25.0669 22.5714 26 22.5714ZM26 23.7143C25.378 23.7143 24.7814 23.9551 24.3416 24.3838C23.9017 24.8124 23.6546 25.3938 23.6546 26C23.6546 26.6062 23.9017 27.1876 24.3416 27.6162C24.7814 28.0449 25.378 28.2857 26 28.2857C26.622 28.2857 27.2186 28.0449 27.6584 27.6162C28.0983 27.1876 28.3454 26.6062 28.3454 26C28.3454 25.3938 28.0983 24.8124 27.6584 24.3838C27.2186 23.9551 26.622 23.7143 26 23.7143Z" fill="#E7E7E7"/>
<path d="M50.366 19.73C51.262 20.402 52.004 21.088 52.62 21.76L51.71 22.684C51.178 22.026 50.422 21.326 49.456 20.598L50.366 19.73ZM48.574 23.72H51.71V29.642C52.144 29.278 52.606 28.858 53.11 28.382L53.474 29.782C52.564 30.622 51.598 31.378 50.576 32.036L50.072 30.832C50.296 30.636 50.422 30.384 50.422 30.09V24.994H48.574V23.72ZM53.572 25.386H60.362V26.604C59.956 27.85 59.284 28.914 58.346 29.81C59.242 30.398 60.334 30.93 61.594 31.378L60.88 32.526C59.48 31.966 58.318 31.322 57.366 30.622C56.274 31.406 54.916 32.036 53.32 32.512L52.578 31.392C54.062 30.958 55.308 30.412 56.316 29.74C55.364 28.816 54.706 27.794 54.37 26.674H53.572V25.386ZM55.616 26.674C55.938 27.528 56.484 28.298 57.268 28.998C58.024 28.312 58.612 27.542 59.018 26.674H55.616ZM54.552 19.982H59.508V22.922C59.508 23.23 59.676 23.398 60.026 23.398H61.258V24.616H59.676C58.682 24.616 58.192 24.14 58.192 23.216V21.228H55.868V21.648C55.868 23.104 55.126 24.238 53.656 25.036L52.774 24.014C53.95 23.482 54.552 22.74 54.552 21.788V19.982ZM62.952 23.426H68.3C68.328 23.202 68.342 22.978 68.37 22.768H63.834V19.982H74.166V22.768H69.7C69.672 22.992 69.658 23.202 69.63 23.426H75.048V24.42H69.462L69.322 25.05H73.326V31.154H75.3V32.19H62.7V31.154H64.674V25.05H68.02C68.062 24.826 68.104 24.616 68.146 24.42H62.952V23.426ZM65.99 31.154H72.01V30.412H65.99V31.154ZM65.99 29.628H72.01V28.928H65.99V29.628ZM65.99 28.13H72.01V27.43H65.99V28.13ZM65.99 26.632H72.01V25.946H65.99V26.632ZM72.906 21.858V20.948H71.142V21.858H72.906ZM69.952 21.858V20.948H68.048V21.858H69.952ZM66.858 21.858V20.948H65.094V21.858H66.858Z" fill="#E7E7E7"/>
<path d="M335.746 31.4543L341.186 26.0143C341.205 25.9084 341.205 25.8001 341.186 25.6943L335.746 20.2543C335.704 20.236 335.586 20.2351 335.426 20.2543L334.786 20.8943C334.768 21.0613 334.767 21.1823 334.786 21.2143L339.266 25.6943C339.298 25.7416 339.315 25.7973 339.315 25.8543C339.315 25.9113 339.298 25.9669 339.266 26.0143L334.786 30.4943C334.768 30.5256 334.766 30.646 334.786 30.8143L335.426 31.4543C335.584 31.4725 335.704 31.4735 335.746 31.4543Z" fill="#E7E7E7" fill-opacity="0.5"/>
</svg>
