<svg width="387" height="52" viewBox="0 0 387 52" fill="none" xmlns="http://www.w3.org/2000/svg">
<rect x="13.5" y="0.5" width="357" height="51" rx="5.5" fill="url(#paint0_linear_4199_57940)"/>
<rect x="13.5" y="0.5" width="357" height="51" rx="5.5" stroke="#FCC269"/>
<g clip-path="url(#clip0_4199_57940)">
<path d="M35 36C29.4772 36 25 31.5228 25 26C25 20.4772 29.4772 16 35 16C40.5228 16 45 20.4772 45 26C45 31.5228 40.5228 36 35 36ZM40.5556 24.3744C40.5535 24.0057 40.4077 23.6523 40.1492 23.3894C40.0199 23.2599 39.8663 23.157 39.6973 23.0869C39.5282 23.0167 39.3469 22.9806 39.1639 22.9806C38.9808 22.9806 38.7996 23.0167 38.6305 23.0869C38.4615 23.157 38.3079 23.2599 38.1786 23.3894C38.0454 23.5158 37.9403 23.6688 37.8703 23.8386C37.8003 24.0083 37.7669 24.1909 37.7722 24.3744C37.7691 24.5577 37.8036 24.7396 37.8735 24.909C37.9434 25.0784 38.0472 25.2317 38.1786 25.3594C38.2269 25.4183 38.2853 25.4683 38.3508 25.5072C38.1169 25.7428 37.813 25.8965 37.4846 25.9453C37.1561 25.9941 36.8207 25.9355 36.5283 25.7781C36.075 25.5312 35.7319 25.1221 35.5678 24.6328C35.5551 24.2974 35.5882 23.962 35.6661 23.6356C35.8865 23.5142 36.0702 23.336 36.198 23.1193C36.3258 22.9027 36.3931 22.6557 36.3928 22.4042C36.3938 22.2212 36.3583 22.0399 36.2886 21.8708C36.2188 21.7017 36.1161 21.5482 35.9864 21.4192C35.8588 21.2866 35.7058 21.1811 35.5365 21.109C35.3672 21.037 35.1851 20.9998 35.0011 20.9998C34.8171 20.9998 34.635 21.037 34.4657 21.109C34.2964 21.1811 34.1434 21.2866 34.0158 21.4192C33.7562 21.6813 33.6102 22.0352 33.6094 22.4042C33.6114 22.773 33.7572 23.1265 34.0158 23.3894C34.1258 23.4931 34.2503 23.5803 34.3853 23.6478C34.469 23.9565 34.4942 24.2781 34.4594 24.5961C34.2965 25.096 33.9483 25.5145 33.4864 25.7656C33.1867 25.9225 32.8446 25.9797 32.5101 25.9288C32.1756 25.8779 31.8661 25.7215 31.6267 25.4825C31.8095 25.3527 31.9585 25.181 32.0614 24.9818C32.1642 24.7826 32.2179 24.5617 32.2178 24.3375C32.2081 23.977 32.059 23.6344 31.8017 23.3818C31.5445 23.1291 31.1992 22.9862 30.8386 22.9831C30.4698 22.9851 30.1163 23.1309 29.8533 23.3894C29.7238 23.5187 29.6209 23.6722 29.5508 23.8412C29.4807 24.0102 29.4445 24.1914 29.4445 24.3744C29.4445 24.5574 29.4807 24.7386 29.5508 24.9077C29.6209 25.0767 29.7238 25.2302 29.8533 25.3594C30.0204 25.5284 30.2282 25.6513 30.4567 25.7164L31.6144 30.5431C31.6443 30.6614 31.7124 30.7666 31.8081 30.8423C31.9038 30.918 32.0219 30.9599 32.1439 30.9617H37.8583C37.981 30.9622 38.1002 30.921 38.1964 30.845C38.2926 30.7689 38.3602 30.6625 38.3881 30.5431L39.5456 25.7164C39.8361 25.6315 40.0914 25.455 40.2734 25.2132C40.4554 24.9713 40.5544 24.6771 40.5556 24.3744Z" fill="white"/>
</g>
<path d="M58.866 25.246C59.1367 25.246 59.342 25.316 59.482 25.456C59.622 25.5867 59.692 25.7873 59.692 26.058V30.762C59.692 31.0233 59.622 31.224 59.482 31.364C59.342 31.504 59.1367 31.574 58.866 31.574H57.564C57.2747 31.574 57.13 31.4293 57.13 31.14V30.888C57.13 30.5987 57.2747 30.454 57.564 30.454H58.544V26.366H55.856C55.5667 26.366 55.422 26.2213 55.422 25.932V25.68C55.422 25.3907 55.5667 25.246 55.856 25.246H58.866ZM62.016 19.716C62.3147 19.716 62.464 19.8607 62.464 20.15V24.056C62.464 25.8013 62.786 27.2713 63.43 28.466C64.074 29.6513 64.97 30.594 66.118 31.294C66.3607 31.4433 66.4167 31.644 66.286 31.896L66.16 32.134C66.0947 32.2553 66.0107 32.33 65.908 32.358C65.8147 32.386 65.7027 32.3627 65.572 32.288C64.2747 31.504 63.2387 30.4213 62.464 29.04C61.6987 27.6587 61.316 25.9973 61.316 24.056V20.15C61.316 19.8607 61.4653 19.716 61.764 19.716H62.016ZM65.208 24.56C65.4787 24.6533 65.5673 24.84 65.474 25.12C64.9793 26.5853 64.3447 27.9387 63.57 29.18C62.7953 30.4213 61.9413 31.4527 61.008 32.274C60.7933 32.4887 60.5833 32.484 60.378 32.26L60.21 32.064C60.014 31.8493 60.0233 31.6347 60.238 31.42C61.1713 30.552 61.9833 29.558 62.674 28.438C63.374 27.3087 63.948 26.0813 64.396 24.756C64.4987 24.476 64.6853 24.3827 64.956 24.476L65.208 24.56ZM64.732 20.528C64.732 20.2387 64.8767 20.094 65.166 20.094H65.432C65.7213 20.094 65.866 20.2387 65.866 20.528V21.62C65.866 22.1707 65.5953 22.446 65.054 22.446H55.912V25.624C55.912 26.912 55.8047 28.088 55.59 29.152C55.3753 30.2067 55.0253 31.1913 54.54 32.106C54.4093 32.3673 54.2133 32.428 53.952 32.288L53.728 32.162C53.476 32.022 53.4153 31.8167 53.546 31.546C53.9847 30.7153 54.2973 29.824 54.484 28.872C54.6707 27.92 54.764 26.8373 54.764 25.624V22.124C54.764 21.5827 55.0393 21.312 55.59 21.312H64.732V20.528ZM78.592 22.894C78.8627 22.894 79.068 22.964 79.208 23.104C79.348 23.244 79.418 23.4493 79.418 23.72V31.546C79.418 31.8167 79.348 32.022 79.208 32.162C79.068 32.302 78.8627 32.372 78.592 32.372H77.094C76.8047 32.372 76.66 32.2273 76.66 31.938V31.672C76.66 31.3827 76.8047 31.238 77.094 31.238H78.27V24.028H68.218C67.9287 24.028 67.784 23.8833 67.784 23.594V23.342C67.784 23.0433 67.9287 22.894 68.218 22.894H78.592ZM72.698 19.604C72.9967 19.604 73.146 19.7533 73.146 20.052V23.23C73.146 24.3407 72.9967 25.456 72.698 26.576C72.3993 27.6867 71.9 28.76 71.2 29.796C70.5093 30.832 69.604 31.7233 68.484 32.47C68.232 32.638 68.0313 32.596 67.882 32.344L67.742 32.12C67.5927 31.8773 67.6393 31.6673 67.882 31.49C69.338 30.51 70.388 29.2873 71.032 27.822C71.676 26.3567 71.998 24.826 71.998 23.23V20.052C71.998 19.7533 72.1473 19.604 72.446 19.604H72.698ZM69.604 19.786C69.884 19.6647 70.08 19.7393 70.192 20.01L70.878 21.438C70.9993 21.7087 70.9293 21.9 70.668 22.012L70.416 22.124C70.1453 22.2453 69.954 22.1707 69.842 21.9L69.142 20.486C69.03 20.206 69.1047 20.01 69.366 19.898L69.604 19.786ZM74.77 25.932C75.0407 25.8107 75.232 25.8853 75.344 26.156L76.66 28.9C76.7813 29.1707 76.7067 29.362 76.436 29.474L76.198 29.586C75.9273 29.7073 75.736 29.6327 75.624 29.362L74.308 26.618C74.1867 26.3473 74.2613 26.156 74.532 26.044L74.77 25.932ZM90.856 24C91.1453 24 91.29 24.1493 91.29 24.448V24.7C91.29 24.9987 91.1453 25.148 90.856 25.148H85.144C84.8547 25.148 84.71 24.9987 84.71 24.7V24.448C84.71 24.1493 84.8547 24 85.144 24H90.856ZM93.614 27.108C93.9033 27.108 94.048 27.2573 94.048 27.556V27.808C94.048 28.1067 93.9033 28.256 93.614 28.256H82.386C82.0967 28.256 81.952 28.1067 81.952 27.808V27.556C81.952 27.2573 82.0967 27.108 82.386 27.108H93.614ZM87.006 27.766C87.23 27.9527 87.244 28.1627 87.048 28.396L84.696 31.126H91.92V30.216C91.92 29.9173 92.0693 29.768 92.368 29.768H92.62C92.9187 29.768 93.068 29.9173 93.068 30.216V31.448C93.068 31.7187 92.998 31.924 92.858 32.064C92.718 32.204 92.5127 32.274 92.242 32.274H83.576C83.3147 32.274 83.114 32.2273 82.974 32.134C82.8433 32.0407 82.7827 31.91 82.792 31.742C82.8107 31.5833 82.9087 31.406 83.086 31.21L86.18 27.64C86.376 27.416 86.586 27.402 86.81 27.598L87.006 27.766ZM89.19 19.744C89.414 19.7533 89.596 19.8513 89.736 20.038C90.324 20.8873 91.0007 21.676 91.766 22.404C92.5407 23.132 93.3807 23.7853 94.286 24.364C94.5287 24.5227 94.5753 24.7233 94.426 24.966L94.286 25.19C94.1367 25.4327 93.936 25.4747 93.684 25.316C92.7507 24.728 91.8827 24.0607 91.08 23.314C90.2773 22.558 89.5633 21.7507 88.938 20.892H87.076C86.404 21.7973 85.648 22.6373 84.808 23.412C83.9773 24.1867 83.1467 24.8213 82.316 25.316C82.064 25.4747 81.8633 25.4327 81.714 25.19L81.574 24.966C81.4247 24.7233 81.4713 24.5227 81.714 24.364C82.6473 23.7573 83.506 23.0807 84.29 22.334C85.074 21.5873 85.7413 20.8033 86.292 19.982C86.4227 19.8233 86.6 19.744 86.824 19.744H89.19ZM97.338 20.878C97.338 20.6073 97.4033 20.4067 97.534 20.276C97.674 20.136 97.8793 20.066 98.15 20.066H105.85C106.121 20.066 106.321 20.136 106.452 20.276C106.592 20.4067 106.662 20.6073 106.662 20.878V23.272C106.662 23.5333 106.592 23.734 106.452 23.874C106.321 24.014 106.121 24.084 105.85 24.084H98.15C97.8793 24.084 97.674 24.0187 97.534 23.888C97.4033 23.748 97.338 23.5427 97.338 23.272V20.878ZM105.514 21.13H98.486V23.006H105.514V21.13ZM101.384 27.444C101.403 27.2947 101.449 27.1827 101.524 27.108C101.608 27.0333 101.725 26.996 101.874 26.996H102.126C102.434 26.996 102.574 27.1453 102.546 27.444C102.462 28.312 102.159 29.11 101.636 29.838C101.123 30.566 100.399 31.1633 99.466 31.63C98.5327 32.0967 97.436 32.386 96.176 32.498C95.8867 32.526 95.728 32.3907 95.7 32.092L95.672 31.826C95.6533 31.5367 95.7933 31.378 96.092 31.35C97.2027 31.2473 98.1407 31.0093 98.906 30.636C99.6713 30.2627 100.259 29.8007 100.67 29.25C101.081 28.6993 101.319 28.0973 101.384 27.444ZM106.634 25.218C106.905 25.218 107.11 25.288 107.25 25.428C107.39 25.5587 107.46 25.7593 107.46 26.03V29.222C107.46 29.5207 107.311 29.67 107.012 29.67H106.746C106.447 29.67 106.298 29.5207 106.298 29.222V26.31H97.702V29.222C97.702 29.5207 97.5527 29.67 97.254 29.67H96.988C96.6893 29.67 96.54 29.5207 96.54 29.222V26.03C96.54 25.7687 96.61 25.568 96.75 25.428C96.89 25.288 97.0953 25.218 97.366 25.218H106.634ZM108.076 31.252C108.356 31.364 108.445 31.56 108.342 31.84L108.244 32.092C108.151 32.3627 107.964 32.4467 107.684 32.344L102.98 30.58C102.7 30.4773 102.607 30.286 102.7 30.006L102.798 29.754C102.901 29.474 103.092 29.3853 103.372 29.488L108.076 31.252ZM125.856 20.122C126.108 20.122 126.3 20.1873 126.43 20.318C126.57 20.4487 126.64 20.6447 126.64 20.906V23.804C126.64 24.0653 126.575 24.266 126.444 24.406C126.314 24.5367 126.118 24.602 125.856 24.602H124.988C124.708 24.602 124.568 24.462 124.568 24.182V23.93C124.568 23.6407 124.708 23.496 124.988 23.496H125.562V21.214H121.614C121.334 21.214 121.194 21.074 121.194 20.794V20.542C121.194 20.262 121.334 20.122 121.614 20.122H125.856ZM123.336 20.822C123.626 20.85 123.747 20.9993 123.7 21.27C123.616 21.9233 123.416 22.544 123.098 23.132C122.79 23.72 122.37 24.224 121.838 24.644C121.614 24.812 121.423 24.7793 121.264 24.546L121.124 24.322C120.975 24.098 121.012 23.902 121.236 23.734C121.684 23.3607 122.025 22.9453 122.258 22.488C122.492 22.0307 122.613 21.5967 122.622 21.186C122.641 21.046 122.688 20.9433 122.762 20.878C122.846 20.8127 122.958 20.7847 123.098 20.794L123.336 20.822ZM121.978 25.288C122.258 25.288 122.398 25.428 122.398 25.708V26.296H126.402C126.692 26.296 126.836 26.436 126.836 26.716V26.968C126.836 27.248 126.692 27.388 126.402 27.388H122.118C121.857 27.388 121.656 27.3227 121.516 27.192C121.386 27.0613 121.32 26.8653 121.32 26.604V25.708C121.32 25.428 121.46 25.288 121.74 25.288H121.978ZM124.33 24.98C124.62 24.98 124.764 25.1247 124.764 25.414V32.022C124.764 32.3207 124.62 32.47 124.33 32.47H124.078C123.78 32.47 123.63 32.3207 123.63 32.022V25.414C123.63 25.1247 123.78 24.98 124.078 24.98H124.33ZM126.556 29.082C126.846 29.082 126.99 29.2267 126.99 29.516V29.768C126.99 30.0573 126.846 30.202 126.556 30.202H121.572C121.283 30.202 121.138 30.0573 121.138 29.768V29.516C121.138 29.2267 121.283 29.082 121.572 29.082H126.556ZM115.944 19.73C116.234 19.73 116.378 19.87 116.378 20.15V20.528H119.08C119.472 20.528 119.724 20.6213 119.836 20.808C119.948 20.9853 119.916 21.2513 119.738 21.606L118.884 23.188C118.763 23.44 118.576 23.51 118.324 23.398L118.086 23.3C117.844 23.188 117.783 23.0107 117.904 22.768L118.59 21.494H116.028C115.524 21.494 115.272 21.2467 115.272 20.752V20.15C115.272 19.87 115.412 19.73 115.692 19.73H115.944ZM119.654 22.81C119.906 22.81 120.093 22.8753 120.214 23.006C120.345 23.1273 120.41 23.314 120.41 23.566V31.574C120.41 31.826 120.345 32.0127 120.214 32.134C120.093 32.2647 119.906 32.33 119.654 32.33H118.94C118.716 32.33 118.604 32.1947 118.604 31.924V31.686C118.604 31.4153 118.74 31.28 119.01 31.28H119.388V23.86H115.86V26.646C115.86 27.5887 115.795 28.5267 115.664 29.46C115.543 30.384 115.352 31.2473 115.09 32.05C114.997 32.302 114.829 32.3767 114.586 32.274L114.376 32.19C114.134 32.0873 114.054 31.91 114.138 31.658C114.381 30.902 114.558 30.104 114.67 29.264C114.782 28.4147 114.838 27.542 114.838 26.646V23.566C114.838 23.314 114.899 23.1273 115.02 23.006C115.151 22.8753 115.338 22.81 115.58 22.81H119.654ZM119.514 28.438C119.766 28.438 119.892 28.564 119.892 28.816V29.04C119.892 29.292 119.766 29.418 119.514 29.418H115.636C115.384 29.418 115.258 29.292 115.258 29.04V28.816C115.258 28.564 115.384 28.438 115.636 28.438H119.514ZM119.514 25.694C119.766 25.694 119.892 25.82 119.892 26.072V26.31C119.892 26.562 119.766 26.688 119.514 26.688H115.748C115.496 26.688 115.37 26.562 115.37 26.31V26.072C115.37 25.82 115.496 25.694 115.748 25.694H119.514ZM117.722 23.328C117.946 23.328 118.058 23.44 118.058 23.664V31.602C118.058 31.8353 117.946 31.952 117.722 31.952H117.512C117.288 31.952 117.176 31.8353 117.176 31.602V23.664C117.176 23.44 117.288 23.328 117.512 23.328H117.722ZM140.318 20.136C140.598 20.2107 140.701 20.3833 140.626 20.654L140.276 22.054C140.202 22.334 140.024 22.4413 139.744 22.376L139.492 22.306C139.212 22.2313 139.114 22.054 139.198 21.774L139.534 20.374C139.618 20.094 139.8 19.9913 140.08 20.066L140.318 20.136ZM134.004 20.066C134.284 19.9913 134.466 20.094 134.55 20.374L134.886 21.774C134.97 22.054 134.872 22.2313 134.592 22.306L134.34 22.376C134.06 22.4413 133.883 22.334 133.808 22.054L133.458 20.654C133.384 20.3833 133.486 20.2107 133.766 20.136L134.004 20.066ZM137.168 19.688C137.467 19.688 137.616 19.8373 137.616 20.136V23.356C137.616 23.6547 137.467 23.804 137.168 23.804H136.916C136.618 23.804 136.468 23.6547 136.468 23.356V20.136C136.468 19.8373 136.618 19.688 136.916 19.688H137.168ZM137.098 25.274C137.378 25.274 137.518 25.414 137.518 25.694V26.702C137.518 28.0927 137.21 29.2593 136.594 30.202C135.988 31.1353 135.022 31.8913 133.696 32.47C133.435 32.582 133.248 32.5027 133.136 32.232L133.052 32.008C132.95 31.7467 133.029 31.5553 133.29 31.434C134.046 31.1073 134.653 30.7293 135.11 30.3C135.568 29.8707 135.899 29.3667 136.104 28.788C136.319 28.2 136.426 27.5047 136.426 26.702V25.694C136.426 25.414 136.566 25.274 136.846 25.274H137.098ZM140.92 31.532C141.135 31.7187 141.149 31.9193 140.962 32.134L140.794 32.33C140.608 32.5447 140.407 32.5587 140.192 32.372L137.686 30.16C137.472 29.9733 137.458 29.7727 137.644 29.558L137.798 29.376C137.985 29.1613 138.186 29.1473 138.4 29.334L140.92 31.532ZM139.94 23.244C140.211 23.244 140.412 23.314 140.542 23.454C140.682 23.5847 140.752 23.7807 140.752 24.042V29.25C140.752 29.53 140.612 29.67 140.332 29.67H140.08C139.791 29.67 139.646 29.53 139.646 29.25V24.364H134.41V29.25C134.41 29.53 134.266 29.67 133.976 29.67H133.724C133.444 29.67 133.304 29.53 133.304 29.25V24.042C133.304 23.7807 133.37 23.5847 133.5 23.454C133.64 23.314 133.846 23.244 134.116 23.244H139.94ZM129.412 19.772C129.72 19.772 129.874 19.9213 129.874 20.22V20.864H132.058C132.338 20.864 132.478 21.004 132.478 21.284V21.55C132.478 21.83 132.338 21.97 132.058 21.97H129.524C129.254 21.97 129.048 21.9 128.908 21.76C128.768 21.62 128.698 21.4147 128.698 21.144V20.22C128.698 19.9213 128.848 19.772 129.146 19.772H129.412ZM131.946 23.622C132.226 23.622 132.366 23.7667 132.366 24.056V24.308C132.366 24.588 132.226 24.728 131.946 24.728H128.992C128.703 24.728 128.558 24.588 128.558 24.308V24.056C128.558 23.7667 128.703 23.622 128.992 23.622H131.946ZM132.016 26.912C132.296 26.912 132.436 27.052 132.436 27.332V27.584C132.436 27.864 132.296 28.004 132.016 28.004H128.67C128.39 28.004 128.25 27.864 128.25 27.584V27.332C128.25 27.052 128.39 26.912 128.67 26.912H132.016ZM130.392 24.182C130.691 24.182 130.84 24.3267 130.84 24.616V31.154H131.694C131.993 31.154 132.142 31.3033 132.142 31.602V31.868C132.142 32.1667 131.993 32.316 131.694 32.316H130.518C130.248 32.316 130.038 32.246 129.888 32.106C129.748 31.966 129.678 31.756 129.678 31.476V24.616C129.678 24.3267 129.828 24.182 130.126 24.182H130.392ZM154.346 31.028C154.626 31.028 154.766 31.1727 154.766 31.462V31.714C154.766 32.0033 154.626 32.148 154.346 32.148H142.95C142.661 32.148 142.516 32.0033 142.516 31.714V31.462C142.516 31.1727 142.661 31.028 142.95 31.028H154.346ZM152.26 24.042C152.55 24.042 152.694 24.1867 152.694 24.476V24.728C152.694 25.0173 152.55 25.162 152.26 25.162H145.036C144.747 25.162 144.602 25.0173 144.602 24.728V24.476C144.602 24.1867 144.747 24.042 145.036 24.042H152.26ZM153.268 27.374C153.558 27.374 153.702 27.5187 153.702 27.808V28.06C153.702 28.3493 153.558 28.494 153.268 28.494H144.014C143.725 28.494 143.58 28.3493 143.58 28.06V27.808C143.58 27.5187 143.725 27.374 144.014 27.374H153.268ZM148.774 24.574C149.082 24.574 149.236 24.7233 149.236 25.022V31.196C149.236 31.4947 149.082 31.644 148.774 31.644H148.522C148.214 31.644 148.06 31.4947 148.06 31.196V25.022C148.06 24.7233 148.214 24.574 148.522 24.574H148.774ZM149.642 19.814C149.866 19.814 150.048 19.9027 150.188 20.08C150.916 20.9573 151.677 21.7787 152.47 22.544C153.264 23.3093 154.038 23.9627 154.794 24.504C155.037 24.672 155.07 24.8727 154.892 25.106L154.752 25.33C154.575 25.5633 154.37 25.5913 154.136 25.414C152.447 24.1633 150.884 22.67 149.446 20.934H147.85C146.413 22.67 144.85 24.1633 143.16 25.414C142.927 25.5913 142.722 25.5633 142.544 25.33L142.404 25.106C142.227 24.8727 142.26 24.672 142.502 24.504C143.38 23.8507 144.21 23.146 144.994 22.39C145.778 21.6247 146.478 20.8547 147.094 20.08C147.244 19.9027 147.43 19.814 147.654 19.814H149.642ZM156.824 28.116C156.824 27.8547 156.894 27.654 157.034 27.514C157.174 27.374 157.375 27.304 157.636 27.304H162.032C162.294 27.304 162.494 27.374 162.634 27.514C162.774 27.6447 162.844 27.8453 162.844 28.116V31.574C162.844 31.8353 162.774 32.036 162.634 32.176C162.504 32.316 162.303 32.386 162.032 32.386H157.636C157.375 32.386 157.174 32.316 157.034 32.176C156.894 32.0453 156.824 31.8447 156.824 31.574V28.116ZM161.71 28.424H157.958V31.266H161.71V28.424ZM158.056 22.74C158.346 22.684 158.514 22.8007 158.56 23.09L158.868 24.77C158.915 25.05 158.798 25.218 158.518 25.274L158.266 25.302C157.986 25.358 157.818 25.2413 157.762 24.952L157.454 23.272C157.408 22.992 157.524 22.824 157.804 22.768L158.056 22.74ZM162.9 24.714C163.19 24.714 163.334 24.8633 163.334 25.162V25.414C163.334 25.7127 163.19 25.862 162.9 25.862H156.754C156.465 25.862 156.32 25.7127 156.32 25.414V25.162C156.32 24.8633 156.465 24.714 156.754 24.714H162.9ZM161.878 22.768C162.158 22.824 162.275 22.992 162.228 23.272L161.92 24.952C161.874 25.2413 161.706 25.358 161.416 25.302L161.164 25.274C160.884 25.218 160.768 25.05 160.814 24.77L161.122 23.09C161.178 22.8007 161.346 22.684 161.626 22.74L161.878 22.768ZM162.732 20.934C163.031 20.934 163.18 21.0833 163.18 21.382V21.634C163.18 21.9327 163.031 22.082 162.732 22.082H156.95C156.652 22.082 156.502 21.9327 156.502 21.634V21.382C156.502 21.0833 156.652 20.934 156.95 20.934H162.732ZM159.96 19.716C160.268 19.716 160.422 19.8653 160.422 20.164V21.06C160.422 21.3587 160.268 21.508 159.96 21.508H159.694C159.396 21.508 159.246 21.3587 159.246 21.06V20.164C159.246 19.8653 159.396 19.716 159.694 19.716H159.96ZM167.716 20.136C168.015 20.136 168.239 20.2107 168.388 20.36C168.547 20.5093 168.622 20.7333 168.612 21.032C168.594 22.488 168.332 23.8367 167.828 25.078C168.22 25.6567 168.482 26.2913 168.612 26.982C168.752 27.6633 168.757 28.3493 168.626 29.04C168.496 29.7307 168.248 30.37 167.884 30.958C167.754 31.2287 167.558 31.2893 167.296 31.14L167.072 31C166.82 30.8507 166.764 30.6453 166.904 30.384C167.231 29.7773 167.441 29.1893 167.534 28.62C167.637 28.0507 167.618 27.5093 167.478 26.996C167.338 26.4733 167.077 25.9973 166.694 25.568C166.573 25.4 166.55 25.2133 166.624 25.008C167.138 23.8973 167.427 22.6747 167.492 21.34H165.35V32.106C165.35 32.3953 165.206 32.54 164.916 32.54H164.664C164.375 32.54 164.23 32.3953 164.23 32.106V20.976C164.23 20.416 164.51 20.136 165.07 20.136H167.716ZM181.618 21.522C181.889 21.522 182.094 21.592 182.234 21.732C182.374 21.872 182.444 22.082 182.444 22.362V31.476C182.444 31.756 182.374 31.966 182.234 32.106C182.094 32.246 181.889 32.316 181.618 32.316H180.246C179.957 32.316 179.812 32.1667 179.812 31.868V31.616C179.812 31.3173 179.957 31.168 180.246 31.168H181.296V22.67H172V31.938C172 32.2367 171.851 32.386 171.552 32.386H171.3C171.002 32.386 170.852 32.2367 170.852 31.938V22.362C170.852 22.082 170.922 21.872 171.062 21.732C171.202 21.592 171.408 21.522 171.678 21.522H181.618ZM176.774 19.772C177.073 19.772 177.222 19.9213 177.222 20.22V22.586C177.222 23.482 177.087 24.3547 176.816 25.204C176.546 26.044 176.14 26.814 175.598 27.514C175.066 28.2047 174.408 28.7787 173.624 29.236C173.363 29.3853 173.162 29.3293 173.022 29.068L172.91 28.83C172.77 28.5687 172.831 28.3633 173.092 28.214C173.746 27.8313 174.292 27.3507 174.73 26.772C175.178 26.1933 175.514 25.5493 175.738 24.84C175.962 24.1213 176.074 23.37 176.074 22.586V20.22C176.074 19.9213 176.224 19.772 176.522 19.772H176.774ZM177.698 25.526C177.922 25.3487 178.128 25.3767 178.314 25.61L180.372 28.256C180.54 28.48 180.508 28.6853 180.274 28.872L180.05 29.026C179.826 29.2033 179.621 29.1707 179.434 28.928L177.376 26.296C177.208 26.0627 177.241 25.8527 177.474 25.666L177.698 25.526ZM185.818 28.634C185.818 28.3727 185.884 28.172 186.014 28.032C186.154 27.892 186.36 27.822 186.63 27.822H194.666C194.928 27.822 195.128 27.892 195.268 28.032C195.408 28.1627 195.478 28.3633 195.478 28.634V31.616C195.478 31.8773 195.408 32.078 195.268 32.218C195.138 32.358 194.937 32.428 194.666 32.428H186.63C186.369 32.428 186.168 32.358 186.028 32.218C185.888 32.078 185.818 31.8773 185.818 31.616V28.634ZM194.316 28.886H186.98V31.35H194.316V28.886ZM188.534 22.292C188.768 22.1333 188.964 22.1613 189.122 22.376L189.276 22.572C189.444 22.7867 189.416 22.978 189.192 23.146L188.898 23.356C188.31 23.776 187.755 24.1447 187.232 24.462C186.719 24.7793 186.196 25.0593 185.664 25.302C185.422 25.4233 185.244 25.3627 185.132 25.12L185.02 24.896C184.908 24.6533 184.974 24.4713 185.216 24.35C185.795 24.0793 186.341 23.7853 186.854 23.468C187.368 23.1413 187.876 22.7913 188.38 22.418L188.534 22.292ZM189.164 24.42C189.304 24.308 189.454 24.252 189.612 24.252H191.684C191.834 24.252 191.978 24.308 192.118 24.42C192.762 25.0173 193.476 25.5773 194.26 26.1C195.054 26.6133 195.898 27.0753 196.794 27.486C197.056 27.6073 197.13 27.794 197.018 28.046L196.906 28.284C196.794 28.5453 196.608 28.6153 196.346 28.494C194.452 27.6073 192.837 26.562 191.502 25.358H189.794C189.094 25.9927 188.315 26.5807 187.456 27.122C186.607 27.6633 185.767 28.1207 184.936 28.494C184.684 28.6153 184.502 28.5453 184.39 28.284L184.278 28.046C184.166 27.794 184.241 27.6073 184.502 27.486C185.454 27.038 186.322 26.5573 187.106 26.044C187.9 25.5307 188.586 24.9893 189.164 24.42ZM195.912 20.57C196.174 20.57 196.37 20.6353 196.5 20.766C196.631 20.8967 196.696 21.0927 196.696 21.354V22.88C196.696 23.16 196.556 23.3 196.276 23.3H196.038C195.758 23.3 195.618 23.16 195.618 22.88V21.648H185.678V22.88C185.678 23.16 185.538 23.3 185.258 23.3H185.02C184.74 23.3 184.6 23.16 184.6 22.88V21.354C184.6 21.0927 184.666 20.8967 184.796 20.766C184.927 20.6353 185.123 20.57 185.384 20.57H195.912ZM190.802 19.562C191.092 19.562 191.236 19.7067 191.236 19.996V20.668C191.236 20.9667 191.092 21.116 190.802 21.116H190.494C190.205 21.116 190.06 20.9667 190.06 20.668V19.996C190.06 19.7067 190.205 19.562 190.494 19.562H190.802ZM192.916 22.418C193.486 22.8287 194.022 23.1927 194.526 23.51C195.04 23.8273 195.558 24.1073 196.08 24.35C196.323 24.4713 196.388 24.6533 196.276 24.896L196.164 25.12C196.052 25.3627 195.875 25.4233 195.632 25.302C195.063 25.0407 194.517 24.7513 193.994 24.434C193.472 24.1167 192.963 23.776 192.468 23.412L192.104 23.146C191.88 22.978 191.852 22.7867 192.02 22.572L192.174 22.376C192.342 22.1613 192.538 22.138 192.762 22.306L192.916 22.418Z" fill="white"/>
<defs>
<linearGradient id="paint0_linear_4199_57940" x1="356.5" y1="42.7143" x2="28.2438" y2="14.7419" gradientUnits="userSpaceOnUse">
<stop stop-color="#EFB550"/>
<stop offset="0.518075" stop-color="#D7942B"/>
<stop offset="1" stop-color="#B68A33"/>
</linearGradient>
<clipPath id="clip0_4199_57940">
<rect width="20" height="20" fill="white" transform="translate(25 16)"/>
</clipPath>
</defs>
</svg>
