<svg width="387" height="52" viewBox="0 0 387 52" fill="none" xmlns="http://www.w3.org/2000/svg">
<rect x="13" width="358" height="52" rx="6" fill="white" fill-opacity="0.05"/>
<rect x="13.5" y="0.5" width="357" height="51" rx="5.5" stroke="white" stroke-opacity="0.05"/>
<rect x="25" y="12" width="28" height="28" rx="14" fill="#EEE6DB" fill-opacity="0.3"/>
<path fill-rule="evenodd" clip-rule="evenodd" d="M37.0875 18H40.9125C42.6222 18 43.9766 18 45.0361 18.1399C46.1263 18.2843 47.009 18.5879 47.7058 19.2718C48.4015 19.9566 48.7104 20.8242 48.8573 21.8958C48.9411 22.5111 48.9755 23.227 48.9894 24.0562C49.001 24.1258 49.0022 24.1966 48.9932 24.2665C48.9987 24.7834 49.0009 25.3442 48.9997 25.9488V26.0512C48.9997 27.7317 48.9997 29.0629 48.8573 30.1042C48.7104 31.1758 48.4015 32.0434 47.7058 32.7282C47.009 33.4121 46.1263 33.7157 45.0361 33.8601C43.9756 34 42.6222 34 40.9125 34H37.0875C35.3778 34 34.0234 34 32.9639 33.8601C31.8737 33.7157 30.991 33.4121 30.2942 32.7282C29.5985 32.0434 29.2896 31.1758 29.1427 30.1042C29.0003 29.0619 29.0003 27.7317 29.0003 26.0512V25.9488C28.9991 25.3442 29.0013 24.7834 29.0068 24.2665C28.9975 24.1967 28.9984 24.1258 29.0096 24.0562C29.0245 23.227 29.0589 22.5111 29.1427 21.8958C29.2896 20.8242 29.5985 19.9566 30.2942 19.2718C30.991 18.5879 31.8737 18.2843 32.9639 18.1399C34.0244 18 35.3778 18 37.0875 18ZM30.3975 24.8571C30.3963 25.2119 30.3956 25.5928 30.3956 26C30.3956 27.7435 30.3975 28.9824 30.5259 29.9223C30.6514 30.8411 30.8877 31.3714 31.2812 31.7582C31.6747 32.1449 32.2142 32.3771 33.15 32.5006C34.1062 32.6267 35.3657 32.6286 37.1396 32.6286H40.8604C42.6343 32.6286 43.8947 32.6267 44.851 32.5006C45.7858 32.3771 46.3253 32.1449 46.7188 31.7582C47.1123 31.3714 47.3486 30.8411 47.4741 29.9214C47.6025 28.9815 47.6044 27.7435 47.6044 26C47.6044 25.5928 47.6037 25.2119 47.6025 24.8571H30.3975ZM47.5802 23.4857H30.4198C30.4384 22.949 30.4701 22.4855 30.5259 22.0777C30.6514 21.1589 30.8877 20.6286 31.2812 20.2418C31.6747 19.8551 32.2142 19.6229 33.15 19.4994C34.1062 19.3733 35.3657 19.3714 37.1396 19.3714H40.8604C42.6343 19.3714 43.8947 19.3733 44.851 19.4994C45.7858 19.6229 46.3253 19.8551 46.7188 20.2418C47.1123 20.6286 47.3486 21.1589 47.4741 22.0786C47.5299 22.4855 47.5616 22.949 47.5802 23.4857ZM32.7211 29.6571C32.7211 29.4753 32.7946 29.3009 32.9255 29.1723C33.0563 29.0437 33.2338 28.9714 33.4188 28.9714H37.1396C37.3246 28.9714 37.5021 29.0437 37.6329 29.1723C37.7637 29.3009 37.8372 29.4753 37.8372 29.6571C37.8372 29.839 37.7637 30.0134 37.6329 30.142C37.5021 30.2706 37.3246 30.3429 37.1396 30.3429H33.4188C33.2338 30.3429 33.0563 30.2706 32.9255 30.142C32.7946 30.0134 32.7211 29.839 32.7211 29.6571ZM38.7674 29.6571C38.7674 29.4753 38.841 29.3009 38.9718 29.1723C39.1026 29.0437 39.2801 28.9714 39.4651 28.9714H40.8604C41.0454 28.9714 41.2229 29.0437 41.3537 29.1723C41.4846 29.3009 41.5581 29.4753 41.5581 29.6571C41.5581 29.839 41.4846 30.0134 41.3537 30.142C41.2229 30.2706 41.0454 30.3429 40.8604 30.3429H39.4651C39.2801 30.3429 39.1026 30.2706 38.9718 30.142C38.841 30.0134 38.7674 29.839 38.7674 29.6571Z" fill="#E7E7E7"/>
<path d="M64.584 19.394L65.83 19.982C65.522 20.934 65.116 21.858 64.64 22.74V32.47H63.31V24.798C62.862 25.386 62.372 25.96 61.84 26.52L61.42 25.134C62.848 23.496 63.912 21.578 64.584 19.394ZM65.984 22.446H71.108V19.576H72.438V22.446H74.37V23.734H72.438V30.846C72.438 31.854 71.948 32.372 70.968 32.372H68.882L68.588 31.07C69.246 31.126 69.89 31.154 70.506 31.154C70.898 31.154 71.108 30.93 71.108 30.51V23.734H65.984V22.446ZM67.426 25.05C68.462 26.268 69.26 27.332 69.82 28.256L68.686 29.04C68.098 28.046 67.314 26.94 66.334 25.722L67.426 25.05ZM75.644 20.71H78.5V19.52H79.76V20.71H82.224V21.858H79.76V22.81H81.902V23.93H76.134V22.81H78.5V21.858H75.644V20.71ZM76.596 24.784H81.468V25.932H76.596V24.784ZM75.742 26.73H82.378V27.892H79.746V31.154C79.746 31.994 79.284 32.414 78.388 32.414H77.24L76.974 31.21C77.31 31.266 77.646 31.294 77.968 31.294C78.304 31.294 78.486 31.14 78.486 30.846V27.892H75.742V26.73ZM76.68 28.396L77.744 28.606C77.436 29.684 77.016 30.608 76.456 31.392L75.462 30.762C76.036 30.034 76.442 29.236 76.68 28.396ZM81.342 28.27C81.664 28.9 81.958 29.572 82.21 30.3L81.174 30.762C80.908 29.95 80.614 29.222 80.292 28.606L81.342 28.27ZM83.428 19.576L84.646 19.772C84.562 20.444 84.478 21.06 84.366 21.62H87.992V22.418C87.81 23.594 87.572 24.77 87.292 25.946L86.06 25.596C86.312 24.798 86.536 23.874 86.704 22.81H84.086C83.764 23.958 83.358 24.882 82.854 25.582L81.846 24.854C82.658 23.594 83.19 21.83 83.428 19.576ZM84.394 23.79H85.598C85.598 24.714 85.556 25.568 85.472 26.352C86.06 28.48 87.082 30.174 88.51 31.434L87.628 32.442C86.536 31.35 85.682 30.034 85.08 28.508C84.646 30.118 83.68 31.448 82.168 32.512L81.356 31.546C82.658 30.622 83.512 29.502 83.918 28.158C84.226 27.038 84.394 25.582 84.394 23.79ZM102.622 28.522C102.482 29.95 102.272 30.902 101.992 31.35C101.726 31.77 101.166 31.994 100.312 31.994H96.658C95.748 31.994 95.3 31.518 95.3 30.594V24.308H100.242V21.382H94.712V20.094H101.516V25.582H96.602V30.076C96.602 30.496 96.812 30.706 97.232 30.734H100.074C100.578 30.734 100.9 30.538 101.026 30.174C101.138 29.81 101.236 29.11 101.292 28.074L102.622 28.522ZM91.422 19.632C92.332 20.318 93.102 21.004 93.732 21.704L92.822 22.628C92.262 21.97 91.492 21.27 90.498 20.542L91.422 19.632ZM89.574 23.692H92.808V29.726C93.284 29.334 93.802 28.9 94.334 28.41L94.684 29.81C93.746 30.636 92.752 31.378 91.688 32.022L91.184 30.832C91.408 30.636 91.534 30.398 91.534 30.118V24.966H89.574V23.692ZM105.366 19.968H113.64V24.49H116.048V25.708H110.574V27.136C110.868 27.458 111.176 27.766 111.512 28.06C112.45 27.528 113.262 26.772 113.934 25.778L114.956 26.632C114.214 27.556 113.374 28.284 112.422 28.802C113.486 29.586 114.704 30.272 116.104 30.874L115.432 32.05C113.416 31.098 111.806 29.95 110.574 28.606V31.028C110.574 31.98 110.154 32.456 109.342 32.456H107.718L107.424 31.196C107.942 31.252 108.432 31.294 108.894 31.294C109.132 31.294 109.258 31.098 109.258 30.72V28.676C107.858 29.908 106.206 31.014 104.302 32.008L103.77 30.776C105.884 29.81 107.718 28.648 109.258 27.29V25.708H103.966V24.49H112.282V23.412H105.842V22.264H112.282V21.158H105.366V19.968ZM105.646 26.002C106.472 26.576 107.172 27.15 107.732 27.71L106.864 28.578C106.36 28.046 105.66 27.472 104.764 26.856L105.646 26.002Z" fill="#E7E7E7"/>
<path d="M348.746 31.4543L354.186 26.0143C354.205 25.9084 354.205 25.8001 354.186 25.6943L348.746 20.2543C348.704 20.236 348.586 20.2351 348.426 20.2543L347.786 20.8943C347.768 21.0613 347.767 21.1823 347.786 21.2143L352.266 25.6943C352.298 25.7416 352.315 25.7973 352.315 25.8543C352.315 25.9113 352.298 25.9669 352.266 26.0143L347.786 30.4943C347.768 30.5256 347.766 30.646 347.786 30.8143L348.426 31.4543C348.584 31.4725 348.704 31.4735 348.746 31.4543Z" fill="#E7E7E7" fill-opacity="0.5"/>
</svg>
