<svg width="387" height="52" viewBox="0 0 387 52" fill="none" xmlns="http://www.w3.org/2000/svg">
<rect x="13" width="358" height="52" rx="6" fill="white" fill-opacity="0.05"/>
<rect x="13.5" y="0.5" width="357" height="51" rx="5.5" stroke="white" stroke-opacity="0.05"/>
<rect x="25" y="12" width="28" height="28" rx="14" fill="#EEE6DB" fill-opacity="0.3"/>
<path d="M45.3679 19.6286C42.0284 16.2891 36.7001 16.1341 33.167 19.1494V17.9085C33.167 17.4943 32.831 17.1583 32.4168 17.1583C32.0025 17.1583 31.6666 17.4943 31.6666 17.9085V20.9093C31.6666 21.3235 32.0025 21.6595 32.4168 21.6595H35.4175C35.8318 21.6595 36.1677 21.3235 36.1677 20.9093C36.1677 20.4951 35.8318 20.1591 35.4175 20.1591H34.2887C37.2321 17.7787 41.5717 17.954 44.3071 20.6894C47.2316 23.6144 47.2316 28.3742 44.3071 31.299C41.3818 34.2235 36.6228 34.2235 33.6975 31.299C32.2806 29.882 31.5004 27.9981 31.5004 25.9942C31.5004 25.5799 31.1644 25.244 30.7502 25.244C30.3359 25.244 30 25.5799 30 25.9942C30 28.399 30.9363 30.6599 32.6367 32.3598C34.3917 34.1148 36.6969 34.9925 39.0023 34.9925C41.3075 34.9925 43.6129 34.1148 45.3679 32.3598C48.8774 28.8498 48.8774 23.1385 45.3679 19.6286Z" fill="#E7E7E7"/>
<path d="M39.0057 20.7393C38.5914 20.7393 38.2555 21.0752 38.2555 21.4894V25.8354C38.2555 26.1357 38.3727 26.4187 38.5851 26.6311L41.4759 29.5219C41.6224 29.6684 41.8144 29.7418 42.0062 29.7418C42.198 29.7418 42.3902 29.6686 42.5365 29.5219C42.8295 29.2288 42.8295 28.7541 42.5365 28.4611L39.7559 25.68V21.4894C39.7559 21.0752 39.4199 20.7393 39.0057 20.7393Z" fill="#E7E7E7"/>
<path d="M62.68 19.688C63.52 20.388 64.234 21.102 64.808 21.802L63.884 22.726C63.38 22.054 62.666 21.34 61.756 20.57L62.68 19.688ZM62.47 22.95C63.296 23.65 63.996 24.336 64.556 25.022L63.632 25.946C63.142 25.288 62.456 24.588 61.56 23.832L62.47 22.95ZM63.786 26.94L64.962 27.402C64.346 29.152 63.66 30.804 62.904 32.344L61.7 31.826C62.512 30.23 63.198 28.592 63.786 26.94ZM65.088 21.746H66.866C66.67 21.032 66.446 20.374 66.194 19.758L67.538 19.534C67.734 20.178 67.93 20.92 68.126 21.746H69.834V23.034H69.26C69.022 24.77 68.728 26.24 68.364 27.444C69.008 28.564 69.554 29.586 69.988 30.524L68.938 31.266C68.588 30.51 68.196 29.74 67.776 28.942C67.118 30.258 66.208 31.448 65.06 32.498L64.234 31.448C65.41 30.384 66.278 29.222 66.866 27.934C66.922 27.808 66.964 27.682 67.006 27.57C66.474 26.632 65.872 25.666 65.228 24.658L66.236 24.014C66.684 24.7 67.104 25.358 67.496 26.002C67.72 25.106 67.902 24.126 68.042 23.034H65.088V21.746ZM70.478 20.738H71.71V29.418H70.478V20.738ZM72.62 32.316H70.73L70.436 31.028C71.038 31.084 71.612 31.112 72.158 31.112C72.522 31.112 72.704 30.916 72.704 30.552V19.562H73.978V30.888C73.978 31.84 73.516 32.316 72.62 32.316ZM85.836 24.574V29.67H84.534V25.778H79.312V29.684H77.996V24.574H85.836ZM81.132 26.562H82.434V27.542C82.42 27.752 82.392 27.962 82.364 28.158H83.54V30.426C83.54 30.804 83.736 31 84.128 31H86.228C86.452 31 86.62 30.916 86.732 30.776C86.858 30.608 86.942 30.09 86.998 29.25L88.216 29.656C88.118 30.888 87.922 31.63 87.642 31.882C87.39 32.106 86.998 32.218 86.466 32.218H83.736C82.756 32.218 82.266 31.714 82.266 30.706V28.634C82.042 29.502 81.608 30.216 80.978 30.804C80.082 31.56 78.64 32.134 76.652 32.54L75.896 31.364C77.884 30.986 79.242 30.51 79.97 29.936C80.67 29.32 81.062 28.522 81.132 27.542V26.562ZM79.27 19.534H80.586V24.126H79.27V19.534ZM76.526 20.108H77.814V23.692H76.526V20.108ZM83.61 21.69C83.176 22.488 82.672 23.16 82.098 23.692L81.104 22.768C82.028 21.83 82.714 20.71 83.134 19.422L84.408 19.758L84.156 20.472H88.048V21.69H83.61ZM84.87 21.914C85.668 22.362 86.396 22.908 87.068 23.538L86.242 24.476C85.57 23.776 84.828 23.188 84.044 22.684L84.87 21.914ZM102.622 28.522C102.482 29.95 102.272 30.902 101.992 31.35C101.726 31.77 101.166 31.994 100.312 31.994H96.658C95.748 31.994 95.3 31.518 95.3 30.594V24.308H100.242V21.382H94.712V20.094H101.516V25.582H96.602V30.076C96.602 30.496 96.812 30.706 97.232 30.734H100.074C100.578 30.734 100.9 30.538 101.026 30.174C101.138 29.81 101.236 29.11 101.292 28.074L102.622 28.522ZM91.422 19.632C92.332 20.318 93.102 21.004 93.732 21.704L92.822 22.628C92.262 21.97 91.492 21.27 90.498 20.542L91.422 19.632ZM89.574 23.692H92.808V29.726C93.284 29.334 93.802 28.9 94.334 28.41L94.684 29.81C93.746 30.636 92.752 31.378 91.688 32.022L91.184 30.832C91.408 30.636 91.534 30.398 91.534 30.118V24.966H89.574V23.692ZM105.366 19.968H113.64V24.49H116.048V25.708H110.574V27.136C110.868 27.458 111.176 27.766 111.512 28.06C112.45 27.528 113.262 26.772 113.934 25.778L114.956 26.632C114.214 27.556 113.374 28.284 112.422 28.802C113.486 29.586 114.704 30.272 116.104 30.874L115.432 32.05C113.416 31.098 111.806 29.95 110.574 28.606V31.028C110.574 31.98 110.154 32.456 109.342 32.456H107.718L107.424 31.196C107.942 31.252 108.432 31.294 108.894 31.294C109.132 31.294 109.258 31.098 109.258 30.72V28.676C107.858 29.908 106.206 31.014 104.302 32.008L103.77 30.776C105.884 29.81 107.718 28.648 109.258 27.29V25.708H103.966V24.49H112.282V23.412H105.842V22.264H112.282V21.158H105.366V19.968ZM105.646 26.002C106.472 26.576 107.172 27.15 107.732 27.71L106.864 28.578C106.36 28.046 105.66 27.472 104.764 26.856L105.646 26.002Z" fill="#E7E7E7"/>
<path d="M348.746 31.4543L354.186 26.0143C354.205 25.9084 354.205 25.8001 354.186 25.6943L348.746 20.2543C348.704 20.236 348.586 20.2351 348.426 20.2543L347.786 20.8943C347.768 21.0613 347.767 21.1823 347.786 21.2143L352.266 25.6943C352.298 25.7416 352.315 25.7973 352.315 25.8543C352.315 25.9113 352.298 25.9669 352.266 26.0143L347.786 30.4943C347.768 30.5256 347.766 30.646 347.786 30.8143L348.426 31.4543C348.584 31.4725 348.704 31.4735 348.746 31.4543Z" fill="#E7E7E7" fill-opacity="0.5"/>
</svg>
