<svg width="387" height="90" viewBox="0 0 387 90" fill="none" xmlns="http://www.w3.org/2000/svg">
<rect x="13" width="175" height="90" rx="6" fill="white" fill-opacity="0.05"/>
<path d="M32.382 28.358H31.514L31.234 27.308C31.01 27.448 30.702 27.532 30.324 27.532H29.4C28.672 27.532 28.322 27.112 28.322 26.286V24.27H27.496C27.3 25.894 26.348 27.07 24.612 27.826L23.926 26.734C25.354 26.23 26.166 25.418 26.348 24.27H25.018V20.308H26.586C26.25 19.664 25.886 19.104 25.508 18.628L26.614 18.096C26.978 18.6 27.342 19.174 27.678 19.79L26.656 20.308H28.322C28.686 19.566 29.022 18.782 29.302 17.942L30.562 18.376C30.254 19.09 29.932 19.734 29.596 20.308H30.898V24.27H29.484V26.034C29.484 26.244 29.582 26.356 29.778 26.356H30.114C30.282 26.356 30.408 26.3 30.492 26.188C30.604 26.062 30.674 25.698 30.702 25.082L31.836 25.446C31.752 26.328 31.626 26.888 31.43 27.14L32.102 27.168C32.368 27.168 32.508 26.972 32.508 26.58V17.298H27.202V16.066H33.81V26.958C33.81 27.882 33.334 28.358 32.382 28.358ZM29.694 23.192V21.386H26.222V23.192H29.694ZM22.148 17.816H23.45V28.442H22.148V17.816ZM24.542 15.394C25.102 16.066 25.606 16.794 26.026 17.592L24.85 18.208C24.388 17.354 23.884 16.598 23.338 15.926L24.542 15.394ZM40.516 16.332H43.582V15.408H44.884V16.332H47.936V17.536H44.884V18.488H48.202V19.328C47.964 20.224 47.656 21.106 47.278 21.988L45.99 21.624C46.298 21.064 46.564 20.434 46.788 19.72H39.942V18.488H43.582V17.536H40.516V16.332ZM39.956 23.528H41.944C41.314 22.982 40.67 22.548 40.026 22.212L40.656 21.288C41.412 21.652 42.112 22.1 42.742 22.632L42.154 23.528H43.862C43.918 23.248 43.946 22.954 43.96 22.66V20.07H45.248V22.66C45.234 22.968 45.206 23.248 45.178 23.528H48.426V24.76H44.912C44.87 24.886 44.828 24.998 44.786 25.11C46.158 25.754 47.404 26.524 48.552 27.392L47.81 28.526C46.648 27.546 45.472 26.734 44.268 26.118C44.184 26.23 44.114 26.342 44.03 26.454C43.302 27.35 42.112 28.036 40.474 28.512L39.76 27.406C41.356 26.93 42.448 26.342 43.022 25.628C43.218 25.362 43.372 25.068 43.512 24.76H39.956V23.528ZM41.832 19.874C42.532 20.21 43.19 20.63 43.778 21.12L43.148 22.072C42.532 21.512 41.888 21.078 41.23 20.756L41.832 19.874ZM37.436 15.632C38.332 16.318 39.088 17.004 39.718 17.69L38.808 18.614C38.262 17.97 37.492 17.27 36.498 16.542L37.436 15.632ZM35.532 19.692H38.696V25.432C38.976 25.138 39.27 24.83 39.578 24.494L39.942 25.894C39.186 26.692 38.402 27.406 37.562 28.022L37.058 26.832C37.282 26.636 37.408 26.398 37.408 26.118V20.966H35.532V19.692ZM50.918 15.66C51.842 16.388 52.626 17.116 53.27 17.844L52.318 18.796C51.772 18.096 51.002 17.354 49.994 16.542L50.918 15.66ZM58.926 28.204C58.17 28.204 57.344 28.19 56.462 28.176C55.566 28.162 54.838 28.078 54.264 27.938C53.704 27.77 53.228 27.434 52.808 26.958C52.626 26.72 52.458 26.608 52.29 26.608C52.01 26.608 51.506 27.238 50.792 28.498L49.812 27.588C50.512 26.454 51.142 25.74 51.702 25.46V21.498H49.812V20.266H52.948V25.572C53.004 25.628 53.074 25.684 53.144 25.768C53.452 26.146 53.788 26.426 54.138 26.608C54.544 26.804 55.146 26.93 55.958 26.958C56.742 26.972 57.666 26.986 58.744 26.986C59.416 26.986 60.116 26.972 60.83 26.958C61.53 26.944 62.076 26.916 62.454 26.888L62.132 28.204H58.926ZM54.096 17.62H55.636V15.506H56.91V17.62H58.814V15.52H60.102V17.62H61.768V18.866H60.102V21.344H62.216V22.604H60.102V26.412H58.814V22.604H56.588C56.196 24.214 55.496 25.404 54.46 26.188L53.662 25.124C54.446 24.564 54.992 23.724 55.3 22.604H53.606V21.344H55.552C55.608 20.868 55.636 20.378 55.636 19.86V18.866H54.096V17.62ZM56.91 18.866V19.552C56.91 20.196 56.868 20.784 56.812 21.344H58.814V18.866H56.91ZM66.612 23.206H74.9V24.186C74.186 25.054 73.332 25.782 72.324 26.398C73.514 26.846 74.886 27.182 76.426 27.378L75.852 28.526C73.99 28.218 72.394 27.728 71.064 27.084C69.664 27.742 68.026 28.218 66.178 28.526L65.604 27.364C67.158 27.14 68.544 26.804 69.748 26.342C68.866 25.754 68.138 25.096 67.55 24.34H66.612V23.206ZM68.978 24.34C69.538 24.9 70.196 25.376 70.966 25.796C71.778 25.376 72.492 24.886 73.108 24.34H68.978ZM65.996 20.28V21.064C65.94 24.116 65.45 26.552 64.498 28.4L63.49 27.504C64.246 25.964 64.652 23.808 64.68 21.064V16.5H69.986C69.832 16.192 69.664 15.898 69.496 15.646L70.91 15.422C71.064 15.744 71.218 16.108 71.358 16.5H76.062V17.76H65.996V19.048H68.096V18.11H69.384V19.048H72.674V18.096H73.962V19.048H76.062V20.28H73.962V22.436H68.096V20.28H65.996ZM69.384 20.28V21.33H72.674V20.28H69.384Z" fill="#E7E7E7"/>
<path d="M31.128 53.764H23.688V57.064C23.688 57.52 23.916 57.748 24.372 57.748H30.36C30.576 57.748 30.78 57.676 30.948 57.532C31.14 57.352 31.26 56.632 31.332 55.372L32.448 55.732C32.304 57.244 32.1 58.144 31.848 58.42C31.56 58.684 31.176 58.828 30.684 58.852H24.06C23.04 58.852 22.536 58.324 22.536 57.268V51.028H23.688V52.672H29.964V49.816H22.044V48.724H31.128V53.764ZM37.728 48.856H40.356V48.064H41.472V48.856H44.088V49.888H41.472V50.704H44.316V51.424C44.112 52.192 43.848 52.948 43.524 53.704L42.42 53.392C42.684 52.912 42.912 52.372 43.104 51.76H37.236V50.704H40.356V49.888H37.728V48.856ZM37.248 55.024H38.952C38.412 54.556 37.86 54.184 37.308 53.896L37.848 53.104C38.496 53.416 39.096 53.8 39.636 54.256L39.132 55.024H40.596C40.644 54.784 40.668 54.532 40.68 54.28V52.06H41.784V54.28C41.772 54.544 41.748 54.784 41.724 55.024H44.508V56.08H41.496C41.46 56.188 41.424 56.284 41.388 56.38C42.564 56.932 43.632 57.592 44.616 58.336L43.98 59.308C42.984 58.468 41.976 57.772 40.944 57.244C40.872 57.34 40.812 57.436 40.74 57.532C40.116 58.3 39.096 58.888 37.692 59.296L37.08 58.348C38.448 57.94 39.384 57.436 39.876 56.824C40.044 56.596 40.176 56.344 40.296 56.08H37.248V55.024ZM38.856 51.892C39.456 52.18 40.02 52.54 40.524 52.96L39.984 53.776C39.456 53.296 38.904 52.924 38.34 52.648L38.856 51.892ZM35.088 48.256C35.856 48.844 36.504 49.432 37.044 50.02L36.264 50.812C35.796 50.26 35.136 49.66 34.284 49.036L35.088 48.256ZM33.456 51.736H36.168V56.656C36.408 56.404 36.66 56.14 36.924 55.852L37.236 57.052C36.588 57.736 35.916 58.348 35.196 58.876L34.764 57.856C34.956 57.688 35.064 57.484 35.064 57.244V52.828H33.456V51.736ZM45.708 50.092H50.544C50.232 49.516 49.848 48.976 49.392 48.46L50.532 48.04C50.964 48.616 51.372 49.3 51.744 50.092H56.292V51.22H54.456C53.88 53.044 53.028 54.568 51.9 55.804C53.148 56.824 54.708 57.676 56.556 58.348L55.92 59.308C53.988 58.588 52.38 57.688 51.108 56.608C49.752 57.808 48.084 58.696 46.104 59.272L45.492 58.264C47.436 57.76 49.032 56.968 50.304 55.876C48.984 54.556 48.06 52.996 47.544 51.22H45.708V50.092ZM48.636 51.22C49.14 52.696 49.956 53.992 51.096 55.096C52.068 54.028 52.8 52.732 53.28 51.22H48.636ZM62.448 56.152H59.112V52.288H66.912V56.152H63.6V56.764H68.316V57.772H63.6V59.164H62.448V57.772H57.684V56.764H62.448V56.152ZM60.24 54.652V55.216H65.784V54.652H60.24ZM65.784 53.788V53.224H60.24V53.788H65.784ZM60.216 49.9H58.464V48.928H62.28C62.196 48.688 62.1 48.46 62.004 48.256L63.228 48.064C63.336 48.328 63.432 48.616 63.528 48.928H67.536V49.9H65.832L65.508 50.8H68.16V51.76H57.852V50.8H60.588L60.216 49.9ZM61.728 50.8H64.32L64.644 49.9H61.356L61.728 50.8Z" fill="#AAAFBA"/>
<path d="M31.128 53.764H23.688V57.064C23.688 57.52 23.916 57.748 24.372 57.748H30.36C30.576 57.748 30.78 57.676 30.948 57.532C31.14 57.352 31.26 56.632 31.332 55.372L32.448 55.732C32.304 57.244 32.1 58.144 31.848 58.42C31.56 58.684 31.176 58.828 30.684 58.852H24.06C23.04 58.852 22.536 58.324 22.536 57.268V51.028H23.688V52.672H29.964V49.816H22.044V48.724H31.128V53.764ZM37.728 48.856H40.356V48.064H41.472V48.856H44.088V49.888H41.472V50.704H44.316V51.424C44.112 52.192 43.848 52.948 43.524 53.704L42.42 53.392C42.684 52.912 42.912 52.372 43.104 51.76H37.236V50.704H40.356V49.888H37.728V48.856ZM37.248 55.024H38.952C38.412 54.556 37.86 54.184 37.308 53.896L37.848 53.104C38.496 53.416 39.096 53.8 39.636 54.256L39.132 55.024H40.596C40.644 54.784 40.668 54.532 40.68 54.28V52.06H41.784V54.28C41.772 54.544 41.748 54.784 41.724 55.024H44.508V56.08H41.496C41.46 56.188 41.424 56.284 41.388 56.38C42.564 56.932 43.632 57.592 44.616 58.336L43.98 59.308C42.984 58.468 41.976 57.772 40.944 57.244C40.872 57.34 40.812 57.436 40.74 57.532C40.116 58.3 39.096 58.888 37.692 59.296L37.08 58.348C38.448 57.94 39.384 57.436 39.876 56.824C40.044 56.596 40.176 56.344 40.296 56.08H37.248V55.024ZM38.856 51.892C39.456 52.18 40.02 52.54 40.524 52.96L39.984 53.776C39.456 53.296 38.904 52.924 38.34 52.648L38.856 51.892ZM35.088 48.256C35.856 48.844 36.504 49.432 37.044 50.02L36.264 50.812C35.796 50.26 35.136 49.66 34.284 49.036L35.088 48.256ZM33.456 51.736H36.168V56.656C36.408 56.404 36.66 56.14 36.924 55.852L37.236 57.052C36.588 57.736 35.916 58.348 35.196 58.876L34.764 57.856C34.956 57.688 35.064 57.484 35.064 57.244V52.828H33.456V51.736ZM45.708 50.092H50.544C50.232 49.516 49.848 48.976 49.392 48.46L50.532 48.04C50.964 48.616 51.372 49.3 51.744 50.092H56.292V51.22H54.456C53.88 53.044 53.028 54.568 51.9 55.804C53.148 56.824 54.708 57.676 56.556 58.348L55.92 59.308C53.988 58.588 52.38 57.688 51.108 56.608C49.752 57.808 48.084 58.696 46.104 59.272L45.492 58.264C47.436 57.76 49.032 56.968 50.304 55.876C48.984 54.556 48.06 52.996 47.544 51.22H45.708V50.092ZM48.636 51.22C49.14 52.696 49.956 53.992 51.096 55.096C52.068 54.028 52.8 52.732 53.28 51.22H48.636ZM62.448 56.152H59.112V52.288H66.912V56.152H63.6V56.764H68.316V57.772H63.6V59.164H62.448V57.772H57.684V56.764H62.448V56.152ZM60.24 54.652V55.216H65.784V54.652H60.24ZM65.784 53.788V53.224H60.24V53.788H65.784ZM60.216 49.9H58.464V48.928H62.28C62.196 48.688 62.1 48.46 62.004 48.256L63.228 48.064C63.336 48.328 63.432 48.616 63.528 48.928H67.536V49.9H65.832L65.508 50.8H68.16V51.76H57.852V50.8H60.588L60.216 49.9ZM61.728 50.8H64.32L64.644 49.9H61.356L61.728 50.8Z" fill="#D7942B"/>
<path d="M104.654 54.76H110.414V57H101.614L101.678 55.992C101.721 55.224 101.843 54.5573 102.046 53.992C102.195 53.608 102.377 53.2667 102.59 52.968C103.134 52.2747 103.945 51.7147 105.022 51.288L105.918 50.888C106.537 50.632 106.974 50.3653 107.23 50.088C107.497 49.8 107.63 49.4427 107.63 49.016C107.63 48.5573 107.491 48.2053 107.214 47.96C106.937 47.7147 106.542 47.592 106.03 47.592C104.889 47.592 104.318 48.2 104.318 49.416H101.742C101.731 48.136 102.094 47.1387 102.83 46.424C103.566 45.7093 104.654 45.352 106.094 45.352C107.406 45.352 108.441 45.672 109.198 46.312C109.945 46.952 110.318 47.768 110.318 48.76C110.318 49.7413 110.057 50.5253 109.534 51.112C109.001 51.7093 108.169 52.264 107.038 52.776L106.094 53.224C105.593 53.4587 105.235 53.688 105.022 53.912C104.819 54.1253 104.697 54.408 104.654 54.76ZM114.545 54.76H120.305V57H111.505L111.569 55.992C111.611 55.224 111.734 54.5573 111.937 53.992C112.086 53.608 112.267 53.2667 112.481 52.968C113.025 52.2747 113.835 51.7147 114.913 51.288L115.809 50.888C116.427 50.632 116.865 50.3653 117.121 50.088C117.387 49.8 117.521 49.4427 117.521 49.016C117.521 48.5573 117.382 48.2053 117.105 47.96C116.827 47.7147 116.433 47.592 115.921 47.592C114.779 47.592 114.209 48.2 114.209 49.416H111.633C111.622 48.136 111.985 47.1387 112.721 46.424C113.457 45.7093 114.545 45.352 115.985 45.352C117.297 45.352 118.331 45.672 119.089 46.312C119.835 46.952 120.209 47.768 120.209 48.76C120.209 49.7413 119.947 50.5253 119.425 51.112C118.891 51.7093 118.059 52.264 116.929 52.776L115.985 53.224C115.483 53.4587 115.126 53.688 114.913 53.912C114.71 54.1253 114.587 54.408 114.545 54.76ZM129.61 55.704C128.8 56.7387 127.594 57.256 125.994 57.256C124.394 57.256 123.189 56.7387 122.378 55.704C121.546 54.68 121.13 53.2133 121.13 51.304C121.13 49.4053 121.546 47.9333 122.378 46.888C123.2 45.864 124.405 45.352 125.994 45.352C127.584 45.352 128.789 45.864 129.61 46.888C130.432 47.9333 130.842 49.4053 130.842 51.304C130.842 53.2027 130.432 54.6693 129.61 55.704ZM124.458 54.136C124.789 54.7227 125.301 55.016 125.994 55.016C126.688 55.016 127.2 54.7227 127.53 54.136C127.861 53.5707 128.026 52.6267 128.026 51.304C128.026 50.0133 127.856 49.0747 127.514 48.488C127.184 47.8907 126.677 47.592 125.994 47.592C125.301 47.592 124.784 47.8907 124.442 48.488C124.112 49.0747 123.946 50.0133 123.946 51.304C123.946 52.6053 124.117 53.5493 124.458 54.136ZM133.502 57H131.086L135.166 45.608H137.582L133.502 57ZM145.176 50.92C145.795 51.144 146.275 51.496 146.616 51.976C146.968 52.456 147.144 53.0267 147.144 53.688C147.144 54.744 146.744 55.6027 145.944 56.264C145.134 56.9253 144.03 57.256 142.632 57.256C141.075 57.256 139.891 56.888 139.08 56.152C138.27 55.416 137.864 54.3707 137.864 53.016H140.456C140.467 53.72 140.638 54.232 140.968 54.552C141.31 54.8613 141.832 55.016 142.536 55.016C143.112 55.016 143.56 54.888 143.88 54.632C144.2 54.3653 144.36 54.008 144.36 53.56C144.36 52.536 143.72 52.024 142.44 52.024H141.592V50.12H142.488C143.651 50.12 144.232 49.6667 144.232 48.76C144.232 48.3653 144.088 48.0507 143.8 47.816C143.512 47.5813 143.102 47.464 142.568 47.464C141.992 47.464 141.555 47.592 141.256 47.848C140.968 48.0933 140.803 48.488 140.76 49.032H138.168C138.254 46.5787 139.726 45.352 142.584 45.352C143.896 45.352 144.926 45.6347 145.672 46.2C146.43 46.7653 146.808 47.5333 146.808 48.504C146.808 49.0267 146.659 49.5013 146.36 49.928C146.072 50.3547 145.678 50.6853 145.176 50.92ZM156.563 55.704C155.753 56.7387 154.547 57.256 152.947 57.256C151.347 57.256 150.142 56.7387 149.331 55.704C148.499 54.68 148.083 53.2133 148.083 51.304C148.083 49.4053 148.499 47.9333 149.331 46.888C150.153 45.864 151.358 45.352 152.947 45.352C154.537 45.352 155.742 45.864 156.563 46.888C157.385 47.9333 157.795 49.4053 157.795 51.304C157.795 53.2027 157.385 54.6693 156.563 55.704ZM151.411 54.136C151.742 54.7227 152.254 55.016 152.947 55.016C153.641 55.016 154.153 54.7227 154.483 54.136C154.814 53.5707 154.979 52.6267 154.979 51.304C154.979 50.0133 154.809 49.0747 154.467 48.488C154.137 47.8907 153.63 47.592 152.947 47.592C152.254 47.592 151.737 47.8907 151.395 48.488C151.065 49.0747 150.899 50.0133 150.899 51.304C150.899 52.6053 151.07 53.5493 151.411 54.136ZM167.345 55.704C166.534 56.7387 165.329 57.256 163.729 57.256C162.129 57.256 160.923 56.7387 160.113 55.704C159.281 54.68 158.865 53.2133 158.865 51.304C158.865 49.4053 159.281 47.9333 160.113 46.888C160.934 45.864 162.139 45.352 163.729 45.352C165.318 45.352 166.523 45.864 167.345 46.888C168.166 47.9333 168.577 49.4053 168.577 51.304C168.577 53.2027 168.166 54.6693 167.345 55.704ZM162.193 54.136C162.523 54.7227 163.035 55.016 163.729 55.016C164.422 55.016 164.934 54.7227 165.265 54.136C165.595 53.5707 165.761 52.6267 165.761 51.304C165.761 50.0133 165.59 49.0747 165.249 48.488C164.918 47.8907 164.411 47.592 163.729 47.592C163.035 47.592 162.518 47.8907 162.177 48.488C161.846 49.0747 161.681 50.0133 161.681 51.304C161.681 52.6053 161.851 53.5493 162.193 54.136ZM178.126 55.704C177.315 56.7387 176.11 57.256 174.51 57.256C172.91 57.256 171.705 56.7387 170.894 55.704C170.062 54.68 169.646 53.2133 169.646 51.304C169.646 49.4053 170.062 47.9333 170.894 46.888C171.715 45.864 172.921 45.352 174.51 45.352C176.099 45.352 177.305 45.864 178.126 46.888C178.947 47.9333 179.358 49.4053 179.358 51.304C179.358 53.2027 178.947 54.6693 178.126 55.704ZM172.974 54.136C173.305 54.7227 173.817 55.016 174.51 55.016C175.203 55.016 175.715 54.7227 176.046 54.136C176.377 53.5707 176.542 52.6267 176.542 51.304C176.542 50.0133 176.371 49.0747 176.03 48.488C175.699 47.8907 175.193 47.592 174.51 47.592C173.817 47.592 173.299 47.8907 172.958 48.488C172.627 49.0747 172.462 50.0133 172.462 51.304C172.462 52.6053 172.633 53.5493 172.974 54.136Z" fill="url(#paint0_linear_4199_57913)"/>
<rect x="21" y="66" width="159" height="12" rx="6" fill="#D9D9D9" fill-opacity="0.5"/>
<rect x="21" y="66" width="47.1111" height="12" rx="6" fill="#D7942B"/>
<rect x="21" y="66" width="47.1111" height="12" rx="6" fill="url(#paint1_linear_4199_57913)"/>
<rect x="196" width="175" height="90" rx="6" fill="white" fill-opacity="0.05"/>
<rect x="196.5" y="0.5" width="174" height="89" rx="5.5" stroke="white" stroke-opacity="0.05"/>
<path d="M210.156 22.064C209.75 22.568 209.316 23.044 208.868 23.52L208.434 22.106C209.89 20.482 210.968 18.592 211.654 16.436L212.9 17.024C212.536 18.116 212.074 19.166 211.486 20.146V29.442H210.156V22.064ZM219.578 22.092C220.25 23.73 220.838 25.48 221.328 27.342L220.166 27.874C219.634 25.844 219.046 24.052 218.402 22.484L219.578 22.092ZM214.636 19.404C214.216 20.44 213.726 21.378 213.166 22.246L212.018 21.532C213.068 19.978 213.81 18.312 214.244 16.52L215.49 16.786C215.364 17.248 215.238 17.696 215.098 18.116H220.978V18.984C220.754 19.824 220.488 20.664 220.152 21.504L218.878 21.14C219.158 20.636 219.41 20.048 219.606 19.404H214.636ZM216.246 29.344H214.454L214.16 28.084C214.734 28.14 215.28 28.182 215.798 28.182C216.134 28.182 216.302 28 216.302 27.636V20.426H217.59V27.972C217.59 28.882 217.142 29.344 216.246 29.344ZM214.02 22.232L215.21 22.568C214.72 24.5 214.09 26.18 213.306 27.636L212.06 27.188C212.802 25.886 213.46 24.234 214.02 22.232ZM233.816 23.058H225.136V26.908C225.136 27.44 225.402 27.706 225.934 27.706H232.92C233.172 27.706 233.41 27.622 233.606 27.454C233.83 27.244 233.97 26.404 234.054 24.934L235.356 25.354C235.188 27.118 234.95 28.168 234.656 28.49C234.32 28.798 233.872 28.966 233.298 28.994H225.57C224.38 28.994 223.792 28.378 223.792 27.146V19.866H225.136V21.784H232.458V18.452H223.218V17.178H233.816V23.058ZM247.382 29.358H246.514L246.234 28.308C246.01 28.448 245.702 28.532 245.324 28.532H244.4C243.672 28.532 243.322 28.112 243.322 27.286V25.27H242.496C242.3 26.894 241.348 28.07 239.612 28.826L238.926 27.734C240.354 27.23 241.166 26.418 241.348 25.27H240.018V21.308H241.586C241.25 20.664 240.886 20.104 240.508 19.628L241.614 19.096C241.978 19.6 242.342 20.174 242.678 20.79L241.656 21.308H243.322C243.686 20.566 244.022 19.782 244.302 18.942L245.562 19.376C245.254 20.09 244.932 20.734 244.596 21.308H245.898V25.27H244.484V27.034C244.484 27.244 244.582 27.356 244.778 27.356H245.114C245.282 27.356 245.408 27.3 245.492 27.188C245.604 27.062 245.674 26.698 245.702 26.082L246.836 26.446C246.752 27.328 246.626 27.888 246.43 28.14L247.102 28.168C247.368 28.168 247.508 27.972 247.508 27.58V18.298H242.202V17.066H248.81V27.958C248.81 28.882 248.334 29.358 247.382 29.358ZM244.694 24.192V22.386H241.222V24.192H244.694ZM237.148 18.816H238.45V29.442H237.148V18.816ZM239.542 16.394C240.102 17.066 240.606 17.794 241.026 18.592L239.85 19.208C239.388 18.354 238.884 17.598 238.338 16.926L239.542 16.394ZM255.516 17.332H258.582V16.408H259.884V17.332H262.936V18.536H259.884V19.488H263.202V20.328C262.964 21.224 262.656 22.106 262.278 22.988L260.99 22.624C261.298 22.064 261.564 21.434 261.788 20.72H254.942V19.488H258.582V18.536H255.516V17.332ZM254.956 24.528H256.944C256.314 23.982 255.67 23.548 255.026 23.212L255.656 22.288C256.412 22.652 257.112 23.1 257.742 23.632L257.154 24.528H258.862C258.918 24.248 258.946 23.954 258.96 23.66V21.07H260.248V23.66C260.234 23.968 260.206 24.248 260.178 24.528H263.426V25.76H259.912C259.87 25.886 259.828 25.998 259.786 26.11C261.158 26.754 262.404 27.524 263.552 28.392L262.81 29.526C261.648 28.546 260.472 27.734 259.268 27.118C259.184 27.23 259.114 27.342 259.03 27.454C258.302 28.35 257.112 29.036 255.474 29.512L254.76 28.406C256.356 27.93 257.448 27.342 258.022 26.628C258.218 26.362 258.372 26.068 258.512 25.76H254.956V24.528ZM256.832 20.874C257.532 21.21 258.19 21.63 258.778 22.12L258.148 23.072C257.532 22.512 256.888 22.078 256.23 21.756L256.832 20.874ZM252.436 16.632C253.332 17.318 254.088 18.004 254.718 18.69L253.808 19.614C253.262 18.97 252.492 18.27 251.498 17.542L252.436 16.632ZM250.532 20.692H253.696V26.432C253.976 26.138 254.27 25.83 254.578 25.494L254.942 26.894C254.186 27.692 253.402 28.406 252.562 29.022L252.058 27.832C252.282 27.636 252.408 27.398 252.408 27.118V21.966H250.532V20.692Z" fill="#E7E7E7"/>
<path d="M213.321 59.336H216.247V75H212.529V65.21H208.877V62.68L209.229 62.658C210.388 62.5847 211.297 62.2987 211.957 61.8C212.617 61.2867 213.072 60.4653 213.321 59.336ZM222.323 59.336H225.249V75H221.531V65.21H217.879V62.68L218.231 62.658C219.39 62.5847 220.299 62.2987 220.959 61.8C221.619 61.2867 222.074 60.4653 222.323 59.336ZM238.867 73.218C237.753 74.6407 236.096 75.352 233.896 75.352C231.696 75.352 230.038 74.6407 228.924 73.218C227.78 71.81 227.208 69.7933 227.208 67.168C227.208 64.5573 227.78 62.5333 228.924 61.096C230.053 59.688 231.71 58.984 233.896 58.984C236.081 58.984 237.738 59.688 238.867 61.096C239.997 62.5333 240.562 64.5573 240.562 67.168C240.562 69.7787 239.997 71.7953 238.867 73.218ZM231.784 71.062C232.238 71.8687 232.942 72.272 233.896 72.272C234.849 72.272 235.553 71.8687 236.008 71.062C236.462 70.2847 236.69 68.9867 236.69 67.168C236.69 65.3933 236.455 64.1027 235.986 63.296C235.531 62.4747 234.834 62.064 233.896 62.064C232.942 62.064 232.231 62.4747 231.762 63.296C231.307 64.1027 231.08 65.3933 231.08 67.168C231.08 68.9573 231.314 70.2553 231.784 71.062ZM245.474 75H241.602V71.216H245.474V75ZM251.023 71.92H258.943V75H246.843L246.931 73.614C246.99 72.558 247.159 71.6413 247.437 70.864C247.643 70.336 247.892 69.8667 248.185 69.456C248.933 68.5027 250.048 67.7327 251.529 67.146L252.761 66.596C253.612 66.244 254.213 65.8773 254.565 65.496C254.932 65.1 255.115 64.6087 255.115 64.022C255.115 63.3913 254.925 62.9073 254.543 62.57C254.162 62.2327 253.619 62.064 252.915 62.064C251.346 62.064 250.561 62.9 250.561 64.572H247.019C247.005 62.812 247.503 61.4407 248.515 60.458C249.527 59.4753 251.023 58.984 253.003 58.984C254.807 58.984 256.23 59.424 257.271 60.304C258.298 61.184 258.811 62.306 258.811 63.67C258.811 65.0193 258.452 66.0973 257.733 66.904C257 67.7253 255.856 68.488 254.301 69.192L253.003 69.808C252.314 70.1307 251.823 70.446 251.529 70.754C251.251 71.0473 251.082 71.436 251.023 71.92Z" fill="url(#paint2_linear_4199_57913)"/>
<path d="M270.23 74.288H268.172L267.85 72.902C268.522 72.958 269.138 73 269.726 73C270.258 73 270.538 72.72 270.538 72.174V61.73H271.924V72.524C271.924 73.7 271.35 74.288 270.23 74.288ZM266.772 64.978L268.102 65.51C267.458 68.268 266.604 70.382 265.554 71.838L264.392 70.816C265.456 69.36 266.254 67.414 266.772 64.978ZM275.2 64.628C276.208 67.092 276.992 69.234 277.538 71.082L276.334 71.908C275.746 69.962 274.962 67.792 273.982 65.384L275.2 64.628ZM283.278 62.486V72.972H281.99V72.104H280.31V73.308H279.008V62.486H283.278ZM280.31 70.872H281.99V67.834H280.31V70.872ZM280.31 66.588H281.99V63.69H280.31V66.588ZM285.378 66.714C286.232 68.016 286.89 69.15 287.338 70.13L286.232 70.9C285.742 69.864 285.084 68.688 284.272 67.4L285.378 66.714ZM288.43 74.302H285.952L285.658 73.014C286.47 73.056 287.24 73.084 287.982 73.084C288.318 73.084 288.486 72.902 288.486 72.538V65.258H283.824V63.984H288.486V61.632H289.844V63.984H291.412V65.258H289.844V72.874C289.844 73.826 289.368 74.302 288.43 74.302Z" fill="#E7E7E7"/>
<path d="M322.843 66.64C323.694 66.948 324.354 67.432 324.823 68.092C325.307 68.752 325.549 69.5367 325.549 70.446C325.549 71.898 324.999 73.0787 323.899 73.988C322.784 74.8973 321.266 75.352 319.345 75.352C317.204 75.352 315.576 74.846 314.461 73.834C313.346 72.822 312.789 71.3847 312.789 69.522H316.353C316.368 70.49 316.602 71.194 317.057 71.634C317.526 72.0593 318.245 72.272 319.213 72.272C320.005 72.272 320.621 72.096 321.061 71.744C321.501 71.3773 321.721 70.886 321.721 70.27C321.721 68.862 320.841 68.158 319.081 68.158H317.915V65.54H319.147C320.746 65.54 321.545 64.9167 321.545 63.67C321.545 63.1273 321.347 62.6947 320.951 62.372C320.555 62.0493 319.99 61.888 319.257 61.888C318.465 61.888 317.864 62.064 317.453 62.416C317.057 62.7533 316.83 63.296 316.771 64.044H313.207C313.324 60.6707 315.348 58.984 319.279 58.984C321.083 58.984 322.498 59.3727 323.525 60.15C324.566 60.9273 325.087 61.9833 325.087 63.318C325.087 64.0367 324.882 64.6893 324.471 65.276C324.075 65.8627 323.532 66.3173 322.843 66.64ZM338.5 73.218C337.386 74.6407 335.728 75.352 333.528 75.352C331.328 75.352 329.671 74.6407 328.556 73.218C327.412 71.81 326.84 69.7933 326.84 67.168C326.84 64.5573 327.412 62.5333 328.556 61.096C329.686 59.688 331.343 58.984 333.528 58.984C335.714 58.984 337.371 59.688 338.5 61.096C339.63 62.5333 340.194 64.5573 340.194 67.168C340.194 69.7787 339.63 71.7953 338.5 73.218ZM331.416 71.062C331.871 71.8687 332.575 72.272 333.528 72.272C334.482 72.272 335.186 71.8687 335.64 71.062C336.095 70.2847 336.322 68.9867 336.322 67.168C336.322 65.3933 336.088 64.1027 335.618 63.296C335.164 62.4747 334.467 62.064 333.528 62.064C332.575 62.064 331.864 62.4747 331.394 63.296C330.94 64.1027 330.712 65.3933 330.712 67.168C330.712 68.9573 330.947 70.2553 331.416 71.062Z" fill="url(#paint3_linear_4199_57913)"/>
<path d="M346.064 66.364H351.034C351.188 65.482 351.3 64.516 351.356 63.466H346.428V62.192H357.572V63.466H352.7C352.63 64.53 352.518 65.496 352.378 66.364H357.978V67.638H353.008C353.988 70.144 355.794 72.076 358.44 73.434L357.614 74.512C354.884 73.028 353.008 70.928 351.972 68.226C351.748 69.01 351.496 69.668 351.188 70.2C350.25 71.866 348.654 73.308 346.414 74.526L345.574 73.434C347.618 72.37 349.074 71.124 349.942 69.668C350.264 69.122 350.53 68.45 350.754 67.638H346.064V66.364Z" fill="#E7E7E7"/>
<defs>
<linearGradient id="paint0_linear_4199_57913" x1="173" y1="57" x2="110" y2="46" gradientUnits="userSpaceOnUse">
<stop stop-color="#EFB550"/>
<stop offset="0.518075" stop-color="#D7942B"/>
<stop offset="1" stop-color="#B68A33"/>
</linearGradient>
<linearGradient id="paint1_linear_4199_57913" x1="63.9367" y1="75.2727" x2="26.5829" y2="68.1422" gradientUnits="userSpaceOnUse">
<stop stop-color="#EFB550"/>
<stop offset="0.518075" stop-color="#D7942B"/>
<stop offset="1" stop-color="#B68A33"/>
</linearGradient>
<linearGradient id="paint2_linear_4199_57913" x1="255.392" y1="73" x2="213.217" y2="68.1528" gradientUnits="userSpaceOnUse">
<stop stop-color="#EFB550"/>
<stop offset="0.518075" stop-color="#D7942B"/>
<stop offset="1" stop-color="#B68A33"/>
</linearGradient>
<linearGradient id="paint3_linear_4199_57913" x1="338.43" y1="73" x2="314.696" y2="71.4788" gradientUnits="userSpaceOnUse">
<stop stop-color="#EFB550"/>
<stop offset="0.518075" stop-color="#D7942B"/>
<stop offset="1" stop-color="#B68A33"/>
</linearGradient>
</defs>
</svg>
