<svg width="20" height="20" viewBox="0 0 20 20" fill="none" xmlns="http://www.w3.org/2000/svg">
<path d="M10 20C4.47715 20 0 15.5228 0 10C0 4.47715 4.47715 0 10 0C15.5228 0 20 4.47715 20 10C20 15.5228 15.5228 20 10 20ZM15.5556 8.3744C15.5535 8.00566 15.4077 7.65225 15.1492 7.38938C15.0199 7.25994 14.8663 7.15696 14.6973 7.08691C14.5282 7.01685 14.3469 6.98059 14.1639 6.98059C13.9808 6.98059 13.7996 7.01685 13.6305 7.08691C13.4615 7.15696 13.3079 7.25994 13.1786 7.38938C13.0454 7.51581 12.9403 7.66879 12.8703 7.83856C12.8003 8.00833 12.7669 8.19095 12.7722 8.3744C12.7691 8.55774 12.8036 8.73965 12.8735 8.90902C12.9434 9.07838 13.0472 9.23173 13.1786 9.35938C13.2269 9.41831 13.2853 9.46826 13.3508 9.50719C13.1169 9.74281 12.813 9.89652 12.4846 9.94531C12.1561 9.9941 11.8207 9.93554 11.5283 9.77813C11.075 9.53125 10.7319 9.12208 10.5678 8.63281C10.5551 8.29739 10.5882 7.96197 10.6661 7.63562C10.8865 7.51424 11.0702 7.33604 11.198 7.11933C11.3258 6.90263 11.3931 6.6557 11.3928 6.40422C11.3938 6.22121 11.3583 6.03993 11.2886 5.87082C11.2188 5.7017 11.1161 5.54824 10.9864 5.41922C10.8588 5.28656 10.7058 5.18114 10.5365 5.10904C10.3672 5.03694 10.1851 4.99976 10.0011 4.99976C9.81706 4.99976 9.63502 5.03694 9.46572 5.10904C9.29641 5.18114 9.14339 5.28656 9.01578 5.41922C8.75623 5.68132 8.61023 6.03524 8.60938 6.40422C8.61139 6.77296 8.75718 7.12649 9.01578 7.38938C9.12578 7.49312 9.25031 7.58031 9.38531 7.64781C9.46898 7.95651 9.49422 8.27812 9.45938 8.59609C9.29648 9.09599 8.94828 9.51448 8.48641 9.76562C8.18672 9.92254 7.84464 9.97972 7.51012 9.92883C7.17559 9.87795 6.86609 9.72152 6.62672 9.4825C6.80953 9.35273 6.95852 9.18103 7.06137 8.98183C7.16422 8.78263 7.21794 8.56174 7.21781 8.3375C7.20812 7.97701 7.05897 7.63435 6.80172 7.38175C6.54447 7.12914 6.19924 6.98621 5.83859 6.98312C5.46985 6.98514 5.11632 7.13093 4.85328 7.38938C4.72384 7.51873 4.62086 7.67224 4.55081 7.84121C4.48075 8.01018 4.44449 8.19138 4.44453 8.3744C4.44453 8.55742 4.48075 8.73862 4.55081 8.90766C4.62086 9.0767 4.72384 9.23017 4.85328 9.35938C5.02039 9.52836 5.22816 9.65133 5.45672 9.71641L6.61437 14.5431C6.64434 14.6614 6.71245 14.7666 6.80812 14.8423C6.90379 14.918 7.02191 14.9599 7.14391 14.9617H12.8583C12.981 14.9622 13.1002 14.921 13.1964 14.845C13.2926 14.7689 13.3602 14.6625 13.3881 14.5431L14.5456 9.71641C14.8361 9.63148 15.0914 9.45504 15.2734 9.21316C15.4554 8.97128 15.5544 8.67714 15.5556 8.3744Z" fill="white"/>
</svg>
