<svg width="252.33399999999997" height="252.33399999999997" viewBox="115.333 115.333 252.33399999999997 252.33399999999997" fill="none" xmlns="http://www.w3.org/2000/svg">
<path d="M350.2 129.866V120.267C350.2 119.489 350.509 118.742 351.06 118.192C351.61 117.642 352.356 117.333 353.134 117.333H356.333C356.775 117.333 357.134 117.692 357.134 118.134C357.134 118.575 356.775 118.934 356.333 118.934H353.134C352.78 118.934 352.44 119.074 352.19 119.324C351.941 119.574 351.8 119.913 351.8 120.267V129.866C351.8 130.22 351.94 130.56 352.19 130.81C352.44 131.06 352.78 131.2 353.134 131.2H362.733C363.087 131.2 363.426 131.059 363.676 130.81C363.926 130.56 364.066 130.22 364.066 129.866V126.667C364.066 126.225 364.425 125.866 364.866 125.866C365.308 125.866 365.667 126.225 365.667 126.667V129.866C365.667 130.644 365.358 131.39 364.808 131.94C364.258 132.491 363.511 132.8 362.733 132.8H353.134C352.356 132.8 351.61 132.491 351.06 131.94C350.509 131.39 350.2 130.644 350.2 129.866ZM365.2 120.2C365.2 119.564 364.947 118.953 364.497 118.503C364.047 118.053 363.436 117.8 362.8 117.8C362.163 117.8 361.553 118.053 361.103 118.503C360.653 118.953 360.4 119.564 360.4 120.2C360.4 120.837 360.652 121.447 361.103 121.897C361.553 122.348 362.163 122.6 362.8 122.6C363.436 122.6 364.047 122.347 364.497 121.897C364.947 121.447 365.2 120.837 365.2 120.2Z" fill="#E7E7E7" />
</svg>