<svg width="24" height="24" viewBox="0 0 24 24" fill="none" xmlns="http://www.w3.org/2000/svg">
<path d="M12 2C12.2652 2 12.5196 2.10536 12.7071 2.29289L16.7071 6.29289C17.0976 6.68342 17.0976 7.31658 16.7071 7.70711C16.3166 8.09763 15.6834 8.09763 15.2929 7.70711L13 5.41421V15C13 15.5523 12.5523 16 12 16C11.4477 16 11 15.5523 11 15V5.41421L8.70711 7.70711C8.31658 8.09763 7.68342 8.09763 7.29289 7.70711C6.90237 7.31658 6.90237 6.68342 7.29289 6.29289L11.2929 2.29289C11.4804 2.10536 11.7348 2 12 2Z" fill="#FFFFFF"/>
<path d="M5 11C5.55228 11 6 11.4477 6 12V19C6 19.5523 6.44772 20 7 20H17C17.5523 20 18 19.5523 18 19V12C18 11.4477 18.4477 11 19 11C19.5523 11 20 11.4477 20 12V19C20 20.6569 18.6569 22 17 22H7C5.34315 22 4 20.6569 4 19V12C4 11.4477 4.44772 11 5 11Z" fill="#FFFFFF"/>
</svg>
