<svg width="16.0" height="16.0" viewBox="27.0 115.0 16.0 16.0" fill="none" xmlns="http://www.w3.org/2000/svg">
<path d="M41 129L38.1047 126.105M38.1047 126.105C38.6 125.609 38.9928 125.021 39.2608 124.374C39.5289 123.727 39.6668 123.034 39.6668 122.333C39.6668 121.633 39.5289 120.939 39.2608 120.292C38.9928 119.645 38.6 119.057 38.1047 118.562C37.6094 118.067 37.0215 117.674 36.3744 117.406C35.7273 117.138 35.0338 117 34.3334 117C33.633 117 32.9395 117.138 32.2924 117.406C31.6453 117.674 31.0574 118.067 30.5621 118.562C29.5619 119.562 29 120.919 29 122.333C29 123.748 29.5619 125.104 30.5621 126.105C31.5623 127.105 32.9189 127.667 34.3334 127.667C35.7479 127.667 37.1045 127.105 38.1047 126.105Z" fill="none" stroke="#B9BABB" stroke-width="1.3" stroke-linecap="round" stroke-linejoin="round"/>
</svg>