<svg width="24" height="24" viewBox="0 0 24 24" fill="none" xmlns="http://www.w3.org/2000/svg">
  <circle cx="12" cy="12" r="3" stroke="#666666" stroke-width="1.5"/>
  <path d="M19.4 15C19.2 15.3 19.1 15.7 19.2 16.1L19.6 17.8C19.7 18.4 19.4 19 18.9 19.3L17.1 20.3C16.6 20.6 16 20.5 15.6 20.1L14.4 18.9C14.1 18.6 13.6 18.5 13.2 18.5H10.8C10.4 18.5 9.9 18.7 9.6 18.9L8.4 20.1C8 20.5 7.4 20.6 6.9 20.3L5.1 19.3C4.6 19 4.3 18.4 4.4 17.8L4.8 16.1C4.9 15.7 4.8 15.3 4.6 15L3.4 13.2C3.1 12.7 3.1 12.1 3.4 11.6L4.6 9.8C4.8 9.5 4.9 9.1 4.8 8.7L4.4 7C4.3 6.4 4.6 5.8 5.1 5.5L6.9 4.5C7.4 4.2 8 4.3 8.4 4.7L9.6 5.9C9.9 6.2 10.4 6.3 10.8 6.3H13.2C13.6 6.3 14.1 6.1 14.4 5.9L15.6 4.7C16 4.3 16.6 4.2 17.1 4.5L18.9 5.5C19.4 5.8 19.7 6.4 19.6 7L19.2 8.7C19.1 9.1 19.2 9.5 19.4 9.8L20.6 11.6C20.9 12.1 20.9 12.7 20.6 13.2L19.4 15Z" stroke="#666666" stroke-width="1.5"/>
</svg>
