<svg width="658.8979999999999" height="658.8489999999999" viewBox="135.3 135.3 658.8979999999999 658.8489999999999" fill="none" xmlns="http://www.w3.org/2000/svg">
<path d="M147.049 777.33L146.361 777.629C146.48 777.903 146.75 778.08 147.049 778.08C147.347 778.08 147.618 777.903 147.737 777.629L147.049 777.33ZM156.048 776.5H156.798H156.048ZM156.048 786.911L156.798 786.911V786.911H156.048ZM151.058 788.36V787.61H151.058L151.058 788.36ZM147.484 791.115L148.209 791.307L148.21 791.306L147.484 791.115ZM147.472 791.147L148.18 791.395L148.18 791.394L147.472 791.147ZM147.465 791.168L146.77 790.886L146.769 790.887L147.465 791.168ZM147.438 791.222L148.09 791.594L148.09 791.593L147.438 791.222ZM147.426 791.242L146.795 790.836L146.795 790.836L147.426 791.242ZM147.396 791.281L146.814 790.808L146.814 790.809L147.396 791.281ZM147.376 791.306L147.923 791.819L147.924 791.818L147.376 791.306ZM147.341 791.34L146.853 790.77L146.852 790.771L147.341 791.34ZM147.313 791.361L147.756 791.967L147.757 791.966L147.313 791.361ZM147.284 791.381L146.891 790.742L146.889 790.743L147.284 791.381ZM147.245 791.403L147.573 792.078L147.574 792.078L147.245 791.403ZM147.203 791.421L146.945 790.717L146.945 790.717L147.203 791.421ZM147.175 791.43L147.386 792.149H147.386L147.175 791.43ZM147.128 791.44L146.996 790.702L146.995 790.702L147.128 791.44ZM147.106 791.446L147.202 792.19L147.203 792.19L147.106 791.446ZM147.09 791.446L147.158 792.193L147.159 792.193L147.09 791.446ZM147.049 791.448L147.05 790.698L147.048 790.698L147.049 791.448ZM147.007 791.446L146.936 792.193L146.937 792.193L147.007 791.446ZM146.991 791.446L146.895 792.19L146.895 792.19L146.991 791.446ZM146.969 791.44L147.103 790.703L147.103 790.702L146.969 791.44ZM146.922 791.43L146.71 792.149L146.71 792.149L146.922 791.43ZM146.894 791.421L147.153 790.717L147.153 790.717L146.894 791.421ZM146.852 791.403L146.522 792.077L146.522 792.077L146.852 791.403ZM146.812 791.381L147.208 790.744L147.207 790.743L146.812 791.381ZM146.783 791.361L146.339 791.965L146.34 791.966L146.783 791.361ZM146.756 791.34L147.246 790.772L147.244 790.771L146.756 791.34ZM146.721 791.306L146.172 791.817L146.173 791.818L146.721 791.306ZM146.7 791.281L147.284 790.81L147.283 790.809L146.7 791.281ZM146.671 791.242L147.302 790.837L147.302 790.837L146.671 791.242ZM146.658 791.222L146.006 791.592L146.006 791.593L146.658 791.222ZM146.632 791.168L147.328 790.888L147.327 790.887L146.632 791.168ZM146.625 791.147L145.917 791.394L145.917 791.395L146.625 791.147ZM146.613 791.115L145.888 791.306L145.888 791.307L146.613 791.115ZM143.04 788.36L143.04 787.61H143.04V788.36ZM139.388 788.36L139.388 789.11H139.388V788.36ZM138.05 787.022H137.3V787.023L138.05 787.022ZM138.05 776.5H137.3H138.05ZM142.049 774.05V774.8C143.978 774.8 145.637 775.963 146.361 777.629L147.049 777.33L147.737 777.031C146.783 774.837 144.597 773.3 142.049 773.3V774.05ZM147.049 777.33L147.737 777.629C148.461 775.963 150.12 774.8 152.049 774.8V774.05V773.3C149.501 773.3 147.314 774.837 146.361 777.031L147.049 777.33ZM152.049 774.05V774.8H153.598V774.05V773.3H152.049V774.05ZM153.598 774.05V774.8C154.537 774.8 155.298 775.561 155.298 776.5H156.048H156.798C156.798 774.733 155.365 773.3 153.598 773.3V774.05ZM156.048 776.5H155.298V786.911H156.048H156.798V776.5H156.048ZM156.048 786.911L155.298 786.911C155.298 787.297 154.984 787.61 154.598 787.61V788.36V789.11C155.812 789.11 156.797 788.126 156.798 786.911L156.048 786.911ZM154.598 788.36V787.61H151.058V788.36V789.11H154.598V788.36ZM151.058 788.36L151.058 787.61C149.038 787.611 147.274 788.972 146.759 790.924L147.484 791.115L148.21 791.306C148.551 790.012 149.72 789.11 151.058 789.11L151.058 788.36ZM147.484 791.115L146.759 790.923C146.767 790.894 146.775 790.87 146.781 790.855C146.784 790.848 146.787 790.841 146.789 790.837C146.79 790.833 146.792 790.83 146.792 790.829C146.792 790.829 146.792 790.829 146.792 790.829C146.792 790.829 146.791 790.831 146.791 790.832C146.79 790.834 146.788 790.839 146.785 790.844C146.781 790.855 146.772 790.875 146.763 790.901L147.472 791.147L148.18 791.394C148.173 791.414 148.167 791.429 148.164 791.435C148.163 791.438 148.162 791.44 148.162 791.439C148.163 791.439 148.162 791.439 148.163 791.438C148.163 791.437 148.164 791.435 148.165 791.434C148.167 791.427 148.174 791.412 148.182 791.392C148.19 791.371 148.2 791.342 148.209 791.307L147.484 791.115ZM147.472 791.147L146.764 790.9C146.759 790.912 146.756 790.922 146.755 790.928C146.754 790.93 146.753 790.933 146.753 790.934C146.752 790.935 146.752 790.935 146.752 790.935C146.753 790.934 146.754 790.928 146.757 790.921C146.76 790.913 146.764 790.901 146.77 790.886L147.465 791.168L148.16 791.45C148.167 791.432 148.173 791.417 148.177 791.405C148.18 791.394 148.183 791.385 148.184 791.381C148.185 791.379 148.186 791.377 148.186 791.377C148.186 791.376 148.186 791.377 148.185 791.378C148.185 791.38 148.183 791.386 148.18 791.395L147.472 791.147ZM147.465 791.168L146.769 790.887C146.777 790.867 146.785 790.854 146.787 790.85L147.438 791.222L148.09 791.593C148.112 791.555 148.137 791.506 148.16 791.449L147.465 791.168ZM147.438 791.222L146.787 790.85C146.792 790.842 146.795 790.837 146.796 790.834C146.797 790.833 146.797 790.833 146.797 790.833C146.797 790.833 146.797 790.834 146.795 790.836L147.426 791.242L148.056 791.648C148.059 791.644 148.074 791.621 148.09 791.594L147.438 791.222ZM147.426 791.242L146.795 790.836C146.805 790.822 146.812 790.811 146.815 790.807C146.817 790.805 146.818 790.804 146.818 790.804C146.817 790.805 146.817 790.806 146.814 790.808L147.396 791.281L147.979 791.754C147.987 791.744 148.022 791.701 148.056 791.648L147.426 791.242ZM147.396 791.281L146.814 790.809C146.812 790.811 146.811 790.813 146.81 790.814C146.809 790.815 146.808 790.816 146.808 790.817C146.807 790.818 146.807 790.818 146.808 790.816C146.81 790.814 146.817 790.805 146.828 790.793L147.376 791.306L147.924 791.818C147.942 791.798 147.956 791.781 147.965 791.771C147.969 791.766 147.973 791.761 147.975 791.758C147.978 791.754 147.978 791.755 147.979 791.753L147.396 791.281ZM147.376 791.306L146.829 790.793C146.826 790.795 146.836 790.785 146.853 790.77L147.341 791.34L147.829 791.91C147.871 791.874 147.903 791.84 147.923 791.819L147.376 791.306ZM147.341 791.34L146.852 790.771C146.863 790.761 146.871 790.756 146.87 790.757L147.313 791.361L147.757 791.966C147.775 791.953 147.801 791.934 147.83 791.909L147.341 791.34ZM147.313 791.361L146.871 790.756C146.881 790.748 146.889 790.744 146.891 790.742L147.284 791.381L147.678 792.019C147.7 792.006 147.726 791.988 147.756 791.967L147.313 791.361ZM147.284 791.381L146.889 790.743C146.885 790.746 146.884 790.746 146.883 790.747C146.882 790.748 146.883 790.747 146.885 790.746C146.889 790.743 146.901 790.737 146.917 790.729L147.245 791.403L147.574 792.078C147.628 792.051 147.674 792.022 147.679 792.019L147.284 791.381ZM147.245 791.403L146.917 790.729C146.933 790.721 146.944 790.717 146.945 790.717L147.203 791.421L147.461 792.125C147.491 792.114 147.53 792.099 147.573 792.078L147.245 791.403ZM147.203 791.421L146.945 790.717C146.96 790.711 146.97 790.708 146.973 790.707C146.974 790.707 146.975 790.707 146.973 790.707C146.972 790.708 146.972 790.708 146.97 790.708C146.968 790.709 146.966 790.709 146.964 790.71L147.175 791.43L147.386 792.149C147.387 792.149 147.387 792.149 147.391 792.148C147.394 792.147 147.399 792.146 147.405 792.144C147.417 792.14 147.437 792.134 147.461 792.125L147.203 791.421ZM147.175 791.43L146.964 790.71C146.982 790.705 146.994 790.702 146.996 790.702L147.128 791.44L147.26 792.179C147.293 792.173 147.337 792.164 147.386 792.149L147.175 791.43ZM147.128 791.44L146.995 790.702C146.975 790.706 146.957 790.71 146.943 790.714C146.928 790.717 146.916 790.721 146.906 790.724C146.897 790.726 146.89 790.729 146.885 790.73C146.883 790.731 146.882 790.731 146.881 790.732C146.88 790.732 146.88 790.732 146.88 790.732C146.88 790.732 146.88 790.732 146.88 790.732C146.88 790.732 146.884 790.731 146.889 790.729C146.894 790.727 146.903 790.725 146.913 790.722C146.934 790.716 146.968 790.708 147.01 790.703L147.106 791.446L147.203 792.19C147.249 792.184 147.286 792.175 147.31 792.168C147.333 792.162 147.352 792.156 147.355 792.155C147.359 792.154 147.355 792.155 147.354 792.155C147.352 792.156 147.346 792.158 147.339 792.16C147.325 792.164 147.297 792.172 147.26 792.179L147.128 791.44ZM147.106 791.446L147.01 790.702C147.052 790.697 147.085 790.696 147.106 790.697C147.116 790.697 147.125 790.697 147.13 790.697C147.135 790.697 147.139 790.697 147.139 790.697C147.139 790.697 147.139 790.697 147.139 790.697C147.139 790.697 147.138 790.697 147.138 790.697C147.137 790.697 147.135 790.697 147.133 790.697C147.128 790.697 147.121 790.697 147.111 790.696C147.101 790.696 147.089 790.696 147.074 790.696C147.059 790.697 147.041 790.698 147.021 790.699L147.09 791.446L147.159 792.193C147.122 792.197 147.093 792.196 147.077 792.196C147.069 792.196 147.062 792.196 147.059 792.195C147.057 792.195 147.054 792.195 147.057 792.195C147.059 792.195 147.064 792.196 147.07 792.196C147.077 792.196 147.087 792.196 147.099 792.197C147.122 792.197 147.159 792.196 147.202 792.19L147.106 791.446ZM147.09 791.446L147.022 790.699C147.027 790.699 147.037 790.698 147.05 790.698L147.049 791.448L147.048 792.198C147.089 792.198 147.126 792.196 147.158 792.193L147.09 791.446ZM147.049 791.448L147.048 790.698C147.058 790.698 147.068 790.699 147.077 790.7L147.007 791.446L146.937 792.193C146.974 792.196 147.011 792.198 147.05 792.198L147.049 791.448ZM147.007 791.446L147.077 790.7C147.057 790.698 147.039 790.697 147.024 790.696C147.009 790.696 146.996 790.696 146.986 790.696C146.976 790.697 146.969 790.697 146.964 790.697C146.962 790.697 146.96 790.697 146.959 790.697C146.959 790.697 146.958 790.697 146.958 790.697C146.958 790.697 146.958 790.697 146.958 790.697C146.958 790.697 146.959 790.697 146.96 790.697C146.962 790.697 146.964 790.697 146.967 790.697C146.972 790.697 146.981 790.697 146.991 790.697C147.012 790.696 147.046 790.697 147.087 790.702L146.991 791.446L146.895 792.19C146.939 792.196 146.976 792.197 146.999 792.196C147.011 792.196 147.021 792.196 147.027 792.196C147.034 792.196 147.039 792.195 147.04 792.195C147.043 792.195 147.04 792.195 147.038 792.195C147.035 792.196 147.028 792.196 147.02 792.196C147.004 792.196 146.974 792.197 146.936 792.193L147.007 791.446ZM146.991 791.446L147.088 790.703C147.126 790.707 147.156 790.714 147.175 790.719C147.184 790.722 147.192 790.724 147.197 790.726C147.202 790.727 147.205 790.728 147.205 790.728C147.205 790.728 147.205 790.728 147.205 790.728C147.205 790.728 147.205 790.728 147.205 790.728C147.205 790.728 147.205 790.728 147.205 790.728C147.204 790.728 147.202 790.727 147.2 790.727C147.197 790.726 147.19 790.723 147.182 790.721C147.174 790.719 147.163 790.716 147.15 790.713C147.137 790.709 147.121 790.706 147.103 790.703L146.969 791.44L146.835 792.178C146.803 792.173 146.779 792.166 146.767 792.162C146.76 792.161 146.756 792.159 146.754 792.159C146.754 792.159 146.75 792.157 146.755 792.159C146.758 792.16 146.775 792.165 146.796 792.171C146.819 792.177 146.853 792.185 146.895 792.19L146.991 791.446ZM146.969 791.44L147.103 790.702C147.1 790.702 147.114 790.704 147.134 790.71L146.922 791.43L146.71 792.149C146.761 792.164 146.805 792.173 146.835 792.178L146.969 791.44ZM146.922 791.43L147.134 790.71C147.129 790.709 147.125 790.708 147.123 790.707C147.121 790.707 147.122 790.707 147.123 790.707C147.125 790.708 147.137 790.711 147.153 790.717L146.894 791.421L146.634 792.125C146.659 792.134 146.68 792.14 146.692 792.144C146.698 792.146 146.704 792.147 146.706 792.148C146.708 792.148 146.708 792.149 146.709 792.149C146.71 792.149 146.71 792.149 146.71 792.149L146.922 791.43ZM146.894 791.421L147.153 790.717C147.151 790.716 147.163 790.721 147.181 790.729L146.852 791.403L146.522 792.077C146.568 792.099 146.607 792.115 146.634 792.125L146.894 791.421ZM146.852 791.403L147.181 790.73C147.196 790.737 147.207 790.743 147.211 790.745C147.213 790.747 147.214 790.747 147.214 790.747C147.213 790.747 147.212 790.746 147.208 790.744L146.812 791.381L146.417 792.018C146.425 792.023 146.469 792.051 146.522 792.077L146.852 791.403ZM146.812 791.381L147.207 790.743C147.206 790.743 147.214 790.748 147.226 790.756L146.783 791.361L146.34 791.966C146.371 791.989 146.399 792.007 146.418 792.019L146.812 791.381ZM146.783 791.361L147.228 790.757C147.226 790.756 147.228 790.757 147.231 790.759C147.234 790.762 147.239 790.766 147.246 790.772L146.756 791.34L146.266 791.908C146.296 791.934 146.324 791.954 146.339 791.965L146.783 791.361ZM146.756 791.34L147.244 790.771C147.26 790.784 147.269 790.794 147.268 790.793L146.721 791.306L146.173 791.818C146.195 791.841 146.227 791.874 146.267 791.909L146.756 791.34ZM146.721 791.306L147.269 790.794C147.28 790.805 147.287 790.814 147.288 790.816C147.289 790.817 147.29 790.818 147.289 790.817C147.288 790.816 147.288 790.815 147.287 790.814C147.286 790.813 147.285 790.812 147.284 790.81L146.7 791.281L146.117 791.753C146.12 791.756 146.117 791.753 146.122 791.758C146.124 791.761 146.128 791.766 146.132 791.771C146.141 791.782 146.155 791.798 146.172 791.817L146.721 791.306ZM146.7 791.281L147.283 790.809C147.28 790.806 147.279 790.805 147.279 790.804C147.278 790.804 147.279 790.805 147.281 790.807C147.284 790.811 147.292 790.822 147.302 790.837L146.671 791.242L146.04 791.648C146.075 791.701 146.111 791.745 146.117 791.753L146.7 791.281ZM146.671 791.242L147.302 790.837C147.3 790.834 147.3 790.834 147.299 790.833C147.299 790.833 147.299 790.833 147.3 790.834C147.301 790.836 147.305 790.842 147.31 790.851L146.658 791.222L146.006 791.593C146.022 791.621 146.039 791.646 146.04 791.648L146.671 791.242ZM146.658 791.222L147.31 790.851C147.312 790.853 147.319 790.867 147.328 790.888L146.632 791.168L145.936 791.448C145.96 791.507 145.985 791.555 146.006 791.592L146.658 791.222ZM146.632 791.168L147.327 790.887C147.333 790.901 147.337 790.913 147.34 790.921C147.342 790.928 147.344 790.934 147.344 790.934C147.344 790.935 147.344 790.935 147.344 790.933C147.344 790.932 147.343 790.93 147.342 790.927C147.34 790.922 147.337 790.912 147.333 790.9L146.625 791.147L145.917 791.395C145.914 791.386 145.912 791.38 145.911 791.378C145.911 791.377 145.911 791.376 145.911 791.377C145.911 791.377 145.912 791.379 145.912 791.381C145.914 791.385 145.916 791.394 145.92 791.405C145.924 791.416 145.929 791.432 145.937 791.449L146.632 791.168ZM146.625 791.147L147.333 790.901C147.328 790.885 147.323 790.872 147.32 790.865C147.319 790.862 147.317 790.859 147.317 790.858C147.316 790.856 147.316 790.856 147.317 790.857C147.317 790.858 147.32 790.866 147.324 790.876C147.328 790.887 147.333 790.903 147.338 790.923L146.613 791.115L145.888 791.307C145.901 791.356 145.917 791.395 145.921 791.406C145.922 791.409 145.923 791.412 145.924 791.413C145.924 791.415 145.924 791.415 145.924 791.414C145.923 791.412 145.92 791.405 145.917 791.394L146.625 791.147ZM146.613 791.115L147.339 790.924C146.824 788.972 145.059 787.611 143.04 787.61L143.04 788.36L143.04 789.11C144.377 789.11 145.547 790.012 145.888 791.306L146.613 791.115ZM143.04 788.36V787.61H139.388V788.36V789.11H143.04V788.36ZM139.388 788.36L139.388 787.61C139.063 787.61 138.8 787.347 138.8 787.022L138.05 787.022L137.3 787.023C137.3 788.176 138.234 789.11 139.388 789.11L139.388 788.36ZM138.05 787.022H138.8V776.5H138.05H137.3V787.022H138.05ZM138.05 776.5H138.8C138.8 775.561 139.561 774.8 140.5 774.8V774.05V773.3C138.733 773.3 137.3 774.733 137.3 776.5H138.05ZM140.5 774.05V774.8H142.049V774.05V773.3H140.5V774.05Z" fill="#E7E7E7"/>
</svg>