<svg width="20" height="20" viewBox="135 7 24 22" fill="none" xmlns="http://www.w3.org/2000/svg">
<path d="M147.049 12.8301L146.361 13.129C146.48 13.4029 146.75 13.5801 147.049 13.5801C147.347 13.5801 147.618 13.4029 147.737 13.129L147.049 12.8301ZM156.048 12H156.798H156.048ZM156.048 22.4111L156.798 22.4114V22.4111H156.048ZM151.058 23.8604V23.1104H151.058L151.058 23.8604ZM143.04 23.8604L143.04 23.1104H143.04V23.8604ZM139.388 23.8604L139.388 24.6104H139.388V23.8604ZM138.05 22.5225H137.3V22.5227L138.05 22.5225ZM138.05 12H137.3H138.05ZM142.049 9.5498V10.2998C143.978 10.2998 145.637 11.4627 146.361 13.129L147.049 12.8301L147.737 12.5311C146.783 10.3373 144.597 8.7998 142.049 8.7998V9.5498ZM147.049 12.8301L147.737 13.129C148.461 11.4627 150.12 10.2998 152.049 10.2998V9.5498V8.7998C149.501 8.7998 147.314 10.3373 146.361 12.5311L147.049 12.8301ZM152.049 9.5498V10.2998H153.598V9.5498V8.7998H152.049V9.5498ZM153.598 9.5498V10.2998C154.537 10.2998 155.298 11.0611 155.298 12H156.048H156.798C156.798 10.2327 155.365 8.7998 153.598 8.7998V9.5498ZM156.048 12H155.298V22.4111H156.048H156.798V12H156.048ZM156.048 22.4111L155.298 22.4108C155.298 22.797 154.984 23.1104 154.598 23.1104V23.8604V24.6104C155.812 24.6104 156.797 23.6263 156.798 22.4114L156.048 22.4111ZM154.598 23.8604V23.1104H151.058V23.8604V24.6104H154.598V23.8604ZM143.04 23.8604V23.1104H139.388V23.8604V24.6104H143.04V23.8604ZM139.388 23.8604L139.388 23.1104C139.063 23.1103 138.8 22.8472 138.8 22.5223L138.05 22.5225L137.3 22.5227C137.3 23.6756 138.234 24.6101 139.388 24.6104L139.388 23.8604ZM138.05 22.5225H138.8V12H138.05H137.3V22.5225H138.05ZM138.05 12H138.8C138.8 11.0611 139.561 10.2998 140.5 10.2998V9.5498V8.7998C138.733 8.7998 137.3 10.2327 137.3 12H138.05ZM140.5 9.5498V10.2998H142.049V9.5498V8.7998H140.5V9.5498Z" fill="#1F1F1F"/>
<path d="M147 15.5L147 21.5" stroke="#1F1F1F" stroke-width="1.5" stroke-linecap="round"/>
</svg>
