<svg width="22" height="18" viewBox="231 8 22 20" fill="none" xmlns="http://www.w3.org/2000/svg">
<path d="M240.902 10C243.5 10.0001 245.595 12.0647 245.596 14.5771L245.587 14.8496C245.547 15.4851 245.373 16.1066 245.073 16.6738C244.731 17.3219 244.235 17.8806 243.627 18.3018L242.862 18.8311L243.726 19.1768C245.078 19.7188 246.235 20.6443 247.051 21.834C247.866 23.0235 248.303 24.4239 248.308 25.8574C248.307 25.9258 248.28 25.9932 248.229 26.0439C248.176 26.0953 248.103 26.125 248.026 26.125C247.949 26.1249 247.877 26.0951 247.825 26.0439C247.773 25.9929 247.745 25.9252 247.745 25.8564C247.745 22.1511 244.667 19.1564 240.904 19.1562C237.142 19.1562 234.062 22.151 234.062 25.8564C234.062 25.9252 234.035 25.9929 233.983 26.0439C233.931 26.0953 233.858 26.125 233.781 26.125C233.704 26.125 233.632 26.0951 233.58 26.0439C233.528 25.9932 233.5 25.9258 233.5 25.8574C233.504 24.4245 233.941 23.0243 234.756 21.835C235.571 20.6456 236.727 19.7202 238.079 19.1777L238.941 18.832L238.178 18.3027C237.569 17.8815 237.073 17.3229 236.73 16.6748C236.388 16.0268 236.21 15.3077 236.209 14.5781L236.215 14.3447C236.34 11.9388 238.385 10 240.902 10ZM241.688 10.5527C240.887 10.3992 240.057 10.4834 239.304 10.7949C238.55 11.1066 237.906 11.6327 237.454 12.3066C237.003 12.9806 236.764 13.7722 236.77 14.5811L236.771 14.7891L236.777 14.7959C236.836 15.7964 237.267 16.7425 237.99 17.4502C238.765 18.208 239.812 18.63 240.901 18.6279C241.718 18.6279 242.517 18.3903 243.196 17.9424C243.876 17.4943 244.407 16.8565 244.72 16.1094C245.033 15.3622 245.113 14.5398 244.951 13.7471C244.789 12.9543 244.391 12.2275 243.81 11.6592C243.229 11.0911 242.49 10.7063 241.688 10.5527Z" fill="#E7E7E7" stroke="#E7E7E7"/>
<path d="M246.914 18.4639L246.913 18.4512C246.913 18.4495 246.913 18.4479 246.913 18.4463L246.912 18.4453C246.912 18.4437 246.912 18.4421 246.912 18.4404L246.922 18.3916V18.3838C246.922 18.3819 246.923 18.3799 246.923 18.3779L246.924 18.377C246.941 18.328 246.968 18.2858 247.003 18.2539C247.038 18.222 247.08 18.2016 247.122 18.1924L247.121 18.1914C247.96 18.0159 248.716 17.5607 249.272 16.8984C249.828 16.2358 250.152 15.4035 250.198 14.5332C250.244 13.6628 250.009 12.7992 249.527 12.0791C249.104 11.449 248.513 10.959 247.825 10.667L247.526 10.5537C247.494 10.5434 247.464 10.527 247.438 10.5039C247.411 10.4809 247.389 10.4516 247.372 10.418C247.356 10.3843 247.345 10.3465 247.342 10.3076C247.339 10.2686 247.342 10.2282 247.354 10.1914C247.378 10.1171 247.43 10.06 247.49 10.0283C247.551 9.99657 247.621 9.99132 247.685 10.0127L247.689 10.0146C248.444 10.2615 249.121 10.7168 249.647 11.333C250.172 11.9494 250.526 12.7031 250.667 13.5137C250.808 14.3243 250.731 15.1593 250.446 15.9277C250.16 16.696 249.676 17.3678 249.049 17.8711L248.425 18.3711L249.149 18.7129C250.214 19.2152 251.106 20.043 251.703 21.0869C252.301 22.131 252.573 23.3404 252.483 24.5508C252.475 24.6251 252.441 24.6909 252.392 24.7373C252.342 24.7843 252.279 24.8079 252.217 24.8076H252.185C252.123 24.7996 252.063 24.7688 252.018 24.7148C251.971 24.6579 251.945 24.5815 251.95 24.502C252.056 23.089 251.612 21.6878 250.714 20.6074C249.816 19.5272 248.535 18.8549 247.151 18.7432H247.152C247.145 18.7426 247.138 18.7415 247.132 18.7402L247.092 18.7314L247.072 18.7246L247.071 18.7236L247.057 18.7178L247.042 18.71L247.038 18.707L247.005 18.6836L246.991 18.6709L246.988 18.667L246.976 18.6543L246.955 18.627L246.95 18.6201L246.947 18.6133L246.945 18.6104L246.919 18.5508V18.5488L246.915 18.5273L246.914 18.5176V18.4639Z" fill="#E7E7E7" stroke="#E7E7E7"/>
</svg>
