<svg width="19.807999999999993" height="21.128000000000043" viewBox="231.0 772.0 19.807999999999993 21.128000000000043" fill="none" xmlns="http://www.w3.org/2000/svg">
<path d="M243.912 783.214C244.585 782.747 245.136 782.128 245.516 781.408C245.896 780.689 246.095 779.89 246.096 779.078C246.096 776.279 243.766 774 240.902 774C238.038 774 235.709 776.279 235.709 779.079C235.71 779.891 235.908 780.69 236.288 781.409C236.669 782.129 237.219 782.748 237.893 783.215C236.45 783.794 235.214 784.782 234.343 786.054C233.472 787.326 233.005 788.824 233 790.358C233 790.563 233.082 790.758 233.229 790.903C233.375 791.047 233.574 791.128 233.781 791.128C233.989 791.128 234.187 791.047 234.334 790.903C234.481 790.758 234.563 790.563 234.563 790.358C234.563 786.939 237.407 784.158 240.904 784.158C244.401 784.158 247.245 786.939 247.245 790.358C247.245 790.563 247.328 790.758 247.474 790.903C247.621 791.047 247.819 791.128 248.027 791.128C248.234 791.128 248.433 791.047 248.579 790.903C248.726 790.758 248.808 790.563 248.808 790.358C248.803 788.824 248.335 787.325 247.463 786.053C246.591 784.781 245.355 783.793 243.912 783.214ZM237.269 779.078C237.265 778.37 237.474 777.676 237.87 777.085C238.266 776.494 238.831 776.032 239.494 775.757C240.157 775.483 240.888 775.409 241.595 775.544C242.301 775.679 242.95 776.018 243.46 776.517C243.971 777.016 244.319 777.653 244.461 778.348C244.603 779.042 244.533 779.762 244.259 780.417C243.984 781.072 243.519 781.632 242.921 782.026C242.324 782.42 241.62 782.63 240.901 782.63C239.942 782.632 239.021 782.26 238.34 781.594C237.66 780.928 237.275 780.024 237.27 779.079L237.269 779.078Z" fill="#8E8E8E"/>
</svg>