<svg width="48" height="48" viewBox="0 0 48 48" fill="none" xmlns="http://www.w3.org/2000/svg">
  <path d="M17.5 12C11.701 12 7 16.253 7 21.5C7 24.39 8.583 26.95 11.024 28.573L10 32L14.5 30C15.475 30.32 16.51 30.5 17.5 30.5C17.668 30.5 17.834 30.494 18 30.483C17.683 29.544 17.5 28.541 17.5 27.5C17.5 22.253 22.201 18 28 18C28.515 18 29.02 18.034 29.515 18.098C28.21 14.55 23.223 12 17.5 12Z" fill="#51C332"/>
  <path d="M28 20C23.029 20 19 23.582 19 28C19 32.418 23.029 36 28 36C29.082 36 30.119 35.822 31.085 35.5L35 37L34.101 34.048C36.108 32.567 37.5 30.403 37.5 28C37.5 23.582 32.971 20 28 20Z" fill="#51C332"/>
  <circle cx="14" cy="21" r="1.5" fill="white"/>
  <circle cx="21" cy="21" r="1.5" fill="white"/>
  <circle cx="25" cy="28" r="1.2" fill="white"/>
  <circle cx="31" cy="28" r="1.2" fill="white"/>
</svg>
