<svg width="22" height="22" viewBox="148 357 12 18" fill="none" xmlns="http://www.w3.org/2000/svg">
<path d="M155.062 373.002H153.938C153.788 373.002 153.645 372.943 153.54 372.837C153.434 372.732 153.375 372.589 153.375 372.439C153.375 372.29 153.434 372.147 153.54 372.042C153.645 371.936 153.788 371.877 153.938 371.877H155.062C155.212 371.877 155.355 371.936 155.46 372.042C155.566 372.147 155.625 372.29 155.625 372.439C155.625 372.589 155.566 372.732 155.46 372.837C153.355 372.943 155.212 373.002 155.062 373.002ZM155.344 360.375H153.656C153.507 360.375 153.364 360.316 153.259 360.21C153.153 360.105 153.094 359.962 153.094 359.812C153.094 359.663 153.153 359.52 153.259 359.415C153.364 359.309 153.507 359.25 153.656 359.25H155.344C155.493 359.25 155.636 359.309 155.741 359.415C155.847 359.52 155.906 359.663 155.906 359.812C155.906 359.962 155.847 360.105 155.741 360.21C155.636 360.316 155.493 360.375 155.344 360.375ZM159.844 371.062H149.156C149.007 371.062 148.864 371.003 148.759 370.898C148.653 370.792 148.594 370.649 148.594 370.5C148.594 370.351 148.653 370.208 148.759 370.102C148.864 369.997 149.007 369.938 149.156 369.938H159.844C159.993 369.938 160.136 369.997 160.241 370.102C160.347 370.208 160.406 370.351 160.406 370.5C160.406 370.649 160.347 370.792 160.241 370.898C160.136 371.003 159.993 371.062 159.844 371.062Z" fill="#1F1F1F"/>
<path d="M159.281 375H149.719C149.099 375 148.594 374.496 148.594 373.875V358.125C148.594 357.505 149.099 357 149.719 357H159.281C159.902 357 160.406 357.505 160.406 358.125V373.875C160.406 374.173 160.288 374.46 160.077 374.67C159.866 374.881 159.58 375 159.281 375ZM149.719 358.125V373.875H159.281V358.125H149.719Z" fill="#1F1F1F"/>
</svg>