<svg width="20" height="20" viewBox="137.5 416 20 20" fill="none" xmlns="http://www.w3.org/2000/svg">
<path d="M149.695 426.39C149.699 426.471 149.687 426.551 149.659 426.627C149.631 426.702 149.588 426.771 149.532 426.829C149.477 426.888 149.41 426.934 149.336 426.966C149.262 426.998 149.182 427.014 149.101 427.014C149.021 427.014 148.941 426.998 148.867 426.966C148.793 426.934 148.726 426.888 148.671 426.829C148.615 426.771 148.572 426.702 148.544 426.627C148.516 426.551 148.504 426.471 148.508 426.39C148.515 426.238 148.581 426.094 148.691 425.989C148.802 425.883 148.949 425.825 149.101 425.825C149.254 425.825 149.401 425.883 149.511 425.989C149.622 426.094 149.688 426.238 149.695 426.39ZM153.816 426.39C153.816 426.468 153.801 426.546 153.771 426.618C153.741 426.69 153.697 426.756 153.642 426.811C153.587 426.866 153.521 426.91 153.449 426.94C153.377 426.97 153.3 426.985 153.222 426.985C153.144 426.985 153.066 426.97 152.994 426.94C152.922 426.91 152.856 426.866 152.801 426.811C152.746 426.756 152.702 426.69 152.672 426.618C152.642 426.546 152.627 426.468 152.627 426.39C152.627 426.233 152.69 426.081 152.801 425.97C152.913 425.858 153.064 425.796 153.222 425.796C153.379 425.796 153.531 425.858 153.642 425.97C153.754 426.081 153.816 426.233 153.816 426.39Z" fill="white"/>
<path d="M152.611 433.004L152.5 433.028C152.396 433.05 152.292 433.071 152.188 433.09C151.745 433.17 151.441 433.204 151.116 433.193C148.305 433.1 146.113 431.72 145.236 429.529C145.195 429.423 145.157 429.317 145.121 429.209L145.089 429.107C145.064 429.032 145.043 428.956 145.024 428.879C144.925 428.463 144.873 428.038 144.87 427.611C144.87 424.746 147.5 422.487 150.805 422.339L150.953 422.328C151.085 422.318 151.171 422.314 151.268 422.314H151.515L151.671 422.317C154.823 422.562 157.373 424.941 157.373 427.742C157.373 429.055 156.722 430.351 155.536 431.466C155.497 431.502 155.457 431.538 155.417 431.573L155.584 432.764C155.632 432.918 155.634 433.083 155.589 433.239C155.543 433.394 155.453 433.532 155.33 433.637C155.206 433.741 155.055 433.807 154.894 433.826C154.734 433.845 154.571 433.816 154.427 433.743L152.771 432.965C152.719 432.979 152.666 432.992 152.613 433.004H152.611ZM156.299 427.744C156.299 425.537 154.212 423.390 151.624 423.387H151.268C151.205 423.387 151.139 423.389 151.033 423.397L150.855 423.41C148.077 423.534 145.942 425.371 145.942 427.612C145.942 427.927 145.988 428.297 146.068 428.631C146.078 428.673 146.092 428.726 146.111 428.786L146.139 428.869C146.175 428.979 146.211 429.080 146.233 429.136C146.942 430.907 148.745 432.041 151.153 432.121C151.383 432.129 151.625 432.102 151.997 432.035C152.09 432.018 152.183 432 152.275 431.981L152.37 431.959C152.448 431.940 152.511 431.926 152.694 431.879C152.814 431.849 152.941 431.862 153.053 431.915L154.481 432.587L154.314 431.426C154.299 431.326 154.313 431.223 154.354 431.131C154.396 431.038 154.462 430.959 154.547 430.903C154.567 430.888 154.691 430.787 154.801 430.684C155.785 429.759 156.299 428.734 156.299 427.742V427.744ZM137.717 423.759C137.717 420.297 140.962 417.514 144.916 417.514C148.406 417.514 151.519 419.697 152.15 422.641C152.171 422.741 152.171 422.830 152.158 422.924C152.139 423.061 152.068 423.185 151.96 423.271C151.852 423.356 151.715 423.397 151.577 423.384C151.440 423.371 151.312 423.306 151.222 422.201C151.132 423.097 151.085 422.962 151.092 422.824C150.552 420.425 147.91 418.586 144.916 418.586C141.521 418.586 138.789 420.927 138.789 423.760Z" fill="white"/>
</svg>