<svg width="24" height="24" viewBox="0 0 24 24" fill="none" xmlns="http://www.w3.org/2000/svg">
<path d="M15.062 18.002H13.938C13.788 18.002 13.645 17.943 13.54 17.837C13.434 17.732 13.375 17.589 13.375 17.439C13.375 17.29 13.434 17.147 13.54 17.042C13.645 16.936 13.788 16.877 13.938 16.877H15.062C15.212 16.877 15.355 16.936 15.46 17.042C15.566 17.147 15.625 17.29 15.625 17.439C15.625 17.589 15.566 17.732 15.46 17.837C15.355 17.943 15.212 18.002 15.062 18.002ZM15.344 5.375H13.656C13.507 5.375 13.364 5.316 13.259 5.21C13.153 5.105 13.094 4.962 13.094 4.812C13.094 4.663 13.153 4.52 13.259 4.415C13.364 4.309 13.507 4.25 13.656 4.25H15.344C15.493 4.25 15.636 4.309 15.741 4.415C15.847 4.52 15.906 4.663 15.906 4.812C15.906 4.962 15.847 5.105 15.741 5.21C15.636 5.316 15.493 5.375 15.344 5.375ZM19.844 16.062H9.156C9.007 16.062 8.864 16.003 8.759 15.898C8.653 15.792 8.594 15.649 8.594 15.5C8.594 15.351 8.653 15.208 8.759 15.102C8.864 14.997 9.007 14.938 9.156 14.938H19.844C19.993 14.938 20.136 14.997 20.241 15.102C20.347 15.208 20.406 15.351 20.406 15.5C20.406 15.649 20.347 15.792 20.241 15.898C20.136 16.003 19.993 16.062 19.844 16.062Z" fill="#1F1F1F" transform="translate(-4 -1)"/>
<path d="M19.281 20H9.719C9.099 20 8.594 19.496 8.594 18.875V3.125C8.594 2.505 9.099 2 9.719 2H19.281C19.902 2 20.406 2.505 20.406 3.125V18.875C20.406 19.173 20.288 19.46 20.077 19.67C19.866 19.881 19.58 20 19.281 20ZM9.719 3.125V18.875H19.281V3.125H9.719Z" fill="#1F1F1F" transform="translate(-4 -1)"/>
</svg>