<svg width="24" height="24" viewBox="0 0 24 24" fill="none" xmlns="http://www.w3.org/2000/svg">
<path d="M10.969 11.488C10.972 11.553 10.963 11.617 10.941 11.678C10.918 11.738 10.884 11.793 10.839 11.839C10.795 11.886 10.741 11.923 10.682 11.949C10.623 11.974 10.559 11.987 10.494 11.987C10.43 11.987 10.366 11.974 10.307 11.949C10.248 11.923 10.194 11.886 10.15 11.839C10.105 11.793 10.071 11.738 10.048 11.678C10.026 11.617 10.016 11.553 10.02 11.488C10.025 11.366 10.078 11.251 10.166 11.167C10.255 11.082 10.373 11.036 10.494 11.036C10.617 11.036 10.734 11.082 10.822 11.167C10.911 11.251 10.963 11.366 10.969 11.488ZM14.266 11.488C14.266 11.55 14.254 11.613 14.23 11.67C14.206 11.728 14.171 11.781 14.127 11.825C14.083 11.869 14.03 11.904 13.972 11.928C13.915 11.952 13.853 11.964 13.791 11.964C13.728 11.964 13.666 11.952 13.608 11.928C13.551 11.904 13.498 11.869 13.454 11.825C13.41 11.781 13.375 11.728 13.351 11.67C13.327 11.613 13.315 11.55 13.315 11.488C13.315 11.362 13.365 11.241 13.454 11.152C13.543 11.062 13.664 11.012 13.791 11.012C13.916 11.012 14.038 11.062 14.127 11.152C14.216 11.241 14.266 11.362 14.266 11.488Z" fill="white"/>
<path d="M13.302 16.779L13.213 16.798C13.13 16.816 13.047 16.833 12.964 16.848C12.609 16.912 12.366 16.939 12.106 16.93C9.857 16.856 8.103 15.752 7.401 13.999C7.368 13.914 7.338 13.829 7.309 13.743L7.283 13.661C7.263 13.601 7.246 13.54 7.231 13.479C7.152 13.146 7.11 12.806 7.108 12.464C7.108 10.172 9.212 8.365 11.857 8.247L11.975 8.238C12.081 8.23 12.15 8.227 12.227 8.227H12.425L12.55 8.229C15.071 8.425 17.112 10.329 17.112 12.57C17.112 13.62 16.591 14.657 15.642 15.549C15.611 15.578 15.579 15.607 15.547 15.635L15.681 16.587C15.719 16.711 15.721 16.843 15.685 16.967C15.648 17.091 15.576 17.202 15.478 17.286C15.378 17.369 15.258 17.422 15.129 17.437C15.001 17.452 14.87 17.429 14.755 17.371L13.43 16.748C13.388 16.759 13.346 16.77 13.303 16.779H13.302ZM16.252 12.571C16.252 10.806 14.582 9.248 12.512 9.086H12.227C12.177 9.086 12.124 9.088 12.039 9.094L11.897 9.104C9.674 9.203 7.966 10.673 7.966 12.466C7.966 12.718 8.003 13.014 8.067 13.281C8.075 13.315 8.086 13.357 8.101 13.405L8.124 13.471C8.152 13.559 8.181 13.64 8.199 13.685C8.766 15.102 10.208 16.009 12.135 16.073C12.319 16.079 12.513 16.058 12.81 16.004C12.885 15.991 12.959 15.976 13.033 15.961L13.109 15.943C13.171 15.928 13.222 15.917 13.368 15.879C13.464 15.855 13.566 15.866 13.655 15.908L14.798 16.446L14.664 15.517C14.652 15.437 14.663 15.355 14.696 15.281C14.73 15.207 14.783 15.144 14.851 15.099C14.867 15.087 14.966 15.006 15.054 14.924C15.841 14.184 16.252 13.364 16.252 12.57V12.571Z" fill="white"/>
</svg>