<svg width="24" height="24" viewBox="0 0 24 24" fill="none" xmlns="http://www.w3.org/2000/svg">
<g clip-path="url(#clip0_4406_4816)">
<path d="M9.90234 3.5C12.5005 3.50013 14.5954 5.5647 14.5957 8.07715L14.5869 8.34961C14.5475 8.98506 14.3728 9.60662 14.0732 10.1738C13.7309 10.8219 13.2353 11.3806 12.627 11.8018L11.8623 12.3311L12.7256 12.6768C14.0783 13.2188 15.2353 14.1443 16.0508 15.334C16.8662 16.5235 17.3032 17.9239 17.3076 19.3574C17.3073 19.4258 17.2801 19.4932 17.2285 19.5439C17.1763 19.5953 17.1035 19.625 17.0264 19.625C16.9495 19.6249 16.8773 19.5951 16.8252 19.5439C16.7734 19.4929 16.7452 19.4252 16.7451 19.3564C16.7451 15.6511 13.6665 12.6564 9.9043 12.6562C6.14198 12.6562 3.0625 15.651 3.0625 19.3564C3.0624 19.4252 3.03522 19.4929 2.9834 19.5439C2.9312 19.5953 2.85838 19.625 2.78125 19.625C2.70433 19.625 2.63222 19.5951 2.58008 19.5439C2.52849 19.4932 2.50036 19.4258 2.5 19.3574C2.50434 17.9245 2.94115 16.5243 3.75586 15.335C4.57066 14.1456 5.72726 13.2202 7.0791 12.6777L7.94141 12.332L7.17773 11.8027C6.56933 11.3815 6.07279 10.8229 5.73047 10.1748C5.38822 9.52677 5.20984 8.80769 5.20898 8.07812L5.21484 7.84473C5.34001 5.43883 7.38512 3.5 9.90234 3.5ZM10.6885 4.05273C9.88694 3.89924 9.05705 3.98342 8.30371 4.29492C7.55013 4.60664 6.90567 5.13272 6.4541 5.80664C6.00259 6.4806 5.76401 7.27221 5.76953 8.08105L5.77051 8.28906L5.77734 8.2959C5.83567 9.29643 6.26665 10.2425 6.99023 10.9502C7.76517 11.708 8.81243 12.13 9.90137 12.1279C10.7178 12.1279 11.5166 11.8903 12.1963 11.4424C12.8762 10.9943 13.4069 10.3565 13.7197 9.60938C14.0326 8.86219 14.1134 8.03985 13.9512 7.24707C13.7889 6.45427 13.3907 5.72751 12.8096 5.15918C12.2285 4.59106 11.4901 4.20628 10.6885 4.05273Z" fill="#AAAFBA" stroke="#AAAFBA"/>
<path d="M15.9221 12.126H15.9202C15.9202 12.1217 15.9202 12.1175 15.9202 12.1133C15.9203 12.1173 15.9221 12.1217 15.9221 12.126ZM15.8958 11.6846C15.8968 11.6878 15.8968 11.6912 15.8977 11.6943C15.8962 11.6895 15.8954 11.6845 15.8938 11.6797C15.8943 11.6812 15.8952 11.683 15.8958 11.6846ZM15.9143 11.9639L15.9133 11.9512C15.9132 11.9495 15.9133 11.9479 15.9133 11.9463L15.9124 11.9453C15.9124 11.9437 15.9123 11.9421 15.9124 11.9404L15.9221 11.8916V11.8838C15.9225 11.8819 15.9227 11.8799 15.9231 11.8779L15.9241 11.877C15.9405 11.828 15.968 11.7858 16.0032 11.7539C16.0383 11.722 16.0796 11.7016 16.1223 11.6924L16.1213 11.6914C16.9598 11.5159 17.7159 11.0607 18.2717 10.3984C18.8278 9.73578 19.1524 8.90346 19.1985 8.0332C19.2445 7.1628 19.0091 6.29919 18.5266 5.5791C18.1043 4.94896 17.5129 4.45904 16.8254 4.16699L16.5256 4.05371C16.4944 4.04345 16.4642 4.02701 16.4377 4.00391C16.4113 3.98086 16.3891 3.95158 16.3723 3.91797C16.3555 3.88426 16.3451 3.8465 16.342 3.80762C16.339 3.76859 16.3422 3.72818 16.3538 3.69141C16.3784 3.61706 16.4298 3.55999 16.4905 3.52832C16.5514 3.49657 16.6212 3.49132 16.6848 3.5127L16.6887 3.51465C17.444 3.76149 18.1213 4.21679 18.6467 4.83301C19.1722 5.44942 19.5261 6.20313 19.6672 7.01367C19.8084 7.8243 19.7313 8.65933 19.4456 9.42773C19.1598 10.196 18.6761 10.8678 18.0491 11.3711L17.425 11.8711L18.1487 12.2129C19.2136 12.7152 20.1062 13.543 20.7034 14.5869C21.3005 15.631 21.573 16.8404 21.4827 18.0508C21.475 18.1251 21.4413 18.1909 21.3918 18.2373C21.3417 18.2843 21.2793 18.3079 21.217 18.3076H21.1848C21.1231 18.2996 21.0627 18.2688 21.0178 18.2148C20.9706 18.1579 20.9455 18.0815 20.9504 18.002C21.0562 16.589 20.6124 15.1878 19.7141 14.1074C18.8158 13.0272 17.5348 12.3549 16.1506 12.2432H16.1516C16.1453 12.2426 16.1383 12.2415 16.1321 12.2402L16.092 12.2314L16.0715 12.2246L16.0706 12.2236L16.0569 12.2178L16.0422 12.21L16.0383 12.207L16.0051 12.1836L15.9915 12.1709L15.9875 12.167L15.9758 12.1543L15.9553 12.127L15.9504 12.1201L15.9465 12.1133L15.9446 12.1104L15.9192 12.0508V12.0488L15.9153 12.0273L15.9143 12.0176V11.9639Z" fill="#AAAFBA" stroke="#AAAFBA"/>
<mask id="path-3-inside-1_4406_4816" fill="white">
<path d="M9.92981 3.90918C12.3009 3.90918 14.2237 5.83105 14.2238 8.20215C14.2238 9.86348 13.2791 11.3028 11.8986 12.0166C14.6508 12.9278 16.8444 15.6438 17.6827 19.1338C17.8253 19.7276 17.3549 20.2724 16.7443 20.2725H2.98547C2.37488 20.2722 1.90441 19.7276 2.047 19.1338C2.8933 15.6101 5.12082 12.8749 7.91028 11.9902C6.55778 11.2675 5.63684 9.84279 5.63684 8.20215C5.63688 5.8312 7.55891 3.90942 9.92981 3.90918Z"/>
</mask>
<path d="M9.92981 3.90918C12.3009 3.90918 14.2237 5.83105 14.2238 8.20215C14.2238 9.86348 13.2791 11.3028 11.8986 12.0166C14.6508 12.9278 16.8444 15.6438 17.6827 19.1338C17.8253 19.7276 17.3549 20.2724 16.7443 20.2725H2.98547C2.37488 20.2722 1.90441 19.7276 2.047 19.1338C2.8933 15.6101 5.12082 12.8749 7.91028 11.9902C6.55778 11.2675 5.63684 9.84279 5.63684 8.20215C5.63688 5.8312 7.55891 3.90942 9.92981 3.90918Z" fill="#AAAFBA"/>
<path d="M9.92981 3.90918L9.92981 2.90918L9.92971 2.90918L9.92981 3.90918ZM14.2238 8.20215L15.2238 8.20215L15.2238 8.20213L14.2238 8.20215ZM11.8986 12.0166L11.4393 11.1283L9.32919 12.2194L11.5843 12.9659L11.8986 12.0166ZM17.6827 19.1338L18.6551 18.9003L18.6551 18.9002L17.6827 19.1338ZM16.7443 20.2725L16.7443 21.2725L16.7444 21.2725L16.7443 20.2725ZM2.98547 20.2725L2.98513 21.2725H2.98547V20.2725ZM2.047 19.1338L1.07465 18.9003L1.07464 18.9003L2.047 19.1338ZM7.91028 11.9902L8.21258 12.9434L10.4738 12.2263L8.38158 11.1083L7.91028 11.9902ZM5.63684 8.20215L4.63684 8.20213V8.20215H5.63684ZM9.92981 3.90918V4.90918C11.7489 4.90918 13.2237 6.38362 13.2238 8.20217L14.2238 8.20215L15.2238 8.20213C15.2237 5.27848 12.8529 2.90918 9.92981 2.90918V3.90918ZM14.2238 8.20215H13.2238C13.2238 9.47422 12.5015 10.5791 11.4393 11.1283L11.8986 12.0166L12.3579 12.9049C14.0566 12.0265 15.2238 10.2527 15.2238 8.20215H14.2238ZM11.8986 12.0166L11.5843 12.9659C13.9236 13.7404 15.9297 16.1169 16.7104 19.3673L17.6827 19.1338L18.6551 18.9002C17.7592 15.1706 15.378 12.1151 12.2128 11.0673L11.8986 12.0166ZM17.6827 19.1338L16.7104 19.3673C16.7081 19.3577 16.7069 19.3399 16.7119 19.3201C16.7164 19.302 16.7239 19.2902 16.7291 19.284C16.7388 19.2724 16.7471 19.2725 16.7441 19.2725L16.7443 20.2725L16.7444 21.2725C17.9378 21.2723 18.9633 20.1837 18.6551 18.9003L17.6827 19.1338ZM16.7443 20.2725V19.2725H2.98547V20.2725V21.2725H16.7443V20.2725ZM2.98547 20.2725L2.98582 19.2725C2.98282 19.2725 2.99097 19.2723 3.00064 19.2839C3.00586 19.2901 3.01332 19.3019 3.01784 19.32C3.0228 19.3398 3.02167 19.3576 3.01935 19.3673L2.047 19.1338L1.07464 18.9003C0.766418 20.1838 1.79219 21.272 2.98513 21.2725L2.98547 20.2725ZM2.047 19.1338L3.01935 19.3673C3.80778 16.0846 5.84451 13.6945 8.21258 12.9434L7.91028 11.9902L7.60797 11.037C4.39713 12.0553 1.97883 15.1356 1.07465 18.9003L2.047 19.1338ZM7.91028 11.9902L8.38158 11.1083C7.34106 10.5522 6.63684 9.45872 6.63684 8.20215H5.63684H4.63684C4.63684 10.2269 5.7745 11.9828 7.43898 12.8722L7.91028 11.9902ZM5.63684 8.20215L6.63684 8.20217C6.63687 6.38357 8.11113 4.90937 9.92991 4.90918L9.92981 3.90918L9.92971 2.90918C7.00668 2.90948 4.63689 5.27883 4.63684 8.20213L5.63684 8.20215Z" fill="#AAAFBA" mask="url(#path-3-inside-1_4406_4816)"/>
</g>
<defs>
<clipPath id="clip0_4406_4816">
<rect width="24" height="24" fill="white"/>
</clipPath>
</defs>
</svg>
