<svg width="24" height="24" viewBox="0 0 24 24" fill="none" xmlns="http://www.w3.org/2000/svg">
<path d="M15.044 12.1453C15.7261 11.6822 16.2829 11.0675 16.6676 10.3532C17.0523 9.63878 17.2536 8.84561 17.2546 8.04043C17.2546 5.26151 14.8967 3 11.998 3C9.09936 3 6.74147 5.26247 6.74147 8.04139C6.74241 8.84656 6.94371 9.63974 7.32841 10.3541C7.71311 11.0685 8.26996 11.6831 8.95205 12.1463C7.49179 12.721 6.24138 13.7019 5.35965 14.9643C4.47793 16.2267 4.00467 17.7136 4 19.2363C4 19.4388 4.08333 19.6331 4.23165 19.7763C4.37997 19.9195 4.58114 20 4.7909 20C5.00067 20 5.20184 19.9195 5.35016 19.7763C5.49848 19.6331 5.58181 19.4388 5.58181 19.2363C5.58181 15.8426 8.4607 13.0818 12 13.0818C15.5393 13.0818 18.4182 15.8426 18.4182 19.2363C18.4182 19.4388 18.5015 19.6331 18.6498 19.7763C18.7982 19.9195 18.9993 20 19.2091 20C19.4189 20 19.62 19.9195 19.7684 19.7763C19.9167 19.6331 20 19.4388 20 19.2363C19.9952 17.713 19.5215 16.2255 18.639 14.9629C17.7565 13.7003 16.5052 12.7195 15.044 12.1453ZM8.32131 8.04043C8.31641 7.33745 8.52782 6.64889 8.92873 6.06208C9.32963 5.47527 9.90198 5.01664 10.5732 4.74434C11.2444 4.47203 11.9842 4.39833 12.6989 4.53258C13.4135 4.66682 14.0708 5.00296 14.5873 5.49838C15.1038 5.99379 15.4564 6.62617 15.6002 7.31531C15.7441 8.00445 15.6727 8.71931 15.3953 9.36926C15.1178 10.0192 14.6467 10.5749 14.0417 10.966C13.4367 11.3571 12.7251 11.5659 11.997 11.5659C11.0261 11.5679 10.0939 11.198 9.40501 10.5373C8.71612 9.87654 8.32674 8.97895 8.32229 8.04139L8.32131 8.04043Z" fill="#AAAFBA"/>
</svg>
