<svg width="390" height="80" viewBox="0 0 390 80" fill="none" xmlns="http://www.w3.org/2000/svg">
<rect width="390" height="80" fill="white"/>
<path d="M390 0V1H0V0H390Z" fill="#EEEEEE"/>
<path d="M43.5071 18.405L51.4518 9.60149C51.8067 9.20815 52.4494 9.56461 52.3037 10.074L51.066 14.4001C50.6989 15.6834 51.6679 16.9593 53.0026 16.9502L57.6888 16.9181C58.5646 16.9121 59.0245 17.9552 58.4292 18.5977L50.0555 27.6355C49.7081 28.0105 49.0885 27.6842 49.201 27.1856L50.2555 22.5155C50.538 21.2647 49.5869 20.075 48.3046 20.075H44.2494C43.383 20.075 42.9266 19.0482 43.5071 18.405Z" fill="#AAAFBA" stroke="#AAAFBA" stroke-width="1.2"/>
<path d="M38.481 42.293H50.025V43.359H44.292V47.129C44.63 47.0683 44.851 47.0337 44.955 47.025V48.052C44.6257 48.1127 44.4047 48.156 44.292 48.182V49.404H42.992V48.364C41.9433 48.494 40.496 48.6283 38.65 48.767L38.481 47.623L39.573 47.571V43.359H38.481V42.293ZM40.808 47.493C41.614 47.441 42.342 47.376 42.992 47.298V46.687H40.808V47.493ZM40.808 45.725H42.992V45.01H40.808V45.725ZM40.808 44.048H42.992V43.359H40.808V44.048ZM39.976 37.704H48.595V41.721H39.976V37.704ZM47.295 40.785V40.174H41.263V40.785H47.295ZM41.263 39.264H47.295V38.679H41.263V39.264ZM44.786 45.036V43.944H49.362V44.971C49.154 45.8723 48.777 46.661 48.231 47.337C48.7163 47.675 49.336 47.9957 50.09 48.299L49.401 49.417C48.6123 49.0443 47.9407 48.6413 47.386 48.208C46.8227 48.676 46.138 49.079 45.332 49.417L44.643 48.377C45.3623 48.091 45.9733 47.753 46.476 47.363C45.8433 46.661 45.4143 45.8853 45.189 45.036H44.786ZM47.295 46.557C47.6763 46.0803 47.958 45.5733 48.14 45.036H46.346C46.5453 45.5993 46.8617 46.1063 47.295 46.557ZM63.519 38.627C62.4183 38.991 61.1963 39.212 59.853 39.29V41.305H63.792V42.592H62.596V49.365H61.257V42.592H59.853V43.827C59.7923 46.1237 59.2853 47.961 58.332 49.339L57.357 48.312C58.0937 47.22 58.488 45.725 58.54 43.827V38.185C60.1433 38.159 61.582 37.899 62.856 37.405L63.519 38.627ZM52.001 38.315H54.25C54.094 37.9857 53.925 37.6867 53.743 37.418L55.147 37.184C55.2597 37.418 55.4113 37.795 55.602 38.315H57.968V39.563H52.001V38.315ZM51.871 41.266H53.197C53.041 40.824 52.859 40.4253 52.651 40.07L53.847 39.615C54.029 40.057 54.2153 40.6073 54.406 41.266H55.55C55.7493 40.72 55.9183 40.1697 56.057 39.615L57.266 40.044C57.1013 40.512 56.941 40.9193 56.785 41.266H58.046V42.501H55.693V43.554H57.825V44.789H55.693V48.182C55.693 48.9967 55.2423 49.404 54.341 49.404H53.665L53.366 48.156C53.5913 48.2167 53.769 48.247 53.899 48.247C54.1937 48.247 54.341 48.1213 54.341 47.87V44.789H52.079V43.554H54.341V42.501H51.871V41.266ZM54.029 45.556C53.7257 46.8907 53.3053 48.039 52.768 49.001L51.637 48.286C52.1917 47.35 52.5817 46.3533 52.807 45.296L54.029 45.556ZM57.019 45.218C57.357 46.0933 57.6083 46.8343 57.773 47.441L56.629 47.883C56.4383 47.0943 56.1957 46.3057 55.901 45.517L57.019 45.218Z" fill="#1F1F1F"/>
<path d="M147.049 13.3301L146.361 13.629C146.48 13.9029 146.75 14.0801 147.049 14.0801C147.347 14.0801 147.618 13.9029 147.737 13.629L147.049 13.3301ZM156.048 12.5L156.798 12.5V12.5L156.048 12.5ZM156.048 22.9111L156.798 22.9114V22.9111H156.048ZM151.058 24.3604L151.058 23.6104L151.058 23.6104L151.058 24.3604ZM147.484 27.1152L148.209 27.3071L148.21 27.3064L147.484 27.1152ZM147.472 27.1475L148.18 27.3952L148.18 27.3941L147.472 27.1475ZM147.465 27.168L146.77 26.8862L146.769 26.8874L147.465 27.168ZM147.438 27.2217L148.09 27.5935L148.09 27.593L147.438 27.2217ZM147.426 27.2422L146.795 26.8359L146.795 26.8361L147.426 27.2422ZM147.396 27.2812L146.814 26.8085L146.814 26.8091L147.396 27.2812ZM147.376 27.3057L147.923 27.8188L147.924 27.8178L147.376 27.3057ZM147.341 27.3398L146.853 26.77L146.852 26.7712L147.341 27.3398ZM147.313 27.3613L147.756 27.9671L147.757 27.9661L147.313 27.3613ZM147.284 27.3809L146.891 26.7424L146.889 26.7431L147.284 27.3809ZM147.245 27.4033L147.573 28.0779L147.574 28.0775L147.245 27.4033ZM147.203 27.4209L146.945 26.7167L146.945 26.7167L147.203 27.4209ZM147.175 27.4297L147.386 28.1494L147.386 28.1494L147.175 27.4297ZM147.128 27.4404L146.996 26.7022L146.995 26.7022L147.128 27.4404ZM147.106 27.4463L147.202 28.1901L147.203 28.1901L147.106 27.4463ZM147.09 27.4463L147.158 28.1932L147.159 28.1931L147.09 27.4463ZM147.049 27.4482L147.05 26.6982L147.048 26.6982L147.049 27.4482ZM147.007 27.4463L146.936 28.193L146.937 28.193L147.007 27.4463ZM146.991 27.4463L146.895 28.1901L146.895 28.1901L146.991 27.4463ZM146.969 27.4404L147.103 26.7025L147.103 26.7025L146.969 27.4404ZM146.922 27.4297L146.71 28.149L146.71 28.149L146.922 27.4297ZM146.894 27.4209L147.153 26.7173L147.153 26.7172L146.894 27.4209ZM146.852 27.4033L146.522 28.0769L146.522 28.0773L146.852 27.4033ZM146.812 27.3809L147.208 26.7439L147.207 26.7431L146.812 27.3809ZM146.783 27.3613L146.339 27.9653L146.34 27.9663L146.783 27.3613ZM146.756 27.3398L147.246 26.772L147.244 26.7709L146.756 27.3398ZM146.721 27.3057L146.172 27.817L146.173 27.818L146.721 27.3057ZM146.7 27.2812L147.284 26.8099L147.283 26.8093L146.7 27.2812ZM146.671 27.2422L147.302 26.8368L147.302 26.8367L146.671 27.2422ZM146.658 27.2217L146.006 27.5923L146.006 27.5928L146.658 27.2217ZM146.632 27.168L147.328 26.8879L147.327 26.8868L146.632 27.168ZM146.625 27.1475L145.917 27.3936L145.917 27.3947L146.625 27.1475ZM146.613 27.1152L145.888 27.3064L145.888 27.3071L146.613 27.1152ZM143.04 24.3604L143.04 23.6104H143.04V24.3604ZM139.388 24.3604L139.388 25.1104H139.388V24.3604ZM138.05 23.0225L137.3 23.0225L137.3 23.0227L138.05 23.0225ZM138.05 12.5L137.3 12.5V12.5H138.05ZM142.049 10.0498V10.7998C143.978 10.7998 145.637 11.9627 146.361 13.629L147.049 13.3301L147.737 13.0311C146.783 10.8373 144.597 9.2998 142.049 9.2998V10.0498ZM147.049 13.3301L147.737 13.629C148.461 11.9627 150.12 10.7998 152.049 10.7998V10.0498V9.2998C149.501 9.2998 147.314 10.8373 146.361 13.0311L147.049 13.3301ZM152.049 10.0498V10.7998H153.598V10.0498V9.2998H152.049V10.0498ZM153.598 10.0498V10.7998C154.537 10.7998 155.298 11.5611 155.298 12.5L156.048 12.5L156.798 12.5C156.798 10.7327 155.365 9.2998 153.598 9.2998V10.0498ZM156.048 12.5H155.298V22.9111H156.048H156.798V12.5H156.048ZM156.048 22.9111L155.298 22.9108C155.298 23.297 154.984 23.6104 154.598 23.6104V24.3604V25.1104C155.812 25.1104 156.797 24.1263 156.798 22.9114L156.048 22.9111ZM154.598 24.3604V23.6104H151.058V24.3604V25.1104H154.598V24.3604ZM151.058 24.3604L151.058 23.6104C149.038 23.6105 147.274 24.9721 146.759 26.9241L147.484 27.1152L148.21 27.3064C148.551 26.0124 149.72 25.1105 151.058 25.1104L151.058 24.3604ZM147.484 27.1152L146.759 26.9234C146.767 26.8938 146.775 26.8704 146.781 26.8552C146.784 26.8476 146.787 26.8414 146.789 26.8372C146.79 26.8331 146.792 26.8302 146.792 26.8295C146.792 26.8291 146.792 26.8289 146.792 26.8294C146.792 26.8295 146.791 26.8309 146.791 26.8318C146.79 26.834 146.788 26.8387 146.785 26.8443C146.781 26.8552 146.772 26.8754 146.763 26.9008L147.472 27.1475L148.18 27.3941C148.173 27.4141 148.167 27.429 148.164 27.4346C148.163 27.4376 148.162 27.4396 148.162 27.4391C148.163 27.4387 148.162 27.4388 148.163 27.4376C148.163 27.4367 148.164 27.4352 148.165 27.4335C148.167 27.4275 148.174 27.4116 148.182 27.3917C148.19 27.3712 148.2 27.3423 148.209 27.3071L147.484 27.1152ZM147.472 27.1475L146.764 26.8997C146.759 26.912 146.756 26.9221 146.755 26.9276C146.754 26.9303 146.753 26.9327 146.753 26.9337C146.752 26.9352 146.752 26.9349 146.752 26.9346C146.753 26.9339 146.754 26.9283 146.757 26.9206C146.76 26.9127 146.764 26.9007 146.77 26.8862L147.465 27.168L148.16 27.4497C148.167 27.4319 148.173 27.4165 148.177 27.4052C148.18 27.3941 148.183 27.385 148.184 27.3809C148.185 27.379 148.186 27.3769 148.186 27.3767C148.186 27.376 148.186 27.3766 148.185 27.3777C148.185 27.3797 148.183 27.3864 148.18 27.3952L147.472 27.1475ZM147.465 27.168L146.769 26.8874C146.777 26.8673 146.785 26.8541 146.787 26.8504L147.438 27.2217L148.09 27.593C148.112 27.5547 148.137 27.5062 148.16 27.4486L147.465 27.168ZM147.438 27.2217L146.787 26.8498C146.792 26.8421 146.795 26.8366 146.796 26.8345C146.797 26.8333 146.797 26.8328 146.797 26.8331C146.797 26.8335 146.797 26.8341 146.795 26.8359L147.426 27.2422L148.056 27.6484C148.059 27.6441 148.074 27.6208 148.09 27.5935L147.438 27.2217ZM147.426 27.2422L146.795 26.8361C146.805 26.8216 146.812 26.8115 146.815 26.8072C146.817 26.805 146.818 26.8037 146.818 26.8041C146.817 26.8045 146.817 26.8055 146.814 26.8085L147.396 27.2812L147.979 27.754C147.987 27.7436 148.022 27.7014 148.056 27.6483L147.426 27.2422ZM147.396 27.2812L146.814 26.8091C146.812 26.811 146.811 26.8126 146.81 26.8139C146.809 26.8154 146.808 26.8158 146.808 26.8167C146.807 26.8181 146.807 26.8176 146.808 26.8164C146.81 26.8141 146.817 26.8052 146.828 26.7935L147.376 27.3057L147.924 27.8178C147.942 27.7984 147.956 27.7814 147.965 27.7709C147.969 27.7656 147.973 27.761 147.975 27.7583C147.978 27.7544 147.978 27.7547 147.979 27.7534L147.396 27.2812ZM147.376 27.3057L146.829 26.7925C146.826 26.7953 146.836 26.7846 146.853 26.77L147.341 27.3398L147.829 27.9096C147.871 27.8737 147.903 27.8401 147.923 27.8188L147.376 27.3057ZM147.341 27.3398L146.852 26.7712C146.863 26.7613 146.871 26.7557 146.87 26.7566L147.313 27.3613L147.757 27.9661C147.775 27.9532 147.801 27.9335 147.83 27.9085L147.341 27.3398ZM147.313 27.3613L146.871 26.7556C146.881 26.7481 146.889 26.7435 146.891 26.7424L147.284 27.3809L147.678 28.0193C147.7 28.0058 147.726 27.9885 147.756 27.9671L147.313 27.3613ZM147.284 27.3809L146.889 26.7431C146.885 26.7457 146.884 26.7464 146.883 26.7472C146.882 26.7477 146.883 26.7471 146.885 26.7458C146.889 26.7434 146.901 26.7369 146.917 26.7291L147.245 27.4033L147.574 28.0775C147.628 28.0512 147.674 28.0216 147.679 28.0186L147.284 27.3809ZM147.245 27.4033L146.917 26.7288C146.933 26.7212 146.944 26.7172 146.945 26.7167L147.203 27.4209L147.461 28.1251C147.491 28.1141 147.53 28.0988 147.573 28.0779L147.245 27.4033ZM147.203 27.4209L146.945 26.7167C146.96 26.7114 146.97 26.7081 146.973 26.7073C146.974 26.7069 146.975 26.7068 146.973 26.7073C146.972 26.7077 146.972 26.7076 146.97 26.7083C146.968 26.7087 146.966 26.7093 146.964 26.7099L147.175 27.4297L147.386 28.1494C147.387 28.1491 147.387 28.1492 147.391 28.1479C147.394 28.1471 147.399 28.1455 147.405 28.1437C147.417 28.1401 147.437 28.1338 147.461 28.1251L147.203 27.4209ZM147.175 27.4297L146.964 26.7099C146.982 26.7046 146.994 26.7024 146.996 26.7022L147.128 27.4404L147.26 28.1787C147.293 28.1727 147.337 28.1638 147.386 28.1494L147.175 27.4297ZM147.128 27.4404L146.995 26.7022C146.975 26.7059 146.957 26.7099 146.943 26.7136C146.928 26.7173 146.916 26.7208 146.906 26.7236C146.897 26.7264 146.89 26.7288 146.885 26.7302C146.883 26.7309 146.882 26.7315 146.881 26.7317C146.88 26.7319 146.88 26.732 146.88 26.7321C146.88 26.7321 146.88 26.7321 146.88 26.7321C146.88 26.732 146.884 26.7307 146.889 26.7291C146.894 26.7274 146.903 26.7248 146.913 26.7219C146.934 26.7162 146.968 26.708 147.01 26.7025L147.106 27.4463L147.203 28.1901C147.249 28.1841 147.286 28.1751 147.31 28.1684C147.333 28.1621 147.352 28.1558 147.355 28.1549C147.359 28.1536 147.355 28.1547 147.354 28.155C147.352 28.1558 147.346 28.1576 147.339 28.1599C147.325 28.1642 147.297 28.1721 147.26 28.1786L147.128 27.4404ZM147.106 27.4463L147.01 26.7025C147.052 26.6972 147.085 26.6964 147.106 26.6965C147.116 26.6966 147.125 26.6968 147.13 26.6971C147.135 26.6973 147.139 26.6975 147.139 26.6975C147.139 26.6975 147.139 26.6975 147.139 26.6975C147.139 26.6975 147.138 26.6974 147.138 26.6974C147.137 26.6974 147.135 26.6973 147.133 26.6972C147.128 26.6969 147.121 26.6966 147.111 26.6964C147.101 26.6962 147.089 26.696 147.074 26.6964C147.059 26.6967 147.041 26.6976 147.021 26.6995L147.09 27.4463L147.159 28.1931C147.122 28.1965 147.093 28.1963 147.077 28.196C147.069 28.1958 147.062 28.1955 147.059 28.1954C147.057 28.1953 147.054 28.1951 147.057 28.1953C147.059 28.1953 147.064 28.1956 147.07 28.1959C147.077 28.1961 147.087 28.1965 147.099 28.1965C147.122 28.1966 147.159 28.1958 147.202 28.1901L147.106 27.4463ZM147.09 27.4463L147.022 26.6994C147.027 26.6989 147.037 26.6982 147.05 26.6982L147.049 27.4482L147.048 28.1982C147.089 28.1983 147.126 28.1961 147.158 28.1932L147.09 27.4463ZM147.049 27.4482L147.048 26.6982C147.058 26.6982 147.068 26.6987 147.077 26.6995L147.007 27.4463L146.937 28.193C146.974 28.1965 147.011 28.1983 147.05 28.1982L147.049 27.4482ZM147.007 27.4463L147.077 26.6996C147.057 26.6977 147.039 26.6968 147.024 26.6964C147.009 26.696 146.996 26.6961 146.986 26.6964C146.976 26.6966 146.969 26.6969 146.964 26.6972C146.962 26.6973 146.96 26.6974 146.959 26.6974C146.959 26.6974 146.958 26.6975 146.958 26.6975C146.958 26.6975 146.958 26.6975 146.958 26.6975C146.958 26.6975 146.959 26.6974 146.96 26.6974C146.962 26.6973 146.964 26.6972 146.967 26.6971C146.972 26.6969 146.981 26.6966 146.991 26.6965C147.012 26.6964 147.046 26.6971 147.087 26.7025L146.991 27.4463L146.895 28.1901C146.939 28.1958 146.976 28.1966 146.999 28.1965C147.011 28.1964 147.021 28.1961 147.027 28.1958C147.034 28.1956 147.039 28.1953 147.04 28.1952C147.043 28.1951 147.04 28.1952 147.038 28.1953C147.035 28.1955 147.028 28.1958 147.02 28.196C147.004 28.1964 146.974 28.1965 146.936 28.193L147.007 27.4463ZM146.991 27.4463L147.088 26.7025C147.126 26.7074 147.156 26.7145 147.175 26.7194C147.184 26.7219 147.192 26.7241 147.197 26.7256C147.202 26.727 147.205 26.7281 147.205 26.7282C147.205 26.7282 147.205 26.7282 147.205 26.7282C147.205 26.7282 147.205 26.7281 147.205 26.7281C147.205 26.728 147.205 26.728 147.205 26.7279C147.204 26.7277 147.202 26.7272 147.2 26.7266C147.197 26.7255 147.19 26.7235 147.182 26.7211C147.174 26.7187 147.163 26.7157 147.15 26.7125C147.137 26.7093 147.121 26.7058 147.103 26.7025L146.969 27.4404L146.835 28.1783C146.803 28.1726 146.779 28.166 146.767 28.1624C146.76 28.1606 146.756 28.1592 146.754 28.1586C146.754 28.1585 146.75 28.1575 146.755 28.1588C146.758 28.1598 146.775 28.1653 146.796 28.1709C146.819 28.1768 146.853 28.1846 146.895 28.1901L146.991 27.4463ZM146.969 27.4404L147.103 26.7025C147.1 26.702 147.114 26.7043 147.134 26.7104L146.922 27.4297L146.71 28.149C146.761 28.1641 146.805 28.173 146.835 28.1784L146.969 27.4404ZM146.922 27.4297L147.134 26.7104C147.129 26.709 147.125 26.7076 147.123 26.7072C147.121 26.7066 147.122 26.7067 147.123 26.7071C147.125 26.7079 147.137 26.7114 147.153 26.7173L146.894 27.4209L146.634 28.1245C146.659 28.1338 146.68 28.1403 146.692 28.1439C146.698 28.1457 146.704 28.1473 146.706 28.148C146.708 28.1485 146.708 28.1486 146.709 28.1489C146.71 28.1491 146.71 28.1491 146.71 28.149L146.922 27.4297ZM146.894 27.4209L147.153 26.7172C147.151 26.7165 147.163 26.7207 147.181 26.7294L146.852 27.4033L146.522 28.0773C146.568 28.0993 146.607 28.1148 146.634 28.1246L146.894 27.4209ZM146.852 27.4033L147.181 26.7297C147.196 26.737 147.207 26.7431 147.211 26.7455C147.213 26.7467 147.214 26.7474 147.214 26.7471C147.213 26.7466 147.212 26.7459 147.208 26.7439L146.812 27.3809L146.417 28.0179C146.425 28.0231 146.469 28.051 146.522 28.0769L146.852 27.4033ZM146.812 27.3809L147.207 26.7431C147.206 26.7426 147.214 26.7476 147.226 26.7563L146.783 27.3613L146.34 27.9663C146.371 27.989 146.399 28.0067 146.418 28.0186L146.812 27.3809ZM146.783 27.3613L147.228 26.7573C147.226 26.7562 147.228 26.7572 147.231 26.7594C147.234 26.7618 147.239 26.766 147.246 26.772L146.756 27.3398L146.266 27.9077C146.296 27.934 146.324 27.9543 146.339 27.9653L146.783 27.3613ZM146.756 27.3398L147.244 26.7709C147.26 26.7843 147.269 26.794 147.268 26.7933L146.721 27.3057L146.173 27.818C146.195 27.8414 146.227 27.8741 146.267 27.9088L146.756 27.3398ZM146.721 27.3057L147.269 26.7943C147.28 26.8053 147.287 26.8136 147.288 26.816C147.289 26.8172 147.29 26.8177 147.289 26.8165C147.288 26.8159 147.288 26.8153 147.287 26.8141C147.286 26.8131 147.285 26.8115 147.284 26.8099L146.7 27.2812L146.117 27.7526C146.12 27.7559 146.117 27.7527 146.122 27.7584C146.124 27.7614 146.128 27.766 146.132 27.7713C146.141 27.7818 146.155 27.7982 146.172 27.817L146.721 27.3057ZM146.7 27.2812L147.283 26.8093C147.28 26.8059 147.279 26.8048 147.279 26.804C147.278 26.8035 147.279 26.8046 147.281 26.8068C147.284 26.811 147.292 26.8216 147.302 26.8368L146.671 27.2422L146.04 27.6476C146.075 27.7015 146.111 27.745 146.117 27.7532L146.7 27.2812ZM146.671 27.2422L147.302 26.8367C147.3 26.8344 147.3 26.8338 147.299 26.833C147.299 26.8325 147.299 26.833 147.3 26.8341C147.301 26.8361 147.305 26.8421 147.31 26.8505L146.658 27.2217L146.006 27.5928C146.022 27.6208 146.039 27.6456 146.04 27.6477L146.671 27.2422ZM146.658 27.2217L147.31 26.8511C147.312 26.8534 147.319 26.8668 147.328 26.8879L146.632 27.168L145.936 27.448C145.96 27.5066 145.985 27.5554 146.006 27.5923L146.658 27.2217ZM146.632 27.168L147.327 26.8868C147.333 26.901 147.337 26.9128 147.34 26.9206C147.342 26.9281 147.344 26.9336 147.344 26.9343C147.344 26.9345 147.344 26.9349 147.344 26.9334C147.344 26.9325 147.343 26.9301 147.342 26.9274C147.34 26.9221 147.337 26.9122 147.333 26.9002L146.625 27.1475L145.917 27.3947C145.914 27.3861 145.912 27.3797 145.911 27.3778C145.911 27.3768 145.911 27.3762 145.911 27.3769C145.911 27.3772 145.912 27.3793 145.912 27.3812C145.914 27.3854 145.916 27.3943 145.92 27.4052C145.924 27.4164 145.929 27.4316 145.937 27.4491L146.632 27.168ZM146.625 27.1475L147.333 26.9013C147.328 26.885 147.323 26.8719 147.32 26.8651C147.319 26.8617 147.317 26.8586 147.317 26.8575C147.316 26.8558 147.316 26.8562 147.317 26.8568C147.317 26.858 147.32 26.8655 147.324 26.876C147.328 26.8868 147.333 26.9031 147.338 26.9234L146.613 27.1152L145.888 27.3071C145.901 27.3564 145.917 27.3949 145.921 27.4062C145.922 27.4095 145.923 27.4125 145.924 27.4135C145.924 27.415 145.924 27.4146 145.924 27.4138C145.923 27.4124 145.92 27.4045 145.917 27.3936L146.625 27.1475ZM146.613 27.1152L147.339 26.9241C146.824 24.9721 145.059 23.6105 143.04 23.6104L143.04 24.3604L143.04 25.1104C144.377 25.1105 145.547 26.0124 145.888 27.3064L146.613 27.1152ZM143.04 24.3604V23.6104H139.388V24.3604V25.1104H143.04V24.3604ZM139.388 24.3604L139.388 23.6104C139.063 23.6103 138.8 23.3472 138.8 23.0223L138.05 23.0225L137.3 23.0227C137.3 24.1756 138.234 25.1101 139.388 25.1104L139.388 24.3604ZM138.05 23.0225H138.8V12.5H138.05H137.3V23.0225H138.05ZM138.05 12.5L138.8 12.5C138.8 11.5611 139.561 10.7998 140.5 10.7998V10.0498V9.2998C138.733 9.2998 137.3 10.7327 137.3 12.5L138.05 12.5ZM140.5 10.0498V10.7998H142.049V10.0498V9.2998H140.5V10.0498Z" fill="#AAAFBA"/>
<path d="M147 16L147 22" stroke="#AAAFBA" stroke-width="1.5" stroke-linecap="round"/>
<path d="M139.902 37.366H140.578C142.229 39.277 144.14 40.785 146.298 41.877L145.791 42.774C143.62 41.604 141.774 40.083 140.24 38.211C138.823 39.979 136.951 41.5 134.637 42.8L134.143 41.903C136.457 40.681 138.368 39.173 139.902 37.366ZM144.348 44.048V49.287H143.438V48.507H137.042V49.287H136.132V44.048H144.348ZM137.042 47.61H143.438V44.932H137.042V47.61ZM136.86 41.5H143.62V42.397H136.86V41.5ZM152.161 46.141H148.157V45.296H153.331V44.62H154.267V45.296H159.363V46.141H155.424C156.308 46.973 157.673 47.636 159.506 48.13L159.103 48.962C156.945 48.234 155.424 47.298 154.514 46.141H154.267V49.313H153.331V46.141H153.084C152.265 47.246 150.744 48.208 148.521 49.014L148.027 48.208C150.029 47.597 151.407 46.908 152.161 46.141ZM149.431 40.616C149.093 41.006 148.729 41.37 148.339 41.734L147.806 41.006C148.963 39.966 149.821 38.744 150.393 37.34L151.264 37.561C151.134 37.912 150.978 38.25 150.822 38.575H153.63C153.448 38.172 153.266 37.795 153.058 37.457L154.02 37.301C154.202 37.678 154.371 38.107 154.54 38.575H158.739V39.355H154.605V40.239H158.258V40.967H154.605V41.825H158.258V42.553H154.605V43.476H158.986V44.269H149.431V40.616ZM153.682 43.476V42.553H150.302V43.476H153.682ZM153.682 41.825V40.967H150.302V41.825H153.682ZM153.682 40.239V39.355H150.367L150.302 39.459V40.239H153.682Z" fill="#1F1F1F"/>
<g clip-path="url(#clip0_4406_5698)">
<path d="M243.912 19.2141C244.585 18.7475 245.136 18.1282 245.516 17.4085C245.896 16.6887 246.095 15.8896 246.096 15.0783C246.096 12.2785 243.766 10 240.902 10C238.038 10 235.709 12.2795 235.709 15.0793C235.71 15.8905 235.908 16.6897 236.288 17.4094C236.669 18.1292 237.219 18.7484 237.893 19.2151C236.45 19.7941 235.214 20.7824 234.343 22.0543C233.472 23.3262 233.005 24.8243 233 26.3584C233 26.5625 233.082 26.7582 233.229 26.9025C233.375 27.0468 233.574 27.1279 233.781 27.1279C233.989 27.1279 234.187 27.0468 234.334 26.9025C234.481 26.7582 234.563 26.5625 234.563 26.3584C234.563 22.9392 237.407 20.1577 240.904 20.1577C244.401 20.1577 247.245 22.9392 247.245 26.3584C247.245 26.5625 247.328 26.7582 247.474 26.9025C247.621 27.0468 247.819 27.1279 248.027 27.1279C248.234 27.1279 248.433 27.0468 248.579 26.9025C248.726 26.7582 248.808 26.5625 248.808 26.3584C248.803 24.8237 248.335 23.325 247.463 22.0529C246.591 20.7808 245.355 19.7926 243.912 19.2141ZM237.269 15.0783C237.265 14.3701 237.474 13.6763 237.87 13.0851C238.266 12.4939 238.831 12.0318 239.494 11.7575C240.157 11.4831 240.888 11.4089 241.595 11.5441C242.301 11.6794 242.95 12.018 243.46 12.5172C243.971 13.0163 244.319 13.6534 244.461 14.3478C244.603 15.0421 244.533 15.7623 244.259 16.4172C243.984 17.072 243.519 17.6319 242.921 18.0259C242.324 18.4199 241.62 18.6303 240.901 18.6303C239.942 18.6324 239.021 18.2597 238.34 17.594C237.66 16.9283 237.275 16.0239 237.27 15.0793L237.269 15.0783Z" fill="#AAAFBA"/>
<path d="M249.362 18.7619C250.061 18.2012 250.598 17.4546 250.914 16.6028C251.231 15.751 251.316 14.8262 251.159 13.9284C251.003 13.0306 250.612 12.1938 250.027 11.5084C249.443 10.8229 248.688 10.3148 247.844 10.039C247.651 9.97413 247.441 9.99069 247.26 10.085C247.079 10.1794 246.941 10.3438 246.878 10.5422C246.847 10.6402 246.835 10.7436 246.843 10.8463C246.851 10.949 246.879 11.0491 246.925 11.1408C246.97 11.2324 247.033 11.3139 247.109 11.3806C247.186 11.4472 247.274 11.4976 247.369 11.529C248.077 11.7612 248.69 12.2287 249.111 12.8582C249.533 13.4877 249.74 14.2435 249.7 15.0071C249.659 15.7707 249.374 16.499 248.888 17.0776C248.403 17.6562 247.745 18.0526 247.017 18.2044C246.887 18.2324 246.767 18.2946 246.667 18.3849C246.568 18.4752 246.493 18.5905 246.45 18.7195C246.45 18.7294 246.443 18.7382 246.44 18.7481C246.438 18.7574 246.436 18.7666 246.433 18.7757C246.433 18.7925 246.426 18.8083 246.422 18.8261C246.418 18.8438 246.422 18.8379 246.422 18.8438C246.418 18.8637 246.415 18.8838 246.414 18.904C246.415 18.9099 246.415 18.9159 246.414 18.9218C246.413 18.9405 246.413 18.9593 246.414 18.978V19.054C246.414 19.0668 246.419 19.0905 246.422 19.1083C246.422 19.1145 246.422 19.1208 246.422 19.127C246.422 19.1408 246.428 19.1537 246.431 19.1665C246.434 19.1793 246.437 19.1882 246.441 19.1991C246.444 19.2105 246.448 19.2217 246.452 19.2326C246.452 19.2444 246.461 19.2573 246.466 19.2691C246.471 19.281 246.473 19.2869 246.478 19.2958C246.483 19.3046 246.491 19.3234 246.497 19.3362L246.51 19.3589C246.518 19.3732 246.526 19.387 246.536 19.4004L246.547 19.4181L246.579 19.4605L246.591 19.4753C246.603 19.4892 246.615 19.503 246.629 19.5168L246.639 19.5276C246.656 19.5447 246.674 19.5605 246.691 19.575L246.708 19.5878L246.747 19.6155C246.755 19.622 246.765 19.6279 246.774 19.6332L246.806 19.652L246.836 19.6678L246.869 19.6836L246.899 19.6954L246.939 19.7102L246.964 19.7181L247.023 19.7319H247.033C247.058 19.737 247.083 19.7406 247.109 19.7428C248.357 19.843 249.516 20.4496 250.33 21.4291C251.144 22.4087 251.548 23.681 251.451 24.9667C251.437 25.1741 251.502 25.379 251.634 25.537C251.765 25.695 251.952 25.7932 252.153 25.8103H252.215C252.407 25.8111 252.592 25.7376 252.734 25.6044C252.876 25.4712 252.965 25.288 252.982 25.091C253.08 23.7815 252.785 22.4726 252.138 21.3408C251.491 20.2091 250.522 19.309 249.362 18.7619Z" fill="#AAAFBA"/>
</g>
<path d="M231.885 49.183H230.715L230.52 48.273C230.884 48.299 231.222 48.325 231.56 48.325C231.872 48.325 232.041 48.156 232.041 47.831V44.659C231.547 44.854 231.04 45.036 230.533 45.192L230.312 44.256C230.897 44.113 231.469 43.931 232.041 43.71V40.772H230.468V39.875H232.041V37.418H233.003V39.875H234.316V40.772H233.003V43.307C233.38 43.125 233.757 42.943 234.121 42.735V43.684C233.757 43.879 233.38 44.061 233.003 44.243V48.078C233.003 48.806 232.626 49.183 231.885 49.183ZM235.33 37.834H240.998V42.345H235.33V37.834ZM240.088 41.578V40.46H236.24V41.578H240.088ZM236.24 39.732H240.088V38.601H236.24V39.732ZM234.42 43.255H241.856V44.087H238.606V45.556H241.323V46.401H238.606V48.078C239.126 48.156 239.737 48.195 240.452 48.195C241.128 48.195 241.713 48.169 242.194 48.13L241.934 49.04C241.414 49.04 240.933 49.027 240.517 49.027C238.801 49.014 237.631 48.845 237.007 48.533C236.513 48.273 236.058 47.779 235.668 47.051C235.356 47.857 234.927 48.598 234.368 49.274L233.679 48.676C234.667 47.48 235.213 46.128 235.317 44.646L236.149 44.737C236.123 45.205 236.058 45.647 235.954 46.089C236.37 46.96 236.851 47.519 237.397 47.766C237.488 47.805 237.592 47.844 237.709 47.883V44.087H234.42V43.255ZM253.543 49.222H252.152L251.918 48.351L253.348 48.377C253.842 48.377 254.089 48.091 254.089 47.519V39.043H249.045V38.133H255.038V47.766C255.038 48.728 254.531 49.222 253.543 49.222ZM244.482 39.537H245.431V49.313H244.482V39.537ZM247.394 41.409H252.074V46.297H247.394V41.409ZM251.125 45.4V42.306H248.343V45.4H251.125ZM246.419 37.275C247.017 37.99 247.563 38.77 248.031 39.628L247.199 40.057C246.705 39.147 246.146 38.354 245.548 37.652L246.419 37.275Z" fill="#1F1F1F"/>
<path d="M342.044 19.1453C342.726 18.6822 343.283 18.0675 343.668 17.3532C344.052 16.6388 344.254 15.8456 344.255 15.0404C344.255 12.2615 341.897 10 338.998 10C336.099 10 333.741 12.2625 333.741 15.0414C333.742 15.8466 333.944 16.6397 334.328 17.3541C334.713 18.0685 335.27 18.6831 335.952 19.1463C334.492 19.721 333.241 20.7019 332.36 21.9643C331.478 23.2267 331.005 24.7136 331 26.2363C331 26.4388 331.083 26.6331 331.232 26.7763C331.38 26.9195 331.581 27 331.791 27C332.001 27 332.202 26.9195 332.35 26.7763C332.498 26.6331 332.582 26.4388 332.582 26.2363C332.582 22.8426 335.461 20.0818 339 20.0818C342.539 20.0818 345.418 22.8426 345.418 26.2363C345.418 26.4388 345.502 26.6331 345.65 26.7763C345.798 26.9195 345.999 27 346.209 27C346.419 27 346.62 26.9195 346.768 26.7763C346.917 26.6331 347 26.4388 347 26.2363C346.995 24.713 346.521 23.2255 345.639 21.9629C344.757 20.7003 343.505 19.7195 342.044 19.1453ZM335.321 15.0404C335.316 14.3374 335.528 13.6489 335.929 13.0621C336.33 12.4753 336.902 12.0166 337.573 11.7443C338.244 11.472 338.984 11.3983 339.699 11.5326C340.414 11.6668 341.071 12.003 341.587 12.4984C342.104 12.9938 342.456 13.6262 342.6 14.3153C342.744 15.0044 342.673 15.7193 342.395 16.3693C342.118 17.0192 341.647 17.5749 341.042 17.966C340.437 18.3571 339.725 18.5659 338.997 18.5659C338.026 18.5679 337.094 18.198 336.405 17.5373C335.716 16.8765 335.327 15.979 335.322 15.0414L335.321 15.0404Z" fill="#AAAFBA"/>
<path d="M332.383 43.424V44.373C331.629 44.62 330.849 44.854 330.017 45.075V48C330.017 48.754 329.614 49.131 328.821 49.131H327.378L327.183 48.234C327.638 48.273 328.08 48.299 328.509 48.299C328.873 48.299 329.055 48.117 329.055 47.766V45.296C328.223 45.478 327.378 45.647 326.494 45.79L326.364 44.841C327.313 44.685 328.21 44.529 329.055 44.347V41.786H326.377V40.889H329.055V39.147C328.366 39.29 327.651 39.407 326.91 39.511L326.715 38.614C328.561 38.406 330.199 38.029 331.629 37.47L331.941 38.354C331.343 38.562 330.693 38.757 330.017 38.939V40.889H333.137C333.059 39.836 333.02 38.679 333.02 37.405H333.956C333.969 38.718 334.008 39.875 334.086 40.889H338.103V41.786H334.164C334.255 42.722 334.372 43.502 334.528 44.139C334.606 44.477 334.697 44.776 334.788 45.062C335.412 44.308 335.971 43.45 336.439 42.488L337.245 42.917C336.647 44.139 335.945 45.179 335.126 46.05C335.308 46.492 335.49 46.869 335.698 47.168C336.114 47.792 336.452 48.117 336.699 48.117C336.959 48.104 337.18 47.376 337.388 45.92L338.207 46.349C337.895 48.195 337.44 49.118 336.842 49.118C336.309 49.118 335.75 48.728 335.152 47.948C334.892 47.597 334.645 47.181 334.437 46.713C333.501 47.545 332.435 48.195 331.252 48.663L330.745 47.857C332.019 47.389 333.124 46.7 334.073 45.803C333.917 45.361 333.774 44.88 333.644 44.373C333.462 43.632 333.319 42.774 333.215 41.786H330.017V44.126C330.862 43.905 331.655 43.671 332.383 43.424ZM335.386 37.548C336.322 38.172 337.115 38.783 337.765 39.407L337.089 40.083C336.517 39.485 335.75 38.835 334.762 38.146L335.386 37.548ZM344.512 39.628V48.494H343.602V47.753H341.236V48.871H340.326V39.628H341.535C341.795 38.9 341.977 38.146 342.094 37.366L343.03 37.496C342.874 38.263 342.679 38.978 342.419 39.628H344.512ZM341.236 46.882H343.602V44.035H341.236V46.882ZM341.236 43.19H343.602V40.512H341.236V43.19ZM346.774 42.644C347.71 43.723 348.412 44.672 348.906 45.478L348.165 45.998C347.632 45.14 346.917 44.178 346.02 43.112L346.774 42.644ZM351.233 39.641C351.233 43.957 351.168 46.635 351.038 47.649C350.908 48.637 350.31 49.144 349.218 49.144C348.958 49.144 348.516 49.118 347.892 49.092L347.671 48.234C348.217 48.26 348.685 48.273 349.088 48.273C349.699 48.273 350.05 47.935 350.154 47.272C350.232 46.544 350.284 44.295 350.31 40.551H346.735C346.371 41.37 345.942 42.111 345.435 42.774L344.876 42.033C345.786 40.759 346.397 39.199 346.735 37.353L347.658 37.47C347.502 38.237 347.32 38.965 347.086 39.641H351.233Z" fill="#1F1F1F"/>
<rect x="125" y="70" width="140" height="4" rx="2" fill="#E9E9E9"/>
<defs>
<clipPath id="clip0_4406_5698">
<rect width="24" height="24" fill="white" transform="translate(231 7)"/>
</clipPath>
</defs>
</svg>
