<svg width="24" height="24" viewBox="0 0 24 24" fill="none" xmlns="http://www.w3.org/2000/svg">
<path d="M12.0488 6.33008L11.361 6.62902C11.48 6.90291 11.7502 7.08008 12.0488 7.08008C12.3475 7.08008 12.6176 6.90291 12.7367 6.62902L12.0488 6.33008ZM21.0479 5.5L21.7979 5.5L21.7979 5.5L21.0479 5.5ZM21.0479 15.9111L21.7979 15.9114V15.9111H21.0479ZM16.0576 17.3604L16.0576 16.6104L16.0575 16.6104L16.0576 17.3604ZM12.4844 20.1152L13.2094 20.3071L13.2096 20.3064L12.4844 20.1152ZM12.4717 20.1475L13.1796 20.3952L13.18 20.3941L12.4717 20.1475ZM12.4648 20.168L11.7698 19.8862L11.7693 19.8874L12.4648 20.168ZM12.4385 20.2217L13.0898 20.5935L13.0901 20.593L12.4385 20.2217ZM12.4258 20.2422L11.7953 19.8359L11.7953 19.8361L12.4258 20.2422ZM12.3965 20.2812L11.8143 19.8085L11.8138 19.8091L12.3965 20.2812ZM12.376 20.3057L12.9229 20.8188L12.9239 20.8178L12.376 20.3057ZM12.3408 20.3398L11.8531 19.77L11.8518 19.7712L12.3408 20.3398ZM12.3135 20.3613L12.7557 20.9671L12.757 20.9661L12.3135 20.3613ZM12.2842 20.3809L11.8906 19.7424L11.8895 19.7431L12.2842 20.3809ZM12.2451 20.4033L12.5729 21.0779L12.5736 21.0775L12.2451 20.4033ZM12.2031 20.4209L11.9452 19.7167L11.945 19.7167L12.2031 20.4209ZM12.1748 20.4297L12.3856 21.1494L12.3856 21.1494L12.1748 20.4297ZM12.1279 20.4404L11.9957 19.7022L11.9954 19.7022L12.1279 20.4404ZM12.1064 20.4463L12.2025 21.1901L12.2028 21.1901L12.1064 20.4463ZM12.0898 20.4463L12.1579 21.1932L12.1588 21.1931L12.0898 20.4463ZM12.0488 20.4482L12.0495 19.6982L12.0481 19.6982L12.0488 20.4482ZM12.0068 20.4463L11.9362 21.193L11.9372 21.193L12.0068 20.4463ZM11.9912 20.4463L11.8948 21.1901L11.8952 21.1901L11.9912 20.4463ZM11.9688 20.4404L12.1029 19.7025L12.1026 19.7025L11.9688 20.4404ZM11.9219 20.4297L11.7095 21.149L11.7095 21.149L11.9219 20.4297ZM11.8936 20.4209L12.1531 19.7173L12.1529 19.7172L11.8936 20.4209ZM11.8516 20.4033L11.5217 21.0769L11.5224 21.0773L11.8516 20.4033ZM11.8125 20.3809L12.2084 19.7439L12.2072 19.7431L11.8125 20.3809ZM11.7832 20.3613L11.3386 20.9653L11.3399 20.9663L11.7832 20.3613ZM11.7559 20.3398L12.2458 19.772L12.2445 19.7709L11.7559 20.3398ZM11.7207 20.3057L11.1721 20.817L11.173 20.818L11.7207 20.3057ZM11.7002 20.2812L12.2836 19.8099L12.2831 19.8093L11.7002 20.2812ZM11.6709 20.2422L12.3019 19.8368L12.3018 19.8367L11.6709 20.2422ZM11.6582 20.2217L11.0062 20.5923L11.0065 20.5928L11.6582 20.2217ZM11.6318 20.168L12.3276 19.8879L12.3271 19.8868L11.6318 20.168ZM11.625 20.1475L10.9166 20.3936L10.9169 20.3947L11.625 20.1475ZM11.6133 20.1152L10.888 20.3064L10.8882 20.3071L11.6133 20.1152ZM8.04004 17.3604L8.04011 16.6104H8.04004V17.3604ZM4.3877 17.3604L4.38753 18.1104H4.3877V17.3604ZM3.0498 16.0225L2.2998 16.0225L2.2998 16.0227L3.0498 16.0225ZM3.0498 5.5L2.2998 5.5V5.5H3.0498ZM7.04883 3.0498V3.7998C8.97795 3.7998 10.6368 4.96274 11.361 6.62902L12.0488 6.33008L12.7367 6.03113C11.7832 3.83726 9.59692 2.2998 7.04883 2.2998V3.0498ZM12.0488 6.33008L12.7367 6.62902C13.4609 4.96274 15.1197 3.7998 17.0488 3.7998V3.0498V2.2998C14.5007 2.2998 12.3145 3.83726 11.361 6.03113L12.0488 6.33008ZM17.0488 3.0498V3.7998H18.5977V3.0498V2.2998H17.0488V3.0498ZM18.5977 3.0498V3.7998C19.5365 3.7998 20.2979 4.56112 20.2979 5.5L21.0479 5.5L21.7979 5.5C21.7979 3.73269 20.365 2.2998 18.5977 2.2998V3.0498ZM21.0479 5.5H20.2979V15.9111H21.0479H21.7979V5.5H21.0479ZM21.0479 15.9111L20.2979 15.9108C20.2977 16.297 19.9844 16.6104 19.5977 16.6104V17.3604V18.1104C20.8121 18.1104 21.7974 17.1263 21.7979 15.9114L21.0479 15.9111ZM19.5977 17.3604V16.6104H16.0576V17.3604V18.1104H19.5977V17.3604ZM16.0576 17.3604L16.0575 16.6104C14.0383 16.6105 12.2736 17.9721 11.7591 19.9241L12.4844 20.1152L13.2096 20.3064C13.5506 19.0124 14.7203 18.1105 16.0577 18.1104L16.0576 17.3604ZM12.4844 20.1152L11.7593 19.9234C11.7672 19.8938 11.7755 19.8704 11.7813 19.8552C11.7842 19.8476 11.7868 19.8414 11.7885 19.8372C11.7902 19.8331 11.7915 19.8302 11.7918 19.8295C11.792 19.8291 11.7921 19.8289 11.7919 19.8294C11.7918 19.8295 11.7912 19.8309 11.7908 19.8318C11.7898 19.834 11.7878 19.8387 11.7854 19.8443C11.7807 19.8552 11.7723 19.8754 11.7634 19.9008L12.4717 20.1475L13.18 20.3941C13.173 20.4141 13.1667 20.429 13.1643 20.4346C13.1631 20.4376 13.1622 20.4396 13.1624 20.4391C13.1625 20.4387 13.1625 20.4388 13.163 20.4376C13.1634 20.4367 13.1641 20.4352 13.1648 20.4335C13.1675 20.4275 13.1744 20.4116 13.1821 20.3917C13.1899 20.3712 13.2001 20.3423 13.2094 20.3071L12.4844 20.1152ZM12.4717 20.1475L11.7638 19.8997C11.7595 19.912 11.7563 19.9221 11.7545 19.9276C11.7537 19.9303 11.7529 19.9327 11.7526 19.9337C11.7522 19.9352 11.7523 19.9349 11.7523 19.9346C11.7526 19.9339 11.7543 19.9283 11.7569 19.9206C11.7596 19.9127 11.7639 19.9007 11.7698 19.8862L12.4648 20.168L13.1599 20.4497C13.1671 20.4319 13.1726 20.4165 13.1765 20.4052C13.1803 20.3941 13.1831 20.385 13.1844 20.3809C13.185 20.379 13.1857 20.3769 13.1857 20.3767C13.186 20.376 13.1857 20.3766 13.1854 20.3777C13.1848 20.3797 13.1827 20.3864 13.1796 20.3952L12.4717 20.1475ZM12.4648 20.168L11.7693 19.8874C11.7774 19.8673 11.7847 19.8541 11.7868 19.8504L12.4385 20.2217L13.0901 20.593C13.112 20.5547 13.1371 20.5062 13.1604 20.4486L12.4648 20.168ZM12.4385 20.2217L11.7871 19.8498C11.7916 19.8421 11.795 19.8366 11.7963 19.8345C11.797 19.8333 11.7974 19.8328 11.7972 19.8331C11.7969 19.8335 11.7965 19.8341 11.7953 19.8359L12.4258 20.2422L13.0562 20.6484C13.059 20.6441 13.0742 20.6208 13.0898 20.5935L12.4385 20.2217ZM12.4258 20.2422L11.7953 19.8361C11.8045 19.8216 11.8121 19.8115 11.8154 19.8072C11.8171 19.805 11.8181 19.8037 11.8178 19.8041C11.8175 19.8045 11.8167 19.8055 11.8143 19.8085L12.3965 20.2812L12.9787 20.754C12.9872 20.7436 13.0221 20.7014 13.0563 20.6483L12.4258 20.2422ZM12.3965 20.2812L11.8138 19.8091C11.8122 19.811 11.8109 19.8126 11.8099 19.8139C11.8087 19.8154 11.8084 19.8158 11.8076 19.8167C11.8065 19.8181 11.8069 19.8176 11.8079 19.8164C11.8098 19.8141 11.8172 19.8052 11.8281 19.7935L12.376 20.3057L12.9239 20.8178C12.9421 20.7984 12.9563 20.7814 12.965 20.7709C12.9694 20.7656 12.9731 20.761 12.9753 20.7583C12.9784 20.7544 12.9782 20.7547 12.9792 20.7534L12.3965 20.2812ZM12.376 20.3057L11.829 19.7925C11.8264 19.7953 11.8361 19.7846 11.8531 19.77L12.3408 20.3398L12.8285 20.9096C12.8705 20.8737 12.903 20.8401 12.9229 20.8188L12.376 20.3057ZM12.3408 20.3398L11.8518 19.7712C11.8633 19.7613 11.8711 19.7557 11.8699 19.7566L12.3135 20.3613L12.757 20.9661C12.7746 20.9532 12.8007 20.9335 12.8298 20.9085L12.3408 20.3398ZM12.3135 20.3613L11.8713 19.7556C11.8815 19.7481 11.8888 19.7435 11.8906 19.7424L12.2842 20.3809L12.6777 21.0193C12.6997 21.0058 12.7264 20.9885 12.7557 20.9671L12.3135 20.3613ZM12.2842 20.3809L11.8895 19.7431C11.8853 19.7457 11.8842 19.7464 11.8829 19.7472C11.882 19.7477 11.8831 19.7471 11.8852 19.7458C11.8892 19.7434 11.9005 19.7369 11.9166 19.7291L12.2451 20.4033L12.5736 21.0775C12.6278 21.0512 12.674 21.0216 12.6789 21.0186L12.2842 20.3809ZM12.2451 20.4033L11.9173 19.7288C11.9329 19.7212 11.9437 19.7172 11.9452 19.7167L12.2031 20.4209L12.4611 21.1251C12.4912 21.1141 12.5299 21.0988 12.5729 21.0779L12.2451 20.4033ZM12.2031 20.4209L11.945 19.7167C11.9596 19.7114 11.9703 19.7081 11.9729 19.7073C11.9743 19.7069 11.9749 19.7068 11.9731 19.7073C11.9717 19.7077 11.9719 19.7076 11.9697 19.7083C11.9682 19.7087 11.9662 19.7093 11.964 19.7099L12.1748 20.4297L12.3856 21.1494C12.3867 21.1491 12.3867 21.1492 12.3908 21.1479C12.3938 21.1471 12.3991 21.1455 12.4052 21.1437C12.4173 21.1401 12.4374 21.1338 12.4613 21.1251L12.2031 20.4209ZM12.1748 20.4297L11.964 19.7099C11.982 19.7046 11.9943 19.7024 11.9957 19.7022L12.1279 20.4404L12.2601 21.1787C12.2935 21.1727 12.3368 21.1638 12.3856 21.1494L12.1748 20.4297ZM12.1279 20.4404L11.9954 19.7022C11.9751 19.7059 11.9573 19.7099 11.9426 19.7136C11.9279 19.7173 11.9155 19.7208 11.9062 19.7236C11.897 19.7264 11.8896 19.7288 11.8855 19.7302C11.8834 19.7309 11.8816 19.7315 11.8808 19.7317C11.8804 19.7319 11.8799 19.732 11.8798 19.7321C11.8796 19.7321 11.8797 19.7321 11.8798 19.7321C11.88 19.732 11.8838 19.7307 11.8889 19.7291C11.8943 19.7274 11.9028 19.7248 11.9133 19.7219C11.934 19.7162 11.9677 19.708 12.0101 19.7025L12.1064 20.4463L12.2028 21.1901C12.2489 21.1841 12.2862 21.1751 12.3105 21.1684C12.3335 21.1621 12.352 21.1558 12.3547 21.1549C12.3585 21.1536 12.3554 21.1547 12.3543 21.155C12.352 21.1558 12.3463 21.1576 12.3389 21.1599C12.3246 21.1642 12.2967 21.1721 12.2605 21.1786L12.1279 20.4404ZM12.1064 20.4463L12.0104 19.7025C12.0515 19.6972 12.0851 19.6964 12.1057 19.6965C12.1162 19.6966 12.1247 19.6968 12.13 19.6971C12.1351 19.6973 12.139 19.6975 12.139 19.6975C12.139 19.6975 12.1391 19.6975 12.1388 19.6975C12.1387 19.6975 12.1382 19.6974 12.1378 19.6974C12.1368 19.6974 12.135 19.6973 12.1327 19.6972C12.1284 19.6969 12.1206 19.6966 12.1111 19.6964C12.1015 19.6962 12.0888 19.696 12.0739 19.6964C12.0589 19.6967 12.041 19.6976 12.0208 19.6995L12.0898 20.4463L12.1588 21.1931C12.122 21.1965 12.0926 21.1963 12.0768 21.196C12.0687 21.1958 12.0624 21.1955 12.0594 21.1954C12.0573 21.1953 12.0543 21.1951 12.0573 21.1953C12.0587 21.1953 12.0639 21.1956 12.0704 21.1959C12.0771 21.1961 12.087 21.1965 12.0989 21.1965C12.1223 21.1966 12.1586 21.1958 12.2025 21.1901L12.1064 20.4463ZM12.0898 20.4463L12.0218 19.6994C12.0268 19.6989 12.0365 19.6982 12.0495 19.6982L12.0488 20.4482L12.0481 21.1982C12.0888 21.1983 12.1257 21.1961 12.1579 21.1932L12.0898 20.4463ZM12.0488 20.4482L12.0481 19.6982C12.0583 19.6982 12.0679 19.6987 12.0765 19.6995L12.0068 20.4463L11.9372 21.193C11.9737 21.1965 12.0111 21.1983 12.0495 21.1982L12.0488 20.4482ZM12.0068 20.4463L12.0774 19.6996C12.057 19.6977 12.0389 19.6968 12.0238 19.6964C12.0087 19.696 11.9959 19.6961 11.9861 19.6964C11.9765 19.6966 11.9687 19.6969 11.9642 19.6972C11.9619 19.6973 11.9601 19.6974 11.9591 19.6974C11.9586 19.6974 11.9582 19.6975 11.958 19.6975C11.9577 19.6975 11.9578 19.6975 11.9578 19.6975C11.9579 19.6975 11.9589 19.6974 11.9603 19.6974C11.9618 19.6973 11.964 19.6972 11.9667 19.6971C11.9721 19.6969 11.9806 19.6966 11.9912 19.6965C12.0119 19.6964 12.0458 19.6971 12.0872 19.7025L11.9912 20.4463L11.8952 21.1901C11.9392 21.1958 11.9757 21.1966 11.999 21.1965C12.0109 21.1964 12.0207 21.1961 12.0274 21.1958C12.0338 21.1956 12.039 21.1953 12.0403 21.1952C12.0431 21.1951 12.0401 21.1952 12.0378 21.1953C12.0346 21.1955 12.0281 21.1958 12.0198 21.196C12.0036 21.1964 11.9737 21.1965 11.9362 21.193L12.0068 20.4463ZM11.9912 20.4463L12.0876 19.7025C12.1256 19.7074 12.1558 19.7145 12.1746 19.7194C12.1842 19.7219 12.1919 19.7241 12.1968 19.7256C12.2015 19.727 12.205 19.7281 12.2053 19.7282C12.2054 19.7282 12.2055 19.7282 12.2054 19.7282C12.2053 19.7282 12.2052 19.7281 12.2051 19.7281C12.2049 19.728 12.2048 19.728 12.2046 19.7279C12.2038 19.7277 12.2023 19.7272 12.2005 19.7266C12.1969 19.7255 12.1903 19.7235 12.1821 19.7211C12.1738 19.7187 12.1628 19.7157 12.1498 19.7125C12.1367 19.7093 12.1209 19.7058 12.1029 19.7025L11.9688 20.4404L11.8346 21.1783C11.8031 21.1726 11.7788 21.166 11.7666 21.1624C11.7603 21.1606 11.7556 21.1592 11.7538 21.1586C11.7536 21.1585 11.7503 21.1575 11.7545 21.1588C11.7578 21.1598 11.775 21.1653 11.7964 21.1709C11.819 21.1768 11.853 21.1846 11.8948 21.1901L11.9912 20.4463ZM11.9688 20.4404L12.1026 19.7025C12.1002 19.702 12.1137 19.7043 12.1342 19.7104L11.9219 20.4297L11.7095 21.149C11.7609 21.1641 11.8054 21.173 11.8349 21.1784L11.9688 20.4404ZM11.9219 20.4297L12.1342 19.7104C12.1295 19.709 12.1247 19.7076 12.1234 19.7072C12.1212 19.7066 12.1217 19.7067 12.123 19.7071C12.1255 19.7079 12.1372 19.7114 12.1531 19.7173L11.8936 20.4209L11.634 21.1245C11.6591 21.1338 11.6803 21.1403 11.6922 21.1439C11.6982 21.1457 11.7035 21.1473 11.7061 21.148C11.7077 21.1485 11.7082 21.1486 11.7091 21.1489C11.7097 21.1491 11.7098 21.1491 11.7095 21.149L11.9219 20.4297ZM11.8936 20.4209L12.1529 19.7172C12.151 19.7165 12.1629 19.7207 12.1807 19.7294L11.8516 20.4033L11.5224 21.0773C11.5676 21.0993 11.6074 21.1148 11.6342 21.1246L11.8936 20.4209ZM11.8516 20.4033L12.1814 19.7297C12.1963 19.737 12.2068 19.7431 12.2109 19.7455C12.213 19.7467 12.2141 19.7474 12.2136 19.7471C12.2129 19.7466 12.2117 19.7459 12.2084 19.7439L11.8125 20.3809L11.4166 21.0179C11.4251 21.0231 11.4689 21.051 11.5217 21.0769L11.8516 20.4033ZM11.8125 20.3809L12.2072 19.7431C12.2064 19.7426 12.2145 19.7476 12.2265 19.7563L11.7832 20.3613L11.3399 20.9663C11.3709 20.989 11.3986 21.0067 11.4178 21.0186L11.8125 20.3809ZM11.7832 20.3613L12.2278 19.7573C12.2263 19.7562 12.2277 19.7572 12.2306 19.7594C12.2335 19.7618 12.2389 19.766 12.2458 19.772L11.7559 20.3398L11.2659 20.9077C11.2964 20.934 11.3236 20.9543 11.3386 20.9653L11.7832 20.3613ZM11.7559 20.3398L12.2445 19.7709C12.2601 19.7843 12.269 19.794 12.2684 19.7933L11.7207 20.3057L11.173 20.818C11.1948 20.8414 11.2268 20.8741 11.2672 20.9088L11.7559 20.3398ZM11.7207 20.3057L12.2693 19.7943C12.2796 19.8053 12.2865 19.8136 12.2884 19.816C12.2894 19.8172 12.2899 19.8177 12.2889 19.8165C12.2884 19.8159 12.2879 19.8153 12.287 19.8141C12.2861 19.8131 12.2849 19.8115 12.2836 19.8099L11.7002 20.2812L11.1168 20.7526C11.1195 20.7559 11.1169 20.7527 11.1215 20.7584C11.1239 20.7614 11.1276 20.766 11.132 20.7713C11.1407 20.7818 11.1546 20.7982 11.1721 20.817L11.7207 20.3057ZM11.7002 20.2812L12.2831 19.8093C12.2803 19.8059 12.2794 19.8048 12.2788 19.804C12.2784 19.8035 12.2793 19.8046 12.281 19.8068C12.2842 19.811 12.2921 19.8216 12.3019 19.8368L11.6709 20.2422L11.0399 20.6476C11.0745 20.7015 11.1107 20.745 11.1173 20.7532L11.7002 20.2812ZM11.6709 20.2422L12.3018 19.8367C12.3003 19.8344 12.3 19.8338 12.2995 19.833C12.2992 19.8325 12.2995 19.833 12.3002 19.8341C12.3014 19.8361 12.3051 19.8421 12.3099 19.8505L11.6582 20.2217L11.0065 20.5928C11.0224 20.6208 11.0386 20.6456 11.04 20.6477L11.6709 20.2422ZM11.6582 20.2217L12.3102 19.8511C12.3116 19.8534 12.3191 19.8668 12.3276 19.8879L11.6318 20.168L10.9361 20.448C10.9597 20.5066 10.9852 20.5554 11.0062 20.5923L11.6582 20.2217ZM11.6318 20.168L12.3271 19.8868C12.3329 19.901 12.3371 19.9128 12.3397 19.9206C12.3423 19.9281 12.344 19.9336 12.3442 19.9343C12.3443 19.9345 12.3444 19.9349 12.344 19.9334C12.3437 19.9325 12.3429 19.9301 12.3421 19.9274C12.3404 19.9221 12.3373 19.9122 12.3331 19.9002L11.625 20.1475L10.9169 20.3947C10.9139 20.3861 10.9119 20.3797 10.9113 20.3778C10.911 20.3768 10.9108 20.3762 10.911 20.3769C10.9111 20.3772 10.9118 20.3793 10.9124 20.3812C10.9137 20.3854 10.9165 20.3943 10.9202 20.4052C10.924 20.4164 10.9294 20.4316 10.9365 20.4491L11.6318 20.168ZM11.625 20.1475L12.3334 19.9013C12.3278 19.885 12.3227 19.8719 12.32 19.8651C12.3187 19.8617 12.3175 19.8586 12.317 19.8575C12.3163 19.8558 12.3165 19.8562 12.3167 19.8568C12.3172 19.858 12.3202 19.8655 12.3238 19.876C12.3276 19.8868 12.333 19.9031 12.3383 19.9234L11.6133 20.1152L10.8882 20.3071C10.9013 20.3564 10.9165 20.3949 10.921 20.4062C10.9223 20.4095 10.9235 20.4125 10.9238 20.4135C10.9245 20.415 10.9243 20.4146 10.924 20.4138C10.9234 20.4124 10.9203 20.4045 10.9166 20.3936L11.625 20.1475ZM11.6133 20.1152L12.3385 19.9241C11.8241 17.9721 10.0594 16.6105 8.04011 16.6104L8.04004 17.3604L8.03997 18.1104C9.3774 18.1105 10.547 19.0124 10.888 20.3064L11.6133 20.1152ZM8.04004 17.3604V16.6104H4.3877V17.3604V18.1104H8.04004V17.3604ZM4.3877 17.3604L4.38786 16.6104C4.06302 16.6103 3.79989 16.3472 3.7998 16.0223L3.0498 16.0225L2.2998 16.0227C2.30012 17.1756 3.23445 18.1101 4.38753 18.1104L4.3877 17.3604ZM3.0498 16.0225H3.7998V5.5H3.0498H2.2998V16.0225H3.0498ZM3.0498 5.5L3.7998 5.5C3.7998 4.56112 4.56112 3.7998 5.5 3.7998V3.0498V2.2998C3.73269 2.2998 2.2998 3.73269 2.2998 5.5L3.0498 5.5ZM5.5 3.0498V3.7998H7.04883V3.0498V2.2998H5.5V3.0498Z" fill="#AAAFBA"/>
<path d="M12 9L12 15" stroke="#AAAFBA" stroke-width="1.5" stroke-linecap="round"/>
</svg>
