<svg width="24" height="24" viewBox="0 0 24 24" fill="none" xmlns="http://www.w3.org/2000/svg">
<g clip-path="url(#clip0_4406_5607)">
<path d="M14.9115 11.2128C15.5854 10.7462 16.1356 10.127 16.5157 9.40739C16.8958 8.68775 17.0947 7.88873 17.0956 7.07761C17.0956 4.27819 14.766 2 11.9021 2C9.0382 2 6.70859 4.27916 6.70859 7.07857C6.70952 7.88969 6.9084 8.68871 7.28849 9.40835C7.66858 10.128 8.21875 10.7472 8.89266 11.2137C7.44991 11.7927 6.2145 12.7808 5.34335 14.0525C4.47219 15.3242 4.00462 16.8222 4 18.3561C4 18.5601 4.08233 18.7558 4.22887 18.9001C4.37542 19.0443 4.57417 19.1254 4.78142 19.1254C4.98866 19.1254 5.18742 19.0443 5.33397 18.9001C5.48051 18.7558 5.56284 18.5601 5.56284 18.3561C5.56284 14.9373 8.4072 12.1562 11.9041 12.1562C15.4009 12.1562 18.2453 14.9373 18.2453 18.3561C18.2453 18.5601 18.3276 18.7558 18.4741 18.9001C18.6207 19.0443 18.8194 19.1254 19.0267 19.1254C19.2339 19.1254 19.4327 19.0443 19.5792 18.9001C19.7258 18.7558 19.8081 18.5601 19.8081 18.3561C19.8034 16.8216 19.3353 15.3231 18.4634 14.0512C17.5915 12.7792 16.3552 11.7912 14.9115 11.2128ZM8.26948 7.07761C8.26464 6.36944 8.47351 5.67581 8.86961 5.08467C9.26571 4.49353 9.83119 4.03151 10.4943 3.7572C11.1575 3.48289 11.8885 3.40865 12.5945 3.54388C13.3006 3.67911 13.95 4.01774 14.4603 4.51681C14.9707 5.01588 15.319 5.65291 15.4611 6.34714C15.6032 7.04136 15.5327 7.7615 15.2586 8.41624C14.9845 9.07097 14.519 9.63081 13.9213 10.0248C13.3235 10.4187 12.6204 10.629 11.9011 10.6291C10.9418 10.6311 10.0208 10.2585 9.34018 9.59286C8.65955 8.92726 8.27485 8.02305 8.27045 7.07857L8.26948 7.07761Z" fill="#AAAFBA"/>
<mask id="path-2-inside-1_4406_5607" fill="white">
<path d="M11.9297 2.90918C14.3008 2.90918 16.2236 4.83105 16.2236 7.20215C16.2236 8.86346 15.2789 10.3028 13.8984 11.0166C16.6506 11.9278 18.8444 14.6437 19.6826 18.1338C19.8252 18.7277 19.3539 19.2725 18.7432 19.2725H4.98535C4.37458 19.2725 3.90327 18.7277 4.0459 18.1338C4.89225 14.6101 7.12057 11.875 9.91016 10.9902C8.55763 10.2675 7.63672 8.84281 7.63672 7.20215C7.63676 4.83118 9.55876 2.90939 11.9297 2.90918Z"/>
</mask>
<path d="M11.9297 2.90918C14.3008 2.90918 16.2236 4.83105 16.2236 7.20215C16.2236 8.86346 15.2789 10.3028 13.8984 11.0166C16.6506 11.9278 18.8444 14.6437 19.6826 18.1338C19.8252 18.7277 19.3539 19.2725 18.7432 19.2725H4.98535C4.37458 19.2725 3.90327 18.7277 4.0459 18.1338C4.89225 14.6101 7.12057 11.875 9.91016 10.9902C8.55763 10.2675 7.63672 8.84281 7.63672 7.20215C7.63676 4.83118 9.55876 2.90939 11.9297 2.90918Z" fill="#AAAFBA"/>
<path d="M11.9297 2.90918L11.9297 1.90918L11.9296 1.90918L11.9297 2.90918ZM16.2236 7.20215L17.2236 7.20215L17.2236 7.20213L16.2236 7.20215ZM13.8984 11.0166L13.4391 10.1283L11.3292 11.2194L13.5841 11.9659L13.8984 11.0166ZM19.6826 18.1338L20.655 17.9003L20.655 17.9003L19.6826 18.1338ZM4.0459 18.1338L3.07355 17.9002L3.07355 17.9003L4.0459 18.1338ZM9.91016 10.9902L10.2125 11.9434L12.4737 11.2263L10.3814 10.1083L9.91016 10.9902ZM7.63672 7.20215L6.63672 7.20213V7.20215H7.63672ZM11.9297 2.90918V3.90918C13.7488 3.90918 15.2236 5.38362 15.2236 7.20217L16.2236 7.20215L17.2236 7.20213C17.2236 4.27848 14.8528 1.90918 11.9297 1.90918V2.90918ZM16.2236 7.20215H15.2236C15.2236 8.4742 14.5014 9.57905 13.4391 10.1283L13.8984 11.0166L14.3577 11.9049C16.0565 11.0265 17.2236 9.25273 17.2236 7.20215H16.2236ZM13.8984 11.0166L13.5841 11.9659C15.9234 12.7404 17.9296 15.1169 18.7103 18.3673L19.6826 18.1338L20.655 17.9003C19.7592 14.1705 17.3777 11.1151 14.2127 10.0673L13.8984 11.0166ZM19.6826 18.1338L18.7103 18.3673C18.7079 18.3575 18.7068 18.3395 18.7118 18.3195C18.7163 18.3014 18.7238 18.2897 18.729 18.2835C18.7384 18.2722 18.7463 18.2725 18.7432 18.2725V19.2725V20.2725C19.9355 20.2725 20.9635 19.185 20.655 17.9003L19.6826 18.1338ZM18.7432 19.2725V18.2725H4.98535V19.2725V20.2725H18.7432V19.2725ZM4.98535 19.2725V18.2725C4.98224 18.2725 4.99009 18.2722 4.99956 18.2835C5.00471 18.2897 5.01219 18.3014 5.01673 18.3195C5.02172 18.3395 5.02061 18.3575 5.01825 18.3673L4.0459 18.1338L3.07355 17.9003C2.76502 19.185 3.79308 20.2725 4.98535 20.2725V19.2725ZM4.0459 18.1338L5.01824 18.3673C5.80667 15.0848 7.84412 12.6946 10.2125 11.9434L9.91016 10.9902L9.60784 10.037C6.39702 11.0554 3.97782 14.1354 3.07355 17.9002L4.0459 18.1338ZM9.91016 10.9902L10.3814 10.1083C9.34092 9.55224 8.63672 8.45875 8.63672 7.20215H7.63672H6.63672C6.63672 9.22687 7.77435 10.9828 9.43887 11.8722L9.91016 10.9902ZM7.63672 7.20215L8.63672 7.20217C8.63675 5.38354 10.111 3.90934 11.9298 3.90918L11.9297 2.90918L11.9296 1.90918C9.00653 1.90944 6.63677 4.27882 6.63672 7.20213L7.63672 7.20215Z" fill="#AAAFBA" mask="url(#path-2-inside-1_4406_5607)"/>
</g>
<defs>
<clipPath id="clip0_4406_5607">
<rect width="24" height="24" fill="white"/>
</clipPath>
</defs>
</svg>
