<svg width="24" height="24" viewBox="0 0 24 24" fill="none" xmlns="http://www.w3.org/2000/svg">
<g clip-path="url(#clip0_4406_5687)">
<path d="M12.9115 12.2141C13.5854 11.7475 14.1356 11.1282 14.5157 10.4085C14.8958 9.68873 15.0947 8.88959 15.0956 8.07835C15.0956 5.27852 12.766 3 9.90209 3C7.03819 3 4.70859 5.27949 4.70859 8.07931C4.70952 8.89055 4.9084 9.68969 5.28849 10.4094C5.66858 11.1292 6.21874 11.7484 6.89265 12.2151C5.4499 12.7941 4.21449 13.7824 3.34334 15.0543C2.47219 16.3262 2.00462 17.8243 2 19.3584C2 19.5625 2.08233 19.7582 2.22887 19.9025C2.37542 20.0468 2.57417 20.1279 2.78142 20.1279C2.98866 20.1279 3.18742 20.0468 3.33396 19.9025C3.48051 19.7582 3.56284 19.5625 3.56284 19.3584C3.56284 15.9392 6.4072 13.1577 9.90404 13.1577C13.4009 13.1577 16.2452 15.9392 16.2452 19.3584C16.2452 19.5625 16.3276 19.7582 16.4741 19.9025C16.6207 20.0468 16.8194 20.1279 17.0267 20.1279C17.2339 20.1279 17.4327 20.0468 17.5792 19.9025C17.7258 19.7582 17.8081 19.5625 17.8081 19.3584C17.8033 17.8237 17.3353 16.325 16.4634 15.0529C15.5915 13.7808 14.3552 12.7926 12.9115 12.2141ZM6.26947 8.07835C6.26463 7.37008 6.47351 6.67634 6.86961 6.08512C7.2657 5.49389 7.83118 5.03181 8.49434 4.75746C9.15749 4.48311 9.88845 4.40885 10.5945 4.54411C11.3006 4.67936 11.95 5.01803 12.4603 5.51717C12.9706 6.01631 13.319 6.65344 13.4611 7.34777C13.6032 8.04209 13.5327 8.76234 13.2586 9.41717C12.9844 10.072 12.519 10.6319 11.9213 11.0259C11.3235 11.4199 10.6204 11.6303 9.90111 11.6303C8.94179 11.6324 8.02081 11.2597 7.34018 10.594C6.65955 9.92827 6.27484 9.02393 6.27045 8.07931L6.26947 8.07835Z" fill="#E7E7E7"/>
<path d="M18.3625 11.7619C19.0611 11.2012 19.5977 10.4546 19.9144 9.60278C20.2311 8.75095 20.3158 7.82623 20.1595 6.92843C20.0032 6.03062 19.6117 5.19383 19.0274 4.50838C18.443 3.82292 17.688 3.31484 16.8437 3.03897C16.6508 2.97413 16.4408 2.99069 16.2598 3.08503C16.0787 3.17936 15.9414 3.34377 15.8778 3.54221C15.847 3.64023 15.8352 3.74357 15.8432 3.84628C15.8512 3.949 15.8789 4.04907 15.9245 4.14075C15.9702 4.23244 16.033 4.31393 16.1094 4.38055C16.1857 4.44717 16.2741 4.49761 16.3694 4.52897C17.0769 4.76123 17.6896 5.22875 18.1113 5.85821C18.5331 6.48768 18.74 7.24348 18.6997 8.0071C18.6593 8.77072 18.374 9.49895 17.8885 10.0776C17.4029 10.6562 16.7446 11.0526 16.0168 11.2044C15.887 11.2324 15.7666 11.2946 15.6672 11.3849C15.5677 11.4752 15.4927 11.5905 15.4495 11.7195C15.4495 11.7294 15.4428 11.7382 15.4399 11.7481C15.4381 11.7574 15.4359 11.7666 15.4332 11.7757C15.4332 11.7925 15.4255 11.8083 15.4217 11.8261C15.4179 11.8438 15.4217 11.8379 15.4217 11.8438C15.4178 11.8637 15.4152 11.8838 15.414 11.904C15.4145 11.9099 15.4145 11.9159 15.414 11.9218C15.4131 11.9405 15.4131 11.9593 15.414 11.978V12.054C15.414 12.0668 15.4188 12.0905 15.4217 12.1083C15.4222 12.1145 15.4222 12.1208 15.4217 12.127C15.4217 12.1408 15.4284 12.1537 15.4313 12.1665C15.4342 12.1793 15.437 12.1882 15.4409 12.1991C15.4439 12.2105 15.4477 12.2217 15.4524 12.2326C15.4524 12.2444 15.461 12.2573 15.4658 12.2691C15.4706 12.281 15.4735 12.2869 15.4782 12.2958C15.483 12.3046 15.4907 12.3234 15.4974 12.3362L15.5099 12.3589C15.5178 12.3732 15.5264 12.387 15.5357 12.4004L15.5472 12.4181L15.5789 12.4605L15.5913 12.4753C15.6028 12.4892 15.6153 12.503 15.6287 12.5168L15.6392 12.5276C15.6565 12.5447 15.6737 12.5605 15.691 12.575L15.7082 12.5878L15.7465 12.6155C15.7555 12.622 15.7647 12.6279 15.7743 12.6332L15.806 12.652L15.8357 12.6678L15.8692 12.6836L15.8989 12.6954L15.9392 12.7102L15.9641 12.7181L16.0225 12.7319H16.0331C16.0581 12.737 16.0833 12.7406 16.1088 12.7428C17.3571 12.843 18.5157 13.4496 19.33 14.4291C20.1443 15.4087 20.5476 16.681 20.4514 17.9667C20.4368 18.1741 20.5023 18.379 20.6336 18.537C20.765 18.695 20.9515 18.7932 21.1528 18.8103H21.2151C21.4071 18.8111 21.5925 18.7376 21.7344 18.6044C21.8764 18.4712 21.9646 18.288 21.9816 18.091C22.0795 16.7815 21.785 15.4726 21.1378 14.3408C20.4907 13.2091 19.522 12.309 18.3625 11.7619Z" fill="#E7E7E7"/>
</g>
<defs>
<clipPath id="clip0_4406_5687">
<rect width="24" height="24" fill="white"/>
</clipPath>
</defs>
</svg>
