<svg width="20" height="18" viewBox="0 0 20 18" fill="none" xmlns="http://www.w3.org/2000/svg">
<path d="M10.9115 9.21413C11.5854 8.74748 12.1356 8.12821 12.5157 7.40847C12.8958 6.68873 13.0947 5.88959 13.0956 5.07835C13.0956 2.27852 10.766 1.91695e-08 7.90209 0C5.03819 -1.91695e-08 2.70859 2.27949 2.70859 5.07931C2.70952 5.89055 2.9084 6.68969 3.28849 7.40943C3.66858 8.12917 4.21874 8.74844 4.89265 9.21509C3.4499 9.79414 2.21449 10.7824 1.34334 12.0543C0.472194 13.3262 0.00461555 14.8243 0 16.3584C0 16.5625 0.0823277 16.7582 0.228872 16.9025C0.375416 17.0468 0.574173 17.1279 0.781418 17.1279C0.988663 17.1279 1.18742 17.0468 1.33396 16.9025C1.48051 16.7582 1.56284 16.5625 1.56284 16.3584C1.56284 12.9392 4.4072 10.1577 7.90404 10.1577C11.4009 10.1577 14.2452 12.9392 14.2452 16.3584C14.2452 16.5625 14.3276 16.7582 14.4741 16.9025C14.6207 17.0468 14.8194 17.1279 15.0267 17.1279C15.2339 17.1279 15.4327 17.0468 15.5792 16.9025C15.7258 16.7582 15.8081 16.5625 15.8081 16.3584C15.8033 14.8237 15.3353 13.325 14.4634 12.0529C13.5915 10.7808 12.3552 9.79265 10.9115 9.21413ZM4.26947 5.07835C4.26463 4.37008 4.47351 3.67634 4.86961 3.08512C5.2657 2.49389 5.83118 2.03181 6.49434 1.75746C7.15749 1.48311 7.88845 1.40885 8.59452 1.54411C9.30059 1.67936 9.94997 2.01803 10.4603 2.51717C10.9706 3.01631 11.319 3.65344 11.4611 4.34777C11.6032 5.04209 11.5327 5.76234 11.2586 6.41717C10.9844 7.072 10.519 7.63192 9.92126 8.02593C9.32352 8.41994 8.62042 8.63029 7.90111 8.63031C6.94179 8.63236 6.02081 8.25966 5.34018 7.59396C4.65955 6.92827 4.27484 6.02393 4.27045 5.07931L4.26947 5.07835Z" fill="#AAAFBA"/>
<path d="M16.3625 8.76192C17.0611 8.20118 17.5977 7.4546 17.9144 6.60278C18.2311 5.75095 18.3158 4.82623 18.1595 3.92843C18.0032 3.03062 17.6117 2.19383 17.0274 1.50838C16.443 0.822924 15.688 0.314839 14.8437 0.0389653C14.6508 -0.0258718 14.4408 -0.00930807 14.2598 0.0850258C14.0787 0.17936 13.9414 0.343768 13.8778 0.542213C13.847 0.640234 13.8352 0.743567 13.8432 0.846282C13.8512 0.948997 13.8789 1.04907 13.9245 1.14075C13.9702 1.23244 14.033 1.31393 14.1094 1.38055C14.1857 1.44717 14.2741 1.49761 14.3694 1.52897C15.0769 1.76123 15.6896 2.22875 16.1113 2.85821C16.5331 3.48768 16.74 4.24348 16.6997 5.0071C16.6593 5.77072 16.374 6.49895 15.8885 7.07759C15.4029 7.65623 14.7446 8.05256 14.0168 8.2044C13.887 8.23243 13.7666 8.29461 13.6672 8.38489C13.5677 8.47517 13.4927 8.59046 13.4495 8.71949C13.4495 8.72936 13.4428 8.73824 13.4399 8.74811C13.4381 8.75743 13.4359 8.76665 13.4332 8.77574C13.4332 8.79251 13.4255 8.8083 13.4217 8.82606C13.4179 8.84382 13.4217 8.8379 13.4217 8.84382C13.4178 8.86367 13.4152 8.88379 13.414 8.90401C13.4145 8.90993 13.4145 8.91587 13.414 8.92178C13.4131 8.94051 13.4131 8.95929 13.414 8.97802V9.054C13.414 9.06683 13.4188 9.09051 13.4217 9.10827C13.4222 9.11451 13.4222 9.12078 13.4217 9.12702C13.4217 9.14084 13.4284 9.15366 13.4313 9.16649C13.4342 9.17932 13.437 9.1882 13.4409 9.19906C13.4439 9.21053 13.4477 9.22175 13.4524 9.23261C13.4524 9.24445 13.461 9.25727 13.4658 9.26912C13.4706 9.28096 13.4735 9.28688 13.4782 9.29576C13.483 9.30464 13.4907 9.32339 13.4974 9.33622L13.5099 9.35891C13.5178 9.37317 13.5264 9.387 13.5357 9.40035L13.5472 9.41812L13.5789 9.46055L13.5913 9.47535C13.6028 9.48916 13.6153 9.50298 13.6287 9.51679L13.6392 9.52765C13.6565 9.54475 13.6737 9.56054 13.691 9.57501L13.7082 9.58784L13.7465 9.61547C13.7555 9.62196 13.7647 9.62789 13.7743 9.63323L13.806 9.65198L13.8357 9.66777L13.8692 9.68355L13.8989 9.6954L13.9392 9.7102L13.9641 9.71809L14.0225 9.73191H14.0331C14.0581 9.73697 14.0833 9.7406 14.1088 9.74276C15.3571 9.84304 16.5157 10.4496 17.33 11.4291C18.1443 12.4087 18.5476 13.681 18.4514 14.9667C18.4368 15.1741 18.5023 15.379 18.6336 15.537C18.765 15.695 18.9515 15.7932 19.1528 15.8103H19.2151C19.4071 15.8111 19.5925 15.7376 19.7344 15.6044C19.8764 15.4712 19.9646 15.288 19.9816 15.091C20.0795 13.7815 19.785 12.4726 19.1378 11.3408C18.4907 10.2091 17.522 9.30896 16.3625 8.76192Z" fill="#AAAFBA"/>
</svg>
