<svg width="16" height="17" viewBox="0 0 16 17" fill="none" xmlns="http://www.w3.org/2000/svg">
<path d="M11.044 9.14533C11.7261 8.68217 12.2829 8.06752 12.6676 7.35315C13.0523 6.63878 13.2536 5.84561 13.2546 5.04043C13.2546 2.26151 10.8967 1.90264e-08 7.99802 0C5.09936 -1.90264e-08 2.74147 2.26247 2.74147 5.04139C2.74241 5.84656 2.94371 6.63974 3.32841 7.35411C3.71311 8.06847 4.26996 8.68312 4.95205 9.14628C3.49179 9.72101 2.24138 10.7019 1.35965 11.9643C0.477927 13.2267 0.00467159 14.7136 0 16.2363C0 16.4388 0.0833272 16.6331 0.231651 16.7763C0.379974 16.9195 0.581144 17 0.790905 17C1.00067 17 1.20184 16.9195 1.35016 16.7763C1.49848 16.6331 1.58181 16.4388 1.58181 16.2363C1.58181 12.8426 4.4607 10.0818 8 10.0818C11.5393 10.0818 14.4182 12.8426 14.4182 16.2363C14.4182 16.4388 14.5015 16.6331 14.6498 16.7763C14.7982 16.9195 14.9993 17 15.2091 17C15.4189 17 15.62 16.9195 15.7684 16.7763C15.9167 16.6331 16 16.4388 16 16.2363C15.9952 14.713 15.5215 13.2255 14.639 11.9629C13.7565 10.7003 12.5052 9.71953 11.044 9.14533ZM4.32131 5.04043C4.31641 4.33745 4.52782 3.64889 4.92873 3.06208C5.32963 2.47527 5.90198 2.01664 6.57318 1.74434C7.24439 1.47203 7.98422 1.39833 8.69886 1.53258C9.41351 1.66682 10.0708 2.00296 10.5873 2.49838C11.1038 2.99379 11.4564 3.62617 11.6002 4.31531C11.7441 5.00445 11.6727 5.71931 11.3953 6.36926C11.1178 7.0192 10.6467 7.57494 10.0417 7.96601C9.43671 8.35707 8.72507 8.56585 7.99703 8.56587C7.02607 8.5679 6.0939 8.19799 5.40501 7.53726C4.71612 6.87654 4.32674 5.97895 4.32229 5.04139L4.32131 5.04043Z" fill="#AAAFBA"/>
</svg>
