<svg width="24" height="24" viewBox="0 0 24 24" fill="none" xmlns="http://www.w3.org/2000/svg">
<path d="M7.04883 3.0498C9.28743 3.0498 11.21 4.4 12.0488 6.33008C12.8877 4.4 14.8102 3.0498 17.0488 3.0498H18.5977C19.9508 3.0498 21.0479 4.1469 21.0479 5.5V15.9111C21.0475 16.7117 20.3983 17.3604 19.5977 17.3604H16.0576C14.3793 17.3605 12.9121 18.4923 12.4844 20.1152C12.4814 20.1265 12.4755 20.1366 12.4717 20.1475C12.4693 20.1543 12.4676 20.1613 12.4648 20.168C12.4573 20.1867 12.4483 20.2044 12.4385 20.2217C12.4345 20.2287 12.4302 20.2354 12.4258 20.2422C12.4169 20.256 12.4068 20.2686 12.3965 20.2812C12.3898 20.2896 12.3833 20.2979 12.376 20.3057C12.3647 20.3177 12.3533 20.3292 12.3408 20.3398C12.332 20.3474 12.3229 20.3544 12.3135 20.3613C12.3039 20.3683 12.2942 20.3747 12.2842 20.3809C12.2714 20.3888 12.2587 20.3967 12.2451 20.4033C12.2314 20.41 12.2175 20.4156 12.2031 20.4209C12.1938 20.4243 12.1844 20.4269 12.1748 20.4297C12.1594 20.4342 12.1439 20.4376 12.1279 20.4404C12.1207 20.4417 12.1138 20.4453 12.1064 20.4463C12.101 20.447 12.0953 20.4458 12.0898 20.4463C12.0762 20.4475 12.0627 20.4483 12.0488 20.4482C12.0347 20.4483 12.0208 20.4476 12.0068 20.4463C12.0017 20.4458 11.9964 20.447 11.9912 20.4463C11.9835 20.4453 11.9763 20.4418 11.9688 20.4404C11.9528 20.4375 11.9373 20.4342 11.9219 20.4297C11.9123 20.4269 11.9028 20.4243 11.8936 20.4209C11.8792 20.4156 11.8652 20.41 11.8516 20.4033C11.838 20.3967 11.8253 20.3888 11.8125 20.3809C11.8025 20.3747 11.7927 20.3683 11.7832 20.3613C11.7738 20.3544 11.7647 20.3474 11.7559 20.3398C11.7434 20.3292 11.7319 20.3177 11.7207 20.3057C11.7134 20.2979 11.7069 20.2896 11.7002 20.2812C11.6899 20.2686 11.6798 20.256 11.6709 20.2422C11.6665 20.2354 11.6622 20.2287 11.6582 20.2217C11.6484 20.2044 11.6394 20.1867 11.6318 20.168C11.6291 20.1613 11.6274 20.1543 11.625 20.1475C11.6213 20.1367 11.6162 20.1264 11.6133 20.1152C11.1855 18.4923 9.71839 17.3605 8.04004 17.3604H4.3877C3.64874 17.3602 3.05001 16.7614 3.0498 16.0225V5.5C3.0498 4.1469 4.1469 3.0498 5.5 3.0498H7.04883Z" fill="#E7E7E7"/>
<path d="M12.0488 6.33008L11.5903 6.52937C11.6696 6.71196 11.8497 6.83008 12.0488 6.83008C12.2479 6.83008 12.428 6.71196 12.5074 6.52937L12.0488 6.33008ZM21.0479 5.5H21.5479H21.0479ZM21.0479 15.9111L21.5479 15.9113V15.9111H21.0479ZM16.0576 17.3604V16.8604H16.0576L16.0576 17.3604ZM12.4844 20.1152L12.9677 20.2431L12.9679 20.2427L12.4844 20.1152ZM12.4717 20.1475L12.9436 20.3126L12.9439 20.3119L12.4717 20.1475ZM12.4648 20.168L12.0015 19.9801L12.0012 19.9809L12.4648 20.168ZM12.4385 20.2217L12.8727 20.4696L12.8729 20.4692L12.4385 20.2217ZM12.4258 20.2422L12.0055 19.9714L12.0054 19.9714L12.4258 20.2422ZM12.3965 20.2812L12.0083 19.9661L12.008 19.9665L12.3965 20.2812ZM12.376 20.3057L12.7406 20.6478L12.7412 20.6471L12.376 20.3057ZM12.3408 20.3398L12.0157 19.96L12.0148 19.9607L12.3408 20.3398ZM12.3135 20.3613L12.6083 20.7652L12.6092 20.7645L12.3135 20.3613ZM12.2842 20.3809L12.0218 19.9552L12.021 19.9557L12.2842 20.3809ZM12.2451 20.4033L12.4637 20.853L12.4641 20.8528L12.2451 20.4033ZM12.2031 20.4209L12.0312 19.9514L12.031 19.9514L12.2031 20.4209ZM12.1748 20.4297L12.3154 20.9095H12.3154L12.1748 20.4297ZM12.1279 20.4404L12.0398 19.9483L12.0396 19.9483L12.1279 20.4404ZM12.1064 20.4463L12.1705 20.9422L12.1707 20.9421L12.1064 20.4463ZM12.0898 20.4463L12.1352 20.9442L12.1358 20.9442L12.0898 20.4463ZM12.0488 20.4482L12.0493 19.9482H12.0484L12.0488 20.4482ZM12.0068 20.4463L11.9598 20.9441L11.9604 20.9441L12.0068 20.4463ZM11.9912 20.4463L11.927 20.9421L11.9272 20.9422L11.9912 20.4463ZM11.9688 20.4404L12.0582 19.9485L12.058 19.9485L11.9688 20.4404ZM11.9219 20.4297L11.7803 20.9092H11.7803L11.9219 20.4297ZM11.8936 20.4209L12.0666 19.9518L12.0665 19.9518L11.8936 20.4209ZM11.8516 20.4033L11.6317 20.8524L11.6322 20.8526L11.8516 20.4033ZM11.8125 20.3809L12.0764 19.9562L12.0756 19.9557L11.8125 20.3809ZM11.7832 20.3613L11.4868 20.764L11.4877 20.7647L11.7832 20.3613ZM11.7559 20.3398L12.0825 19.9613L12.0816 19.9605L11.7559 20.3398ZM11.7207 20.3057L11.3549 20.6466L11.3555 20.6472L11.7207 20.3057ZM11.7002 20.2812L12.0891 19.967L12.0888 19.9666L11.7002 20.2812ZM11.6709 20.2422L12.0916 19.9719L12.0915 19.9718L11.6709 20.2422ZM11.6582 20.2217L11.2235 20.4688L11.2237 20.4691L11.6582 20.2217ZM11.6318 20.168L12.0957 19.9813L12.0954 19.9805L11.6318 20.168ZM11.625 20.1475L11.1527 20.3116L11.153 20.3123L11.625 20.1475ZM11.6133 20.1152L11.1298 20.2427L11.1299 20.2431L11.6133 20.1152ZM8.04004 17.3604L8.04009 16.8604H8.04004V17.3604ZM4.3877 17.3604L4.38758 17.8604H4.3877V17.3604ZM3.0498 16.0225H2.5498L2.5498 16.0226L3.0498 16.0225ZM3.0498 5.5H2.5498H3.0498ZM7.04883 3.0498V3.5498C9.08111 3.5498 10.8279 4.77516 11.5903 6.52937L12.0488 6.33008L12.5074 6.13078C11.5921 4.02484 9.49376 2.5498 7.04883 2.5498V3.0498ZM12.0488 6.33008L12.5074 6.52937C13.2698 4.77516 15.0165 3.5498 17.0488 3.5498V3.0498V2.5498C14.6039 2.5498 12.5055 4.02484 11.5903 6.13078L12.0488 6.33008ZM17.0488 3.0498V3.5498H18.5977V3.0498V2.5498H17.0488V3.0498ZM18.5977 3.0498V3.5498C19.6746 3.5498 20.5479 4.42305 20.5479 5.5H21.0479H21.5479C21.5479 3.87076 20.2269 2.5498 18.5977 2.5498V3.0498ZM21.0479 5.5H20.5479V15.9111H21.0479H21.5479V5.5H21.0479ZM21.0479 15.9111L20.5479 15.9109C20.5477 16.4353 20.1224 16.8604 19.5977 16.8604V17.3604V17.8604C20.6742 17.8604 21.5474 16.9881 21.5479 15.9113L21.0479 15.9111ZM19.5977 17.3604V16.8604H16.0576V17.3604V17.8604H19.5977V17.3604ZM16.0576 17.3604L16.0576 16.8604C14.1519 16.8605 12.4864 18.1455 12.0009 19.9878L12.4844 20.1152L12.9679 20.2427C13.3378 18.839 14.6066 17.8605 16.0577 17.8604L16.0576 17.3604ZM12.4844 20.1152L12.001 19.9873C12.006 19.9686 12.0112 19.9538 12.0147 19.9447C12.0165 19.94 12.018 19.9363 12.019 19.934C12.02 19.9317 12.0206 19.9302 12.0207 19.9302C12.0207 19.9301 12.0206 19.9302 12.0204 19.9308C12.0203 19.931 12.0198 19.9322 12.0194 19.933C12.0185 19.935 12.017 19.9385 12.0152 19.9427C12.0117 19.9508 12.0057 19.9652 11.9995 19.983L12.4717 20.1475L12.9439 20.3119C12.9395 20.3243 12.9357 20.3333 12.9345 20.3362C12.9338 20.3377 12.9334 20.3386 12.9338 20.3379C12.934 20.3374 12.934 20.3373 12.9345 20.3362C12.9349 20.3354 12.9354 20.3342 12.936 20.3329C12.9382 20.3279 12.9432 20.3165 12.9486 20.3023C12.9542 20.2877 12.9613 20.2675 12.9677 20.2431L12.4844 20.1152ZM12.4717 20.1475L11.9998 19.9823C11.9967 19.991 11.9944 19.9984 11.993 20.0026C11.9924 20.0047 11.9918 20.0066 11.9915 20.0075C11.9913 20.0082 11.9912 20.0083 11.9911 20.0087C11.991 20.009 11.991 20.009 11.991 20.009C11.991 20.009 11.9913 20.0082 11.9917 20.0069C11.9921 20.0057 11.9927 20.0038 11.9935 20.0014C11.9951 19.9967 11.9978 19.9892 12.0015 19.9801L12.4648 20.168L12.9282 20.3558C12.9378 20.3322 12.944 20.3122 12.9457 20.3065C12.9462 20.305 12.9468 20.3033 12.9469 20.3028C12.9471 20.3021 12.9471 20.3022 12.9469 20.3026C12.9467 20.3034 12.9455 20.3073 12.9436 20.3126L12.4717 20.1475ZM12.4648 20.168L12.0012 19.9809C12.004 19.9738 12.0059 19.9709 12.0041 19.9741L12.4385 20.2217L12.8729 20.4692C12.8907 20.4379 12.9105 20.3997 12.9285 20.355L12.4648 20.168ZM12.4385 20.2217L12.0043 19.9738C12.0065 19.9698 12.0081 19.9673 12.0083 19.967C12.0084 19.9668 12.0083 19.967 12.0078 19.9678C12.0073 19.9686 12.0066 19.9696 12.0055 19.9714L12.4258 20.2422L12.8461 20.513C12.8494 20.5079 12.861 20.4901 12.8727 20.4696L12.4385 20.2217ZM12.4258 20.2422L12.0054 19.9714C12.0101 19.9641 12.0136 19.9596 12.0142 19.9588C12.0145 19.9584 12.0143 19.9587 12.0133 19.96C12.0122 19.9613 12.0108 19.963 12.0083 19.9661L12.3965 20.2812L12.7846 20.5964C12.7937 20.5853 12.8204 20.5529 12.8461 20.5129L12.4258 20.2422ZM12.3965 20.2812L12.008 19.9665C12.0067 19.9681 12.0055 19.9695 12.0046 19.9707C12.0035 19.9721 12.003 19.9727 12.0023 19.9736C12.0009 19.9752 12.0006 19.9756 12.0007 19.9755C12.0009 19.9753 12.0047 19.9707 12.0107 19.9642L12.376 20.3057L12.7412 20.6471C12.7546 20.6328 12.7652 20.6202 12.7721 20.6118C12.7756 20.6076 12.7787 20.6038 12.7807 20.6013C12.7833 20.5981 12.7837 20.5976 12.785 20.596L12.3965 20.2812ZM12.376 20.3057L12.0113 19.9636C12.0059 19.9694 12.0085 19.9662 12.0157 19.96L12.3408 20.3398L12.6659 20.7197C12.6981 20.6922 12.7236 20.666 12.7406 20.6478L12.376 20.3057ZM12.3408 20.3398L12.0148 19.9607C12.0195 19.9567 12.0217 19.9553 12.0178 19.9581L12.3135 20.3613L12.6092 20.7645C12.6241 20.7536 12.6445 20.7382 12.6668 20.719L12.3408 20.3398ZM12.3135 20.3613L12.0187 19.9575C12.0223 19.9548 12.0239 19.9539 12.0218 19.9552L12.2842 20.3809L12.5465 20.8065C12.5645 20.7954 12.5856 20.7817 12.6083 20.7652L12.3135 20.3613ZM12.2842 20.3809L12.021 19.9557C12.0172 19.9581 12.0154 19.9592 12.0135 19.9604C12.0118 19.9614 12.0114 19.9616 12.0118 19.9614C12.0123 19.9611 12.0177 19.958 12.0261 19.9538L12.2451 20.4033L12.4641 20.8528C12.5048 20.833 12.5398 20.8107 12.5473 20.806L12.2842 20.3809ZM12.2451 20.4033L12.0266 19.9536C12.0324 19.9508 12.035 19.95 12.0312 19.9514L12.2031 20.4209L12.3751 20.8904C12.4 20.8813 12.4304 20.8692 12.4637 20.853L12.2451 20.4033ZM12.2031 20.4209L12.031 19.9514C12.0392 19.9485 12.0448 19.9468 12.045 19.9467C12.0451 19.9467 12.0447 19.9468 12.0427 19.9474C12.0415 19.9477 12.0375 19.9489 12.0343 19.9498L12.1748 20.4297L12.3154 20.9095C12.3169 20.9091 12.3176 20.9089 12.3212 20.9078C12.324 20.907 12.3283 20.9058 12.3332 20.9043C12.3428 20.9014 12.3578 20.8967 12.3752 20.8904L12.2031 20.4209ZM12.1748 20.4297L12.0343 19.9498C12.0411 19.9478 12.0442 19.9475 12.0398 19.9483L12.1279 20.4404L12.2161 20.9326C12.2436 20.9277 12.2776 20.9206 12.3154 20.9095L12.1748 20.4297ZM12.1279 20.4404L12.0396 19.9483C12.0124 19.9532 11.9908 19.9592 11.9783 19.963C11.9719 19.965 11.9666 19.9667 11.9636 19.9677C11.9621 19.9682 11.9608 19.9686 11.96 19.9688C11.9597 19.969 11.9593 19.9691 11.9592 19.9691C11.959 19.9692 11.9589 19.9692 11.9589 19.9692C11.9589 19.9692 11.9591 19.9692 11.9593 19.9691C11.9595 19.969 11.9599 19.9689 11.9603 19.9688C11.9611 19.9685 11.9625 19.9681 11.9642 19.9675C11.9674 19.9665 11.9728 19.9648 11.9795 19.963C11.9927 19.9594 12.0145 19.954 12.0422 19.9504L12.1064 20.4463L12.1707 20.9421C12.202 20.9381 12.2275 20.9319 12.2443 20.9273C12.2602 20.9229 12.2731 20.9186 12.2755 20.9178C12.2784 20.9168 12.2766 20.9174 12.2762 20.9176C12.2749 20.918 12.2714 20.9191 12.2668 20.9205C12.2578 20.9232 12.2398 20.9283 12.2163 20.9326L12.1279 20.4404ZM12.1064 20.4463L12.0424 19.9504C12.0694 19.9469 12.0913 19.9465 12.1046 19.9465C12.1113 19.9466 12.1168 19.9467 12.1201 19.9469C12.1218 19.9469 12.1232 19.947 12.124 19.947C12.1244 19.9471 12.1248 19.9471 12.125 19.9471C12.1252 19.9471 12.1254 19.9471 12.1254 19.9471C12.1262 19.9472 12.123 19.947 12.1205 19.9469C12.1174 19.9467 12.112 19.9465 12.1054 19.9463C12.0926 19.946 12.0707 19.9459 12.0438 19.9484L12.0898 20.4463L12.1358 20.9442C12.1117 20.9464 12.0926 20.9463 12.0825 20.946C12.0773 20.9459 12.0734 20.9457 12.0716 20.9457C12.0705 20.9456 12.0687 20.9455 12.0709 20.9456C12.0721 20.9457 12.0758 20.9459 12.0803 20.9461C12.0851 20.9463 12.0919 20.9465 12.1 20.9465C12.1161 20.9466 12.1408 20.946 12.1705 20.9422L12.1064 20.4463ZM12.0898 20.4463L12.0445 19.9484C12.0433 19.9485 12.0452 19.9482 12.0493 19.9482L12.0488 20.4482L12.0484 20.9482C12.0801 20.9483 12.1092 20.9466 12.1352 20.9442L12.0898 20.4463ZM12.0488 20.4482L12.0484 19.9482C12.0504 19.9482 12.0522 19.9483 12.0533 19.9485L12.0068 20.4463L11.9604 20.9441C11.9894 20.9468 12.0189 20.9483 12.0493 20.9482L12.0488 20.4482ZM12.0068 20.4463L12.0539 19.9485C12.0268 19.9459 12.0047 19.946 11.9917 19.9463C11.9851 19.9465 11.9797 19.9467 11.9765 19.9469C11.9739 19.947 11.9707 19.9472 11.9715 19.9471C11.9716 19.9471 11.9717 19.9471 11.9719 19.9471C11.9721 19.9471 11.9725 19.9471 11.9729 19.947C11.9738 19.947 11.9751 19.9469 11.9769 19.9469C11.9802 19.9467 11.9857 19.9465 11.9925 19.9465C12.0059 19.9464 12.028 19.9469 12.0552 19.9504L11.9912 20.4463L11.9272 20.9422C11.957 20.946 11.9817 20.9466 11.9977 20.9465C12.0058 20.9465 12.0126 20.9462 12.0173 20.946C12.0218 20.9459 12.0254 20.9457 12.0265 20.9456C12.0286 20.9455 12.0268 20.9456 12.0255 20.9457C12.0236 20.9457 12.0195 20.9459 12.0142 20.9461C12.0038 20.9463 11.9843 20.9464 11.9598 20.9441L12.0068 20.4463ZM11.9912 20.4463L12.0555 19.9504C12.0802 19.9536 12.0997 19.9582 12.1116 19.9613C12.1176 19.9629 12.1224 19.9643 12.1254 19.9652C12.127 19.9656 12.1282 19.966 12.1289 19.9662C12.1297 19.9665 12.1302 19.9666 12.1302 19.9666C12.1302 19.9666 12.1302 19.9666 12.13 19.9665C12.1299 19.9665 12.1295 19.9664 12.1292 19.9663C12.1286 19.9661 12.1274 19.9657 12.126 19.9653C12.1233 19.9645 12.1186 19.963 12.1129 19.9613C12.1016 19.9581 12.0823 19.9529 12.0582 19.9485L11.9688 20.4404L11.8793 20.9324C11.859 20.9287 11.8434 20.9244 11.8359 20.9222C11.832 20.9211 11.8291 20.9202 11.8283 20.9199C11.8278 20.9198 11.8276 20.9197 11.8279 20.9198C11.8281 20.9199 11.8281 20.9199 11.8285 20.92C11.8288 20.9201 11.8292 20.9202 11.8297 20.9204C11.8324 20.9213 11.8445 20.9251 11.8595 20.929C11.8751 20.9331 11.8984 20.9384 11.927 20.9421L11.9912 20.4463ZM11.9688 20.4404L12.058 19.9485C12.0511 19.9472 12.0549 19.9476 12.0634 19.9501L11.9219 20.4297L11.7803 20.9092C11.8197 20.9208 11.8545 20.9279 11.8795 20.9324L11.9688 20.4404ZM11.9219 20.4297L12.0634 19.9501C12.0595 19.949 12.0555 19.9478 12.0538 19.9473C12.0516 19.9467 12.0511 19.9466 12.0512 19.9466C12.0513 19.9466 12.0576 19.9485 12.0666 19.9518L11.8936 20.4209L11.7205 20.89C11.7388 20.8968 11.7545 20.9016 11.764 20.9045C11.7688 20.9059 11.7731 20.9071 11.7756 20.9079C11.7787 20.9088 11.7795 20.909 11.7803 20.9092L11.9219 20.4297ZM11.8936 20.4209L12.0665 19.9518C12.0604 19.9495 12.0637 19.9505 12.071 19.954L11.8516 20.4033L11.6322 20.8526C11.6668 20.8695 11.698 20.8817 11.7206 20.89L11.8936 20.4209ZM11.8516 20.4033L12.0715 19.9543C12.0791 19.958 12.0839 19.9608 12.0845 19.9612C12.0848 19.9614 12.0845 19.9612 12.0831 19.9603C12.0815 19.9594 12.0797 19.9582 12.0764 19.9562L11.8125 20.3809L11.5486 20.8055C11.5585 20.8117 11.5919 20.8329 11.6317 20.8524L11.8516 20.4033ZM11.8125 20.3809L12.0756 19.9557C12.0717 19.9533 12.0739 19.9545 12.0787 19.958L11.7832 20.3613L11.4877 20.7647C11.5115 20.7821 11.5332 20.796 11.5494 20.806L11.8125 20.3809ZM11.7832 20.3613L12.0796 19.9587C12.077 19.9568 12.0764 19.9563 12.0768 19.9566C12.0773 19.9569 12.0794 19.9586 12.0825 19.9613L11.7559 20.3398L11.4293 20.7184C11.4525 20.7385 11.4737 20.7543 11.4868 20.764L11.7832 20.3613ZM11.7559 20.3398L12.0816 19.9605C12.0879 19.9659 12.09 19.9685 12.0859 19.9641L11.7207 20.3057L11.3555 20.6472C11.3739 20.6668 11.399 20.6924 11.4301 20.7192L11.7559 20.3398ZM11.7207 20.3057L12.0865 19.9647C12.0921 19.9708 12.0955 19.975 12.0957 19.9752C12.0958 19.9753 12.0955 19.975 12.0943 19.9735C12.0937 19.9728 12.0931 19.972 12.0922 19.9709C12.0914 19.9698 12.0903 19.9685 12.0891 19.967L11.7002 20.2812L11.3113 20.5955C11.3116 20.5959 11.3324 20.6224 11.3549 20.6466L11.7207 20.3057ZM11.7002 20.2812L12.0888 19.9666C12.0861 19.9633 12.0846 19.9615 12.0834 19.9599C12.0823 19.9585 12.082 19.9582 12.0823 19.9586C12.0828 19.9592 12.0865 19.9641 12.0916 19.9719L11.6709 20.2422L11.2502 20.5124C11.2763 20.553 11.3038 20.5862 11.3116 20.5959L11.7002 20.2812ZM11.6709 20.2422L12.0915 19.9718C12.0902 19.9697 12.0895 19.9688 12.0889 19.9677C12.0883 19.9668 12.0881 19.9666 12.0882 19.9667C12.0884 19.967 12.0902 19.9698 12.0927 19.9743L11.6582 20.2217L11.2237 20.4691C11.2357 20.4901 11.2479 20.5088 11.2503 20.5125L11.6709 20.2422ZM11.6582 20.2217L12.0929 19.9746C12.0905 19.9704 12.0925 19.9734 12.0957 19.9813L11.6318 20.168L11.168 20.3547C11.1862 20.4 11.2063 20.4384 11.2235 20.4688L11.6582 20.2217ZM11.6318 20.168L12.0954 19.9805C12.099 19.9895 12.1016 19.9967 12.1031 20.0014C12.1039 20.0037 12.1046 20.0056 12.1049 20.0068C12.1053 20.008 12.1056 20.0087 12.1056 20.0088C12.1056 20.0088 12.1056 20.0088 12.1055 20.0085C12.1054 20.0082 12.1053 20.008 12.1051 20.0074C12.1049 20.0064 12.1043 20.0046 12.1036 20.0025C12.1023 19.9984 12.1 19.9912 12.097 19.9826L11.625 20.1475L11.153 20.3123C11.1511 20.3071 11.15 20.3034 11.1498 20.3027C11.1496 20.3024 11.1496 20.3022 11.1499 20.303C11.15 20.3035 11.1505 20.3052 11.151 20.3068C11.1528 20.3124 11.1589 20.3321 11.1683 20.3554L11.6318 20.168ZM11.625 20.1475L12.0973 19.9833C12.0932 19.9716 12.0895 19.962 12.0874 19.9566C12.0863 19.9538 12.0853 19.9514 12.0848 19.9502C12.0845 19.9494 12.0844 19.9491 12.0842 19.9487C12.0841 19.9484 12.0841 19.9483 12.0841 19.9484C12.0841 19.9485 12.0845 19.9495 12.0852 19.9511C12.0858 19.9528 12.0867 19.9553 12.0878 19.9585C12.09 19.9648 12.0933 19.9747 12.0966 19.9873L11.6133 20.1152L11.1299 20.2431C11.1391 20.2779 11.1499 20.3053 11.1536 20.3146C11.1546 20.3173 11.1556 20.3197 11.156 20.3208C11.1566 20.3223 11.1567 20.3224 11.1567 20.3224C11.1566 20.3223 11.1549 20.318 11.1527 20.3116L11.625 20.1475ZM11.6133 20.1152L12.0968 19.9878C11.6112 18.1455 9.94571 16.8605 8.04009 16.8604L8.04004 17.3604L8.03999 17.8604C9.49106 17.8605 10.7599 18.839 11.1298 20.2427L11.6133 20.1152ZM8.04004 17.3604V16.8604H4.3877V17.3604V17.8604H8.04004V17.3604ZM4.3877 17.3604L4.38781 16.8604C3.92493 16.8602 3.54993 16.4853 3.5498 16.0223L3.0498 16.0225L2.5498 16.0226C2.55008 17.0376 3.37254 17.8601 4.38758 17.8604L4.3877 17.3604ZM3.0498 16.0225H3.5498V5.5H3.0498H2.5498V16.0225H3.0498ZM3.0498 5.5H3.5498C3.5498 4.42305 4.42304 3.5498 5.5 3.5498V3.0498V2.5498C3.87076 2.5498 2.5498 3.87076 2.5498 5.5H3.0498ZM5.5 3.0498V3.5498H7.04883V3.0498V2.5498H5.5V3.0498Z" fill="#E7E7E7"/>
<path d="M12 8L12 15" stroke="#2C2C2C" stroke-width="1.5" stroke-linecap="round"/>
</svg>
