<svg width="24" height="24" viewBox="0 0 24 24" fill="none" xmlns="http://www.w3.org/2000/svg">
<g clip-path="url(#clip0_4406_5656)">
<path d="M14.9115 11.2128C15.5854 10.7462 16.1356 10.127 16.5157 9.40739C16.8958 8.68775 17.0947 7.88873 17.0956 7.07761C17.0956 4.27819 14.766 2 11.9021 2C9.0382 2 6.70859 4.27916 6.70859 7.07857C6.70952 7.88969 6.9084 8.68871 7.28849 9.40835C7.66858 10.128 8.21875 10.7472 8.89266 11.2137C7.44991 11.7927 6.2145 12.7808 5.34335 14.0525C4.47219 15.3242 4.00462 16.8222 4 18.3561C4 18.5601 4.08233 18.7558 4.22887 18.9001C4.37542 19.0443 4.57417 19.1254 4.78142 19.1254C4.98866 19.1254 5.18742 19.0443 5.33397 18.9001C5.48051 18.7558 5.56284 18.5601 5.56284 18.3561C5.56284 14.9373 8.4072 12.1562 11.9041 12.1562C15.4009 12.1562 18.2453 14.9373 18.2453 18.3561C18.2453 18.5601 18.3276 18.7558 18.4741 18.9001C18.6207 19.0443 18.8194 19.1254 19.0267 19.1254C19.2339 19.1254 19.4327 19.0443 19.5792 18.9001C19.7258 18.7558 19.8081 18.5601 19.8081 18.3561C19.8034 16.8216 19.3353 15.3231 18.4634 14.0512C17.5915 12.7792 16.3552 11.7912 14.9115 11.2128ZM8.26948 7.07761C8.26464 6.36944 8.47351 5.67581 8.86961 5.08467C9.26571 4.49353 9.83119 4.03151 10.4943 3.7572C11.1575 3.48289 11.8885 3.40865 12.5945 3.54388C13.3006 3.67911 13.95 4.01774 14.4603 4.51681C14.9707 5.01588 15.319 5.65291 15.4611 6.34714C15.6032 7.04136 15.5327 7.7615 15.2586 8.41624C14.9845 9.07097 14.519 9.63081 13.9213 10.0248C13.3235 10.4187 12.6204 10.629 11.9011 10.6291C10.9418 10.6311 10.0208 10.2585 9.34018 9.59286C8.65955 8.92726 8.27485 8.02305 8.27045 7.07857L8.26948 7.07761Z" fill="#E7E7E7"/>
<mask id="path-2-inside-1_4406_5656" fill="white">
<path d="M11.9305 2.90918C14.3015 2.90934 16.2235 4.83115 16.2235 7.20215C16.2235 8.86355 15.2789 10.3028 13.8983 11.0166C16.6507 11.9277 18.8452 14.6436 19.6835 18.1338C19.8261 18.7277 19.3548 19.2725 18.744 19.2725H4.98621C4.37544 19.2725 3.90414 18.7277 4.04675 18.1338C4.89303 14.6102 7.12065 11.875 9.91003 10.9902C8.55763 10.2675 7.6366 8.84272 7.6366 7.20215C7.63664 4.83105 9.55943 2.90918 11.9305 2.90918Z"/>
</mask>
<path d="M11.9305 2.90918C14.3015 2.90934 16.2235 4.83115 16.2235 7.20215C16.2235 8.86355 15.2789 10.3028 13.8983 11.0166C16.6507 11.9277 18.8452 14.6436 19.6835 18.1338C19.8261 18.7277 19.3548 19.2725 18.744 19.2725H4.98621C4.37544 19.2725 3.90414 18.7277 4.04675 18.1338C4.89303 14.6102 7.12065 11.875 9.91003 10.9902C8.55763 10.2675 7.6366 8.84272 7.6366 7.20215C7.63664 4.83105 9.55943 2.90918 11.9305 2.90918Z" fill="#E7E7E7"/>
<path d="M11.9305 2.90918L11.9306 1.90918H11.9305V2.90918ZM16.2235 7.20215L17.2235 7.20215L17.2235 7.20213L16.2235 7.20215ZM13.8983 11.0166L13.4391 10.1283L11.3287 11.2194L13.5841 11.9659L13.8983 11.0166ZM19.6835 18.1338L20.6558 17.9003L20.6558 17.9002L19.6835 18.1338ZM4.04675 18.1338L3.0744 17.9003L3.0744 17.9003L4.04675 18.1338ZM9.91003 10.9902L10.2124 11.9434L12.4733 11.2263L10.3814 10.1083L9.91003 10.9902ZM7.6366 7.20215L6.6366 7.20213V7.20215H7.6366ZM11.9305 2.90918L11.9305 3.90918C13.7493 3.9093 15.2235 5.38349 15.2235 7.20217L16.2235 7.20215L17.2235 7.20213C17.2235 4.27881 14.8538 1.90938 11.9306 1.90918L11.9305 2.90918ZM16.2235 7.20215H15.2235C15.2235 8.47433 14.5013 9.57908 13.4391 10.1283L13.8983 11.0166L14.3576 11.9049C16.0565 11.0265 17.2235 9.25278 17.2235 7.20215H16.2235ZM13.8983 11.0166L13.5841 11.9659C15.9237 12.7404 17.9304 15.117 18.7111 18.3673L19.6835 18.1338L20.6558 17.9002C19.7599 14.1703 17.3777 11.115 14.2126 10.0673L13.8983 11.0166ZM19.6835 18.1338L18.7111 18.3673C18.7088 18.3575 18.7076 18.3395 18.7126 18.3195C18.7172 18.3014 18.7247 18.2897 18.7298 18.2835C18.7393 18.2722 18.7471 18.2725 18.744 18.2725V19.2725V20.2725C19.9363 20.2725 20.9644 19.185 20.6558 17.9003L19.6835 18.1338ZM18.744 19.2725V18.2725H4.98621V19.2725V20.2725H18.744V19.2725ZM4.98621 19.2725V18.2725C4.9831 18.2725 4.99095 18.2722 5.00042 18.2835C5.00557 18.2897 5.01305 18.3014 5.01759 18.3195C5.02258 18.3395 5.02147 18.3575 5.01911 18.3673L4.04675 18.1338L3.0744 17.9003C2.7659 19.185 3.79391 20.2725 4.98621 20.2725V19.2725ZM4.04675 18.1338L5.0191 18.3673C5.8075 15.0847 7.84433 12.6945 10.2124 11.9434L9.91003 10.9902L9.6077 10.037C6.39698 11.0554 3.97857 14.1356 3.0744 17.9003L4.04675 18.1338ZM9.91003 10.9902L10.3814 10.1083C9.34088 9.55221 8.6366 8.45862 8.6366 7.20215H7.6366H6.6366C6.6366 9.22683 7.77438 10.9827 9.43869 11.8722L9.91003 10.9902ZM7.6366 7.20215L8.6366 7.20217C8.63663 5.38362 10.1114 3.90918 11.9305 3.90918V2.90918V1.90918C9.00743 1.90918 6.63665 4.27848 6.6366 7.20213L7.6366 7.20215Z" fill="#E7E7E7" mask="url(#path-2-inside-1_4406_5656)"/>
</g>
<defs>
<clipPath id="clip0_4406_5656">
<rect width="24" height="24" fill="white"/>
</clipPath>
</defs>
</svg>
