<svg width="24" height="24" viewBox="0 0 24 24" fill="none" xmlns="http://www.w3.org/2000/svg">
<g clip-path="url(#clip0_4406_3400)">
<path d="M9.90234 3.5C12.5005 3.50013 14.5954 5.5647 14.5957 8.07715L14.5869 8.34961C14.5475 8.98506 14.3728 9.60662 14.0732 10.1738C13.7309 10.8219 13.2353 11.3806 12.627 11.8018L11.8623 12.3311L12.7256 12.6768C14.0783 13.2188 15.2353 14.1443 16.0508 15.334C16.8662 16.5235 17.3032 17.9239 17.3076 19.3574C17.3073 19.4258 17.2801 19.4932 17.2285 19.5439C17.1763 19.5953 17.1035 19.625 17.0264 19.625C16.9495 19.6249 16.8773 19.5951 16.8252 19.5439C16.7734 19.4929 16.7452 19.4252 16.7451 19.3564C16.7451 15.6511 13.6665 12.6564 9.9043 12.6562C6.14198 12.6562 3.0625 15.651 3.0625 19.3564C3.0624 19.4252 3.03522 19.4929 2.9834 19.5439C2.9312 19.5953 2.85838 19.625 2.78125 19.625C2.70433 19.625 2.63222 19.5951 2.58008 19.5439C2.52849 19.4932 2.50036 19.4258 2.5 19.3574C2.50434 17.9245 2.94115 16.5243 3.75586 15.335C4.57066 14.1456 5.72726 13.2202 7.0791 12.6777L7.94141 12.332L7.17773 11.8027C6.56933 11.3815 6.07279 10.8229 5.73047 10.1748C5.38822 9.52677 5.20984 8.80769 5.20898 8.07812L5.21484 7.84473C5.34001 5.43883 7.38512 3.5 9.90234 3.5ZM10.6885 4.05273C9.88694 3.89924 9.05705 3.98342 8.30371 4.29492C7.55013 4.60664 6.90567 5.13272 6.4541 5.80664C6.00259 6.4806 5.76401 7.27221 5.76953 8.08105L5.77051 8.28906L5.77734 8.2959C5.83567 9.29643 6.26665 10.2425 6.99023 10.9502C7.76517 11.708 8.81243 12.13 9.90137 12.1279C10.7178 12.1279 11.5166 11.8903 12.1963 11.4424C12.8762 10.9943 13.4069 10.3565 13.7197 9.60938C14.0326 8.86219 14.1134 8.03985 13.9512 7.24707C13.7889 6.45427 13.3907 5.72751 12.8096 5.15918C12.2285 4.59106 11.4901 4.20628 10.6885 4.05273Z" fill="#E7E7E7" stroke="#E7E7E7"/>
<path d="M15.9221 12.126H15.9201C15.9202 12.1217 15.9201 12.1175 15.9201 12.1133C15.9202 12.1173 15.9221 12.1217 15.9221 12.126ZM15.8957 11.6846C15.8967 11.6878 15.8967 11.6912 15.8976 11.6943C15.8962 11.6895 15.8954 11.6845 15.8937 11.6797C15.8943 11.6812 15.8952 11.683 15.8957 11.6846ZM15.9142 11.9639L15.9133 11.9512C15.9132 11.9495 15.9132 11.9479 15.9133 11.9463L15.9123 11.9453C15.9124 11.9437 15.9122 11.9421 15.9123 11.9404L15.9221 11.8916V11.8838C15.9224 11.8819 15.9227 11.8799 15.923 11.8779L15.924 11.877C15.9405 11.828 15.968 11.7858 16.0031 11.7539C16.0382 11.722 16.0795 11.7016 16.1223 11.6924L16.1213 11.6914C16.9597 11.5159 17.7158 11.0607 18.2717 10.3984C18.8278 9.73578 19.1523 8.90346 19.1984 8.0332C19.2444 7.1628 19.0091 6.29919 18.5266 5.5791C18.1042 4.94896 17.5128 4.45904 16.8254 4.16699L16.5256 4.05371C16.4944 4.04345 16.4642 4.02701 16.4377 4.00391C16.4113 3.98086 16.3891 3.95158 16.3723 3.91797C16.3555 3.88426 16.3451 3.8465 16.342 3.80762C16.3389 3.76859 16.3421 3.72818 16.3537 3.69141C16.3783 3.61706 16.4297 3.55999 16.4904 3.52832C16.5514 3.49657 16.6212 3.49132 16.6848 3.5127L16.6887 3.51465C17.4439 3.76149 18.1213 4.21679 18.6467 4.83301C19.1722 5.44942 19.526 6.20313 19.6672 7.01367C19.8083 7.8243 19.7312 8.65933 19.4455 9.42773C19.1598 10.196 18.6761 10.8678 18.049 11.3711L17.425 11.8711L18.1486 12.2129C19.2135 12.7152 20.1061 13.543 20.7033 14.5869C21.3005 15.631 21.5729 16.8404 21.4826 18.0508C21.475 18.1251 21.4412 18.1909 21.3918 18.2373C21.3416 18.2843 21.2793 18.3079 21.217 18.3076H21.1848C21.123 18.2996 21.0626 18.2688 21.0178 18.2148C20.9705 18.1579 20.9454 18.0815 20.9504 18.002C21.0562 16.589 20.6123 15.1878 19.7141 14.1074C18.8158 13.0272 17.5348 12.3549 16.1506 12.2432H16.1516C16.1452 12.2426 16.1383 12.2415 16.132 12.2402L16.092 12.2314L16.0715 12.2246L16.0705 12.2236L16.0568 12.2178L16.0422 12.21L16.0383 12.207L16.0051 12.1836L15.9914 12.1709L15.9875 12.167L15.9758 12.1543L15.9553 12.127L15.9504 12.1201L15.9465 12.1133L15.9445 12.1104L15.9191 12.0508V12.0488L15.9152 12.0273L15.9142 12.0176V11.9639Z" fill="#E7E7E7" stroke="#E7E7E7"/>
<mask id="path-3-inside-1_4406_3400" fill="white">
<path d="M9.93054 3.90918C12.3015 3.90933 14.2235 5.83114 14.2235 8.20215C14.2235 9.86326 13.2795 11.3027 11.8993 12.0166C14.6511 12.928 16.8443 15.644 17.6825 19.1338C17.8251 19.7275 17.3546 20.2722 16.744 20.2725H2.98523C2.37451 20.2724 1.90414 19.7276 2.04675 19.1338C2.89307 15.6104 5.12076 12.8761 7.91003 11.9912C6.55742 11.2685 5.6366 9.84288 5.6366 8.20215C5.63664 5.83105 7.55943 3.90918 9.93054 3.90918Z"/>
</mask>
<path d="M9.93054 3.90918C12.3015 3.90933 14.2235 5.83114 14.2235 8.20215C14.2235 9.86326 13.2795 11.3027 11.8993 12.0166C14.6511 12.928 16.8443 15.644 17.6825 19.1338C17.8251 19.7275 17.3546 20.2722 16.744 20.2725H2.98523C2.37451 20.2724 1.90414 19.7276 2.04675 19.1338C2.89307 15.6104 5.12076 12.8761 7.91003 11.9912C6.55742 11.2685 5.6366 9.84288 5.6366 8.20215C5.63664 5.83105 7.55943 3.90918 9.93054 3.90918Z" fill="#E7E7E7"/>
<path d="M9.93054 3.90918L9.9306 2.90918H9.93054V3.90918ZM14.2235 8.20215L15.2235 8.20215L15.2235 8.20213L14.2235 8.20215ZM11.8993 12.0166L11.4399 11.1284L9.33072 12.2194L11.5849 12.9659L11.8993 12.0166ZM17.6825 19.1338L18.6549 18.9003L18.6548 18.9003L17.6825 19.1338ZM16.744 20.2725L16.744 21.2725L16.7444 21.2725L16.744 20.2725ZM2.98523 20.2725L2.98513 21.2725H2.98523V20.2725ZM2.04675 19.1338L1.07441 18.9002L1.0744 18.9003L2.04675 19.1338ZM7.91003 11.9912L8.21243 12.9444L10.4735 12.2271L8.38129 11.1092L7.91003 11.9912ZM5.6366 8.20215L4.6366 8.20213V8.20215H5.6366ZM9.93054 3.90918L9.93048 4.90918C11.7493 4.90929 13.2235 6.38347 13.2235 8.20217L14.2235 8.20215L15.2235 8.20213C15.2235 5.27881 12.8538 2.90936 9.9306 2.90918L9.93054 3.90918ZM14.2235 8.20215H13.2235C13.2235 9.4743 12.5017 10.5792 11.4399 11.1284L11.8993 12.0166L12.3587 12.9048C14.0573 12.0262 15.2235 10.2522 15.2235 8.20215H14.2235ZM11.8993 12.0166L11.5849 12.9659C13.9239 13.7405 15.9295 16.1171 16.7101 19.3673L17.6825 19.1338L18.6548 18.9003C17.7591 15.1709 15.3784 12.1154 12.2137 11.0673L11.8993 12.0166ZM17.6825 19.1338L16.7101 19.3673C16.7078 19.3576 16.7067 19.3398 16.7117 19.3199C16.7162 19.3018 16.7236 19.2901 16.7289 19.2838C16.7385 19.2723 16.7466 19.2725 16.7436 19.2725L16.744 20.2725L16.7444 21.2725C17.9372 21.272 18.9631 20.1839 18.6549 18.9003L17.6825 19.1338ZM16.744 20.2725V19.2725H2.98523V20.2725V21.2725H16.744V20.2725ZM2.98523 20.2725L2.98533 19.2725C2.98236 19.2725 2.99063 19.2724 3.00037 19.284C3.00562 19.2903 3.01308 19.302 3.01759 19.3201C3.02254 19.34 3.02141 19.3577 3.01911 19.3673L2.04675 19.1338L1.0744 18.9003C0.766189 20.1836 1.7916 21.2723 2.98513 21.2725L2.98523 20.2725ZM2.04675 19.1338L3.0191 19.3673C3.80749 16.0851 5.8443 13.6957 8.21243 12.9444L7.91003 11.9912L7.60763 11.038C4.39721 12.0565 1.97865 15.1357 1.07441 18.9002L2.04675 19.1338ZM7.91003 11.9912L8.38129 11.1092C7.34097 10.5534 6.6366 9.4591 6.6366 8.20215H5.6366H4.6366C4.6366 10.2267 5.77388 11.9837 7.43878 12.8732L7.91003 11.9912ZM5.6366 8.20215L6.6366 8.20217C6.63663 6.38362 8.11144 4.90918 9.93054 4.90918V3.90918V2.90918C7.00743 2.90918 4.63665 5.27848 4.6366 8.20213L5.6366 8.20215Z" fill="#E7E7E7" mask="url(#path-3-inside-1_4406_3400)"/>
</g>
<defs>
<clipPath id="clip0_4406_3400">
<rect width="24" height="24" fill="white"/>
</clipPath>
</defs>
</svg>
