<svg width="28" height="28" viewBox="0 0 28 28" fill="none" xmlns="http://www.w3.org/2000/svg">
<rect width="28" height="28" rx="14" fill="#EEE6DB"/>
<path fill-rule="evenodd" clip-rule="evenodd" d="M12.0875 6H15.9125C17.6222 6 18.9766 6 20.0361 6.13989C21.1263 6.28434 22.009 6.58789 22.7058 7.27177C23.4015 7.95657 23.7104 8.82423 23.8573 9.89577C23.9411 10.5111 23.9755 11.227 23.9894 12.0562C24.001 12.1258 24.0022 12.1966 23.9932 12.2665C23.9987 12.7834 24.0009 13.3442 23.9997 13.9488V14.0512C23.9997 15.7317 23.9997 17.0629 23.8573 18.1042C23.7104 19.1758 23.4015 20.0434 22.7058 20.7282C22.009 21.4121 21.1263 21.7157 20.0361 21.8601C18.9756 22 17.6222 22 15.9125 22H12.0875C10.3778 22 9.02342 22 7.96393 21.8601C6.87373 21.7157 5.99097 21.4121 5.29425 20.7282C4.59846 20.0434 4.28963 19.1758 4.14266 18.1042C4.00034 17.0619 4.00034 15.7317 4.00034 14.0512V13.9488C3.9991 13.3442 4.00127 12.7834 4.00685 12.2665C3.99747 12.1967 3.99841 12.1258 4.00964 12.0562C4.02452 11.227 4.05894 10.5111 4.14266 9.89577C4.28963 8.82423 4.59846 7.95657 5.29425 7.27177C5.99097 6.58789 6.87373 6.28434 7.96393 6.13989C9.02435 6 10.3778 6 12.0875 6ZM5.3975 12.8571C5.39626 13.2119 5.39564 13.5928 5.39564 14C5.39564 15.7435 5.3975 16.9824 5.52587 17.9223C5.65145 18.8411 5.88772 19.3714 6.28119 19.7582C6.67467 20.1449 7.21418 20.3771 8.14997 20.5006C9.10621 20.6267 10.3657 20.6286 12.1396 20.6286H15.8604C17.6343 20.6286 18.8947 20.6267 19.851 20.5006C20.7858 20.3771 21.3253 20.1449 21.7188 19.7582C22.1123 19.3714 22.3486 18.8411 22.4741 17.9214C22.6025 16.9815 22.6044 15.7435 22.6044 14C22.6044 13.5928 22.6037 13.2119 22.6025 12.8571H5.3975ZM22.5802 11.4857H5.41983C5.43843 10.949 5.47006 10.4855 5.52587 10.0777C5.65145 9.15886 5.88772 8.62857 6.28119 8.24183C6.67467 7.85509 7.21418 7.62286 8.14997 7.49943C9.10621 7.37326 10.3657 7.37143 12.1396 7.37143H15.8604C17.6343 7.37143 18.8947 7.37326 19.851 7.49943C20.7858 7.62286 21.3253 7.85509 21.7188 8.24183C22.1123 8.62857 22.3486 9.15886 22.4741 10.0786C22.5299 10.4855 22.5616 10.949 22.5802 11.4857ZM7.72114 17.6571C7.72114 17.4753 7.79465 17.3009 7.92548 17.1723C8.05631 17.0437 8.23377 16.9714 8.41879 16.9714H12.1396C12.3246 16.9714 12.5021 17.0437 12.6329 17.1723C12.7637 17.3009 12.8372 17.4753 12.8372 17.6571C12.8372 17.839 12.7637 18.0134 12.6329 18.142C12.5021 18.2706 12.3246 18.3429 12.1396 18.3429H8.41879C8.23377 18.3429 8.05631 18.2706 7.92548 18.142C7.79465 18.0134 7.72114 17.839 7.72114 17.6571ZM13.7674 17.6571C13.7674 17.4753 13.841 17.3009 13.9718 17.1723C14.1026 17.0437 14.2801 16.9714 14.4651 16.9714H15.8604C16.0454 16.9714 16.2229 17.0437 16.3537 17.1723C16.4846 17.3009 16.5581 17.4753 16.5581 17.6571C16.5581 17.839 16.4846 18.0134 16.3537 18.142C16.2229 18.2706 16.0454 18.3429 15.8604 18.3429H14.4651C14.2801 18.3429 14.1026 18.2706 13.9718 18.142C13.841 18.0134 13.7674 17.839 13.7674 17.6571Z" fill="#1F1F1F"/>
</svg>
