<svg width="28" height="28" viewBox="0 0 28 28" fill="none" xmlns="http://www.w3.org/2000/svg">
<rect width="28" height="28" rx="14" fill="#EEE6DB"/>
<path d="M9.23211 10.6176C7.26416 11.0632 6.28018 11.2856 6.04579 12.0384C5.81219 12.7904 6.48258 13.5752 7.82415 15.1441L8.17134 15.5497C8.55213 15.9953 8.74332 16.2185 8.82892 16.4937C8.91452 16.7697 8.88572 17.0673 8.82812 17.6617L8.77532 18.2033C8.57293 20.2969 8.47133 21.3433 9.08412 21.8081C9.6969 22.2729 10.6185 21.8489 12.46 21.0009L12.9376 20.7817C13.4608 20.5401 13.7224 20.4201 14 20.4201C14.2776 20.4201 14.5392 20.5401 15.0632 20.7817L15.5392 21.0009C17.3815 21.8489 18.3031 22.2729 18.9151 21.8089C19.5287 21.3433 19.4271 20.2969 19.2247 18.2033M20.1759 15.1441C21.5174 13.576 22.1878 12.7912 21.9542 12.0384C21.7206 11.2856 20.7358 11.0624 18.7679 10.6176L18.2591 10.5024C17.6999 10.376 17.4207 10.3128 17.1959 10.1424C16.9711 9.97203 16.8279 9.71362 16.5399 9.19682L16.2775 8.72642C15.264 6.90881 14.7576 6 14 6C13.2424 6 12.736 6.90881 11.7225 8.72642" stroke="#1F1F1F" stroke-width="1.5" stroke-linecap="round"/>
</svg>
