<svg width="28" height="28" viewBox="0 0 28 28" fill="none" xmlns="http://www.w3.org/2000/svg">
<rect width="28" height="28" rx="14" fill="#EEE6DB" fill-opacity="0.3"/>
<path d="M20.3679 7.62858C17.0284 4.28906 11.7001 4.1341 8.16698 7.1494V5.90854C8.16698 5.49429 7.83103 5.15834 7.41679 5.15834C7.00254 5.15834 6.66659 5.49429 6.66659 5.90854V8.9093C6.66659 9.32354 7.00254 9.65949 7.41679 9.65949H10.4175C10.8318 9.65949 11.1677 9.32354 11.1677 8.9093C11.1677 8.49505 10.8318 8.15911 10.4175 8.15911H9.28874C12.2321 5.77866 16.5717 5.95402 19.3071 8.6894C22.2316 11.6144 22.2316 16.3742 19.3071 19.299C16.3818 22.2235 11.6228 22.2235 8.6975 19.299C7.28058 17.882 6.50038 15.9981 6.50038 13.9942C6.50038 13.5799 6.16444 13.244 5.75019 13.244C5.33594 13.244 5 13.5799 5 13.9942C5 16.399 5.93633 18.6599 7.63668 20.3598C9.39166 22.1148 11.6969 22.9925 14.0023 22.9925C16.3075 22.9925 18.6129 22.1148 20.3679 20.3598C23.8774 16.8498 23.8774 11.1385 20.3679 7.62858Z" fill="#E7E7E7"/>
<path d="M14.0057 8.73926C13.5914 8.73926 13.2555 9.0752 13.2555 9.48945V13.8354C13.2555 14.1357 13.3727 14.4187 13.5851 14.6311L16.4759 17.5219C16.6224 17.6684 16.8144 17.7418 17.0062 17.7418C17.198 17.7418 17.3902 17.6686 17.5365 17.5219C17.8295 17.2288 17.8295 16.7541 17.5365 16.4611L14.7559 13.68V9.48945C14.7559 9.0752 14.4199 8.73926 14.0057 8.73926Z" fill="#E7E7E7"/>
</svg>
