<svg width="28" height="28" viewBox="0 0 28 28" fill="none" xmlns="http://www.w3.org/2000/svg">
<rect width="28" height="28" rx="14" fill="#EEE6DB" fill-opacity="0.3"/>
<path d="M8.0248 17.6647C7 16.8463 7 16.227 7 13.5914C7 10.9558 7 9.63758 8.0248 8.81914C9.051 8 10.7002 8 14 8C17.2998 8 18.9497 8 19.9745 8.81914C20.9993 9.63828 21 10.9558 21 13.5914C21 16.227 21 16.8463 19.9745 17.6647C18.9504 18.4839 17.2998 18.4839 14 18.4839C12.243 18.4839 10.9475 19.7419 9.68746 21L9.8 18.3357C9.0342 18.2218 8.4707 18.0212 8.0248 17.6647Z" stroke="#E7E7E7" stroke-width="1.4" stroke-linecap="round" stroke-linejoin="round"/>
</svg>
