<svg width="28" height="28" viewBox="0 0 28 28" fill="none" xmlns="http://www.w3.org/2000/svg">
<rect width="28" height="28" rx="14" fill="#EEE6DB"/>
<path d="M14.2967 5.50711H14.6372C13.5241 6.56818 12.8086 7.99586 12.6151 9.54197C12.4216 11.0881 12.7623 12.6549 13.5781 13.97C14.3939 15.2851 15.6332 16.2654 17.0805 16.7404C18.5277 17.2155 20.0915 17.1552 21.5 16.5702C20.9582 17.9075 20.0727 19.0689 18.9379 19.9305C17.8031 20.792 16.4616 21.3214 15.0566 21.4621C13.6515 21.6029 12.2355 21.3497 10.9597 20.7297C9.68386 20.1096 8.59604 19.146 7.81226 17.9414C7.02848 16.7369 6.57814 15.3367 6.50928 13.8902C6.44043 12.4437 6.75563 11.0052 7.42127 9.72801C8.08692 8.45087 9.07803 7.38304 10.2889 6.63843C11.4998 5.89382 12.8849 5.50035 14.2967 5.5V5.50711Z" stroke="#424242" stroke-width="1.5" stroke-linecap="round" stroke-linejoin="round"/>
</svg>
