<svg width="28" height="28" viewBox="0 0 28 28" fill="none" xmlns="http://www.w3.org/2000/svg">
<rect width="28" height="28" rx="14" fill="#EEE6DB" fill-opacity="0.3"/>
<path d="M15.6254 6C15.7495 6 15.8704 6.0384 15.9707 6.10967C16.0711 6.18094 16.1456 6.28139 16.1836 6.39657L16.8285 8.34971C17.0994 8.47886 17.3586 8.624 17.606 8.78743L19.6653 8.35543C19.7867 8.33017 19.9132 8.34311 20.0266 8.3924C20.14 8.4417 20.2344 8.52479 20.2962 8.62971L21.9216 11.3714C21.9836 11.4763 22.0099 11.5977 21.9966 11.718C21.9834 11.8384 21.9312 11.9515 21.8477 12.0411L20.4346 13.5611C20.4552 13.8526 20.4552 14.1451 20.4346 14.4366L21.8477 15.9589C21.9312 16.0485 21.9834 16.1616 21.9966 16.282C22.0099 16.4023 21.9836 16.5237 21.9216 16.6286L20.2962 19.3714C20.2342 19.4761 20.1397 19.559 20.0264 19.6081C19.913 19.6572 19.7866 19.6699 19.6653 19.6446L17.606 19.2126C17.3598 19.3749 17.0994 19.5211 16.8297 19.6503L16.1836 21.6034C16.1456 21.7186 16.0711 21.8191 15.9707 21.8903C15.8704 21.9616 15.7495 22 15.6254 22H12.3746C12.2505 22 12.1296 21.9616 12.0293 21.8903C11.9289 21.8191 11.8544 21.7186 11.8164 21.6034L11.1726 19.6514C10.9025 19.5227 10.6419 19.3756 10.3928 19.2114L8.3347 19.6446C8.21329 19.6698 8.08678 19.6569 7.9734 19.6076C7.86002 19.5583 7.76562 19.4752 7.70379 19.3703L6.07844 16.6286C6.01637 16.5237 5.99008 16.4023 6.00336 16.282C6.01664 16.1616 6.0688 16.0485 6.15232 15.9589L7.56542 14.4366C7.54494 14.1459 7.54494 13.8541 7.56542 13.5634L6.15232 12.0411C6.0688 11.9515 6.01664 11.8384 6.00336 11.718C5.99008 11.5977 6.01637 11.4763 6.07844 11.3714L7.70379 8.62857C7.76579 8.52386 7.86026 8.441 7.97363 8.39192C8.087 8.34284 8.21341 8.33006 8.3347 8.35543L10.3928 8.78857C10.6414 8.62514 10.9017 8.47771 11.1726 8.34857L11.8176 6.39657C11.8555 6.28177 11.9296 6.18158 12.0295 6.11034C12.1293 6.03911 12.2497 6.00049 12.3735 6H15.6242H15.6254ZM15.1962 7.14286H12.8039L12.1378 9.16229L11.6886 9.376C11.4678 9.48129 11.2547 9.60119 11.0507 9.73486L10.6355 10.0091L8.50592 9.56114L7.30977 11.5817L8.76977 13.1566L8.73459 13.6411C8.71774 13.8801 8.71774 14.1199 8.73459 14.3589L8.76977 14.8434L7.30742 16.4183L8.50475 18.4389L10.6344 17.992L11.0495 18.2651C11.2535 18.3988 11.4666 18.5187 11.6874 18.624L12.1366 18.8377L12.8039 20.8571H15.1985L15.8669 18.8366L16.3149 18.624C16.5355 18.519 16.7482 18.3991 16.9517 18.2651L17.3656 17.992L19.4964 18.4389L20.6926 16.4183L19.2314 14.8434L19.2666 14.3589C19.2835 14.1195 19.2835 13.8793 19.2666 13.64L19.2314 13.1554L20.6938 11.5817L19.4964 9.56114L17.3656 10.0069L16.9517 9.73486C16.7482 9.60095 16.5355 9.48104 16.3149 9.376L15.8669 9.16343L15.1973 7.14286H15.1962ZM14 10.5714C14.9331 10.5714 15.8279 10.9327 16.4877 11.5756C17.1474 12.2186 17.5181 13.0907 17.5181 14C17.5181 14.9093 17.1474 15.7814 16.4877 16.4244C15.8279 17.0673 14.9331 17.4286 14 17.4286C13.0669 17.4286 12.1721 17.0673 11.5123 16.4244C10.8526 15.7814 10.4819 14.9093 10.4819 14C10.4819 13.0907 10.8526 12.2186 11.5123 11.5756C12.1721 10.9327 13.0669 10.5714 14 10.5714ZM14 11.7143C13.378 11.7143 12.7814 11.9551 12.3416 12.3838C11.9017 12.8124 11.6546 13.3938 11.6546 14C11.6546 14.6062 11.9017 15.1876 12.3416 15.6162C12.7814 16.0449 13.378 16.2857 14 16.2857C14.622 16.2857 15.2186 16.0449 15.6584 15.6162C16.0983 15.1876 16.3454 14.6062 16.3454 14C16.3454 13.3938 16.0983 12.8124 15.6584 12.3838C15.2186 11.9551 14.622 11.7143 14 11.7143Z" fill="#E7E7E7"/>
</svg>
