<svg width="385" height="90" viewBox="0 0 385 90" fill="none" xmlns="http://www.w3.org/2000/svg">
<rect x="11" width="175" height="90" rx="6" fill="white"/>
<path d="M30.382 28.358H29.514L29.234 27.308C29.01 27.448 28.702 27.532 28.324 27.532H27.4C26.672 27.532 26.322 27.112 26.322 26.286V24.27H25.496C25.3 25.894 24.348 27.07 22.612 27.826L21.926 26.734C23.354 26.23 24.166 25.418 24.348 24.27H23.018V20.308H24.586C24.25 19.664 23.886 19.104 23.508 18.628L24.614 18.096C24.978 18.6 25.342 19.174 25.678 19.79L24.656 20.308H26.322C26.686 19.566 27.022 18.782 27.302 17.942L28.562 18.376C28.254 19.09 27.932 19.734 27.596 20.308H28.898V24.27H27.484V26.034C27.484 26.244 27.582 26.356 27.778 26.356H28.114C28.282 26.356 28.408 26.3 28.492 26.188C28.604 26.062 28.674 25.698 28.702 25.082L29.836 25.446C29.752 26.328 29.626 26.888 29.43 27.14L30.102 27.168C30.368 27.168 30.508 26.972 30.508 26.58V17.298H25.202V16.066H31.81V26.958C31.81 27.882 31.334 28.358 30.382 28.358ZM27.694 23.192V21.386H24.222V23.192H27.694ZM20.148 17.816H21.45V28.442H20.148V17.816ZM22.542 15.394C23.102 16.066 23.606 16.794 24.026 17.592L22.85 18.208C22.388 17.354 21.884 16.598 21.338 15.926L22.542 15.394ZM38.516 16.332H41.582V15.408H42.884V16.332H45.936V17.536H42.884V18.488H46.202V19.328C45.964 20.224 45.656 21.106 45.278 21.988L43.99 21.624C44.298 21.064 44.564 20.434 44.788 19.72H37.942V18.488H41.582V17.536H38.516V16.332ZM37.956 23.528H39.944C39.314 22.982 38.67 22.548 38.026 22.212L38.656 21.288C39.412 21.652 40.112 22.1 40.742 22.632L40.154 23.528H41.862C41.918 23.248 41.946 22.954 41.96 22.66V20.07H43.248V22.66C43.234 22.968 43.206 23.248 43.178 23.528H46.426V24.76H42.912C42.87 24.886 42.828 24.998 42.786 25.11C44.158 25.754 45.404 26.524 46.552 27.392L45.81 28.526C44.648 27.546 43.472 26.734 42.268 26.118C42.184 26.23 42.114 26.342 42.03 26.454C41.302 27.35 40.112 28.036 38.474 28.512L37.76 27.406C39.356 26.93 40.448 26.342 41.022 25.628C41.218 25.362 41.372 25.068 41.512 24.76H37.956V23.528ZM39.832 19.874C40.532 20.21 41.19 20.63 41.778 21.12L41.148 22.072C40.532 21.512 39.888 21.078 39.23 20.756L39.832 19.874ZM35.436 15.632C36.332 16.318 37.088 17.004 37.718 17.69L36.808 18.614C36.262 17.97 35.492 17.27 34.498 16.542L35.436 15.632ZM33.532 19.692H36.696V25.432C36.976 25.138 37.27 24.83 37.578 24.494L37.942 25.894C37.186 26.692 36.402 27.406 35.562 28.022L35.058 26.832C35.282 26.636 35.408 26.398 35.408 26.118V20.966H33.532V19.692ZM48.918 15.66C49.842 16.388 50.626 17.116 51.27 17.844L50.318 18.796C49.772 18.096 49.002 17.354 47.994 16.542L48.918 15.66ZM56.926 28.204C56.17 28.204 55.344 28.19 54.462 28.176C53.566 28.162 52.838 28.078 52.264 27.938C51.704 27.77 51.228 27.434 50.808 26.958C50.626 26.72 50.458 26.608 50.29 26.608C50.01 26.608 49.506 27.238 48.792 28.498L47.812 27.588C48.512 26.454 49.142 25.74 49.702 25.46V21.498H47.812V20.266H50.948V25.572C51.004 25.628 51.074 25.684 51.144 25.768C51.452 26.146 51.788 26.426 52.138 26.608C52.544 26.804 53.146 26.93 53.958 26.958C54.742 26.972 55.666 26.986 56.744 26.986C57.416 26.986 58.116 26.972 58.83 26.958C59.53 26.944 60.076 26.916 60.454 26.888L60.132 28.204H56.926ZM52.096 17.62H53.636V15.506H54.91V17.62H56.814V15.52H58.102V17.62H59.768V18.866H58.102V21.344H60.216V22.604H58.102V26.412H56.814V22.604H54.588C54.196 24.214 53.496 25.404 52.46 26.188L51.662 25.124C52.446 24.564 52.992 23.724 53.3 22.604H51.606V21.344H53.552C53.608 20.868 53.636 20.378 53.636 19.86V18.866H52.096V17.62ZM54.91 18.866V19.552C54.91 20.196 54.868 20.784 54.812 21.344H56.814V18.866H54.91ZM64.612 23.206H72.9V24.186C72.186 25.054 71.332 25.782 70.324 26.398C71.514 26.846 72.886 27.182 74.426 27.378L73.852 28.526C71.99 28.218 70.394 27.728 69.064 27.084C67.664 27.742 66.026 28.218 64.178 28.526L63.604 27.364C65.158 27.14 66.544 26.804 67.748 26.342C66.866 25.754 66.138 25.096 65.55 24.34H64.612V23.206ZM66.978 24.34C67.538 24.9 68.196 25.376 68.966 25.796C69.778 25.376 70.492 24.886 71.108 24.34H66.978ZM63.996 20.28V21.064C63.94 24.116 63.45 26.552 62.498 28.4L61.49 27.504C62.246 25.964 62.652 23.808 62.68 21.064V16.5H67.986C67.832 16.192 67.664 15.898 67.496 15.646L68.91 15.422C69.064 15.744 69.218 16.108 69.358 16.5H74.062V17.76H63.996V19.048H66.096V18.11H67.384V19.048H70.674V18.096H71.962V19.048H74.062V20.28H71.962V22.436H66.096V20.28H63.996ZM67.384 20.28V21.33H70.674V20.28H67.384Z" fill="#1F1F1F"/>
<path d="M29.128 53.764H21.688V57.064C21.688 57.52 21.916 57.748 22.372 57.748H28.36C28.576 57.748 28.78 57.676 28.948 57.532C29.14 57.352 29.26 56.632 29.332 55.372L30.448 55.732C30.304 57.244 30.1 58.144 29.848 58.42C29.56 58.684 29.176 58.828 28.684 58.852H22.06C21.04 58.852 20.536 58.324 20.536 57.268V51.028H21.688V52.672H27.964V49.816H20.044V48.724H29.128V53.764ZM35.728 48.856H38.356V48.064H39.472V48.856H42.088V49.888H39.472V50.704H42.316V51.424C42.112 52.192 41.848 52.948 41.524 53.704L40.42 53.392C40.684 52.912 40.912 52.372 41.104 51.76H35.236V50.704H38.356V49.888H35.728V48.856ZM35.248 55.024H36.952C36.412 54.556 35.86 54.184 35.308 53.896L35.848 53.104C36.496 53.416 37.096 53.8 37.636 54.256L37.132 55.024H38.596C38.644 54.784 38.668 54.532 38.68 54.28V52.06H39.784V54.28C39.772 54.544 39.748 54.784 39.724 55.024H42.508V56.08H39.496C39.46 56.188 39.424 56.284 39.388 56.38C40.564 56.932 41.632 57.592 42.616 58.336L41.98 59.308C40.984 58.468 39.976 57.772 38.944 57.244C38.872 57.34 38.812 57.436 38.74 57.532C38.116 58.3 37.096 58.888 35.692 59.296L35.08 58.348C36.448 57.94 37.384 57.436 37.876 56.824C38.044 56.596 38.176 56.344 38.296 56.08H35.248V55.024ZM36.856 51.892C37.456 52.18 38.02 52.54 38.524 52.96L37.984 53.776C37.456 53.296 36.904 52.924 36.34 52.648L36.856 51.892ZM33.088 48.256C33.856 48.844 34.504 49.432 35.044 50.02L34.264 50.812C33.796 50.26 33.136 49.66 32.284 49.036L33.088 48.256ZM31.456 51.736H34.168V56.656C34.408 56.404 34.66 56.14 34.924 55.852L35.236 57.052C34.588 57.736 33.916 58.348 33.196 58.876L32.764 57.856C32.956 57.688 33.064 57.484 33.064 57.244V52.828H31.456V51.736ZM43.708 50.092H48.544C48.232 49.516 47.848 48.976 47.392 48.46L48.532 48.04C48.964 48.616 49.372 49.3 49.744 50.092H54.292V51.22H52.456C51.88 53.044 51.028 54.568 49.9 55.804C51.148 56.824 52.708 57.676 54.556 58.348L53.92 59.308C51.988 58.588 50.38 57.688 49.108 56.608C47.752 57.808 46.084 58.696 44.104 59.272L43.492 58.264C45.436 57.76 47.032 56.968 48.304 55.876C46.984 54.556 46.06 52.996 45.544 51.22H43.708V50.092ZM46.636 51.22C47.14 52.696 47.956 53.992 49.096 55.096C50.068 54.028 50.8 52.732 51.28 51.22H46.636ZM60.448 56.152H57.112V52.288H64.912V56.152H61.6V56.764H66.316V57.772H61.6V59.164H60.448V57.772H55.684V56.764H60.448V56.152ZM58.24 54.652V55.216H63.784V54.652H58.24ZM63.784 53.788V53.224H58.24V53.788H63.784ZM58.216 49.9H56.464V48.928H60.28C60.196 48.688 60.1 48.46 60.004 48.256L61.228 48.064C61.336 48.328 61.432 48.616 61.528 48.928H65.536V49.9H63.832L63.508 50.8H66.16V51.76H55.852V50.8H58.588L58.216 49.9ZM59.728 50.8H62.32L62.644 49.9H59.356L59.728 50.8Z" fill="#AAAFBA"/>
<path d="M29.128 53.764H21.688V57.064C21.688 57.52 21.916 57.748 22.372 57.748H28.36C28.576 57.748 28.78 57.676 28.948 57.532C29.14 57.352 29.26 56.632 29.332 55.372L30.448 55.732C30.304 57.244 30.1 58.144 29.848 58.42C29.56 58.684 29.176 58.828 28.684 58.852H22.06C21.04 58.852 20.536 58.324 20.536 57.268V51.028H21.688V52.672H27.964V49.816H20.044V48.724H29.128V53.764ZM35.728 48.856H38.356V48.064H39.472V48.856H42.088V49.888H39.472V50.704H42.316V51.424C42.112 52.192 41.848 52.948 41.524 53.704L40.42 53.392C40.684 52.912 40.912 52.372 41.104 51.76H35.236V50.704H38.356V49.888H35.728V48.856ZM35.248 55.024H36.952C36.412 54.556 35.86 54.184 35.308 53.896L35.848 53.104C36.496 53.416 37.096 53.8 37.636 54.256L37.132 55.024H38.596C38.644 54.784 38.668 54.532 38.68 54.28V52.06H39.784V54.28C39.772 54.544 39.748 54.784 39.724 55.024H42.508V56.08H39.496C39.46 56.188 39.424 56.284 39.388 56.38C40.564 56.932 41.632 57.592 42.616 58.336L41.98 59.308C40.984 58.468 39.976 57.772 38.944 57.244C38.872 57.34 38.812 57.436 38.74 57.532C38.116 58.3 37.096 58.888 35.692 59.296L35.08 58.348C36.448 57.94 37.384 57.436 37.876 56.824C38.044 56.596 38.176 56.344 38.296 56.08H35.248V55.024ZM36.856 51.892C37.456 52.18 38.02 52.54 38.524 52.96L37.984 53.776C37.456 53.296 36.904 52.924 36.34 52.648L36.856 51.892ZM33.088 48.256C33.856 48.844 34.504 49.432 35.044 50.02L34.264 50.812C33.796 50.26 33.136 49.66 32.284 49.036L33.088 48.256ZM31.456 51.736H34.168V56.656C34.408 56.404 34.66 56.14 34.924 55.852L35.236 57.052C34.588 57.736 33.916 58.348 33.196 58.876L32.764 57.856C32.956 57.688 33.064 57.484 33.064 57.244V52.828H31.456V51.736ZM43.708 50.092H48.544C48.232 49.516 47.848 48.976 47.392 48.46L48.532 48.04C48.964 48.616 49.372 49.3 49.744 50.092H54.292V51.22H52.456C51.88 53.044 51.028 54.568 49.9 55.804C51.148 56.824 52.708 57.676 54.556 58.348L53.92 59.308C51.988 58.588 50.38 57.688 49.108 56.608C47.752 57.808 46.084 58.696 44.104 59.272L43.492 58.264C45.436 57.76 47.032 56.968 48.304 55.876C46.984 54.556 46.06 52.996 45.544 51.22H43.708V50.092ZM46.636 51.22C47.14 52.696 47.956 53.992 49.096 55.096C50.068 54.028 50.8 52.732 51.28 51.22H46.636ZM60.448 56.152H57.112V52.288H64.912V56.152H61.6V56.764H66.316V57.772H61.6V59.164H60.448V57.772H55.684V56.764H60.448V56.152ZM58.24 54.652V55.216H63.784V54.652H58.24ZM63.784 53.788V53.224H58.24V53.788H63.784ZM58.216 49.9H56.464V48.928H60.28C60.196 48.688 60.1 48.46 60.004 48.256L61.228 48.064C61.336 48.328 61.432 48.616 61.528 48.928H65.536V49.9H63.832L63.508 50.8H66.16V51.76H55.852V50.8H58.588L58.216 49.9ZM59.728 50.8H62.32L62.644 49.9H59.356L59.728 50.8Z" fill="#D7942B"/>
<path d="M102.654 54.76H108.414V57H99.6139L99.6779 55.992C99.7206 55.224 99.8433 54.5573 100.046 53.992C100.195 53.608 100.377 53.2667 100.59 52.968C101.134 52.2747 101.945 51.7147 103.022 51.288L103.918 50.888C104.537 50.632 104.974 50.3653 105.23 50.088C105.497 49.8 105.63 49.4427 105.63 49.016C105.63 48.5573 105.491 48.2053 105.214 47.96C104.937 47.7147 104.542 47.592 104.03 47.592C102.889 47.592 102.318 48.2 102.318 49.416H99.7419C99.7313 48.136 100.094 47.1387 100.83 46.424C101.566 45.7093 102.654 45.352 104.094 45.352C105.406 45.352 106.441 45.672 107.198 46.312C107.945 46.952 108.318 47.768 108.318 48.76C108.318 49.7413 108.057 50.5253 107.534 51.112C107.001 51.7093 106.169 52.264 105.038 52.776L104.094 53.224C103.593 53.4587 103.235 53.688 103.022 53.912C102.819 54.1253 102.697 54.408 102.654 54.76ZM112.545 54.76H118.305V57H109.505L109.569 55.992C109.611 55.224 109.734 54.5573 109.937 53.992C110.086 53.608 110.267 53.2667 110.481 52.968C111.025 52.2747 111.835 51.7147 112.913 51.288L113.809 50.888C114.427 50.632 114.865 50.3653 115.121 50.088C115.387 49.8 115.521 49.4427 115.521 49.016C115.521 48.5573 115.382 48.2053 115.105 47.96C114.827 47.7147 114.433 47.592 113.921 47.592C112.779 47.592 112.209 48.2 112.209 49.416H109.633C109.622 48.136 109.985 47.1387 110.721 46.424C111.457 45.7093 112.545 45.352 113.985 45.352C115.297 45.352 116.331 45.672 117.089 46.312C117.835 46.952 118.209 47.768 118.209 48.76C118.209 49.7413 117.947 50.5253 117.425 51.112C116.891 51.7093 116.059 52.264 114.929 52.776L113.985 53.224C113.483 53.4587 113.126 53.688 112.913 53.912C112.71 54.1253 112.587 54.408 112.545 54.76ZM127.61 55.704C126.8 56.7387 125.594 57.256 123.994 57.256C122.394 57.256 121.189 56.7387 120.378 55.704C119.546 54.68 119.13 53.2133 119.13 51.304C119.13 49.4053 119.546 47.9333 120.378 46.888C121.2 45.864 122.405 45.352 123.994 45.352C125.584 45.352 126.789 45.864 127.61 46.888C128.432 47.9333 128.842 49.4053 128.842 51.304C128.842 53.2027 128.432 54.6693 127.61 55.704ZM122.458 54.136C122.789 54.7227 123.301 55.016 123.994 55.016C124.688 55.016 125.2 54.7227 125.53 54.136C125.861 53.5707 126.026 52.6267 126.026 51.304C126.026 50.0133 125.856 49.0747 125.514 48.488C125.184 47.8907 124.677 47.592 123.994 47.592C123.301 47.592 122.784 47.8907 122.442 48.488C122.112 49.0747 121.946 50.0133 121.946 51.304C121.946 52.6053 122.117 53.5493 122.458 54.136ZM131.502 57H129.086L133.166 45.608H135.582L131.502 57ZM143.176 50.92C143.795 51.144 144.275 51.496 144.616 51.976C144.968 52.456 145.144 53.0267 145.144 53.688C145.144 54.744 144.744 55.6027 143.944 56.264C143.134 56.9253 142.03 57.256 140.632 57.256C139.075 57.256 137.891 56.888 137.08 56.152C136.27 55.416 135.864 54.3707 135.864 53.016H138.456C138.467 53.72 138.638 54.232 138.968 54.552C139.31 54.8613 139.832 55.016 140.536 55.016C141.112 55.016 141.56 54.888 141.88 54.632C142.2 54.3653 142.36 54.008 142.36 53.56C142.36 52.536 141.72 52.024 140.44 52.024H139.592V50.12H140.488C141.651 50.12 142.232 49.6667 142.232 48.76C142.232 48.3653 142.088 48.0507 141.8 47.816C141.512 47.5813 141.102 47.464 140.568 47.464C139.992 47.464 139.555 47.592 139.256 47.848C138.968 48.0933 138.803 48.488 138.76 49.032H136.168C136.254 46.5787 137.726 45.352 140.584 45.352C141.896 45.352 142.926 45.6347 143.672 46.2C144.43 46.7653 144.808 47.5333 144.808 48.504C144.808 49.0267 144.659 49.5013 144.36 49.928C144.072 50.3547 143.678 50.6853 143.176 50.92ZM154.563 55.704C153.753 56.7387 152.547 57.256 150.947 57.256C149.347 57.256 148.142 56.7387 147.331 55.704C146.499 54.68 146.083 53.2133 146.083 51.304C146.083 49.4053 146.499 47.9333 147.331 46.888C148.153 45.864 149.358 45.352 150.947 45.352C152.537 45.352 153.742 45.864 154.563 46.888C155.385 47.9333 155.795 49.4053 155.795 51.304C155.795 53.2027 155.385 54.6693 154.563 55.704ZM149.411 54.136C149.742 54.7227 150.254 55.016 150.947 55.016C151.641 55.016 152.153 54.7227 152.483 54.136C152.814 53.5707 152.979 52.6267 152.979 51.304C152.979 50.0133 152.809 49.0747 152.467 48.488C152.137 47.8907 151.63 47.592 150.947 47.592C150.254 47.592 149.737 47.8907 149.395 48.488C149.065 49.0747 148.899 50.0133 148.899 51.304C148.899 52.6053 149.07 53.5493 149.411 54.136ZM165.345 55.704C164.534 56.7387 163.329 57.256 161.729 57.256C160.129 57.256 158.923 56.7387 158.113 55.704C157.281 54.68 156.865 53.2133 156.865 51.304C156.865 49.4053 157.281 47.9333 158.113 46.888C158.934 45.864 160.139 45.352 161.729 45.352C163.318 45.352 164.523 45.864 165.345 46.888C166.166 47.9333 166.577 49.4053 166.577 51.304C166.577 53.2027 166.166 54.6693 165.345 55.704ZM160.193 54.136C160.523 54.7227 161.035 55.016 161.729 55.016C162.422 55.016 162.934 54.7227 163.265 54.136C163.595 53.5707 163.761 52.6267 163.761 51.304C163.761 50.0133 163.59 49.0747 163.249 48.488C162.918 47.8907 162.411 47.592 161.729 47.592C161.035 47.592 160.518 47.8907 160.177 48.488C159.846 49.0747 159.681 50.0133 159.681 51.304C159.681 52.6053 159.851 53.5493 160.193 54.136ZM176.126 55.704C175.315 56.7387 174.11 57.256 172.51 57.256C170.91 57.256 169.705 56.7387 168.894 55.704C168.062 54.68 167.646 53.2133 167.646 51.304C167.646 49.4053 168.062 47.9333 168.894 46.888C169.715 45.864 170.921 45.352 172.51 45.352C174.099 45.352 175.305 45.864 176.126 46.888C176.947 47.9333 177.358 49.4053 177.358 51.304C177.358 53.2027 176.947 54.6693 176.126 55.704ZM170.974 54.136C171.305 54.7227 171.817 55.016 172.51 55.016C173.203 55.016 173.715 54.7227 174.046 54.136C174.377 53.5707 174.542 52.6267 174.542 51.304C174.542 50.0133 174.371 49.0747 174.03 48.488C173.699 47.8907 173.193 47.592 172.51 47.592C171.817 47.592 171.299 47.8907 170.958 48.488C170.627 49.0747 170.462 50.0133 170.462 51.304C170.462 52.6053 170.633 53.5493 170.974 54.136Z" fill="url(#paint0_linear_4395_5793)"/>
<rect x="19" y="66" width="159" height="12" rx="6" fill="#D9D9D9"/>
<rect x="19" y="66" width="47.1111" height="12" rx="6" fill="#D7942B"/>
<rect x="19" y="66" width="47.1111" height="12" rx="6" fill="url(#paint1_linear_4395_5793)"/>
<rect x="194.5" y="0.5" width="174" height="89" rx="5.5" fill="white"/>
<rect x="194.5" y="0.5" width="174" height="89" rx="5.5" stroke="white"/>
<path d="M208.156 22.064C207.75 22.568 207.316 23.044 206.868 23.52L206.434 22.106C207.89 20.482 208.968 18.592 209.654 16.436L210.9 17.024C210.536 18.116 210.074 19.166 209.486 20.146V29.442H208.156V22.064ZM217.578 22.092C218.25 23.73 218.838 25.48 219.328 27.342L218.166 27.874C217.634 25.844 217.046 24.052 216.402 22.484L217.578 22.092ZM212.636 19.404C212.216 20.44 211.726 21.378 211.166 22.246L210.018 21.532C211.068 19.978 211.81 18.312 212.244 16.52L213.49 16.786C213.364 17.248 213.238 17.696 213.098 18.116H218.978V18.984C218.754 19.824 218.488 20.664 218.152 21.504L216.878 21.14C217.158 20.636 217.41 20.048 217.606 19.404H212.636ZM214.246 29.344H212.454L212.16 28.084C212.734 28.14 213.28 28.182 213.798 28.182C214.134 28.182 214.302 28 214.302 27.636V20.426H215.59V27.972C215.59 28.882 215.142 29.344 214.246 29.344ZM212.02 22.232L213.21 22.568C212.72 24.5 212.09 26.18 211.306 27.636L210.06 27.188C210.802 25.886 211.46 24.234 212.02 22.232ZM231.816 23.058H223.136V26.908C223.136 27.44 223.402 27.706 223.934 27.706H230.92C231.172 27.706 231.41 27.622 231.606 27.454C231.83 27.244 231.97 26.404 232.054 24.934L233.356 25.354C233.188 27.118 232.95 28.168 232.656 28.49C232.32 28.798 231.872 28.966 231.298 28.994H223.57C222.38 28.994 221.792 28.378 221.792 27.146V19.866H223.136V21.784H230.458V18.452H221.218V17.178H231.816V23.058ZM245.382 29.358H244.514L244.234 28.308C244.01 28.448 243.702 28.532 243.324 28.532H242.4C241.672 28.532 241.322 28.112 241.322 27.286V25.27H240.496C240.3 26.894 239.348 28.07 237.612 28.826L236.926 27.734C238.354 27.23 239.166 26.418 239.348 25.27H238.018V21.308H239.586C239.25 20.664 238.886 20.104 238.508 19.628L239.614 19.096C239.978 19.6 240.342 20.174 240.678 20.79L239.656 21.308H241.322C241.686 20.566 242.022 19.782 242.302 18.942L243.562 19.376C243.254 20.09 242.932 20.734 242.596 21.308H243.898V25.27H242.484V27.034C242.484 27.244 242.582 27.356 242.778 27.356H243.114C243.282 27.356 243.408 27.3 243.492 27.188C243.604 27.062 243.674 26.698 243.702 26.082L244.836 26.446C244.752 27.328 244.626 27.888 244.43 28.14L245.102 28.168C245.368 28.168 245.508 27.972 245.508 27.58V18.298H240.202V17.066H246.81V27.958C246.81 28.882 246.334 29.358 245.382 29.358ZM242.694 24.192V22.386H239.222V24.192H242.694ZM235.148 18.816H236.45V29.442H235.148V18.816ZM237.542 16.394C238.102 17.066 238.606 17.794 239.026 18.592L237.85 19.208C237.388 18.354 236.884 17.598 236.338 16.926L237.542 16.394ZM253.516 17.332H256.582V16.408H257.884V17.332H260.936V18.536H257.884V19.488H261.202V20.328C260.964 21.224 260.656 22.106 260.278 22.988L258.99 22.624C259.298 22.064 259.564 21.434 259.788 20.72H252.942V19.488H256.582V18.536H253.516V17.332ZM252.956 24.528H254.944C254.314 23.982 253.67 23.548 253.026 23.212L253.656 22.288C254.412 22.652 255.112 23.1 255.742 23.632L255.154 24.528H256.862C256.918 24.248 256.946 23.954 256.96 23.66V21.07H258.248V23.66C258.234 23.968 258.206 24.248 258.178 24.528H261.426V25.76H257.912C257.87 25.886 257.828 25.998 257.786 26.11C259.158 26.754 260.404 27.524 261.552 28.392L260.81 29.526C259.648 28.546 258.472 27.734 257.268 27.118C257.184 27.23 257.114 27.342 257.03 27.454C256.302 28.35 255.112 29.036 253.474 29.512L252.76 28.406C254.356 27.93 255.448 27.342 256.022 26.628C256.218 26.362 256.372 26.068 256.512 25.76H252.956V24.528ZM254.832 20.874C255.532 21.21 256.19 21.63 256.778 22.12L256.148 23.072C255.532 22.512 254.888 22.078 254.23 21.756L254.832 20.874ZM250.436 16.632C251.332 17.318 252.088 18.004 252.718 18.69L251.808 19.614C251.262 18.97 250.492 18.27 249.498 17.542L250.436 16.632ZM248.532 20.692H251.696V26.432C251.976 26.138 252.27 25.83 252.578 25.494L252.942 26.894C252.186 27.692 251.402 28.406 250.562 29.022L250.058 27.832C250.282 27.636 250.408 27.398 250.408 27.118V21.966H248.532V20.692Z" fill="#1F1F1F"/>
<path d="M211.321 59.336H214.247V75H210.529V65.21H206.877V62.68L207.229 62.658C208.388 62.5847 209.297 62.2987 209.957 61.8C210.617 61.2867 211.072 60.4653 211.321 59.336ZM220.323 59.336H223.249V75H219.531V65.21H215.879V62.68L216.231 62.658C217.39 62.5847 218.299 62.2987 218.959 61.8C219.619 61.2867 220.074 60.4653 220.323 59.336ZM236.867 73.218C235.753 74.6407 234.096 75.352 231.896 75.352C229.696 75.352 228.038 74.6407 226.924 73.218C225.78 71.81 225.208 69.7933 225.208 67.168C225.208 64.5573 225.78 62.5333 226.924 61.096C228.053 59.688 229.71 58.984 231.896 58.984C234.081 58.984 235.738 59.688 236.867 61.096C237.997 62.5333 238.562 64.5573 238.562 67.168C238.562 69.7787 237.997 71.7953 236.867 73.218ZM229.784 71.062C230.238 71.8687 230.942 72.272 231.896 72.272C232.849 72.272 233.553 71.8687 234.008 71.062C234.462 70.2847 234.69 68.9867 234.69 67.168C234.69 65.3933 234.455 64.1027 233.986 63.296C233.531 62.4747 232.834 62.064 231.896 62.064C230.942 62.064 230.231 62.4747 229.762 63.296C229.307 64.1027 229.08 65.3933 229.08 67.168C229.08 68.9573 229.314 70.2553 229.784 71.062ZM243.474 75H239.602V71.216H243.474V75ZM249.023 71.92H256.943V75H244.843L244.931 73.614C244.99 72.558 245.159 71.6413 245.437 70.864C245.643 70.336 245.892 69.8667 246.185 69.456C246.933 68.5027 248.048 67.7327 249.529 67.146L250.761 66.596C251.612 66.244 252.213 65.8773 252.565 65.496C252.932 65.1 253.115 64.6087 253.115 64.022C253.115 63.3913 252.925 62.9073 252.543 62.57C252.162 62.2327 251.619 62.064 250.915 62.064C249.346 62.064 248.561 62.9 248.561 64.572H245.019C245.005 62.812 245.503 61.4407 246.515 60.458C247.527 59.4753 249.023 58.984 251.003 58.984C252.807 58.984 254.23 59.424 255.271 60.304C256.298 61.184 256.811 62.306 256.811 63.67C256.811 65.0193 256.452 66.0973 255.733 66.904C255 67.7253 253.856 68.488 252.301 69.192L251.003 69.808C250.314 70.1307 249.823 70.446 249.529 70.754C249.251 71.0473 249.082 71.436 249.023 71.92Z" fill="url(#paint2_linear_4395_5793)"/>
<path d="M268.23 74.288H266.172L265.85 72.902C266.522 72.958 267.138 73 267.726 73C268.258 73 268.538 72.72 268.538 72.174V61.73H269.924V72.524C269.924 73.7 269.35 74.288 268.23 74.288ZM264.772 64.978L266.102 65.51C265.458 68.268 264.604 70.382 263.554 71.838L262.392 70.816C263.456 69.36 264.254 67.414 264.772 64.978ZM273.2 64.628C274.208 67.092 274.992 69.234 275.538 71.082L274.334 71.908C273.746 69.962 272.962 67.792 271.982 65.384L273.2 64.628ZM281.278 62.486V72.972H279.99V72.104H278.31V73.308H277.008V62.486H281.278ZM278.31 70.872H279.99V67.834H278.31V70.872ZM278.31 66.588H279.99V63.69H278.31V66.588ZM283.378 66.714C284.232 68.016 284.89 69.15 285.338 70.13L284.232 70.9C283.742 69.864 283.084 68.688 282.272 67.4L283.378 66.714ZM286.43 74.302H283.952L283.658 73.014C284.47 73.056 285.24 73.084 285.982 73.084C286.318 73.084 286.486 72.902 286.486 72.538V65.258H281.824V63.984H286.486V61.632H287.844V63.984H289.412V65.258H287.844V72.874C287.844 73.826 287.368 74.302 286.43 74.302Z" fill="#1F1F1F"/>
<path d="M320.843 66.64C321.694 66.948 322.354 67.432 322.823 68.092C323.307 68.752 323.549 69.5367 323.549 70.446C323.549 71.898 322.999 73.0787 321.899 73.988C320.784 74.8973 319.266 75.352 317.345 75.352C315.204 75.352 313.576 74.846 312.461 73.834C311.346 72.822 310.789 71.3847 310.789 69.522H314.353C314.368 70.49 314.602 71.194 315.057 71.634C315.526 72.0593 316.245 72.272 317.213 72.272C318.005 72.272 318.621 72.096 319.061 71.744C319.501 71.3773 319.721 70.886 319.721 70.27C319.721 68.862 318.841 68.158 317.081 68.158H315.915V65.54H317.147C318.746 65.54 319.545 64.9167 319.545 63.67C319.545 63.1273 319.347 62.6947 318.951 62.372C318.555 62.0493 317.99 61.888 317.257 61.888C316.465 61.888 315.864 62.064 315.453 62.416C315.057 62.7533 314.83 63.296 314.771 64.044H311.207C311.324 60.6707 313.348 58.984 317.279 58.984C319.083 58.984 320.498 59.3727 321.525 60.15C322.566 60.9273 323.087 61.9833 323.087 63.318C323.087 64.0367 322.882 64.6893 322.471 65.276C322.075 65.8627 321.532 66.3173 320.843 66.64ZM336.5 73.218C335.386 74.6407 333.728 75.352 331.528 75.352C329.328 75.352 327.671 74.6407 326.556 73.218C325.412 71.81 324.84 69.7933 324.84 67.168C324.84 64.5573 325.412 62.5333 326.556 61.096C327.686 59.688 329.343 58.984 331.528 58.984C333.714 58.984 335.371 59.688 336.5 61.096C337.63 62.5333 338.194 64.5573 338.194 67.168C338.194 69.7787 337.63 71.7953 336.5 73.218ZM329.416 71.062C329.871 71.8687 330.575 72.272 331.528 72.272C332.482 72.272 333.186 71.8687 333.64 71.062C334.095 70.2847 334.322 68.9867 334.322 67.168C334.322 65.3933 334.088 64.1027 333.618 63.296C333.164 62.4747 332.467 62.064 331.528 62.064C330.575 62.064 329.864 62.4747 329.394 63.296C328.94 64.1027 328.712 65.3933 328.712 67.168C328.712 68.9573 328.947 70.2553 329.416 71.062Z" fill="url(#paint3_linear_4395_5793)"/>
<path d="M344.064 66.364H349.034C349.188 65.482 349.3 64.516 349.356 63.466H344.428V62.192H355.572V63.466H350.7C350.63 64.53 350.518 65.496 350.378 66.364H355.978V67.638H351.008C351.988 70.144 353.794 72.076 356.44 73.434L355.614 74.512C352.884 73.028 351.008 70.928 349.972 68.226C349.748 69.01 349.496 69.668 349.188 70.2C348.25 71.866 346.654 73.308 344.414 74.526L343.574 73.434C345.618 72.37 347.074 71.124 347.942 69.668C348.264 69.122 348.53 68.45 348.754 67.638H344.064V66.364Z" fill="#1F1F1F"/>
<defs>
<linearGradient id="paint0_linear_4395_5793" x1="171" y1="57" x2="108" y2="46" gradientUnits="userSpaceOnUse">
<stop stop-color="#EFB550"/>
<stop offset="0.518075" stop-color="#D7942B"/>
<stop offset="1" stop-color="#B68A33"/>
</linearGradient>
<linearGradient id="paint1_linear_4395_5793" x1="61.9367" y1="75.2727" x2="24.5829" y2="68.1422" gradientUnits="userSpaceOnUse">
<stop stop-color="#EFB550"/>
<stop offset="0.518075" stop-color="#D7942B"/>
<stop offset="1" stop-color="#B68A33"/>
</linearGradient>
<linearGradient id="paint2_linear_4395_5793" x1="253.392" y1="73" x2="211.217" y2="68.1528" gradientUnits="userSpaceOnUse">
<stop stop-color="#EFB550"/>
<stop offset="0.518075" stop-color="#D7942B"/>
<stop offset="1" stop-color="#B68A33"/>
</linearGradient>
<linearGradient id="paint3_linear_4395_5793" x1="336.43" y1="73" x2="312.696" y2="71.4788" gradientUnits="userSpaceOnUse">
<stop stop-color="#EFB550"/>
<stop offset="0.518075" stop-color="#D7942B"/>
<stop offset="1" stop-color="#B68A33"/>
</linearGradient>
</defs>
</svg>
