<svg width="385" height="52" viewBox="0 0 385 52" fill="none" xmlns="http://www.w3.org/2000/svg">
<rect x="11.5" y="0.5" width="357" height="51" rx="5.5" fill="white"/>
<rect x="11.5" y="0.5" width="357" height="51" rx="5.5" stroke="white"/>
<rect x="23" y="12" width="28" height="28" rx="14" fill="#EEE6DB"/>
<path d="M43.3679 19.6286C40.0284 16.2891 34.7001 16.1341 31.167 19.1494V17.9085C31.167 17.4943 30.831 17.1583 30.4168 17.1583C30.0025 17.1583 29.6666 17.4943 29.6666 17.9085V20.9093C29.6666 21.3235 30.0025 21.6595 30.4168 21.6595H33.4175C33.8318 21.6595 34.1677 21.3235 34.1677 20.9093C34.1677 20.4951 33.8318 20.1591 33.4175 20.1591H32.2887C35.2321 17.7787 39.5717 17.954 42.3071 20.6894C45.2316 23.6144 45.2316 28.3742 42.3071 31.299C39.3818 34.2235 34.6228 34.2235 31.6975 31.299C30.2806 29.882 29.5004 27.9981 29.5004 25.9942C29.5004 25.5799 29.1644 25.244 28.7502 25.244C28.3359 25.244 28 25.5799 28 25.9942C28 28.399 28.9363 30.6599 30.6367 32.3598C32.3917 34.1148 34.6969 34.9925 37.0023 34.9925C39.3075 34.9925 41.6129 34.1148 43.3679 32.3598C46.8774 28.8498 46.8774 23.1385 43.3679 19.6286Z" fill="#1F1F1F"/>
<path d="M37.0058 20.7393C36.5916 20.7393 36.2556 21.0752 36.2556 21.4894V25.8354C36.2556 26.1357 36.3728 26.4187 36.5852 26.6311L39.476 29.5219C39.6226 29.6684 39.8146 29.7418 40.0063 29.7418C40.1981 29.7418 40.3903 29.6686 40.5366 29.5219C40.8297 29.2288 40.8297 28.7541 40.5366 28.4611L37.756 25.68V21.4894C37.756 21.0752 37.4201 20.7393 37.0058 20.7393Z" fill="#1F1F1F"/>
<path d="M60.68 19.688C61.52 20.388 62.234 21.102 62.808 21.802L61.884 22.726C61.38 22.054 60.666 21.34 59.756 20.57L60.68 19.688ZM60.47 22.95C61.296 23.65 61.996 24.336 62.556 25.022L61.632 25.946C61.142 25.288 60.456 24.588 59.56 23.832L60.47 22.95ZM61.786 26.94L62.962 27.402C62.346 29.152 61.66 30.804 60.904 32.344L59.7 31.826C60.512 30.23 61.198 28.592 61.786 26.94ZM63.088 21.746H64.866C64.67 21.032 64.446 20.374 64.194 19.758L65.538 19.534C65.734 20.178 65.93 20.92 66.126 21.746H67.834V23.034H67.26C67.022 24.77 66.728 26.24 66.364 27.444C67.008 28.564 67.554 29.586 67.988 30.524L66.938 31.266C66.588 30.51 66.196 29.74 65.776 28.942C65.118 30.258 64.208 31.448 63.06 32.498L62.234 31.448C63.41 30.384 64.278 29.222 64.866 27.934C64.922 27.808 64.964 27.682 65.006 27.57C64.474 26.632 63.872 25.666 63.228 24.658L64.236 24.014C64.684 24.7 65.104 25.358 65.496 26.002C65.72 25.106 65.902 24.126 66.042 23.034H63.088V21.746ZM68.478 20.738H69.71V29.418H68.478V20.738ZM70.62 32.316H68.73L68.436 31.028C69.038 31.084 69.612 31.112 70.158 31.112C70.522 31.112 70.704 30.916 70.704 30.552V19.562H71.978V30.888C71.978 31.84 71.516 32.316 70.62 32.316ZM83.836 24.574V29.67H82.534V25.778H77.312V29.684H75.996V24.574H83.836ZM79.132 26.562H80.434V27.542C80.42 27.752 80.392 27.962 80.364 28.158H81.54V30.426C81.54 30.804 81.736 31 82.128 31H84.228C84.452 31 84.62 30.916 84.732 30.776C84.858 30.608 84.942 30.09 84.998 29.25L86.216 29.656C86.118 30.888 85.922 31.63 85.642 31.882C85.39 32.106 84.998 32.218 84.466 32.218H81.736C80.756 32.218 80.266 31.714 80.266 30.706V28.634C80.042 29.502 79.608 30.216 78.978 30.804C78.082 31.56 76.64 32.134 74.652 32.54L73.896 31.364C75.884 30.986 77.242 30.51 77.97 29.936C78.67 29.32 79.062 28.522 79.132 27.542V26.562ZM77.27 19.534H78.586V24.126H77.27V19.534ZM74.526 20.108H75.814V23.692H74.526V20.108ZM81.61 21.69C81.176 22.488 80.672 23.16 80.098 23.692L79.104 22.768C80.028 21.83 80.714 20.71 81.134 19.422L82.408 19.758L82.156 20.472H86.048V21.69H81.61ZM82.87 21.914C83.668 22.362 84.396 22.908 85.068 23.538L84.242 24.476C83.57 23.776 82.828 23.188 82.044 22.684L82.87 21.914ZM100.622 28.522C100.482 29.95 100.272 30.902 99.992 31.35C99.726 31.77 99.166 31.994 98.312 31.994H94.658C93.748 31.994 93.3 31.518 93.3 30.594V24.308H98.242V21.382H92.712V20.094H99.516V25.582H94.602V30.076C94.602 30.496 94.812 30.706 95.232 30.734H98.074C98.578 30.734 98.9 30.538 99.026 30.174C99.138 29.81 99.236 29.11 99.292 28.074L100.622 28.522ZM89.422 19.632C90.332 20.318 91.102 21.004 91.732 21.704L90.822 22.628C90.262 21.97 89.492 21.27 88.498 20.542L89.422 19.632ZM87.574 23.692H90.808V29.726C91.284 29.334 91.802 28.9 92.334 28.41L92.684 29.81C91.746 30.636 90.752 31.378 89.688 32.022L89.184 30.832C89.408 30.636 89.534 30.398 89.534 30.118V24.966H87.574V23.692ZM103.366 19.968H111.64V24.49H114.048V25.708H108.574V27.136C108.868 27.458 109.176 27.766 109.512 28.06C110.45 27.528 111.262 26.772 111.934 25.778L112.956 26.632C112.214 27.556 111.374 28.284 110.422 28.802C111.486 29.586 112.704 30.272 114.104 30.874L113.432 32.05C111.416 31.098 109.806 29.95 108.574 28.606V31.028C108.574 31.98 108.154 32.456 107.342 32.456H105.718L105.424 31.196C105.942 31.252 106.432 31.294 106.894 31.294C107.132 31.294 107.258 31.098 107.258 30.72V28.676C105.858 29.908 104.206 31.014 102.302 32.008L101.77 30.776C103.884 29.81 105.718 28.648 107.258 27.29V25.708H101.966V24.49H110.282V23.412H103.842V22.264H110.282V21.158H103.366V19.968ZM103.646 26.002C104.472 26.576 105.172 27.15 105.732 27.71L104.864 28.578C104.36 28.046 103.66 27.472 102.764 26.856L103.646 26.002Z" fill="#1F1F1F"/>
<path d="M346.746 31.4543L352.186 26.0143C352.205 25.9084 352.205 25.8001 352.186 25.6943L346.746 20.2543C346.704 20.236 346.586 20.2351 346.426 20.2543L345.786 20.8943C345.768 21.0613 345.767 21.1823 345.786 21.2143L350.266 25.6943C350.298 25.7416 350.315 25.7973 350.315 25.8543C350.315 25.9113 350.298 25.9669 350.266 26.0143L345.786 30.4943C345.768 30.5256 345.767 30.646 345.786 30.8143L346.426 31.4543C346.584 31.4725 346.704 31.4735 346.746 31.4543Z" fill="#1F1F1F" fill-opacity="0.5"/>
</svg>
