<svg width="385" height="52" viewBox="0 0 385 52" fill="none" xmlns="http://www.w3.org/2000/svg">
<rect x="11.5" y="0.5" width="357" height="51" rx="5.5" fill="url(#paint0_linear_4394_5629)"/>
<rect x="11.5" y="0.5" width="357" height="51" rx="5.5" stroke="#FCC269"/>
<g clip-path="url(#clip0_4394_5629)">
<path d="M33 36C27.4772 36 23 31.5228 23 26C23 20.4772 27.4772 16 33 16C38.5228 16 43 20.4772 43 26C43 31.5228 38.5228 36 33 36ZM38.5556 24.3744C38.5535 24.0057 38.4077 23.6523 38.1492 23.3894C38.0199 23.2599 37.8663 23.157 37.6973 23.0869C37.5282 23.0167 37.3469 22.9806 37.1639 22.9806C36.9808 22.9806 36.7996 23.0167 36.6305 23.0869C36.4615 23.157 36.3079 23.2599 36.1786 23.3894C36.0454 23.5158 35.9403 23.6688 35.8703 23.8386C35.8003 24.0083 35.7669 24.1909 35.7722 24.3744C35.7691 24.5577 35.8036 24.7396 35.8735 24.909C35.9434 25.0784 36.0472 25.2317 36.1786 25.3594C36.2269 25.4183 36.2853 25.4683 36.3508 25.5072C36.1169 25.7428 35.813 25.8965 35.4846 25.9453C35.1561 25.9941 34.8207 25.9355 34.5283 25.7781C34.075 25.5312 33.7319 25.1221 33.5678 24.6328C33.5551 24.2974 33.5882 23.962 33.6661 23.6356C33.8865 23.5142 34.0702 23.336 34.198 23.1193C34.3258 22.9027 34.3931 22.6557 34.3928 22.4042C34.3938 22.2212 34.3583 22.0399 34.2886 21.8708C34.2188 21.7017 34.1161 21.5482 33.9864 21.4192C33.8588 21.2866 33.7058 21.1811 33.5365 21.109C33.3672 21.037 33.1851 20.9998 33.0011 20.9998C32.8171 20.9998 32.635 21.037 32.4657 21.109C32.2964 21.1811 32.1434 21.2866 32.0158 21.4192C31.7562 21.6813 31.6102 22.0352 31.6094 22.4042C31.6114 22.773 31.7572 23.1265 32.0158 23.3894C32.1258 23.4931 32.2503 23.5803 32.3853 23.6478C32.469 23.9565 32.4942 24.2781 32.4594 24.5961C32.2965 25.096 31.9483 25.5145 31.4864 25.7656C31.1867 25.9225 30.8446 25.9797 30.5101 25.9288C30.1756 25.8779 29.8661 25.7215 29.6267 25.4825C29.8095 25.3527 29.9585 25.181 30.0614 24.9818C30.1642 24.7826 30.2179 24.5617 30.2178 24.3375C30.2081 23.977 30.059 23.6344 29.8017 23.3818C29.5445 23.1291 29.1992 22.9862 28.8386 22.9831C28.4698 22.9851 28.1163 23.1309 27.8533 23.3894C27.7238 23.5187 27.6209 23.6722 27.5508 23.8412C27.4807 24.0102 27.4445 24.1914 27.4445 24.3744C27.4445 24.5574 27.4807 24.7386 27.5508 24.9077C27.6209 25.0767 27.7238 25.2302 27.8533 25.3594C28.0204 25.5284 28.2282 25.6513 28.4567 25.7164L29.6144 30.5431C29.6443 30.6614 29.7124 30.7666 29.8081 30.8423C29.9038 30.918 30.0219 30.9599 30.1439 30.9617H35.8583C35.981 30.9622 36.1002 30.921 36.1964 30.845C36.2926 30.7689 36.3602 30.6625 36.3881 30.5431L37.5456 25.7164C37.8361 25.6315 38.0914 25.455 38.2734 25.2132C38.4554 24.9713 38.5544 24.6771 38.5556 24.3744Z" fill="white"/>
</g>
<path d="M56.866 25.246C57.1367 25.246 57.342 25.316 57.482 25.456C57.622 25.5867 57.692 25.7873 57.692 26.058V30.762C57.692 31.0233 57.622 31.224 57.482 31.364C57.342 31.504 57.1367 31.574 56.866 31.574H55.564C55.2747 31.574 55.13 31.4293 55.13 31.14V30.888C55.13 30.5987 55.2747 30.454 55.564 30.454H56.544V26.366H53.856C53.5667 26.366 53.422 26.2213 53.422 25.932V25.68C53.422 25.3907 53.5667 25.246 53.856 25.246H56.866ZM60.016 19.716C60.3147 19.716 60.464 19.8607 60.464 20.15V24.056C60.464 25.8013 60.786 27.2713 61.43 28.466C62.074 29.6513 62.97 30.594 64.118 31.294C64.3607 31.4433 64.4167 31.644 64.286 31.896L64.16 32.134C64.0947 32.2553 64.0107 32.33 63.908 32.358C63.8147 32.386 63.7027 32.3627 63.572 32.288C62.2747 31.504 61.2387 30.4213 60.464 29.04C59.6987 27.6587 59.316 25.9973 59.316 24.056V20.15C59.316 19.8607 59.4653 19.716 59.764 19.716H60.016ZM63.208 24.56C63.4787 24.6533 63.5673 24.84 63.474 25.12C62.9793 26.5853 62.3447 27.9387 61.57 29.18C60.7953 30.4213 59.9413 31.4527 59.008 32.274C58.7933 32.4887 58.5833 32.484 58.378 32.26L58.21 32.064C58.014 31.8493 58.0233 31.6347 58.238 31.42C59.1713 30.552 59.9833 29.558 60.674 28.438C61.374 27.3087 61.948 26.0813 62.396 24.756C62.4987 24.476 62.6853 24.3827 62.956 24.476L63.208 24.56ZM62.732 20.528C62.732 20.2387 62.8767 20.094 63.166 20.094H63.432C63.7213 20.094 63.866 20.2387 63.866 20.528V21.62C63.866 22.1707 63.5953 22.446 63.054 22.446H53.912V25.624C53.912 26.912 53.8047 28.088 53.59 29.152C53.3753 30.2067 53.0253 31.1913 52.54 32.106C52.4093 32.3673 52.2133 32.428 51.952 32.288L51.728 32.162C51.476 32.022 51.4153 31.8167 51.546 31.546C51.9847 30.7153 52.2973 29.824 52.484 28.872C52.6707 27.92 52.764 26.8373 52.764 25.624V22.124C52.764 21.5827 53.0393 21.312 53.59 21.312H62.732V20.528ZM76.592 22.894C76.8627 22.894 77.068 22.964 77.208 23.104C77.348 23.244 77.418 23.4493 77.418 23.72V31.546C77.418 31.8167 77.348 32.022 77.208 32.162C77.068 32.302 76.8627 32.372 76.592 32.372H75.094C74.8047 32.372 74.66 32.2273 74.66 31.938V31.672C74.66 31.3827 74.8047 31.238 75.094 31.238H76.27V24.028H66.218C65.9287 24.028 65.784 23.8833 65.784 23.594V23.342C65.784 23.0433 65.9287 22.894 66.218 22.894H76.592ZM70.698 19.604C70.9967 19.604 71.146 19.7533 71.146 20.052V23.23C71.146 24.3407 70.9967 25.456 70.698 26.576C70.3993 27.6867 69.9 28.76 69.2 29.796C68.5093 30.832 67.604 31.7233 66.484 32.47C66.232 32.638 66.0313 32.596 65.882 32.344L65.742 32.12C65.5927 31.8773 65.6393 31.6673 65.882 31.49C67.338 30.51 68.388 29.2873 69.032 27.822C69.676 26.3567 69.998 24.826 69.998 23.23V20.052C69.998 19.7533 70.1473 19.604 70.446 19.604H70.698ZM67.604 19.786C67.884 19.6647 68.08 19.7393 68.192 20.01L68.878 21.438C68.9993 21.7087 68.9293 21.9 68.668 22.012L68.416 22.124C68.1453 22.2453 67.954 22.1707 67.842 21.9L67.142 20.486C67.03 20.206 67.1047 20.01 67.366 19.898L67.604 19.786ZM72.77 25.932C73.0407 25.8107 73.232 25.8853 73.344 26.156L74.66 28.9C74.7813 29.1707 74.7067 29.362 74.436 29.474L74.198 29.586C73.9273 29.7073 73.736 29.6327 73.624 29.362L72.308 26.618C72.1867 26.3473 72.2613 26.156 72.532 26.044L72.77 25.932ZM88.856 24C89.1453 24 89.29 24.1493 89.29 24.448V24.7C89.29 24.9987 89.1453 25.148 88.856 25.148H83.144C82.8547 25.148 82.71 24.9987 82.71 24.7V24.448C82.71 24.1493 82.8547 24 83.144 24H88.856ZM91.614 27.108C91.9033 27.108 92.048 27.2573 92.048 27.556V27.808C92.048 28.1067 91.9033 28.256 91.614 28.256H80.386C80.0967 28.256 79.952 28.1067 79.952 27.808V27.556C79.952 27.2573 80.0967 27.108 80.386 27.108H91.614ZM85.006 27.766C85.23 27.9527 85.244 28.1627 85.048 28.396L82.696 31.126H89.92V30.216C89.92 29.9173 90.0693 29.768 90.368 29.768H90.62C90.9187 29.768 91.068 29.9173 91.068 30.216V31.448C91.068 31.7187 90.998 31.924 90.858 32.064C90.718 32.204 90.5127 32.274 90.242 32.274H81.576C81.3147 32.274 81.114 32.2273 80.974 32.134C80.8433 32.0407 80.7827 31.91 80.792 31.742C80.8107 31.5833 80.9087 31.406 81.086 31.21L84.18 27.64C84.376 27.416 84.586 27.402 84.81 27.598L85.006 27.766ZM87.19 19.744C87.414 19.7533 87.596 19.8513 87.736 20.038C88.324 20.8873 89.0007 21.676 89.766 22.404C90.5407 23.132 91.3807 23.7853 92.286 24.364C92.5287 24.5227 92.5753 24.7233 92.426 24.966L92.286 25.19C92.1367 25.4327 91.936 25.4747 91.684 25.316C90.7507 24.728 89.8827 24.0607 89.08 23.314C88.2773 22.558 87.5633 21.7507 86.938 20.892H85.076C84.404 21.7973 83.648 22.6373 82.808 23.412C81.9773 24.1867 81.1467 24.8213 80.316 25.316C80.064 25.4747 79.8633 25.4327 79.714 25.19L79.574 24.966C79.4247 24.7233 79.4713 24.5227 79.714 24.364C80.6473 23.7573 81.506 23.0807 82.29 22.334C83.074 21.5873 83.7413 20.8033 84.292 19.982C84.4227 19.8233 84.6 19.744 84.824 19.744H87.19ZM95.338 20.878C95.338 20.6073 95.4033 20.4067 95.534 20.276C95.674 20.136 95.8793 20.066 96.15 20.066H103.85C104.121 20.066 104.321 20.136 104.452 20.276C104.592 20.4067 104.662 20.6073 104.662 20.878V23.272C104.662 23.5333 104.592 23.734 104.452 23.874C104.321 24.014 104.121 24.084 103.85 24.084H96.15C95.8793 24.084 95.674 24.0187 95.534 23.888C95.4033 23.748 95.338 23.5427 95.338 23.272V20.878ZM103.514 21.13H96.486V23.006H103.514V21.13ZM99.384 27.444C99.4027 27.2947 99.4493 27.1827 99.524 27.108C99.608 27.0333 99.7247 26.996 99.874 26.996H100.126C100.434 26.996 100.574 27.1453 100.546 27.444C100.462 28.312 100.159 29.11 99.636 29.838C99.1227 30.566 98.3993 31.1633 97.466 31.63C96.5327 32.0967 95.436 32.386 94.176 32.498C93.8867 32.526 93.728 32.3907 93.7 32.092L93.672 31.826C93.6533 31.5367 93.7933 31.378 94.092 31.35C95.2027 31.2473 96.1407 31.0093 96.906 30.636C97.6713 30.2627 98.2593 29.8007 98.67 29.25C99.0807 28.6993 99.3187 28.0973 99.384 27.444ZM104.634 25.218C104.905 25.218 105.11 25.288 105.25 25.428C105.39 25.5587 105.46 25.7593 105.46 26.03V29.222C105.46 29.5207 105.311 29.67 105.012 29.67H104.746C104.447 29.67 104.298 29.5207 104.298 29.222V26.31H95.702V29.222C95.702 29.5207 95.5527 29.67 95.254 29.67H94.988C94.6893 29.67 94.54 29.5207 94.54 29.222V26.03C94.54 25.7687 94.61 25.568 94.75 25.428C94.89 25.288 95.0953 25.218 95.366 25.218H104.634ZM106.076 31.252C106.356 31.364 106.445 31.56 106.342 31.84L106.244 32.092C106.151 32.3627 105.964 32.4467 105.684 32.344L100.98 30.58C100.7 30.4773 100.607 30.286 100.7 30.006L100.798 29.754C100.901 29.474 101.092 29.3853 101.372 29.488L106.076 31.252ZM123.856 20.122C124.108 20.122 124.3 20.1873 124.43 20.318C124.57 20.4487 124.64 20.6447 124.64 20.906V23.804C124.64 24.0653 124.575 24.266 124.444 24.406C124.314 24.5367 124.118 24.602 123.856 24.602H122.988C122.708 24.602 122.568 24.462 122.568 24.182V23.93C122.568 23.6407 122.708 23.496 122.988 23.496H123.562V21.214H119.614C119.334 21.214 119.194 21.074 119.194 20.794V20.542C119.194 20.262 119.334 20.122 119.614 20.122H123.856ZM121.336 20.822C121.626 20.85 121.747 20.9993 121.7 21.27C121.616 21.9233 121.416 22.544 121.098 23.132C120.79 23.72 120.37 24.224 119.838 24.644C119.614 24.812 119.423 24.7793 119.264 24.546L119.124 24.322C118.975 24.098 119.012 23.902 119.236 23.734C119.684 23.3607 120.025 22.9453 120.258 22.488C120.492 22.0307 120.613 21.5967 120.622 21.186C120.641 21.046 120.688 20.9433 120.762 20.878C120.846 20.8127 120.958 20.7847 121.098 20.794L121.336 20.822ZM119.978 25.288C120.258 25.288 120.398 25.428 120.398 25.708V26.296H124.402C124.692 26.296 124.836 26.436 124.836 26.716V26.968C124.836 27.248 124.692 27.388 124.402 27.388H120.118C119.857 27.388 119.656 27.3227 119.516 27.192C119.386 27.0613 119.32 26.8653 119.32 26.604V25.708C119.32 25.428 119.46 25.288 119.74 25.288H119.978ZM122.33 24.98C122.62 24.98 122.764 25.1247 122.764 25.414V32.022C122.764 32.3207 122.62 32.47 122.33 32.47H122.078C121.78 32.47 121.63 32.3207 121.63 32.022V25.414C121.63 25.1247 121.78 24.98 122.078 24.98H122.33ZM124.556 29.082C124.846 29.082 124.99 29.2267 124.99 29.516V29.768C124.99 30.0573 124.846 30.202 124.556 30.202H119.572C119.283 30.202 119.138 30.0573 119.138 29.768V29.516C119.138 29.2267 119.283 29.082 119.572 29.082H124.556ZM113.944 19.73C114.234 19.73 114.378 19.87 114.378 20.15V20.528H117.08C117.472 20.528 117.724 20.6213 117.836 20.808C117.948 20.9853 117.916 21.2513 117.738 21.606L116.884 23.188C116.763 23.44 116.576 23.51 116.324 23.398L116.086 23.3C115.844 23.188 115.783 23.0107 115.904 22.768L116.59 21.494H114.028C113.524 21.494 113.272 21.2467 113.272 20.752V20.15C113.272 19.87 113.412 19.73 113.692 19.73H113.944ZM117.654 22.81C117.906 22.81 118.093 22.8753 118.214 23.006C118.345 23.1273 118.41 23.314 118.41 23.566V31.574C118.41 31.826 118.345 32.0127 118.214 32.134C118.093 32.2647 117.906 32.33 117.654 32.33H116.94C116.716 32.33 116.604 32.1947 116.604 31.924V31.686C116.604 31.4153 116.74 31.28 117.01 31.28H117.388V23.86H113.86V26.646C113.86 27.5887 113.795 28.5267 113.664 29.46C113.543 30.384 113.352 31.2473 113.09 32.05C112.997 32.302 112.829 32.3767 112.586 32.274L112.376 32.19C112.134 32.0873 112.054 31.91 112.138 31.658C112.381 30.902 112.558 30.104 112.67 29.264C112.782 28.4147 112.838 27.542 112.838 26.646V23.566C112.838 23.314 112.899 23.1273 113.02 23.006C113.151 22.8753 113.338 22.81 113.58 22.81H117.654ZM117.514 28.438C117.766 28.438 117.892 28.564 117.892 28.816V29.04C117.892 29.292 117.766 29.418 117.514 29.418H113.636C113.384 29.418 113.258 29.292 113.258 29.04V28.816C113.258 28.564 113.384 28.438 113.636 28.438H117.514ZM117.514 25.694C117.766 25.694 117.892 25.82 117.892 26.072V26.31C117.892 26.562 117.766 26.688 117.514 26.688H113.748C113.496 26.688 113.37 26.562 113.37 26.31V26.072C113.37 25.82 113.496 25.694 113.748 25.694H117.514ZM115.722 23.328C115.946 23.328 116.058 23.44 116.058 23.664V31.602C116.058 31.8353 115.946 31.952 115.722 31.952H115.512C115.288 31.952 115.176 31.8353 115.176 31.602V23.664C115.176 23.44 115.288 23.328 115.512 23.328H115.722ZM138.318 20.136C138.598 20.2107 138.701 20.3833 138.626 20.654L138.276 22.054C138.202 22.334 138.024 22.4413 137.744 22.376L137.492 22.306C137.212 22.2313 137.114 22.054 137.198 21.774L137.534 20.374C137.618 20.094 137.8 19.9913 138.08 20.066L138.318 20.136ZM132.004 20.066C132.284 19.9913 132.466 20.094 132.55 20.374L132.886 21.774C132.97 22.054 132.872 22.2313 132.592 22.306L132.34 22.376C132.06 22.4413 131.883 22.334 131.808 22.054L131.458 20.654C131.384 20.3833 131.486 20.2107 131.766 20.136L132.004 20.066ZM135.168 19.688C135.467 19.688 135.616 19.8373 135.616 20.136V23.356C135.616 23.6547 135.467 23.804 135.168 23.804H134.916C134.618 23.804 134.468 23.6547 134.468 23.356V20.136C134.468 19.8373 134.618 19.688 134.916 19.688H135.168ZM135.098 25.274C135.378 25.274 135.518 25.414 135.518 25.694V26.702C135.518 28.0927 135.21 29.2593 134.594 30.202C133.988 31.1353 133.022 31.8913 131.696 32.47C131.435 32.582 131.248 32.5027 131.136 32.232L131.052 32.008C130.95 31.7467 131.029 31.5553 131.29 31.434C132.046 31.1073 132.653 30.7293 133.11 30.3C133.568 29.8707 133.899 29.3667 134.104 28.788C134.319 28.2 134.426 27.5047 134.426 26.702V25.694C134.426 25.414 134.566 25.274 134.846 25.274H135.098ZM138.92 31.532C139.135 31.7187 139.149 31.9193 138.962 32.134L138.794 32.33C138.608 32.5447 138.407 32.5587 138.192 32.372L135.686 30.16C135.472 29.9733 135.458 29.7727 135.644 29.558L135.798 29.376C135.985 29.1613 136.186 29.1473 136.4 29.334L138.92 31.532ZM137.94 23.244C138.211 23.244 138.412 23.314 138.542 23.454C138.682 23.5847 138.752 23.7807 138.752 24.042V29.25C138.752 29.53 138.612 29.67 138.332 29.67H138.08C137.791 29.67 137.646 29.53 137.646 29.25V24.364H132.41V29.25C132.41 29.53 132.266 29.67 131.976 29.67H131.724C131.444 29.67 131.304 29.53 131.304 29.25V24.042C131.304 23.7807 131.37 23.5847 131.5 23.454C131.64 23.314 131.846 23.244 132.116 23.244H137.94ZM127.412 19.772C127.72 19.772 127.874 19.9213 127.874 20.22V20.864H130.058C130.338 20.864 130.478 21.004 130.478 21.284V21.55C130.478 21.83 130.338 21.97 130.058 21.97H127.524C127.254 21.97 127.048 21.9 126.908 21.76C126.768 21.62 126.698 21.4147 126.698 21.144V20.22C126.698 19.9213 126.848 19.772 127.146 19.772H127.412ZM129.946 23.622C130.226 23.622 130.366 23.7667 130.366 24.056V24.308C130.366 24.588 130.226 24.728 129.946 24.728H126.992C126.703 24.728 126.558 24.588 126.558 24.308V24.056C126.558 23.7667 126.703 23.622 126.992 23.622H129.946ZM130.016 26.912C130.296 26.912 130.436 27.052 130.436 27.332V27.584C130.436 27.864 130.296 28.004 130.016 28.004H126.67C126.39 28.004 126.25 27.864 126.25 27.584V27.332C126.25 27.052 126.39 26.912 126.67 26.912H130.016ZM128.392 24.182C128.691 24.182 128.84 24.3267 128.84 24.616V31.154H129.694C129.993 31.154 130.142 31.3033 130.142 31.602V31.868C130.142 32.1667 129.993 32.316 129.694 32.316H128.518C128.248 32.316 128.038 32.246 127.888 32.106C127.748 31.966 127.678 31.756 127.678 31.476V24.616C127.678 24.3267 127.828 24.182 128.126 24.182H128.392ZM152.346 31.028C152.626 31.028 152.766 31.1727 152.766 31.462V31.714C152.766 32.0033 152.626 32.148 152.346 32.148H140.95C140.661 32.148 140.516 32.0033 140.516 31.714V31.462C140.516 31.1727 140.661 31.028 140.95 31.028H152.346ZM150.26 24.042C150.55 24.042 150.694 24.1867 150.694 24.476V24.728C150.694 25.0173 150.55 25.162 150.26 25.162H143.036C142.747 25.162 142.602 25.0173 142.602 24.728V24.476C142.602 24.1867 142.747 24.042 143.036 24.042H150.26ZM151.268 27.374C151.558 27.374 151.702 27.5187 151.702 27.808V28.06C151.702 28.3493 151.558 28.494 151.268 28.494H142.014C141.725 28.494 141.58 28.3493 141.58 28.06V27.808C141.58 27.5187 141.725 27.374 142.014 27.374H151.268ZM146.774 24.574C147.082 24.574 147.236 24.7233 147.236 25.022V31.196C147.236 31.4947 147.082 31.644 146.774 31.644H146.522C146.214 31.644 146.06 31.4947 146.06 31.196V25.022C146.06 24.7233 146.214 24.574 146.522 24.574H146.774ZM147.642 19.814C147.866 19.814 148.048 19.9027 148.188 20.08C148.916 20.9573 149.677 21.7787 150.47 22.544C151.264 23.3093 152.038 23.9627 152.794 24.504C153.037 24.672 153.07 24.8727 152.892 25.106L152.752 25.33C152.575 25.5633 152.37 25.5913 152.136 25.414C150.447 24.1633 148.884 22.67 147.446 20.934H145.85C144.413 22.67 142.85 24.1633 141.16 25.414C140.927 25.5913 140.722 25.5633 140.544 25.33L140.404 25.106C140.227 24.8727 140.26 24.672 140.502 24.504C141.38 23.8507 142.21 23.146 142.994 22.39C143.778 21.6247 144.478 20.8547 145.094 20.08C145.244 19.9027 145.43 19.814 145.654 19.814H147.642ZM154.824 28.116C154.824 27.8547 154.894 27.654 155.034 27.514C155.174 27.374 155.375 27.304 155.636 27.304H160.032C160.294 27.304 160.494 27.374 160.634 27.514C160.774 27.6447 160.844 27.8453 160.844 28.116V31.574C160.844 31.8353 160.774 32.036 160.634 32.176C160.504 32.316 160.303 32.386 160.032 32.386H155.636C155.375 32.386 155.174 32.316 155.034 32.176C154.894 32.0453 154.824 31.8447 154.824 31.574V28.116ZM159.71 28.424H155.958V31.266H159.71V28.424ZM156.056 22.74C156.346 22.684 156.514 22.8007 156.56 23.09L156.868 24.77C156.915 25.05 156.798 25.218 156.518 25.274L156.266 25.302C155.986 25.358 155.818 25.2413 155.762 24.952L155.454 23.272C155.408 22.992 155.524 22.824 155.804 22.768L156.056 22.74ZM160.9 24.714C161.19 24.714 161.334 24.8633 161.334 25.162V25.414C161.334 25.7127 161.19 25.862 160.9 25.862H154.754C154.465 25.862 154.32 25.7127 154.32 25.414V25.162C154.32 24.8633 154.465 24.714 154.754 24.714H160.9ZM159.878 22.768C160.158 22.824 160.275 22.992 160.228 23.272L159.92 24.952C159.874 25.2413 159.706 25.358 159.416 25.302L159.164 25.274C158.884 25.218 158.768 25.05 158.814 24.77L159.122 23.09C159.178 22.8007 159.346 22.684 159.626 22.74L159.878 22.768ZM160.732 20.934C161.031 20.934 161.18 21.0833 161.18 21.382V21.634C161.18 21.9327 161.031 22.082 160.732 22.082H154.95C154.652 22.082 154.502 21.9327 154.502 21.634V21.382C154.502 21.0833 154.652 20.934 154.95 20.934H160.732ZM157.96 19.716C158.268 19.716 158.422 19.8653 158.422 20.164V21.06C158.422 21.3587 158.268 21.508 157.96 21.508H157.694C157.396 21.508 157.246 21.3587 157.246 21.06V20.164C157.246 19.8653 157.396 19.716 157.694 19.716H157.96ZM165.716 20.136C166.015 20.136 166.239 20.2107 166.388 20.36C166.547 20.5093 166.622 20.7333 166.612 21.032C166.594 22.488 166.332 23.8367 165.828 25.078C166.22 25.6567 166.482 26.2913 166.612 26.982C166.752 27.6633 166.757 28.3493 166.626 29.04C166.496 29.7307 166.248 30.37 165.884 30.958C165.754 31.2287 165.558 31.2893 165.296 31.14L165.072 31C164.82 30.8507 164.764 30.6453 164.904 30.384C165.231 29.7773 165.441 29.1893 165.534 28.62C165.637 28.0507 165.618 27.5093 165.478 26.996C165.338 26.4733 165.077 25.9973 164.694 25.568C164.573 25.4 164.55 25.2133 164.624 25.008C165.138 23.8973 165.427 22.6747 165.492 21.34H163.35V32.106C163.35 32.3953 163.206 32.54 162.916 32.54H162.664C162.375 32.54 162.23 32.3953 162.23 32.106V20.976C162.23 20.416 162.51 20.136 163.07 20.136H165.716ZM179.618 21.522C179.889 21.522 180.094 21.592 180.234 21.732C180.374 21.872 180.444 22.082 180.444 22.362V31.476C180.444 31.756 180.374 31.966 180.234 32.106C180.094 32.246 179.889 32.316 179.618 32.316H178.246C177.957 32.316 177.812 32.1667 177.812 31.868V31.616C177.812 31.3173 177.957 31.168 178.246 31.168H179.296V22.67H170V31.938C170 32.2367 169.851 32.386 169.552 32.386H169.3C169.002 32.386 168.852 32.2367 168.852 31.938V22.362C168.852 22.082 168.922 21.872 169.062 21.732C169.202 21.592 169.408 21.522 169.678 21.522H179.618ZM174.774 19.772C175.073 19.772 175.222 19.9213 175.222 20.22V22.586C175.222 23.482 175.087 24.3547 174.816 25.204C174.546 26.044 174.14 26.814 173.598 27.514C173.066 28.2047 172.408 28.7787 171.624 29.236C171.363 29.3853 171.162 29.3293 171.022 29.068L170.91 28.83C170.77 28.5687 170.831 28.3633 171.092 28.214C171.746 27.8313 172.292 27.3507 172.73 26.772C173.178 26.1933 173.514 25.5493 173.738 24.84C173.962 24.1213 174.074 23.37 174.074 22.586V20.22C174.074 19.9213 174.224 19.772 174.522 19.772H174.774ZM175.698 25.526C175.922 25.3487 176.128 25.3767 176.314 25.61L178.372 28.256C178.54 28.48 178.508 28.6853 178.274 28.872L178.05 29.026C177.826 29.2033 177.621 29.1707 177.434 28.928L175.376 26.296C175.208 26.0627 175.241 25.8527 175.474 25.666L175.698 25.526ZM183.818 28.634C183.818 28.3727 183.884 28.172 184.014 28.032C184.154 27.892 184.36 27.822 184.63 27.822H192.666C192.928 27.822 193.128 27.892 193.268 28.032C193.408 28.1627 193.478 28.3633 193.478 28.634V31.616C193.478 31.8773 193.408 32.078 193.268 32.218C193.138 32.358 192.937 32.428 192.666 32.428H184.63C184.369 32.428 184.168 32.358 184.028 32.218C183.888 32.078 183.818 31.8773 183.818 31.616V28.634ZM192.316 28.886H184.98V31.35H192.316V28.886ZM186.534 22.292C186.768 22.1333 186.964 22.1613 187.122 22.376L187.276 22.572C187.444 22.7867 187.416 22.978 187.192 23.146L186.898 23.356C186.31 23.776 185.755 24.1447 185.232 24.462C184.719 24.7793 184.196 25.0593 183.664 25.302C183.422 25.4233 183.244 25.3627 183.132 25.12L183.02 24.896C182.908 24.6533 182.974 24.4713 183.216 24.35C183.795 24.0793 184.341 23.7853 184.854 23.468C185.368 23.1413 185.876 22.7913 186.38 22.418L186.534 22.292ZM187.164 24.42C187.304 24.308 187.454 24.252 187.612 24.252H189.684C189.834 24.252 189.978 24.308 190.118 24.42C190.762 25.0173 191.476 25.5773 192.26 26.1C193.054 26.6133 193.898 27.0753 194.794 27.486C195.056 27.6073 195.13 27.794 195.018 28.046L194.906 28.284C194.794 28.5453 194.608 28.6153 194.346 28.494C192.452 27.6073 190.837 26.562 189.502 25.358H187.794C187.094 25.9927 186.315 26.5807 185.456 27.122C184.607 27.6633 183.767 28.1207 182.936 28.494C182.684 28.6153 182.502 28.5453 182.39 28.284L182.278 28.046C182.166 27.794 182.241 27.6073 182.502 27.486C183.454 27.038 184.322 26.5573 185.106 26.044C185.9 25.5307 186.586 24.9893 187.164 24.42ZM193.912 20.57C194.174 20.57 194.37 20.6353 194.5 20.766C194.631 20.8967 194.696 21.0927 194.696 21.354V22.88C194.696 23.16 194.556 23.3 194.276 23.3H194.038C193.758 23.3 193.618 23.16 193.618 22.88V21.648H183.678V22.88C183.678 23.16 183.538 23.3 183.258 23.3H183.02C182.74 23.3 182.6 23.16 182.6 22.88V21.354C182.6 21.0927 182.666 20.8967 182.796 20.766C182.927 20.6353 183.123 20.57 183.384 20.57H193.912ZM188.802 19.562C189.092 19.562 189.236 19.7067 189.236 19.996V20.668C189.236 20.9667 189.092 21.116 188.802 21.116H188.494C188.205 21.116 188.06 20.9667 188.06 20.668V19.996C188.06 19.7067 188.205 19.562 188.494 19.562H188.802ZM190.916 22.418C191.486 22.8287 192.022 23.1927 192.526 23.51C193.04 23.8273 193.558 24.1073 194.08 24.35C194.323 24.4713 194.388 24.6533 194.276 24.896L194.164 25.12C194.052 25.3627 193.875 25.4233 193.632 25.302C193.063 25.0407 192.517 24.7513 191.994 24.434C191.472 24.1167 190.963 23.776 190.468 23.412L190.104 23.146C189.88 22.978 189.852 22.7867 190.02 22.572L190.174 22.376C190.342 22.1613 190.538 22.138 190.762 22.306L190.916 22.418Z" fill="white"/>
<defs>
<linearGradient id="paint0_linear_4394_5629" x1="354.5" y1="42.7143" x2="26.2438" y2="14.7419" gradientUnits="userSpaceOnUse">
<stop stop-color="#EFB550"/>
<stop offset="0.518075" stop-color="#D7942B"/>
<stop offset="1" stop-color="#B68A33"/>
</linearGradient>
<clipPath id="clip0_4394_5629">
<rect width="20" height="20" fill="white" transform="translate(23 16)"/>
</clipPath>
</defs>
</svg>
