<svg width="385" height="52" viewBox="0 0 385 52" fill="none" xmlns="http://www.w3.org/2000/svg">
<rect x="11.5" y="0.5" width="357" height="51" rx="5.5" fill="white"/>
<rect x="11.5" y="0.5" width="357" height="51" rx="5.5" stroke="white"/>
<rect x="23" y="12" width="28" height="28" rx="14" fill="#EEE6DB"/>
<path d="M31.0248 29.6647C30 28.8463 30 28.227 30 25.5914C30 22.9558 30 21.6376 31.0248 20.8191C32.051 20 33.7002 20 37 20C40.2998 20 41.9497 20 42.9745 20.8191C43.9993 21.6383 44 22.9558 44 25.5914C44 28.227 44 28.8463 42.9745 29.6647C41.9504 30.4839 40.2998 30.4839 37 30.4839C35.243 30.4839 33.9475 31.7419 32.6875 33L32.8 30.3357C32.0342 30.2218 31.4707 30.0212 31.0248 29.6647Z" stroke="#1F1F1F" stroke-width="1.4" stroke-linecap="round" stroke-linejoin="round"/>
<path d="M67.19 19.562H68.534V23.3H71.502V30.748C71.502 31.798 70.998 32.33 69.99 32.33H68.436L68.086 31.042L69.556 31.084C69.962 31.084 70.172 30.874 70.172 30.454V29.418H65.594V32.358H64.25V23.3H67.19V19.562ZM65.594 27.01V28.284H70.172V27.01H65.594ZM70.172 25.876V24.588H65.594V25.876H70.172ZM64.684 19.884C65.188 20.598 65.678 21.382 66.154 22.236L65.104 22.754C64.628 21.886 64.124 21.116 63.578 20.416L64.684 19.884ZM70.984 19.87L72.062 20.388C71.67 21.256 71.138 22.096 70.494 22.908L69.472 22.362C70.116 21.522 70.62 20.696 70.984 19.87ZM62.094 26.772L63.27 27.22C62.598 29.012 61.842 30.706 61.03 32.288L59.798 31.742C60.666 30.118 61.436 28.466 62.094 26.772ZM61.002 19.66C61.968 20.36 62.78 21.046 63.452 21.746L62.5 22.698C61.912 22.04 61.1 21.34 60.05 20.584L61.002 19.66ZM60.61 22.936C61.52 23.636 62.29 24.336 62.906 25.036L61.968 25.988C61.408 25.344 60.638 24.63 59.658 23.86L60.61 22.936ZM75.576 20.472H78.67C78.838 20.122 78.964 19.772 79.062 19.408L80.448 19.59C80.364 19.898 80.238 20.192 80.098 20.472H84.536V27.542H75.576V20.472ZM83.248 26.408V25.498H76.864V26.408H83.248ZM76.864 24.434H83.248V23.552H76.864V24.434ZM76.864 22.502H83.248V21.606H76.864V22.502ZM74.82 28.354L76.08 28.606C75.744 29.908 75.296 31.028 74.708 31.98L73.588 31.266C74.176 30.37 74.582 29.39 74.82 28.354ZM81.792 32.232H78.236C77.312 32.232 76.85 31.784 76.85 30.888V28.326H78.194V30.608C78.194 30.888 78.334 31.042 78.614 31.042H81.54C81.806 31.042 81.988 30.972 82.086 30.832C82.24 30.664 82.338 30.174 82.38 29.348L83.654 29.754C83.542 30.944 83.332 31.658 83.038 31.91C82.758 32.12 82.352 32.232 81.792 32.232ZM80.07 27.78C80.756 28.48 81.288 29.082 81.652 29.614L80.658 30.314C80.266 29.726 79.748 29.082 79.09 28.382L80.07 27.78ZM84.55 28.074C85.39 29.166 86.02 30.132 86.468 30.944L85.418 31.686C84.942 30.79 84.312 29.81 83.514 28.718L84.55 28.074ZM89.296 32.316H88.064L87.77 31.028C88.134 31.07 88.498 31.098 88.834 31.098C89.156 31.098 89.324 30.93 89.324 30.608V27.612C88.848 27.794 88.358 27.962 87.868 28.13L87.546 26.786C88.148 26.646 88.736 26.464 89.324 26.254V23.37H87.742V22.096H89.324V19.562H90.668V22.096H91.97V23.37H90.668V25.694C91.032 25.526 91.382 25.344 91.732 25.148V26.506C91.368 26.688 91.018 26.87 90.668 27.038V30.958C90.668 31.854 90.206 32.316 89.296 32.316ZM92.922 19.954H99.222V25.008H92.922V19.954ZM97.92 23.93V22.978H94.21V23.93H97.92ZM94.21 21.97H97.92V21.032H94.21V21.97ZM92.012 25.736H100.062V26.926H96.702V28.214H99.46V29.39H96.702V30.874C97.22 30.93 97.822 30.972 98.522 30.972C99.278 30.972 99.922 30.944 100.454 30.888L100.09 32.176C99.544 32.176 99.054 32.162 98.606 32.148C96.744 32.134 95.47 31.966 94.784 31.63C94.294 31.378 93.846 30.93 93.454 30.286C93.132 31.056 92.712 31.77 92.194 32.428L91.2 31.574C92.208 30.314 92.768 28.928 92.88 27.388L94.056 27.528C94.028 28.032 93.958 28.508 93.86 28.97C94.28 29.782 94.756 30.314 95.302 30.538L95.428 30.58V26.926H92.012V25.736ZM103.044 29.32V30.552H106.138V29.32H103.044ZM106.138 31.672H103.044V32.358H101.994V22.586H103.268V21.158H101.616V20.01H107.426V21.158H105.9V22.586H107.174V27.976C107.776 27.206 108.196 26.268 108.42 25.176L109.568 25.302C109.498 25.624 109.428 25.932 109.344 26.212H110.478V25.232H111.752V26.212H114.048V27.374H111.752V28.55H113.74V29.698H111.752V30.93H114.398V32.176H107.706V30.93H110.478V29.698H108.448V28.55H110.478V27.374H108.91C108.63 27.962 108.308 28.494 107.916 28.97L107.174 28.004V32.344H106.138V31.672ZM104.892 22.586V21.158H104.276V22.586H104.892ZM106.138 28.27V27.136H105.564C105.088 27.136 104.864 26.87 104.864 26.352V23.678H104.346V24.49C104.332 25.974 104.038 27.066 103.45 27.752L103.044 27.388V28.27H106.138ZM105.592 23.678V26.142C105.592 26.254 105.648 26.324 105.774 26.324H106.138V23.678H105.592ZM103.044 27.066C103.422 26.478 103.618 25.61 103.632 24.49V23.678H103.044V27.066ZM108.014 19.982H113.88V24.896H108.014V19.982ZM112.634 23.846V22.964H109.246V23.846H112.634ZM109.246 21.928H112.634V21.032H109.246V21.928Z" fill="#1F1F1F"/>
<rect x="311" y="18" width="22" height="16" rx="8" fill="#D7942B"/>
<path d="M318.915 22.146H319.619V30H318.717V23.246C318.222 23.752 317.606 24.104 316.869 24.324V23.422C317.221 23.323 317.595 23.169 317.969 22.949C318.343 22.707 318.651 22.443 318.915 22.146ZM324.43 21.992C325.156 21.992 325.75 22.201 326.223 22.619C326.685 23.037 326.927 23.598 326.927 24.28C326.927 24.962 326.663 25.578 326.157 26.128C325.882 26.414 325.343 26.843 324.529 27.393C323.528 28.064 322.956 28.669 322.813 29.197H326.938V30H321.702C321.702 29.285 321.955 28.636 322.483 28.053C322.791 27.701 323.352 27.228 324.188 26.656C324.804 26.216 325.211 25.897 325.42 25.677C325.816 25.248 326.025 24.775 326.025 24.269C326.025 23.785 325.882 23.422 325.596 23.158C325.31 22.894 324.903 22.762 324.397 22.762C323.858 22.762 323.44 22.938 323.154 23.312C322.846 23.664 322.681 24.192 322.67 24.885H321.768C321.768 24.005 322.021 23.301 322.505 22.784C322.989 22.256 323.638 21.992 324.43 21.992Z" fill="white"/>
<path d="M346.746 31.4543L352.186 26.0143C352.205 25.9084 352.205 25.8001 352.186 25.6943L346.746 20.2543C346.704 20.236 346.586 20.2351 346.426 20.2543L345.786 20.8943C345.768 21.0613 345.767 21.1823 345.786 21.2143L350.266 25.6943C350.298 25.7416 350.315 25.7973 350.315 25.8543C350.315 25.9113 350.298 25.9669 350.266 26.0143L345.786 30.4943C345.768 30.5256 345.767 30.646 345.786 30.8143L346.426 31.4543C346.584 31.4725 346.704 31.4735 346.746 31.4543Z" fill="#1F1F1F" fill-opacity="0.5"/>
</svg>
