<svg width="385" height="52" viewBox="0 0 385 52" fill="none" xmlns="http://www.w3.org/2000/svg">
<rect x="11.5" y="0.5" width="357" height="51" rx="5.5" fill="white"/>
<rect x="11.5" y="0.5" width="357" height="51" rx="5.5" stroke="white"/>
<rect x="23" y="12" width="28" height="28" rx="14" fill="#EEE6DB"/>
<path d="M38.6254 18C38.7495 18 38.8704 18.0384 38.9707 18.1097C39.0711 18.1809 39.1456 18.2814 39.1836 18.3966L39.8285 20.3497C40.0994 20.4789 40.3586 20.624 40.606 20.7874L42.6653 20.3554C42.7867 20.3302 42.9132 20.3431 43.0266 20.3924C43.14 20.4417 43.2344 20.5248 43.2962 20.6297L44.9216 23.3714C44.9836 23.4763 45.0099 23.5977 44.9966 23.718C44.9834 23.8384 44.9312 23.9515 44.8477 24.0411L43.4346 25.5611C43.4552 25.8526 43.4552 26.1451 43.4346 26.4366L44.8477 27.9589C44.9312 28.0485 44.9834 28.1616 44.9966 28.282C45.0099 28.4023 44.9836 28.5237 44.9216 28.6286L43.2962 31.3714C43.2342 31.4761 43.1397 31.559 43.0264 31.6081C42.913 31.6572 42.7866 31.6699 42.6653 31.6446L40.606 31.2126C40.3598 31.3749 40.0994 31.5211 39.8297 31.6503L39.1836 33.6034C39.1456 33.7186 39.0711 33.8191 38.9707 33.8903C38.8704 33.9616 38.7495 34 38.6254 34H35.3746C35.2505 34 35.1296 33.9616 35.0293 33.8903C34.9289 33.8191 34.8544 33.7186 34.8164 33.6034L34.1726 31.6514C33.9025 31.5227 33.6419 31.3756 33.3928 31.2114L31.3347 31.6446C31.2133 31.6698 31.0868 31.6569 30.9734 31.6076C30.86 31.5583 30.7656 31.4752 30.7038 31.3703L29.0784 28.6286C29.0164 28.5237 28.9901 28.4023 29.0034 28.282C29.0166 28.1616 29.0688 28.0485 29.1523 27.9589L30.5654 26.4366C30.5449 26.1459 30.5449 25.8541 30.5654 25.5634L29.1523 24.0411C29.0688 23.9515 29.0166 23.8384 29.0034 23.718C28.9901 23.5977 29.0164 23.4763 29.0784 23.3714L30.7038 20.6286C30.7658 20.5239 30.8603 20.441 30.9736 20.3919C31.087 20.3428 31.2134 20.3301 31.3347 20.3554L33.3928 20.7886C33.6414 20.6251 33.9017 20.4777 34.1726 20.3486L34.8176 18.3966C34.8555 18.2818 34.9296 18.1816 35.0295 18.1103C35.1293 18.0391 35.2497 18.0005 35.3735 18H38.6242H38.6254ZM38.1962 19.1429H35.8039L35.1378 21.1623L34.6886 21.376C34.4678 21.4813 34.2547 21.6012 34.0507 21.7349L33.6355 22.0091L31.5059 21.5611L30.3098 23.5817L31.7698 25.1566L31.7346 25.6411C31.7177 25.8801 31.7177 26.1199 31.7346 26.3589L31.7698 26.8434L30.3074 28.4183L31.5047 30.4389L33.6344 29.992L34.0495 30.2651C34.2535 30.3988 34.4666 30.5187 34.6874 30.624L35.1366 30.8377L35.8039 32.8571H38.1985L38.8669 30.8366L39.3149 30.624C39.5355 30.519 39.7482 30.3991 39.9517 30.2651L40.3656 29.992L42.4964 30.4389L43.6926 28.4183L42.2314 26.8434L42.2666 26.3589C42.2835 26.1195 42.2835 25.8793 42.2666 25.64L42.2314 25.1554L43.6938 23.5817L42.4964 21.5611L40.3656 22.0069L39.9517 21.7349C39.7482 21.6009 39.5355 21.481 39.3149 21.376L38.8669 21.1634L38.1973 19.1429H38.1962ZM37 22.5714C37.9331 22.5714 38.8279 22.9327 39.4877 23.5756C40.1474 24.2186 40.5181 25.0907 40.5181 26C40.5181 26.9093 40.1474 27.7814 39.4877 28.4244C38.8279 29.0673 37.9331 29.4286 37 29.4286C36.0669 29.4286 35.1721 29.0673 34.5123 28.4244C33.8526 27.7814 33.4819 26.9093 33.4819 26C33.4819 25.0907 33.8526 24.2186 34.5123 23.5756C35.1721 22.9327 36.0669 22.5714 37 22.5714ZM37 23.7143C36.378 23.7143 35.7814 23.9551 35.3416 24.3838C34.9017 24.8124 34.6546 25.3938 34.6546 26C34.6546 26.6062 34.9017 27.1876 35.3416 27.6162C35.7814 28.0449 36.378 28.2857 37 28.2857C37.622 28.2857 38.2186 28.0449 38.6584 27.6162C39.0983 27.1876 39.3454 26.6062 39.3454 26C39.3454 25.3938 39.0983 24.8124 38.6584 24.3838C38.2186 23.9551 37.622 23.7143 37 23.7143Z" fill="#1F1F1F"/>
<path d="M61.366 19.73C62.262 20.402 63.004 21.088 63.62 21.76L62.71 22.684C62.178 22.026 61.422 21.326 60.456 20.598L61.366 19.73ZM59.574 23.72H62.71V29.642C63.144 29.278 63.606 28.858 64.11 28.382L64.474 29.782C63.564 30.622 62.598 31.378 61.576 32.036L61.072 30.832C61.296 30.636 61.422 30.384 61.422 30.09V24.994H59.574V23.72ZM64.572 25.386H71.362V26.604C70.956 27.85 70.284 28.914 69.346 29.81C70.242 30.398 71.334 30.93 72.594 31.378L71.88 32.526C70.48 31.966 69.318 31.322 68.366 30.622C67.274 31.406 65.916 32.036 64.32 32.512L63.578 31.392C65.062 30.958 66.308 30.412 67.316 29.74C66.364 28.816 65.706 27.794 65.37 26.674H64.572V25.386ZM66.616 26.674C66.938 27.528 67.484 28.298 68.268 28.998C69.024 28.312 69.612 27.542 70.018 26.674H66.616ZM65.552 19.982H70.508V22.922C70.508 23.23 70.676 23.398 71.026 23.398H72.258V24.616H70.676C69.682 24.616 69.192 24.14 69.192 23.216V21.228H66.868V21.648C66.868 23.104 66.126 24.238 64.656 25.036L63.774 24.014C64.95 23.482 65.552 22.74 65.552 21.788V19.982ZM73.952 23.426H79.3C79.328 23.202 79.342 22.978 79.37 22.768H74.834V19.982H85.166V22.768H80.7C80.672 22.992 80.658 23.202 80.63 23.426H86.048V24.42H80.462L80.322 25.05H84.326V31.154H86.3V32.19H73.7V31.154H75.674V25.05H79.02C79.062 24.826 79.104 24.616 79.146 24.42H73.952V23.426ZM76.99 31.154H83.01V30.412H76.99V31.154ZM76.99 29.628H83.01V28.928H76.99V29.628ZM76.99 28.13H83.01V27.43H76.99V28.13ZM76.99 26.632H83.01V25.946H76.99V26.632ZM83.906 21.858V20.948H82.142V21.858H83.906ZM80.952 21.858V20.948H79.048V21.858H80.952ZM77.858 21.858V20.948H76.094V21.858H77.858Z" fill="#1F1F1F"/>
<path d="M346.746 31.4543L352.186 26.0143C352.205 25.9084 352.205 25.8001 352.186 25.6943L346.746 20.2543C346.704 20.236 346.586 20.2351 346.426 20.2543L345.786 20.8943C345.768 21.0613 345.767 21.1823 345.786 21.2143L350.266 25.6943C350.298 25.7416 350.315 25.7973 350.315 25.8543C350.315 25.9113 350.298 25.9669 350.266 26.0143L345.786 30.4943C345.768 30.5256 345.767 30.646 345.786 30.8143L346.426 31.4543C346.584 31.4725 346.704 31.4735 346.746 31.4543Z" fill="#1F1F1F" fill-opacity="0.5"/>
</svg>
