<svg width="358" height="52" viewBox="0 0 358 52" fill="none" xmlns="http://www.w3.org/2000/svg">
<rect x="0.5" y="0.5" width="357" height="51" rx="5.5" fill="white"/>
<rect x="0.5" y="0.5" width="357" height="51" rx="5.5" stroke="white"/>
<rect x="12" y="12" width="28" height="28" rx="14" fill="#EEE6DB"/>
<path d="M26.2967 17.5071H26.6372C25.5241 18.5682 24.8086 19.9959 24.6151 21.542C24.4216 23.0881 24.7623 24.6549 25.5781 25.97C26.3939 27.2851 27.6332 28.2654 29.0805 28.7404C30.5277 29.2155 32.0915 29.1552 33.5 28.5702C32.9582 29.9075 32.0727 31.0689 30.9379 31.9305C29.8031 32.792 28.4616 33.3214 27.0566 33.4621C25.6515 33.6029 24.2355 33.3497 22.9597 32.7297C21.6839 32.1096 20.596 31.146 19.8123 29.9414C19.0285 28.7369 18.5781 27.3367 18.5093 25.8902C18.4404 24.4437 18.7556 23.0052 19.4213 21.728C20.0869 20.4509 21.078 19.383 22.2889 18.6384C23.4998 17.8938 24.8849 17.5003 26.2967 17.5V17.5071Z" stroke="#424242" stroke-width="1.5" stroke-linecap="round" stroke-linejoin="round"/>
<path d="M55.322 21.97L56.428 22.404C55.798 23.692 54.972 24.672 53.936 25.344L52.97 24.518C54.034 23.874 54.818 23.034 55.322 21.97ZM58.15 21.872C59.2 22.88 59.998 23.776 60.558 24.546L59.494 25.274C58.934 24.434 58.15 23.496 57.17 22.488L58.15 21.872ZM49.862 19.674C50.884 20.374 51.752 21.088 52.466 21.788L51.57 22.684C50.954 22.012 50.086 21.298 48.966 20.542L49.862 19.674ZM49.526 22.95C50.506 23.664 51.318 24.378 51.99 25.092L51.108 25.974C50.52 25.302 49.694 24.588 48.644 23.832L49.526 22.95ZM51.276 26.912L52.368 27.346C51.696 29.11 50.94 30.762 50.1 32.302L48.868 31.756C49.792 30.188 50.604 28.564 51.276 26.912ZM55.126 27.36H52.718V26.142H56.246V24.728H57.534V26.142H61.09V27.36H58.64C59.256 28.508 60.222 29.53 61.566 30.454L60.726 31.504C59.298 30.272 58.29 28.886 57.688 27.36H57.534V32.386H56.246V27.36H56.106C55.378 29.068 54.202 30.496 52.578 31.63L51.892 30.51C53.348 29.67 54.426 28.62 55.126 27.36ZM60.88 19.996V22.754H59.62V21.2H54.16V22.81H52.914V19.996H60.88ZM68.594 24.672H65.612V26.87H68.594V24.672ZM69.924 26.87H72.878V24.672H69.924V26.87ZM66.564 21.928C66.06 22.474 65.514 22.978 64.954 23.426H69.42C69.868 23.006 70.316 22.502 70.792 21.928H66.564ZM64.268 23.958C63.974 24.154 63.694 24.35 63.414 24.532L62.518 23.454C64.226 22.488 65.682 21.144 66.9 19.436L68.258 19.73C68.034 20.08 67.796 20.416 67.558 20.724H72.514V21.732C72.066 22.39 71.618 22.95 71.184 23.426H74.222V28.13H65.612V30.314C65.612 30.72 65.836 30.93 66.256 30.93H72.752C73.186 30.902 73.48 30.776 73.62 30.524C73.732 30.328 73.858 29.768 73.97 28.844L75.272 29.264C75.16 30.174 75.02 30.818 74.88 31.21C74.628 31.854 74.068 32.19 73.2 32.218H65.696C64.744 32.218 64.268 31.756 64.268 30.832V23.958ZM80.886 20.598H82.776V19.562H84.022V20.598H85.968V19.562H87.228V20.598H89.286V21.774H87.228V22.67H85.968V21.774H84.022V22.67H82.776V21.774H80.886V20.598ZM84.876 29.726C84.708 30.006 84.54 30.272 84.358 30.51C83.714 31.322 82.58 31.966 80.956 32.442L80.494 31.35C81.838 30.972 82.818 30.44 83.406 29.754C83.49 29.642 83.56 29.558 83.616 29.474H80.578V28.27H84.204C84.288 28.004 84.358 27.724 84.414 27.444H81.544V23.006H88.432V27.444H85.59L85.422 28.27H89.314V29.474H86.08C86.864 30.258 87.998 30.916 89.482 31.434L88.586 32.498C86.906 31.77 85.66 30.846 84.876 29.726ZM79.682 25.638V32.4H78.422V26.058C78.044 27.178 77.582 28.2 77.036 29.138L76.462 27.668C77.344 26.45 78.002 25.064 78.422 23.524V23.398H76.91V22.18H78.422V19.604H79.682V22.18H81.04V23.398H79.682V24.182C80.256 24.854 80.844 25.624 81.446 26.464L80.746 27.514C80.34 26.758 79.99 26.142 79.682 25.638ZM87.228 26.436V25.722H82.734V26.436H87.228ZM82.734 24.742H87.228V24.042H82.734V24.742ZM90.882 21.914H97.588C97.546 21.158 97.532 20.36 97.532 19.548H98.904C98.904 20.374 98.918 21.158 98.96 21.914H101.144C100.78 21.242 100.374 20.64 99.94 20.108L101.032 19.59C101.466 20.15 101.886 20.752 102.278 21.424L101.284 21.914H103.16V23.202H99.03C99.198 25.33 99.52 27.136 99.996 28.592C100.584 30.146 101.074 30.93 101.466 30.93C101.676 30.916 101.914 30.16 102.166 28.676L103.37 29.292C102.95 31.364 102.348 32.414 101.55 32.428C100.206 32.344 99.114 30.762 98.274 27.668C97.98 26.38 97.77 24.896 97.658 23.202H90.882V21.914ZM91.078 25.246H97.098V26.492H94.746V29.726C95.726 29.53 96.692 29.306 97.644 29.054V30.356C95.6 30.846 93.402 31.266 91.064 31.602L90.756 30.342C91.652 30.23 92.548 30.104 93.43 29.964V26.492H91.078V25.246Z" fill="#424242"/>
<path d="M317.25 14.75H334.75C337.734 14.75 340.595 15.9353 342.705 18.045C344.815 20.1548 346 23.0163 346 26C346 28.9837 344.815 31.8452 342.705 33.955C340.595 36.0647 337.734 37.25 334.75 37.25H317.25C314.266 37.25 311.405 36.0647 309.295 33.955C307.185 31.8452 306 28.9837 306 26C306 23.0163 307.185 20.1548 309.295 18.045C311.405 15.9353 314.266 14.75 317.25 14.75ZM317.25 32.7188C318.579 32.7188 319.878 32.3247 320.983 31.5864C322.088 30.8482 322.949 29.7988 323.457 28.5712C323.966 27.3435 324.099 25.9925 323.84 24.6892C323.58 23.3859 322.941 22.1888 322.001 21.2491C321.061 20.3095 319.864 19.6696 318.561 19.4103C317.257 19.1511 315.907 19.2842 314.679 19.7927C313.451 20.3012 312.402 21.1624 311.664 22.2673C310.925 23.3722 310.531 24.6712 310.531 26C310.53 26.8827 310.703 27.7569 311.04 28.5726C311.377 29.3883 311.872 30.1295 312.496 30.7536C313.121 31.3778 313.862 31.8726 314.677 32.2098C315.493 32.547 316.367 32.72 317.25 32.7188Z" fill="#9AA1A9"/>
</svg>
