<svg width="385" height="52" viewBox="0 0 385 52" fill="none" xmlns="http://www.w3.org/2000/svg">
<rect x="11.5" y="0.5" width="357" height="51" rx="5.5" fill="white"/>
<rect x="11.5" y="0.5" width="357" height="51" rx="5.5" stroke="white"/>
<rect x="23" y="12" width="28" height="28" rx="14" fill="#EEE6DB"/>
<path fill-rule="evenodd" clip-rule="evenodd" d="M35.0875 18H38.9125C40.6222 18 41.9766 18 43.0361 18.1399C44.1263 18.2843 45.009 18.5879 45.7058 19.2718C46.4015 19.9566 46.7104 20.8242 46.8573 21.8958C46.9411 22.5111 46.9755 23.227 46.9894 24.0562C47.001 24.1258 47.0022 24.1966 46.9932 24.2665C46.9987 24.7834 47.0009 25.3442 46.9997 25.9488V26.0512C46.9997 27.7317 46.9997 29.0629 46.8573 30.1042C46.7104 31.1758 46.4015 32.0434 45.7058 32.7282C45.009 33.4121 44.1263 33.7157 43.0361 33.8601C41.9756 34 40.6222 34 38.9125 34H35.0875C33.3778 34 32.0234 34 30.9639 33.8601C29.8737 33.7157 28.991 33.4121 28.2942 32.7282C27.5985 32.0434 27.2896 31.1758 27.1427 30.1042C27.0003 29.0619 27.0003 27.7317 27.0003 26.0512V25.9488C26.9991 25.3442 27.0013 24.7834 27.0068 24.2665C26.9975 24.1967 26.9984 24.1258 27.0096 24.0562C27.0245 23.227 27.0589 22.5111 27.1427 21.8958C27.2896 20.8242 27.5985 19.9566 28.2942 19.2718C28.991 18.5879 29.8737 18.2843 30.9639 18.1399C32.0244 18 33.3778 18 35.0875 18ZM28.3975 24.8571C28.3963 25.2119 28.3956 25.5928 28.3956 26C28.3956 27.7435 28.3975 28.9824 28.5259 29.9223C28.6514 30.8411 28.8877 31.3714 29.2812 31.7582C29.6747 32.1449 30.2142 32.3771 31.15 32.5006C32.1062 32.6267 33.3657 32.6286 35.1396 32.6286H38.8604C40.6343 32.6286 41.8947 32.6267 42.851 32.5006C43.7858 32.3771 44.3253 32.1449 44.7188 31.7582C45.1123 31.3714 45.3486 30.8411 45.4741 29.9214C45.6025 28.9815 45.6044 27.7435 45.6044 26C45.6044 25.5928 45.6037 25.2119 45.6025 24.8571H28.3975ZM45.5802 23.4857H28.4198C28.4384 22.949 28.4701 22.4855 28.5259 22.0777C28.6514 21.1589 28.8877 20.6286 29.2812 20.2418C29.6747 19.8551 30.2142 19.6229 31.15 19.4994C32.1062 19.3733 33.3657 19.3714 35.1396 19.3714H38.8604C40.6343 19.3714 41.8947 19.3733 42.851 19.4994C43.7858 19.6229 44.3253 19.8551 44.7188 20.2418C45.1123 20.6286 45.3486 21.1589 45.4741 22.0786C45.5299 22.4855 45.5616 22.949 45.5802 23.4857ZM30.7211 29.6571C30.7211 29.4753 30.7946 29.3009 30.9255 29.1723C31.0563 29.0437 31.2338 28.9714 31.4188 28.9714H35.1396C35.3246 28.9714 35.5021 29.0437 35.6329 29.1723C35.7637 29.3009 35.8372 29.4753 35.8372 29.6571C35.8372 29.839 35.7637 30.0134 35.6329 30.142C35.5021 30.2706 35.3246 30.3429 35.1396 30.3429H31.4188C31.2338 30.3429 31.0563 30.2706 30.9255 30.142C30.7946 30.0134 30.7211 29.839 30.7211 29.6571ZM36.7674 29.6571C36.7674 29.4753 36.841 29.3009 36.9718 29.1723C37.1026 29.0437 37.2801 28.9714 37.4651 28.9714H38.8604C39.0454 28.9714 39.2229 29.0437 39.3537 29.1723C39.4846 29.3009 39.5581 29.4753 39.5581 29.6571C39.5581 29.839 39.4846 30.0134 39.3537 30.142C39.2229 30.2706 39.0454 30.3429 38.8604 30.3429H37.4651C37.2801 30.3429 37.1026 30.2706 36.9718 30.142C36.841 30.0134 36.7674 29.839 36.7674 29.6571Z" fill="#1F1F1F"/>
<path d="M62.584 19.394L63.83 19.982C63.522 20.934 63.116 21.858 62.64 22.74V32.47H61.31V24.798C60.862 25.386 60.372 25.96 59.84 26.52L59.42 25.134C60.848 23.496 61.912 21.578 62.584 19.394ZM63.984 22.446H69.108V19.576H70.438V22.446H72.37V23.734H70.438V30.846C70.438 31.854 69.948 32.372 68.968 32.372H66.882L66.588 31.07C67.246 31.126 67.89 31.154 68.506 31.154C68.898 31.154 69.108 30.93 69.108 30.51V23.734H63.984V22.446ZM65.426 25.05C66.462 26.268 67.26 27.332 67.82 28.256L66.686 29.04C66.098 28.046 65.314 26.94 64.334 25.722L65.426 25.05ZM73.644 20.71H76.5V19.52H77.76V20.71H80.224V21.858H77.76V22.81H79.902V23.93H74.134V22.81H76.5V21.858H73.644V20.71ZM74.596 24.784H79.468V25.932H74.596V24.784ZM73.742 26.73H80.378V27.892H77.746V31.154C77.746 31.994 77.284 32.414 76.388 32.414H75.24L74.974 31.21C75.31 31.266 75.646 31.294 75.968 31.294C76.304 31.294 76.486 31.14 76.486 30.846V27.892H73.742V26.73ZM74.68 28.396L75.744 28.606C75.436 29.684 75.016 30.608 74.456 31.392L73.462 30.762C74.036 30.034 74.442 29.236 74.68 28.396ZM79.342 28.27C79.664 28.9 79.958 29.572 80.21 30.3L79.174 30.762C78.908 29.95 78.614 29.222 78.292 28.606L79.342 28.27ZM81.428 19.576L82.646 19.772C82.562 20.444 82.478 21.06 82.366 21.62H85.992V22.418C85.81 23.594 85.572 24.77 85.292 25.946L84.06 25.596C84.312 24.798 84.536 23.874 84.704 22.81H82.086C81.764 23.958 81.358 24.882 80.854 25.582L79.846 24.854C80.658 23.594 81.19 21.83 81.428 19.576ZM82.394 23.79H83.598C83.598 24.714 83.556 25.568 83.472 26.352C84.06 28.48 85.082 30.174 86.51 31.434L85.628 32.442C84.536 31.35 83.682 30.034 83.08 28.508C82.646 30.118 81.68 31.448 80.168 32.512L79.356 31.546C80.658 30.622 81.512 29.502 81.918 28.158C82.226 27.038 82.394 25.582 82.394 23.79ZM100.622 28.522C100.482 29.95 100.272 30.902 99.992 31.35C99.726 31.77 99.166 31.994 98.312 31.994H94.658C93.748 31.994 93.3 31.518 93.3 30.594V24.308H98.242V21.382H92.712V20.094H99.516V25.582H94.602V30.076C94.602 30.496 94.812 30.706 95.232 30.734H98.074C98.578 30.734 98.9 30.538 99.026 30.174C99.138 29.81 99.236 29.11 99.292 28.074L100.622 28.522ZM89.422 19.632C90.332 20.318 91.102 21.004 91.732 21.704L90.822 22.628C90.262 21.97 89.492 21.27 88.498 20.542L89.422 19.632ZM87.574 23.692H90.808V29.726C91.284 29.334 91.802 28.9 92.334 28.41L92.684 29.81C91.746 30.636 90.752 31.378 89.688 32.022L89.184 30.832C89.408 30.636 89.534 30.398 89.534 30.118V24.966H87.574V23.692ZM103.366 19.968H111.64V24.49H114.048V25.708H108.574V27.136C108.868 27.458 109.176 27.766 109.512 28.06C110.45 27.528 111.262 26.772 111.934 25.778L112.956 26.632C112.214 27.556 111.374 28.284 110.422 28.802C111.486 29.586 112.704 30.272 114.104 30.874L113.432 32.05C111.416 31.098 109.806 29.95 108.574 28.606V31.028C108.574 31.98 108.154 32.456 107.342 32.456H105.718L105.424 31.196C105.942 31.252 106.432 31.294 106.894 31.294C107.132 31.294 107.258 31.098 107.258 30.72V28.676C105.858 29.908 104.206 31.014 102.302 32.008L101.77 30.776C103.884 29.81 105.718 28.648 107.258 27.29V25.708H101.966V24.49H110.282V23.412H103.842V22.264H110.282V21.158H103.366V19.968ZM103.646 26.002C104.472 26.576 105.172 27.15 105.732 27.71L104.864 28.578C104.36 28.046 103.66 27.472 102.764 26.856L103.646 26.002Z" fill="#1F1F1F"/>
<path d="M346.746 31.4543L352.186 26.0143C352.205 25.9084 352.205 25.8001 352.186 25.6943L346.746 20.2543C346.704 20.236 346.586 20.2351 346.426 20.2543L345.786 20.8943C345.768 21.0613 345.767 21.1823 345.786 21.2143L350.266 25.6943C350.298 25.7416 350.315 25.7973 350.315 25.8543C350.315 25.9113 350.298 25.9669 350.266 26.0143L345.786 30.4943C345.768 30.5256 345.767 30.646 345.786 30.8143L346.426 31.4543C346.584 31.4725 346.704 31.4735 346.746 31.4543Z" fill="#1F1F1F" fill-opacity="0.5"/>
</svg>
