<svg width="385" height="52" viewBox="0 0 385 52" fill="none" xmlns="http://www.w3.org/2000/svg">
<rect x="11.5" y="0.5" width="357" height="51" rx="5.5" fill="white"/>
<rect x="11.5" y="0.5" width="357" height="51" rx="5.5" stroke="white"/>
<rect x="23" y="12" width="28" height="28" rx="14" fill="#EEE6DB"/>
<path d="M32.2321 22.6176C30.2642 23.0632 29.2802 23.2856 29.0458 24.0384C28.8122 24.7904 29.4826 25.5752 30.8241 27.1441L31.1713 27.5497C31.5521 27.9953 31.7433 28.2185 31.8289 28.4937C31.9145 28.7697 31.8857 29.0673 31.8281 29.6617L31.7753 30.2033C31.5729 32.2969 31.4713 33.3433 32.0841 33.8081C32.6969 34.2729 33.6185 33.8489 35.46 33.0009L35.9376 32.7817C36.4608 32.5401 36.7224 32.4201 37 32.4201C37.2776 32.4201 37.5392 32.5401 38.0632 32.7817L38.5392 33.0009C40.3815 33.8489 41.3031 34.2729 41.9151 33.8089C42.5287 33.3433 42.4271 32.2969 42.2247 30.2033M43.1759 27.1441C44.5174 25.576 45.1878 24.7912 44.9542 24.0384C44.7206 23.2856 43.7358 23.0624 41.7679 22.6176L41.2591 22.5024C40.6999 22.376 40.4207 22.3128 40.1959 22.1424C39.9711 21.972 39.8279 21.7136 39.5399 21.1968L39.2775 20.7264C38.264 18.9088 37.7576 18 37 18C36.2424 18 35.736 18.9088 34.7225 20.7264" stroke="#1F1F1F" stroke-width="1.5" stroke-linecap="round"/>
<path d="M66.154 25.918V27.276C65.398 27.528 64.6 27.752 63.76 27.976V30.902C63.76 31.798 63.284 32.26 62.346 32.26H60.778L60.484 30.986C60.974 31.042 61.436 31.07 61.884 31.07C62.234 31.07 62.416 30.902 62.416 30.566V28.284C61.576 28.466 60.722 28.634 59.826 28.774L59.644 27.444C60.61 27.29 61.534 27.122 62.416 26.94V24.434H59.644V23.16H62.416V21.676C61.716 21.816 61.002 21.928 60.26 22.04L59.98 20.78C61.94 20.57 63.676 20.164 65.188 19.548L65.65 20.794C65.048 21.004 64.418 21.2 63.76 21.382V23.16H66.784C66.7 22.068 66.658 20.864 66.658 19.548H68.002C68.002 20.92 68.044 22.124 68.128 23.16H72.356V24.434H68.24C68.324 25.358 68.45 26.128 68.618 26.744C68.674 27.01 68.744 27.248 68.814 27.472C69.416 26.744 69.948 25.918 70.396 24.994L71.544 25.596C70.914 26.884 70.172 27.99 69.304 28.914C69.472 29.292 69.626 29.614 69.794 29.866C70.214 30.496 70.536 30.818 70.76 30.818C70.942 30.818 71.124 30.09 71.306 28.634L72.482 29.25C72.132 31.238 71.614 32.246 70.942 32.246C70.34 32.246 69.71 31.826 69.052 31C68.786 30.664 68.548 30.286 68.338 29.838C67.372 30.65 66.294 31.294 65.09 31.756L64.348 30.608C65.664 30.132 66.812 29.446 67.792 28.55C67.624 28.088 67.484 27.612 67.358 27.108C67.162 26.352 67.008 25.456 66.896 24.434H63.76V26.632C64.6 26.408 65.398 26.17 66.154 25.918ZM69.542 19.674C70.536 20.304 71.376 20.934 72.076 21.564L71.11 22.516C70.522 21.9 69.71 21.242 68.646 20.528L69.542 19.674ZM78.782 21.83V31.574H77.508V30.846H75.296V31.98H74.022V21.83H75.352C75.604 21.074 75.8 20.304 75.912 19.492L77.242 19.674C77.102 20.444 76.892 21.158 76.626 21.83H78.782ZM75.296 29.614H77.508V26.856H75.296V29.614ZM75.296 25.666H77.508V23.09H75.296V25.666ZM81.302 25.19C82.226 26.338 82.94 27.332 83.43 28.2L82.38 28.942C81.848 28.018 81.12 26.996 80.224 25.862L81.302 25.19ZM86.006 21.844C86.006 26.674 85.936 29.656 85.796 30.776C85.656 31.784 84.984 32.288 83.794 32.288C83.514 32.288 83.01 32.26 82.31 32.218L81.988 31C82.604 31.028 83.136 31.056 83.584 31.056C84.144 31.056 84.466 30.762 84.55 30.174C84.634 29.474 84.676 27.122 84.704 23.132H81.19C80.798 23.972 80.35 24.742 79.818 25.442L79.02 24.392C79.944 23.048 80.588 21.41 80.924 19.478L82.24 19.646C82.1 20.43 81.904 21.158 81.68 21.844H86.006ZM88.19 29.754L87.798 28.634C88.022 28.55 88.148 28.41 88.148 28.228V20.752H89.45V28.172C90.038 27.99 90.612 27.794 91.186 27.57V19.59H92.488V31.168C93.874 30.496 94.994 29.614 95.834 28.55C95.148 27.556 94.574 26.492 94.112 25.372C93.874 25.736 93.622 26.058 93.37 26.366L92.558 25.358C93.664 23.902 94.42 21.942 94.812 19.478L96.142 19.702C96.03 20.346 95.89 20.962 95.75 21.536H100.174V22.838H99.068C98.956 25.022 98.41 26.912 97.458 28.508C98.326 29.6 99.362 30.58 100.538 31.448L99.628 32.526C98.48 31.658 97.486 30.692 96.646 29.642C95.736 30.734 94.588 31.658 93.188 32.414L92.488 31.28V32.344H91.186V28.844C90.234 29.18 89.226 29.488 88.19 29.754ZM95.344 22.838C95.204 23.23 95.05 23.594 94.882 23.958C95.33 25.19 95.918 26.324 96.618 27.36C97.318 26.072 97.71 24.56 97.808 22.838H95.344ZM101.868 20.304H105.018V19.52H106.362V20.304H109.652V19.534H110.996V20.304H114.146V21.466H110.996V22.11H111.696C111.696 22.334 111.696 22.558 111.71 22.768H112.55C112.424 22.432 112.284 22.138 112.144 21.858L113.25 21.69C113.362 22.012 113.488 22.376 113.628 22.768H114.244V23.874H111.738C111.766 25.582 111.864 26.856 112.018 27.724V27.752C112.326 26.842 112.536 25.806 112.662 24.644L113.768 24.882C113.544 26.842 113.11 28.452 112.466 29.712C112.522 29.894 112.578 30.048 112.634 30.174C112.858 30.664 113.012 30.916 113.124 30.916C113.25 30.916 113.376 30.342 113.516 29.222L114.468 29.754C114.216 31.518 113.824 32.4 113.32 32.4C112.928 32.4 112.522 32.05 112.088 31.378C111.976 31.21 111.864 31.014 111.78 30.804C111.276 31.476 110.674 31.994 110.002 32.386L109.442 31.476H106.012V24.518H110.072V25.554H109.022V26.52H110.1V29.362H109.022V30.426H110.072V30.902C110.548 30.496 110.954 30.006 111.29 29.432C111.178 29.068 111.08 28.662 110.996 28.228C110.772 27.108 110.632 25.666 110.576 23.874H105.41V27.962C105.382 29.824 105.06 31.322 104.472 32.456L103.52 31.588C103.968 30.734 104.192 29.544 104.22 28.018H103.366C103.282 29.838 102.96 31.126 102.372 31.854L101.476 31.14C101.98 30.566 102.274 29.53 102.344 28.018H101.602V26.912H104.22V25.722H102.106V22.432H103.24V24.616H104.22V22.768H110.548V22.306H109.652V21.466H106.362V22.292H105.018V21.466H101.868V20.304ZM108 25.554H107.062V26.52H108V25.554ZM107.062 27.472V28.396H109.092V27.472H107.062ZM107.062 29.362V30.426H108V29.362H107.062Z" fill="#1F1F1F"/>
<path d="M346.746 31.4543L352.186 26.0143C352.205 25.9084 352.205 25.8001 352.186 25.6943L346.746 20.2543C346.704 20.236 346.586 20.2351 346.426 20.2543L345.786 20.8943C345.768 21.0613 345.767 21.1823 345.786 21.2143L350.266 25.6943C350.298 25.7416 350.315 25.7973 350.315 25.8543C350.315 25.9113 350.298 25.9669 350.266 26.0143L345.786 30.4943C345.768 30.5256 345.767 30.646 345.786 30.8143L346.426 31.4543C346.584 31.4725 346.704 31.4735 346.746 31.4543Z" fill="#1F1F1F" fill-opacity="0.5"/>
</svg>
