<svg width="100" height="100" viewBox="155 154 80 80" fill="none" xmlns="http://www.w3.org/2000/svg">
<path fill-rule="evenodd" clip-rule="evenodd" d="M155 194C155 171.909 172.909 154 195 154C217.091 154 235 171.909 235 194C235 216.091 217.091 234 195 234C172.909 234 155 216.091 155 194ZM157.689 194C157.689 175.474 171.192 160.101 188.893 157.187C190.483 156.925 191.278 156.794 191.641 157.319C192.005 157.844 191.586 158.569 190.748 160.02L163.442 207.315C162.605 208.766 162.186 209.491 161.549 209.439C160.913 209.386 160.629 208.632 160.063 207.124C158.528 203.042 157.689 198.619 157.689 194ZM195 231.311C183.392 231.311 173.023 226.01 166.18 217.698C165.154 216.451 164.641 215.828 164.914 215.25C165.186 214.672 166.025 214.672 167.703 214.672H222.297C223.975 214.672 224.814 214.672 225.086 215.25C225.359 215.828 224.846 216.451 223.82 217.698C216.977 226.01 206.608 231.311 195 231.311ZM232.311 194C232.311 198.619 231.472 203.042 229.937 207.125C229.37 208.632 229.087 209.386 228.451 209.439C227.814 209.491 227.395 208.766 226.558 207.315L199.252 160.02C198.414 158.569 197.995 157.844 198.359 157.319C198.722 156.794 199.517 156.925 201.107 157.186C218.808 160.101 232.311 175.474 232.311 194ZM213.624 195.434C214.433 192.593 214.178 191.251 212.702 188.695L196.747 161.059C195.97 159.714 195.582 159.042 195 159.042C194.418 159.042 194.03 159.714 193.253 161.059L177.298 188.695C175.823 191.25 175.593 192.589 176.386 195.432C176.558 196.049 176.742 196.631 176.96 197.17C177.568 198.676 178.129 199.042 178.7 199.042C179.191 199.042 179.651 198.788 180.164 197.781C180.83 196.474 181.14 194.99 181.495 193.578C181.878 192.052 182.31 190.333 182.989 188.999C183.696 187.612 184.871 186.269 186.85 186.269C188.828 186.269 190.004 187.612 190.711 188.999C192.119 191.764 192.133 195.026 193.535 197.781C194.049 198.788 194.509 199.042 195 199.042C195.491 199.042 195.951 198.788 196.464 197.781C197.868 195.024 197.881 191.766 199.289 188.999C199.996 187.612 201.172 186.269 203.15 186.269C205.128 186.269 206.304 187.612 207.011 188.999C207.69 190.333 208.122 192.052 208.505 193.578C208.86 194.99 209.17 196.474 209.836 197.781C210.349 198.788 210.809 199.042 211.3 199.042C211.871 199.042 212.432 198.676 213.04 197.17C213.269 196.603 213.457 196.022 213.624 195.434ZM215.534 198.177C216.007 197.005 216.318 196.419 216.682 196.352C216.734 196.342 216.629 196.339 216.682 196.341C217.051 196.357 217.423 196.872 218.018 197.901L224.401 208.958C225.177 210.303 225.566 210.975 225.274 211.479C224.983 211.983 224.207 211.983 222.655 211.983H167.345C165.793 211.983 165.017 211.983 164.725 211.479C164.434 210.975 164.822 210.303 165.599 208.958L171.982 197.901C172.577 196.872 172.949 196.357 173.318 196.341C173.371 196.339 173.266 196.342 173.318 196.352C173.682 196.419 173.993 197.005 174.466 198.177C175.139 199.842 176.335 201.731 178.7 201.731C180.678 201.731 181.854 200.388 182.561 199.001C183.305 197.539 183.681 195.909 184.079 194.328C184.492 192.684 184.859 191.253 185.385 190.219C185.898 189.212 186.359 188.958 186.85 188.958C187.341 188.958 187.801 189.212 188.314 190.219C188.841 191.253 189.208 192.684 189.621 194.328C190.018 195.909 190.395 197.539 191.139 199.001C191.846 200.388 193.022 201.731 195 201.731C196.978 201.731 198.154 200.388 198.861 199.001C199.605 197.539 199.981 195.909 200.379 194.328C200.792 192.684 201.159 191.253 201.686 190.219C202.199 189.212 202.659 188.958 203.15 188.958C203.641 188.958 204.101 189.212 204.614 190.219C205.141 191.253 205.508 192.684 205.921 194.328C206.318 195.909 206.695 197.539 207.439 199.001C208.146 200.388 209.322 201.731 211.3 201.731C213.665 201.731 214.861 199.842 215.534 198.177Z" fill="#FFFFFF"/>
</svg>
