<svg width="390" height="844" viewBox="0 0 390 844" fill="none" xmlns="http://www.w3.org/2000/svg">
<rect width="390" height="844" rx="16" fill="#111111"/>
<rect x="16" y="106" width="358" height="134" rx="6" fill="white" fill-opacity="0.05"/>
<rect x="16.5" y="106.5" width="357" height="133" rx="5.5" stroke="white" stroke-opacity="0.05"/>
<path d="M35.238 125.338C35.434 125.767 35.616 126.257 35.784 126.808H40.614V128.194H38.29C38.1593 128.763 37.9773 129.333 37.744 129.902H40.908V131.316H31.024V133.136C30.968 135.348 30.4687 137.112 29.526 138.428L28.42 137.434C29.1387 136.389 29.512 134.956 29.54 133.136V129.902H32.354L31.892 128.194H29.428V126.808H34.286C34.1087 126.36 33.9127 125.954 33.698 125.59L35.238 125.338ZM33.796 129.902H36.33C36.5633 129.351 36.75 128.782 36.89 128.194H33.334L33.796 129.902ZM44.982 125.94H53.032V130.938H44.982V125.94ZM51.562 129.566V127.312H46.452V129.566H51.562ZM48.37 131.862V138.246H46.956V137.588H44.52V138.246H43.092V131.862H48.37ZM44.52 136.23H46.956V133.234H44.52V136.23ZM54.908 131.862V138.246H53.452V137.588H50.89V138.246H49.462V131.862H54.908ZM50.89 136.23H53.452V133.234H50.89V136.23ZM59.85 126.64H61.166C61.306 126.267 61.404 125.879 61.46 125.478L62.888 125.674C62.804 126.01 62.706 126.332 62.594 126.64H64.288V129.986C64.9413 128.726 65.394 127.228 65.646 125.492L67.004 125.744C66.8827 126.5 66.7287 127.214 66.542 127.886H69.342V129.258H68.656C68.5907 131.433 68.2313 133.304 67.578 134.872C68.1473 135.824 68.824 136.571 69.608 137.112L68.768 138.358C68.0587 137.807 67.4333 137.093 66.892 136.216C66.3693 137.065 65.7253 137.803 64.96 138.428L64.162 137.154C64.9553 136.566 65.6087 135.782 66.122 134.802C65.6647 133.831 65.2727 132.707 64.946 131.428L64.568 131.946L64.008 131.26H62.356L62.706 132.17H64.61V133.402H61.95C61.9127 133.654 61.8707 133.911 61.824 134.172H64.26C64.26 136.076 64.1387 137.243 63.896 137.672C63.672 138.073 63.2613 138.288 62.664 138.316H61.796L61.432 137.07H62.3C62.5427 137.051 62.692 136.949 62.748 136.762C62.7947 136.575 62.8273 136.104 62.846 135.348H61.586C61.4927 135.712 61.404 136.011 61.32 136.244C60.984 137.065 60.48 137.807 59.808 138.47L58.912 137.308C59.444 136.785 59.85 136.207 60.13 135.572C60.3447 135.003 60.5127 134.279 60.634 133.402H59.388V132.17H61.334L60.998 131.26H59.85V126.64ZM65.772 129.972C66.0147 131.139 66.3413 132.221 66.752 133.22C67.0973 132.091 67.298 130.77 67.354 129.258H66.08L65.772 129.972ZM63.028 130.21V129.496H61.11V130.21H63.028ZM61.11 128.46H63.028V127.676H61.11V128.46ZM57.526 125.702C58.3753 126.346 59.0893 126.981 59.668 127.606L58.73 128.53C58.226 127.923 57.512 127.279 56.588 126.598L57.526 125.702ZM57.316 129.076C58.128 129.757 58.7953 130.42 59.318 131.064L58.338 132.044C57.862 131.4 57.1947 130.719 56.336 130L57.316 129.076ZM59.444 133.752C58.9307 135.413 58.38 136.939 57.792 138.33L56.532 137.784C57.1853 136.281 57.7453 134.774 58.212 133.262L59.444 133.752ZM74.228 129.44H78.064V127.69C77.084 127.774 76.0387 127.816 74.928 127.816L74.48 126.5C77.4853 126.5 80.038 126.169 82.138 125.506L82.866 126.738C81.8953 127.083 80.7893 127.345 79.548 127.522V129.44H83.412V130.84H79.548V132.506H82.6V138.456H81.158V137.798H76.566V138.456H75.124V132.506H78.064V130.84H74.228V129.44ZM76.566 136.426H81.158V133.878H76.566V136.426ZM71.932 125.618C72.856 126.215 73.6493 126.827 74.312 127.452L73.318 128.432C72.73 127.825 71.9367 127.2 70.938 126.556L71.932 125.618ZM71.61 128.95C72.59 129.659 73.3927 130.345 74.018 131.008L73.01 132.016C72.4593 131.391 71.652 130.7 70.588 129.944L71.61 128.95ZM74.186 133.248C73.598 135.077 72.9633 136.757 72.282 138.288L70.812 137.644C71.6147 136.02 72.296 134.382 72.856 132.73L74.186 133.248ZM88.62 128.502L88.424 130.266H96.152C96.152 134.373 95.9233 136.753 95.466 137.406C95.0087 138.031 94.0333 138.344 92.54 138.344C92.0547 138.344 91.4527 138.321 90.734 138.274L90.342 136.944C91.3127 137.019 91.9473 137.056 92.246 137.056C93.4033 137.056 94.094 136.799 94.318 136.286C94.5607 135.745 94.682 134.195 94.682 131.638H86.786L87.472 125.45L88.942 125.562L88.774 127.102H96.544V128.502H88.62ZM84.756 133.514H93.604V134.914H84.756V133.514ZM103.138 130.798V131.918H108.234V130.798H103.138ZM108.234 133.178H103.138V134.27H108.234V133.178ZM108.234 135.53H103.138V138.442H101.766V131.61C101.075 132.394 100.31 133.131 99.47 133.822L98.518 132.576C100.086 131.344 101.337 129.921 102.27 128.306H98.896V126.892H102.97C103.185 126.388 103.367 125.893 103.516 125.408L105.014 125.59C104.846 126.122 104.701 126.556 104.58 126.892H111.258V128.306H103.964C103.721 128.763 103.493 129.174 103.278 129.538H109.606V137.126C109.606 137.929 109.135 138.344 108.192 138.372H106.624L106.274 137.056C106.853 137.103 107.338 137.126 107.73 137.126C108.066 137.126 108.234 136.972 108.234 136.664V135.53ZM115.64 129.188C115.033 130.485 114.329 131.605 113.526 132.548L112.35 131.708C113.162 130.812 113.839 129.767 114.38 128.572L115.64 129.188ZM118.076 131.372C117.535 130.672 116.928 129.995 116.256 129.342L117.138 128.474C117.67 128.903 118.305 129.552 119.042 130.42L118.076 131.372ZM114.688 131.946C115.257 132.403 115.729 132.8 116.102 133.136C116.382 132.585 116.62 131.988 116.816 131.344L118.09 131.904C117.838 132.725 117.544 133.481 117.208 134.172C117.815 134.769 118.323 135.306 118.734 135.782L117.712 136.93C117.367 136.519 116.942 136.043 116.438 135.502C115.598 136.706 114.548 137.672 113.288 138.4L112.378 137.07C113.573 136.435 114.567 135.549 115.36 134.41C114.781 133.841 114.254 133.365 113.778 132.982L114.688 131.946ZM116.186 125.422C116.391 125.851 116.573 126.318 116.732 126.822H119.294V128.236H112.686V126.822H115.29C115.066 126.365 114.861 125.982 114.674 125.674L116.186 125.422ZM121.268 129.034L121.002 129.804C121.273 130.933 121.627 131.997 122.066 132.996C122.579 131.848 122.878 130.527 122.962 129.034H121.268ZM121.282 134.396C120.862 133.537 120.498 132.609 120.19 131.61C119.985 131.965 119.765 132.31 119.532 132.646L118.622 131.512C119.583 129.991 120.232 127.97 120.568 125.45L122.01 125.702C121.879 126.495 121.758 127.13 121.646 127.606H125.342V129.034H124.306C124.194 131.134 123.718 132.954 122.878 134.494C123.634 135.661 124.535 136.557 125.58 137.182L124.698 138.47C123.681 137.817 122.799 136.911 122.052 135.754C121.193 136.855 120.087 137.784 118.734 138.54L117.908 137.196C119.345 136.496 120.47 135.563 121.282 134.396ZM127.54 125.576H128.94V126.976H131.25V125.604H132.65V126.976H133.336V128.334H132.65V133.808H133.406V135.166H126.672V133.808H127.54V128.334H126.826V126.976H127.54V125.576ZM128.94 133.808H131.25V132.842H128.94V133.808ZM131.25 128.334H128.94V129.314H131.25V128.334ZM128.94 131.568H131.25V130.588H128.94V131.568ZM131.446 135.25C131.997 135.95 132.431 136.566 132.748 137.098C133.495 135.875 133.873 134.401 133.882 132.674V125.926H138.964V136.916C138.964 137.859 138.488 138.33 137.536 138.33H136.08L135.688 136.902C136.248 136.949 136.71 136.972 137.074 136.972C137.354 136.972 137.494 136.781 137.494 136.398V133.99H135.254C135.049 135.819 134.489 137.345 133.574 138.568L132.552 137.644L131.712 138.232C131.404 137.607 130.937 136.851 130.312 135.964L131.446 135.25ZM129.444 135.852C128.949 136.851 128.371 137.714 127.708 138.442L126.532 137.602C127.213 136.949 127.797 136.179 128.282 135.292L129.444 135.852ZM135.338 130.644V132.66H137.494V130.644H135.338ZM137.494 129.314V127.298H135.338V129.314H137.494Z" fill="#E7E7E7"/>
<path d="M35.182 157.352C35.378 157.8 35.56 158.304 35.756 158.864H40.614V160.124H38.262C38.122 160.754 37.926 161.37 37.674 161.958H40.908V163.246H30.968V165.136C30.912 167.32 30.422 169.084 29.47 170.414L28.448 169.518C29.204 168.454 29.596 166.998 29.624 165.136V161.958H32.452L31.962 160.124H29.47V158.864H34.398C34.216 158.402 34.006 157.968 33.782 157.576L35.182 157.352ZM33.768 161.958H36.4C36.652 161.37 36.848 160.754 36.988 160.124H33.264L33.768 161.958ZM45.024 157.996H52.976V162.882H45.024V157.996ZM51.646 161.622V159.256H46.354V161.622H51.646ZM48.328 163.932V170.232H47.04V169.56H44.45V170.232H43.148V163.932H48.328ZM44.45 168.314H47.04V165.192H44.45V168.314ZM54.852 163.932V170.232H53.522V169.56H50.82V170.232H49.518V163.932H54.852ZM50.82 168.314H53.522V165.192H50.82V168.314ZM59.892 158.682H61.222C61.348 158.29 61.446 157.898 61.516 157.492L62.818 157.674C62.734 158.038 62.636 158.374 62.51 158.682H64.26V162.182C64.946 160.922 65.422 159.368 65.688 157.52L66.934 157.744C66.808 158.528 66.654 159.27 66.458 159.942H69.328V161.202H68.614C68.544 163.414 68.18 165.304 67.508 166.872C68.096 167.866 68.782 168.65 69.58 169.21L68.81 170.33C68.082 169.77 67.438 169.028 66.878 168.104C66.332 169 65.674 169.77 64.904 170.4L64.19 169.238C65.016 168.608 65.688 167.796 66.192 166.816C65.716 165.808 65.31 164.632 64.988 163.316C64.834 163.526 64.68 163.722 64.54 163.918L63.994 163.232H62.3L62.664 164.226H64.596V165.346H61.88C61.838 165.654 61.796 165.934 61.768 166.2H64.218C64.218 168.09 64.092 169.238 63.868 169.658C63.63 170.064 63.224 170.274 62.636 170.302H61.768L61.446 169.168H62.314C62.58 169.154 62.748 169.042 62.818 168.832C62.874 168.594 62.916 168.076 62.944 167.278H61.544C61.46 167.628 61.362 167.95 61.264 168.23C60.928 169.056 60.424 169.798 59.752 170.442L58.94 169.406C59.472 168.874 59.878 168.272 60.158 167.628C60.382 167.04 60.55 166.284 60.69 165.346H59.402V164.226H61.418L61.054 163.232H59.892V158.682ZM65.744 161.944C66.01 163.246 66.346 164.394 66.766 165.388C67.158 164.17 67.368 162.77 67.424 161.202H66.052C65.94 161.454 65.842 161.706 65.744 161.944ZM63.098 162.266V161.468H61.04V162.266H63.098ZM61.04 160.502H63.098V159.634H61.04V160.502ZM57.484 157.73C58.324 158.374 59.038 159.004 59.626 159.648L58.758 160.502C58.254 159.886 57.54 159.242 56.616 158.556L57.484 157.73ZM57.274 161.118C58.058 161.776 58.73 162.434 59.276 163.106L58.38 164.002C57.904 163.358 57.232 162.686 56.378 161.972L57.274 161.118ZM58.282 165.304L59.402 165.738C58.898 167.362 58.338 168.888 57.722 170.316L56.574 169.812C57.218 168.342 57.792 166.844 58.282 165.304ZM74.256 161.496H78.134V159.606C77.126 159.69 76.062 159.746 74.928 159.746L74.508 158.556C77.546 158.556 80.094 158.22 82.166 157.548L82.824 158.668C81.858 159.004 80.752 159.27 79.492 159.452V161.496H83.398V162.77H79.492V164.59H82.572V170.428H81.256V169.756H76.482V170.442H75.152V164.59H78.134V162.77H74.256V161.496ZM76.482 168.51H81.256V165.836H76.482V168.51ZM71.89 157.66C72.814 158.262 73.612 158.878 74.27 159.494L73.36 160.39C72.8 159.816 72.002 159.186 70.98 158.514L71.89 157.66ZM71.568 160.992C72.52 161.678 73.332 162.364 73.976 163.05L73.052 163.974C72.478 163.33 71.666 162.644 70.63 161.902L71.568 160.992ZM72.926 164.758L74.144 165.234C73.556 167.026 72.898 168.706 72.198 170.274L70.868 169.686C71.666 168.076 72.352 166.438 72.926 164.758Z" fill="#E7E7E7"/>
<path d="M332.88 167.218C332.833 167.769 332.777 168.231 332.712 168.604C332.637 168.996 332.553 169.318 332.46 169.57C332.367 169.831 332.231 170.037 332.054 170.186C331.877 170.345 331.648 170.457 331.368 170.522C331.097 170.587 330.743 170.629 330.304 170.648C329.277 170.695 328.265 170.718 327.266 170.718C326.277 170.718 325.269 170.695 324.242 170.648C323.803 170.629 323.435 170.578 323.136 170.494C322.837 170.419 322.599 170.293 322.422 170.116C322.245 169.948 322.119 169.715 322.044 169.416C321.969 169.117 321.932 168.739 321.932 168.282V161.688L323.416 161.744V163.396H330.178V160.442H321.61V158.986H331.634V164.796H323.416V167.904C323.416 168.175 323.43 168.394 323.458 168.562C323.495 168.73 323.561 168.861 323.654 168.954C323.747 169.038 323.878 169.099 324.046 169.136C324.214 169.173 324.438 169.197 324.718 169.206C326.435 169.299 328.153 169.299 329.87 169.206C330.15 169.187 330.374 169.164 330.542 169.136C330.719 169.099 330.855 169.043 330.948 168.968C331.051 168.884 331.125 168.772 331.172 168.632C331.219 168.492 331.261 168.305 331.298 168.072C331.326 167.885 331.349 167.671 331.368 167.428C331.396 167.185 331.415 166.957 331.424 166.742L332.88 167.218ZM345.989 170.928C345.597 170.489 345.247 170.06 344.939 169.64C344.631 169.229 344.356 168.805 344.113 168.366C343.843 168.805 343.539 169.239 343.203 169.668C342.867 170.097 342.48 170.545 342.041 171.012L341.341 170.13C341.22 170.289 341.061 170.401 340.865 170.466C340.669 170.531 340.422 170.578 340.123 170.606L339.409 170.676L339.031 169.542L339.773 169.486C339.904 169.477 340.016 169.463 340.109 169.444C340.203 169.416 340.277 169.379 340.333 169.332C340.389 169.285 340.431 169.225 340.459 169.15C340.487 169.066 340.511 168.959 340.529 168.828C340.557 168.669 340.576 168.506 340.585 168.338C340.595 168.161 340.604 167.993 340.613 167.834H339.101C339.036 168.161 338.952 168.459 338.849 168.73C338.747 168.991 338.616 169.248 338.457 169.5C338.308 169.743 338.126 169.99 337.911 170.242C337.697 170.494 337.445 170.765 337.155 171.054L336.231 170.27C336.586 169.934 336.875 169.626 337.099 169.346C337.333 169.066 337.519 168.786 337.659 168.506C337.799 168.217 337.902 167.904 337.967 167.568C338.033 167.232 338.079 166.835 338.107 166.378C338.107 166.331 338.107 166.28 338.107 166.224C338.117 166.168 338.121 166.107 338.121 166.042H337.029V164.978H339.339C339.302 164.847 339.265 164.726 339.227 164.614C339.19 164.493 339.148 164.367 339.101 164.236L340.305 164.04C340.361 164.18 340.417 164.334 340.473 164.502C340.529 164.661 340.585 164.819 340.641 164.978H342.405V166.042H339.269C339.269 166.107 339.265 166.168 339.255 166.224C339.255 166.28 339.255 166.331 339.255 166.378C339.246 166.453 339.241 166.527 339.241 166.602C339.241 166.667 339.237 166.737 339.227 166.812H341.789C341.78 166.943 341.771 167.111 341.761 167.316C341.752 167.512 341.738 167.717 341.719 167.932C341.71 168.137 341.696 168.338 341.677 168.534C341.668 168.73 341.659 168.893 341.649 169.024C341.64 169.127 341.631 169.225 341.621 169.318C341.612 169.411 341.598 169.5 341.579 169.584C341.999 169.145 342.363 168.73 342.671 168.338C342.989 167.946 343.264 167.549 343.497 167.148C343.283 166.653 343.101 166.14 342.951 165.608C342.802 165.076 342.676 164.502 342.573 163.886L342.419 164.208L341.873 163.732V163.984H337.757V159.504H339.031C339.106 159.28 339.176 159.056 339.241 158.832C339.307 158.599 339.358 158.398 339.395 158.23L340.613 158.398C340.576 158.529 340.52 158.697 340.445 158.902C340.38 159.098 340.31 159.299 340.235 159.504H341.873V162.85C342.023 162.505 342.167 162.141 342.307 161.758C342.447 161.366 342.573 160.974 342.685 160.582C342.807 160.181 342.909 159.784 342.993 159.392C343.087 159 343.161 158.622 343.217 158.258L344.393 158.412C344.319 158.748 344.239 159.089 344.155 159.434C344.071 159.779 343.978 160.129 343.875 160.484H346.577V161.716H345.933C345.831 162.827 345.691 163.816 345.513 164.684C345.336 165.552 345.089 166.355 344.771 167.092C345.042 167.605 345.355 168.086 345.709 168.534C346.064 168.973 346.461 169.411 346.899 169.85L345.989 170.928ZM336.847 161.506C336.707 161.366 336.539 161.207 336.343 161.03C336.157 160.853 335.961 160.675 335.755 160.498C335.55 160.321 335.349 160.157 335.153 160.008C334.957 159.859 334.794 159.742 334.663 159.658L335.405 158.636C335.545 158.729 335.709 158.846 335.895 158.986C336.091 159.126 336.287 159.28 336.483 159.448C336.679 159.607 336.871 159.77 337.057 159.938C337.253 160.097 337.421 160.241 337.561 160.372L336.847 161.506ZM338.821 160.498V161.268H340.809V160.498H338.821ZM336.357 164.474C336.189 164.306 336.003 164.133 335.797 163.956C335.592 163.779 335.387 163.606 335.181 163.438C334.976 163.27 334.78 163.116 334.593 162.976C334.407 162.836 334.243 162.719 334.103 162.626L334.873 161.59C335.032 161.693 335.209 161.819 335.405 161.968C335.611 162.108 335.816 162.257 336.021 162.416C336.236 162.575 336.441 162.738 336.637 162.906C336.833 163.065 337.006 163.214 337.155 163.354L336.357 164.474ZM343.315 162.108C343.409 162.836 343.521 163.499 343.651 164.096C343.791 164.684 343.955 165.235 344.141 165.748C344.337 165.188 344.487 164.586 344.589 163.942C344.701 163.289 344.79 162.547 344.855 161.716H343.455C343.437 161.781 343.413 161.847 343.385 161.912C343.367 161.977 343.343 162.043 343.315 162.108ZM340.809 163.004V162.248H338.821V163.004H340.809ZM336.875 165.692C336.838 165.869 336.787 166.093 336.721 166.364C336.656 166.625 336.586 166.915 336.511 167.232C336.437 167.549 336.357 167.876 336.273 168.212C336.189 168.548 336.11 168.875 336.035 169.192C335.961 169.509 335.891 169.803 335.825 170.074C335.76 170.354 335.709 170.587 335.671 170.774L334.411 170.438C334.495 170.186 334.598 169.836 334.719 169.388C334.841 168.94 334.962 168.469 335.083 167.974C335.214 167.47 335.331 166.985 335.433 166.518C335.545 166.042 335.625 165.664 335.671 165.384L336.875 165.692ZM351.273 161.604C351.133 161.464 350.951 161.305 350.727 161.128C350.512 160.951 350.283 160.773 350.041 160.596C349.807 160.409 349.574 160.237 349.341 160.078C349.117 159.91 348.925 159.775 348.767 159.672L349.509 158.552C349.677 158.655 349.873 158.785 350.097 158.944C350.33 159.093 350.563 159.252 350.797 159.42C351.039 159.588 351.268 159.761 351.483 159.938C351.707 160.106 351.893 160.251 352.043 160.372L351.273 161.604ZM356.789 163.69V165.412H359.603V170.956H358.161V170.382H353.961V170.956H352.519V165.412H355.347V163.69H351.945V162.29H355.347V160.47C354.833 160.517 354.329 160.554 353.835 160.582C353.34 160.601 352.869 160.619 352.421 160.638L352.337 159.308C352.934 159.289 353.564 159.261 354.227 159.224C354.889 159.177 355.543 159.126 356.187 159.07C356.831 159.014 357.442 158.953 358.021 158.888C358.609 158.813 359.117 158.739 359.547 158.664L359.799 159.994C359.397 160.059 358.94 160.125 358.427 160.19C357.913 160.246 357.367 160.302 356.789 160.358V162.29H360.611V163.69H356.789ZM350.825 164.992C350.638 164.824 350.419 164.642 350.167 164.446C349.924 164.241 349.677 164.04 349.425 163.844C349.173 163.639 348.925 163.447 348.683 163.27C348.449 163.093 348.249 162.948 348.081 162.836L348.879 161.716C349.056 161.828 349.261 161.968 349.495 162.136C349.728 162.295 349.966 162.467 350.209 162.654C350.461 162.831 350.703 163.013 350.937 163.2C351.179 163.377 351.389 163.545 351.567 163.704L350.825 164.992ZM348.557 170.312C348.603 170.209 348.673 170.037 348.767 169.794C348.869 169.561 348.977 169.295 349.089 168.996C349.21 168.688 349.331 168.366 349.453 168.03C349.583 167.685 349.705 167.358 349.817 167.05C349.929 166.742 350.027 166.467 350.111 166.224C350.204 165.972 350.269 165.781 350.307 165.65L351.665 166.112C351.627 166.233 351.567 166.42 351.483 166.672C351.399 166.924 351.301 167.204 351.189 167.512C351.077 167.82 350.955 168.142 350.825 168.478C350.703 168.814 350.582 169.136 350.461 169.444C350.349 169.743 350.241 170.013 350.139 170.256C350.045 170.499 349.971 170.676 349.915 170.788L348.557 170.312ZM358.161 166.798H353.961V169.024H358.161V166.798Z" fill="#E59E2E"/>
<path d="M28 186C158.435 186 231.565 186 362 186" stroke="#303030"/>
<path d="M33.068 209.742V210.974H38.304V209.742H33.068ZM38.304 212.136H33.068V213.34H38.304V212.136ZM38.304 214.488H33.068V217.414H31.822V210.428C31.094 211.282 30.296 212.066 29.4 212.794L28.546 211.674C30.17 210.386 31.458 208.902 32.382 207.25H28.924V205.962H33.026C33.236 205.458 33.418 204.94 33.586 204.436L34.944 204.59C34.804 205.066 34.65 205.528 34.482 205.962H41.244V207.25H33.908C33.684 207.712 33.432 208.16 33.166 208.594H39.55V216.168C39.55 216.938 39.102 217.33 38.206 217.358H36.638L36.316 216.154C36.834 216.196 37.324 216.224 37.786 216.224C38.122 216.224 38.304 216.07 38.304 215.762V214.488ZM44.436 207.6L45.584 208.16C44.982 209.448 44.282 210.568 43.484 211.52L42.406 210.75C43.19 209.882 43.876 208.832 44.436 207.6ZM48.132 210.344C47.558 209.616 46.942 208.93 46.284 208.3L47.096 207.502C47.628 207.936 48.272 208.594 49 209.462L48.132 210.344ZM44.646 210.988C45.15 211.394 45.654 211.814 46.13 212.248C46.424 211.66 46.676 211.044 46.872 210.386L48.034 210.876C47.782 211.716 47.488 212.5 47.138 213.2C47.684 213.732 48.202 214.278 48.706 214.852L47.768 215.902C47.32 215.37 46.872 214.866 46.424 214.404C45.584 215.636 44.52 216.63 43.232 217.358L42.42 216.168C43.652 215.496 44.66 214.572 45.458 213.424C44.898 212.892 44.352 212.388 43.806 211.94L44.646 210.988ZM46.13 204.436C46.326 204.87 46.522 205.36 46.704 205.892H49.28V207.166H42.714V205.892H45.402C45.206 205.444 44.982 205.038 44.744 204.66L46.13 204.436ZM51.226 207.964C51.128 208.258 51.03 208.538 50.946 208.804C51.24 210.064 51.618 211.17 52.066 212.15C52.626 210.918 52.948 209.532 53.018 207.964H51.226ZM51.352 213.41C50.904 212.528 50.512 211.548 50.204 210.484C49.98 210.89 49.742 211.268 49.504 211.604L48.664 210.568C49.63 209.056 50.288 207.026 50.624 204.464L51.94 204.688C51.828 205.388 51.702 206.06 51.562 206.676H55.328V207.964H54.25C54.152 210.106 53.676 211.954 52.808 213.508C53.564 214.712 54.488 215.636 55.552 216.28L54.754 217.442C53.718 216.756 52.808 215.818 52.052 214.642C51.17 215.79 50.05 216.742 48.706 217.498L47.95 216.28C49.392 215.552 50.526 214.6 51.352 213.41ZM57.596 204.59H58.884V206.032H61.306V204.618H62.594V206.032H63.322V207.264H62.594V212.878H63.392V214.11H56.686V212.878H57.596V207.264H56.84V206.032H57.596V204.59ZM58.884 212.878H61.306V211.786H58.884V212.878ZM61.306 207.264H58.884V208.37H61.306V207.264ZM58.884 210.624H61.306V209.532H58.884V210.624ZM61.376 214.278C61.95 215.006 62.412 215.664 62.748 216.224C63.532 214.992 63.938 213.48 63.952 211.66V204.968H68.908V215.972C68.908 216.868 68.446 217.316 67.536 217.316H66.08L65.716 216.014C66.22 216.042 66.682 216.07 67.116 216.07C67.424 216.07 67.578 215.874 67.578 215.496V212.948H65.198C65.002 214.782 64.442 216.308 63.518 217.54L62.566 216.658L61.768 217.218C61.418 216.518 60.942 215.762 60.354 214.936L61.376 214.278ZM58.338 214.306L59.402 214.824C58.898 215.818 58.296 216.686 57.624 217.414L56.574 216.658C57.246 216 57.834 215.216 58.338 214.306ZM65.282 209.574V211.73H67.578V209.574H65.282ZM67.578 208.37V206.228H65.282V208.37H67.578ZM71.12 205.122H82.824V206.396H76.328C75.586 207.614 74.746 208.622 73.794 209.434C75.782 209.294 77.728 209.084 79.632 208.776C79.268 208.356 78.904 207.95 78.526 207.544L79.604 206.858C80.892 208.216 81.886 209.392 82.572 210.4L81.466 211.184C81.186 210.764 80.878 210.33 80.542 209.896C77.714 210.33 74.816 210.624 71.834 210.764L71.47 209.616C72.772 208.888 73.878 207.824 74.788 206.396H71.12V205.122ZM71.708 212.388H76.328V210.946H77.672V212.388H82.208V213.648H77.672V215.622H83.202V216.924H70.798V215.622H76.328V213.648H71.708V212.388Z" fill="#E7E7E7"/>
<path d="M284.742 214.848C285.657 214.12 286.408 213.495 286.996 212.972C287.593 212.449 288.06 211.992 288.396 211.6C288.741 211.199 288.979 210.844 289.11 210.536C289.25 210.219 289.32 209.911 289.32 209.612C289.32 209.323 289.273 209.08 289.18 208.884C289.087 208.688 288.956 208.534 288.788 208.422C288.629 208.31 288.438 208.231 288.214 208.184C287.99 208.137 287.752 208.114 287.5 208.114C287.183 208.114 286.847 208.137 286.492 208.184C286.137 208.231 285.759 208.315 285.358 208.436V206.952C285.713 206.849 286.095 206.775 286.506 206.728C286.926 206.672 287.36 206.644 287.808 206.644C288.835 206.644 289.642 206.868 290.23 207.316C290.818 207.764 291.112 208.459 291.112 209.402C291.112 209.813 291.061 210.2 290.958 210.564C290.855 210.919 290.669 211.287 290.398 211.67C290.137 212.043 289.773 212.454 289.306 212.902C288.839 213.341 288.237 213.854 287.5 214.442L286.898 214.918V215.03H291.406V216.5H284.742V214.848ZM296.277 216.64C295.755 216.64 295.283 216.57 294.863 216.43C294.443 216.281 294.079 216.019 293.771 215.646C293.473 215.273 293.239 214.764 293.071 214.12C292.913 213.467 292.833 212.641 292.833 211.642C292.833 210.643 292.913 209.822 293.071 209.178C293.239 208.534 293.473 208.025 293.771 207.652C294.079 207.269 294.443 207.008 294.863 206.868C295.283 206.719 295.755 206.644 296.277 206.644C296.8 206.644 297.271 206.719 297.691 206.868C298.121 207.008 298.485 207.269 298.783 207.652C299.082 208.025 299.311 208.534 299.469 209.178C299.637 209.822 299.721 210.643 299.721 211.642C299.721 212.641 299.637 213.467 299.469 214.12C299.311 214.764 299.082 215.273 298.783 215.646C298.485 216.019 298.121 216.281 297.691 216.43C297.271 216.57 296.8 216.64 296.277 216.64ZM296.277 215.128C296.576 215.128 296.828 215.077 297.033 214.974C297.248 214.871 297.421 214.694 297.551 214.442C297.691 214.181 297.794 213.826 297.859 213.378C297.925 212.921 297.957 212.342 297.957 211.642C297.957 210.942 297.925 210.368 297.859 209.92C297.794 209.472 297.691 209.117 297.551 208.856C297.421 208.595 297.248 208.413 297.033 208.31C296.828 208.207 296.576 208.156 296.277 208.156C295.979 208.156 295.722 208.207 295.507 208.31C295.302 208.413 295.134 208.595 295.003 208.856C294.873 209.117 294.775 209.472 294.709 209.92C294.644 210.368 294.611 210.942 294.611 211.642C294.611 212.342 294.644 212.921 294.709 213.378C294.775 213.826 294.873 214.181 295.003 214.442C295.134 214.694 295.302 214.871 295.507 214.974C295.722 215.077 295.979 215.128 296.277 215.128ZM301.121 214.848C302.036 214.12 302.787 213.495 303.375 212.972C303.972 212.449 304.439 211.992 304.775 211.6C305.12 211.199 305.358 210.844 305.489 210.536C305.629 210.219 305.699 209.911 305.699 209.612C305.699 209.323 305.652 209.08 305.559 208.884C305.466 208.688 305.335 208.534 305.167 208.422C305.008 208.31 304.817 208.231 304.593 208.184C304.369 208.137 304.131 208.114 303.879 208.114C303.562 208.114 303.226 208.137 302.871 208.184C302.516 208.231 302.138 208.315 301.737 208.436V206.952C302.092 206.849 302.474 206.775 302.885 206.728C303.305 206.672 303.739 206.644 304.187 206.644C305.214 206.644 306.021 206.868 306.609 207.316C307.197 207.764 307.491 208.459 307.491 209.402C307.491 209.813 307.44 210.2 307.337 210.564C307.234 210.919 307.048 211.287 306.777 211.67C306.516 212.043 306.152 212.454 305.685 212.902C305.218 213.341 304.616 213.854 303.879 214.442L303.277 214.918V215.03H307.785V216.5H301.121V214.848ZM312.67 216.64C312.194 216.64 311.751 216.579 311.34 216.458C310.93 216.327 310.57 216.113 310.262 215.814C309.954 215.515 309.712 215.119 309.534 214.624C309.357 214.129 309.268 213.509 309.268 212.762C309.268 211.829 309.371 210.984 309.576 210.228C309.791 209.472 310.122 208.828 310.57 208.296C311.018 207.764 311.588 207.358 312.278 207.078C312.969 206.789 313.8 206.644 314.77 206.644L314.756 208.156C313.627 208.165 312.754 208.417 312.138 208.912C311.532 209.397 311.182 210.046 311.088 210.858H311.13C311.345 210.671 311.625 210.517 311.97 210.396C312.316 210.275 312.684 210.214 313.076 210.214C314.019 210.214 314.747 210.475 315.26 210.998C315.774 211.511 316.03 212.286 316.03 213.322C316.03 213.817 315.965 214.269 315.834 214.68C315.704 215.081 315.498 215.427 315.218 215.716C314.948 216.005 314.598 216.234 314.168 216.402C313.748 216.561 313.249 216.64 312.67 216.64ZM312.628 215.226C313.198 215.226 313.632 215.067 313.93 214.75C314.238 214.433 314.392 213.961 314.392 213.336C314.392 212.729 314.248 212.277 313.958 211.978C313.669 211.679 313.272 211.53 312.768 211.53C312.106 211.53 311.634 211.689 311.354 212.006C311.084 212.314 310.948 212.711 310.948 213.196C310.948 213.859 311.088 214.363 311.368 214.708C311.648 215.053 312.068 215.226 312.628 215.226ZM317.71 211.488H321.952V212.916H317.71V211.488ZM327.012 216.64C326.489 216.64 326.018 216.57 325.598 216.43C325.178 216.281 324.814 216.019 324.506 215.646C324.207 215.273 323.974 214.764 323.806 214.12C323.647 213.467 323.568 212.641 323.568 211.642C323.568 210.643 323.647 209.822 323.806 209.178C323.974 208.534 324.207 208.025 324.506 207.652C324.814 207.269 325.178 207.008 325.598 206.868C326.018 206.719 326.489 206.644 327.012 206.644C327.534 206.644 328.006 206.719 328.426 206.868C328.855 207.008 329.219 207.269 329.518 207.652C329.816 208.025 330.045 208.534 330.204 209.178C330.372 209.822 330.456 210.643 330.456 211.642C330.456 212.641 330.372 213.467 330.204 214.12C330.045 214.764 329.816 215.273 329.518 215.646C329.219 216.019 328.855 216.281 328.426 216.43C328.006 216.57 327.534 216.64 327.012 216.64ZM327.012 215.128C327.31 215.128 327.562 215.077 327.768 214.974C327.982 214.871 328.155 214.694 328.286 214.442C328.426 214.181 328.528 213.826 328.594 213.378C328.659 212.921 328.692 212.342 328.692 211.642C328.692 210.942 328.659 210.368 328.594 209.92C328.528 209.472 328.426 209.117 328.286 208.856C328.155 208.595 327.982 208.413 327.768 208.31C327.562 208.207 327.31 208.156 327.012 208.156C326.713 208.156 326.456 208.207 326.242 208.31C326.036 208.413 325.868 208.595 325.738 208.856C325.607 209.117 325.509 209.472 325.444 209.92C325.378 210.368 325.346 210.942 325.346 211.642C325.346 212.342 325.378 212.921 325.444 213.378C325.509 213.826 325.607 214.181 325.738 214.442C325.868 214.694 326.036 214.871 326.242 214.974C326.456 215.077 326.713 215.128 327.012 215.128ZM335.215 216.64C334.739 216.64 334.296 216.579 333.885 216.458C333.475 216.327 333.115 216.113 332.807 215.814C332.499 215.515 332.257 215.119 332.079 214.624C331.902 214.129 331.813 213.509 331.813 212.762C331.813 211.829 331.916 210.984 332.121 210.228C332.336 209.472 332.667 208.828 333.115 208.296C333.563 207.764 334.133 207.358 334.823 207.078C335.514 206.789 336.345 206.644 337.315 206.644L337.301 208.156C336.172 208.165 335.299 208.417 334.683 208.912C334.077 209.397 333.727 210.046 333.633 210.858H333.675C333.89 210.671 334.17 210.517 334.515 210.396C334.861 210.275 335.229 210.214 335.621 210.214C336.564 210.214 337.292 210.475 337.805 210.998C338.319 211.511 338.575 212.286 338.575 213.322C338.575 213.817 338.51 214.269 338.379 214.68C338.249 215.081 338.043 215.427 337.763 215.716C337.493 216.005 337.143 216.234 336.713 216.402C336.293 216.561 335.794 216.64 335.215 216.64ZM335.173 215.226C335.743 215.226 336.177 215.067 336.475 214.75C336.783 214.433 336.937 213.961 336.937 213.336C336.937 212.729 336.793 212.277 336.503 211.978C336.214 211.679 335.817 211.53 335.313 211.53C334.651 211.53 334.179 211.689 333.899 212.006C333.629 212.314 333.493 212.711 333.493 213.196C333.493 213.859 333.633 214.363 333.913 214.708C334.193 215.053 334.613 215.226 335.173 215.226ZM340.255 211.488H344.497V212.916H340.255V211.488ZM348.633 216.64C348.203 216.64 347.807 216.626 347.443 216.598C347.088 216.57 346.747 216.523 346.421 216.458V214.932C346.794 215.016 347.149 215.077 347.485 215.114C347.821 215.151 348.175 215.17 348.549 215.17C348.866 215.17 349.16 215.147 349.431 215.1C349.701 215.053 349.939 214.974 350.145 214.862C350.35 214.75 350.509 214.601 350.621 214.414C350.742 214.218 350.803 213.971 350.803 213.672C350.803 213.093 350.583 212.701 350.145 212.496C349.706 212.281 349.085 212.174 348.283 212.174H347.527V210.816H348.269C349.006 210.816 349.58 210.704 349.991 210.48C350.411 210.256 350.621 209.887 350.621 209.374C350.621 208.889 350.457 208.553 350.131 208.366C349.804 208.179 349.342 208.086 348.745 208.086C348.455 208.086 348.133 208.114 347.779 208.17C347.424 208.217 347.107 208.282 346.827 208.366V206.924C347.06 206.849 347.368 206.784 347.751 206.728C348.143 206.672 348.539 206.644 348.941 206.644C349.473 206.644 349.949 206.691 350.369 206.784C350.789 206.877 351.143 207.027 351.433 207.232C351.731 207.437 351.96 207.708 352.119 208.044C352.277 208.38 352.357 208.786 352.357 209.262C352.357 209.822 352.221 210.275 351.951 210.62C351.68 210.965 351.274 211.227 350.733 211.404V211.488C351.367 211.609 351.839 211.871 352.147 212.272C352.455 212.664 352.609 213.168 352.609 213.784C352.609 215.688 351.283 216.64 348.633 216.64ZM357.41 208.394L355.016 208.856V207.372L357.914 206.784H359.202V216.5H357.41V208.394Z" fill="#9AA1A9"/>
<rect x="16" y="256" width="358" height="101" rx="6" fill="white" fill-opacity="0.05"/>
<rect x="16.5" y="256.5" width="357" height="100" rx="5.5" stroke="white" stroke-opacity="0.05"/>
<path d="M30.632 278.418H32.704C32.2467 277.503 31.78 276.729 31.304 276.094L32.592 275.464C33.1427 276.267 33.642 277.097 34.09 277.956L33.166 278.418H35.742C36.3393 277.466 36.862 276.463 37.31 275.408L38.78 275.926C38.36 276.822 37.8747 277.653 37.324 278.418H39.424V283.43H37.366V286.23C37.366 286.669 37.5107 286.888 37.8 286.888H39.578C39.6993 286.888 39.788 286.809 39.844 286.65C39.9187 286.482 39.9607 285.997 39.97 285.194L41.356 285.642C41.272 286.921 41.1087 287.681 40.866 287.924C40.6327 288.157 40.292 288.274 39.844 288.274H37.352C36.3907 288.274 35.91 287.691 35.91 286.524V283.43H34.216C33.9733 285.791 32.452 287.504 29.652 288.568L28.826 287.224C31.2527 286.477 32.592 285.213 32.844 283.43H30.632V278.418ZM38.01 282.072V279.79H32.046V282.072H38.01ZM54.754 279.23V283.024H55.496V284.368H52.318C53.018 285.535 54.11 286.463 55.594 287.154L54.936 288.54C53.2093 287.56 51.9493 286.305 51.156 284.774C50.512 286.23 49.2193 287.485 47.278 288.54L46.326 287.308C48.006 286.524 49.154 285.544 49.77 284.368H46.816V283.024H47.67V279.608L46.914 278.614V279.328H45.64V281.61C46.1347 281.367 46.5733 281.139 46.956 280.924V282.408C46.424 282.688 45.9853 282.907 45.64 283.066V286.86C45.64 287.821 45.1687 288.302 44.226 288.302H43.022L42.7 286.916C43.064 286.972 43.4047 287 43.722 287C44.03 287 44.184 286.827 44.184 286.482V283.682C43.7547 283.85 43.2833 284.023 42.77 284.2L42.392 282.716C43.0453 282.567 43.6427 282.394 44.184 282.198V279.328H42.672V277.914H44.184V275.52H45.64V277.914H46.914V278.558C48.2487 277.699 49.154 276.654 49.63 275.422L51.044 275.604C50.8947 275.977 50.778 276.253 50.694 276.43H53.466V277.466C53.102 278.194 52.7707 278.782 52.472 279.23H54.754ZM48.958 283.024H50.232C50.372 282.296 50.456 281.456 50.484 280.504H48.958V283.024ZM53.466 283.024V280.504H51.842C51.814 281.484 51.744 282.324 51.632 283.024H53.466ZM50.988 279.23C51.268 278.829 51.59 278.306 51.954 277.662H49.952C49.504 278.241 48.9907 278.763 48.412 279.23H50.988ZM61.502 280.28V287.728H60.158V287.084H59.066V287.994H57.722V282.884L57.134 283.78L56.406 282.59C57.3393 281.097 57.974 279.412 58.31 277.536H56.826V276.136H61.726V277.536H59.682C59.4953 278.516 59.2527 279.431 58.954 280.28H61.502ZM59.066 285.754H60.158V281.596H59.066V285.754ZM62.958 278.082L64.386 278.166L63.812 281.47H66.374L66.99 277.312H62.23V275.94H68.572L67.844 281.47H69.244C69.244 284.998 69.0387 287.037 68.628 287.588C68.1987 288.129 67.3307 288.4 66.024 288.4C65.688 288.4 65.2867 288.377 64.82 288.33L64.4 286.916C65.016 287 65.4453 287.042 65.688 287.042C66.724 287.042 67.34 286.837 67.536 286.426C67.7507 285.997 67.858 284.797 67.858 282.828H62.202L62.958 278.082ZM61.936 284.186H67.172V285.558H61.936V284.186ZM72.996 279.454H74.354V281.316H75.488V282.632H74.354V284.06C74.718 283.976 75.1007 283.878 75.502 283.766V285.138C75.2407 285.213 74.858 285.315 74.354 285.446V288.456H72.996V285.74C72.0813 285.917 71.3253 286.048 70.728 286.132L70.532 284.704C71.4187 284.592 72.24 284.466 72.996 284.326V282.632H70.994L70.7 281.386C71.036 280.63 71.3393 279.729 71.61 278.684H70.658V277.312H71.932C72.1747 276.061 72.2913 275.45 72.282 275.478L73.598 275.786L73.29 277.312H75.558V278.684H72.954C72.6927 279.636 72.4173 280.513 72.128 281.316H72.996V279.454ZM77.294 279.062C76.8553 279.463 76.384 279.855 75.88 280.238L75.082 279.034C76.5007 278.035 77.7607 276.859 78.862 275.506H79.926C81.13 276.981 82.3527 278.138 83.594 278.978L82.824 280.126C82.292 279.743 81.816 279.361 81.396 278.978V279.734H77.294V279.062ZM80.948 278.558C80.3693 277.998 79.8513 277.419 79.394 276.822C78.806 277.522 78.2833 278.101 77.826 278.558H80.948ZM77.7 288.358L77.378 287.168L77.896 287.224C78.1573 287.224 78.288 287.079 78.288 286.79V285.894H77.154V288.456H75.894V280.56H79.52V287.056C79.52 287.924 79.1093 288.358 78.288 288.358H77.7ZM77.154 284.788H78.288V283.808H77.154V284.788ZM77.154 282.716H78.288V281.708H77.154V282.716ZM80.024 280.98H81.116V286.09H80.024V280.98ZM80.528 288.386L80.22 287.126C80.64 287.173 80.9947 287.196 81.284 287.196C81.5267 287.196 81.648 287.023 81.648 286.678V280.448H82.908V287C82.908 287.924 82.516 288.386 81.732 288.386H80.528ZM90.174 278.894C89.5487 277.765 88.802 276.892 87.934 276.276L89.152 275.492C90.3 276.304 91.336 277.881 92.26 280.224C93.5947 283.472 95.3073 285.768 97.398 287.112L96.488 288.274C94.3227 286.986 92.4887 284.461 90.986 280.7L90.944 280.574C89.992 283.906 88.1207 286.477 85.33 288.288L84.434 287.028C87.3367 285.115 89.25 282.403 90.174 278.894Z" fill="#E7E7E7"/>
<rect x="28" y="308.5" width="28" height="28" rx="14" fill="#EEE6DB" fill-opacity="0.3"/>
<g clip-path="url(#clip0_4199_53426)">
<path d="M42.2539 330V321.75M42.2539 317.167H38.5414C36.0022 317.167 35.8464 313.5 38.5414 313.5C41.4289 313.5 42.2539 317.167 42.2539 317.167ZM42.2539 317.167H45.9664C48.621 317.167 48.621 313.5 45.9664 313.5C43.0789 313.5 42.2539 317.167 42.2539 317.167Z" stroke="#E7E7E7" stroke-width="1.3" stroke-linecap="round" stroke-linejoin="round"/>
<path d="M49.5833 321.749V328.166C49.5833 328.652 49.3902 329.119 49.0464 329.462C48.7025 329.806 48.2362 329.999 47.75 329.999H36.75C36.2638 329.999 35.7975 329.806 35.4536 329.462C35.1098 329.119 34.9167 328.652 34.9167 328.166V321.749M50.5 321.749V318.999C50.5 318.513 50.3068 318.047 49.963 317.703C49.6192 317.359 49.1529 317.166 48.6667 317.166H35.8333C35.3471 317.166 34.8808 317.359 34.537 317.703C34.1932 318.047 34 318.513 34 318.999V321.749H50.5Z" stroke="#E7E7E7" stroke-width="1.3" stroke-linecap="round" stroke-linejoin="round"/>
</g>
<rect x="64" y="304" width="229" height="37" rx="6" fill="#2C2C2C"/>
<path d="M76.784 325.518L75.796 325.713V328.3H74.795V325.908C74.4483 325.977 74.106 326.042 73.768 326.103C73.43 326.155 73.0833 326.207 72.728 326.259L72.611 325.011C72.9837 324.959 73.3477 324.907 73.703 324.855C74.067 324.794 74.431 324.729 74.795 324.66V323.191H72.975V321.982C73.0963 321.67 73.2263 321.267 73.365 320.773C73.5123 320.279 73.6553 319.759 73.794 319.213H72.871V318.069H74.067C74.1363 317.766 74.2013 317.475 74.262 317.198C74.3227 316.912 74.3747 316.652 74.418 316.418L75.484 316.652C75.4407 316.877 75.393 317.107 75.341 317.341C75.289 317.575 75.2327 317.818 75.172 318.069H77.018V319.213H74.886C74.7473 319.759 74.6043 320.279 74.457 320.773C74.3183 321.258 74.184 321.683 74.054 322.047H74.795V320.357L75.796 320.409V322.047H76.745V323.191H75.796V324.478C75.9433 324.452 76.0907 324.426 76.238 324.4C76.394 324.374 76.55 324.344 76.706 324.309L76.784 325.518ZM80.749 316.47C81.139 317.12 81.6417 317.718 82.257 318.264C82.881 318.81 83.5483 319.282 84.259 319.681L83.713 320.851C83.1063 320.496 82.5343 320.088 81.997 319.629V320.461H78.318V319.863C77.8933 320.236 77.4297 320.582 76.927 320.903L76.29 319.785C77.0527 319.317 77.707 318.819 78.253 318.29C78.8077 317.753 79.28 317.146 79.67 316.47H80.749ZM81.802 319.46C81.4727 319.165 81.1737 318.858 80.905 318.537C80.645 318.216 80.4283 317.891 80.255 317.562C79.8477 318.255 79.3493 318.888 78.76 319.46H81.802ZM82.348 320.929L83.388 320.981V326.896C83.388 327.355 83.2883 327.68 83.089 327.871C82.8897 328.07 82.517 328.183 81.971 328.209L81.477 328.235L81.113 327.143L81.646 327.117C81.9493 327.1 82.14 327.052 82.218 326.974C82.3047 326.887 82.348 326.749 82.348 326.558V320.929ZM76.966 321.124H80.229V327.091C80.229 327.316 80.2073 327.494 80.164 327.624C80.1293 327.763 80.0687 327.871 79.982 327.949C79.904 328.036 79.7957 328.096 79.657 328.131C79.5183 328.174 79.345 328.205 79.137 328.222L78.734 328.261L78.396 327.195L78.773 327.169C78.9637 327.152 79.085 327.117 79.137 327.065C79.189 327.022 79.215 326.926 79.215 326.779V325.869H77.928V328.183H76.966V321.124ZM81.802 326.051H80.814V321.371L81.802 321.423V326.051ZM77.928 322.073V322.983H79.215V322.073H77.928ZM79.215 324.855V323.958H77.928V324.855H79.215ZM92.0379 319.33C92.2372 320.24 92.4712 321.042 92.7399 321.735C93.0085 322.42 93.3379 323.057 93.7279 323.646C94.1179 324.227 94.5815 324.79 95.1189 325.336C95.6649 325.873 96.3149 326.45 97.0689 327.065L96.0549 328.274C95.4049 327.702 94.8329 327.169 94.3389 326.675C93.8449 326.181 93.4115 325.678 93.0389 325.167C92.6662 324.647 92.3369 324.092 92.0509 323.503C91.7735 322.914 91.5222 322.238 91.2969 321.475C91.1235 322.021 90.8982 322.576 90.6209 323.139C90.3522 323.694 90.0142 324.257 89.6069 324.829C89.1995 325.392 88.7142 325.964 88.1509 326.545C87.5962 327.117 86.9549 327.693 86.2269 328.274L85.2129 327.104C86.0969 326.463 86.8552 325.817 87.4879 325.167C88.1205 324.508 88.6492 323.85 89.0739 323.191C89.4985 322.524 89.8279 321.861 90.0619 321.202C90.3045 320.535 90.4735 319.867 90.5689 319.2C90.4475 319.001 90.3132 318.823 90.1659 318.667C90.0185 318.511 89.8712 318.385 89.7239 318.29L88.8659 317.718L89.5419 316.678L90.3999 317.211C90.8072 317.462 91.1582 317.77 91.4529 318.134C91.7475 318.489 91.9425 318.888 92.0379 319.33ZM109.736 325.466C109.718 325.7 109.697 325.925 109.671 326.142C109.645 326.35 109.614 326.541 109.58 326.714C109.528 326.983 109.463 327.204 109.385 327.377C109.307 327.559 109.194 327.706 109.047 327.819C108.908 327.932 108.726 328.014 108.501 328.066C108.284 328.118 108.015 328.153 107.695 328.17C107.183 328.196 106.668 328.196 106.148 328.17C105.836 328.153 105.576 328.114 105.368 328.053C105.16 328.001 104.991 327.914 104.861 327.793C104.739 327.672 104.648 327.516 104.588 327.325C104.536 327.134 104.51 326.896 104.51 326.61V323.685H102.911C102.902 323.694 102.898 323.711 102.898 323.737C102.854 324.387 102.755 324.942 102.599 325.401C102.451 325.86 102.222 326.272 101.91 326.636C101.606 326.991 101.208 327.321 100.714 327.624C100.228 327.927 99.6304 328.248 98.9198 328.586L98.1658 327.403C98.8158 327.143 99.3531 326.892 99.7778 326.649C100.211 326.406 100.558 326.146 100.818 325.869C101.078 325.592 101.264 325.28 101.377 324.933C101.498 324.586 101.572 324.17 101.598 323.685H99.4528V318.628H101.637C101.463 318.351 101.273 318.065 101.065 317.77C100.865 317.475 100.692 317.228 100.545 317.029L101.611 316.327C101.827 316.604 102.053 316.912 102.287 317.25C102.529 317.579 102.75 317.909 102.95 318.238L102.404 318.628H104.64C104.778 318.446 104.921 318.251 105.069 318.043C105.216 317.826 105.355 317.614 105.485 317.406C105.623 317.198 105.745 316.999 105.849 316.808C105.961 316.617 106.052 316.457 106.122 316.327L107.24 316.977C107.136 317.176 106.988 317.428 106.798 317.731C106.607 318.026 106.408 318.325 106.2 318.628H108.293V323.685H105.797V326.142C105.797 326.289 105.81 326.406 105.836 326.493C105.862 326.58 105.905 326.649 105.966 326.701C106.026 326.753 106.109 326.792 106.213 326.818C106.317 326.844 106.447 326.861 106.603 326.87C106.906 326.896 107.214 326.896 107.526 326.87C107.699 326.853 107.833 326.835 107.929 326.818C108.033 326.792 108.115 326.753 108.176 326.701C108.236 326.649 108.28 326.584 108.306 326.506C108.332 326.419 108.358 326.307 108.384 326.168C108.436 325.847 108.475 325.492 108.501 325.102L109.736 325.466ZM107.032 322.476V319.85H100.74V322.476H107.032ZM119.153 324.712C119.43 325.284 119.868 325.791 120.466 326.233C121.072 326.666 121.792 327.009 122.624 327.26L122.104 328.573C121.298 328.287 120.591 327.919 119.985 327.468C119.378 327.017 118.884 326.471 118.503 325.83C118.173 326.454 117.684 326.983 117.034 327.416C116.392 327.849 115.578 328.248 114.59 328.612L113.927 327.325C115.01 326.996 115.842 326.623 116.423 326.207C117.003 325.782 117.393 325.284 117.593 324.712H114.265V323.464H115.24V321.137C115.222 321.163 115.201 321.189 115.175 321.215C115.149 321.232 115.127 321.25 115.11 321.267L114.356 320.292L114.486 320.162H113.654V321.943C113.836 321.874 114.009 321.804 114.174 321.735C114.338 321.666 114.49 321.596 114.629 321.527L114.85 322.892C114.694 322.961 114.512 323.044 114.304 323.139C114.096 323.226 113.879 323.317 113.654 323.412V327.013C113.654 327.29 113.628 327.511 113.576 327.676C113.532 327.849 113.454 327.984 113.342 328.079C113.238 328.183 113.09 328.257 112.9 328.3C112.718 328.352 112.484 328.391 112.198 328.417L111.652 328.469L111.275 327.156L111.821 327.104C112.072 327.078 112.232 327.035 112.302 326.974C112.38 326.913 112.419 326.783 112.419 326.584V323.906C112.167 324.001 111.925 324.092 111.691 324.179C111.465 324.257 111.27 324.322 111.106 324.374L110.82 323.009C111.01 322.948 111.244 322.87 111.522 322.775C111.808 322.671 112.107 322.558 112.419 322.437V320.162H111.21V318.888H112.419V316.691L113.654 316.743V318.888H114.785V319.863C115.235 319.369 115.638 318.836 115.994 318.264C116.349 317.683 116.648 317.094 116.891 316.496L118.074 316.834C118.022 316.973 117.97 317.107 117.918 317.237C117.866 317.367 117.809 317.497 117.749 317.627H120.96V318.693L119.894 320.162H121.623V323.464H122.481V324.712H119.153ZM117.138 318.784C116.852 319.252 116.522 319.711 116.15 320.162H118.36L119.413 318.784H117.138ZM116.449 323.464H117.775V321.358H116.449V323.464ZM120.466 321.358H118.997V323.464H120.466V321.358ZM134.94 321.93C134.94 321.982 134.931 322.121 134.914 322.346C134.905 322.563 134.892 322.823 134.875 323.126C134.866 323.429 134.853 323.759 134.836 324.114C134.827 324.461 134.814 324.786 134.797 325.089C134.779 325.392 134.762 325.657 134.745 325.882C134.736 326.099 134.732 326.233 134.732 326.285C134.697 326.684 134.641 327.004 134.563 327.247C134.485 327.49 134.368 327.68 134.212 327.819C134.056 327.958 133.852 328.053 133.601 328.105C133.358 328.166 133.046 328.209 132.665 328.235L131.56 328.313L131.183 327.078L132.275 327C132.509 326.983 132.699 326.961 132.847 326.935C133.003 326.9 133.124 326.848 133.211 326.779C133.306 326.71 133.371 326.614 133.406 326.493C133.449 326.363 133.475 326.194 133.484 325.986C133.484 325.934 133.488 325.834 133.497 325.687C133.505 325.54 133.514 325.371 133.523 325.18C133.54 324.989 133.553 324.786 133.562 324.569C133.579 324.352 133.592 324.149 133.601 323.958C133.618 323.767 133.631 323.603 133.64 323.464C133.648 323.317 133.653 323.217 133.653 323.165H129.09L129.493 318.823L130.689 318.901L130.403 321.93H132.431L132.756 318.381H129.064V317.12H134.121L133.692 321.93H134.94ZM126.971 318.602C126.849 319.035 126.719 319.451 126.581 319.85C126.451 320.24 126.303 320.63 126.139 321.02H128.271V327.429H124.865V323.451C124.761 323.624 124.652 323.798 124.54 323.971C124.427 324.136 124.31 324.305 124.189 324.478L123.526 323.373C123.768 323.026 123.998 322.658 124.215 322.268C124.431 321.869 124.631 321.466 124.812 321.059C125.003 320.652 125.172 320.24 125.32 319.824C125.476 319.408 125.606 319.001 125.71 318.602H124.098V317.328H128.635V318.602H126.971ZM127.153 322.281H125.996V326.22H127.153V322.281ZM133.029 325.674H128.635V324.439H133.029V325.674Z" fill="#9AA1A9" fill-opacity="0.8"/>
<rect x="301" y="307.5" width="61" height="30" rx="6" fill="#E59E2E"/>
<path d="M320.483 319.557H322.433C322.017 318.725 321.575 317.997 321.107 317.347L322.199 316.827C322.68 317.529 323.148 318.296 323.59 319.128L322.732 319.557H325.228C325.8 318.673 326.294 317.75 326.71 316.762L327.945 317.191C327.529 318.075 327.061 318.855 326.554 319.557H328.582V324.133H326.632V326.876C326.632 327.279 326.775 327.487 327.074 327.487H328.738C328.881 327.487 328.985 327.409 329.05 327.266C329.128 327.11 329.18 326.642 329.206 325.849L330.376 326.239C330.285 327.409 330.129 328.111 329.921 328.345C329.713 328.553 329.388 328.657 328.972 328.657H326.697C325.839 328.657 325.41 328.15 325.41 327.136V324.133H323.733C323.512 326.33 322.095 327.929 319.482 328.917L318.793 327.799C321.094 327.071 322.355 325.849 322.563 324.133H320.483V319.557ZM327.386 322.976V320.727H321.679V322.976H327.386ZM343.051 320.337V323.86H343.779V325.004H340.724C341.4 326.161 342.44 327.071 343.857 327.734L343.298 328.904C341.673 327.981 340.49 326.785 339.736 325.329C339.164 326.72 337.955 327.916 336.109 328.904L335.303 327.864C336.928 327.11 338.02 326.148 338.579 325.004H335.745V323.86H336.577V320.701L336.551 320.714L335.823 319.752C337.084 318.946 337.942 317.945 338.397 316.762L339.593 316.918C339.489 317.204 339.372 317.477 339.242 317.737H341.868V318.621C341.53 319.284 341.205 319.856 340.88 320.337H343.051ZM337.669 323.86H338.956C339.086 323.171 339.177 322.352 339.203 321.416H337.669V323.86ZM340.139 323.86H341.959V321.416H340.347C340.321 322.378 340.256 323.184 340.139 323.86ZM339.632 320.337C339.944 319.882 340.269 319.362 340.581 318.777H338.618C338.176 319.349 337.669 319.869 337.071 320.337H339.632ZM333.314 328.696H332.209L331.936 327.513C332.274 327.565 332.586 327.591 332.885 327.591C333.197 327.591 333.353 327.422 333.353 327.097V324.341C332.885 324.523 332.43 324.679 331.962 324.835L331.65 323.587C332.222 323.457 332.781 323.288 333.353 323.08V320.311H331.91V319.128H333.353V316.853H334.575V319.128H335.797V320.311H334.575V322.586C335.004 322.378 335.433 322.17 335.849 321.936V323.184C335.433 323.405 335.004 323.613 334.575 323.821V327.409C334.575 328.267 334.146 328.696 333.314 328.696Z" fill="#111111"/>
<rect x="16" y="373" width="358" height="160" rx="6" fill="white" fill-opacity="0.05"/>
<rect x="16.5" y="373.5" width="357" height="159" rx="5.5" stroke="white" stroke-opacity="0.05"/>
<path d="M32.9 393.024C32.592 393.967 32.1907 394.886 31.696 395.782V405.484H30.24V397.98C29.8013 398.54 29.344 399.063 28.868 399.548L28.392 398.036C29.8107 396.431 30.856 394.545 31.528 392.38L32.9 393.024ZM33.012 395.376H38.024V392.562H39.494V395.376H41.398V396.804H39.494V403.818C39.494 404.873 38.9807 405.4 37.954 405.4H35.854L35.518 403.972C36.302 404.037 36.946 404.07 37.45 404.07C37.8327 404.07 38.024 403.865 38.024 403.454V396.804H33.012V395.376ZM34.51 398.022C35.4993 399.198 36.2833 400.253 36.862 401.186L35.616 402.054C35.0187 401.037 34.2487 399.94 33.306 398.764L34.51 398.022ZM42.63 393.654H45.444V392.506H46.816V393.654H49.238V394.914H46.816V395.74H48.916V396.958H43.12V395.74H45.444V394.914H42.63V393.654ZM43.582 397.714H48.482V398.974H43.582V397.714ZM42.728 399.674H49.392V400.934H46.802V404.112C46.802 404.989 46.326 405.428 45.374 405.428H44.24L43.946 404.112C44.282 404.168 44.604 404.196 44.912 404.196C45.2573 404.196 45.43 404.051 45.43 403.762V400.934H42.728V399.674ZM44.772 401.62C44.4547 402.703 44.03 403.622 43.498 404.378L42.42 403.692C42.9987 402.955 43.4 402.185 43.624 401.382L44.772 401.62ZM48.398 401.242C48.706 401.858 48.986 402.53 49.238 403.258L48.118 403.762C47.8567 402.978 47.5673 402.264 47.25 401.62L48.398 401.242ZM51.702 392.786C51.5993 393.542 51.506 394.135 51.422 394.564H55.034V395.446C54.8473 396.65 54.6187 397.821 54.348 398.96L53.004 398.582C53.256 397.817 53.466 396.911 53.634 395.866H51.128C50.8013 397.014 50.4 397.929 49.924 398.61L48.804 397.812C49.6067 396.561 50.1293 394.811 50.372 392.562L51.702 392.786ZM52.668 396.804C52.668 397.737 52.626 398.596 52.542 399.38C53.1207 401.443 54.1193 403.095 55.538 404.336L54.572 405.456C53.5173 404.383 52.696 403.123 52.108 401.676C51.66 403.207 50.7033 404.49 49.238 405.526L48.356 404.462C49.644 403.538 50.484 402.423 50.876 401.116C51.1747 400.024 51.3333 398.587 51.352 396.804H52.668ZM69.65 401.522C69.51 402.969 69.3 403.916 69.02 404.364C68.7493 404.793 68.1707 405.008 67.284 405.008H63.63C62.7153 405.008 62.258 404.537 62.258 403.594V397.238H67.172V394.438H61.684V393.038H68.572V398.638H63.686V403.006C63.686 403.398 63.882 403.608 64.274 403.636H67.046C67.5313 403.636 67.83 403.449 67.942 403.076C68.054 402.712 68.138 402.035 68.194 401.046L69.65 401.522ZM58.492 392.59C59.36 393.262 60.116 393.943 60.76 394.634L59.752 395.656C59.2293 395.021 58.464 394.335 57.456 393.598L58.492 392.59ZM56.546 396.636H59.878V402.544C60.3727 402.143 60.8487 401.732 61.306 401.312L61.698 402.838C60.774 403.65 59.7567 404.397 58.646 405.078L58.086 403.762C58.338 403.547 58.464 403.295 58.464 403.006V398.036H56.546V396.636ZM72.352 392.912H80.696V397.434H83.062V398.764H80.892L81.998 399.674C81.2607 400.589 80.4347 401.293 79.52 401.788C80.528 402.525 81.732 403.193 83.132 403.79L82.39 405.078C80.4207 404.154 78.8387 403.043 77.644 401.746V403.986C77.644 404.975 77.2147 405.47 76.356 405.47H74.718L74.396 404.098C74.984 404.163 75.474 404.196 75.866 404.196C76.0807 404.196 76.188 404.009 76.188 403.636V401.802C74.8347 402.987 73.2153 404.07 71.33 405.05L70.742 403.692C72.842 402.74 74.6573 401.611 76.188 400.304V398.764H70.952V397.434H79.212V396.468H72.828V395.208H79.212V394.228H72.352V392.912ZM72.702 398.974C73.514 399.534 74.2 400.094 74.76 400.654L73.808 401.606C73.332 401.093 72.6413 400.523 71.736 399.898L72.702 398.974ZM77.644 398.764V400.136C77.8867 400.407 78.1807 400.691 78.526 400.99C79.4313 400.449 80.2107 399.707 80.864 398.764H77.644Z" fill="#E7E7E7"/>
<path d="M32.536 429.63V431.828H38.206V429.63H32.536ZM38.206 428.384V426.284H32.536V428.384H38.206ZM32.466 433.06C32.284 434.852 31.752 436.336 30.87 437.526L29.848 436.588C30.73 435.356 31.178 433.788 31.206 431.884V425.01H39.55V435.972C39.55 436.868 39.088 437.316 38.192 437.316H36.4L36.036 436.014C36.652 436.042 37.226 436.07 37.758 436.07C38.052 436.07 38.206 435.874 38.206 435.51V433.06H32.466ZM48.51 424.492H49.49C51.254 426.424 53.27 427.95 55.566 429.07L54.838 430.358C53.998 429.924 53.228 429.448 52.5 428.916V429.966H45.542V428.86C44.786 429.392 43.974 429.896 43.106 430.372L42.392 429.084C44.842 427.852 46.886 426.326 48.51 424.492ZM45.752 428.706H52.22C51.016 427.81 49.938 426.802 49 425.682C48.09 426.788 47.012 427.796 45.752 428.706ZM43.344 431.52H54.684V432.808H48.16C47.53 433.97 46.802 434.978 45.976 435.846C47.992 435.734 49.924 435.566 51.8 435.342C51.38 434.796 50.918 434.25 50.414 433.69L51.45 433.032C52.724 434.418 53.704 435.622 54.404 436.644L53.298 437.428C53.06 437.064 52.808 436.686 52.542 436.308C50.372 436.644 47.642 436.91 44.366 437.106L44.002 435.958C44.324 435.874 44.548 435.748 44.688 435.594C45.444 434.712 46.088 433.788 46.62 432.808H43.344V431.52ZM67.83 429.532V434.838H66.514V430.75H59.5V435.048H58.184V429.532H67.83ZM59.01 424.94H67.004V428.678H59.01V424.94ZM65.716 427.53V426.116H60.298V427.53H65.716ZM62.454 431.478L63.798 431.604C63.602 433.704 63.168 435.104 62.496 435.804C61.796 436.672 60.088 437.246 57.386 437.498L56.868 436.28C59.122 436.168 60.62 435.748 61.348 435.02C61.978 434.334 62.342 433.158 62.454 431.478ZM64.106 434.642C65.926 435.132 67.578 435.72 69.09 436.406L68.362 437.512C66.766 436.714 65.128 436.084 63.448 435.636L64.106 434.642Z" fill="#E7E7E7"/>
<path d="M28.636 451.584C29.42 450.96 30.064 450.424 30.568 449.976C31.08 449.528 31.48 449.136 31.768 448.8C32.064 448.456 32.268 448.152 32.38 447.888C32.5 447.616 32.56 447.352 32.56 447.096C32.56 446.848 32.52 446.64 32.44 446.472C32.36 446.304 32.248 446.172 32.104 446.076C31.968 445.98 31.804 445.912 31.612 445.872C31.42 445.832 31.216 445.812 31 445.812C30.728 445.812 30.44 445.832 30.136 445.872C29.832 445.912 29.508 445.984 29.164 446.088V444.816C29.468 444.728 29.796 444.664 30.148 444.624C30.508 444.576 30.88 444.552 31.264 444.552C32.144 444.552 32.836 444.744 33.34 445.128C33.844 445.512 34.096 446.108 34.096 446.916C34.096 447.268 34.052 447.6 33.964 447.912C33.876 448.216 33.716 448.532 33.484 448.86C33.26 449.18 32.948 449.532 32.548 449.916C32.148 450.292 31.632 450.732 31 451.236L30.484 451.644V451.74H34.348V453H28.636V451.584ZM38.5235 453.12C38.0755 453.12 37.6715 453.06 37.3115 452.94C36.9515 452.812 36.6395 452.588 36.3755 452.268C36.1195 451.948 35.9195 451.512 35.7755 450.96C35.6395 450.4 35.5715 449.692 35.5715 448.836C35.5715 447.98 35.6395 447.276 35.7755 446.724C35.9195 446.172 36.1195 445.736 36.3755 445.416C36.6395 445.088 36.9515 444.864 37.3115 444.744C37.6715 444.616 38.0755 444.552 38.5235 444.552C38.9715 444.552 39.3755 444.616 39.7355 444.744C40.1035 444.864 40.4155 445.088 40.6715 445.416C40.9275 445.736 41.1235 446.172 41.2595 446.724C41.4035 447.276 41.4755 447.98 41.4755 448.836C41.4755 449.692 41.4035 450.4 41.2595 450.96C41.1235 451.512 40.9275 451.948 40.6715 452.268C40.4155 452.588 40.1035 452.812 39.7355 452.94C39.3755 453.06 38.9715 453.12 38.5235 453.12ZM38.5235 451.824C38.7795 451.824 38.9955 451.78 39.1715 451.692C39.3555 451.604 39.5035 451.452 39.6155 451.236C39.7355 451.012 39.8235 450.708 39.8795 450.324C39.9355 449.932 39.9635 449.436 39.9635 448.836C39.9635 448.236 39.9355 447.744 39.8795 447.36C39.8235 446.976 39.7355 446.672 39.6155 446.448C39.5035 446.224 39.3555 446.068 39.1715 445.98C38.9955 445.892 38.7795 445.848 38.5235 445.848C38.2675 445.848 38.0475 445.892 37.8635 445.98C37.6875 446.068 37.5435 446.224 37.4315 446.448C37.3195 446.672 37.2355 446.976 37.1795 447.36C37.1235 447.744 37.0955 448.236 37.0955 448.836C37.0955 449.436 37.1235 449.932 37.1795 450.324C37.2355 450.708 37.3195 451.012 37.4315 451.236C37.5435 451.452 37.6875 451.604 37.8635 451.692C38.0475 451.78 38.2675 451.824 38.5235 451.824ZM42.6751 451.584C43.4591 450.96 44.1031 450.424 44.6071 449.976C45.1191 449.528 45.5191 449.136 45.8071 448.8C46.1031 448.456 46.3071 448.152 46.4191 447.888C46.5391 447.616 46.5991 447.352 46.5991 447.096C46.5991 446.848 46.5591 446.64 46.4791 446.472C46.3991 446.304 46.2871 446.172 46.1431 446.076C46.0071 445.98 45.8431 445.912 45.6511 445.872C45.4591 445.832 45.2551 445.812 45.0391 445.812C44.7671 445.812 44.4791 445.832 44.1751 445.872C43.8711 445.912 43.5471 445.984 43.2031 446.088V444.816C43.5071 444.728 43.8351 444.664 44.1871 444.624C44.5471 444.576 44.9191 444.552 45.3031 444.552C46.1831 444.552 46.8751 444.744 47.3791 445.128C47.8831 445.512 48.1351 446.108 48.1351 446.916C48.1351 447.268 48.0911 447.6 48.0031 447.912C47.9151 448.216 47.7551 448.532 47.5231 448.86C47.2991 449.18 46.9871 449.532 46.5871 449.916C46.1871 450.292 45.6711 450.732 45.0391 451.236L44.5231 451.644V451.74H48.3871V453H42.6751V451.584ZM52.5746 453.12C52.1666 453.12 51.7866 453.068 51.4346 452.964C51.0826 452.852 50.7746 452.668 50.5106 452.412C50.2466 452.156 50.0386 451.816 49.8866 451.392C49.7346 450.968 49.6586 450.436 49.6586 449.796C49.6586 448.996 49.7466 448.272 49.9226 447.624C50.1066 446.976 50.3906 446.424 50.7746 445.968C51.1586 445.512 51.6466 445.164 52.2386 444.924C52.8306 444.676 53.5426 444.552 54.3746 444.552L54.3626 445.848C53.3946 445.856 52.6466 446.072 52.1186 446.496C51.5986 446.912 51.2986 447.468 51.2186 448.164H51.2546C51.4386 448.004 51.6786 447.872 51.9746 447.768C52.2706 447.664 52.5866 447.612 52.9226 447.612C53.7306 447.612 54.3546 447.836 54.7946 448.284C55.2346 448.724 55.4546 449.388 55.4546 450.276C55.4546 450.7 55.3986 451.088 55.2866 451.44C55.1746 451.784 54.9986 452.08 54.7586 452.328C54.5266 452.576 54.2266 452.772 53.8586 452.916C53.4986 453.052 53.0706 453.12 52.5746 453.12ZM52.5386 451.908C53.0266 451.908 53.3986 451.772 53.6546 451.5C53.9186 451.228 54.0506 450.824 54.0506 450.288C54.0506 449.768 53.9266 449.38 53.6786 449.124C53.4306 448.868 53.0906 448.74 52.6586 448.74C52.0906 448.74 51.6866 448.876 51.4466 449.148C51.2146 449.412 51.0986 449.752 51.0986 450.168C51.0986 450.736 51.2186 451.168 51.4586 451.464C51.6986 451.76 52.0586 451.908 52.5386 451.908ZM56.8941 448.704H60.5301V449.928H56.8941V448.704ZM64.8673 453.12C64.4193 453.12 64.0153 453.06 63.6553 452.94C63.2953 452.812 62.9833 452.588 62.7193 452.268C62.4633 451.948 62.2633 451.512 62.1193 450.96C61.9833 450.4 61.9153 449.692 61.9153 448.836C61.9153 447.98 61.9833 447.276 62.1193 446.724C62.2633 446.172 62.4633 445.736 62.7193 445.416C62.9833 445.088 63.2953 444.864 63.6553 444.744C64.0153 444.616 64.4193 444.552 64.8673 444.552C65.3153 444.552 65.7193 444.616 66.0793 444.744C66.4473 444.864 66.7593 445.088 67.0153 445.416C67.2713 445.736 67.4673 446.172 67.6033 446.724C67.7473 447.276 67.8193 447.98 67.8193 448.836C67.8193 449.692 67.7473 450.4 67.6033 450.96C67.4673 451.512 67.2713 451.948 67.0153 452.268C66.7593 452.588 66.4473 452.812 66.0793 452.94C65.7193 453.06 65.3153 453.12 64.8673 453.12ZM64.8673 451.824C65.1233 451.824 65.3393 451.78 65.5153 451.692C65.6993 451.604 65.8473 451.452 65.9593 451.236C66.0793 451.012 66.1673 450.708 66.2233 450.324C66.2793 449.932 66.3073 449.436 66.3073 448.836C66.3073 448.236 66.2793 447.744 66.2233 447.36C66.1673 446.976 66.0793 446.672 65.9593 446.448C65.8473 446.224 65.6993 446.068 65.5153 445.98C65.3393 445.892 65.1233 445.848 64.8673 445.848C64.6113 445.848 64.3913 445.892 64.2073 445.98C64.0313 446.068 63.8873 446.224 63.7753 446.448C63.6633 446.672 63.5793 446.976 63.5233 447.36C63.4673 447.744 63.4393 448.236 63.4393 448.836C63.4393 449.436 63.4673 449.932 63.5233 450.324C63.5793 450.708 63.6633 451.012 63.7753 451.236C63.8873 451.452 64.0313 451.604 64.2073 451.692C64.3913 451.78 64.6113 451.824 64.8673 451.824ZM71.8988 453.12C71.4908 453.12 71.1108 453.068 70.7588 452.964C70.4068 452.852 70.0988 452.668 69.8348 452.412C69.5708 452.156 69.3628 451.816 69.2108 451.392C69.0588 450.968 68.9828 450.436 68.9828 449.796C68.9828 448.996 69.0708 448.272 69.2468 447.624C69.4308 446.976 69.7148 446.424 70.0988 445.968C70.4828 445.512 70.9708 445.164 71.5628 444.924C72.1548 444.676 72.8668 444.552 73.6988 444.552L73.6868 445.848C72.7188 445.856 71.9708 446.072 71.4428 446.496C70.9228 446.912 70.6228 447.468 70.5428 448.164H70.5788C70.7628 448.004 71.0028 447.872 71.2988 447.768C71.5948 447.664 71.9108 447.612 72.2468 447.612C73.0548 447.612 73.6788 447.836 74.1188 448.284C74.5588 448.724 74.7788 449.388 74.7788 450.276C74.7788 450.7 74.7228 451.088 74.6108 451.44C74.4988 451.784 74.3228 452.08 74.0828 452.328C73.8508 452.576 73.5508 452.772 73.1828 452.916C72.8228 453.052 72.3948 453.12 71.8988 453.12ZM71.8628 451.908C72.3508 451.908 72.7228 451.772 72.9788 451.5C73.2428 451.228 73.3748 450.824 73.3748 450.288C73.3748 449.768 73.2508 449.38 73.0028 449.124C72.7548 448.868 72.4148 448.74 71.9828 448.74C71.4148 448.74 71.0108 448.876 70.7708 449.148C70.5388 449.412 70.4228 449.752 70.4228 450.168C70.4228 450.736 70.5428 451.168 70.7828 451.464C71.0228 451.76 71.3828 451.908 71.8628 451.908ZM76.2183 448.704H79.8543V449.928H76.2183V448.704ZM83.3995 453.12C83.0315 453.12 82.6915 453.108 82.3795 453.084C82.0755 453.06 81.7835 453.02 81.5035 452.964V451.656C81.8235 451.728 82.1275 451.78 82.4155 451.812C82.7035 451.844 83.0075 451.86 83.3275 451.86C83.5995 451.86 83.8515 451.84 84.0835 451.8C84.3155 451.76 84.5195 451.692 84.6955 451.596C84.8715 451.5 85.0075 451.372 85.1035 451.212C85.2075 451.044 85.2595 450.832 85.2595 450.576C85.2595 450.08 85.0715 449.744 84.6955 449.568C84.3195 449.384 83.7875 449.292 83.0995 449.292H82.4515V448.128H83.0875C83.7195 448.128 84.2115 448.032 84.5635 447.84C84.9235 447.648 85.1035 447.332 85.1035 446.892C85.1035 446.476 84.9635 446.188 84.6835 446.028C84.4035 445.868 84.0075 445.788 83.4955 445.788C83.2475 445.788 82.9715 445.812 82.6675 445.86C82.3635 445.9 82.0915 445.956 81.8515 446.028V444.792C82.0515 444.728 82.3155 444.672 82.6435 444.624C82.9795 444.576 83.3195 444.552 83.6635 444.552C84.1195 444.552 84.5275 444.592 84.8875 444.672C85.2475 444.752 85.5515 444.88 85.7995 445.056C86.0555 445.232 86.2515 445.464 86.3875 445.752C86.5235 446.04 86.5915 446.388 86.5915 446.796C86.5915 447.276 86.4755 447.664 86.2435 447.96C86.0115 448.256 85.6635 448.48 85.1995 448.632V448.704C85.7435 448.808 86.1475 449.032 86.4115 449.376C86.6755 449.712 86.8075 450.144 86.8075 450.672C86.8075 452.304 85.6715 453.12 83.3995 453.12ZM90.923 446.052L88.871 446.448V445.176L91.355 444.672H92.459V453H90.923V446.052Z" fill="#9AA1A9"/>
<path d="M331.974 443.142C333.075 443.142 333.943 442.913 334.578 442.456C335.222 441.989 335.586 441.336 335.67 440.496H335.614C335.427 440.664 335.171 440.813 334.844 440.944C334.527 441.075 334.158 441.14 333.738 441.14C332.767 441.14 332.016 440.888 331.484 440.384C330.952 439.871 330.686 439.091 330.686 438.046C330.686 437.561 330.751 437.108 330.882 436.688C331.022 436.268 331.227 435.909 331.498 435.61C331.778 435.311 332.128 435.078 332.548 434.91C332.968 434.733 333.467 434.644 334.046 434.644C334.522 434.644 334.965 434.709 335.376 434.84C335.796 434.971 336.16 435.195 336.468 435.512C336.776 435.82 337.014 436.231 337.182 436.744C337.359 437.257 337.448 437.892 337.448 438.648C337.448 439.591 337.35 440.435 337.154 441.182C336.967 441.929 336.655 442.559 336.216 443.072C335.787 443.585 335.222 443.977 334.522 444.248C333.831 444.519 332.982 444.654 331.974 444.654V443.142ZM333.976 439.838C334.629 439.838 335.091 439.684 335.362 439.376C335.642 439.059 335.782 438.653 335.782 438.158C335.782 437.514 335.637 437.005 335.348 436.632C335.068 436.249 334.643 436.058 334.074 436.058C333.495 436.058 333.057 436.235 332.758 436.59C332.459 436.935 332.31 437.421 332.31 438.046C332.31 438.643 332.459 439.091 332.758 439.39C333.066 439.689 333.472 439.838 333.976 439.838ZM340.163 443.142C341.265 443.142 342.133 442.913 342.767 442.456C343.411 441.989 343.775 441.336 343.859 440.496H343.803C343.617 440.664 343.36 440.813 343.033 440.944C342.716 441.075 342.347 441.14 341.927 441.14C340.957 441.14 340.205 440.888 339.673 440.384C339.141 439.871 338.875 439.091 338.875 438.046C338.875 437.561 338.941 437.108 339.071 436.688C339.211 436.268 339.417 435.909 339.687 435.61C339.967 435.311 340.317 435.078 340.737 434.91C341.157 434.733 341.657 434.644 342.235 434.644C342.711 434.644 343.155 434.709 343.565 434.84C343.985 434.971 344.349 435.195 344.657 435.512C344.965 435.82 345.203 436.231 345.371 436.744C345.549 437.257 345.637 437.892 345.637 438.648C345.637 439.591 345.539 440.435 345.343 441.182C345.157 441.929 344.844 442.559 344.405 443.072C343.976 443.585 343.411 443.977 342.711 444.248C342.021 444.519 341.171 444.654 340.163 444.654V443.142ZM342.165 439.838C342.819 439.838 343.281 439.684 343.551 439.376C343.831 439.059 343.971 438.653 343.971 438.158C343.971 437.514 343.827 437.005 343.537 436.632C343.257 436.249 342.833 436.058 342.263 436.058C341.685 436.058 341.246 436.235 340.947 436.59C340.649 436.935 340.499 437.421 340.499 438.046C340.499 438.643 340.649 439.091 340.947 439.39C341.255 439.689 341.661 439.838 342.165 439.838ZM358.069 435.372H348.479V433.944H358.069V435.372ZM359.483 442.204C359.464 442.465 359.446 442.722 359.427 442.974C359.418 443.217 359.39 443.501 359.343 443.828C359.296 444.145 359.226 444.411 359.133 444.626C359.049 444.841 358.928 445.013 358.769 445.144C358.61 445.275 358.41 445.373 358.167 445.438C357.924 445.513 357.63 445.559 357.285 445.578C357.033 445.597 356.786 445.601 356.543 445.592C356.3 445.592 356.048 445.583 355.787 445.564C355.46 445.545 355.176 445.499 354.933 445.424C354.69 445.359 354.49 445.247 354.331 445.088C354.182 444.939 354.07 444.743 353.995 444.5C353.92 444.248 353.883 443.935 353.883 443.562V438.984H351.881C351.881 439.227 351.881 439.465 351.881 439.698C351.881 439.931 351.876 440.118 351.867 440.258C351.848 440.893 351.769 441.467 351.629 441.98C351.498 442.493 351.284 442.983 350.985 443.45C350.686 443.907 350.294 444.351 349.809 444.78C349.333 445.219 348.74 445.676 348.031 446.152L347.037 444.892C347.709 444.519 348.255 444.159 348.675 443.814C349.095 443.469 349.422 443.119 349.655 442.764C349.898 442.4 350.07 442.017 350.173 441.616C350.276 441.205 350.341 440.753 350.369 440.258C350.378 440.118 350.383 439.931 350.383 439.698C350.392 439.465 350.397 439.227 350.397 438.984H347.415V437.584H359.161V438.984H355.325V443.212C355.325 443.567 355.39 443.805 355.521 443.926C355.661 444.047 355.894 444.117 356.221 444.136C356.482 444.145 356.753 444.145 357.033 444.136C357.21 444.127 357.355 444.103 357.467 444.066C357.579 444.029 357.668 443.973 357.733 443.898C357.798 443.823 357.845 443.73 357.873 443.618C357.91 443.497 357.943 443.352 357.971 443.184C358.008 442.951 358.032 442.722 358.041 442.498C358.06 442.265 358.074 442.008 358.083 441.728L359.483 442.204Z" fill="#E59E2E"/>
<path d="M28 469C158.435 469 231.565 469 362 469" stroke="#303030"/>
<path d="M32.536 489.63V491.828H38.206V489.63H32.536ZM38.206 488.384V486.284H32.536V488.384H38.206ZM32.466 493.06C32.284 494.852 31.752 496.336 30.87 497.526L29.848 496.588C30.73 495.356 31.178 493.788 31.206 491.884V485.01H39.55V495.972C39.55 496.868 39.088 497.316 38.192 497.316H36.4L36.036 496.014C36.652 496.042 37.226 496.07 37.758 496.07C38.052 496.07 38.206 495.874 38.206 495.51V493.06H32.466ZM48.51 484.492H49.49C51.254 486.424 53.27 487.95 55.566 489.07L54.838 490.358C53.998 489.924 53.228 489.448 52.5 488.916V489.966H45.542V488.86C44.786 489.392 43.974 489.896 43.106 490.372L42.392 489.084C44.842 487.852 46.886 486.326 48.51 484.492ZM45.752 488.706H52.22C51.016 487.81 49.938 486.802 49 485.682C48.09 486.788 47.012 487.796 45.752 488.706ZM43.344 491.52H54.684V492.808H48.16C47.53 493.97 46.802 494.978 45.976 495.846C47.992 495.734 49.924 495.566 51.8 495.342C51.38 494.796 50.918 494.25 50.414 493.69L51.45 493.032C52.724 494.418 53.704 495.622 54.404 496.644L53.298 497.428C53.06 497.064 52.808 496.686 52.542 496.308C50.372 496.644 47.642 496.91 44.366 497.106L44.002 495.958C44.324 495.874 44.548 495.748 44.688 495.594C45.444 494.712 46.088 493.788 46.62 492.808H43.344V491.52ZM67.83 489.532V494.838H66.514V490.75H59.5V495.048H58.184V489.532H67.83ZM59.01 484.94H67.004V488.678H59.01V484.94ZM65.716 487.53V486.116H60.298V487.53H65.716ZM62.454 491.478L63.798 491.604C63.602 493.704 63.168 495.104 62.496 495.804C61.796 496.672 60.088 497.246 57.386 497.498L56.868 496.28C59.122 496.168 60.62 495.748 61.348 495.02C61.978 494.334 62.342 493.158 62.454 491.478ZM64.106 494.642C65.926 495.132 67.578 495.72 69.09 496.406L68.362 497.512C66.766 496.714 65.128 496.084 63.448 495.636L64.106 494.642Z" fill="#E7E7E7"/>
<path d="M28.636 511.584C29.42 510.96 30.064 510.424 30.568 509.976C31.08 509.528 31.48 509.136 31.768 508.8C32.064 508.456 32.268 508.152 32.38 507.888C32.5 507.616 32.56 507.352 32.56 507.096C32.56 506.848 32.52 506.64 32.44 506.472C32.36 506.304 32.248 506.172 32.104 506.076C31.968 505.98 31.804 505.912 31.612 505.872C31.42 505.832 31.216 505.812 31 505.812C30.728 505.812 30.44 505.832 30.136 505.872C29.832 505.912 29.508 505.984 29.164 506.088V504.816C29.468 504.728 29.796 504.664 30.148 504.624C30.508 504.576 30.88 504.552 31.264 504.552C32.144 504.552 32.836 504.744 33.34 505.128C33.844 505.512 34.096 506.108 34.096 506.916C34.096 507.268 34.052 507.6 33.964 507.912C33.876 508.216 33.716 508.532 33.484 508.86C33.26 509.18 32.948 509.532 32.548 509.916C32.148 510.292 31.632 510.732 31 511.236L30.484 511.644V511.74H34.348V513H28.636V511.584ZM38.5235 513.12C38.0755 513.12 37.6715 513.06 37.3115 512.94C36.9515 512.812 36.6395 512.588 36.3755 512.268C36.1195 511.948 35.9195 511.512 35.7755 510.96C35.6395 510.4 35.5715 509.692 35.5715 508.836C35.5715 507.98 35.6395 507.276 35.7755 506.724C35.9195 506.172 36.1195 505.736 36.3755 505.416C36.6395 505.088 36.9515 504.864 37.3115 504.744C37.6715 504.616 38.0755 504.552 38.5235 504.552C38.9715 504.552 39.3755 504.616 39.7355 504.744C40.1035 504.864 40.4155 505.088 40.6715 505.416C40.9275 505.736 41.1235 506.172 41.2595 506.724C41.4035 507.276 41.4755 507.98 41.4755 508.836C41.4755 509.692 41.4035 510.4 41.2595 510.96C41.1235 511.512 40.9275 511.948 40.6715 512.268C40.4155 512.588 40.1035 512.812 39.7355 512.94C39.3755 513.06 38.9715 513.12 38.5235 513.12ZM38.5235 511.824C38.7795 511.824 38.9955 511.78 39.1715 511.692C39.3555 511.604 39.5035 511.452 39.6155 511.236C39.7355 511.012 39.8235 510.708 39.8795 510.324C39.9355 509.932 39.9635 509.436 39.9635 508.836C39.9635 508.236 39.9355 507.744 39.8795 507.36C39.8235 506.976 39.7355 506.672 39.6155 506.448C39.5035 506.224 39.3555 506.068 39.1715 505.98C38.9955 505.892 38.7795 505.848 38.5235 505.848C38.2675 505.848 38.0475 505.892 37.8635 505.98C37.6875 506.068 37.5435 506.224 37.4315 506.448C37.3195 506.672 37.2355 506.976 37.1795 507.36C37.1235 507.744 37.0955 508.236 37.0955 508.836C37.0955 509.436 37.1235 509.932 37.1795 510.324C37.2355 510.708 37.3195 511.012 37.4315 511.236C37.5435 511.452 37.6875 511.604 37.8635 511.692C38.0475 511.78 38.2675 511.824 38.5235 511.824ZM42.6751 511.584C43.4591 510.96 44.1031 510.424 44.6071 509.976C45.1191 509.528 45.5191 509.136 45.8071 508.8C46.1031 508.456 46.3071 508.152 46.4191 507.888C46.5391 507.616 46.5991 507.352 46.5991 507.096C46.5991 506.848 46.5591 506.64 46.4791 506.472C46.3991 506.304 46.2871 506.172 46.1431 506.076C46.0071 505.98 45.8431 505.912 45.6511 505.872C45.4591 505.832 45.2551 505.812 45.0391 505.812C44.7671 505.812 44.4791 505.832 44.1751 505.872C43.8711 505.912 43.5471 505.984 43.2031 506.088V504.816C43.5071 504.728 43.8351 504.664 44.1871 504.624C44.5471 504.576 44.9191 504.552 45.3031 504.552C46.1831 504.552 46.8751 504.744 47.3791 505.128C47.8831 505.512 48.1351 506.108 48.1351 506.916C48.1351 507.268 48.0911 507.6 48.0031 507.912C47.9151 508.216 47.7551 508.532 47.5231 508.86C47.2991 509.18 46.9871 509.532 46.5871 509.916C46.1871 510.292 45.6711 510.732 45.0391 511.236L44.5231 511.644V511.74H48.3871V513H42.6751V511.584ZM52.5746 513.12C52.1666 513.12 51.7866 513.068 51.4346 512.964C51.0826 512.852 50.7746 512.668 50.5106 512.412C50.2466 512.156 50.0386 511.816 49.8866 511.392C49.7346 510.968 49.6586 510.436 49.6586 509.796C49.6586 508.996 49.7466 508.272 49.9226 507.624C50.1066 506.976 50.3906 506.424 50.7746 505.968C51.1586 505.512 51.6466 505.164 52.2386 504.924C52.8306 504.676 53.5426 504.552 54.3746 504.552L54.3626 505.848C53.3946 505.856 52.6466 506.072 52.1186 506.496C51.5986 506.912 51.2986 507.468 51.2186 508.164H51.2546C51.4386 508.004 51.6786 507.872 51.9746 507.768C52.2706 507.664 52.5866 507.612 52.9226 507.612C53.7306 507.612 54.3546 507.836 54.7946 508.284C55.2346 508.724 55.4546 509.388 55.4546 510.276C55.4546 510.7 55.3986 511.088 55.2866 511.44C55.1746 511.784 54.9986 512.08 54.7586 512.328C54.5266 512.576 54.2266 512.772 53.8586 512.916C53.4986 513.052 53.0706 513.12 52.5746 513.12ZM52.5386 511.908C53.0266 511.908 53.3986 511.772 53.6546 511.5C53.9186 511.228 54.0506 510.824 54.0506 510.288C54.0506 509.768 53.9266 509.38 53.6786 509.124C53.4306 508.868 53.0906 508.74 52.6586 508.74C52.0906 508.74 51.6866 508.876 51.4466 509.148C51.2146 509.412 51.0986 509.752 51.0986 510.168C51.0986 510.736 51.2186 511.168 51.4586 511.464C51.6986 511.76 52.0586 511.908 52.5386 511.908ZM56.8941 508.704H60.5301V509.928H56.8941V508.704ZM64.8673 513.12C64.4193 513.12 64.0153 513.06 63.6553 512.94C63.2953 512.812 62.9833 512.588 62.7193 512.268C62.4633 511.948 62.2633 511.512 62.1193 510.96C61.9833 510.4 61.9153 509.692 61.9153 508.836C61.9153 507.98 61.9833 507.276 62.1193 506.724C62.2633 506.172 62.4633 505.736 62.7193 505.416C62.9833 505.088 63.2953 504.864 63.6553 504.744C64.0153 504.616 64.4193 504.552 64.8673 504.552C65.3153 504.552 65.7193 504.616 66.0793 504.744C66.4473 504.864 66.7593 505.088 67.0153 505.416C67.2713 505.736 67.4673 506.172 67.6033 506.724C67.7473 507.276 67.8193 507.98 67.8193 508.836C67.8193 509.692 67.7473 510.4 67.6033 510.96C67.4673 511.512 67.2713 511.948 67.0153 512.268C66.7593 512.588 66.4473 512.812 66.0793 512.94C65.7193 513.06 65.3153 513.12 64.8673 513.12ZM64.8673 511.824C65.1233 511.824 65.3393 511.78 65.5153 511.692C65.6993 511.604 65.8473 511.452 65.9593 511.236C66.0793 511.012 66.1673 510.708 66.2233 510.324C66.2793 509.932 66.3073 509.436 66.3073 508.836C66.3073 508.236 66.2793 507.744 66.2233 507.36C66.1673 506.976 66.0793 506.672 65.9593 506.448C65.8473 506.224 65.6993 506.068 65.5153 505.98C65.3393 505.892 65.1233 505.848 64.8673 505.848C64.6113 505.848 64.3913 505.892 64.2073 505.98C64.0313 506.068 63.8873 506.224 63.7753 506.448C63.6633 506.672 63.5793 506.976 63.5233 507.36C63.4673 507.744 63.4393 508.236 63.4393 508.836C63.4393 509.436 63.4673 509.932 63.5233 510.324C63.5793 510.708 63.6633 511.012 63.7753 511.236C63.8873 511.452 64.0313 511.604 64.2073 511.692C64.3913 511.78 64.6113 511.824 64.8673 511.824ZM71.8988 513.12C71.4908 513.12 71.1108 513.068 70.7588 512.964C70.4068 512.852 70.0988 512.668 69.8348 512.412C69.5708 512.156 69.3628 511.816 69.2108 511.392C69.0588 510.968 68.9828 510.436 68.9828 509.796C68.9828 508.996 69.0708 508.272 69.2468 507.624C69.4308 506.976 69.7148 506.424 70.0988 505.968C70.4828 505.512 70.9708 505.164 71.5628 504.924C72.1548 504.676 72.8668 504.552 73.6988 504.552L73.6868 505.848C72.7188 505.856 71.9708 506.072 71.4428 506.496C70.9228 506.912 70.6228 507.468 70.5428 508.164H70.5788C70.7628 508.004 71.0028 507.872 71.2988 507.768C71.5948 507.664 71.9108 507.612 72.2468 507.612C73.0548 507.612 73.6788 507.836 74.1188 508.284C74.5588 508.724 74.7788 509.388 74.7788 510.276C74.7788 510.7 74.7228 511.088 74.6108 511.44C74.4988 511.784 74.3228 512.08 74.0828 512.328C73.8508 512.576 73.5508 512.772 73.1828 512.916C72.8228 513.052 72.3948 513.12 71.8988 513.12ZM71.8628 511.908C72.3508 511.908 72.7228 511.772 72.9788 511.5C73.2428 511.228 73.3748 510.824 73.3748 510.288C73.3748 509.768 73.2508 509.38 73.0028 509.124C72.7548 508.868 72.4148 508.74 71.9828 508.74C71.4148 508.74 71.0108 508.876 70.7708 509.148C70.5388 509.412 70.4228 509.752 70.4228 510.168C70.4228 510.736 70.5428 511.168 70.7828 511.464C71.0228 511.76 71.3828 511.908 71.8628 511.908ZM76.2183 508.704H79.8543V509.928H76.2183V508.704ZM83.3995 513.12C83.0315 513.12 82.6915 513.108 82.3795 513.084C82.0755 513.06 81.7835 513.02 81.5035 512.964V511.656C81.8235 511.728 82.1275 511.78 82.4155 511.812C82.7035 511.844 83.0075 511.86 83.3275 511.86C83.5995 511.86 83.8515 511.84 84.0835 511.8C84.3155 511.76 84.5195 511.692 84.6955 511.596C84.8715 511.5 85.0075 511.372 85.1035 511.212C85.2075 511.044 85.2595 510.832 85.2595 510.576C85.2595 510.08 85.0715 509.744 84.6955 509.568C84.3195 509.384 83.7875 509.292 83.0995 509.292H82.4515V508.128H83.0875C83.7195 508.128 84.2115 508.032 84.5635 507.84C84.9235 507.648 85.1035 507.332 85.1035 506.892C85.1035 506.476 84.9635 506.188 84.6835 506.028C84.4035 505.868 84.0075 505.788 83.4955 505.788C83.2475 505.788 82.9715 505.812 82.6675 505.86C82.3635 505.9 82.0915 505.956 81.8515 506.028V504.792C82.0515 504.728 82.3155 504.672 82.6435 504.624C82.9795 504.576 83.3195 504.552 83.6635 504.552C84.1195 504.552 84.5275 504.592 84.8875 504.672C85.2475 504.752 85.5515 504.88 85.7995 505.056C86.0555 505.232 86.2515 505.464 86.3875 505.752C86.5235 506.04 86.5915 506.388 86.5915 506.796C86.5915 507.276 86.4755 507.664 86.2435 507.96C86.0115 508.256 85.6635 508.48 85.1995 508.632V508.704C85.7435 508.808 86.1475 509.032 86.4115 509.376C86.6755 509.712 86.8075 510.144 86.8075 510.672C86.8075 512.304 85.6715 513.12 83.3995 513.12ZM90.923 506.052L88.871 506.448V505.176L91.355 504.672H92.459V513H90.923V506.052Z" fill="#9AA1A9"/>
<path d="M331.974 503.142C333.075 503.142 333.943 502.913 334.578 502.456C335.222 501.989 335.586 501.336 335.67 500.496H335.614C335.427 500.664 335.171 500.813 334.844 500.944C334.527 501.075 334.158 501.14 333.738 501.14C332.767 501.14 332.016 500.888 331.484 500.384C330.952 499.871 330.686 499.091 330.686 498.046C330.686 497.561 330.751 497.108 330.882 496.688C331.022 496.268 331.227 495.909 331.498 495.61C331.778 495.311 332.128 495.078 332.548 494.91C332.968 494.733 333.467 494.644 334.046 494.644C334.522 494.644 334.965 494.709 335.376 494.84C335.796 494.971 336.16 495.195 336.468 495.512C336.776 495.82 337.014 496.231 337.182 496.744C337.359 497.257 337.448 497.892 337.448 498.648C337.448 499.591 337.35 500.435 337.154 501.182C336.967 501.929 336.655 502.559 336.216 503.072C335.787 503.585 335.222 503.977 334.522 504.248C333.831 504.519 332.982 504.654 331.974 504.654V503.142ZM333.976 499.838C334.629 499.838 335.091 499.684 335.362 499.376C335.642 499.059 335.782 498.653 335.782 498.158C335.782 497.514 335.637 497.005 335.348 496.632C335.068 496.249 334.643 496.058 334.074 496.058C333.495 496.058 333.057 496.235 332.758 496.59C332.459 496.935 332.31 497.421 332.31 498.046C332.31 498.643 332.459 499.091 332.758 499.39C333.066 499.689 333.472 499.838 333.976 499.838ZM340.163 503.142C341.265 503.142 342.133 502.913 342.767 502.456C343.411 501.989 343.775 501.336 343.859 500.496H343.803C343.617 500.664 343.36 500.813 343.033 500.944C342.716 501.075 342.347 501.14 341.927 501.14C340.957 501.14 340.205 500.888 339.673 500.384C339.141 499.871 338.875 499.091 338.875 498.046C338.875 497.561 338.941 497.108 339.071 496.688C339.211 496.268 339.417 495.909 339.687 495.61C339.967 495.311 340.317 495.078 340.737 494.91C341.157 494.733 341.657 494.644 342.235 494.644C342.711 494.644 343.155 494.709 343.565 494.84C343.985 494.971 344.349 495.195 344.657 495.512C344.965 495.82 345.203 496.231 345.371 496.744C345.549 497.257 345.637 497.892 345.637 498.648C345.637 499.591 345.539 500.435 345.343 501.182C345.157 501.929 344.844 502.559 344.405 503.072C343.976 503.585 343.411 503.977 342.711 504.248C342.021 504.519 341.171 504.654 340.163 504.654V503.142ZM342.165 499.838C342.819 499.838 343.281 499.684 343.551 499.376C343.831 499.059 343.971 498.653 343.971 498.158C343.971 497.514 343.827 497.005 343.537 496.632C343.257 496.249 342.833 496.058 342.263 496.058C341.685 496.058 341.246 496.235 340.947 496.59C340.649 496.935 340.499 497.421 340.499 498.046C340.499 498.643 340.649 499.091 340.947 499.39C341.255 499.689 341.661 499.838 342.165 499.838ZM358.069 495.372H348.479V493.944H358.069V495.372ZM359.483 502.204C359.464 502.465 359.446 502.722 359.427 502.974C359.418 503.217 359.39 503.501 359.343 503.828C359.296 504.145 359.226 504.411 359.133 504.626C359.049 504.841 358.928 505.013 358.769 505.144C358.61 505.275 358.41 505.373 358.167 505.438C357.924 505.513 357.63 505.559 357.285 505.578C357.033 505.597 356.786 505.601 356.543 505.592C356.3 505.592 356.048 505.583 355.787 505.564C355.46 505.545 355.176 505.499 354.933 505.424C354.69 505.359 354.49 505.247 354.331 505.088C354.182 504.939 354.07 504.743 353.995 504.5C353.92 504.248 353.883 503.935 353.883 503.562V498.984H351.881C351.881 499.227 351.881 499.465 351.881 499.698C351.881 499.931 351.876 500.118 351.867 500.258C351.848 500.893 351.769 501.467 351.629 501.98C351.498 502.493 351.284 502.983 350.985 503.45C350.686 503.907 350.294 504.351 349.809 504.78C349.333 505.219 348.74 505.676 348.031 506.152L347.037 504.892C347.709 504.519 348.255 504.159 348.675 503.814C349.095 503.469 349.422 503.119 349.655 502.764C349.898 502.4 350.07 502.017 350.173 501.616C350.276 501.205 350.341 500.753 350.369 500.258C350.378 500.118 350.383 499.931 350.383 499.698C350.392 499.465 350.397 499.227 350.397 498.984H347.415V497.584H359.161V498.984H355.325V503.212C355.325 503.567 355.39 503.805 355.521 503.926C355.661 504.047 355.894 504.117 356.221 504.136C356.482 504.145 356.753 504.145 357.033 504.136C357.21 504.127 357.355 504.103 357.467 504.066C357.579 504.029 357.668 503.973 357.733 503.898C357.798 503.823 357.845 503.73 357.873 503.618C357.91 503.497 357.943 503.352 357.971 503.184C358.008 502.951 358.032 502.722 358.041 502.498C358.06 502.265 358.074 502.008 358.083 501.728L359.483 502.204Z" fill="#E59E2E"/>
<rect width="390" height="90" fill="#1C1C1C"/>
<path d="M23.3806 76.1814L15.2206 68.0214C15.1929 67.8626 15.1929 67.7002 15.2206 67.5414L23.3806 59.3814C23.4435 59.3541 23.6211 59.3526 23.8606 59.3814L24.8206 60.3414C24.848 60.592 24.8494 60.7734 24.8206 60.8214L18.1006 67.5414C18.053 67.6124 18.0276 67.6959 18.0276 67.7814C18.0276 67.8669 18.053 67.9504 18.1006 68.0214L24.8206 74.7414C24.8475 74.7885 24.8504 74.9689 24.8206 75.2214L23.8606 76.1814C23.6235 76.2088 23.4445 76.2102 23.3806 76.1814Z" fill="#EAEAEA"/>
<path d="M315.644 53H367C377 53 382 58 382 68C382 78 377 83 367 83H315.644C305.644 83 300.644 78 300.644 68C300.644 58 305.644 53 315.644 53Z" fill="#F2F2F2"/>
<path d="M316.159 53.5068H366.498C376.498 53.5068 381.498 58.5068 381.498 68.5068V67.4899C381.498 77.4899 376.498 82.4899 366.498 82.4899H316.159C306.159 82.4899 301.159 77.4899 301.159 67.4899V68.5068C301.159 58.5068 306.159 53.5068 316.159 53.5068Z" fill="#1A191F"/>
<path d="M361.667 76.3903C360.058 76.3903 358.485 75.9132 357.147 75.0192C355.809 74.1253 354.766 72.8547 354.151 71.3681C353.535 69.8815 353.374 68.2457 353.688 66.6676C354.002 65.0894 354.776 63.6398 355.914 62.502C357.052 61.3642 358.502 60.5894 360.08 60.2755C361.658 59.9616 363.294 60.1227 364.78 60.7384C366.267 61.3542 367.537 62.397 368.431 63.7348C369.325 65.0727 369.803 66.6457 369.803 68.2547C369.803 70.4124 368.945 72.4818 367.42 74.0075C365.894 75.5332 363.825 76.3903 361.667 76.3903ZM361.667 62.153C360.46 62.153 359.28 62.5109 358.277 63.1814C357.274 63.8518 356.492 64.8048 356.03 65.9197C355.568 67.0347 355.447 68.2615 355.682 69.4451C355.918 70.6287 356.499 71.716 357.352 72.5693C358.206 73.4226 359.293 74.0038 360.477 74.2392C361.66 74.4746 362.887 74.3538 364.002 73.892C365.117 73.4301 366.07 72.6481 366.74 71.6447C367.411 70.6412 367.769 69.4615 367.769 68.2547C367.769 67.4535 367.611 66.66 367.304 65.9197C366.998 65.1794 366.548 64.5068 365.981 63.9402C365.415 63.3736 364.742 62.9241 364.002 62.6175C363.262 62.3109 362.468 62.153 361.667 62.153ZM361.667 71.3056C361.064 71.3056 360.474 71.1267 359.972 70.7914C359.47 70.4562 359.079 69.9797 358.848 69.4222C358.617 68.8648 358.557 68.2514 358.675 67.6595C358.792 67.0677 359.083 66.5241 359.51 66.0975C359.936 65.6708 360.48 65.3802 361.072 65.2625C361.664 65.1448 362.277 65.2052 362.834 65.4361C363.392 65.667 363.868 66.0581 364.204 66.5598C364.539 67.0615 364.718 67.6513 364.718 68.2547C364.718 68.6554 364.639 69.0521 364.486 69.4222C364.332 69.7924 364.107 70.1287 363.824 70.412C363.541 70.6953 363.205 70.92 362.834 71.0734C362.464 71.2267 362.068 71.3056 361.667 71.3056ZM329.125 70.2886C328.722 70.2886 328.329 70.1694 327.995 69.9459C327.66 69.7224 327.399 69.4047 327.245 69.0331C327.092 68.6614 327.051 68.2525 327.13 67.8579C327.208 67.4634 327.402 67.101 327.686 66.8166C327.971 66.5321 328.333 66.3384 328.728 66.2599C329.122 66.1814 329.531 66.2217 329.903 66.3757C330.275 66.5296 330.592 66.7903 330.816 67.1248C331.039 67.4592 331.158 67.8525 331.158 68.2547C331.158 68.5218 331.106 68.7863 331.004 69.0331C330.901 69.2798 330.752 69.5041 330.563 69.6929C330.374 69.8818 330.15 70.0316 329.903 70.1338C329.656 70.236 329.392 70.2886 329.125 70.2886ZM322.514 71.3056C321.911 71.3056 321.321 71.1267 320.819 70.7914C320.318 70.4562 319.927 69.9797 319.696 69.4222C319.465 68.8648 319.404 68.2514 319.522 67.6595C319.64 67.0677 319.93 66.5241 320.357 66.0975C320.784 65.6708 321.327 65.3802 321.919 65.2625C322.511 65.1448 323.124 65.2052 323.682 65.4361C324.239 65.667 324.716 66.0581 325.051 66.5598C325.386 67.0615 325.565 67.6513 325.565 68.2547C325.565 68.6554 325.486 69.0521 325.333 69.4222C325.18 69.7924 324.955 70.1287 324.672 70.412C324.388 70.6953 324.052 70.92 323.682 71.0734C323.312 71.2267 322.915 71.3056 322.514 71.3056ZM315.396 70.2886C314.993 70.2886 314.6 70.1694 314.266 69.9459C313.931 69.7224 313.671 69.4047 313.517 69.0331C313.363 68.6614 313.322 68.2525 313.401 67.8579C313.479 67.4634 313.673 67.101 313.958 66.8166C314.242 66.5321 314.604 66.3384 314.999 66.2599C315.393 66.1814 315.802 66.2217 316.174 66.3757C316.546 66.5296 316.863 66.7903 317.087 67.1248C317.31 67.4592 317.43 67.8525 317.43 68.2547C317.43 68.5218 317.377 68.7863 317.275 69.0331C317.173 69.2798 317.023 69.5041 316.834 69.6929C316.645 69.8818 316.421 70.0316 316.174 70.1338C315.927 70.236 315.663 70.2886 315.396 70.2886Z" fill="white"/>
<path d="M340.817 59.6123H341.833V76.9004H340.817V59.6123Z" fill="#F2F2F2"/>
<path d="M166.136 60.736L167.56 61.408C167.208 62.496 166.744 63.552 166.2 64.56V75.68H164.68V66.912C164.168 67.584 163.608 68.24 163 68.88L162.52 67.296C164.152 65.424 165.368 63.232 166.136 60.736ZM167.736 64.224H173.592V60.944H175.112V64.224H177.32V65.696H175.112V73.824C175.112 74.976 174.552 75.568 173.432 75.568H171.048L170.712 74.08C171.464 74.144 172.2 74.176 172.904 74.176C173.352 74.176 173.592 73.92 173.592 73.44V65.696H167.736V64.224ZM169.384 67.2C170.568 68.592 171.48 69.808 172.12 70.864L170.824 71.76C170.152 70.624 169.256 69.36 168.136 67.968L169.384 67.2ZM179.416 62.24H182.68V60.88H184.12V62.24H186.936V63.552H184.12V64.64H186.568V65.92H179.976V64.64H182.68V63.552H179.416V62.24ZM180.504 66.896H186.072V68.208H180.504V66.896ZM179.528 69.12H187.112V70.448H184.104V74.176C184.104 75.136 183.576 75.616 182.552 75.616H181.24L180.936 74.24C181.32 74.304 181.704 74.336 182.072 74.336C182.456 74.336 182.664 74.16 182.664 73.824V70.448H179.528V69.12ZM180.6 71.024L181.816 71.264C181.464 72.496 180.984 73.552 180.344 74.448L179.208 73.728C179.864 72.896 180.328 71.984 180.6 71.024ZM185.928 70.88C186.296 71.6 186.632 72.368 186.92 73.2L185.736 73.728C185.432 72.8 185.096 71.968 184.728 71.264L185.928 70.88ZM188.312 60.944L189.704 61.168C189.608 61.936 189.512 62.64 189.384 63.28H193.528V64.192C193.32 65.536 193.048 66.88 192.728 68.224L191.32 67.824C191.608 66.912 191.864 65.856 192.056 64.64H189.064C188.696 65.952 188.232 67.008 187.656 67.808L186.504 66.976C187.432 65.536 188.04 63.52 188.312 60.944ZM189.416 65.76H190.792C190.792 66.816 190.744 67.792 190.648 68.688C191.32 71.12 192.488 73.056 194.12 74.496L193.112 75.648C191.864 74.4 190.888 72.896 190.2 71.152C189.704 72.992 188.6 74.512 186.872 75.728L185.944 74.624C187.432 73.568 188.408 72.288 188.872 70.752C189.224 69.472 189.416 67.808 189.416 65.76ZM210.888 71.168C210.728 72.8 210.488 73.888 210.168 74.4C209.864 74.88 209.224 75.136 208.248 75.136H204.072C203.032 75.136 202.52 74.592 202.52 73.536V66.352H208.168V63.008H201.848V61.536H209.624V67.808H204.008V72.944C204.008 73.424 204.248 73.664 204.728 73.696H207.976C208.552 73.696 208.92 73.472 209.064 73.056C209.192 72.64 209.304 71.84 209.368 70.656L210.888 71.168ZM198.088 61.008C199.128 61.792 200.008 62.576 200.728 63.376L199.688 64.432C199.048 63.68 198.168 62.88 197.032 62.048L198.088 61.008ZM195.976 65.648H199.672V72.544C200.216 72.096 200.808 71.6 201.416 71.04L201.816 72.64C200.744 73.584 199.608 74.432 198.392 75.168L197.816 73.808C198.072 73.584 198.216 73.312 198.216 72.992V67.104H195.976V65.648ZM214.664 61.392H224.12V66.56H226.872V67.952H220.616V69.584C220.952 69.952 221.304 70.304 221.688 70.64C222.76 70.032 223.688 69.168 224.456 68.032L225.624 69.008C224.776 70.064 223.816 70.896 222.728 71.488C223.944 72.384 225.336 73.168 226.936 73.856L226.168 75.2C223.864 74.112 222.024 72.8 220.616 71.264V74.032C220.616 75.12 220.136 75.664 219.208 75.664H217.352L217.016 74.224C217.608 74.288 218.168 74.336 218.696 74.336C218.968 74.336 219.112 74.112 219.112 73.68V71.344C217.512 72.752 215.624 74.016 213.448 75.152L212.84 73.744C215.256 72.64 217.352 71.312 219.112 69.76V67.952H213.064V66.56H222.568V65.328H215.208V64.016H222.568V62.752H214.664V61.392ZM214.984 68.288C215.928 68.944 216.728 69.6 217.368 70.24L216.376 71.232C215.8 70.624 215 69.968 213.976 69.264L214.984 68.288Z" fill="#EAEAEA"/>
<defs>
<clipPath id="clip0_4199_53426">
<rect width="21" height="21" fill="white" transform="translate(32 312.5)"/>
</clipPath>
</defs>
</svg>
