<svg width="390" height="844" viewBox="0 0 390 844" fill="none" xmlns="http://www.w3.org/2000/svg">
<g clip-path="url(#clip0_4199_54780)">
<rect width="390" height="844" rx="16" fill="#F3F4F6"/>
<rect width="390" height="90" fill="white"/>
<path d="M23.3806 76.1814L15.2206 68.0214C15.1929 67.8626 15.1929 67.7002 15.2206 67.5414L23.3806 59.3814C23.4435 59.3541 23.6211 59.3526 23.8606 59.3814L24.8206 60.3414C24.848 60.592 24.8494 60.7734 24.8206 60.8214L18.1006 67.5414C18.053 67.6124 18.0276 67.6959 18.0276 67.7814C18.0276 67.8669 18.053 67.9504 18.1006 68.0214L24.8206 74.7414C24.8475 74.7885 24.8504 74.9689 24.8206 75.2214L23.8606 76.1814C23.6235 76.2088 23.4444 76.2102 23.3806 76.1814Z" fill="#1F1F1F"/>
<path d="M315.644 53H367C377 53 382 58 382 68C382 78 377 83 367 83H315.644C305.644 83 300.644 78 300.644 68C300.644 58 305.644 53 315.644 53Z" fill="#F4F4F4"/>
<path d="M316.159 53.5068H366.498C376.498 53.5068 381.498 58.5068 381.498 68.5068V67.4899C381.498 77.4899 376.498 82.4899 366.498 82.4899H316.159C306.159 82.4899 301.159 77.4899 301.159 67.4899V68.5068C301.159 58.5068 306.159 53.5068 316.159 53.5068Z" fill="white"/>
<path d="M361.667 76.3903C360.058 76.3903 358.485 75.9132 357.147 75.0192C355.809 74.1253 354.766 72.8547 354.151 71.3681C353.535 69.8815 353.374 68.2457 353.688 66.6676C354.002 65.0894 354.776 63.6398 355.914 62.502C357.052 61.3642 358.502 60.5894 360.08 60.2755C361.658 59.9616 363.294 60.1227 364.78 60.7384C366.267 61.3542 367.537 62.397 368.431 63.7348C369.325 65.0727 369.802 66.6457 369.802 68.2547C369.802 70.4124 368.945 72.4818 367.42 74.0075C365.894 75.5332 363.825 76.3903 361.667 76.3903ZM361.667 62.153C360.46 62.153 359.28 62.5109 358.277 63.1814C357.274 63.8518 356.491 64.8048 356.03 65.9197C355.568 67.0347 355.447 68.2615 355.682 69.4451C355.918 70.6287 356.499 71.716 357.352 72.5693C358.206 73.4226 359.293 74.0038 360.477 74.2392C361.66 74.4746 362.887 74.3538 364.002 73.892C365.117 73.4301 366.07 72.6481 366.74 71.6447C367.411 70.6412 367.769 69.4615 367.769 68.2547C367.769 67.4535 367.611 66.66 367.304 65.9197C366.997 65.1794 366.548 64.5068 365.981 63.9402C365.415 63.3736 364.742 62.9241 364.002 62.6175C363.262 62.3109 362.468 62.153 361.667 62.153ZM361.667 71.3056C361.063 71.3056 360.474 71.1267 359.972 70.7914C359.47 70.4562 359.079 69.9797 358.848 69.4222C358.617 68.8648 358.557 68.2514 358.675 67.6595C358.792 67.0677 359.083 66.5241 359.51 66.0975C359.936 65.6708 360.48 65.3802 361.072 65.2625C361.664 65.1448 362.277 65.2052 362.834 65.4361C363.392 65.667 363.868 66.0581 364.204 66.5598C364.539 67.0615 364.718 67.6513 364.718 68.2547C364.718 68.6554 364.639 69.0521 364.486 69.4222C364.332 69.7924 364.107 70.1287 363.824 70.412C363.541 70.6953 363.205 70.92 362.834 71.0734C362.464 71.2267 362.068 71.3056 361.667 71.3056ZM329.125 70.2886C328.722 70.2886 328.329 70.1694 327.995 69.9459C327.66 69.7224 327.399 69.4047 327.245 69.0331C327.092 68.6614 327.051 68.2525 327.13 67.8579C327.208 67.4634 327.402 67.101 327.686 66.8166C327.971 66.5321 328.333 66.3384 328.728 66.2599C329.122 66.1814 329.531 66.2217 329.903 66.3757C330.275 66.5296 330.592 66.7903 330.816 67.1248C331.039 67.4592 331.158 67.8525 331.158 68.2547C331.158 68.5218 331.106 68.7863 331.004 69.0331C330.901 69.2798 330.752 69.5041 330.563 69.6929C330.374 69.8818 330.15 70.0316 329.903 70.1338C329.656 70.236 329.392 70.2886 329.125 70.2886ZM322.514 71.3056C321.911 71.3056 321.321 71.1267 320.819 70.7914C320.318 70.4562 319.927 69.9797 319.696 69.4222C319.465 68.8648 319.404 68.2514 319.522 67.6595C319.64 67.0677 319.93 66.5241 320.357 66.0975C320.784 65.6708 321.327 65.3802 321.919 65.2625C322.511 65.1448 323.124 65.2052 323.682 65.4361C324.239 65.667 324.716 66.0581 325.051 66.5598C325.386 67.0615 325.565 67.6513 325.565 68.2547C325.565 68.6554 325.486 69.0521 325.333 69.4222C325.18 69.7924 324.955 70.1287 324.672 70.412C324.388 70.6953 324.052 70.92 323.682 71.0734C323.312 71.2267 322.915 71.3056 322.514 71.3056ZM315.396 70.2886C314.993 70.2886 314.6 70.1694 314.266 69.9459C313.931 69.7224 313.671 69.4047 313.517 69.0331C313.363 68.6614 313.322 68.2525 313.401 67.8579C313.479 67.4634 313.673 67.101 313.958 66.8166C314.242 66.5321 314.604 66.3384 314.999 66.2599C315.393 66.1814 315.802 66.2217 316.174 66.3757C316.546 66.5296 316.863 66.7903 317.087 67.1248C317.31 67.4592 317.43 67.8525 317.43 68.2547C317.43 68.5218 317.377 68.7863 317.275 69.0331C317.173 69.2798 317.023 69.5041 316.834 69.6929C316.645 69.8818 316.421 70.0316 316.174 70.1338C315.927 70.236 315.663 70.2886 315.396 70.2886Z" fill="#1F1F1F"/>
<path d="M340.817 59.6123H341.833V76.9004H340.817V59.6123Z" fill="#F4F4F4"/>
<path d="M170.216 68.192V69.744C169.352 70.032 168.44 70.288 167.48 70.544V73.888C167.48 74.912 166.936 75.44 165.864 75.44H164.072L163.736 73.984C164.296 74.048 164.824 74.08 165.336 74.08C165.736 74.08 165.944 73.888 165.944 73.504V70.896C164.984 71.104 164.008 71.296 162.984 71.456L162.776 69.936C163.88 69.76 164.936 69.568 165.944 69.36V66.496H162.776V65.04H165.944V63.344C165.144 63.504 164.328 63.632 163.48 63.76L163.16 62.32C165.4 62.08 167.384 61.616 169.112 60.912L169.64 62.336C168.952 62.576 168.232 62.8 167.48 63.008V65.04H170.936C170.84 63.792 170.792 62.416 170.792 60.912H172.328C172.328 62.48 172.376 63.856 172.472 65.04H177.304V66.496H172.6C172.696 67.552 172.84 68.432 173.032 69.136C173.096 69.44 173.176 69.712 173.256 69.968C173.944 69.136 174.552 68.192 175.064 67.136L176.376 67.824C175.656 69.296 174.808 70.56 173.816 71.616C174.008 72.048 174.184 72.416 174.376 72.704C174.856 73.424 175.224 73.792 175.48 73.792C175.688 73.792 175.896 72.96 176.104 71.296L177.448 72C177.048 74.272 176.456 75.424 175.688 75.424C175 75.424 174.28 74.944 173.528 74C173.224 73.616 172.952 73.184 172.712 72.672C171.608 73.6 170.376 74.336 169 74.864L168.152 73.552C169.656 73.008 170.968 72.224 172.088 71.2C171.896 70.672 171.736 70.128 171.592 69.552C171.368 68.688 171.192 67.664 171.064 66.496H167.48V69.008C168.44 68.752 169.352 68.48 170.216 68.192ZM174.088 61.056C175.224 61.776 176.184 62.496 176.984 63.216L175.88 64.304C175.208 63.6 174.28 62.848 173.064 62.032L174.088 61.056ZM185.288 63.52V74.656H183.832V73.824H181.304V75.12H179.848V63.52H181.368C181.656 62.656 181.88 61.776 182.008 60.848L183.528 61.056C183.368 61.936 183.128 62.752 182.824 63.52H185.288ZM181.304 72.416H183.832V69.264H181.304V72.416ZM181.304 67.904H183.832V64.96H181.304V67.904ZM188.168 67.36C189.224 68.672 190.04 69.808 190.6 70.8L189.4 71.648C188.792 70.592 187.96 69.424 186.936 68.128L188.168 67.36ZM193.544 63.536C193.544 69.056 193.464 72.464 193.304 73.744C193.144 74.896 192.376 75.472 191.016 75.472C190.696 75.472 190.12 75.44 189.32 75.392L188.952 74C189.656 74.032 190.264 74.064 190.776 74.064C191.416 74.064 191.784 73.728 191.88 73.056C191.976 72.256 192.024 69.568 192.056 65.008H188.04C187.592 65.968 187.08 66.848 186.472 67.648L185.56 66.448C186.616 64.912 187.352 63.04 187.736 60.832L189.24 61.024C189.08 61.92 188.856 62.752 188.6 63.536H193.544ZM196.68 72.576L196.232 71.296C196.488 71.2 196.632 71.04 196.632 70.832V62.288H198.12V70.768C198.792 70.56 199.448 70.336 200.104 70.08V60.96H201.592V74.192C203.176 73.424 204.456 72.416 205.416 71.2C204.632 70.064 203.976 68.848 203.448 67.568C203.176 67.984 202.888 68.352 202.6 68.704L201.672 67.552C202.936 65.888 203.8 63.648 204.248 60.832L205.768 61.088C205.64 61.824 205.48 62.528 205.32 63.184H210.376V64.672H209.112C208.984 67.168 208.36 69.328 207.272 71.152C208.264 72.4 209.448 73.52 210.792 74.512L209.752 75.744C208.44 74.752 207.304 73.648 206.344 72.448C205.304 73.696 203.992 74.752 202.392 75.616L201.592 74.32V75.536H200.104V71.536C199.016 71.92 197.864 72.272 196.68 72.576ZM204.856 64.672C204.696 65.12 204.52 65.536 204.328 65.952C204.84 67.36 205.512 68.656 206.312 69.84C207.112 68.368 207.56 66.64 207.672 64.672H204.856ZM212.952 61.776H216.552V60.88H218.088V61.776H221.848V60.896H223.384V61.776H226.984V63.104H223.384V63.84H224.184C224.184 64.096 224.184 64.352 224.2 64.592H225.16C225.016 64.208 224.856 63.872 224.696 63.552L225.96 63.36C226.088 63.728 226.232 64.144 226.392 64.592H227.096V65.856H224.232C224.264 67.808 224.376 69.264 224.552 70.256V70.288C224.904 69.248 225.144 68.064 225.288 66.736L226.552 67.008C226.296 69.248 225.8 71.088 225.064 72.528C225.128 72.736 225.192 72.912 225.256 73.056C225.512 73.616 225.688 73.904 225.816 73.904C225.96 73.904 226.104 73.248 226.264 71.968L227.352 72.576C227.064 74.592 226.616 75.6 226.04 75.6C225.592 75.6 225.128 75.2 224.632 74.432C224.504 74.24 224.376 74.016 224.28 73.776C223.704 74.544 223.016 75.136 222.248 75.584L221.608 74.544H217.688V66.592H222.328V67.776H221.128V68.88H222.36V72.128H221.128V73.344H222.328V73.888C222.872 73.424 223.336 72.864 223.72 72.208C223.592 71.792 223.48 71.328 223.384 70.832C223.128 69.552 222.968 67.904 222.904 65.856H217V70.528C216.968 72.656 216.6 74.368 215.928 75.664L214.84 74.672C215.352 73.696 215.608 72.336 215.64 70.592H214.664C214.568 72.672 214.2 74.144 213.528 74.976L212.504 74.16C213.08 73.504 213.416 72.32 213.496 70.592H212.648V69.328H215.64V67.968H213.224V64.208H214.52V66.704H215.64V64.592H222.872V64.064H221.848V63.104H218.088V64.048H216.552V63.104H212.952V61.776ZM219.96 67.776H218.888V68.88H219.96V67.776ZM218.888 69.968V71.024H221.208V69.968H218.888ZM218.888 72.128V73.344H219.96V72.128H218.888Z" fill="#1F1F1F"/>
<path d="M390 89V90H0V89H390Z" fill="#F3F4F6"/>
<g clip-path="url(#clip1_4199_54780)">
<path d="M0 108C0 101.373 5.37258 96 12 96H378C384.627 96 390 101.373 390 108V844H0V108Z" fill="white"/>
<path d="M21.629 114.418H22.968V115.523H27.882V116.784H22.968V118.058H27.089V122.556H18.119V118.058H21.629V114.418ZM25.737 121.308V119.319H19.471V121.308H25.737ZM19.224 123.479C18.7387 124.614 18.197 125.572 17.599 126.352L16.481 125.533C17.105 124.805 17.6423 123.938 18.093 122.933L19.224 123.479ZM21.304 123.362C21.538 124.125 21.7677 125.017 21.993 126.04L20.628 126.365C20.4807 125.394 20.2813 124.48 20.03 123.622L21.304 123.362ZM23.995 123.18C24.359 124.038 24.684 124.983 24.97 126.014L23.618 126.339C23.384 125.23 23.085 124.263 22.721 123.44L23.995 123.18ZM26.582 122.868C27.388 123.934 28.012 124.857 28.454 125.637L27.31 126.417C26.8593 125.559 26.2483 124.61 25.477 123.57L26.582 122.868ZM31.47 116.238C31.3227 116.446 31.1407 116.65 30.924 116.849H32.575V116.238H31.47ZM30.833 116.849L30.157 116.017C30.625 115.636 30.9457 115.133 31.119 114.509L32.146 114.678L31.99 115.211H32.575V114.34H33.797V115.211H35.214V116.238H33.797V116.849H35.396V117.915H34.2V118.838C34.7027 118.665 35.0797 118.526 35.331 118.422L35.539 119.384C34.8023 119.705 34.031 119.978 33.225 120.203L32.757 119.215C32.9563 119.111 33.056 118.981 33.056 118.825V117.915H32.367C32.3063 118.574 32.1807 119.076 31.99 119.423C31.7213 119.882 31.2837 120.277 30.677 120.606L29.923 119.618C30.4083 119.393 30.755 119.133 30.963 118.838C31.1103 118.621 31.21 118.314 31.262 117.915H30.196V116.849H30.833ZM36.813 116.238C36.657 116.472 36.4923 116.676 36.319 116.849H38.061V116.238H36.813ZM36.15 116.849L35.526 116.069C35.9593 115.688 36.254 115.155 36.41 114.47L37.437 114.639L37.281 115.211H38.061V114.34H39.27V115.211H40.973V116.238H39.27V116.849H41.311V117.915H39.66V118.682C39.66 118.864 39.7163 118.955 39.829 118.955H40.154C40.258 118.955 40.3447 118.933 40.414 118.89C40.4833 118.855 40.5397 118.626 40.583 118.201L41.597 118.552C41.493 119.263 41.3717 119.674 41.233 119.787C41.0683 119.9 40.7823 119.965 40.375 119.982H39.465C39.1443 119.982 38.906 119.882 38.75 119.683C38.5853 119.484 38.503 119.241 38.503 118.955V117.915H37.996C37.9353 118.461 37.8183 118.877 37.645 119.163C37.3937 119.544 36.9647 119.887 36.358 120.19L35.617 119.241C36.085 119.059 36.4143 118.842 36.605 118.591C36.7177 118.435 36.8087 118.21 36.878 117.915H35.721V116.849H36.15ZM40.063 120.32V124.116H38.763V121.516H32.835V124.246H31.548V120.32H40.063ZM36.605 123.96C38.4857 124.333 40.1497 124.77 41.597 125.273L40.869 126.417C39.2483 125.802 37.6017 125.325 35.929 124.987L36.605 123.96ZM36.683 122.14C36.501 123.293 35.9463 124.22 35.019 124.922C34.1957 125.546 32.7483 126.04 30.677 126.404L30.131 125.13C31.899 124.887 33.1687 124.528 33.94 124.051C34.7113 123.566 35.188 122.885 35.37 122.01L36.683 122.14ZM47.525 114.808H54.675V116.082H51.75V120.593H55.078V121.88H51.75V126.365H50.424V121.88H47.148V120.593H50.424V116.082H47.525V114.808ZM54.441 116.836C54.1897 118.049 53.856 119.137 53.44 120.099L52.309 119.696C52.6643 118.89 52.9807 117.833 53.258 116.524L54.441 116.836ZM48.799 116.563C49.1457 117.542 49.4533 118.634 49.722 119.839L48.565 120.125C48.3397 119.059 48.032 118.002 47.642 116.953L48.799 116.563ZM44.834 114.405C45.64 115.029 46.342 115.662 46.94 116.303L46.004 117.252C45.5187 116.663 44.808 116.026 43.872 115.341L44.834 114.405ZM42.988 118.162H46.082V123.505C46.4113 123.202 46.758 122.868 47.122 122.504L47.499 123.934C46.6757 124.723 45.822 125.412 44.938 126.001L44.431 124.779C44.6563 124.58 44.769 124.346 44.769 124.077V119.462H42.988V118.162ZM64.737 114.301C65.4477 115.861 66.6913 117.226 68.468 118.396L67.714 119.54C66.1193 118.474 64.9277 117.152 64.139 115.575C63.203 117.317 62.033 118.669 60.629 119.631L59.875 118.474C61.4437 117.417 62.6613 116.026 63.528 114.301H64.737ZM63.177 126.131C62.1543 126.131 61.643 125.585 61.643 124.493V118.968H62.995V121.022C64.1563 120.589 65.2743 119.982 66.349 119.202L67.129 120.294C65.6643 121.204 64.2863 121.893 62.995 122.361V124.207C62.995 124.649 63.1943 124.87 63.593 124.87H65.79C66.0933 124.87 66.3187 124.775 66.466 124.584C66.6567 124.376 66.778 123.774 66.83 122.777L68.117 123.206C67.987 124.645 67.7573 125.49 67.428 125.741C67.116 126.001 66.6523 126.131 66.037 126.131H63.177ZM58.029 114.405C58.8437 115.029 59.5457 115.662 60.135 116.303L59.199 117.252C58.7137 116.663 58.003 116.026 57.067 115.341L58.029 114.405ZM56.261 118.162H59.29V123.583C59.784 123.141 60.187 122.768 60.499 122.465L60.85 123.817C59.966 124.64 59.0603 125.368 58.133 126.001L57.626 124.792C57.8513 124.593 57.964 124.354 57.964 124.077V119.462H56.261V118.162Z" fill="#191919" fill-opacity="0.5"/>
<rect x="67" y="107" width="15" height="15" rx="7.5" fill="#D7942B"/>
<path d="M74.4141 110.492C75.3601 110.492 76.0751 110.844 76.5591 111.548C77.0211 112.208 77.2521 113.154 77.2521 114.364C77.2521 115.618 76.9991 116.63 76.5151 117.422C75.9871 118.236 75.2831 118.654 74.4031 118.654C72.9401 118.654 72.1041 117.95 71.8951 116.553H72.7861C72.9511 117.444 73.4901 117.895 74.4141 117.895C75.0191 117.895 75.5031 117.587 75.8661 116.982C76.2071 116.399 76.3831 115.662 76.3831 114.782C76.3831 114.727 76.3721 114.628 76.3721 114.496H76.3281C76.1301 114.892 75.8441 115.211 75.4811 115.442C75.1291 115.662 74.7221 115.783 74.2601 115.783C73.5011 115.783 72.8961 115.53 72.4341 115.035C71.9831 114.562 71.7631 113.946 71.7631 113.187C71.7631 112.406 72.0051 111.768 72.5111 111.262C73.0061 110.745 73.6441 110.492 74.4141 110.492ZM74.4361 111.251C73.8971 111.251 73.4681 111.427 73.1381 111.79C72.8081 112.153 72.6541 112.615 72.6541 113.187C72.6541 113.737 72.8081 114.188 73.1381 114.518C73.4571 114.859 73.8861 115.035 74.4361 115.035C74.9421 115.035 75.3711 114.859 75.7231 114.507C76.0531 114.155 76.2291 113.704 76.2291 113.165C76.2291 112.615 76.0641 112.164 75.7451 111.812C75.4151 111.438 74.9751 111.251 74.4361 111.251Z" fill="white"/>
<path d="M110.576 126.313L110.264 124.987C110.793 125.048 111.235 125.078 111.59 125.078C111.841 125.078 111.967 124.939 111.967 124.662V121.906C110.485 122.001 109.163 122.075 108.002 122.127L107.625 120.944C108.067 120.901 108.457 120.818 108.795 120.697C109.714 120.298 110.71 119.709 111.785 118.929C111.031 118.99 109.961 119.059 108.574 119.137L108.301 117.954C108.63 117.911 108.934 117.828 109.211 117.707C109.662 117.49 110.225 117.005 110.901 116.251C109.549 116.286 108.5 116.303 107.755 116.303L107.365 115.133C111.057 115.133 114.216 114.89 116.842 114.405L117.505 115.536C116.11 115.822 114.467 116.03 112.578 116.16C111.945 116.905 111.287 117.521 110.602 118.006C111.217 117.971 112.08 117.911 113.189 117.824C113.674 117.425 114.225 116.944 114.84 116.381L116.088 116.992C114.069 118.725 112.318 120.021 110.836 120.879C112.63 120.758 114.116 120.623 115.295 120.476C115.113 120.233 114.831 119.869 114.45 119.384L115.451 118.76C116.543 120.034 117.371 121.139 117.934 122.075L116.855 122.816C116.682 122.513 116.417 122.092 116.062 121.555C115.369 121.633 114.459 121.715 113.332 121.802V125C113.332 125.875 112.907 126.313 112.058 126.313H110.576ZM115.074 122.348C116.374 123.301 117.449 124.229 118.298 125.13L117.336 126.092C116.582 125.199 115.529 124.242 114.177 123.219L115.074 122.348ZM110.732 123.284C109.848 124.35 108.765 125.269 107.482 126.04L106.637 124.935C107.868 124.233 108.916 123.401 109.783 122.439L110.732 123.284ZM123.966 124.389C122.744 125.004 121.401 125.49 119.936 125.845L119.767 124.493C121.353 124.146 122.753 123.683 123.966 123.102V124.389ZM122.926 114.769C122.337 116.251 121.726 117.482 121.093 118.461C121.483 118.418 121.873 118.366 122.263 118.305L122.952 116.953L124.161 117.421C123.147 119.328 122.302 120.745 121.626 121.672C122.371 121.473 123.151 121.191 123.966 120.827V122.075C122.553 122.664 121.21 123.059 119.936 123.258L119.572 122.01C119.823 121.906 120.027 121.776 120.183 121.62C120.547 121.23 121.015 120.541 121.587 119.553C121.206 119.605 120.616 119.692 119.819 119.813L119.481 118.565C119.698 118.47 119.893 118.296 120.066 118.045C120.664 116.901 121.184 115.64 121.626 114.262L122.926 114.769ZM124.044 119.033C124.148 118.998 124.235 118.964 124.304 118.929C124.677 118.634 125.153 117.941 125.734 116.849H123.797V115.562H126.917C126.752 115.12 126.592 114.752 126.436 114.457L127.814 114.223C127.961 114.578 128.117 115.025 128.282 115.562H131.103V116.849H127.151C126.7 117.698 126.284 118.383 125.903 118.903C126.83 118.816 127.805 118.691 128.828 118.526L128.126 117.551L129.166 116.901C130.015 118.002 130.665 118.964 131.116 119.787L130.063 120.528C129.872 120.181 129.703 119.891 129.556 119.657C127.892 119.9 126.15 120.09 124.33 120.229L124.044 119.033ZM126.579 120.567C126.501 122.248 126.297 123.462 125.968 124.207C125.587 125.039 124.958 125.75 124.083 126.339L123.212 125.247C123.931 124.779 124.443 124.233 124.746 123.609C125.032 122.994 125.201 121.98 125.253 120.567H126.579ZM129.27 126.118C128.299 126.118 127.814 125.693 127.814 124.844V120.411H129.101V124.571C129.101 124.77 129.17 124.887 129.309 124.922H129.998C130.215 124.896 130.336 124.718 130.362 124.389C130.397 123.921 130.414 123.444 130.414 122.959L131.571 123.375C131.571 124.597 131.476 125.36 131.285 125.663C131.112 125.914 130.704 126.066 130.063 126.118H129.27ZM139.54 114.366H140.918V117.811H143.778V124.701C143.778 125.732 143.284 126.248 142.296 126.248H140.801L140.437 124.935L141.841 124.974C142.24 124.974 142.439 124.783 142.439 124.402V123.557H138.058V126.274H136.693V117.811H139.54V114.366ZM138.058 121.347V122.413H142.439V121.347H138.058ZM142.439 120.203V119.124H138.058V120.203H142.439ZM137.447 114.847C137.924 115.48 138.374 116.177 138.799 116.94L137.616 117.538C137.183 116.732 136.728 116.026 136.251 115.419L137.447 114.847ZM144.116 115.25C143.769 116.047 143.336 116.801 142.816 117.512L141.672 116.914C142.218 116.16 142.651 115.423 142.972 114.704L144.116 115.25ZM136.004 121.516C135.354 123.258 134.669 124.827 133.95 126.222L132.702 125.663C133.517 124.146 134.219 122.608 134.808 121.048L136.004 121.516ZM133.898 114.431C134.825 115.098 135.588 115.74 136.186 116.355L135.211 117.33C134.691 116.741 133.928 116.086 132.923 115.367L133.898 114.431ZM133.534 117.473C134.366 118.114 135.085 118.764 135.692 119.423L134.717 120.385C134.188 119.761 133.469 119.102 132.559 118.409L133.534 117.473ZM147.353 115.172H150.226C150.382 114.86 150.499 114.535 150.577 114.197L152.007 114.392C151.929 114.661 151.825 114.921 151.695 115.172H155.751V121.815H147.353V115.172ZM154.438 120.671V119.917H148.666V120.671H154.438ZM148.666 118.851H154.438V118.123H148.666V118.851ZM148.666 117.057H154.438V116.329H148.666V117.057ZM147.912 122.79C147.609 124.003 147.193 125.052 146.664 125.936L145.52 125.195C146.057 124.354 146.43 123.466 146.638 122.53L147.912 122.79ZM149.901 126.157C148.991 126.157 148.536 125.724 148.536 124.857V122.517H149.914V124.558C149.914 124.827 150.04 124.961 150.291 124.961H152.943C153.142 124.961 153.298 124.892 153.411 124.753C153.532 124.614 153.615 124.177 153.658 123.44L154.958 123.869C154.845 124.987 154.65 125.65 154.373 125.858C154.104 126.057 153.714 126.157 153.203 126.157H149.901ZM151.656 121.984C152.306 122.686 152.778 123.249 153.073 123.674L152.046 124.376C151.699 123.839 151.236 123.249 150.655 122.608L151.656 121.984ZM155.79 122.244C156.509 123.215 157.09 124.099 157.532 124.896L156.44 125.65C156.033 124.844 155.461 123.93 154.724 122.907L155.79 122.244Z" fill="#1F1F1F"/>
<rect x="156" y="107" width="15" height="15" rx="7.5" fill="#D7942B"/>
<path d="M163.579 110.492C164.327 110.492 164.943 110.679 165.405 111.064C165.856 111.449 166.087 111.966 166.087 112.626C166.087 113.506 165.658 114.1 164.8 114.386C165.262 114.529 165.614 114.749 165.856 115.057C166.12 115.365 166.252 115.75 166.252 116.212C166.252 116.927 165.999 117.51 165.504 117.961C164.998 118.423 164.338 118.654 163.524 118.654C162.776 118.654 162.171 118.456 161.698 118.082C161.137 117.62 160.829 116.949 160.763 116.069H161.676C161.698 116.685 161.907 117.158 162.292 117.477C162.622 117.741 163.029 117.884 163.524 117.884C164.085 117.884 164.536 117.719 164.877 117.4C165.185 117.092 165.35 116.707 165.35 116.245C165.35 115.772 165.196 115.409 164.888 115.145C164.58 114.881 164.162 114.76 163.612 114.76H162.974V114.056H163.579C164.107 114.056 164.503 113.935 164.778 113.704C165.053 113.462 165.196 113.121 165.196 112.681C165.196 112.241 165.053 111.9 164.789 111.658C164.503 111.394 164.096 111.273 163.59 111.273C163.062 111.273 162.655 111.405 162.358 111.691C162.05 111.977 161.874 112.384 161.819 112.912H160.928C160.994 112.153 161.28 111.559 161.764 111.13C162.226 110.701 162.831 110.492 163.579 110.492Z" fill="white"/>
<rect x="106" y="138" width="54" height="3" fill="#E59E2E"/>
<path d="M329.17 126.726L328.884 125.933C329.066 125.855 329.17 125.751 329.17 125.621V118.497H330.08V125.595C330.73 125.413 331.38 125.192 332.03 124.945V117.444H332.953V129.222H332.03V125.855C331.12 126.18 330.158 126.466 329.17 126.726ZM335.605 120.278C335.449 120.694 335.293 121.084 335.124 121.448C335.592 122.722 336.19 123.892 336.944 124.958C337.724 123.632 338.14 122.072 338.218 120.278H335.605ZM334.578 122.462C334.331 122.852 334.071 123.203 333.798 123.528L333.213 122.813C334.279 121.461 335.007 119.628 335.384 117.34L336.32 117.496C336.19 118.159 336.047 118.783 335.891 119.355H340.233V120.278H339.115C339.024 122.41 338.504 124.243 337.542 125.751C338.4 126.817 339.388 127.766 340.532 128.598L339.895 129.352C338.764 128.507 337.789 127.571 336.97 126.557C336.112 127.636 335.007 128.533 333.655 129.261L333.122 128.416C334.487 127.74 335.579 126.869 336.385 125.803C335.657 124.763 335.046 123.658 334.578 122.462ZM353.22 124.399C353.142 125.452 352.986 126.141 352.778 126.453C352.583 126.765 352.18 126.934 351.569 126.934H349.255C348.514 126.934 348.15 126.557 348.15 125.816V121.591H351.686V119.082H347.929V118.211H352.596V122.488H349.086V125.478C349.086 125.829 349.268 126.011 349.632 126.024H351.4C351.764 126.024 352.011 125.881 352.128 125.608C352.219 125.361 352.284 124.854 352.336 124.1L353.22 124.399ZM342.573 123.567L343.418 123.671C343.392 124.412 343.327 125.114 343.223 125.79C343.613 126.518 344.055 127.064 344.575 127.428V122.735H341.91V121.877H344.289V119.966H342.144V119.108H344.289V117.353H345.225V119.108H347.305V119.966H345.225V121.877H347.474V122.735H345.472V124.568H347.318V125.426H345.472V127.87C346.278 128.091 347.877 128.208 350.256 128.208C351.699 128.208 352.778 128.182 353.48 128.143L353.324 129.053H350.464C347.422 129.053 345.511 128.871 344.757 128.52C344.094 128.208 343.509 127.649 343.015 126.869C342.807 127.74 342.547 128.546 342.209 129.3L341.494 128.663C342.144 127.155 342.508 125.452 342.573 123.567Z" fill="#1F1F1F"/>
<path d="M360 125.5L366 119.5L372 125.5" stroke="#1F1F1F" stroke-width="1.5" stroke-linecap="round" stroke-linejoin="round"/>
<path d="M390 141V142H0V141H390Z" fill="#EEEEEE"/>
<path d="M28.502 172.632L29.146 173.808C27.942 174.228 26.612 174.48 25.156 174.578V176.846H29.482V178.12H28.138V185.456H26.836V178.12H25.156V179.534C25.086 181.998 24.54 183.958 23.518 185.428L22.58 184.42C23.378 183.244 23.812 181.62 23.868 179.534V173.486C25.59 173.458 27.13 173.164 28.502 172.632ZM16.812 173.626H19.304C19.136 173.262 18.94 172.912 18.73 172.59L20.102 172.366C20.27 172.744 20.452 173.164 20.62 173.626H23.21V174.858H16.812V173.626ZM16.672 176.804H18.156C17.974 176.314 17.764 175.852 17.526 175.432L18.688 174.998C18.912 175.502 19.136 176.104 19.332 176.804H20.662C20.886 176.216 21.082 175.614 21.25 174.984L22.44 175.404C22.272 175.922 22.076 176.384 21.866 176.804H23.294V178.022H20.704V179.282H23.056V180.486H20.704V184.238C20.704 185.078 20.242 185.498 19.318 185.498H18.59L18.296 184.266C18.506 184.322 18.702 184.35 18.884 184.35C19.22 184.35 19.388 184.21 19.388 183.93V180.486H16.896V179.282H19.388V178.022H16.672V176.804ZM17.736 181.102L18.94 181.354C18.604 182.768 18.142 184 17.526 185.05L16.434 184.35C17.05 183.342 17.484 182.25 17.736 181.102ZM22.118 181.004C22.482 181.9 22.776 182.712 22.986 183.44L21.866 183.86C21.642 182.992 21.362 182.138 21.026 181.298L22.118 181.004ZM33.892 172.674H35.194V176.272H35.866V177.574H32.716V178.106C32.716 178.498 32.702 178.876 32.688 179.24H35.376V185.386H34.074V180.514H32.618C32.45 182.558 32.072 184.126 31.512 185.218L30.504 184.35C31.092 183.034 31.4 180.962 31.414 178.106V172.954H32.716V176.272H33.892V172.674ZM37.784 177.756V178.932C37.728 181.62 37.252 183.776 36.356 185.372L35.446 184.406C36.146 183.09 36.51 181.256 36.566 178.932V173.5C38.792 173.458 40.78 173.164 42.544 172.604L43.188 173.794C41.564 174.27 39.772 174.55 37.784 174.634V176.496H42.894V177.63C42.586 179.478 42.026 181.06 41.186 182.348C41.83 183.188 42.6 183.846 43.51 184.308L42.852 185.47C41.858 184.966 41.032 184.28 40.36 183.44C39.632 184.252 38.764 184.938 37.756 185.484L37.126 184.308C38.106 183.762 38.918 183.09 39.59 182.306C38.876 181.06 38.386 179.548 38.106 177.756H37.784ZM39.296 177.756C39.548 179.044 39.912 180.178 40.416 181.13C40.99 180.136 41.396 179.016 41.62 177.756H39.296ZM44.966 174.984H50.328V172.562H51.672V174.984H57.02V176.258H52.722C53.646 178.358 55.242 180.248 57.51 181.9L56.6 183.048C54.262 181.032 52.624 178.764 51.686 176.258H51.672V181.41H54.556V182.684H51.672V185.442H50.328V182.684H47.556V181.41H50.328V176.258H50.314C49.306 179.086 47.598 181.41 45.218 183.23L44.448 181.984C46.66 180.5 48.27 178.582 49.278 176.258H44.966V174.984ZM58.07 176.762H59.68L61.5 182.152L63.32 176.762H64.93L62.242 184H60.758L58.07 176.762ZM66.904 181.998C67.184 181.998 67.436 182.096 67.646 182.292C67.842 182.488 67.954 182.74 67.954 183.048C67.954 183.328 67.842 183.58 67.646 183.79C67.436 183.972 67.184 184.07 66.904 184.07C66.596 184.07 66.358 183.972 66.176 183.79C65.966 183.58 65.868 183.328 65.868 183.048C65.868 182.74 65.966 182.488 66.176 182.292C66.358 182.096 66.596 181.998 66.904 181.998ZM73.1685 173.808C74.1205 173.808 74.9185 174.074 75.5345 174.634C76.1365 175.194 76.4445 175.908 76.4445 176.79C76.4445 177.658 76.1085 178.442 75.4645 179.156C75.0725 179.562 74.3865 180.094 73.3925 180.766C72.3145 181.48 71.6705 182.11 71.4605 182.656H76.4585V184H69.5705C69.5705 183.006 69.8925 182.138 70.5645 181.382C70.9285 180.948 71.6845 180.346 72.8185 179.562C73.4905 179.086 73.9665 178.708 74.2465 178.414C74.6945 177.91 74.9325 177.364 74.9325 176.776C74.9325 176.216 74.7785 175.796 74.4705 175.516C74.1625 175.236 73.7005 175.096 73.1125 175.096C72.4825 175.096 72.0065 175.306 71.6845 175.74C71.3485 176.16 71.1805 176.762 71.1525 177.574H69.6265C69.6405 176.454 69.9625 175.558 70.5925 174.886C71.2365 174.158 72.1045 173.808 73.1685 173.808ZM89.025 179.058H80.345V182.908C80.345 183.44 80.611 183.706 81.143 183.706H88.129C88.381 183.706 88.619 183.622 88.815 183.454C89.039 183.244 89.179 182.404 89.263 180.934L90.565 181.354C90.397 183.118 90.159 184.168 89.865 184.49C89.529 184.798 89.081 184.966 88.507 184.994H80.779C79.589 184.994 79.001 184.378 79.001 183.146V175.866H80.345V177.784H87.667V174.452H78.427V173.178H89.025V179.058ZM99.833 181.004H97.229V179.716H103.795V181.004H101.177V183.678H104.439V184.98H96.599V183.678H99.833V181.004ZM100.995 177.112C99.987 177.952 98.741 178.652 97.257 179.226L96.417 178.134C98.923 177.224 100.673 175.95 101.653 174.312H97.089V173.038H103.249V174.088C102.913 174.872 102.451 175.6 101.863 176.258C102.955 176.944 103.879 177.63 104.663 178.316L103.683 179.296C103.025 178.596 102.129 177.868 100.995 177.112ZM96.515 182.138V183.37C95.171 184.07 93.673 184.63 91.993 185.05L91.811 183.762C93.603 183.356 95.171 182.81 96.515 182.138ZM94.093 172.45L95.367 172.954C94.695 174.634 94.023 176.006 93.351 177.042C93.869 176.986 94.387 176.916 94.905 176.846C95.157 176.37 95.409 175.866 95.675 175.348L96.893 175.796C95.731 177.966 94.751 179.548 93.939 180.556C94.793 180.36 95.661 180.08 96.543 179.744V180.948C95.059 181.494 93.659 181.858 92.315 182.054L91.965 180.85C92.203 180.752 92.399 180.626 92.567 180.472C93.015 180.01 93.561 179.198 94.233 178.05L92.119 178.344L91.797 177.126C91.993 177.042 92.175 176.874 92.343 176.636C93.015 175.376 93.589 173.99 94.093 172.45ZM106.147 172.996H118.285V174.242H112.867V175.208H117.151V180.962H112.671C112.517 181.774 112.279 182.432 111.957 182.95C113.889 183.706 116.143 184.112 118.747 184.196L118.411 185.484C115.611 185.358 113.175 184.84 111.103 183.916C110.095 184.7 108.513 185.218 106.343 185.47L105.769 184.252C107.561 184.14 108.905 183.818 109.801 183.272C109.045 182.852 108.359 182.376 107.743 181.858L108.765 181.158C109.367 181.634 110.025 182.04 110.725 182.404C110.977 182.012 111.187 181.522 111.327 180.962H107.309V175.208H111.551V174.242H106.147V172.996ZM115.835 179.8V178.61H112.867V178.946C112.867 179.254 112.853 179.534 112.825 179.8H115.835ZM111.509 179.8C111.537 179.52 111.551 179.226 111.551 178.946V178.61H108.625V179.8H111.509ZM108.625 177.518H111.551V176.342H108.625V177.518ZM112.867 176.342V177.518H115.835V176.342H112.867ZM131.711 172.632L132.355 173.808C131.151 174.228 129.821 174.48 128.365 174.578V176.846H132.691V178.12H131.347V185.456H130.045V178.12H128.365V179.534C128.295 181.998 127.749 183.958 126.727 185.428L125.789 184.42C126.587 183.244 127.021 181.62 127.077 179.534V173.486C128.799 173.458 130.339 173.164 131.711 172.632ZM120.021 173.626H122.513C122.345 173.262 122.149 172.912 121.939 172.59L123.311 172.366C123.479 172.744 123.661 173.164 123.829 173.626H126.419V174.858H120.021V173.626ZM119.881 176.804H121.365C121.183 176.314 120.973 175.852 120.735 175.432L121.897 174.998C122.121 175.502 122.345 176.104 122.541 176.804H123.871C124.095 176.216 124.291 175.614 124.459 174.984L125.649 175.404C125.481 175.922 125.285 176.384 125.075 176.804H126.503V178.022H123.913V179.282H126.265V180.486H123.913V184.238C123.913 185.078 123.451 185.498 122.527 185.498H121.799L121.505 184.266C121.715 184.322 121.911 184.35 122.093 184.35C122.429 184.35 122.597 184.21 122.597 183.93V180.486H120.105V179.282H122.597V178.022H119.881V176.804ZM120.945 181.102L122.149 181.354C121.813 182.768 121.351 184 120.735 185.05L119.643 184.35C120.259 183.342 120.693 182.25 120.945 181.102ZM125.327 181.004C125.691 181.9 125.985 182.712 126.195 183.44L125.075 183.86C124.851 182.992 124.571 182.138 124.235 181.298L125.327 181.004Z" fill="#1F1F1F"/>
<path d="M332.784 173.932H333.768V182.5H332.46V175.504C331.944 175.996 331.284 176.356 330.492 176.584V175.288C330.876 175.192 331.272 175.024 331.704 174.784C332.136 174.52 332.496 174.244 332.784 173.932ZM338.786 177.04V178.924H343.646V177.04H338.786ZM343.646 175.972V174.172H338.786V175.972H343.646ZM338.726 179.98C338.57 181.516 338.114 182.788 337.358 183.808L336.482 183.004C337.238 181.948 337.622 180.604 337.646 178.972V173.08H344.798V182.476C344.798 183.244 344.402 183.628 343.634 183.628H342.098L341.786 182.512C342.314 182.536 342.806 182.56 343.262 182.56C343.514 182.56 343.646 182.392 343.646 182.08V179.98H338.726ZM350.63 173.764C351.446 173.764 352.13 173.992 352.658 174.472C353.174 174.952 353.438 175.564 353.438 176.32C353.438 177.064 353.15 177.736 352.598 178.348C352.262 178.696 351.674 179.152 350.822 179.728C349.898 180.34 349.346 180.88 349.166 181.348H353.45V182.5H347.546C347.546 181.648 347.822 180.904 348.398 180.256C348.71 179.884 349.358 179.368 350.33 178.696C350.906 178.288 351.314 177.964 351.554 177.712C351.938 177.28 352.142 176.812 352.142 176.308C352.142 175.828 352.01 175.468 351.746 175.228C351.482 174.988 351.086 174.868 350.582 174.868C350.042 174.868 349.634 175.048 349.358 175.42C349.07 175.78 348.926 176.296 348.902 176.992H347.594C347.606 176.032 347.882 175.264 348.422 174.688C348.974 174.064 349.718 173.764 350.63 173.764ZM357.694 173.764C358.702 173.764 359.482 174.184 360.034 175.036C360.538 175.828 360.79 176.884 360.79 178.216C360.79 179.536 360.538 180.604 360.034 181.396C359.482 182.236 358.702 182.668 357.694 182.668C356.686 182.668 355.906 182.236 355.354 181.396C354.85 180.604 354.598 179.548 354.598 178.216C354.598 176.872 354.85 175.816 355.354 175.036C355.906 174.184 356.686 173.764 357.694 173.764ZM357.694 174.868C356.986 174.868 356.494 175.252 356.206 176.032C355.99 176.56 355.894 177.292 355.894 178.216C355.894 179.128 355.99 179.86 356.206 180.4C356.494 181.168 356.986 181.564 357.694 181.564C358.39 181.564 358.894 181.168 359.182 180.4C359.386 179.86 359.494 179.128 359.494 178.216C359.494 177.292 359.386 176.56 359.182 176.032C358.894 175.252 358.39 174.868 357.694 174.868ZM371.249 173.068V183.676H370.109V182.836H364.697V183.688H363.557V173.068H371.249ZM364.697 181.72H370.109V178.384H364.697V181.72ZM364.697 177.268H370.109V174.172H364.697V177.268Z" fill="#AAAFBA"/>
<path d="M16 203H374" stroke="#F6F6F6"/>
<path d="M28.502 221.632L29.146 222.808C27.942 223.228 26.612 223.48 25.156 223.578V225.846H29.482V227.12H28.138V234.456H26.836V227.12H25.156V228.534C25.086 230.998 24.54 232.958 23.518 234.428L22.58 233.42C23.378 232.244 23.812 230.62 23.868 228.534V222.486C25.59 222.458 27.13 222.164 28.502 221.632ZM16.812 222.626H19.304C19.136 222.262 18.94 221.912 18.73 221.59L20.102 221.366C20.27 221.744 20.452 222.164 20.62 222.626H23.21V223.858H16.812V222.626ZM16.672 225.804H18.156C17.974 225.314 17.764 224.852 17.526 224.432L18.688 223.998C18.912 224.502 19.136 225.104 19.332 225.804H20.662C20.886 225.216 21.082 224.614 21.25 223.984L22.44 224.404C22.272 224.922 22.076 225.384 21.866 225.804H23.294V227.022H20.704V228.282H23.056V229.486H20.704V233.238C20.704 234.078 20.242 234.498 19.318 234.498H18.59L18.296 233.266C18.506 233.322 18.702 233.35 18.884 233.35C19.22 233.35 19.388 233.21 19.388 232.93V229.486H16.896V228.282H19.388V227.022H16.672V225.804ZM17.736 230.102L18.94 230.354C18.604 231.768 18.142 233 17.526 234.05L16.434 233.35C17.05 232.342 17.484 231.25 17.736 230.102ZM22.118 230.004C22.482 230.9 22.776 231.712 22.986 232.44L21.866 232.86C21.642 231.992 21.362 231.138 21.026 230.298L22.118 230.004ZM33.892 221.674H35.194V225.272H35.866V226.574H32.716V227.106C32.716 227.498 32.702 227.876 32.688 228.24H35.376V234.386H34.074V229.514H32.618C32.45 231.558 32.072 233.126 31.512 234.218L30.504 233.35C31.092 232.034 31.4 229.962 31.414 227.106V221.954H32.716V225.272H33.892V221.674ZM37.784 226.756V227.932C37.728 230.62 37.252 232.776 36.356 234.372L35.446 233.406C36.146 232.09 36.51 230.256 36.566 227.932V222.5C38.792 222.458 40.78 222.164 42.544 221.604L43.188 222.794C41.564 223.27 39.772 223.55 37.784 223.634V225.496H42.894V226.63C42.586 228.478 42.026 230.06 41.186 231.348C41.83 232.188 42.6 232.846 43.51 233.308L42.852 234.47C41.858 233.966 41.032 233.28 40.36 232.44C39.632 233.252 38.764 233.938 37.756 234.484L37.126 233.308C38.106 232.762 38.918 232.09 39.59 231.306C38.876 230.06 38.386 228.548 38.106 226.756H37.784ZM39.296 226.756C39.548 228.044 39.912 229.178 40.416 230.13C40.99 229.136 41.396 228.016 41.62 226.756H39.296ZM44.966 223.984H50.328V221.562H51.672V223.984H57.02V225.258H52.722C53.646 227.358 55.242 229.248 57.51 230.9L56.6 232.048C54.262 230.032 52.624 227.764 51.686 225.258H51.672V230.41H54.556V231.684H51.672V234.442H50.328V231.684H47.556V230.41H50.328V225.258H50.314C49.306 228.086 47.598 230.41 45.218 232.23L44.448 230.984C46.66 229.5 48.27 227.582 49.278 225.258H44.966V223.984ZM58.07 225.762H59.68L61.5 231.152L63.32 225.762H64.93L62.242 233H60.758L58.07 225.762ZM66.904 230.998C67.184 230.998 67.436 231.096 67.646 231.292C67.842 231.488 67.954 231.74 67.954 232.048C67.954 232.328 67.842 232.58 67.646 232.79C67.436 232.972 67.184 233.07 66.904 233.07C66.596 233.07 66.358 232.972 66.176 232.79C65.966 232.58 65.868 232.328 65.868 232.048C65.868 231.74 65.966 231.488 66.176 231.292C66.358 231.096 66.596 230.998 66.904 230.998ZM73.1685 222.808C74.1205 222.808 74.9185 223.074 75.5345 223.634C76.1365 224.194 76.4445 224.908 76.4445 225.79C76.4445 226.658 76.1085 227.442 75.4645 228.156C75.0725 228.562 74.3865 229.094 73.3925 229.766C72.3145 230.48 71.6705 231.11 71.4605 231.656H76.4585V233H69.5705C69.5705 232.006 69.8925 231.138 70.5645 230.382C70.9285 229.948 71.6845 229.346 72.8185 228.562C73.4905 228.086 73.9665 227.708 74.2465 227.414C74.6945 226.91 74.9325 226.364 74.9325 225.776C74.9325 225.216 74.7785 224.796 74.4705 224.516C74.1625 224.236 73.7005 224.096 73.1125 224.096C72.4825 224.096 72.0065 224.306 71.6845 224.74C71.3485 225.16 71.1805 225.762 71.1525 226.574H69.6265C69.6405 225.454 69.9625 224.558 70.5925 223.886C71.2365 223.158 72.1045 222.808 73.1685 222.808ZM89.025 228.058H80.345V231.908C80.345 232.44 80.611 232.706 81.143 232.706H88.129C88.381 232.706 88.619 232.622 88.815 232.454C89.039 232.244 89.179 231.404 89.263 229.934L90.565 230.354C90.397 232.118 90.159 233.168 89.865 233.49C89.529 233.798 89.081 233.966 88.507 233.994H80.779C79.589 233.994 79.001 233.378 79.001 232.146V224.866H80.345V226.784H87.667V223.452H78.427V222.178H89.025V228.058ZM99.833 230.004H97.229V228.716H103.795V230.004H101.177V232.678H104.439V233.98H96.599V232.678H99.833V230.004ZM100.995 226.112C99.987 226.952 98.741 227.652 97.257 228.226L96.417 227.134C98.923 226.224 100.673 224.95 101.653 223.312H97.089V222.038H103.249V223.088C102.913 223.872 102.451 224.6 101.863 225.258C102.955 225.944 103.879 226.63 104.663 227.316L103.683 228.296C103.025 227.596 102.129 226.868 100.995 226.112ZM96.515 231.138V232.37C95.171 233.07 93.673 233.63 91.993 234.05L91.811 232.762C93.603 232.356 95.171 231.81 96.515 231.138ZM94.093 221.45L95.367 221.954C94.695 223.634 94.023 225.006 93.351 226.042C93.869 225.986 94.387 225.916 94.905 225.846C95.157 225.37 95.409 224.866 95.675 224.348L96.893 224.796C95.731 226.966 94.751 228.548 93.939 229.556C94.793 229.36 95.661 229.08 96.543 228.744V229.948C95.059 230.494 93.659 230.858 92.315 231.054L91.965 229.85C92.203 229.752 92.399 229.626 92.567 229.472C93.015 229.01 93.561 228.198 94.233 227.05L92.119 227.344L91.797 226.126C91.993 226.042 92.175 225.874 92.343 225.636C93.015 224.376 93.589 222.99 94.093 221.45ZM106.147 221.996H118.285V223.242H112.867V224.208H117.151V229.962H112.671C112.517 230.774 112.279 231.432 111.957 231.95C113.889 232.706 116.143 233.112 118.747 233.196L118.411 234.484C115.611 234.358 113.175 233.84 111.103 232.916C110.095 233.7 108.513 234.218 106.343 234.47L105.769 233.252C107.561 233.14 108.905 232.818 109.801 232.272C109.045 231.852 108.359 231.376 107.743 230.858L108.765 230.158C109.367 230.634 110.025 231.04 110.725 231.404C110.977 231.012 111.187 230.522 111.327 229.962H107.309V224.208H111.551V223.242H106.147V221.996ZM115.835 228.8V227.61H112.867V227.946C112.867 228.254 112.853 228.534 112.825 228.8H115.835ZM111.509 228.8C111.537 228.52 111.551 228.226 111.551 227.946V227.61H108.625V228.8H111.509ZM108.625 226.518H111.551V225.342H108.625V226.518ZM112.867 225.342V226.518H115.835V225.342H112.867ZM131.711 221.632L132.355 222.808C131.151 223.228 129.821 223.48 128.365 223.578V225.846H132.691V227.12H131.347V234.456H130.045V227.12H128.365V228.534C128.295 230.998 127.749 232.958 126.727 234.428L125.789 233.42C126.587 232.244 127.021 230.62 127.077 228.534V222.486C128.799 222.458 130.339 222.164 131.711 221.632ZM120.021 222.626H122.513C122.345 222.262 122.149 221.912 121.939 221.59L123.311 221.366C123.479 221.744 123.661 222.164 123.829 222.626H126.419V223.858H120.021V222.626ZM119.881 225.804H121.365C121.183 225.314 120.973 224.852 120.735 224.432L121.897 223.998C122.121 224.502 122.345 225.104 122.541 225.804H123.871C124.095 225.216 124.291 224.614 124.459 223.984L125.649 224.404C125.481 224.922 125.285 225.384 125.075 225.804H126.503V227.022H123.913V228.282H126.265V229.486H123.913V233.238C123.913 234.078 123.451 234.498 122.527 234.498H121.799L121.505 233.266C121.715 233.322 121.911 233.35 122.093 233.35C122.429 233.35 122.597 233.21 122.597 232.93V229.486H120.105V228.282H122.597V227.022H119.881V225.804ZM120.945 230.102L122.149 230.354C121.813 231.768 121.351 233 120.735 234.05L119.643 233.35C120.259 232.342 120.693 231.25 120.945 230.102ZM125.327 230.004C125.691 230.9 125.985 231.712 126.195 232.44L125.075 232.86C124.851 231.992 124.571 231.138 124.235 230.298L125.327 230.004Z" fill="#1F1F1F"/>
<path d="M332.784 222.932H333.768V231.5H332.46V224.504C331.944 224.996 331.284 225.356 330.492 225.584V224.288C330.876 224.192 331.272 224.024 331.704 223.784C332.136 223.52 332.496 223.244 332.784 222.932ZM338.786 226.04V227.924H343.646V226.04H338.786ZM343.646 224.972V223.172H338.786V224.972H343.646ZM338.726 228.98C338.57 230.516 338.114 231.788 337.358 232.808L336.482 232.004C337.238 230.948 337.622 229.604 337.646 227.972V222.08H344.798V231.476C344.798 232.244 344.402 232.628 343.634 232.628H342.098L341.786 231.512C342.314 231.536 342.806 231.56 343.262 231.56C343.514 231.56 343.646 231.392 343.646 231.08V228.98H338.726ZM350.63 222.764C351.446 222.764 352.13 222.992 352.658 223.472C353.174 223.952 353.438 224.564 353.438 225.32C353.438 226.064 353.15 226.736 352.598 227.348C352.262 227.696 351.674 228.152 350.822 228.728C349.898 229.34 349.346 229.88 349.166 230.348H353.45V231.5H347.546C347.546 230.648 347.822 229.904 348.398 229.256C348.71 228.884 349.358 228.368 350.33 227.696C350.906 227.288 351.314 226.964 351.554 226.712C351.938 226.28 352.142 225.812 352.142 225.308C352.142 224.828 352.01 224.468 351.746 224.228C351.482 223.988 351.086 223.868 350.582 223.868C350.042 223.868 349.634 224.048 349.358 224.42C349.07 224.78 348.926 225.296 348.902 225.992H347.594C347.606 225.032 347.882 224.264 348.422 223.688C348.974 223.064 349.718 222.764 350.63 222.764ZM357.694 222.764C358.702 222.764 359.482 223.184 360.034 224.036C360.538 224.828 360.79 225.884 360.79 227.216C360.79 228.536 360.538 229.604 360.034 230.396C359.482 231.236 358.702 231.668 357.694 231.668C356.686 231.668 355.906 231.236 355.354 230.396C354.85 229.604 354.598 228.548 354.598 227.216C354.598 225.872 354.85 224.816 355.354 224.036C355.906 223.184 356.686 222.764 357.694 222.764ZM357.694 223.868C356.986 223.868 356.494 224.252 356.206 225.032C355.99 225.56 355.894 226.292 355.894 227.216C355.894 228.128 355.99 228.86 356.206 229.4C356.494 230.168 356.986 230.564 357.694 230.564C358.39 230.564 358.894 230.168 359.182 229.4C359.386 228.86 359.494 228.128 359.494 227.216C359.494 226.292 359.386 225.56 359.182 225.032C358.894 224.252 358.39 223.868 357.694 223.868ZM371.249 222.068V232.676H370.109V231.836H364.697V232.688H363.557V222.068H371.249ZM364.697 230.72H370.109V227.384H364.697V230.72ZM364.697 226.268H370.109V223.172H364.697V226.268Z" fill="#AAAFBA"/>
<path d="M16 252H374" stroke="#F6F6F6"/>
<path d="M28.502 270.632L29.146 271.808C27.942 272.228 26.612 272.48 25.156 272.578V274.846H29.482V276.12H28.138V283.456H26.836V276.12H25.156V277.534C25.086 279.998 24.54 281.958 23.518 283.428L22.58 282.42C23.378 281.244 23.812 279.62 23.868 277.534V271.486C25.59 271.458 27.13 271.164 28.502 270.632ZM16.812 271.626H19.304C19.136 271.262 18.94 270.912 18.73 270.59L20.102 270.366C20.27 270.744 20.452 271.164 20.62 271.626H23.21V272.858H16.812V271.626ZM16.672 274.804H18.156C17.974 274.314 17.764 273.852 17.526 273.432L18.688 272.998C18.912 273.502 19.136 274.104 19.332 274.804H20.662C20.886 274.216 21.082 273.614 21.25 272.984L22.44 273.404C22.272 273.922 22.076 274.384 21.866 274.804H23.294V276.022H20.704V277.282H23.056V278.486H20.704V282.238C20.704 283.078 20.242 283.498 19.318 283.498H18.59L18.296 282.266C18.506 282.322 18.702 282.35 18.884 282.35C19.22 282.35 19.388 282.21 19.388 281.93V278.486H16.896V277.282H19.388V276.022H16.672V274.804ZM17.736 279.102L18.94 279.354C18.604 280.768 18.142 282 17.526 283.05L16.434 282.35C17.05 281.342 17.484 280.25 17.736 279.102ZM22.118 279.004C22.482 279.9 22.776 280.712 22.986 281.44L21.866 281.86C21.642 280.992 21.362 280.138 21.026 279.298L22.118 279.004ZM33.892 270.674H35.194V274.272H35.866V275.574H32.716V276.106C32.716 276.498 32.702 276.876 32.688 277.24H35.376V283.386H34.074V278.514H32.618C32.45 280.558 32.072 282.126 31.512 283.218L30.504 282.35C31.092 281.034 31.4 278.962 31.414 276.106V270.954H32.716V274.272H33.892V270.674ZM37.784 275.756V276.932C37.728 279.62 37.252 281.776 36.356 283.372L35.446 282.406C36.146 281.09 36.51 279.256 36.566 276.932V271.5C38.792 271.458 40.78 271.164 42.544 270.604L43.188 271.794C41.564 272.27 39.772 272.55 37.784 272.634V274.496H42.894V275.63C42.586 277.478 42.026 279.06 41.186 280.348C41.83 281.188 42.6 281.846 43.51 282.308L42.852 283.47C41.858 282.966 41.032 282.28 40.36 281.44C39.632 282.252 38.764 282.938 37.756 283.484L37.126 282.308C38.106 281.762 38.918 281.09 39.59 280.306C38.876 279.06 38.386 277.548 38.106 275.756H37.784ZM39.296 275.756C39.548 277.044 39.912 278.178 40.416 279.13C40.99 278.136 41.396 277.016 41.62 275.756H39.296ZM44.966 272.984H50.328V270.562H51.672V272.984H57.02V274.258H52.722C53.646 276.358 55.242 278.248 57.51 279.9L56.6 281.048C54.262 279.032 52.624 276.764 51.686 274.258H51.672V279.41H54.556V280.684H51.672V283.442H50.328V280.684H47.556V279.41H50.328V274.258H50.314C49.306 277.086 47.598 279.41 45.218 281.23L44.448 279.984C46.66 278.5 48.27 276.582 49.278 274.258H44.966V272.984ZM58.07 274.762H59.68L61.5 280.152L63.32 274.762H64.93L62.242 282H60.758L58.07 274.762ZM66.904 279.998C67.184 279.998 67.436 280.096 67.646 280.292C67.842 280.488 67.954 280.74 67.954 281.048C67.954 281.328 67.842 281.58 67.646 281.79C67.436 281.972 67.184 282.07 66.904 282.07C66.596 282.07 66.358 281.972 66.176 281.79C65.966 281.58 65.868 281.328 65.868 281.048C65.868 280.74 65.966 280.488 66.176 280.292C66.358 280.096 66.596 279.998 66.904 279.998ZM73.1685 271.808C74.1205 271.808 74.9185 272.074 75.5345 272.634C76.1365 273.194 76.4445 273.908 76.4445 274.79C76.4445 275.658 76.1085 276.442 75.4645 277.156C75.0725 277.562 74.3865 278.094 73.3925 278.766C72.3145 279.48 71.6705 280.11 71.4605 280.656H76.4585V282H69.5705C69.5705 281.006 69.8925 280.138 70.5645 279.382C70.9285 278.948 71.6845 278.346 72.8185 277.562C73.4905 277.086 73.9665 276.708 74.2465 276.414C74.6945 275.91 74.9325 275.364 74.9325 274.776C74.9325 274.216 74.7785 273.796 74.4705 273.516C74.1625 273.236 73.7005 273.096 73.1125 273.096C72.4825 273.096 72.0065 273.306 71.6845 273.74C71.3485 274.16 71.1805 274.762 71.1525 275.574H69.6265C69.6405 274.454 69.9625 273.558 70.5925 272.886C71.2365 272.158 72.1045 271.808 73.1685 271.808ZM89.025 277.058H80.345V280.908C80.345 281.44 80.611 281.706 81.143 281.706H88.129C88.381 281.706 88.619 281.622 88.815 281.454C89.039 281.244 89.179 280.404 89.263 278.934L90.565 279.354C90.397 281.118 90.159 282.168 89.865 282.49C89.529 282.798 89.081 282.966 88.507 282.994H80.779C79.589 282.994 79.001 282.378 79.001 281.146V273.866H80.345V275.784H87.667V272.452H78.427V271.178H89.025V277.058ZM99.833 279.004H97.229V277.716H103.795V279.004H101.177V281.678H104.439V282.98H96.599V281.678H99.833V279.004ZM100.995 275.112C99.987 275.952 98.741 276.652 97.257 277.226L96.417 276.134C98.923 275.224 100.673 273.95 101.653 272.312H97.089V271.038H103.249V272.088C102.913 272.872 102.451 273.6 101.863 274.258C102.955 274.944 103.879 275.63 104.663 276.316L103.683 277.296C103.025 276.596 102.129 275.868 100.995 275.112ZM96.515 280.138V281.37C95.171 282.07 93.673 282.63 91.993 283.05L91.811 281.762C93.603 281.356 95.171 280.81 96.515 280.138ZM94.093 270.45L95.367 270.954C94.695 272.634 94.023 274.006 93.351 275.042C93.869 274.986 94.387 274.916 94.905 274.846C95.157 274.37 95.409 273.866 95.675 273.348L96.893 273.796C95.731 275.966 94.751 277.548 93.939 278.556C94.793 278.36 95.661 278.08 96.543 277.744V278.948C95.059 279.494 93.659 279.858 92.315 280.054L91.965 278.85C92.203 278.752 92.399 278.626 92.567 278.472C93.015 278.01 93.561 277.198 94.233 276.05L92.119 276.344L91.797 275.126C91.993 275.042 92.175 274.874 92.343 274.636C93.015 273.376 93.589 271.99 94.093 270.45ZM106.147 270.996H118.285V272.242H112.867V273.208H117.151V278.962H112.671C112.517 279.774 112.279 280.432 111.957 280.95C113.889 281.706 116.143 282.112 118.747 282.196L118.411 283.484C115.611 283.358 113.175 282.84 111.103 281.916C110.095 282.7 108.513 283.218 106.343 283.47L105.769 282.252C107.561 282.14 108.905 281.818 109.801 281.272C109.045 280.852 108.359 280.376 107.743 279.858L108.765 279.158C109.367 279.634 110.025 280.04 110.725 280.404C110.977 280.012 111.187 279.522 111.327 278.962H107.309V273.208H111.551V272.242H106.147V270.996ZM115.835 277.8V276.61H112.867V276.946C112.867 277.254 112.853 277.534 112.825 277.8H115.835ZM111.509 277.8C111.537 277.52 111.551 277.226 111.551 276.946V276.61H108.625V277.8H111.509ZM108.625 275.518H111.551V274.342H108.625V275.518ZM112.867 274.342V275.518H115.835V274.342H112.867ZM131.711 270.632L132.355 271.808C131.151 272.228 129.821 272.48 128.365 272.578V274.846H132.691V276.12H131.347V283.456H130.045V276.12H128.365V277.534C128.295 279.998 127.749 281.958 126.727 283.428L125.789 282.42C126.587 281.244 127.021 279.62 127.077 277.534V271.486C128.799 271.458 130.339 271.164 131.711 270.632ZM120.021 271.626H122.513C122.345 271.262 122.149 270.912 121.939 270.59L123.311 270.366C123.479 270.744 123.661 271.164 123.829 271.626H126.419V272.858H120.021V271.626ZM119.881 274.804H121.365C121.183 274.314 120.973 273.852 120.735 273.432L121.897 272.998C122.121 273.502 122.345 274.104 122.541 274.804H123.871C124.095 274.216 124.291 273.614 124.459 272.984L125.649 273.404C125.481 273.922 125.285 274.384 125.075 274.804H126.503V276.022H123.913V277.282H126.265V278.486H123.913V282.238C123.913 283.078 123.451 283.498 122.527 283.498H121.799L121.505 282.266C121.715 282.322 121.911 282.35 122.093 282.35C122.429 282.35 122.597 282.21 122.597 281.93V278.486H120.105V277.282H122.597V276.022H119.881V274.804ZM120.945 279.102L122.149 279.354C121.813 280.768 121.351 282 120.735 283.05L119.643 282.35C120.259 281.342 120.693 280.25 120.945 279.102ZM125.327 279.004C125.691 279.9 125.985 280.712 126.195 281.44L125.075 281.86C124.851 280.992 124.571 280.138 124.235 279.298L125.327 279.004Z" fill="#1F1F1F"/>
<path d="M332.784 271.932H333.768V280.5H332.46V273.504C331.944 273.996 331.284 274.356 330.492 274.584V273.288C330.876 273.192 331.272 273.024 331.704 272.784C332.136 272.52 332.496 272.244 332.784 271.932ZM338.786 275.04V276.924H343.646V275.04H338.786ZM343.646 273.972V272.172H338.786V273.972H343.646ZM338.726 277.98C338.57 279.516 338.114 280.788 337.358 281.808L336.482 281.004C337.238 279.948 337.622 278.604 337.646 276.972V271.08H344.798V280.476C344.798 281.244 344.402 281.628 343.634 281.628H342.098L341.786 280.512C342.314 280.536 342.806 280.56 343.262 280.56C343.514 280.56 343.646 280.392 343.646 280.08V277.98H338.726ZM350.63 271.764C351.446 271.764 352.13 271.992 352.658 272.472C353.174 272.952 353.438 273.564 353.438 274.32C353.438 275.064 353.15 275.736 352.598 276.348C352.262 276.696 351.674 277.152 350.822 277.728C349.898 278.34 349.346 278.88 349.166 279.348H353.45V280.5H347.546C347.546 279.648 347.822 278.904 348.398 278.256C348.71 277.884 349.358 277.368 350.33 276.696C350.906 276.288 351.314 275.964 351.554 275.712C351.938 275.28 352.142 274.812 352.142 274.308C352.142 273.828 352.01 273.468 351.746 273.228C351.482 272.988 351.086 272.868 350.582 272.868C350.042 272.868 349.634 273.048 349.358 273.42C349.07 273.78 348.926 274.296 348.902 274.992H347.594C347.606 274.032 347.882 273.264 348.422 272.688C348.974 272.064 349.718 271.764 350.63 271.764ZM357.694 271.764C358.702 271.764 359.482 272.184 360.034 273.036C360.538 273.828 360.79 274.884 360.79 276.216C360.79 277.536 360.538 278.604 360.034 279.396C359.482 280.236 358.702 280.668 357.694 280.668C356.686 280.668 355.906 280.236 355.354 279.396C354.85 278.604 354.598 277.548 354.598 276.216C354.598 274.872 354.85 273.816 355.354 273.036C355.906 272.184 356.686 271.764 357.694 271.764ZM357.694 272.868C356.986 272.868 356.494 273.252 356.206 274.032C355.99 274.56 355.894 275.292 355.894 276.216C355.894 277.128 355.99 277.86 356.206 278.4C356.494 279.168 356.986 279.564 357.694 279.564C358.39 279.564 358.894 279.168 359.182 278.4C359.386 277.86 359.494 277.128 359.494 276.216C359.494 275.292 359.386 274.56 359.182 274.032C358.894 273.252 358.39 272.868 357.694 272.868ZM371.249 271.068V281.676H370.109V280.836H364.697V281.688H363.557V271.068H371.249ZM364.697 279.72H370.109V276.384H364.697V279.72ZM364.697 275.268H370.109V272.172H364.697V275.268Z" fill="#AAAFBA"/>
<path d="M16 301H374" stroke="#F6F6F6"/>
</g>
</g>
<defs>
<clipPath id="clip0_4199_54780">
<rect width="390" height="844" rx="16" fill="white"/>
</clipPath>
<clipPath id="clip1_4199_54780">
<path d="M0 108C0 101.373 5.37258 96 12 96H378C384.627 96 390 101.373 390 108V844H0V108Z" fill="white"/>
</clipPath>
</defs>
</svg>
