<svg width="390" height="844" viewBox="0 0 390 844" fill="none" xmlns="http://www.w3.org/2000/svg">
<g clip-path="url(#clip0_4199_51858)">
<rect width="390" height="844" rx="16" fill="#F3F4F6"/>
<rect width="390" height="90" fill="white"/>
<path d="M23.3807 76.1811L15.2207 68.0211C15.193 67.8623 15.193 67.6999 15.2207 67.5411L23.3807 59.3811C23.4436 59.3537 23.6212 59.3523 23.8607 59.3811L24.8207 60.3411C24.8481 60.5917 24.8495 60.7731 24.8207 60.8211L18.1007 67.5411C18.0531 67.6121 18.0277 67.6956 18.0277 67.7811C18.0277 67.8666 18.0531 67.9501 18.1007 68.0211L24.8207 74.7411C24.8476 74.7881 24.8505 74.9686 24.8207 75.2211L23.8607 76.1811C23.6236 76.2085 23.4446 76.2099 23.3807 76.1811Z" fill="#1F1F1F"/>
<path d="M315.644 53H367C377 53 382 58 382 68C382 78 377 83 367 83H315.644C305.644 83 300.644 78 300.644 68C300.644 58 305.644 53 315.644 53Z" fill="#F4F4F4"/>
<path d="M316.159 53.5068H366.498C376.498 53.5068 381.498 58.5068 381.498 68.5068V67.4898C381.498 77.4898 376.498 82.4898 366.498 82.4898H316.159C306.159 82.4898 301.159 77.4898 301.159 67.4898V68.5068C301.159 58.5068 306.159 53.5068 316.159 53.5068Z" fill="white"/>
<path d="M361.667 76.3903C360.058 76.3903 358.485 75.9131 357.147 75.0192C355.809 74.1252 354.766 72.8546 354.151 71.368C353.535 69.8814 353.374 68.2457 353.688 66.6675C354.002 65.0894 354.776 63.6397 355.914 62.5019C357.052 61.3642 358.502 60.5893 360.08 60.2754C361.658 59.9615 363.294 60.1226 364.78 60.7384C366.267 61.3541 367.537 62.3969 368.431 63.7348C369.325 65.0727 369.802 66.6456 369.802 68.2547C369.802 70.4124 368.945 72.4817 367.42 74.0074C365.894 75.5331 363.825 76.3903 361.667 76.3903ZM361.667 62.153C360.46 62.153 359.28 62.5108 358.277 63.1813C357.274 63.8518 356.491 64.8047 356.03 65.9197C355.568 67.0346 355.447 68.2614 355.682 69.4451C355.918 70.6287 356.499 71.7159 357.352 72.5692C358.206 73.4226 359.293 74.0037 360.477 74.2391C361.66 74.4746 362.887 74.3537 364.002 73.8919C365.117 73.4301 366.07 72.648 366.74 71.6446C367.411 70.6412 367.769 69.4615 367.769 68.2547C367.769 67.4534 367.611 66.66 367.304 65.9197C366.997 65.1794 366.548 64.5067 365.981 63.9401C365.415 63.3735 364.742 62.9241 364.002 62.6174C363.262 62.3108 362.468 62.153 361.667 62.153ZM361.667 71.3055C361.063 71.3055 360.474 71.1266 359.972 70.7914C359.47 70.4561 359.079 69.9797 358.848 69.4222C358.617 68.8647 358.557 68.2513 358.675 67.6595C358.792 67.0677 359.083 66.5241 359.51 66.0974C359.936 65.6707 360.48 65.3802 361.072 65.2625C361.664 65.1447 362.277 65.2051 362.834 65.4361C363.392 65.667 363.868 66.058 364.204 66.5597C364.539 67.0614 364.718 67.6513 364.718 68.2547C364.718 68.6553 364.639 69.052 364.486 69.4222C364.332 69.7923 364.107 70.1287 363.824 70.412C363.541 70.6952 363.205 70.92 362.834 71.0733C362.464 71.2266 362.068 71.3055 361.667 71.3055ZM329.125 70.2886C328.722 70.2886 328.329 70.1693 327.995 69.9458C327.66 69.7223 327.399 69.4047 327.245 69.033C327.092 68.6614 327.051 68.2524 327.13 67.8579C327.208 67.4633 327.402 67.1009 327.686 66.8165C327.971 66.532 328.333 66.3383 328.728 66.2599C329.122 66.1814 329.531 66.2217 329.903 66.3756C330.275 66.5295 330.592 66.7902 330.816 67.1247C331.039 67.4592 331.158 67.8524 331.158 68.2547C331.158 68.5218 331.106 68.7863 331.004 69.033C330.901 69.2798 330.752 69.504 330.563 69.6929C330.374 69.8817 330.15 70.0315 329.903 70.1338C329.656 70.236 329.392 70.2886 329.125 70.2886ZM322.514 71.3055C321.911 71.3055 321.321 71.1266 320.819 70.7914C320.318 70.4561 319.927 69.9797 319.696 69.4222C319.465 68.8647 319.404 68.2513 319.522 67.6595C319.64 67.0677 319.93 66.5241 320.357 66.0974C320.784 65.6707 321.327 65.3802 321.919 65.2625C322.511 65.1447 323.124 65.2051 323.682 65.4361C324.239 65.667 324.716 66.058 325.051 66.5597C325.386 67.0614 325.565 67.6513 325.565 68.2547C325.565 68.6553 325.486 69.052 325.333 69.4222C325.18 69.7923 324.955 70.1287 324.672 70.412C324.388 70.6952 324.052 70.92 323.682 71.0733C323.312 71.2266 322.915 71.3055 322.514 71.3055ZM315.396 70.2886C314.993 70.2886 314.6 70.1693 314.266 69.9458C313.931 69.7223 313.671 69.4047 313.517 69.033C313.363 68.6614 313.322 68.2524 313.401 67.8579C313.479 67.4633 313.673 67.1009 313.958 66.8165C314.242 66.532 314.604 66.3383 314.999 66.2599C315.393 66.1814 315.802 66.2217 316.174 66.3756C316.546 66.5295 316.863 66.7902 317.087 67.1247C317.31 67.4592 317.43 67.8524 317.43 68.2547C317.43 68.5218 317.377 68.7863 317.275 69.033C317.173 69.2798 317.023 69.504 316.834 69.6929C316.645 69.8817 316.421 70.0315 316.174 70.1338C315.927 70.236 315.663 70.2886 315.396 70.2886Z" fill="#1F1F1F"/>
<path d="M340.816 59.6123H341.833V76.9004H340.816V59.6123Z" fill="#F4F4F4"/>
<path d="M164.648 64.608H175.4V70.016H170.792C170.712 70.32 170.632 70.608 170.536 70.896H177.096V72.304H171.928C173.24 73.264 175.096 73.936 177.496 74.336L176.664 75.648C173.8 75.04 171.64 73.92 170.168 72.304H169.832C169.528 72.752 169.176 73.168 168.76 73.536C167.72 74.464 165.88 75.184 163.224 75.712L162.648 74.336C164.92 73.92 166.552 73.344 167.56 72.576C167.672 72.48 167.784 72.4 167.88 72.304H163V70.896H168.92C169.048 70.608 169.16 70.304 169.24 70.016H164.648V64.608ZM173.928 68.752V67.872H166.12V68.752H173.928ZM166.12 66.752H173.928V65.856H166.12V66.752ZM163.048 62.016H166.632V60.944H168.152V62.016H171.976V60.928H173.496V62.016H177.032V63.424H173.496V64.304H171.976V63.424H168.152V64.304H166.632V63.424H163.048V62.016ZM181.304 75.504H179.896L179.56 74.032C179.976 74.08 180.392 74.112 180.776 74.112C181.144 74.112 181.336 73.92 181.336 73.552V70.128C180.792 70.336 180.232 70.528 179.672 70.72L179.304 69.184C179.992 69.024 180.664 68.816 181.336 68.576V65.28H179.528V63.824H181.336V60.928H182.872V63.824H184.36V65.28H182.872V67.936C183.288 67.744 183.688 67.536 184.088 67.312V68.864C183.672 69.072 183.272 69.28 182.872 69.472V73.952C182.872 74.976 182.344 75.504 181.304 75.504ZM185.448 61.376H192.648V67.152H185.448V61.376ZM191.16 65.92V64.832H186.92V65.92H191.16ZM186.92 63.68H191.16V62.608H186.92V63.68ZM184.408 67.984H193.608V69.344H189.768V70.816H192.92V72.16H189.768V73.856C190.36 73.92 191.048 73.968 191.848 73.968C192.712 73.968 193.448 73.936 194.056 73.872L193.64 75.344C193.016 75.344 192.456 75.328 191.944 75.312C189.816 75.296 188.36 75.104 187.576 74.72C187.016 74.432 186.504 73.92 186.056 73.184C185.688 74.064 185.208 74.88 184.616 75.632L183.48 74.656C184.632 73.216 185.272 71.632 185.4 69.872L186.744 70.032C186.712 70.608 186.632 71.152 186.52 71.68C187 72.608 187.544 73.216 188.168 73.472L188.312 73.52V69.344H184.408V67.984ZM202.888 60.816C203.352 61.616 203.8 62.528 204.232 63.552H209.192V64.704C207.368 68.16 204.728 70.832 201.256 72.688C201.928 73.328 202.744 73.68 203.704 73.76C204.456 73.792 205.528 73.808 206.92 73.808C207.768 73.808 208.936 73.776 210.44 73.712L210.072 75.216H207.16C205.736 75.216 204.712 75.2 204.104 75.184C202.36 75.152 201.048 74.64 200.152 73.616C199.816 73.264 199.544 73.088 199.32 73.088C198.968 73.088 198.36 73.92 197.496 75.6L196.28 74.752C197.368 72.576 198.392 71.504 199.352 71.504C199.56 71.504 199.752 71.552 199.928 71.648C199.976 71.664 200.024 71.68 200.056 71.712C203.208 70.048 205.624 67.824 207.32 65.04H197.288V63.552H202.568C202.152 62.672 201.672 61.856 201.128 61.104L202.888 60.816ZM226.872 63.808C226.872 67.168 226.776 69.2 226.6 69.92C226.424 70.624 225.704 70.992 224.424 70.992H224.36L223.912 69.504C224.232 69.52 224.504 69.536 224.744 69.536C225.048 69.536 225.24 69.36 225.304 69.04C225.368 68.752 225.4 67.664 225.416 65.792L223.464 66.368V72.24H221.992V66.816L220.04 67.408V73.264C220.04 73.712 220.296 73.936 220.808 73.936H225.128C225.384 73.936 225.576 73.824 225.704 73.6C225.848 73.376 225.944 72.672 226.008 71.456L227.416 71.904C227.288 73.568 227.08 74.576 226.76 74.896C226.456 75.2 226.008 75.36 225.416 75.36H220.344C219.144 75.36 218.552 74.752 218.552 73.568V67.856L217.432 68.192V66.704L218.552 66.368V62.512H220.04V65.904L221.992 65.312V60.88H223.464V64.864L226.872 63.808ZM217.624 70.544V72.064C216.136 72.752 214.552 73.328 212.856 73.808L212.472 72.272C213.112 72.144 213.752 71.984 214.376 71.808V66.48H212.68V65.008H214.376V60.976H215.864V65.008H217.4V66.48H215.864V71.296C216.456 71.072 217.048 70.816 217.624 70.544Z" fill="#1F1F1F"/>
<path d="M390 89V90H0V89H390Z" fill="#F3F4F6"/>
<path fill-rule="evenodd" clip-rule="evenodd" d="M155 194C155 171.909 172.909 154 195 154C217.091 154 235 171.909 235 194C235 216.091 217.091 234 195 234C172.909 234 155 216.091 155 194ZM157.689 194C157.689 175.474 171.192 160.101 188.893 157.187C190.483 156.925 191.278 156.794 191.641 157.319C192.005 157.844 191.586 158.569 190.748 160.02L163.442 207.315C162.605 208.766 162.186 209.491 161.549 209.439C160.913 209.386 160.629 208.632 160.063 207.124C158.528 203.042 157.689 198.619 157.689 194ZM195 231.311C183.392 231.311 173.023 226.01 166.18 217.698C165.154 216.451 164.641 215.828 164.914 215.25C165.186 214.672 166.025 214.672 167.703 214.672H222.297C223.975 214.672 224.814 214.672 225.086 215.25C225.359 215.828 224.846 216.451 223.82 217.698C216.977 226.01 206.608 231.311 195 231.311ZM232.311 194C232.311 198.619 231.472 203.042 229.937 207.125C229.37 208.632 229.087 209.386 228.451 209.439C227.814 209.491 227.395 208.766 226.558 207.315L199.252 160.02C198.414 158.569 197.995 157.844 198.359 157.319C198.722 156.794 199.517 156.925 201.107 157.186C218.808 160.101 232.311 175.474 232.311 194ZM213.624 195.434C214.433 192.593 214.178 191.251 212.702 188.695L196.747 161.059C195.97 159.714 195.582 159.042 195 159.042C194.418 159.042 194.03 159.714 193.253 161.059L177.298 188.695C175.823 191.25 175.593 192.589 176.386 195.432C176.558 196.049 176.742 196.631 176.96 197.17C177.568 198.676 178.129 199.042 178.7 199.042C179.191 199.042 179.651 198.788 180.164 197.781C180.83 196.474 181.14 194.99 181.495 193.578C181.878 192.052 182.31 190.333 182.989 188.999C183.696 187.612 184.871 186.269 186.85 186.269C188.828 186.269 190.004 187.612 190.711 188.999C192.119 191.764 192.133 195.026 193.535 197.781C194.049 198.788 194.509 199.042 195 199.042C195.491 199.042 195.951 198.788 196.464 197.781C197.868 195.024 197.881 191.766 199.289 188.999C199.996 187.612 201.172 186.269 203.15 186.269C205.128 186.269 206.304 187.612 207.011 188.999C207.69 190.333 208.122 192.052 208.505 193.578C208.86 194.99 209.17 196.474 209.836 197.781C210.349 198.788 210.809 199.042 211.3 199.042C211.871 199.042 212.432 198.676 213.04 197.17C213.269 196.603 213.457 196.022 213.624 195.434ZM215.534 198.177C216.007 197.005 216.318 196.419 216.682 196.352C216.734 196.342 216.629 196.339 216.682 196.341C217.051 196.357 217.423 196.872 218.018 197.901L224.401 208.958C225.177 210.303 225.566 210.975 225.274 211.479C224.983 211.983 224.207 211.983 222.655 211.983H167.345C165.793 211.983 165.017 211.983 164.725 211.479C164.434 210.975 164.822 210.303 165.599 208.958L171.982 197.901C172.577 196.872 172.949 196.357 173.318 196.341C173.371 196.339 173.266 196.342 173.318 196.352C173.682 196.419 173.993 197.005 174.466 198.177C175.139 199.842 176.335 201.731 178.7 201.731C180.678 201.731 181.854 200.388 182.561 199.001C183.305 197.539 183.681 195.909 184.079 194.328C184.492 192.684 184.859 191.253 185.385 190.219C185.898 189.212 186.359 188.958 186.85 188.958C187.341 188.958 187.801 189.212 188.314 190.219C188.841 191.253 189.208 192.684 189.621 194.328C190.018 195.909 190.395 197.539 191.139 199.001C191.846 200.388 193.022 201.731 195 201.731C196.978 201.731 198.154 200.388 198.861 199.001C199.605 197.539 199.981 195.909 200.379 194.328C200.792 192.684 201.159 191.253 201.686 190.219C202.199 189.212 202.659 188.958 203.15 188.958C203.641 188.958 204.101 189.212 204.614 190.219C205.141 191.253 205.508 192.684 205.921 194.328C206.318 195.909 206.695 197.539 207.439 199.001C208.146 200.388 209.322 201.731 211.3 201.731C213.665 201.731 214.861 199.842 215.534 198.177Z" fill="#1F1F1F"/>
<path d="M93.24 261.992C94.296 262.824 95.192 263.656 95.928 264.488L94.728 265.672C94.12 264.872 93.24 264.008 92.088 263.08L93.24 261.992ZM102.344 276.408C101.811 276.408 100.872 276.397 99.528 276.376C98.536 276.365 97.6933 276.275 97 276.104C96.3707 275.912 95.8213 275.544 95.352 275C95.1493 274.733 94.952 274.6 94.76 274.6C94.4507 274.6 93.9013 275.315 93.112 276.744L91.88 275.608C92.6907 274.317 93.4053 273.501 94.024 273.16V268.776H91.912V267.24H95.576V273.336L95.736 273.496C96.088 273.912 96.4507 274.227 96.824 274.44C97.2827 274.675 97.976 274.808 98.904 274.84C100.12 274.861 101.187 274.872 102.104 274.872L104.536 274.856C105.357 274.824 105.981 274.792 106.408 274.76L106.008 276.408H102.344ZM96.808 264.216H98.504V261.832H100.12V264.216H102.136V261.864H103.768V264.216H105.608V265.768H103.768V268.472H106.12V270.04H103.768V274.296H102.136V270.04H99.736C99.288 271.853 98.4827 273.197 97.32 274.072L96.312 272.744C97.144 272.136 97.736 271.235 98.088 270.04H96.248V268.472H98.408C98.472 267.96 98.504 267.421 98.504 266.856V265.768H96.808V264.216ZM100.12 265.768V266.472C100.12 267.08 100.083 267.747 100.008 268.472H102.136V265.768H100.12ZM114.056 265.736C113.341 264.445 112.488 263.448 111.496 262.744L112.888 261.848C114.2 262.776 115.384 264.579 116.44 267.256C117.965 270.968 119.923 273.592 122.312 275.128L121.272 276.456C118.797 274.984 116.701 272.099 114.984 267.8L114.936 267.656C113.848 271.464 111.709 274.403 108.52 276.472L107.496 275.032C110.813 272.845 113 269.747 114.056 265.736ZM125.56 265.576H136.408V271.048H131.816C131.763 271.272 131.688 271.533 131.592 271.832H138.072V273.368H133.112C134.424 274.243 136.221 274.861 138.504 275.224L137.576 276.696C134.749 276.088 132.6 274.979 131.128 273.368H130.824C130.472 273.859 130.125 274.253 129.784 274.552C128.739 275.469 126.888 276.2 124.232 276.744L123.576 275.224C125.848 274.808 127.48 274.232 128.472 273.496C128.515 273.453 128.568 273.411 128.632 273.368H123.944V271.832H129.816C129.923 271.619 130.024 271.357 130.12 271.048H125.56V265.576ZM134.808 269.672V268.92H127.16V269.672H134.808ZM127.16 267.704H134.808V266.936H127.16V267.704ZM123.992 262.952H127.512V261.928H129.176V262.952H132.872V261.912H134.536V262.952H138.008V264.488H134.536V265.304H132.872V264.488H129.176V265.304H127.512V264.488H123.992V262.952ZM140.216 276.52L139.848 274.904C140.264 274.968 140.664 275 141.048 275C141.4 275 141.576 274.824 141.576 274.472V271.24C140.957 271.475 140.429 271.661 139.992 271.8L139.576 270.104C140.269 269.944 140.936 269.752 141.576 269.528V266.36H139.832V264.744H141.576V261.912H143.272V264.744H144.696V266.36H143.272V268.824L144.424 268.232V269.928L143.272 270.504V274.888C143.272 275.976 142.723 276.52 141.624 276.52H140.216ZM145.736 262.344H153V268.184H145.736V262.344ZM151.368 266.84V265.88H147.352V266.84H151.368ZM147.352 264.632H151.368V263.688H147.352V264.632ZM144.712 268.92H153.944V270.408H150.168V271.736H153.224V273.208H150.168V274.76C150.84 274.835 151.501 274.872 152.152 274.872C152.941 274.872 153.688 274.835 154.392 274.76L153.928 276.376C153.48 276.376 152.925 276.365 152.264 276.344C150.12 276.323 148.653 276.125 147.864 275.752C147.331 275.485 146.84 275.005 146.392 274.312C146.029 275.155 145.576 275.939 145.032 276.664L143.784 275.576C144.904 274.168 145.528 272.6 145.656 270.872L147.128 271.048C147.096 271.592 147.021 272.136 146.904 272.68C147.384 273.555 147.923 274.115 148.52 274.36C148.531 274.371 148.541 274.376 148.552 274.376V270.408H144.712V268.92ZM162.664 261.784C163.144 262.637 163.587 263.539 163.992 264.488H168.904V265.752C167.101 269.208 164.499 271.848 161.096 273.672C161.736 274.248 162.504 274.568 163.4 274.632C164.157 274.664 165.229 274.68 166.616 274.68C167.213 274.68 168.387 274.643 170.136 274.568L169.72 276.216H166.872C165.645 276.216 164.627 276.205 163.816 276.184C162.056 276.152 160.733 275.661 159.848 274.712C159.496 274.349 159.213 274.168 159 274.168C158.701 274.168 158.12 274.984 157.256 276.616L155.928 275.688C157.016 273.523 158.051 272.44 159.032 272.44C159.256 272.44 159.453 272.483 159.624 272.568C159.688 272.589 159.731 272.611 159.752 272.632C162.824 271 165.192 268.829 166.856 266.12H156.936V264.488H162.136C161.699 263.603 161.229 262.808 160.728 262.104L162.664 261.784ZM185.96 264.312C185.96 267.907 185.869 270.099 185.688 270.888C185.496 271.645 184.76 272.024 183.48 272.024H183.4L182.888 270.328C183.357 270.349 183.667 270.36 183.816 270.36C184.061 270.36 184.216 270.189 184.28 269.848C184.323 269.485 184.349 268.365 184.36 266.488L182.648 266.968V273.224H181.064V267.416L179.544 267.848V274.024C179.544 274.557 179.795 274.824 180.296 274.824H184.152C184.376 274.824 184.552 274.712 184.68 274.488C184.819 274.253 184.909 273.56 184.952 272.408L186.504 272.904C186.376 274.589 186.152 275.592 185.832 275.912C185.501 276.221 185.043 276.376 184.456 276.376H179.784C178.547 276.376 177.928 275.699 177.928 274.344V268.296L177 268.552V266.92L177.928 266.648V263.496H179.544V266.184L181.064 265.736V261.864H182.648V265.272L185.96 264.312ZM177 273.096C175.357 273.832 173.683 274.429 171.976 274.888L171.544 273.192C172.248 273.053 172.893 272.904 173.48 272.744V267.56H171.768V265.928H173.48V261.928H175.144V265.928H176.744V267.56H175.144V272.2C175.795 271.965 176.413 271.709 177 271.432V273.096ZM189.992 272.6C190.984 272.6 191.48 273.256 191.48 274.568C191.48 276.136 190.749 277.315 189.288 278.104L188.728 277.192C189.677 276.605 190.2 275.864 190.296 274.968C190.168 274.989 190.067 275 189.992 275C189.651 275 189.357 274.888 189.112 274.664C188.877 274.44 188.76 274.157 188.76 273.816C188.76 273.453 188.877 273.16 189.112 272.936C189.357 272.712 189.651 272.6 189.992 272.6ZM204.68 262.664H217.352V264.28H214.84V267.96H218.152V269.576H214.84V276.44H213.16V269.576H209.016C208.856 271.133 208.541 272.456 208.072 273.544C207.443 274.899 206.419 275.933 205 276.648L204.088 275.224C205.379 274.477 206.248 273.539 206.696 272.408C206.984 271.608 207.192 270.664 207.32 269.576H203.864V267.96H207.432L207.448 267.816V264.28H204.68V262.664ZM209.144 264.28V267.816L209.128 267.96H213.16V264.28H209.144ZM233.128 270.264V276.728H231.496V276.008H225.128V276.728H223.496V270.264H233.128ZM225.128 274.44H231.496V271.832H225.128V274.44ZM231.656 265H222.888V266.952H231.656V265ZM222.888 268.488V269.16C222.877 272.083 222.179 274.611 220.792 276.744L219.48 275.56C220.643 273.885 221.229 271.752 221.24 269.16V263.432H226.472C226.269 262.931 226.051 262.44 225.816 261.96L227.56 261.672C227.763 262.173 227.971 262.76 228.184 263.432H233.32V268.488H222.888ZM247.544 267.544V273.48H245.928V269.096H240.072V273.48H238.456V267.544H247.544ZM249.912 264.744V268.232H248.216V266.36H237.8V268.216H236.104V264.744H238.408C238.088 264.157 237.709 263.555 237.272 262.936L238.744 262.232C239.245 262.936 239.715 263.677 240.152 264.456L239.576 264.744H242.472C242.056 263.891 241.635 263.155 241.208 262.536L242.68 261.816C243.139 262.52 243.581 263.283 244.008 264.104L242.744 264.744H245.272C245.88 263.848 246.387 262.904 246.792 261.912L248.456 262.52C247.987 263.416 247.544 264.157 247.128 264.744H249.912ZM241.928 269.944H243.576V271.704L243.56 271.752H244.84V274.136C244.84 274.605 245.053 274.84 245.48 274.84H247.832C248.024 274.84 248.179 274.755 248.296 274.584C248.413 274.403 248.499 273.853 248.552 272.936L250.088 273.432C249.96 274.861 249.747 275.72 249.448 276.008C249.16 276.264 248.717 276.392 248.12 276.392H244.984C243.811 276.392 243.224 275.747 243.224 274.456V273.224C242.936 273.928 242.493 274.525 241.896 275.016C240.872 275.795 239.245 276.392 237.016 276.808L236.072 275.32C238.333 274.936 239.853 274.477 240.632 273.944C241.4 273.357 241.832 272.595 241.928 271.656V269.944ZM265.864 263.384V275.96H264.232V275.08H261.576V275.96H259.96V263.384H265.864ZM261.576 273.528H264.232V264.936H261.576V273.528ZM254.344 265.416C254.003 266.163 253.603 266.872 253.144 267.544L251.672 266.616C252.717 265.08 253.443 263.491 253.848 261.848L255.496 262.216C255.304 262.899 255.139 263.437 255 263.832H259.24V265.416H257.112C257.101 266.333 257.053 267.203 256.968 268.024H259.4V269.608H256.744L256.552 270.568C257.459 271.475 258.435 272.552 259.48 273.8L258.456 275.352C257.507 273.955 256.717 272.877 256.088 272.12C255.405 273.752 254.264 275.139 252.664 276.28L251.576 274.936C253.219 273.709 254.296 272.216 254.808 270.456L255 269.608H251.928V268.024H255.256C255.331 267.309 255.384 266.44 255.416 265.416H254.344ZM271.048 266.232C270.419 267.661 269.619 268.851 268.648 269.8L267.544 268.408C268.973 266.915 269.939 264.893 270.44 262.344L272.152 262.664C271.992 263.421 271.827 264.072 271.656 264.616H274.44V261.992H276.12V264.616H281.192V266.232H276.12V269.368H280.888V270.984H276.12V274.472H282.232V276.136H267.992V274.472H274.44V270.984H269.928V269.368H274.44V266.232H271.048ZM287.832 266.36H292.216V264.36C291.096 264.456 289.901 264.504 288.632 264.504L288.12 263C291.555 263 294.472 262.621 296.872 261.864L297.704 263.272C296.595 263.667 295.331 263.965 293.912 264.168V266.36H298.328V267.96H293.912V269.864H297.4V276.664H295.752V275.912H290.504V276.664H288.856V269.864H292.216V267.96H287.832V266.36ZM290.504 274.344H295.752V271.432H290.504V274.344ZM285.208 261.992C286.264 262.675 287.171 263.373 287.928 264.088L286.792 265.208C286.12 264.515 285.213 263.8 284.072 263.064L285.208 261.992ZM284.84 265.8C285.96 266.611 286.877 267.395 287.592 268.152L286.44 269.304C285.811 268.589 284.888 267.8 283.672 266.936L284.84 265.8ZM287.784 270.712C287.112 272.803 286.387 274.723 285.608 276.472L283.928 275.736C284.845 273.88 285.624 272.008 286.264 270.12L287.784 270.712Z" fill="#1F1F1F"/>
<path d="M40.596 347.562H41.562V348.472H45.034V349.298H41.562V350.236H44.53V351.048H41.562V352H45.384V352.84H36.816V352H40.596V351.048H37.768V350.236H40.596V349.298H37.208V348.472H40.596V347.562ZM38.846 356.368V357.39H43.368V356.368H38.846ZM43.368 355.584V354.548H38.846V355.584H43.368ZM38.846 358.174V360.4H37.88V353.722H44.334V359.182C44.334 359.938 43.928 360.316 43.144 360.316H41.968L41.73 359.42L42.85 359.462C43.186 359.462 43.368 359.294 43.368 358.972V358.174H38.846ZM34.282 347.716C35.22 348.416 36.004 349.13 36.648 349.844L35.962 350.544C35.374 349.872 34.576 349.158 33.568 348.402L34.282 347.716ZM32.588 351.846H35.556V357.992C35.976 357.6 36.41 357.166 36.886 356.676L37.152 357.74C36.368 358.552 35.528 359.28 34.66 359.91L34.268 359.014C34.478 358.818 34.59 358.608 34.59 358.37V352.812H32.588V351.846ZM49.206 351.454H50.144V353.54H51.432V354.45H50.144V356.34C50.62 356.228 51.054 356.116 51.474 356.004V356.956L50.144 357.292V360.4H49.206V357.502C48.408 357.656 47.582 357.796 46.728 357.922L46.602 356.942C47.526 356.83 48.394 356.69 49.206 356.536V354.45H47.022L46.812 353.61C47.204 352.77 47.554 351.72 47.876 350.474H46.714V349.522H48.1C48.24 348.878 48.366 348.22 48.492 347.52L49.416 347.73C49.29 348.36 49.164 348.962 49.038 349.522H51.502V350.474H48.8C48.492 351.622 48.17 352.644 47.82 353.54H49.206V351.454ZM53.336 350.74C52.804 351.23 52.272 351.692 51.726 352.112L51.18 351.272C52.608 350.222 53.896 348.99 55.03 347.59H55.758C56.976 349.102 58.222 350.292 59.496 351.188L58.964 351.986C57.648 351.034 56.458 349.872 55.394 348.5C54.722 349.312 54.05 350.054 53.35 350.726H57.354V351.566H53.336V350.74ZM54.316 360.302H53.644L53.42 359.476L54.036 359.504C54.344 359.504 54.498 359.35 54.498 359.042V357.782H52.93V360.4H52.048V352.686H55.352V359.224C55.352 359.938 55.002 360.302 54.316 360.302ZM52.93 356.998H54.498V355.668H52.93V356.998ZM52.93 354.884H54.498V353.498H52.93V354.884ZM56.192 353.078H56.976V358.104H56.192V353.078ZM57.718 360.33H56.528L56.318 359.448C56.696 359.476 57.06 359.504 57.41 359.504C57.704 359.504 57.858 359.294 57.858 358.902V352.448H58.74V359.126C58.74 359.924 58.39 360.33 57.718 360.33ZM66.384 350.81C65.74 349.634 64.97 348.738 64.074 348.094L64.914 347.562C66.16 348.43 67.21 350.012 68.078 352.28C69.394 355.626 71.144 357.992 73.356 359.378L72.726 360.19C70.458 358.818 68.61 356.27 67.168 352.574C67.084 352.35 67.014 352.154 66.944 351.986C66.02 355.556 64.088 358.3 61.148 360.204L60.546 359.35C63.542 357.39 65.488 354.534 66.384 350.81ZM85.704 347.688L86.194 348.542C84.92 348.878 83.45 349.144 81.77 349.312V351.678H86.236V352.658H81.77V354.954H87.286V355.92H81.77V359.014C81.77 359.854 81.322 360.288 80.454 360.288H78.284L78.06 359.308C78.774 359.336 79.46 359.364 80.104 359.364C80.524 359.364 80.748 359.154 80.748 358.762V355.92H74.728V354.954H80.748V352.658H75.89V351.678H80.748V349.396C79.264 349.508 77.654 349.578 75.918 349.578L75.61 348.668C79.67 348.668 83.03 348.332 85.704 347.688ZM88.812 350.306H90.898V347.576H91.906V350.306H93.642V351.272H91.906V351.986C92.55 352.658 93.208 353.4 93.88 354.226L93.292 355.094C92.76 354.212 92.298 353.498 91.906 352.952V360.33H90.898V353.218C90.408 354.618 89.764 355.878 88.98 357.026L88.546 355.934C89.624 354.576 90.394 353.022 90.856 351.272H88.812V350.306ZM92.984 359.714C93.586 358.832 94.006 357.894 94.244 356.9C94.426 356.046 94.524 354.898 94.524 353.456V348.15H99.046V358.748C99.046 358.986 99.144 359.112 99.368 359.112H99.844C100.012 359.112 100.138 359.084 100.236 359.028C100.348 358.944 100.418 358.818 100.446 358.622C100.502 358.342 100.544 357.544 100.544 356.2L101.468 356.494C101.468 357.502 101.426 358.258 101.37 358.79C101.314 359.294 101.174 359.63 100.95 359.826C100.726 359.98 100.39 360.064 99.942 360.064H99.368C98.472 360.064 98.024 359.658 98.024 358.846V349.102H95.532V353.456C95.532 354.996 95.406 356.284 95.154 357.32C94.916 358.412 94.468 359.448 93.81 360.456L92.984 359.714ZM104.898 348.066H113.102V351.846H104.898V348.066ZM112.066 350.936V348.976H105.934V350.936H112.066ZM105.906 354.016H102.7V353.05H115.286V354.016H106.928L106.452 355.654H113.298C113.214 357.894 112.99 359.238 112.654 359.672C112.318 360.092 111.674 360.302 110.722 360.302C110.022 360.302 109.406 360.274 108.86 360.218L108.524 359.294C109.266 359.35 109.924 359.378 110.498 359.378C111.254 359.378 111.716 359.224 111.898 358.916C112.066 358.608 112.192 357.824 112.276 356.564H105.248L105.906 354.016ZM121.292 352.476V359.672H120.368V358.874H118.856V359.938H117.918V354.24C117.638 354.744 117.33 355.234 116.994 355.71L116.49 354.898C117.554 353.274 118.254 351.412 118.59 349.326H116.882V348.346H121.656V349.326H119.542C119.346 350.446 119.08 351.496 118.716 352.476H121.292ZM118.856 357.964H120.368V353.4H118.856V357.964ZM123.182 350.082L124.176 350.152L123.56 353.68H126.528L127.228 349.102H122.3V348.15H128.32L127.55 353.68H129.034C129.034 357.068 128.838 359.014 128.474 359.546C128.082 360.05 127.284 360.316 126.052 360.316C125.66 360.316 125.24 360.302 124.792 360.274L124.512 359.294C125.128 359.35 125.562 359.378 125.814 359.378C126.892 359.378 127.536 359.14 127.746 358.692C127.97 358.216 128.082 356.858 128.082 354.618H122.426L123.182 350.082ZM121.992 356.396H127.116V357.348H121.992V356.396Z" fill="#1F1F1F" fill-opacity="0.4"/>
<path d="M32 376H358" stroke="#E5E5E5" stroke-width="1.3" stroke-linecap="round" stroke-linejoin="round"/>
<path d="M40.596 411.562H41.562V412.472H45.034V413.298H41.562V414.236H44.53V415.048H41.562V416H45.384V416.84H36.816V416H40.596V415.048H37.768V414.236H40.596V413.298H37.208V412.472H40.596V411.562ZM38.846 420.368V421.39H43.368V420.368H38.846ZM43.368 419.584V418.548H38.846V419.584H43.368ZM38.846 422.174V424.4H37.88V417.722H44.334V423.182C44.334 423.938 43.928 424.316 43.144 424.316H41.968L41.73 423.42L42.85 423.462C43.186 423.462 43.368 423.294 43.368 422.972V422.174H38.846ZM34.282 411.716C35.22 412.416 36.004 413.13 36.648 413.844L35.962 414.544C35.374 413.872 34.576 413.158 33.568 412.402L34.282 411.716ZM32.588 415.846H35.556V421.992C35.976 421.6 36.41 421.166 36.886 420.676L37.152 421.74C36.368 422.552 35.528 423.28 34.66 423.91L34.268 423.014C34.478 422.818 34.59 422.608 34.59 422.37V416.812H32.588V415.846ZM49.206 415.454H50.144V417.54H51.432V418.45H50.144V420.34C50.62 420.228 51.054 420.116 51.474 420.004V420.956L50.144 421.292V424.4H49.206V421.502C48.408 421.656 47.582 421.796 46.728 421.922L46.602 420.942C47.526 420.83 48.394 420.69 49.206 420.536V418.45H47.022L46.812 417.61C47.204 416.77 47.554 415.72 47.876 414.474H46.714V413.522H48.1C48.24 412.878 48.366 412.22 48.492 411.52L49.416 411.73C49.29 412.36 49.164 412.962 49.038 413.522H51.502V414.474H48.8C48.492 415.622 48.17 416.644 47.82 417.54H49.206V415.454ZM53.336 414.74C52.804 415.23 52.272 415.692 51.726 416.112L51.18 415.272C52.608 414.222 53.896 412.99 55.03 411.59H55.758C56.976 413.102 58.222 414.292 59.496 415.188L58.964 415.986C57.648 415.034 56.458 413.872 55.394 412.5C54.722 413.312 54.05 414.054 53.35 414.726H57.354V415.566H53.336V414.74ZM54.316 424.302H53.644L53.42 423.476L54.036 423.504C54.344 423.504 54.498 423.35 54.498 423.042V421.782H52.93V424.4H52.048V416.686H55.352V423.224C55.352 423.938 55.002 424.302 54.316 424.302ZM52.93 420.998H54.498V419.668H52.93V420.998ZM52.93 418.884H54.498V417.498H52.93V418.884ZM56.192 417.078H56.976V422.104H56.192V417.078ZM57.718 424.33H56.528L56.318 423.448C56.696 423.476 57.06 423.504 57.41 423.504C57.704 423.504 57.858 423.294 57.858 422.902V416.448H58.74V423.126C58.74 423.924 58.39 424.33 57.718 424.33ZM66.384 414.81C65.74 413.634 64.97 412.738 64.074 412.094L64.914 411.562C66.16 412.43 67.21 414.012 68.078 416.28C69.394 419.626 71.144 421.992 73.356 423.378L72.726 424.19C70.458 422.818 68.61 420.27 67.168 416.574C67.084 416.35 67.014 416.154 66.944 415.986C66.02 419.556 64.088 422.3 61.148 424.204L60.546 423.35C63.542 421.39 65.488 418.534 66.384 414.81ZM75.26 421.628L74.952 420.774C75.148 420.69 75.26 420.578 75.26 420.438V412.766H76.24V420.41C76.94 420.214 77.64 419.976 78.34 419.71V411.632H79.334V424.316H78.34V420.69C77.36 421.04 76.324 421.348 75.26 421.628ZM82.19 414.684C82.022 415.132 81.854 415.552 81.672 415.944C82.176 417.316 82.82 418.576 83.632 419.724C84.472 418.296 84.92 416.616 85.004 414.684H82.19ZM81.084 417.036C80.818 417.456 80.538 417.834 80.244 418.184L79.614 417.414C80.762 415.958 81.546 413.984 81.952 411.52L82.96 411.688C82.82 412.402 82.666 413.074 82.498 413.69H87.174V414.684H85.97C85.872 416.98 85.312 418.954 84.276 420.578C85.2 421.726 86.264 422.748 87.496 423.644L86.81 424.456C85.592 423.546 84.542 422.538 83.66 421.446C82.736 422.608 81.546 423.574 80.09 424.358L79.516 423.448C80.986 422.72 82.162 421.782 83.03 420.634C82.246 419.514 81.588 418.324 81.084 417.036ZM95.91 422.062V423.056C93.754 423.504 91.43 423.896 88.938 424.204L88.714 423.238C89.834 423.112 90.926 422.972 91.99 422.804V420.158H89.26V419.178H91.99V417.554H92.998V419.178H95.518V420.158H92.998V422.636C93.992 422.468 94.958 422.272 95.91 422.062ZM88.896 412.178H95.854V413.13H92.256C91.584 414.53 90.954 415.58 90.366 416.294C91.752 416.154 93.068 415.986 94.328 415.762C94.02 415.258 93.67 414.754 93.292 414.236L94.062 413.732C95 414.992 95.714 416.098 96.218 417.036L95.378 417.624C95.196 417.26 95 416.896 94.776 416.518C93.012 416.826 91.066 417.092 88.966 417.302L88.728 416.392C88.896 416.364 89.036 416.336 89.134 416.294C89.708 415.79 90.394 414.74 91.192 413.13H88.896V412.178ZM99.55 424.274H97.492L97.268 423.294C97.94 423.322 98.584 423.35 99.2 423.35C99.592 423.35 99.802 423.14 99.802 422.734V411.604H100.824V422.986C100.824 423.84 100.39 424.274 99.55 424.274ZM97.002 412.864H97.982V421.53H97.002V412.864ZM107.656 413.984V423.532H106.676V422.734H104.128V423.938H103.148V413.984H104.45C104.73 413.2 104.926 412.388 105.052 411.548L106.06 411.688C105.892 412.514 105.682 413.284 105.402 413.984H107.656ZM104.128 421.796H106.676V418.73H104.128V421.796ZM104.128 417.82H106.676V414.936H104.128V417.82ZM110.092 417.232C111.1 418.394 111.856 419.416 112.388 420.284L111.59 420.844C111.016 419.92 110.246 418.884 109.28 417.736L110.092 417.232ZM114.894 413.998C114.894 418.646 114.824 421.53 114.684 422.622C114.544 423.686 113.9 424.232 112.724 424.232C112.444 424.232 111.968 424.204 111.296 424.176L111.058 423.252C111.646 423.28 112.15 423.294 112.584 423.294C113.242 423.294 113.62 422.93 113.732 422.216C113.816 421.432 113.872 419.01 113.9 414.978H110.05C109.658 415.86 109.196 416.658 108.65 417.372L108.048 416.574C109.028 415.202 109.686 413.522 110.05 411.534L111.044 411.66C110.876 412.486 110.68 413.27 110.428 413.998H114.894ZM123.462 415.678C122.958 416.238 122.426 416.742 121.866 417.176L121.334 416.364C122.902 415.146 124.12 413.564 124.96 411.618H125.884C126.584 413.41 127.816 414.964 129.552 416.308L129.006 417.148C128.404 416.686 127.872 416.196 127.396 415.678V416.546H123.462V415.678ZM127.354 415.622C126.542 414.698 125.898 413.69 125.422 412.598C124.862 413.774 124.232 414.782 123.504 415.622H127.354ZM121.74 422.944H126.29C126.822 421.46 127.298 419.612 127.718 417.414L128.684 417.652C128.292 419.64 127.83 421.404 127.27 422.944H129.384V423.91H121.74V422.944ZM123.028 417.82C123.476 418.982 123.868 420.326 124.232 421.838L123.364 422.048C123.056 420.676 122.65 419.374 122.16 418.114L123.028 417.82ZM125.184 417.414C125.562 418.52 125.898 419.794 126.206 421.236L125.324 421.446C125.072 420.144 124.736 418.884 124.316 417.68L125.184 417.414ZM120.172 413.13H116.784V412.206H121.18L120.508 417.974H121.376C121.376 421.166 121.236 423 120.97 423.49C120.69 423.966 120.116 424.218 119.234 424.218C118.912 424.218 118.576 424.204 118.24 424.176L117.974 423.28C118.464 423.336 118.814 423.364 119.01 423.364C119.682 423.364 120.088 423.14 120.228 422.72C120.368 422.272 120.452 420.998 120.452 418.87H116.882L117.54 414.068L118.464 414.124L117.904 417.974H119.556L120.172 413.13ZM119.654 420.116V421.026C118.73 421.376 117.694 421.656 116.532 421.88L116.406 420.928C117.638 420.718 118.73 420.452 119.654 420.116ZM139.296 413.214H135.362V412.22H143.216V413.214H140.318V417.148H143.02V418.086H140.318V422.93H143.496V423.924H134.928V422.93H136.356V415.524H137.336V422.93H139.296V413.214ZM132.324 411.702C133.234 412.43 134.004 413.144 134.634 413.858L133.948 414.558C133.374 413.858 132.604 413.13 131.624 412.36L132.324 411.702ZM130.616 415.846H133.612V421.894C134.06 421.502 134.536 421.054 135.054 420.55L135.32 421.628C134.508 422.412 133.654 423.126 132.744 423.756L132.352 422.846C132.548 422.678 132.646 422.482 132.646 422.258V416.812H130.616V415.846ZM149.292 416.476V423.672H148.368V422.874H146.856V423.938H145.918V418.24C145.638 418.744 145.33 419.234 144.994 419.71L144.49 418.898C145.554 417.274 146.254 415.412 146.59 413.326H144.882V412.346H149.656V413.326H147.542C147.346 414.446 147.08 415.496 146.716 416.476H149.292ZM146.856 421.964H148.368V417.4H146.856V421.964ZM151.182 414.082L152.176 414.152L151.56 417.68H154.528L155.228 413.102H150.3V412.15H156.32L155.55 417.68H157.034C157.034 421.068 156.838 423.014 156.474 423.546C156.082 424.05 155.284 424.316 154.052 424.316C153.66 424.316 153.24 424.302 152.792 424.274L152.512 423.294C153.128 423.35 153.562 423.378 153.814 423.378C154.892 423.378 155.536 423.14 155.746 422.692C155.97 422.216 156.082 420.858 156.082 418.618H150.426L151.182 414.082ZM149.992 420.396H155.116V421.348H149.992V420.396Z" fill="#1F1F1F" fill-opacity="0.4"/>
<path d="M289.624 415.86L290.73 411.968L291.724 412.136L290.926 414.894H293.376C293.656 413.802 293.88 412.668 294.048 411.464L295.07 411.59C294.888 412.766 294.664 413.858 294.412 414.894H300.964V415.86H294.146C293.978 416.42 293.81 416.952 293.614 417.456H299.34V418.324C298.962 419.528 298.206 420.62 297.058 421.6C298.192 422.272 299.578 422.888 301.202 423.448L300.684 424.386C298.892 423.728 297.408 423.014 296.232 422.244C295.084 423.056 293.656 423.784 291.962 424.442L291.43 423.504C292.998 422.93 294.3 422.3 295.35 421.614C294.258 420.774 293.488 419.864 293.026 418.884C292.004 421.096 290.688 422.846 289.092 424.148L288.574 423.224C290.618 421.432 292.116 418.982 293.096 415.86H289.624ZM293.782 418.38C294.258 419.332 295.056 420.214 296.176 421.026C297.212 420.214 297.926 419.332 298.318 418.38H293.782ZM297.422 411.576C298.43 412.346 299.256 413.116 299.928 413.886L299.214 414.6C298.626 413.858 297.8 413.074 296.75 412.234L297.422 411.576ZM303.764 411.786C304.73 412.514 305.542 413.228 306.2 413.956L305.472 414.67C304.898 413.984 304.1 413.242 303.078 412.444L303.764 411.786ZM311.954 424.148C311.184 424.148 310.344 424.134 309.448 424.12C308.538 424.106 307.796 424.022 307.236 423.868C306.676 423.7 306.172 423.35 305.738 422.846C305.542 422.608 305.36 422.496 305.192 422.496C304.856 422.496 304.296 423.126 303.526 424.414L302.77 423.742C303.512 422.566 304.17 421.852 304.744 421.6V417.344H302.756V416.42H305.682V421.656C305.794 421.74 305.906 421.838 306.032 421.978C306.368 422.384 306.732 422.678 307.124 422.86C307.572 423.056 308.202 423.168 309.042 423.196C309.784 423.21 310.708 423.224 311.814 423.224C312.458 423.224 313.13 423.21 313.816 423.196C314.488 423.182 315.006 423.168 315.37 423.14L315.132 424.148H311.954ZM306.984 417.078H310.372C310.456 416.476 310.512 415.79 310.54 415.006H307.46V414.082H311.688C312.122 413.27 312.5 412.402 312.808 411.478L313.76 411.814C313.452 412.668 313.102 413.424 312.71 414.082H314.53V415.006H311.534C311.506 415.79 311.464 416.49 311.38 417.078H315.006V418.03H311.198C310.806 419.724 309.574 421.124 307.502 422.23L306.858 421.418C308.622 420.55 309.728 419.43 310.148 418.03H306.984V417.078ZM308.902 411.59C309.364 412.206 309.798 412.892 310.218 413.634L309.364 414.054C308.944 413.298 308.482 412.612 307.992 412.024L308.902 411.59ZM311.842 418.856C313.004 419.668 314.054 420.55 314.992 421.502L314.292 422.258C313.312 421.222 312.304 420.312 311.24 419.528L311.842 418.856ZM323.462 415.678C322.958 416.238 322.426 416.742 321.866 417.176L321.334 416.364C322.902 415.146 324.12 413.564 324.96 411.618H325.884C326.584 413.41 327.816 414.964 329.552 416.308L329.006 417.148C328.404 416.686 327.872 416.196 327.396 415.678V416.546H323.462V415.678ZM327.354 415.622C326.542 414.698 325.898 413.69 325.422 412.598C324.862 413.774 324.232 414.782 323.504 415.622H327.354ZM321.74 422.944H326.29C326.822 421.46 327.298 419.612 327.718 417.414L328.684 417.652C328.292 419.64 327.83 421.404 327.27 422.944H329.384V423.91H321.74V422.944ZM323.028 417.82C323.476 418.982 323.868 420.326 324.232 421.838L323.364 422.048C323.056 420.676 322.65 419.374 322.16 418.114L323.028 417.82ZM325.184 417.414C325.562 418.52 325.898 419.794 326.206 421.236L325.324 421.446C325.072 420.144 324.736 418.884 324.316 417.68L325.184 417.414ZM320.172 413.13H316.784V412.206H321.18L320.508 417.974H321.376C321.376 421.166 321.236 423 320.97 423.49C320.69 423.966 320.116 424.218 319.234 424.218C318.912 424.218 318.576 424.204 318.24 424.176L317.974 423.28C318.464 423.336 318.814 423.364 319.01 423.364C319.682 423.364 320.088 423.14 320.228 422.72C320.368 422.272 320.452 420.998 320.452 418.87H316.882L317.54 414.068L318.464 414.124L317.904 417.974H319.556L320.172 413.13ZM319.654 420.116V421.026C318.73 421.376 317.694 421.656 316.532 421.88L316.406 420.928C317.638 420.718 318.73 420.452 319.654 420.116ZM339.296 413.214H335.362V412.22H343.216V413.214H340.318V417.148H343.02V418.086H340.318V422.93H343.496V423.924H334.928V422.93H336.356V415.524H337.336V422.93H339.296V413.214ZM332.324 411.702C333.234 412.43 334.004 413.144 334.634 413.858L333.948 414.558C333.374 413.858 332.604 413.13 331.624 412.36L332.324 411.702ZM330.616 415.846H333.612V421.894C334.06 421.502 334.536 421.054 335.054 420.55L335.32 421.628C334.508 422.412 333.654 423.126 332.744 423.756L332.352 422.846C332.548 422.678 332.646 422.482 332.646 422.258V416.812H330.616V415.846ZM349.292 416.476V423.672H348.368V422.874H346.856V423.938H345.918V418.24C345.638 418.744 345.33 419.234 344.994 419.71L344.49 418.898C345.554 417.274 346.254 415.412 346.59 413.326H344.882V412.346H349.656V413.326H347.542C347.346 414.446 347.08 415.496 346.716 416.476H349.292ZM346.856 421.964H348.368V417.4H346.856V421.964ZM351.182 414.082L352.176 414.152L351.56 417.68H354.528L355.228 413.102H350.3V412.15H356.32L355.55 417.68H357.034C357.034 421.068 356.838 423.014 356.474 423.546C356.082 424.05 355.284 424.316 354.052 424.316C353.66 424.316 353.24 424.302 352.792 424.274L352.512 423.294C353.128 423.35 353.562 423.378 353.814 423.378C354.892 423.378 355.536 423.14 355.746 422.692C355.97 422.216 356.082 420.858 356.082 418.618H350.426L351.182 414.082ZM349.992 420.396H355.116V421.348H349.992V420.396Z" fill="#D7942B"/>
<path d="M32 440H358" stroke="#E5E5E5" stroke-width="1.3" stroke-linecap="round" stroke-linejoin="round"/>
<g clip-path="url(#clip1_4199_51858)">
<rect x="32" y="497" width="44" height="44" rx="6" fill="white"/>
<path d="M56.1954 519.39C56.1993 519.471 56.1869 519.551 56.1588 519.627C56.1307 519.702 56.0876 519.771 56.0321 519.829C55.9766 519.888 55.9097 519.934 55.8357 519.966C55.7617 519.998 55.682 520.014 55.6015 520.014C55.5209 520.014 55.4412 519.998 55.3672 519.966C55.2932 519.934 55.2264 519.888 55.1708 519.829C55.1153 519.771 55.0722 519.702 55.0441 519.627C55.016 519.551 55.0036 519.471 55.0076 519.39C55.015 519.238 55.0809 519.094 55.1914 518.989C55.302 518.883 55.4488 518.825 55.6015 518.825C55.7541 518.825 55.9009 518.883 56.0115 518.989C56.122 519.094 56.1879 519.238 56.1954 519.39ZM60.3162 519.39C60.3162 519.468 60.3009 519.546 60.271 519.618C60.2411 519.69 60.1973 519.756 60.1421 519.811C60.0869 519.866 60.0213 519.91 59.9492 519.94C59.877 519.97 59.7997 519.985 59.7216 519.985C59.6435 519.985 59.5662 519.97 59.494 519.94C59.4219 519.91 59.3563 519.866 59.3011 519.811C59.2459 519.756 59.2021 519.69 59.1722 519.618C59.1424 519.546 59.127 519.468 59.127 519.39C59.127 519.233 59.1897 519.081 59.3012 518.97C59.4127 518.858 59.5639 518.796 59.7216 518.796C59.8793 518.796 60.0305 518.858 60.142 518.97C60.2535 519.081 60.3162 519.233 60.3162 519.39Z" fill="#1F1F1F"/>
<path d="M59.1113 526.004L58.9998 526.028C58.8963 526.05 58.7924 526.071 58.6882 526.09C58.2451 526.17 57.9407 526.204 57.6162 526.193C54.8046 526.1 52.6134 524.72 51.7358 522.529C51.6952 522.423 51.6571 522.317 51.6214 522.209L51.5885 522.107C51.5644 522.032 51.5429 521.956 51.5242 521.879C51.4252 521.463 51.3734 521.038 51.3698 520.611C51.3698 517.746 53.9999 515.487 57.3046 515.339L57.4532 515.328C57.5847 515.318 57.6705 515.314 57.7677 515.314H58.015L58.1708 515.317C61.3225 515.562 63.8725 517.941 63.8725 520.742C63.8725 522.055 63.2222 523.351 62.0358 524.466C61.9968 524.502 61.9573 524.538 61.9172 524.573L62.0844 525.764C62.1324 525.918 62.1339 526.083 62.0886 526.239C62.0433 526.394 61.9533 526.532 61.8298 526.637C61.7063 526.741 61.5548 526.807 61.3942 526.826C61.2336 526.845 61.0709 526.816 60.9266 526.743L59.2714 525.965C59.2186 525.979 59.1657 525.992 59.1127 526.004H59.1113ZM62.7991 520.744C62.7991 518.537 60.7122 516.59 58.1236 516.387H57.7677C57.7048 516.387 57.6391 516.389 57.5333 516.397L57.3546 516.41C54.5774 516.534 52.4419 518.371 52.4419 520.612C52.4419 520.927 52.4876 521.297 52.5677 521.631C52.5777 521.673 52.592 521.726 52.6105 521.786L52.6391 521.869C52.6749 521.979 52.7106 522.08 52.7335 522.136C53.4424 523.907 55.2449 525.041 57.6534 525.121C57.8835 525.129 58.125 525.102 58.4967 525.035C58.5899 525.018 58.6828 525 58.7754 524.981L58.8697 524.959C58.9484 524.94 59.0113 524.926 59.1942 524.879C59.3143 524.849 59.4411 524.862 59.553 524.915L60.9809 525.587L60.8137 524.426C60.7991 524.326 60.8132 524.223 60.8545 524.131C60.8957 524.038 60.9623 523.959 61.0467 523.903C61.0667 523.888 61.191 523.787 61.3011 523.684C62.2845 522.759 62.7991 521.734 62.7991 520.742V520.744ZM44.2173 516.759C44.2173 513.297 47.462 510.514 51.4156 510.514C54.9061 510.514 58.0193 512.697 58.6496 515.641C58.6711 515.741 58.6711 515.83 58.6582 515.924C58.6393 516.061 58.5683 516.185 58.4601 516.271C58.3518 516.356 58.2147 516.397 58.0772 516.384C57.9397 516.371 57.8125 516.306 57.7221 516.201C57.6317 516.097 57.585 515.962 57.5919 515.824C57.0516 513.425 54.4101 511.586 51.4156 511.586C48.0208 511.586 45.2893 513.927 45.2893 516.76C45.2893 518.267 46.0626 519.633 47.5677 520.74C47.659 520.807 47.7266 520.901 47.761 521.009C47.7954 521.116 47.7948 521.232 47.7593 521.34L47.369 522.512L49.1272 521.693C49.2449 521.638 49.3785 521.628 49.5031 521.664L49.5946 521.693C50.5051 521.879 50.8724 521.936 51.4156 521.936C51.5972 521.928 51.7779 521.906 51.9559 521.869C51.9473 521.872 51.9302 521.877 51.9102 521.894C52.0074 521.827 52.1237 521.792 52.242 521.796C52.3603 521.799 52.4744 521.84 52.5677 521.913C52.6231 521.957 52.6694 522.011 52.7039 522.072C52.7384 522.133 52.7605 522.201 52.7689 522.271C52.7772 522.341 52.7717 522.412 52.7526 522.48C52.7336 522.548 52.7013 522.611 52.6577 522.666C52.4605 522.915 51.8644 523.007 51.4142 523.007C50.7924 523.007 50.375 522.947 49.4059 522.746L47.3262 523.717C47.1799 523.789 47.0155 523.817 46.8537 523.796C46.6919 523.775 46.5399 523.707 46.4166 523.6C46.2933 523.493 46.2042 523.352 46.1606 523.195C46.1169 523.038 46.1207 522.871 46.1712 522.716L46.6215 521.366C45.0549 520.101 44.2173 518.514 44.2173 516.759Z" fill="#1F1F1F"/>
<path d="M49.7717 514.685C49.7719 514.882 49.6938 515.071 49.5545 515.21C49.4152 515.35 49.2263 515.429 49.0291 515.429C48.832 515.429 48.6429 515.351 48.5034 515.212C48.3638 515.072 48.2853 514.883 48.2852 514.686C48.2852 514.489 48.3635 514.3 48.5029 514.161C48.6422 514.021 48.8313 513.943 49.0284 513.943C49.2256 513.943 49.4146 514.021 49.554 514.161C49.6934 514.3 49.7717 514.489 49.7717 514.686M54.663 514.685C54.6632 514.882 54.5851 515.071 54.4458 515.21C54.3066 515.35 54.1176 515.429 53.9204 515.429C53.7233 515.429 53.5342 515.351 53.3947 515.212C53.2551 515.072 53.1766 514.883 53.1765 514.686C53.1765 514.489 53.2548 514.3 53.3942 514.161C53.5335 514.021 53.7226 513.943 53.9197 513.943C54.1169 513.943 54.3059 514.021 54.4453 514.161C54.5847 514.3 54.663 514.489 54.663 514.686" fill="#1F1F1F"/>
<rect x="92" y="497" width="266" height="44" rx="6" fill="#D7942B"/>
<path d="M213.744 518.386H221.752V521.956H213.744V518.386ZM220.422 520.78V519.548H215.074V520.78H220.422ZM215.228 522.11C215.676 522.586 216.096 523.146 216.474 523.804H219.148C219.54 523.244 219.89 522.656 220.198 522.054L221.444 522.488C221.178 522.964 220.884 523.398 220.576 523.804H223.74V525.064H211.672V523.804H215.06C214.752 523.356 214.388 522.95 213.968 522.572L215.228 522.11ZM213.016 514.396C213.688 514.872 214.276 515.362 214.78 515.838C215.312 515.306 215.732 514.76 216.068 514.172H212.792V512.954H217.58V513.948C217.244 514.788 216.782 515.558 216.194 516.23H219.89C218.994 515.292 218.308 514.27 217.818 513.15L218.91 512.534C219.134 513.08 219.414 513.598 219.75 514.074C220.268 513.668 220.716 513.22 221.108 512.744L222.046 513.57C221.598 514.116 221.066 514.592 220.478 515.012C220.73 515.306 221.01 515.6 221.318 515.88C221.934 515.404 222.452 514.886 222.872 514.326L223.81 515.152C223.362 515.712 222.858 516.216 222.27 516.664C222.9 517.14 223.6 517.574 224.384 517.966L223.502 518.988C222.382 518.358 221.402 517.658 220.562 516.902V517.434H215.438V516.986C214.528 517.784 213.408 518.456 212.078 519.016L211.28 517.966C212.26 517.574 213.114 517.112 213.842 516.608C213.366 516.174 212.792 515.726 212.12 515.25L213.016 514.396ZM227.646 512.968H235.92V517.49H238.328V518.708H232.854V520.136C233.148 520.458 233.456 520.766 233.792 521.06C234.73 520.528 235.542 519.772 236.214 518.778L237.236 519.632C236.494 520.556 235.654 521.284 234.702 521.802C235.766 522.586 236.984 523.272 238.384 523.874L237.712 525.05C235.696 524.098 234.086 522.95 232.854 521.606V524.028C232.854 524.98 232.434 525.456 231.622 525.456H229.998L229.704 524.196C230.222 524.252 230.712 524.294 231.174 524.294C231.412 524.294 231.538 524.098 231.538 523.72V521.676C230.138 522.908 228.486 524.014 226.582 525.008L226.05 523.776C228.164 522.81 229.998 521.648 231.538 520.29V518.708H226.246V517.49H234.562V516.412H228.122V515.264H234.562V514.158H227.646V512.968ZM227.926 519.002C228.752 519.576 229.452 520.15 230.012 520.71L229.144 521.578C228.64 521.046 227.94 520.472 227.044 519.856L227.926 519.002Z" fill="white"/>
</g>
<rect x="125" y="834" width="140" height="4" rx="2" fill="#E9E9E9"/>
</g>
<defs>
<clipPath id="clip0_4199_51858">
<rect width="390" height="844" rx="16" fill="white"/>
</clipPath>
<clipPath id="clip1_4199_51858">
<rect width="326" height="44" fill="white" transform="translate(32 497)"/>
</clipPath>
</defs>
</svg>
