<svg width="390" height="844" viewBox="0 0 390 844" fill="none" xmlns="http://www.w3.org/2000/svg">
<g clip-path="url(#clip0_4199_52128)">
<rect width="390" height="844" rx="16" fill="#F3F4F6"/>
<rect width="390" height="90" fill="white"/>
<path d="M23.3807 76.1811L15.2207 68.0211C15.193 67.8623 15.193 67.6999 15.2207 67.5411L23.3807 59.3811C23.4436 59.3537 23.6212 59.3523 23.8607 59.3811L24.8207 60.3411C24.8481 60.5917 24.8495 60.7731 24.8207 60.8211L18.1007 67.5411C18.0531 67.6121 18.0277 67.6956 18.0277 67.7811C18.0277 67.8666 18.0531 67.9501 18.1007 68.0211L24.8207 74.7411C24.8476 74.7881 24.8505 74.9686 24.8207 75.2211L23.8607 76.1811C23.6236 76.2085 23.4446 76.2099 23.3807 76.1811Z" fill="#1F1F1F"/>
<path d="M315.644 53H367C377 53 382 58 382 68C382 78 377 83 367 83H315.644C305.644 83 300.644 78 300.644 68C300.644 58 305.644 53 315.644 53Z" fill="#F4F4F4"/>
<path d="M316.159 53.5068H366.498C376.498 53.5068 381.498 58.5068 381.498 68.5068V67.4898C381.498 77.4898 376.498 82.4898 366.498 82.4898H316.159C306.159 82.4898 301.159 77.4898 301.159 67.4898V68.5068C301.159 58.5068 306.159 53.5068 316.159 53.5068Z" fill="white"/>
<path d="M361.667 76.3903C360.058 76.3903 358.485 75.9131 357.147 75.0192C355.809 74.1252 354.766 72.8546 354.151 71.368C353.535 69.8814 353.374 68.2457 353.688 66.6675C354.002 65.0894 354.776 63.6397 355.914 62.5019C357.052 61.3642 358.502 60.5893 360.08 60.2754C361.658 59.9615 363.294 60.1226 364.78 60.7384C366.267 61.3541 367.537 62.3969 368.431 63.7348C369.325 65.0727 369.802 66.6456 369.802 68.2547C369.802 70.4124 368.945 72.4817 367.42 74.0074C365.894 75.5331 363.825 76.3903 361.667 76.3903ZM361.667 62.153C360.46 62.153 359.28 62.5108 358.277 63.1813C357.274 63.8518 356.491 64.8047 356.03 65.9197C355.568 67.0346 355.447 68.2614 355.682 69.4451C355.918 70.6287 356.499 71.7159 357.352 72.5692C358.206 73.4226 359.293 74.0037 360.477 74.2391C361.66 74.4746 362.887 74.3537 364.002 73.8919C365.117 73.4301 366.07 72.648 366.74 71.6446C367.411 70.6412 367.769 69.4615 367.769 68.2547C367.769 67.4534 367.611 66.66 367.304 65.9197C366.997 65.1794 366.548 64.5067 365.981 63.9401C365.415 63.3735 364.742 62.9241 364.002 62.6174C363.262 62.3108 362.468 62.153 361.667 62.153ZM361.667 71.3055C361.063 71.3055 360.474 71.1266 359.972 70.7914C359.47 70.4561 359.079 69.9797 358.848 69.4222C358.617 68.8647 358.557 68.2513 358.675 67.6595C358.792 67.0677 359.083 66.5241 359.51 66.0974C359.936 65.6707 360.48 65.3802 361.072 65.2625C361.664 65.1447 362.277 65.2051 362.834 65.4361C363.392 65.667 363.868 66.058 364.204 66.5597C364.539 67.0614 364.718 67.6513 364.718 68.2547C364.718 68.6553 364.639 69.052 364.486 69.4222C364.332 69.7923 364.107 70.1287 363.824 70.412C363.541 70.6952 363.205 70.92 362.834 71.0733C362.464 71.2266 362.068 71.3055 361.667 71.3055ZM329.125 70.2886C328.722 70.2886 328.329 70.1693 327.995 69.9458C327.66 69.7223 327.399 69.4047 327.245 69.033C327.092 68.6614 327.051 68.2524 327.13 67.8579C327.208 67.4633 327.402 67.1009 327.686 66.8165C327.971 66.532 328.333 66.3383 328.728 66.2599C329.122 66.1814 329.531 66.2217 329.903 66.3756C330.275 66.5295 330.592 66.7902 330.816 67.1247C331.039 67.4592 331.158 67.8524 331.158 68.2547C331.158 68.5218 331.106 68.7863 331.004 69.033C330.901 69.2798 330.752 69.504 330.563 69.6929C330.374 69.8817 330.15 70.0315 329.903 70.1338C329.656 70.236 329.392 70.2886 329.125 70.2886ZM322.514 71.3055C321.911 71.3055 321.321 71.1266 320.819 70.7914C320.318 70.4561 319.927 69.9797 319.696 69.4222C319.465 68.8647 319.404 68.2513 319.522 67.6595C319.64 67.0677 319.93 66.5241 320.357 66.0974C320.784 65.6707 321.327 65.3802 321.919 65.2625C322.511 65.1447 323.124 65.2051 323.682 65.4361C324.239 65.667 324.716 66.058 325.051 66.5597C325.386 67.0614 325.565 67.6513 325.565 68.2547C325.565 68.6553 325.486 69.052 325.333 69.4222C325.18 69.7923 324.955 70.1287 324.672 70.412C324.388 70.6952 324.052 70.92 323.682 71.0733C323.312 71.2266 322.915 71.3055 322.514 71.3055ZM315.396 70.2886C314.993 70.2886 314.6 70.1693 314.266 69.9458C313.931 69.7223 313.671 69.4047 313.517 69.033C313.363 68.6614 313.322 68.2524 313.401 67.8579C313.479 67.4633 313.673 67.1009 313.958 66.8165C314.242 66.532 314.604 66.3383 314.999 66.2599C315.393 66.1814 315.802 66.2217 316.174 66.3756C316.546 66.5295 316.863 66.7902 317.087 67.1247C317.31 67.4592 317.43 67.8524 317.43 68.2547C317.43 68.5218 317.377 68.7863 317.275 69.033C317.173 69.2798 317.023 69.504 316.834 69.6929C316.645 69.8817 316.421 70.0315 316.174 70.1338C315.927 70.236 315.663 70.2886 315.396 70.2886Z" fill="#1F1F1F"/>
<path d="M340.816 59.6123H341.833V76.9004H340.816V59.6123Z" fill="#F4F4F4"/>
<path d="M164.648 64.608H175.4V70.016H170.792C170.712 70.32 170.632 70.608 170.536 70.896H177.096V72.304H171.928C173.24 73.264 175.096 73.936 177.496 74.336L176.664 75.648C173.8 75.04 171.64 73.92 170.168 72.304H169.832C169.528 72.752 169.176 73.168 168.76 73.536C167.72 74.464 165.88 75.184 163.224 75.712L162.648 74.336C164.92 73.92 166.552 73.344 167.56 72.576C167.672 72.48 167.784 72.4 167.88 72.304H163V70.896H168.92C169.048 70.608 169.16 70.304 169.24 70.016H164.648V64.608ZM173.928 68.752V67.872H166.12V68.752H173.928ZM166.12 66.752H173.928V65.856H166.12V66.752ZM163.048 62.016H166.632V60.944H168.152V62.016H171.976V60.928H173.496V62.016H177.032V63.424H173.496V64.304H171.976V63.424H168.152V64.304H166.632V63.424H163.048V62.016ZM181.304 75.504H179.896L179.56 74.032C179.976 74.08 180.392 74.112 180.776 74.112C181.144 74.112 181.336 73.92 181.336 73.552V70.128C180.792 70.336 180.232 70.528 179.672 70.72L179.304 69.184C179.992 69.024 180.664 68.816 181.336 68.576V65.28H179.528V63.824H181.336V60.928H182.872V63.824H184.36V65.28H182.872V67.936C183.288 67.744 183.688 67.536 184.088 67.312V68.864C183.672 69.072 183.272 69.28 182.872 69.472V73.952C182.872 74.976 182.344 75.504 181.304 75.504ZM185.448 61.376H192.648V67.152H185.448V61.376ZM191.16 65.92V64.832H186.92V65.92H191.16ZM186.92 63.68H191.16V62.608H186.92V63.68ZM184.408 67.984H193.608V69.344H189.768V70.816H192.92V72.16H189.768V73.856C190.36 73.92 191.048 73.968 191.848 73.968C192.712 73.968 193.448 73.936 194.056 73.872L193.64 75.344C193.016 75.344 192.456 75.328 191.944 75.312C189.816 75.296 188.36 75.104 187.576 74.72C187.016 74.432 186.504 73.92 186.056 73.184C185.688 74.064 185.208 74.88 184.616 75.632L183.48 74.656C184.632 73.216 185.272 71.632 185.4 69.872L186.744 70.032C186.712 70.608 186.632 71.152 186.52 71.68C187 72.608 187.544 73.216 188.168 73.472L188.312 73.52V69.344H184.408V67.984ZM202.888 60.816C203.352 61.616 203.8 62.528 204.232 63.552H209.192V64.704C207.368 68.16 204.728 70.832 201.256 72.688C201.928 73.328 202.744 73.68 203.704 73.76C204.456 73.792 205.528 73.808 206.92 73.808C207.768 73.808 208.936 73.776 210.44 73.712L210.072 75.216H207.16C205.736 75.216 204.712 75.2 204.104 75.184C202.36 75.152 201.048 74.64 200.152 73.616C199.816 73.264 199.544 73.088 199.32 73.088C198.968 73.088 198.36 73.92 197.496 75.6L196.28 74.752C197.368 72.576 198.392 71.504 199.352 71.504C199.56 71.504 199.752 71.552 199.928 71.648C199.976 71.664 200.024 71.68 200.056 71.712C203.208 70.048 205.624 67.824 207.32 65.04H197.288V63.552H202.568C202.152 62.672 201.672 61.856 201.128 61.104L202.888 60.816ZM226.872 63.808C226.872 67.168 226.776 69.2 226.6 69.92C226.424 70.624 225.704 70.992 224.424 70.992H224.36L223.912 69.504C224.232 69.52 224.504 69.536 224.744 69.536C225.048 69.536 225.24 69.36 225.304 69.04C225.368 68.752 225.4 67.664 225.416 65.792L223.464 66.368V72.24H221.992V66.816L220.04 67.408V73.264C220.04 73.712 220.296 73.936 220.808 73.936H225.128C225.384 73.936 225.576 73.824 225.704 73.6C225.848 73.376 225.944 72.672 226.008 71.456L227.416 71.904C227.288 73.568 227.08 74.576 226.76 74.896C226.456 75.2 226.008 75.36 225.416 75.36H220.344C219.144 75.36 218.552 74.752 218.552 73.568V67.856L217.432 68.192V66.704L218.552 66.368V62.512H220.04V65.904L221.992 65.312V60.88H223.464V64.864L226.872 63.808ZM217.624 70.544V72.064C216.136 72.752 214.552 73.328 212.856 73.808L212.472 72.272C213.112 72.144 213.752 71.984 214.376 71.808V66.48H212.68V65.008H214.376V60.976H215.864V65.008H217.4V66.48H215.864V71.296C216.456 71.072 217.048 70.816 217.624 70.544Z" fill="#1F1F1F"/>
<path d="M390 89V90H0V89H390Z" fill="#F3F4F6"/>
<path fill-rule="evenodd" clip-rule="evenodd" d="M155 194C155 171.909 172.909 154 195 154C217.091 154 235 171.909 235 194C235 216.091 217.091 234 195 234C172.909 234 155 216.091 155 194ZM157.689 194C157.689 175.474 171.192 160.101 188.893 157.187C190.483 156.925 191.278 156.794 191.641 157.319C192.005 157.844 191.586 158.569 190.748 160.02L163.442 207.315C162.605 208.766 162.186 209.491 161.549 209.439C160.913 209.386 160.629 208.632 160.063 207.124C158.528 203.042 157.689 198.619 157.689 194ZM195 231.311C183.392 231.311 173.023 226.01 166.18 217.698C165.154 216.451 164.641 215.828 164.914 215.25C165.186 214.672 166.025 214.672 167.703 214.672H222.297C223.975 214.672 224.814 214.672 225.086 215.25C225.359 215.828 224.846 216.451 223.82 217.698C216.977 226.01 206.608 231.311 195 231.311ZM232.311 194C232.311 198.619 231.472 203.042 229.937 207.125C229.37 208.632 229.087 209.386 228.451 209.439C227.814 209.491 227.395 208.766 226.558 207.315L199.252 160.02C198.414 158.569 197.995 157.844 198.359 157.319C198.722 156.794 199.517 156.925 201.107 157.186C218.808 160.101 232.311 175.474 232.311 194ZM213.624 195.434C214.433 192.593 214.178 191.251 212.702 188.695L196.747 161.059C195.97 159.714 195.582 159.042 195 159.042C194.418 159.042 194.03 159.714 193.253 161.059L177.298 188.695C175.823 191.25 175.593 192.589 176.386 195.432C176.558 196.049 176.742 196.631 176.96 197.17C177.568 198.676 178.129 199.042 178.7 199.042C179.191 199.042 179.651 198.788 180.164 197.781C180.83 196.474 181.14 194.99 181.495 193.578C181.878 192.052 182.31 190.333 182.989 188.999C183.696 187.612 184.871 186.269 186.85 186.269C188.828 186.269 190.004 187.612 190.711 188.999C192.119 191.764 192.133 195.026 193.535 197.781C194.049 198.788 194.509 199.042 195 199.042C195.491 199.042 195.951 198.788 196.464 197.781C197.868 195.024 197.881 191.766 199.289 188.999C199.996 187.612 201.172 186.269 203.15 186.269C205.128 186.269 206.304 187.612 207.011 188.999C207.69 190.333 208.122 192.052 208.505 193.578C208.86 194.99 209.17 196.474 209.836 197.781C210.349 198.788 210.809 199.042 211.3 199.042C211.871 199.042 212.432 198.676 213.04 197.17C213.269 196.603 213.457 196.022 213.624 195.434ZM215.534 198.177C216.007 197.005 216.318 196.419 216.682 196.352C216.734 196.342 216.629 196.339 216.682 196.341C217.051 196.357 217.423 196.872 218.018 197.901L224.401 208.958C225.177 210.303 225.566 210.975 225.274 211.479C224.983 211.983 224.207 211.983 222.655 211.983H167.345C165.793 211.983 165.017 211.983 164.725 211.479C164.434 210.975 164.822 210.303 165.599 208.958L171.982 197.901C172.577 196.872 172.949 196.357 173.318 196.341C173.371 196.339 173.266 196.342 173.318 196.352C173.682 196.419 173.993 197.005 174.466 198.177C175.139 199.842 176.335 201.731 178.7 201.731C180.678 201.731 181.854 200.388 182.561 199.001C183.305 197.539 183.681 195.909 184.079 194.328C184.492 192.684 184.859 191.253 185.385 190.219C185.898 189.212 186.359 188.958 186.85 188.958C187.341 188.958 187.801 189.212 188.314 190.219C188.841 191.253 189.208 192.684 189.621 194.328C190.018 195.909 190.395 197.539 191.139 199.001C191.846 200.388 193.022 201.731 195 201.731C196.978 201.731 198.154 200.388 198.861 199.001C199.605 197.539 199.981 195.909 200.379 194.328C200.792 192.684 201.159 191.253 201.686 190.219C202.199 189.212 202.659 188.958 203.15 188.958C203.641 188.958 204.101 189.212 204.614 190.219C205.141 191.253 205.508 192.684 205.921 194.328C206.318 195.909 206.695 197.539 207.439 199.001C208.146 200.388 209.322 201.731 211.3 201.731C213.665 201.731 214.861 199.842 215.534 198.177Z" fill="#1F1F1F"/>
<path d="M93.24 261.992C94.296 262.824 95.192 263.656 95.928 264.488L94.728 265.672C94.12 264.872 93.24 264.008 92.088 263.08L93.24 261.992ZM102.344 276.408C101.811 276.408 100.872 276.397 99.528 276.376C98.536 276.365 97.6933 276.275 97 276.104C96.3707 275.912 95.8213 275.544 95.352 275C95.1493 274.733 94.952 274.6 94.76 274.6C94.4507 274.6 93.9013 275.315 93.112 276.744L91.88 275.608C92.6907 274.317 93.4053 273.501 94.024 273.16V268.776H91.912V267.24H95.576V273.336L95.736 273.496C96.088 273.912 96.4507 274.227 96.824 274.44C97.2827 274.675 97.976 274.808 98.904 274.84C100.12 274.861 101.187 274.872 102.104 274.872L104.536 274.856C105.357 274.824 105.981 274.792 106.408 274.76L106.008 276.408H102.344ZM96.808 264.216H98.504V261.832H100.12V264.216H102.136V261.864H103.768V264.216H105.608V265.768H103.768V268.472H106.12V270.04H103.768V274.296H102.136V270.04H99.736C99.288 271.853 98.4827 273.197 97.32 274.072L96.312 272.744C97.144 272.136 97.736 271.235 98.088 270.04H96.248V268.472H98.408C98.472 267.96 98.504 267.421 98.504 266.856V265.768H96.808V264.216ZM100.12 265.768V266.472C100.12 267.08 100.083 267.747 100.008 268.472H102.136V265.768H100.12ZM114.056 265.736C113.341 264.445 112.488 263.448 111.496 262.744L112.888 261.848C114.2 262.776 115.384 264.579 116.44 267.256C117.965 270.968 119.923 273.592 122.312 275.128L121.272 276.456C118.797 274.984 116.701 272.099 114.984 267.8L114.936 267.656C113.848 271.464 111.709 274.403 108.52 276.472L107.496 275.032C110.813 272.845 113 269.747 114.056 265.736ZM125.56 265.576H136.408V271.048H131.816C131.763 271.272 131.688 271.533 131.592 271.832H138.072V273.368H133.112C134.424 274.243 136.221 274.861 138.504 275.224L137.576 276.696C134.749 276.088 132.6 274.979 131.128 273.368H130.824C130.472 273.859 130.125 274.253 129.784 274.552C128.739 275.469 126.888 276.2 124.232 276.744L123.576 275.224C125.848 274.808 127.48 274.232 128.472 273.496C128.515 273.453 128.568 273.411 128.632 273.368H123.944V271.832H129.816C129.923 271.619 130.024 271.357 130.12 271.048H125.56V265.576ZM134.808 269.672V268.92H127.16V269.672H134.808ZM127.16 267.704H134.808V266.936H127.16V267.704ZM123.992 262.952H127.512V261.928H129.176V262.952H132.872V261.912H134.536V262.952H138.008V264.488H134.536V265.304H132.872V264.488H129.176V265.304H127.512V264.488H123.992V262.952ZM140.216 276.52L139.848 274.904C140.264 274.968 140.664 275 141.048 275C141.4 275 141.576 274.824 141.576 274.472V271.24C140.957 271.475 140.429 271.661 139.992 271.8L139.576 270.104C140.269 269.944 140.936 269.752 141.576 269.528V266.36H139.832V264.744H141.576V261.912H143.272V264.744H144.696V266.36H143.272V268.824L144.424 268.232V269.928L143.272 270.504V274.888C143.272 275.976 142.723 276.52 141.624 276.52H140.216ZM145.736 262.344H153V268.184H145.736V262.344ZM151.368 266.84V265.88H147.352V266.84H151.368ZM147.352 264.632H151.368V263.688H147.352V264.632ZM144.712 268.92H153.944V270.408H150.168V271.736H153.224V273.208H150.168V274.76C150.84 274.835 151.501 274.872 152.152 274.872C152.941 274.872 153.688 274.835 154.392 274.76L153.928 276.376C153.48 276.376 152.925 276.365 152.264 276.344C150.12 276.323 148.653 276.125 147.864 275.752C147.331 275.485 146.84 275.005 146.392 274.312C146.029 275.155 145.576 275.939 145.032 276.664L143.784 275.576C144.904 274.168 145.528 272.6 145.656 270.872L147.128 271.048C147.096 271.592 147.021 272.136 146.904 272.68C147.384 273.555 147.923 274.115 148.52 274.36C148.531 274.371 148.541 274.376 148.552 274.376V270.408H144.712V268.92ZM162.664 261.784C163.144 262.637 163.587 263.539 163.992 264.488H168.904V265.752C167.101 269.208 164.499 271.848 161.096 273.672C161.736 274.248 162.504 274.568 163.4 274.632C164.157 274.664 165.229 274.68 166.616 274.68C167.213 274.68 168.387 274.643 170.136 274.568L169.72 276.216H166.872C165.645 276.216 164.627 276.205 163.816 276.184C162.056 276.152 160.733 275.661 159.848 274.712C159.496 274.349 159.213 274.168 159 274.168C158.701 274.168 158.12 274.984 157.256 276.616L155.928 275.688C157.016 273.523 158.051 272.44 159.032 272.44C159.256 272.44 159.453 272.483 159.624 272.568C159.688 272.589 159.731 272.611 159.752 272.632C162.824 271 165.192 268.829 166.856 266.12H156.936V264.488H162.136C161.699 263.603 161.229 262.808 160.728 262.104L162.664 261.784ZM185.96 264.312C185.96 267.907 185.869 270.099 185.688 270.888C185.496 271.645 184.76 272.024 183.48 272.024H183.4L182.888 270.328C183.357 270.349 183.667 270.36 183.816 270.36C184.061 270.36 184.216 270.189 184.28 269.848C184.323 269.485 184.349 268.365 184.36 266.488L182.648 266.968V273.224H181.064V267.416L179.544 267.848V274.024C179.544 274.557 179.795 274.824 180.296 274.824H184.152C184.376 274.824 184.552 274.712 184.68 274.488C184.819 274.253 184.909 273.56 184.952 272.408L186.504 272.904C186.376 274.589 186.152 275.592 185.832 275.912C185.501 276.221 185.043 276.376 184.456 276.376H179.784C178.547 276.376 177.928 275.699 177.928 274.344V268.296L177 268.552V266.92L177.928 266.648V263.496H179.544V266.184L181.064 265.736V261.864H182.648V265.272L185.96 264.312ZM177 273.096C175.357 273.832 173.683 274.429 171.976 274.888L171.544 273.192C172.248 273.053 172.893 272.904 173.48 272.744V267.56H171.768V265.928H173.48V261.928H175.144V265.928H176.744V267.56H175.144V272.2C175.795 271.965 176.413 271.709 177 271.432V273.096ZM189.992 272.6C190.984 272.6 191.48 273.256 191.48 274.568C191.48 276.136 190.749 277.315 189.288 278.104L188.728 277.192C189.677 276.605 190.2 275.864 190.296 274.968C190.168 274.989 190.067 275 189.992 275C189.651 275 189.357 274.888 189.112 274.664C188.877 274.44 188.76 274.157 188.76 273.816C188.76 273.453 188.877 273.16 189.112 272.936C189.357 272.712 189.651 272.6 189.992 272.6ZM204.68 262.664H217.352V264.28H214.84V267.96H218.152V269.576H214.84V276.44H213.16V269.576H209.016C208.856 271.133 208.541 272.456 208.072 273.544C207.443 274.899 206.419 275.933 205 276.648L204.088 275.224C205.379 274.477 206.248 273.539 206.696 272.408C206.984 271.608 207.192 270.664 207.32 269.576H203.864V267.96H207.432L207.448 267.816V264.28H204.68V262.664ZM209.144 264.28V267.816L209.128 267.96H213.16V264.28H209.144ZM233.128 270.264V276.728H231.496V276.008H225.128V276.728H223.496V270.264H233.128ZM225.128 274.44H231.496V271.832H225.128V274.44ZM231.656 265H222.888V266.952H231.656V265ZM222.888 268.488V269.16C222.877 272.083 222.179 274.611 220.792 276.744L219.48 275.56C220.643 273.885 221.229 271.752 221.24 269.16V263.432H226.472C226.269 262.931 226.051 262.44 225.816 261.96L227.56 261.672C227.763 262.173 227.971 262.76 228.184 263.432H233.32V268.488H222.888ZM247.544 267.544V273.48H245.928V269.096H240.072V273.48H238.456V267.544H247.544ZM249.912 264.744V268.232H248.216V266.36H237.8V268.216H236.104V264.744H238.408C238.088 264.157 237.709 263.555 237.272 262.936L238.744 262.232C239.245 262.936 239.715 263.677 240.152 264.456L239.576 264.744H242.472C242.056 263.891 241.635 263.155 241.208 262.536L242.68 261.816C243.139 262.52 243.581 263.283 244.008 264.104L242.744 264.744H245.272C245.88 263.848 246.387 262.904 246.792 261.912L248.456 262.52C247.987 263.416 247.544 264.157 247.128 264.744H249.912ZM241.928 269.944H243.576V271.704L243.56 271.752H244.84V274.136C244.84 274.605 245.053 274.84 245.48 274.84H247.832C248.024 274.84 248.179 274.755 248.296 274.584C248.413 274.403 248.499 273.853 248.552 272.936L250.088 273.432C249.96 274.861 249.747 275.72 249.448 276.008C249.16 276.264 248.717 276.392 248.12 276.392H244.984C243.811 276.392 243.224 275.747 243.224 274.456V273.224C242.936 273.928 242.493 274.525 241.896 275.016C240.872 275.795 239.245 276.392 237.016 276.808L236.072 275.32C238.333 274.936 239.853 274.477 240.632 273.944C241.4 273.357 241.832 272.595 241.928 271.656V269.944ZM265.864 263.384V275.96H264.232V275.08H261.576V275.96H259.96V263.384H265.864ZM261.576 273.528H264.232V264.936H261.576V273.528ZM254.344 265.416C254.003 266.163 253.603 266.872 253.144 267.544L251.672 266.616C252.717 265.08 253.443 263.491 253.848 261.848L255.496 262.216C255.304 262.899 255.139 263.437 255 263.832H259.24V265.416H257.112C257.101 266.333 257.053 267.203 256.968 268.024H259.4V269.608H256.744L256.552 270.568C257.459 271.475 258.435 272.552 259.48 273.8L258.456 275.352C257.507 273.955 256.717 272.877 256.088 272.12C255.405 273.752 254.264 275.139 252.664 276.28L251.576 274.936C253.219 273.709 254.296 272.216 254.808 270.456L255 269.608H251.928V268.024H255.256C255.331 267.309 255.384 266.44 255.416 265.416H254.344ZM271.048 266.232C270.419 267.661 269.619 268.851 268.648 269.8L267.544 268.408C268.973 266.915 269.939 264.893 270.44 262.344L272.152 262.664C271.992 263.421 271.827 264.072 271.656 264.616H274.44V261.992H276.12V264.616H281.192V266.232H276.12V269.368H280.888V270.984H276.12V274.472H282.232V276.136H267.992V274.472H274.44V270.984H269.928V269.368H274.44V266.232H271.048ZM287.832 266.36H292.216V264.36C291.096 264.456 289.901 264.504 288.632 264.504L288.12 263C291.555 263 294.472 262.621 296.872 261.864L297.704 263.272C296.595 263.667 295.331 263.965 293.912 264.168V266.36H298.328V267.96H293.912V269.864H297.4V276.664H295.752V275.912H290.504V276.664H288.856V269.864H292.216V267.96H287.832V266.36ZM290.504 274.344H295.752V271.432H290.504V274.344ZM285.208 261.992C286.264 262.675 287.171 263.373 287.928 264.088L286.792 265.208C286.12 264.515 285.213 263.8 284.072 263.064L285.208 261.992ZM284.84 265.8C285.96 266.611 286.877 267.395 287.592 268.152L286.44 269.304C285.811 268.589 284.888 267.8 283.672 266.936L284.84 265.8ZM287.784 270.712C287.112 272.803 286.387 274.723 285.608 276.472L283.928 275.736C284.845 273.88 285.624 272.008 286.264 270.12L287.784 270.712Z" fill="#1F1F1F"/>
<path d="M35.7014 349.004H36.5974V359H35.4494V350.404C34.8194 351.048 34.0354 351.496 33.0974 351.776V350.628C33.5454 350.502 34.0214 350.306 34.4974 350.026C34.9734 349.718 35.3654 349.382 35.7014 349.004ZM42.4406 348.808C43.3646 348.808 44.1206 349.074 44.7226 349.606C45.3106 350.138 45.6186 350.852 45.6186 351.72C45.6186 352.588 45.2826 353.372 44.6386 354.072C44.2886 354.436 43.6026 354.982 42.5666 355.682C41.2926 356.536 40.5646 357.306 40.3826 357.978H45.6326V359H38.9686C38.9686 358.09 39.2906 357.264 39.9626 356.522C40.3546 356.074 41.0686 355.472 42.1326 354.744C42.9166 354.184 43.4346 353.778 43.7006 353.498C44.2046 352.952 44.4706 352.35 44.4706 351.706C44.4706 351.09 44.2886 350.628 43.9246 350.292C43.5606 349.956 43.0426 349.788 42.3986 349.788C41.7126 349.788 41.1806 350.012 40.8166 350.488C40.4246 350.936 40.2146 351.608 40.2006 352.49H39.0526C39.0526 351.37 39.3746 350.474 39.9906 349.816C40.6066 349.144 41.4326 348.808 42.4406 348.808ZM50.7931 348.808C51.7451 348.808 52.5291 349.046 53.1171 349.536C53.6911 350.026 53.9851 350.684 53.9851 351.524C53.9851 352.644 53.4391 353.4 52.3471 353.764C52.9351 353.946 53.3831 354.226 53.6911 354.618C54.0271 355.01 54.1951 355.5 54.1951 356.088C54.1951 356.998 53.8731 357.74 53.2431 358.314C52.5991 358.902 51.7591 359.196 50.7231 359.196C49.7711 359.196 49.0011 358.944 48.3991 358.468C47.6851 357.88 47.2931 357.026 47.2091 355.906H48.3711C48.3991 356.69 48.6651 357.292 49.1551 357.698C49.5751 358.034 50.0931 358.216 50.7231 358.216C51.4371 358.216 52.0111 358.006 52.4451 357.6C52.8371 357.208 53.0471 356.718 53.0471 356.13C53.0471 355.528 52.8511 355.066 52.4591 354.73C52.0671 354.394 51.5351 354.24 50.8351 354.24H50.0231V353.344H50.7931C51.4651 353.344 51.9691 353.19 52.3191 352.896C52.6691 352.588 52.8511 352.154 52.8511 351.594C52.8511 351.034 52.6691 350.6 52.3331 350.292C51.9691 349.956 51.4511 349.802 50.8071 349.802C50.1351 349.802 49.6171 349.97 49.2391 350.334C48.8471 350.698 48.6231 351.216 48.5531 351.888H47.4191C47.5031 350.922 47.8671 350.166 48.4831 349.62C49.0711 349.074 49.8411 348.808 50.7931 348.808ZM60.2656 349.004H61.3436V355.794H62.9676V356.732H61.3436V359H60.2516V356.732H55.2256V355.64L60.2656 349.004ZM60.2096 350.502L56.1916 355.794H60.2516V350.502H60.2096ZM64.7542 349.004H70.5642V350.026H65.6922L65.3562 353.372H65.4122C65.6922 353.036 66.0562 352.784 66.4902 352.616C66.8822 352.448 67.3022 352.378 67.7642 352.378C68.7162 352.378 69.4862 352.672 70.0742 353.274C70.6622 353.89 70.9702 354.73 70.9702 355.808C70.9702 356.816 70.6062 357.642 69.8922 358.286C69.2202 358.888 68.3802 359.196 67.4002 359.196C66.5182 359.196 65.7622 358.958 65.1462 358.482C64.4462 357.95 64.0682 357.222 63.9982 356.312H65.1322C65.1882 356.942 65.4402 357.432 65.8882 357.768C66.2802 358.062 66.7982 358.216 67.4142 358.216C68.1142 358.216 68.6882 357.992 69.1502 357.544C69.5982 357.096 69.8362 356.522 69.8362 355.822C69.8362 355.024 69.6122 354.408 69.1922 353.974C68.7862 353.526 68.2122 353.316 67.4842 353.316C67.0082 353.316 66.5882 353.414 66.2102 353.624C65.8182 353.82 65.5102 354.128 65.3142 354.52H64.2222L64.7542 349.004ZM76.0187 348.808C77.8667 348.808 78.9307 349.69 79.2107 351.482H78.0767C77.8527 350.334 77.1667 349.774 76.0047 349.774C75.2207 349.774 74.6047 350.152 74.1567 350.936C73.7087 351.664 73.4987 352.602 73.4987 353.736C73.4987 353.792 73.4987 353.918 73.5127 354.1H73.5687C73.8207 353.582 74.1707 353.176 74.6467 352.896C75.0947 352.602 75.6127 352.462 76.2007 352.462C77.1527 352.462 77.9227 352.77 78.5107 353.386C79.0847 354.002 79.3787 354.786 79.3787 355.766C79.3787 356.746 79.0567 357.572 78.4267 358.216C77.7827 358.86 76.9847 359.196 76.0047 359.196C74.7867 359.196 73.8767 358.734 73.2607 357.838C72.6727 356.984 72.3927 355.794 72.3927 354.268C72.3927 352.672 72.7007 351.37 73.3307 350.376C73.9887 349.326 74.8847 348.808 76.0187 348.808ZM75.9767 353.414C75.3187 353.414 74.7727 353.638 74.3387 354.086C73.9047 354.534 73.6947 355.094 73.6947 355.794C73.6947 356.494 73.8907 357.068 74.3107 357.516C74.7307 357.992 75.2767 358.23 75.9767 358.23C76.6487 358.23 77.1947 357.992 77.6147 357.544C78.0347 357.068 78.2447 356.48 78.2447 355.766C78.2447 355.052 78.0347 354.492 77.6287 354.072C77.2087 353.624 76.6627 353.414 75.9767 353.414ZM80.5492 349.004H87.1152V349.942L83.4332 359H82.2152L85.9392 350.054H80.5492V349.004ZM91.9295 348.808C92.9655 348.808 93.7915 349.074 94.3795 349.62C94.9115 350.11 95.1915 350.726 95.1915 351.454C95.1915 351.986 95.0655 352.434 94.8135 352.798C94.5335 353.19 94.1415 353.484 93.6235 353.666V353.694C94.1415 353.82 94.5895 354.114 94.9535 354.562C95.3455 355.038 95.5415 355.598 95.5415 356.242C95.5415 357.124 95.2335 357.838 94.6175 358.37C93.9735 358.916 93.0775 359.196 91.9295 359.196C90.7675 359.196 89.8715 358.916 89.2415 358.37C88.6255 357.838 88.3175 357.124 88.3175 356.242C88.3175 355.598 88.5135 355.038 88.9055 354.562C89.2695 354.114 89.7035 353.82 90.2355 353.694V353.666C89.7035 353.484 89.3115 353.19 89.0455 352.798C88.7935 352.434 88.6675 351.986 88.6675 351.454C88.6675 350.726 88.9335 350.11 89.4795 349.62C90.0675 349.074 90.8795 348.808 91.9295 348.808ZM91.9295 349.746C91.2155 349.746 90.6555 349.928 90.2635 350.292C89.9135 350.6 89.7455 351.006 89.7455 351.496C89.7455 352 89.8995 352.42 90.2075 352.728C90.5715 353.092 91.1455 353.288 91.9295 353.288C92.6995 353.288 93.2735 353.092 93.6515 352.728C93.9595 352.42 94.1135 352 94.1135 351.496C94.1135 351.006 93.9315 350.6 93.5955 350.292C93.1895 349.928 92.6295 349.746 91.9295 349.746ZM91.9295 354.184C91.1175 354.184 90.5015 354.38 90.0675 354.786C89.6475 355.15 89.4515 355.64 89.4515 356.242C89.4515 356.83 89.6475 357.32 90.0675 357.684C90.4875 358.062 91.1175 358.258 91.9295 358.258C92.7415 358.258 93.3575 358.062 93.8055 357.67C94.1975 357.306 94.4075 356.83 94.4075 356.242C94.4075 355.64 94.1975 355.15 93.8055 354.786C93.3575 354.38 92.7275 354.184 91.9295 354.184ZM100.212 348.808C101.416 348.808 102.326 349.256 102.942 350.152C103.53 350.992 103.824 352.196 103.824 353.736C103.824 355.332 103.502 356.62 102.886 357.628C102.214 358.664 101.318 359.196 100.198 359.196C98.336 359.196 97.272 358.3 97.006 356.522H98.14C98.35 357.656 99.036 358.23 100.212 358.23C100.982 358.23 101.598 357.838 102.06 357.068C102.494 356.326 102.718 355.388 102.718 354.268C102.718 354.198 102.704 354.072 102.704 353.904H102.648C102.396 354.408 102.032 354.814 101.57 355.108C101.122 355.388 100.604 355.542 100.016 355.542C99.05 355.542 98.28 355.22 97.692 354.59C97.118 353.988 96.838 353.204 96.838 352.238C96.838 351.244 97.146 350.432 97.79 349.788C98.42 349.13 99.232 348.808 100.212 348.808ZM100.24 349.774C99.554 349.774 99.008 349.998 98.588 350.46C98.168 350.922 97.972 351.51 97.972 352.238C97.972 352.938 98.168 353.512 98.588 353.932C98.994 354.366 99.54 354.59 100.24 354.59C100.884 354.59 101.43 354.366 101.878 353.918C102.298 353.47 102.522 352.896 102.522 352.21C102.522 351.51 102.312 350.936 101.906 350.488C101.486 350.012 100.926 349.774 100.24 349.774Z" fill="#1F1F1F"/>
<path d="M32 376H358" stroke="#E5E5E5" stroke-width="1.3" stroke-linecap="round" stroke-linejoin="round"/>
<path d="M36.4591 412.808C37.3831 412.808 38.1391 413.074 38.7411 413.606C39.3291 414.138 39.6371 414.852 39.6371 415.72C39.6371 416.588 39.3011 417.372 38.6571 418.072C38.3071 418.436 37.6211 418.982 36.5851 419.682C35.3111 420.536 34.5831 421.306 34.4011 421.978H39.6511V423H32.9871C32.9871 422.09 33.3091 421.264 33.9811 420.522C34.3731 420.074 35.0871 419.472 36.1511 418.744C36.9351 418.184 37.4531 417.778 37.7191 417.498C38.2231 416.952 38.4891 416.35 38.4891 415.706C38.4891 415.09 38.3071 414.628 37.9431 414.292C37.5791 413.956 37.0611 413.788 36.4171 413.788C35.7311 413.788 35.1991 414.012 34.8351 414.488C34.4431 414.936 34.2331 415.608 34.2191 416.49H33.0711C33.0711 415.37 33.3931 414.474 34.0091 413.816C34.6251 413.144 35.4511 412.808 36.4591 412.808ZM44.8117 412.808C45.7637 412.808 46.5477 413.046 47.1357 413.536C47.7097 414.026 48.0037 414.684 48.0037 415.524C48.0037 416.644 47.4577 417.4 46.3657 417.764C46.9537 417.946 47.4017 418.226 47.7097 418.618C48.0457 419.01 48.2137 419.5 48.2137 420.088C48.2137 420.998 47.8917 421.74 47.2617 422.314C46.6177 422.902 45.7777 423.196 44.7417 423.196C43.7897 423.196 43.0197 422.944 42.4177 422.468C41.7037 421.88 41.3117 421.026 41.2277 419.906H42.3897C42.4177 420.69 42.6837 421.292 43.1737 421.698C43.5937 422.034 44.1117 422.216 44.7417 422.216C45.4557 422.216 46.0297 422.006 46.4637 421.6C46.8557 421.208 47.0657 420.718 47.0657 420.13C47.0657 419.528 46.8697 419.066 46.4777 418.73C46.0857 418.394 45.5537 418.24 44.8537 418.24H44.0417V417.344H44.8117C45.4837 417.344 45.9877 417.19 46.3377 416.896C46.6877 416.588 46.8697 416.154 46.8697 415.594C46.8697 415.034 46.6877 414.6 46.3517 414.292C45.9877 413.956 45.4697 413.802 44.8257 413.802C44.1537 413.802 43.6357 413.97 43.2577 414.334C42.8657 414.698 42.6417 415.216 42.5717 415.888H41.4377C41.5217 414.922 41.8857 414.166 42.5017 413.62C43.0897 413.074 43.8597 412.808 44.8117 412.808ZM53.2062 412.808C54.1582 412.808 54.9422 413.046 55.5302 413.536C56.1042 414.026 56.3982 414.684 56.3982 415.524C56.3982 416.644 55.8522 417.4 54.7602 417.764C55.3482 417.946 55.7962 418.226 56.1042 418.618C56.4402 419.01 56.6082 419.5 56.6082 420.088C56.6082 420.998 56.2862 421.74 55.6562 422.314C55.0122 422.902 54.1722 423.196 53.1362 423.196C52.1842 423.196 51.4142 422.944 50.8122 422.468C50.0982 421.88 49.7062 421.026 49.6222 419.906H50.7842C50.8122 420.69 51.0782 421.292 51.5682 421.698C51.9882 422.034 52.5062 422.216 53.1362 422.216C53.8502 422.216 54.4242 422.006 54.8582 421.6C55.2502 421.208 55.4602 420.718 55.4602 420.13C55.4602 419.528 55.2642 419.066 54.8722 418.73C54.4802 418.394 53.9482 418.24 53.2482 418.24H52.4362V417.344H53.2062C53.8782 417.344 54.3822 417.19 54.7322 416.896C55.0822 416.588 55.2642 416.154 55.2642 415.594C55.2642 415.034 55.0822 414.6 54.7462 414.292C54.3822 413.956 53.8642 413.802 53.2202 413.802C52.5482 413.802 52.0302 413.97 51.6522 414.334C51.2602 414.698 51.0362 415.216 50.9662 415.888H49.8322C49.9162 414.922 50.2802 414.166 50.8962 413.62C51.4842 413.074 52.2542 412.808 53.2062 412.808ZM62.6787 413.004H63.7567V419.794H65.3807V420.732H63.7567V423H62.6647V420.732H57.6387V419.64L62.6787 413.004ZM62.6227 414.502L58.6047 419.794H62.6647V414.502H62.6227ZM69.9953 412.808C70.9473 412.808 71.7313 413.046 72.3193 413.536C72.8933 414.026 73.1873 414.684 73.1873 415.524C73.1873 416.644 72.6413 417.4 71.5493 417.764C72.1373 417.946 72.5853 418.226 72.8933 418.618C73.2293 419.01 73.3973 419.5 73.3973 420.088C73.3973 420.998 73.0753 421.74 72.4453 422.314C71.8013 422.902 70.9613 423.196 69.9253 423.196C68.9733 423.196 68.2033 422.944 67.6013 422.468C66.8873 421.88 66.4953 421.026 66.4113 419.906H67.5733C67.6013 420.69 67.8673 421.292 68.3573 421.698C68.7773 422.034 69.2953 422.216 69.9253 422.216C70.6393 422.216 71.2133 422.006 71.6473 421.6C72.0393 421.208 72.2493 420.718 72.2493 420.13C72.2493 419.528 72.0533 419.066 71.6613 418.73C71.2693 418.394 70.7373 418.24 70.0373 418.24H69.2253V417.344H69.9953C70.6673 417.344 71.1713 417.19 71.5213 416.896C71.8713 416.588 72.0533 416.154 72.0533 415.594C72.0533 415.034 71.8713 414.6 71.5353 414.292C71.1713 413.956 70.6533 413.802 70.0093 413.802C69.3373 413.802 68.8193 413.97 68.4413 414.334C68.0493 414.698 67.8253 415.216 67.7553 415.888H66.6213C66.7053 414.922 67.0693 414.166 67.6853 413.62C68.2733 413.074 69.0433 412.808 69.9953 412.808ZM75.5618 413.004H81.3718V414.026H76.4998L76.1638 417.372H76.2198C76.4998 417.036 76.8638 416.784 77.2978 416.616C77.6898 416.448 78.1098 416.378 78.5718 416.378C79.5238 416.378 80.2938 416.672 80.8818 417.274C81.4698 417.89 81.7778 418.73 81.7778 419.808C81.7778 420.816 81.4138 421.642 80.6998 422.286C80.0278 422.888 79.1878 423.196 78.2078 423.196C77.3258 423.196 76.5698 422.958 75.9538 422.482C75.2538 421.95 74.8758 421.222 74.8058 420.312H75.9398C75.9958 420.942 76.2478 421.432 76.6958 421.768C77.0878 422.062 77.6058 422.216 78.2218 422.216C78.9218 422.216 79.4958 421.992 79.9578 421.544C80.4058 421.096 80.6438 420.522 80.6438 419.822C80.6438 419.024 80.4198 418.408 79.9998 417.974C79.5938 417.526 79.0198 417.316 78.2918 417.316C77.8158 417.316 77.3958 417.414 77.0178 417.624C76.6258 417.82 76.3178 418.128 76.1218 418.52H75.0298L75.5618 413.004ZM86.8263 412.808C88.6743 412.808 89.7383 413.69 90.0183 415.482H88.8843C88.6603 414.334 87.9743 413.774 86.8123 413.774C86.0283 413.774 85.4123 414.152 84.9643 414.936C84.5163 415.664 84.3063 416.602 84.3063 417.736C84.3063 417.792 84.3063 417.918 84.3203 418.1H84.3763C84.6283 417.582 84.9783 417.176 85.4543 416.896C85.9023 416.602 86.4203 416.462 87.0083 416.462C87.9603 416.462 88.7303 416.77 89.3183 417.386C89.8923 418.002 90.1863 418.786 90.1863 419.766C90.1863 420.746 89.8643 421.572 89.2343 422.216C88.5903 422.86 87.7923 423.196 86.8123 423.196C85.5943 423.196 84.6843 422.734 84.0683 421.838C83.4803 420.984 83.2003 419.794 83.2003 418.268C83.2003 416.672 83.5083 415.37 84.1383 414.376C84.7963 413.326 85.6923 412.808 86.8263 412.808ZM86.7843 417.414C86.1263 417.414 85.5803 417.638 85.1463 418.086C84.7123 418.534 84.5023 419.094 84.5023 419.794C84.5023 420.494 84.6983 421.068 85.1183 421.516C85.5383 421.992 86.0843 422.23 86.7843 422.23C87.4563 422.23 88.0023 421.992 88.4223 421.544C88.8423 421.068 89.0523 420.48 89.0523 419.766C89.0523 419.052 88.8423 418.492 88.4363 418.072C88.0163 417.624 87.4703 417.414 86.7843 417.414Z" fill="#1F1F1F"/>
<path d="M278.149 417.904H269.357V422.034C269.357 422.65 269.679 422.972 270.323 422.972H277.351C277.687 422.972 277.967 422.888 278.177 422.72C278.457 422.468 278.639 421.572 278.723 420.032L279.703 420.34C279.563 422.076 279.325 423.112 278.989 423.476C278.681 423.77 278.219 423.924 277.631 423.952H270.043C268.909 423.952 268.349 423.364 268.349 422.216V414.866H269.357V416.938H277.127V413.284H267.789V412.304H278.149V417.904ZM282.083 415.86L283.189 411.968L284.183 412.136L283.385 414.894H285.835C286.115 413.802 286.339 412.668 286.507 411.464L287.529 411.59C287.347 412.766 287.123 413.858 286.871 414.894H293.423V415.86H286.605C286.437 416.42 286.269 416.952 286.073 417.456H291.799V418.324C291.421 419.528 290.665 420.62 289.517 421.6C290.651 422.272 292.037 422.888 293.661 423.448L293.143 424.386C291.351 423.728 289.867 423.014 288.691 422.244C287.543 423.056 286.115 423.784 284.421 424.442L283.889 423.504C285.457 422.93 286.759 422.3 287.809 421.614C286.717 420.774 285.947 419.864 285.485 418.884C284.463 421.096 283.147 422.846 281.551 424.148L281.033 423.224C283.077 421.432 284.575 418.982 285.555 415.86H282.083ZM286.241 418.38C286.717 419.332 287.515 420.214 288.635 421.026C289.671 420.214 290.385 419.332 290.777 418.38H286.241ZM289.881 411.576C290.889 412.346 291.715 413.116 292.387 413.886L291.673 414.6C291.085 413.858 290.259 413.074 289.209 412.234L289.881 411.576ZM296.223 411.786C297.189 412.514 298.001 413.228 298.659 413.956L297.931 414.67C297.357 413.984 296.559 413.242 295.537 412.444L296.223 411.786ZM304.413 424.148C303.643 424.148 302.803 424.134 301.907 424.12C300.997 424.106 300.255 424.022 299.695 423.868C299.135 423.7 298.631 423.35 298.197 422.846C298.001 422.608 297.819 422.496 297.651 422.496C297.315 422.496 296.755 423.126 295.985 424.414L295.229 423.742C295.971 422.566 296.629 421.852 297.203 421.6V417.344H295.215V416.42H298.141V421.656C298.253 421.74 298.365 421.838 298.491 421.978C298.827 422.384 299.191 422.678 299.583 422.86C300.031 423.056 300.661 423.168 301.501 423.196C302.243 423.21 303.167 423.224 304.273 423.224C304.917 423.224 305.589 423.21 306.275 423.196C306.947 423.182 307.465 423.168 307.829 423.14L307.591 424.148H304.413ZM299.443 417.078H302.831C302.915 416.476 302.971 415.79 302.999 415.006H299.919V414.082H304.147C304.581 413.27 304.959 412.402 305.267 411.478L306.219 411.814C305.911 412.668 305.561 413.424 305.169 414.082H306.989V415.006H303.993C303.965 415.79 303.923 416.49 303.839 417.078H307.465V418.03H303.657C303.265 419.724 302.033 421.124 299.961 422.23L299.317 421.418C301.081 420.55 302.187 419.43 302.607 418.03H299.443V417.078ZM301.361 411.59C301.823 412.206 302.257 412.892 302.677 413.634L301.823 414.054C301.403 413.298 300.941 412.612 300.451 412.024L301.361 411.59ZM304.301 418.856C305.463 419.668 306.513 420.55 307.451 421.502L306.751 422.258C305.771 421.222 304.763 420.312 303.699 419.528L304.301 418.856ZM320.359 411.422H321.339C320.779 412.346 320.331 413.312 320.009 414.32C319.589 415.552 319.393 416.756 319.393 417.96C319.393 419.15 319.589 420.368 320.009 421.6C320.331 422.594 320.779 423.56 321.339 424.498H320.359C319.743 423.588 319.267 422.622 318.917 421.614C318.497 420.41 318.301 419.192 318.301 417.974C318.301 416.728 318.497 415.51 318.917 414.306C319.267 413.284 319.743 412.318 320.359 411.422ZM325.679 413.004H326.575V423H325.427V414.404C324.797 415.048 324.013 415.496 323.075 415.776V414.628C323.523 414.502 323.999 414.306 324.475 414.026C324.951 413.718 325.343 413.382 325.679 413.004ZM332.278 412.808C333.314 412.808 334.14 413.074 334.728 413.62C335.26 414.11 335.54 414.726 335.54 415.454C335.54 415.986 335.414 416.434 335.162 416.798C334.882 417.19 334.49 417.484 333.972 417.666V417.694C334.49 417.82 334.938 418.114 335.302 418.562C335.694 419.038 335.89 419.598 335.89 420.242C335.89 421.124 335.582 421.838 334.966 422.37C334.322 422.916 333.426 423.196 332.278 423.196C331.116 423.196 330.22 422.916 329.59 422.37C328.974 421.838 328.666 421.124 328.666 420.242C328.666 419.598 328.862 419.038 329.254 418.562C329.618 418.114 330.052 417.82 330.584 417.694V417.666C330.052 417.484 329.66 417.19 329.394 416.798C329.142 416.434 329.016 415.986 329.016 415.454C329.016 414.726 329.282 414.11 329.828 413.62C330.416 413.074 331.228 412.808 332.278 412.808ZM332.278 413.746C331.564 413.746 331.004 413.928 330.612 414.292C330.262 414.6 330.094 415.006 330.094 415.496C330.094 416 330.248 416.42 330.556 416.728C330.92 417.092 331.494 417.288 332.278 417.288C333.048 417.288 333.622 417.092 334 416.728C334.308 416.42 334.462 416 334.462 415.496C334.462 415.006 334.28 414.6 333.944 414.292C333.538 413.928 332.978 413.746 332.278 413.746ZM332.278 418.184C331.466 418.184 330.85 418.38 330.416 418.786C329.996 419.15 329.8 419.64 329.8 420.242C329.8 420.83 329.996 421.32 330.416 421.684C330.836 422.062 331.466 422.258 332.278 422.258C333.09 422.258 333.706 422.062 334.154 421.67C334.546 421.306 334.756 420.83 334.756 420.242C334.756 419.64 334.546 419.15 334.154 418.786C333.706 418.38 333.076 418.184 332.278 418.184ZM339.903 415.566C341.695 415.566 342.675 416.308 342.871 417.82H341.779C341.681 417.372 341.499 417.036 341.219 416.84C340.911 416.616 340.463 416.504 339.889 416.504C339.385 416.504 338.993 416.588 338.713 416.784C338.405 416.966 338.251 417.218 338.251 417.54C338.251 417.848 338.447 418.114 338.867 418.324C339.133 418.45 339.637 418.604 340.365 418.8C341.233 419.01 341.849 419.234 342.227 419.472C342.801 419.836 343.095 420.326 343.095 420.956C343.095 422.44 342.073 423.196 340.029 423.196C338.125 423.196 337.089 422.356 336.921 420.69H338.013C338.097 421.264 338.307 421.67 338.615 421.922C338.923 422.146 339.385 422.258 340.001 422.258C341.289 422.258 341.947 421.838 341.947 421.026C341.947 420.62 341.709 420.312 341.261 420.088C341.023 419.976 340.505 419.822 339.721 419.626C338.867 419.416 338.265 419.206 337.929 418.982C337.369 418.646 337.103 418.184 337.103 417.568C337.103 416.952 337.369 416.476 337.915 416.112C338.419 415.748 339.091 415.566 339.903 415.566ZM344.661 411.422H345.641C346.243 412.318 346.719 413.284 347.083 414.306C347.489 415.51 347.699 416.728 347.699 417.974C347.699 419.192 347.489 420.41 347.083 421.614C346.719 422.622 346.243 423.588 345.641 424.498H344.661C345.221 423.56 345.655 422.594 345.991 421.6C346.397 420.368 346.607 419.15 346.607 417.96C346.607 416.756 346.397 415.552 345.991 414.32C345.655 413.312 345.221 412.346 344.661 411.422Z" fill="#1F1F1F" fill-opacity="0.4"/>
<path d="M32 440H358" stroke="#E5E5E5" stroke-width="1.3" stroke-linecap="round" stroke-linejoin="round"/>
<g clip-path="url(#clip1_4199_52128)">
<path d="M39.9999 456.962C38.5089 456.962 37.0514 457.404 35.8117 458.232C34.5721 459.06 33.6058 460.238 33.0353 461.615C32.4647 462.993 32.3154 464.508 32.6063 465.971C32.8972 467.433 33.6151 468.776 34.6694 469.831C35.7237 470.885 37.0669 471.603 38.5292 471.894C39.9915 472.184 41.5073 472.035 42.8847 471.465C44.2622 470.894 45.4396 469.928 46.2679 468.688C47.0962 467.448 47.5384 465.991 47.5384 464.5C47.5384 462.501 46.7441 460.583 45.3304 459.17C43.9167 457.756 41.9992 456.962 39.9999 456.962ZM40.8614 460.183L40.6153 465.722H39.3845L39.1384 460.183H40.8614ZM39.9999 468.817C39.7869 468.817 39.5787 468.754 39.4016 468.635C39.2245 468.517 39.0865 468.349 39.0049 468.152C38.9234 467.955 38.9021 467.739 38.9437 467.53C38.9852 467.321 39.0878 467.129 39.2384 466.979C39.389 466.828 39.5809 466.725 39.7898 466.684C39.9987 466.642 40.2152 466.664 40.412 466.745C40.6088 466.827 40.777 466.965 40.8953 467.142C41.0137 467.319 41.0768 467.527 41.0768 467.74C41.0768 467.881 41.049 468.021 40.9948 468.152C40.9407 468.283 40.8614 468.402 40.7614 468.502C40.6614 468.602 40.5427 468.681 40.412 468.735C40.2814 468.789 40.1413 468.817 39.9999 468.817Z" fill="#D7942B"/>
</g>
<path d="M62.396 462.724C61.964 463.204 61.508 463.636 61.028 464.008L60.572 463.312C61.916 462.268 62.96 460.912 63.68 459.244H64.472C65.072 460.78 66.128 462.112 67.616 463.264L67.148 463.984C66.632 463.588 66.176 463.168 65.768 462.724V463.468H62.396V462.724ZM65.732 462.676C65.036 461.884 64.484 461.02 64.076 460.084C63.596 461.092 63.056 461.956 62.432 462.676H65.732ZM60.92 468.952H64.82C65.276 467.68 65.684 466.096 66.044 464.212L66.872 464.416C66.536 466.12 66.14 467.632 65.66 468.952H67.472V469.78H60.92V468.952ZM62.024 464.56C62.408 465.556 62.744 466.708 63.056 468.004L62.312 468.184C62.048 467.008 61.7 465.892 61.28 464.812L62.024 464.56ZM63.872 464.212C64.196 465.16 64.484 466.252 64.748 467.488L63.992 467.668C63.776 466.552 63.488 465.472 63.128 464.44L63.872 464.212ZM59.576 460.54H56.672V459.748H60.44L59.864 464.692H60.608C60.608 467.428 60.488 469 60.26 469.42C60.02 469.828 59.528 470.044 58.772 470.044C58.496 470.044 58.208 470.032 57.92 470.008L57.692 469.24C58.112 469.288 58.412 469.312 58.58 469.312C59.156 469.312 59.504 469.12 59.624 468.76C59.744 468.376 59.816 467.284 59.816 465.46H56.756L57.32 461.344L58.112 461.392L57.632 464.692H59.048L59.576 460.54ZM59.132 466.528V467.308C58.34 467.608 57.452 467.848 56.456 468.04L56.348 467.224C57.404 467.044 58.34 466.816 59.132 466.528ZM75.968 460.612H72.596V459.76H79.328V460.612H76.844V463.984H79.16V464.788H76.844V468.94H79.568V469.792H72.224V468.94H73.448V462.592H74.288V468.94H75.968V460.612ZM69.992 459.316C70.772 459.94 71.432 460.552 71.972 461.164L71.384 461.764C70.892 461.164 70.232 460.54 69.392 459.88L69.992 459.316ZM68.528 462.868H71.096V468.052C71.48 467.716 71.888 467.332 72.332 466.9L72.56 467.824C71.864 468.496 71.132 469.108 70.352 469.648L70.016 468.868C70.184 468.724 70.268 468.556 70.268 468.364V463.696H68.528V462.868ZM84.536 463.408V469.576H83.744V468.892H82.448V469.804H81.644V464.92C81.404 465.352 81.14 465.772 80.852 466.18L80.42 465.484C81.332 464.092 81.932 462.496 82.22 460.708H80.756V459.868H84.848V460.708H83.036C82.868 461.668 82.64 462.568 82.328 463.408H84.536ZM82.448 468.112H83.744V464.2H82.448V468.112ZM86.156 461.356L87.008 461.416L86.48 464.44H89.024L89.624 460.516H85.4V459.7H90.56L89.9 464.44H91.172C91.172 467.344 91.004 469.012 90.692 469.468C90.356 469.9 89.672 470.128 88.616 470.128C88.28 470.128 87.92 470.116 87.536 470.092L87.296 469.252C87.824 469.3 88.196 469.324 88.412 469.324C89.336 469.324 89.888 469.12 90.068 468.736C90.26 468.328 90.356 467.164 90.356 465.244H85.508L86.156 461.356ZM85.136 466.768H89.528V467.584H85.136V466.768ZM97.244 460.528H98.54V459.16H99.356V460.528H101.096V459.16H101.912V460.528H103.268V461.308H101.912V462.844H103.544V463.648H96.932V462.844H98.54V461.308H97.244V460.528ZM99.356 462.844H101.096V461.308H99.356V462.844ZM102.74 464.608V470.224H101.924V469.636H98.624V470.212H97.796V464.608H102.74ZM98.624 468.856H101.924V467.476H98.624V468.856ZM98.624 466.708H101.924V465.376H98.624V466.708ZM94.076 459.22L94.916 459.388C94.808 459.796 94.688 460.18 94.568 460.552H96.824V461.38H94.256C93.92 462.208 93.536 462.964 93.092 463.636L92.384 463.192C93.164 461.992 93.728 460.672 94.076 459.22ZM93.716 462.976H96.572V463.756H95.312V465.232H96.98V466.024H95.312V468.844C95.888 468.652 96.464 468.376 97.064 468.016L97.22 468.784C96.428 469.216 95.504 469.576 94.472 469.864L94.112 469.12C94.352 469.048 94.472 468.928 94.472 468.76V466.024H92.828V465.232H94.472V463.756H93.716V462.976ZM109.112 459.676H114.656V462.808H109.112V459.676ZM113.828 462.052V460.444H109.94V462.052H113.828ZM108.452 465.916H111.344C111.416 465.508 111.452 465.088 111.464 464.632V464.584H108.764V463.78H115.088V464.584H112.316V464.632C112.304 465.088 112.268 465.52 112.208 465.916H115.46V466.72H112.58C113.228 467.872 114.236 468.796 115.604 469.492L115.028 470.164C113.612 469.348 112.58 468.304 111.944 467.032C111.788 467.488 111.596 467.884 111.356 468.244C110.756 469.072 109.796 469.72 108.452 470.2L107.984 469.468C109.28 469.012 110.192 468.4 110.708 467.656C110.876 467.368 111.02 467.056 111.14 466.72H108.452V465.916ZM105.956 459.316C106.748 459.916 107.42 460.528 107.972 461.14L107.384 461.74C106.88 461.164 106.208 460.552 105.344 459.904L105.956 459.316ZM104.504 462.868H107.096V468.112C107.432 467.788 107.78 467.428 108.164 467.02L108.392 467.932C107.744 468.628 107.06 469.24 106.34 469.768L106.004 469C106.172 468.844 106.268 468.676 106.268 468.484V463.696H104.504V462.868ZM118.232 467.572C118.496 467.572 118.724 467.68 118.892 467.908C119.048 468.124 119.132 468.4 119.132 468.748C119.132 469.276 118.976 469.744 118.664 470.152C118.352 470.536 117.932 470.8 117.428 470.932V470.344C117.74 470.236 117.992 470.056 118.184 469.816C118.364 469.564 118.448 469.3 118.448 469.012C118.4 469.036 118.304 469.06 118.184 469.06C117.98 469.06 117.812 468.988 117.668 468.844C117.524 468.7 117.452 468.52 117.452 468.316C117.452 468.088 117.524 467.908 117.668 467.776C117.812 467.632 117.992 467.572 118.232 467.572ZM135.368 459.196H136.196V459.976H139.172V460.684H136.196V461.488H138.74V462.184H136.196V463H139.472V463.72H132.128V463H135.368V462.184H132.944V461.488H135.368V460.684H132.464V459.976H135.368V459.196ZM133.868 466.744V467.62H137.744V466.744H133.868ZM137.744 466.072V465.184H133.868V466.072H137.744ZM133.868 468.292V470.2H133.04V464.476H138.572V469.156C138.572 469.804 138.224 470.128 137.552 470.128H136.544L136.34 469.36L137.3 469.396C137.588 469.396 137.744 469.252 137.744 468.976V468.292H133.868ZM129.956 459.328C130.76 459.928 131.432 460.54 131.984 461.152L131.396 461.752C130.892 461.176 130.208 460.564 129.344 459.916L129.956 459.328ZM128.504 462.868H131.048V468.136C131.408 467.8 131.78 467.428 132.188 467.008L132.416 467.92C131.744 468.616 131.024 469.24 130.28 469.78L129.944 469.012C130.124 468.844 130.22 468.664 130.22 468.46V463.696H128.504V462.868ZM141.848 462.724H145.556V461.956H140.864V461.212H145.556V460.348C144.344 460.42 143.084 460.48 141.764 460.528L141.62 459.82C144.74 459.724 147.5 459.544 149.888 459.28L150.152 460C149 460.12 147.752 460.216 146.42 460.3V461.212H151.136V461.956H146.42V462.724H150.14V466.708H146.42V467.536H150.716V468.232H146.42V469.132H151.304V469.888H140.696V469.132H145.556V468.232H141.296V467.536H145.556V466.708H141.848V462.724ZM149.3 466.012V465.04H146.42V466.012H149.3ZM145.556 466.012V465.04H142.676V466.012H145.556ZM142.676 464.368H145.556V463.42H142.676V464.368ZM146.42 463.42V464.368H149.3V463.42H146.42ZM162.728 459.316L163.16 460.084C162.104 460.492 160.94 460.744 159.644 460.816V463H163.52V463.828H162.272V470.236H161.42V463.828H159.644V465.256C159.584 467.32 159.128 468.964 158.264 470.188L157.652 469.54C158.36 468.508 158.744 467.08 158.804 465.256V460.12C160.256 460.096 161.564 459.82 162.728 459.316ZM152.732 460.24H155.024C154.856 459.856 154.676 459.508 154.472 459.196L155.36 459.052C155.54 459.412 155.708 459.808 155.876 460.24H158.144V461.032H152.732V460.24ZM152.612 462.964H153.992C153.812 462.484 153.596 462.028 153.356 461.608L154.124 461.332C154.352 461.776 154.568 462.316 154.76 462.964H156.08C156.32 462.436 156.524 461.884 156.704 461.308L157.484 461.572C157.292 462.088 157.088 462.556 156.86 462.964H158.216V463.744H155.9V465.088H158.012V465.88H155.9V469.276C155.9 469.924 155.552 470.248 154.856 470.248H154.208L154.028 469.444C154.22 469.48 154.4 469.504 154.568 469.504C154.88 469.504 155.036 469.36 155.036 469.072V465.88H152.804V465.088H155.036V463.744H152.612V462.964ZM153.644 466.528L154.436 466.696C154.124 467.908 153.68 468.964 153.128 469.864L152.408 469.408C152.972 468.544 153.38 467.584 153.644 466.528ZM157.088 466.444C157.448 467.224 157.736 467.932 157.928 468.58L157.208 468.856C156.98 468.1 156.704 467.356 156.368 466.636L157.088 466.444ZM169.556 459.16H170.444V461.176H171.932C172.316 460.6 172.652 460 172.916 459.364L173.732 459.664C173.444 460.264 173.144 460.768 172.844 461.176H175.004V463.936H174.128V462.016H165.872V463.984H164.996V461.176H167.012C166.772 460.684 166.484 460.216 166.148 459.784L166.964 459.484C167.288 459.952 167.588 460.516 167.864 461.176H169.556V459.16ZM166.652 463.396H173.372V464.212H166.652V463.396ZM164.792 465.652H175.232V466.504H168.86C168.212 467.728 167.648 468.604 167.156 469.132C168.992 469.036 170.828 468.868 172.652 468.652C172.34 468.22 171.992 467.764 171.608 467.308L172.328 466.876C173.264 467.992 173.996 468.964 174.5 469.792L173.756 470.32C173.576 470.008 173.384 469.696 173.168 469.384C170.996 469.624 168.632 469.804 166.076 469.948L165.872 469.18C165.956 469.156 166.016 469.12 166.064 469.096C166.532 468.772 167.156 467.908 167.924 466.504H164.792V465.652ZM181.64 464.884H180.512V464.08H183.62V464.884H182.492V468.136C183.02 468.016 183.548 467.884 184.052 467.74V468.544C183.008 468.844 181.88 469.096 180.68 469.3L180.464 468.484C180.86 468.436 181.256 468.376 181.64 468.304V464.884ZM186.188 470.02C185.78 470.02 185.408 469.708 185.096 469.084C184.736 468.364 184.472 467.392 184.304 466.144C184.172 465.088 184.088 463.768 184.04 462.196H180.236V461.356H184.016C183.992 460.66 183.992 459.928 183.992 459.16H184.832C184.832 459.94 184.832 460.672 184.856 461.356H187.244V462.196H184.868C184.928 464.26 185.06 465.844 185.252 466.972C185.516 468.34 185.828 469.036 186.188 469.084C186.428 469.036 186.68 468.304 186.92 466.876L187.604 467.428C187.208 469.156 186.74 470.02 186.188 470.02ZM185.864 459.148C186.38 459.724 186.776 460.228 187.064 460.66L186.464 461.08C186.164 460.612 185.756 460.096 185.252 459.52L185.864 459.148ZM177.944 459.316C178.712 459.928 179.348 460.54 179.876 461.164L179.288 461.764C178.808 461.176 178.16 460.552 177.344 459.904L177.944 459.316ZM176.504 462.868H179.024V468.1C179.384 467.752 179.744 467.368 180.128 466.948L180.356 467.86C179.696 468.58 179 469.216 178.256 469.768L177.92 469C178.088 468.856 178.184 468.688 178.184 468.508V463.696H176.504V462.868Z" fill="#D7942B"/>
<g clip-path="url(#clip2_4199_52128)">
<rect x="32" y="497" width="44" height="44" rx="6" fill="white"/>
<path d="M56.1954 519.39C56.1993 519.471 56.1869 519.551 56.1588 519.627C56.1307 519.702 56.0876 519.771 56.0321 519.829C55.9766 519.888 55.9097 519.934 55.8357 519.966C55.7617 519.998 55.682 520.014 55.6015 520.014C55.5209 520.014 55.4412 519.998 55.3672 519.966C55.2932 519.934 55.2264 519.888 55.1708 519.829C55.1153 519.771 55.0722 519.702 55.0441 519.627C55.016 519.551 55.0036 519.471 55.0076 519.39C55.015 519.238 55.0809 519.094 55.1914 518.989C55.302 518.883 55.4488 518.825 55.6015 518.825C55.7541 518.825 55.9009 518.883 56.0115 518.989C56.122 519.094 56.1879 519.238 56.1954 519.39ZM60.3162 519.39C60.3162 519.468 60.3009 519.546 60.271 519.618C60.2411 519.69 60.1973 519.756 60.1421 519.811C60.0869 519.866 60.0213 519.91 59.9492 519.94C59.877 519.97 59.7997 519.985 59.7216 519.985C59.6435 519.985 59.5662 519.97 59.494 519.94C59.4219 519.91 59.3563 519.866 59.3011 519.811C59.2459 519.756 59.2021 519.69 59.1722 519.618C59.1424 519.546 59.127 519.468 59.127 519.39C59.127 519.233 59.1897 519.081 59.3012 518.97C59.4127 518.858 59.5639 518.796 59.7216 518.796C59.8793 518.796 60.0305 518.858 60.142 518.97C60.2535 519.081 60.3162 519.233 60.3162 519.39Z" fill="#1F1F1F"/>
<path d="M59.1113 526.004L58.9998 526.028C58.8963 526.05 58.7924 526.071 58.6882 526.09C58.2451 526.17 57.9407 526.204 57.6162 526.193C54.8046 526.1 52.6134 524.72 51.7358 522.529C51.6952 522.423 51.6571 522.317 51.6214 522.209L51.5885 522.107C51.5644 522.032 51.5429 521.956 51.5242 521.879C51.4252 521.463 51.3734 521.038 51.3698 520.611C51.3698 517.746 53.9999 515.487 57.3046 515.339L57.4532 515.328C57.5847 515.318 57.6705 515.314 57.7677 515.314H58.015L58.1708 515.317C61.3225 515.562 63.8725 517.941 63.8725 520.742C63.8725 522.055 63.2222 523.351 62.0358 524.466C61.9968 524.502 61.9573 524.538 61.9172 524.573L62.0844 525.764C62.1324 525.918 62.1339 526.083 62.0886 526.239C62.0433 526.394 61.9533 526.532 61.8298 526.637C61.7063 526.741 61.5548 526.807 61.3942 526.826C61.2336 526.845 61.0709 526.816 60.9266 526.743L59.2714 525.965C59.2186 525.979 59.1657 525.992 59.1127 526.004H59.1113ZM62.7991 520.744C62.7991 518.537 60.7122 516.59 58.1236 516.387H57.7677C57.7048 516.387 57.6391 516.389 57.5333 516.397L57.3546 516.41C54.5774 516.534 52.4419 518.371 52.4419 520.612C52.4419 520.927 52.4876 521.297 52.5677 521.631C52.5777 521.673 52.592 521.726 52.6105 521.786L52.6391 521.869C52.6749 521.979 52.7106 522.08 52.7335 522.136C53.4424 523.907 55.2449 525.041 57.6534 525.121C57.8835 525.129 58.125 525.102 58.4967 525.035C58.5899 525.018 58.6828 525 58.7754 524.981L58.8697 524.959C58.9484 524.94 59.0113 524.926 59.1942 524.879C59.3143 524.849 59.4411 524.862 59.553 524.915L60.9809 525.587L60.8137 524.426C60.7991 524.326 60.8132 524.223 60.8545 524.131C60.8957 524.038 60.9623 523.959 61.0467 523.903C61.0667 523.888 61.191 523.787 61.3011 523.684C62.2845 522.759 62.7991 521.734 62.7991 520.742V520.744ZM44.2173 516.759C44.2173 513.297 47.462 510.514 51.4156 510.514C54.9061 510.514 58.0193 512.697 58.6496 515.641C58.6711 515.741 58.6711 515.83 58.6582 515.924C58.6393 516.061 58.5683 516.185 58.4601 516.271C58.3518 516.356 58.2147 516.397 58.0772 516.384C57.9397 516.371 57.8125 516.306 57.7221 516.201C57.6317 516.097 57.585 515.962 57.5919 515.824C57.0516 513.425 54.4101 511.586 51.4156 511.586C48.0208 511.586 45.2893 513.927 45.2893 516.76C45.2893 518.267 46.0626 519.633 47.5677 520.74C47.659 520.807 47.7266 520.901 47.761 521.009C47.7954 521.116 47.7948 521.232 47.7593 521.34L47.369 522.512L49.1272 521.693C49.2449 521.638 49.3785 521.628 49.5031 521.664L49.5946 521.693C50.5051 521.879 50.8724 521.936 51.4156 521.936C51.5972 521.928 51.7779 521.906 51.9559 521.869C51.9473 521.872 51.9302 521.877 51.9102 521.894C52.0074 521.827 52.1237 521.792 52.242 521.796C52.3603 521.799 52.4744 521.84 52.5677 521.913C52.6231 521.957 52.6694 522.011 52.7039 522.072C52.7384 522.133 52.7605 522.201 52.7689 522.271C52.7772 522.341 52.7717 522.412 52.7526 522.48C52.7336 522.548 52.7013 522.611 52.6577 522.666C52.4605 522.915 51.8644 523.007 51.4142 523.007C50.7924 523.007 50.375 522.947 49.4059 522.746L47.3262 523.717C47.1799 523.789 47.0155 523.817 46.8537 523.796C46.6919 523.775 46.5399 523.707 46.4166 523.6C46.2933 523.493 46.2042 523.352 46.1606 523.195C46.1169 523.038 46.1207 522.871 46.1712 522.716L46.6215 521.366C45.0549 520.101 44.2173 518.514 44.2173 516.759Z" fill="#1F1F1F"/>
<path d="M49.7717 514.685C49.7719 514.882 49.6938 515.071 49.5545 515.21C49.4152 515.35 49.2263 515.429 49.0291 515.429C48.832 515.429 48.6429 515.351 48.5034 515.212C48.3638 515.072 48.2853 514.883 48.2852 514.686C48.2852 514.489 48.3635 514.3 48.5029 514.161C48.6422 514.021 48.8313 513.943 49.0284 513.943C49.2256 513.943 49.4146 514.021 49.554 514.161C49.6934 514.3 49.7717 514.489 49.7717 514.686M54.663 514.685C54.6632 514.882 54.5851 515.071 54.4458 515.21C54.3066 515.35 54.1176 515.429 53.9204 515.429C53.7233 515.429 53.5342 515.351 53.3947 515.212C53.2551 515.072 53.1766 514.883 53.1765 514.686C53.1765 514.489 53.2548 514.3 53.3942 514.161C53.5335 514.021 53.7226 513.943 53.9197 513.943C54.1169 513.943 54.3059 514.021 54.4453 514.161C54.5847 514.3 54.663 514.489 54.663 514.686" fill="#1F1F1F"/>
<rect x="92" y="497" width="266" height="44" rx="6" fill="#D7942B"/>
<path d="M213.744 518.386H221.752V521.956H213.744V518.386ZM220.422 520.78V519.548H215.074V520.78H220.422ZM215.228 522.11C215.676 522.586 216.096 523.146 216.474 523.804H219.148C219.54 523.244 219.89 522.656 220.198 522.054L221.444 522.488C221.178 522.964 220.884 523.398 220.576 523.804H223.74V525.064H211.672V523.804H215.06C214.752 523.356 214.388 522.95 213.968 522.572L215.228 522.11ZM213.016 514.396C213.688 514.872 214.276 515.362 214.78 515.838C215.312 515.306 215.732 514.76 216.068 514.172H212.792V512.954H217.58V513.948C217.244 514.788 216.782 515.558 216.194 516.23H219.89C218.994 515.292 218.308 514.27 217.818 513.15L218.91 512.534C219.134 513.08 219.414 513.598 219.75 514.074C220.268 513.668 220.716 513.22 221.108 512.744L222.046 513.57C221.598 514.116 221.066 514.592 220.478 515.012C220.73 515.306 221.01 515.6 221.318 515.88C221.934 515.404 222.452 514.886 222.872 514.326L223.81 515.152C223.362 515.712 222.858 516.216 222.27 516.664C222.9 517.14 223.6 517.574 224.384 517.966L223.502 518.988C222.382 518.358 221.402 517.658 220.562 516.902V517.434H215.438V516.986C214.528 517.784 213.408 518.456 212.078 519.016L211.28 517.966C212.26 517.574 213.114 517.112 213.842 516.608C213.366 516.174 212.792 515.726 212.12 515.25L213.016 514.396ZM227.646 512.968H235.92V517.49H238.328V518.708H232.854V520.136C233.148 520.458 233.456 520.766 233.792 521.06C234.73 520.528 235.542 519.772 236.214 518.778L237.236 519.632C236.494 520.556 235.654 521.284 234.702 521.802C235.766 522.586 236.984 523.272 238.384 523.874L237.712 525.05C235.696 524.098 234.086 522.95 232.854 521.606V524.028C232.854 524.98 232.434 525.456 231.622 525.456H229.998L229.704 524.196C230.222 524.252 230.712 524.294 231.174 524.294C231.412 524.294 231.538 524.098 231.538 523.72V521.676C230.138 522.908 228.486 524.014 226.582 525.008L226.05 523.776C228.164 522.81 229.998 521.648 231.538 520.29V518.708H226.246V517.49H234.562V516.412H228.122V515.264H234.562V514.158H227.646V512.968ZM227.926 519.002C228.752 519.576 229.452 520.15 230.012 520.71L229.144 521.578C228.64 521.046 227.94 520.472 227.044 519.856L227.926 519.002Z" fill="white"/>
</g>
<rect x="125" y="834" width="140" height="4" rx="2" fill="#E9E9E9"/>
</g>
<defs>
<clipPath id="clip0_4199_52128">
<rect width="390" height="844" rx="16" fill="white"/>
</clipPath>
<clipPath id="clip1_4199_52128">
<rect width="16" height="16" fill="white" transform="translate(32 456.5)"/>
</clipPath>
<clipPath id="clip2_4199_52128">
<rect width="326" height="44" fill="white" transform="translate(32 497)"/>
</clipPath>
</defs>
</svg>
