<svg width="390" height="844" viewBox="0 0 390 844" fill="none" xmlns="http://www.w3.org/2000/svg">
<g clip-path="url(#clip0_4199_51922)">
<rect width="390" height="844" rx="16" fill="#F3F4F6"/>
<rect width="390" height="90" fill="white"/>
<path d="M23.3807 76.1811L15.2207 68.0211C15.193 67.8623 15.193 67.6999 15.2207 67.5411L23.3807 59.3811C23.4435 59.3537 23.6211 59.3523 23.8607 59.3811L24.8207 60.3411C24.848 60.5917 24.8495 60.7731 24.8207 60.8211L18.1007 67.5411C18.0531 67.6121 18.0277 67.6956 18.0277 67.7811C18.0277 67.8666 18.0531 67.9501 18.1007 68.0211L24.8207 74.7411C24.8475 74.7881 24.8504 74.9686 24.8207 75.2211L23.8607 76.1811C23.6235 76.2085 23.4445 76.2099 23.3807 76.1811Z" fill="#1F1F1F"/>
<path d="M315.644 53H367C377 53 382 58 382 68C382 78 377 83 367 83H315.644C305.644 83 300.644 78 300.644 68C300.644 58 305.644 53 315.644 53Z" fill="#F4F4F4"/>
<path d="M316.159 53.5068H366.498C376.498 53.5068 381.498 58.5068 381.498 68.5068V67.4898C381.498 77.4898 376.498 82.4898 366.498 82.4898H316.159C306.159 82.4898 301.159 77.4898 301.159 67.4898V68.5068C301.159 58.5068 306.159 53.5068 316.159 53.5068Z" fill="white"/>
<path d="M361.667 76.3903C360.058 76.3903 358.485 75.9131 357.147 75.0192C355.809 74.1252 354.766 72.8546 354.151 71.368C353.535 69.8814 353.374 68.2457 353.688 66.6675C354.002 65.0894 354.776 63.6397 355.914 62.5019C357.052 61.3642 358.502 60.5893 360.08 60.2754C361.658 59.9615 363.294 60.1226 364.78 60.7384C366.267 61.3541 367.537 62.3969 368.431 63.7348C369.325 65.0727 369.802 66.6456 369.802 68.2547C369.802 70.4124 368.945 72.4817 367.42 74.0074C365.894 75.5331 363.825 76.3903 361.667 76.3903ZM361.667 62.153C360.46 62.153 359.28 62.5108 358.277 63.1813C357.274 63.8518 356.491 64.8047 356.03 65.9197C355.568 67.0346 355.447 68.2614 355.682 69.4451C355.918 70.6287 356.499 71.7159 357.352 72.5692C358.206 73.4226 359.293 74.0037 360.477 74.2391C361.66 74.4746 362.887 74.3537 364.002 73.8919C365.117 73.4301 366.07 72.648 366.74 71.6446C367.411 70.6412 367.769 69.4615 367.769 68.2547C367.769 67.4534 367.611 66.66 367.304 65.9197C366.997 65.1794 366.548 64.5067 365.981 63.9401C365.415 63.3735 364.742 62.9241 364.002 62.6174C363.262 62.3108 362.468 62.153 361.667 62.153ZM361.667 71.3055C361.063 71.3055 360.474 71.1266 359.972 70.7914C359.47 70.4561 359.079 69.9797 358.848 69.4222C358.617 68.8647 358.557 68.2513 358.675 67.6595C358.792 67.0677 359.083 66.5241 359.51 66.0974C359.936 65.6707 360.48 65.3802 361.072 65.2625C361.664 65.1447 362.277 65.2051 362.834 65.4361C363.392 65.667 363.868 66.058 364.204 66.5597C364.539 67.0614 364.718 67.6513 364.718 68.2547C364.718 68.6553 364.639 69.052 364.486 69.4222C364.332 69.7923 364.107 70.1287 363.824 70.412C363.541 70.6952 363.205 70.92 362.834 71.0733C362.464 71.2266 362.068 71.3055 361.667 71.3055ZM329.125 70.2886C328.722 70.2886 328.329 70.1693 327.995 69.9458C327.66 69.7223 327.399 69.4047 327.245 69.033C327.092 68.6614 327.051 68.2524 327.13 67.8579C327.208 67.4633 327.402 67.1009 327.686 66.8165C327.971 66.532 328.333 66.3383 328.728 66.2599C329.122 66.1814 329.531 66.2217 329.903 66.3756C330.275 66.5295 330.592 66.7902 330.816 67.1247C331.039 67.4592 331.158 67.8524 331.158 68.2547C331.158 68.5218 331.106 68.7863 331.004 69.033C330.901 69.2798 330.752 69.504 330.563 69.6929C330.374 69.8817 330.15 70.0315 329.903 70.1338C329.656 70.236 329.392 70.2886 329.125 70.2886ZM322.514 71.3055C321.911 71.3055 321.321 71.1266 320.819 70.7914C320.318 70.4561 319.927 69.9797 319.696 69.4222C319.465 68.8647 319.404 68.2513 319.522 67.6595C319.64 67.0677 319.93 66.5241 320.357 66.0974C320.784 65.6707 321.327 65.3802 321.919 65.2625C322.511 65.1447 323.124 65.2051 323.682 65.4361C324.239 65.667 324.716 66.058 325.051 66.5597C325.386 67.0614 325.565 67.6513 325.565 68.2547C325.565 68.6553 325.486 69.052 325.333 69.4222C325.18 69.7923 324.955 70.1287 324.672 70.412C324.388 70.6952 324.052 70.92 323.682 71.0733C323.312 71.2266 322.915 71.3055 322.514 71.3055ZM315.396 70.2886C314.993 70.2886 314.6 70.1693 314.266 69.9458C313.931 69.7223 313.671 69.4047 313.517 69.033C313.363 68.6614 313.322 68.2524 313.401 67.8579C313.479 67.4633 313.673 67.1009 313.958 66.8165C314.242 66.532 314.604 66.3383 314.999 66.2599C315.393 66.1814 315.802 66.2217 316.174 66.3756C316.546 66.5295 316.863 66.7902 317.087 67.1247C317.31 67.4592 317.43 67.8524 317.43 68.2547C317.43 68.5218 317.377 68.7863 317.275 69.033C317.173 69.2798 317.023 69.504 316.834 69.6929C316.645 69.8817 316.421 70.0315 316.174 70.1338C315.927 70.236 315.663 70.2886 315.396 70.2886Z" fill="#1F1F1F"/>
<path d="M340.817 59.6123H341.833V76.9004H340.817V59.6123Z" fill="#F4F4F4"/>
<path d="M164.648 64.608H175.4V70.016H170.792C170.712 70.32 170.632 70.608 170.536 70.896H177.096V72.304H171.928C173.24 73.264 175.096 73.936 177.496 74.336L176.664 75.648C173.8 75.04 171.64 73.92 170.168 72.304H169.832C169.528 72.752 169.176 73.168 168.76 73.536C167.72 74.464 165.88 75.184 163.224 75.712L162.648 74.336C164.92 73.92 166.552 73.344 167.56 72.576C167.672 72.48 167.784 72.4 167.88 72.304H163V70.896H168.92C169.048 70.608 169.16 70.304 169.24 70.016H164.648V64.608ZM173.928 68.752V67.872H166.12V68.752H173.928ZM166.12 66.752H173.928V65.856H166.12V66.752ZM163.048 62.016H166.632V60.944H168.152V62.016H171.976V60.928H173.496V62.016H177.032V63.424H173.496V64.304H171.976V63.424H168.152V64.304H166.632V63.424H163.048V62.016ZM181.304 75.504H179.896L179.56 74.032C179.976 74.08 180.392 74.112 180.776 74.112C181.144 74.112 181.336 73.92 181.336 73.552V70.128C180.792 70.336 180.232 70.528 179.672 70.72L179.304 69.184C179.992 69.024 180.664 68.816 181.336 68.576V65.28H179.528V63.824H181.336V60.928H182.872V63.824H184.36V65.28H182.872V67.936C183.288 67.744 183.688 67.536 184.088 67.312V68.864C183.672 69.072 183.272 69.28 182.872 69.472V73.952C182.872 74.976 182.344 75.504 181.304 75.504ZM185.448 61.376H192.648V67.152H185.448V61.376ZM191.16 65.92V64.832H186.92V65.92H191.16ZM186.92 63.68H191.16V62.608H186.92V63.68ZM184.408 67.984H193.608V69.344H189.768V70.816H192.92V72.16H189.768V73.856C190.36 73.92 191.048 73.968 191.848 73.968C192.712 73.968 193.448 73.936 194.056 73.872L193.64 75.344C193.016 75.344 192.456 75.328 191.944 75.312C189.816 75.296 188.36 75.104 187.576 74.72C187.016 74.432 186.504 73.92 186.056 73.184C185.688 74.064 185.208 74.88 184.616 75.632L183.48 74.656C184.632 73.216 185.272 71.632 185.4 69.872L186.744 70.032C186.712 70.608 186.632 71.152 186.52 71.68C187 72.608 187.544 73.216 188.168 73.472L188.312 73.52V69.344H184.408V67.984ZM202.888 60.816C203.352 61.616 203.8 62.528 204.232 63.552H209.192V64.704C207.368 68.16 204.728 70.832 201.256 72.688C201.928 73.328 202.744 73.68 203.704 73.76C204.456 73.792 205.528 73.808 206.92 73.808C207.768 73.808 208.936 73.776 210.44 73.712L210.072 75.216H207.16C205.736 75.216 204.712 75.2 204.104 75.184C202.36 75.152 201.048 74.64 200.152 73.616C199.816 73.264 199.544 73.088 199.32 73.088C198.968 73.088 198.36 73.92 197.496 75.6L196.28 74.752C197.368 72.576 198.392 71.504 199.352 71.504C199.56 71.504 199.752 71.552 199.928 71.648C199.976 71.664 200.024 71.68 200.056 71.712C203.208 70.048 205.624 67.824 207.32 65.04H197.288V63.552H202.568C202.152 62.672 201.672 61.856 201.128 61.104L202.888 60.816ZM226.872 63.808C226.872 67.168 226.776 69.2 226.6 69.92C226.424 70.624 225.704 70.992 224.424 70.992H224.36L223.912 69.504C224.232 69.52 224.504 69.536 224.744 69.536C225.048 69.536 225.24 69.36 225.304 69.04C225.368 68.752 225.4 67.664 225.416 65.792L223.464 66.368V72.24H221.992V66.816L220.04 67.408V73.264C220.04 73.712 220.296 73.936 220.808 73.936H225.128C225.384 73.936 225.576 73.824 225.704 73.6C225.848 73.376 225.944 72.672 226.008 71.456L227.416 71.904C227.288 73.568 227.08 74.576 226.76 74.896C226.456 75.2 226.008 75.36 225.416 75.36H220.344C219.144 75.36 218.552 74.752 218.552 73.568V67.856L217.432 68.192V66.704L218.552 66.368V62.512H220.04V65.904L221.992 65.312V60.88H223.464V64.864L226.872 63.808ZM217.624 70.544V72.064C216.136 72.752 214.552 73.328 212.856 73.808L212.472 72.272C213.112 72.144 213.752 71.984 214.376 71.808V66.48H212.68V65.008H214.376V60.976H215.864V65.008H217.4V66.48H215.864V71.296C216.456 71.072 217.048 70.816 217.624 70.544Z" fill="#1F1F1F"/>
<path d="M390 89V90H0V89H390Z" fill="#F3F4F6"/>
<path fill-rule="evenodd" clip-rule="evenodd" d="M155 194C155 171.909 172.909 154 195 154C217.091 154 235 171.909 235 194C235 216.091 217.091 234 195 234C172.909 234 155 216.091 155 194ZM157.689 194C157.689 175.474 171.192 160.101 188.893 157.187C190.483 156.925 191.278 156.794 191.641 157.319C192.005 157.844 191.586 158.569 190.748 160.02L163.442 207.315C162.605 208.766 162.186 209.491 161.549 209.439C160.913 209.386 160.629 208.632 160.063 207.124C158.528 203.042 157.689 198.619 157.689 194ZM195 231.311C183.392 231.311 173.023 226.01 166.18 217.698C165.154 216.451 164.641 215.828 164.914 215.25C165.186 214.672 166.025 214.672 167.703 214.672H222.297C223.975 214.672 224.814 214.672 225.086 215.25C225.359 215.828 224.846 216.451 223.82 217.698C216.977 226.01 206.608 231.311 195 231.311ZM232.311 194C232.311 198.619 231.472 203.042 229.937 207.125C229.37 208.632 229.087 209.386 228.451 209.439C227.814 209.491 227.395 208.766 226.558 207.315L199.252 160.02C198.414 158.569 197.995 157.844 198.359 157.319C198.722 156.794 199.517 156.925 201.107 157.186C218.808 160.101 232.311 175.474 232.311 194ZM213.624 195.434C214.433 192.593 214.178 191.251 212.702 188.695L196.747 161.059C195.97 159.714 195.582 159.042 195 159.042C194.418 159.042 194.03 159.714 193.253 161.059L177.298 188.695C175.823 191.25 175.593 192.589 176.386 195.432C176.558 196.049 176.742 196.631 176.96 197.17C177.568 198.676 178.129 199.042 178.7 199.042C179.191 199.042 179.651 198.788 180.164 197.781C180.83 196.474 181.14 194.99 181.495 193.578C181.878 192.052 182.31 190.333 182.989 188.999C183.696 187.612 184.871 186.269 186.85 186.269C188.828 186.269 190.004 187.612 190.711 188.999C192.119 191.764 192.133 195.026 193.535 197.781C194.049 198.788 194.509 199.042 195 199.042C195.491 199.042 195.951 198.788 196.464 197.781C197.868 195.024 197.881 191.766 199.289 188.999C199.996 187.612 201.172 186.269 203.15 186.269C205.128 186.269 206.304 187.612 207.011 188.999C207.69 190.333 208.122 192.052 208.505 193.578C208.86 194.99 209.17 196.474 209.836 197.781C210.349 198.788 210.809 199.042 211.3 199.042C211.871 199.042 212.432 198.676 213.04 197.17C213.269 196.603 213.457 196.022 213.624 195.434ZM215.534 198.177C216.007 197.005 216.318 196.419 216.682 196.352C216.734 196.342 216.629 196.339 216.682 196.341C217.051 196.357 217.423 196.872 218.018 197.901L224.401 208.958C225.177 210.303 225.566 210.975 225.274 211.479C224.983 211.983 224.207 211.983 222.655 211.983H167.345C165.793 211.983 165.017 211.983 164.725 211.479C164.434 210.975 164.822 210.303 165.599 208.958L171.982 197.901C172.577 196.872 172.949 196.357 173.318 196.341C173.371 196.339 173.266 196.342 173.318 196.352C173.682 196.419 173.993 197.005 174.466 198.177C175.139 199.842 176.335 201.731 178.7 201.731C180.678 201.731 181.854 200.388 182.561 199.001C183.305 197.539 183.681 195.909 184.079 194.328C184.492 192.684 184.859 191.253 185.385 190.219C185.898 189.212 186.359 188.958 186.85 188.958C187.341 188.958 187.801 189.212 188.314 190.219C188.841 191.253 189.208 192.684 189.621 194.328C190.018 195.909 190.395 197.539 191.139 199.001C191.846 200.388 193.022 201.731 195 201.731C196.978 201.731 198.154 200.388 198.861 199.001C199.605 197.539 199.981 195.909 200.379 194.328C200.792 192.684 201.159 191.253 201.686 190.219C202.199 189.212 202.659 188.958 203.15 188.958C203.641 188.958 204.101 189.212 204.614 190.219C205.141 191.253 205.508 192.684 205.921 194.328C206.318 195.909 206.695 197.539 207.439 199.001C208.146 200.388 209.322 201.731 211.3 201.731C213.665 201.731 214.861 199.842 215.534 198.177Z" fill="black"/>
<path d="M93.24 261.992C94.296 262.824 95.192 263.656 95.928 264.488L94.728 265.672C94.12 264.872 93.24 264.008 92.088 263.08L93.24 261.992ZM102.344 276.408C101.811 276.408 100.872 276.397 99.528 276.376C98.536 276.365 97.6933 276.275 97 276.104C96.3707 275.912 95.8213 275.544 95.352 275C95.1493 274.733 94.952 274.6 94.76 274.6C94.4507 274.6 93.9013 275.315 93.112 276.744L91.88 275.608C92.6907 274.317 93.4053 273.501 94.024 273.16V268.776H91.912V267.24H95.576V273.336L95.736 273.496C96.088 273.912 96.4507 274.227 96.824 274.44C97.2827 274.675 97.976 274.808 98.904 274.84C100.12 274.861 101.187 274.872 102.104 274.872L104.536 274.856C105.357 274.824 105.981 274.792 106.408 274.76L106.008 276.408H102.344ZM96.808 264.216H98.504V261.832H100.12V264.216H102.136V261.864H103.768V264.216H105.608V265.768H103.768V268.472H106.12V270.04H103.768V274.296H102.136V270.04H99.736C99.288 271.853 98.4827 273.197 97.32 274.072L96.312 272.744C97.144 272.136 97.736 271.235 98.088 270.04H96.248V268.472H98.408C98.472 267.96 98.504 267.421 98.504 266.856V265.768H96.808V264.216ZM100.12 265.768V266.472C100.12 267.08 100.083 267.747 100.008 268.472H102.136V265.768H100.12ZM114.056 265.736C113.341 264.445 112.488 263.448 111.496 262.744L112.888 261.848C114.2 262.776 115.384 264.579 116.44 267.256C117.965 270.968 119.923 273.592 122.312 275.128L121.272 276.456C118.797 274.984 116.701 272.099 114.984 267.8L114.936 267.656C113.848 271.464 111.709 274.403 108.52 276.472L107.496 275.032C110.813 272.845 113 269.747 114.056 265.736ZM125.56 265.576H136.408V271.048H131.816C131.763 271.272 131.688 271.533 131.592 271.832H138.072V273.368H133.112C134.424 274.243 136.221 274.861 138.504 275.224L137.576 276.696C134.749 276.088 132.6 274.979 131.128 273.368H130.824C130.472 273.859 130.125 274.253 129.784 274.552C128.739 275.469 126.888 276.2 124.232 276.744L123.576 275.224C125.848 274.808 127.48 274.232 128.472 273.496C128.515 273.453 128.568 273.411 128.632 273.368H123.944V271.832H129.816C129.923 271.619 130.024 271.357 130.12 271.048H125.56V265.576ZM134.808 269.672V268.92H127.16V269.672H134.808ZM127.16 267.704H134.808V266.936H127.16V267.704ZM123.992 262.952H127.512V261.928H129.176V262.952H132.872V261.912H134.536V262.952H138.008V264.488H134.536V265.304H132.872V264.488H129.176V265.304H127.512V264.488H123.992V262.952ZM140.216 276.52L139.848 274.904C140.264 274.968 140.664 275 141.048 275C141.4 275 141.576 274.824 141.576 274.472V271.24C140.957 271.475 140.429 271.661 139.992 271.8L139.576 270.104C140.269 269.944 140.936 269.752 141.576 269.528V266.36H139.832V264.744H141.576V261.912H143.272V264.744H144.696V266.36H143.272V268.824L144.424 268.232V269.928L143.272 270.504V274.888C143.272 275.976 142.723 276.52 141.624 276.52H140.216ZM145.736 262.344H153V268.184H145.736V262.344ZM151.368 266.84V265.88H147.352V266.84H151.368ZM147.352 264.632H151.368V263.688H147.352V264.632ZM144.712 268.92H153.944V270.408H150.168V271.736H153.224V273.208H150.168V274.76C150.84 274.835 151.501 274.872 152.152 274.872C152.941 274.872 153.688 274.835 154.392 274.76L153.928 276.376C153.48 276.376 152.925 276.365 152.264 276.344C150.12 276.323 148.653 276.125 147.864 275.752C147.331 275.485 146.84 275.005 146.392 274.312C146.029 275.155 145.576 275.939 145.032 276.664L143.784 275.576C144.904 274.168 145.528 272.6 145.656 270.872L147.128 271.048C147.096 271.592 147.021 272.136 146.904 272.68C147.384 273.555 147.923 274.115 148.52 274.36C148.531 274.371 148.541 274.376 148.552 274.376V270.408H144.712V268.92ZM162.664 261.784C163.144 262.637 163.587 263.539 163.992 264.488H168.904V265.752C167.101 269.208 164.499 271.848 161.096 273.672C161.736 274.248 162.504 274.568 163.4 274.632C164.157 274.664 165.229 274.68 166.616 274.68C167.213 274.68 168.387 274.643 170.136 274.568L169.72 276.216H166.872C165.645 276.216 164.627 276.205 163.816 276.184C162.056 276.152 160.733 275.661 159.848 274.712C159.496 274.349 159.213 274.168 159 274.168C158.701 274.168 158.12 274.984 157.256 276.616L155.928 275.688C157.016 273.523 158.051 272.44 159.032 272.44C159.256 272.44 159.453 272.483 159.624 272.568C159.688 272.589 159.731 272.611 159.752 272.632C162.824 271 165.192 268.829 166.856 266.12H156.936V264.488H162.136C161.699 263.603 161.229 262.808 160.728 262.104L162.664 261.784ZM185.96 264.312C185.96 267.907 185.869 270.099 185.688 270.888C185.496 271.645 184.76 272.024 183.48 272.024H183.4L182.888 270.328C183.357 270.349 183.667 270.36 183.816 270.36C184.061 270.36 184.216 270.189 184.28 269.848C184.323 269.485 184.349 268.365 184.36 266.488L182.648 266.968V273.224H181.064V267.416L179.544 267.848V274.024C179.544 274.557 179.795 274.824 180.296 274.824H184.152C184.376 274.824 184.552 274.712 184.68 274.488C184.819 274.253 184.909 273.56 184.952 272.408L186.504 272.904C186.376 274.589 186.152 275.592 185.832 275.912C185.501 276.221 185.043 276.376 184.456 276.376H179.784C178.547 276.376 177.928 275.699 177.928 274.344V268.296L177 268.552V266.92L177.928 266.648V263.496H179.544V266.184L181.064 265.736V261.864H182.648V265.272L185.96 264.312ZM177 273.096C175.357 273.832 173.683 274.429 171.976 274.888L171.544 273.192C172.248 273.053 172.893 272.904 173.48 272.744V267.56H171.768V265.928H173.48V261.928H175.144V265.928H176.744V267.56H175.144V272.2C175.795 271.965 176.413 271.709 177 271.432V273.096ZM189.992 272.6C190.984 272.6 191.48 273.256 191.48 274.568C191.48 276.136 190.749 277.315 189.288 278.104L188.728 277.192C189.677 276.605 190.2 275.864 190.296 274.968C190.168 274.989 190.067 275 189.992 275C189.651 275 189.357 274.888 189.112 274.664C188.877 274.44 188.76 274.157 188.76 273.816C188.76 273.453 188.877 273.16 189.112 272.936C189.357 272.712 189.651 272.6 189.992 272.6ZM204.68 262.664H217.352V264.28H214.84V267.96H218.152V269.576H214.84V276.44H213.16V269.576H209.016C208.856 271.133 208.541 272.456 208.072 273.544C207.443 274.899 206.419 275.933 205 276.648L204.088 275.224C205.379 274.477 206.248 273.539 206.696 272.408C206.984 271.608 207.192 270.664 207.32 269.576H203.864V267.96H207.432L207.448 267.816V264.28H204.68V262.664ZM209.144 264.28V267.816L209.128 267.96H213.16V264.28H209.144ZM233.128 270.264V276.728H231.496V276.008H225.128V276.728H223.496V270.264H233.128ZM225.128 274.44H231.496V271.832H225.128V274.44ZM231.656 265H222.888V266.952H231.656V265ZM222.888 268.488V269.16C222.877 272.083 222.179 274.611 220.792 276.744L219.48 275.56C220.643 273.885 221.229 271.752 221.24 269.16V263.432H226.472C226.269 262.931 226.051 262.44 225.816 261.96L227.56 261.672C227.763 262.173 227.971 262.76 228.184 263.432H233.32V268.488H222.888ZM247.544 267.544V273.48H245.928V269.096H240.072V273.48H238.456V267.544H247.544ZM249.912 264.744V268.232H248.216V266.36H237.8V268.216H236.104V264.744H238.408C238.088 264.157 237.709 263.555 237.272 262.936L238.744 262.232C239.245 262.936 239.715 263.677 240.152 264.456L239.576 264.744H242.472C242.056 263.891 241.635 263.155 241.208 262.536L242.68 261.816C243.139 262.52 243.581 263.283 244.008 264.104L242.744 264.744H245.272C245.88 263.848 246.387 262.904 246.792 261.912L248.456 262.52C247.987 263.416 247.544 264.157 247.128 264.744H249.912ZM241.928 269.944H243.576V271.704L243.56 271.752H244.84V274.136C244.84 274.605 245.053 274.84 245.48 274.84H247.832C248.024 274.84 248.179 274.755 248.296 274.584C248.413 274.403 248.499 273.853 248.552 272.936L250.088 273.432C249.96 274.861 249.747 275.72 249.448 276.008C249.16 276.264 248.717 276.392 248.12 276.392H244.984C243.811 276.392 243.224 275.747 243.224 274.456V273.224C242.936 273.928 242.493 274.525 241.896 275.016C240.872 275.795 239.245 276.392 237.016 276.808L236.072 275.32C238.333 274.936 239.853 274.477 240.632 273.944C241.4 273.357 241.832 272.595 241.928 271.656V269.944ZM265.864 263.384V275.96H264.232V275.08H261.576V275.96H259.96V263.384H265.864ZM261.576 273.528H264.232V264.936H261.576V273.528ZM254.344 265.416C254.003 266.163 253.603 266.872 253.144 267.544L251.672 266.616C252.717 265.08 253.443 263.491 253.848 261.848L255.496 262.216C255.304 262.899 255.139 263.437 255 263.832H259.24V265.416H257.112C257.101 266.333 257.053 267.203 256.968 268.024H259.4V269.608H256.744L256.552 270.568C257.459 271.475 258.435 272.552 259.48 273.8L258.456 275.352C257.507 273.955 256.717 272.877 256.088 272.12C255.405 273.752 254.264 275.139 252.664 276.28L251.576 274.936C253.219 273.709 254.296 272.216 254.808 270.456L255 269.608H251.928V268.024H255.256C255.331 267.309 255.384 266.44 255.416 265.416H254.344ZM271.048 266.232C270.419 267.661 269.619 268.851 268.648 269.8L267.544 268.408C268.973 266.915 269.939 264.893 270.44 262.344L272.152 262.664C271.992 263.421 271.827 264.072 271.656 264.616H274.44V261.992H276.12V264.616H281.192V266.232H276.12V269.368H280.888V270.984H276.12V274.472H282.232V276.136H267.992V274.472H274.44V270.984H269.928V269.368H274.44V266.232H271.048ZM287.832 266.36H292.216V264.36C291.096 264.456 289.901 264.504 288.632 264.504L288.12 263C291.555 263 294.472 262.621 296.872 261.864L297.704 263.272C296.595 263.667 295.331 263.965 293.912 264.168V266.36H298.328V267.96H293.912V269.864H297.4V276.664H295.752V275.912H290.504V276.664H288.856V269.864H292.216V267.96H287.832V266.36ZM290.504 274.344H295.752V271.432H290.504V274.344ZM285.208 261.992C286.264 262.675 287.171 263.373 287.928 264.088L286.792 265.208C286.12 264.515 285.213 263.8 284.072 263.064L285.208 261.992ZM284.84 265.8C285.96 266.611 286.877 267.395 287.592 268.152L286.44 269.304C285.811 268.589 284.888 267.8 283.672 266.936L284.84 265.8ZM287.784 270.712C287.112 272.803 286.387 274.723 285.608 276.472L283.928 275.736C284.845 273.88 285.624 272.008 286.264 270.12L287.784 270.712Z" fill="black"/>
<rect x="32.5" y="336.5" width="325" height="43" rx="5.5" fill="white"/>
<rect x="32.5" y="336.5" width="325" height="43" rx="5.5" stroke="#EEEEEE"/>
<path d="M155.062 365.002H153.938C153.788 365.002 153.645 364.943 153.54 364.837C153.434 364.732 153.375 364.589 153.375 364.439C153.375 364.29 153.434 364.147 153.54 364.042C153.645 363.936 153.788 363.877 153.938 363.877H155.062C155.212 363.877 155.355 363.936 155.46 364.042C155.566 364.147 155.625 364.29 155.625 364.439C155.625 364.589 155.566 364.732 155.46 364.837C155.355 364.943 155.212 365.002 155.062 365.002ZM155.344 352.375H153.656C153.507 352.375 153.364 352.316 153.259 352.21C153.153 352.105 153.094 351.962 153.094 351.812C153.094 351.663 153.153 351.52 153.259 351.415C153.364 351.309 153.507 351.25 153.656 351.25H155.344C155.493 351.25 155.636 351.309 155.741 351.415C155.847 351.52 155.906 351.663 155.906 351.812C155.906 351.962 155.847 352.105 155.741 352.21C155.636 352.316 155.493 352.375 155.344 352.375ZM159.844 363.062H149.156C149.007 363.062 148.864 363.003 148.759 362.898C148.653 362.792 148.594 362.649 148.594 362.5C148.594 362.351 148.653 362.208 148.759 362.102C148.864 361.997 149.007 361.938 149.156 361.938H159.844C159.993 361.938 160.136 361.997 160.241 362.102C160.347 362.208 160.406 362.351 160.406 362.5C160.406 362.649 160.347 362.792 160.241 362.898C160.136 363.003 159.993 363.062 159.844 363.062Z" fill="black"/>
<path d="M159.281 367H149.719C149.099 367 148.594 366.496 148.594 365.875V350.125C148.594 349.505 149.099 349 149.719 349H159.281C159.902 349 160.406 349.505 160.406 350.125V365.875C160.406 366.173 160.288 366.46 160.077 366.67C159.866 366.881 159.58 367 159.281 367ZM149.719 350.125V365.875H159.281V350.125H149.719Z" fill="black"/>
<path d="M183.514 351.618L184.172 352.738C182.912 353.074 181.456 353.326 179.804 353.494V355.524H184.144V356.812H179.804V358.8H185.194V360.074H179.804V362.944C179.804 363.868 179.314 364.33 178.348 364.33H176.178L175.87 363.042C176.57 363.084 177.242 363.112 177.886 363.112C178.278 363.112 178.474 362.944 178.474 362.622V360.074H172.58V358.8H178.474V356.812H173.742V355.524H178.474V353.606C177.046 353.704 175.52 353.76 173.868 353.76L173.448 352.556C177.438 352.556 180.798 352.234 183.514 351.618ZM187.21 354.152H189.184V351.534H190.5V354.152H192.124V355.426H190.5V356.014C191.144 356.63 191.774 357.316 192.418 358.072L191.634 359.248C191.2 358.478 190.822 357.834 190.5 357.33V364.372H189.184V357.806C188.736 359.038 188.162 360.158 187.49 361.18L186.916 359.738C187.924 358.478 188.652 357.05 189.114 355.426H187.21V354.152ZM191.312 363.56C191.886 362.706 192.292 361.81 192.53 360.858C192.712 360.046 192.81 358.87 192.81 357.33V351.996H197.612V362.622C197.612 362.776 197.668 362.86 197.808 362.86H198.242C198.368 362.86 198.466 362.832 198.536 362.776C198.606 362.706 198.648 362.608 198.676 362.496C198.732 362.272 198.774 361.446 198.774 359.99L199.992 360.368C199.992 361.432 199.95 362.216 199.88 362.748C199.824 363.266 199.684 363.63 199.474 363.84C199.25 364.008 198.886 364.106 198.41 364.106H197.794C196.772 364.106 196.268 363.658 196.268 362.762V353.256H194.126V357.33C194.126 358.898 194 360.228 193.748 361.32C193.51 362.44 193.062 363.504 192.404 364.54L191.312 363.56ZM203.744 351.94H212.256V355.972H203.744V351.94ZM210.912 354.782V353.13H205.088V354.782H210.912ZM204.724 358.17H201.63V356.896H214.356V358.17H206.054L205.648 359.514H212.452C212.34 361.88 212.116 363.28 211.766 363.714C211.416 364.148 210.73 364.372 209.722 364.372C209.036 364.372 208.42 364.33 207.874 364.26L207.426 363.056C208.182 363.126 208.84 363.168 209.428 363.168C210.128 363.168 210.576 363.028 210.744 362.748C210.898 362.468 211.01 361.782 211.094 360.718H204.066L204.724 358.17ZM218.584 357.386H226.592V360.956H218.584V357.386ZM225.262 359.78V358.548H219.914V359.78H225.262ZM220.068 361.11C220.516 361.586 220.936 362.146 221.314 362.804H223.988C224.38 362.244 224.73 361.656 225.038 361.054L226.284 361.488C226.018 361.964 225.724 362.398 225.416 362.804H228.58V364.064H216.512V362.804H219.9C219.592 362.356 219.228 361.95 218.808 361.572L220.068 361.11ZM217.856 353.396C218.528 353.872 219.116 354.362 219.62 354.838C220.152 354.306 220.572 353.76 220.908 353.172H217.632V351.954H222.42V352.948C222.084 353.788 221.622 354.558 221.034 355.23H224.73C223.834 354.292 223.148 353.27 222.658 352.15L223.75 351.534C223.974 352.08 224.254 352.598 224.59 353.074C225.108 352.668 225.556 352.22 225.948 351.744L226.886 352.57C226.438 353.116 225.906 353.592 225.318 354.012C225.57 354.306 225.85 354.6 226.158 354.88C226.774 354.404 227.292 353.886 227.712 353.326L228.65 354.152C228.202 354.712 227.698 355.216 227.11 355.664C227.74 356.14 228.44 356.574 229.224 356.966L228.342 357.988C227.222 357.358 226.242 356.658 225.402 355.902V356.434H220.278V355.986C219.368 356.784 218.248 357.456 216.918 358.016L216.12 356.966C217.1 356.574 217.954 356.112 218.682 355.608C218.206 355.174 217.632 354.726 216.96 354.25L217.856 353.396ZM232.486 351.968H240.76V356.49H243.168V357.708H237.694V359.136C237.988 359.458 238.296 359.766 238.632 360.06C239.57 359.528 240.382 358.772 241.054 357.778L242.076 358.632C241.334 359.556 240.494 360.284 239.542 360.802C240.606 361.586 241.824 362.272 243.224 362.874L242.552 364.05C240.536 363.098 238.926 361.95 237.694 360.606V363.028C237.694 363.98 237.274 364.456 236.462 364.456H234.838L234.544 363.196C235.062 363.252 235.552 363.294 236.014 363.294C236.252 363.294 236.378 363.098 236.378 362.72V360.676C234.978 361.908 233.326 363.014 231.422 364.008L230.89 362.776C233.004 361.81 234.838 360.648 236.378 359.29V357.708H231.086V356.49H239.402V355.412H232.962V354.264H239.402V353.158H232.486V351.968ZM232.766 358.002C233.592 358.576 234.292 359.15 234.852 359.71L233.984 360.578C233.48 360.046 232.78 359.472 231.884 358.856L232.766 358.002Z" fill="black"/>
<rect x="32" y="396" width="326" height="44" rx="6" fill="#D7942B"/>
<g clip-path="url(#clip1_4199_51922)">
<path d="M149.695 418.39C149.699 418.471 149.687 418.551 149.659 418.627C149.631 418.702 149.588 418.771 149.532 418.829C149.477 418.888 149.41 418.934 149.336 418.966C149.262 418.998 149.182 419.014 149.101 419.014C149.021 419.014 148.941 418.998 148.867 418.966C148.793 418.934 148.726 418.888 148.671 418.829C148.615 418.771 148.572 418.702 148.544 418.627C148.516 418.551 148.504 418.471 148.508 418.39C148.515 418.238 148.581 418.094 148.691 417.989C148.802 417.883 148.949 417.825 149.101 417.825C149.254 417.825 149.401 417.883 149.511 417.989C149.622 418.094 149.688 418.238 149.695 418.39ZM153.816 418.39C153.816 418.468 153.801 418.546 153.771 418.618C153.741 418.69 153.697 418.756 153.642 418.811C153.587 418.866 153.521 418.91 153.449 418.94C153.377 418.97 153.3 418.985 153.222 418.985C153.144 418.985 153.066 418.97 152.994 418.94C152.922 418.91 152.856 418.866 152.801 418.811C152.746 418.756 152.702 418.69 152.672 418.618C152.642 418.546 152.627 418.468 152.627 418.39C152.627 418.233 152.69 418.081 152.801 417.97C152.913 417.858 153.064 417.796 153.222 417.796C153.379 417.796 153.531 417.858 153.642 417.97C153.754 418.081 153.816 418.233 153.816 418.39Z" fill="white"/>
<path d="M152.611 425.004L152.5 425.028C152.396 425.05 152.292 425.071 152.188 425.09C151.745 425.17 151.441 425.204 151.116 425.193C148.305 425.1 146.113 423.72 145.236 421.529C145.195 421.423 145.157 421.317 145.121 421.209L145.089 421.107C145.064 421.032 145.043 420.956 145.024 420.879C144.925 420.463 144.873 420.038 144.87 419.611C144.87 416.746 147.5 414.487 150.805 414.339L150.953 414.328C151.085 414.318 151.171 414.314 151.268 414.314H151.515L151.671 414.317C154.823 414.562 157.373 416.941 157.373 419.742C157.373 421.055 156.722 422.351 155.536 423.466C155.497 423.502 155.457 423.538 155.417 423.573L155.584 424.764C155.632 424.918 155.634 425.083 155.589 425.239C155.543 425.394 155.453 425.532 155.33 425.637C155.206 425.741 155.055 425.807 154.894 425.826C154.734 425.845 154.571 425.816 154.427 425.743L152.771 424.965C152.719 424.979 152.666 424.992 152.613 425.004H152.611ZM156.299 419.744C156.299 417.537 154.212 415.59 151.624 415.387H151.268C151.205 415.387 151.139 415.389 151.033 415.397L150.855 415.41C148.077 415.534 145.942 417.371 145.942 419.612C145.942 419.927 145.988 420.297 146.068 420.631C146.078 420.673 146.092 420.726 146.111 420.786L146.139 420.869C146.175 420.979 146.211 421.08 146.233 421.136C146.942 422.907 148.745 424.041 151.153 424.121C151.383 424.129 151.625 424.102 151.997 424.035C152.09 424.018 152.183 424 152.275 423.981L152.37 423.959C152.448 423.94 152.511 423.926 152.694 423.879C152.814 423.849 152.941 423.862 153.053 423.915L154.481 424.587L154.314 423.426C154.299 423.326 154.313 423.223 154.354 423.131C154.396 423.038 154.462 422.959 154.547 422.903C154.567 422.888 154.691 422.787 154.801 422.684C155.785 421.759 156.299 420.734 156.299 419.742V419.744ZM137.717 415.759C137.717 412.297 140.962 409.514 144.916 409.514C148.406 409.514 151.519 411.697 152.15 414.641C152.171 414.741 152.171 414.83 152.158 414.924C152.139 415.061 152.068 415.185 151.96 415.271C151.852 415.356 151.715 415.397 151.577 415.384C151.44 415.371 151.312 415.306 151.222 415.201C151.132 415.097 151.085 414.962 151.092 414.824C150.552 412.425 147.91 410.586 144.916 410.586C141.521 410.586 138.789 412.927 138.789 415.76C138.789 417.267 139.563 418.633 141.068 419.74C141.159 419.807 141.227 419.901 141.261 420.009C141.295 420.116 141.295 420.232 141.259 420.34L140.869 421.512L142.627 420.693C142.745 420.638 142.878 420.628 143.003 420.664L143.095 420.693C144.005 420.879 144.372 420.936 144.916 420.936C145.097 420.928 145.278 420.906 145.456 420.869C145.447 420.872 145.43 420.877 145.41 420.894C145.507 420.827 145.624 420.792 145.742 420.796C145.86 420.799 145.974 420.84 146.068 420.913C146.123 420.957 146.169 421.011 146.204 421.072C146.238 421.133 146.261 421.201 146.269 421.271C146.277 421.341 146.272 421.412 146.253 421.48C146.234 421.548 146.201 421.611 146.158 421.666C145.96 421.915 145.364 422.007 144.914 422.007C144.292 422.007 143.875 421.947 142.906 421.746L140.826 422.717C140.68 422.789 140.516 422.817 140.354 422.796C140.192 422.775 140.04 422.707 139.917 422.6C139.793 422.493 139.704 422.352 139.661 422.195C139.617 422.038 139.621 421.871 139.671 421.716L140.121 420.366C138.555 419.101 137.717 417.514 137.717 415.759Z" fill="white"/>
<path d="M143.272 413.685C143.272 413.882 143.194 414.071 143.055 414.21C142.915 414.35 142.726 414.429 142.529 414.429C142.332 414.429 142.143 414.351 142.003 414.212C141.864 414.072 141.785 413.883 141.785 413.686C141.785 413.489 141.864 413.3 142.003 413.161C142.142 413.021 142.331 412.943 142.529 412.943C142.726 412.943 142.915 413.021 143.054 413.161C143.194 413.3 143.272 413.489 143.272 413.686M148.163 413.685C148.163 413.882 148.085 414.071 147.946 414.21C147.807 414.35 147.618 414.429 147.421 414.429C147.223 414.429 147.034 414.351 146.895 414.212C146.755 414.072 146.677 413.883 146.677 413.686C146.677 413.489 146.755 413.3 146.894 413.161C147.034 413.021 147.223 412.943 147.42 412.943C147.617 412.943 147.806 413.021 147.945 413.161C148.085 413.3 148.163 413.489 148.163 413.686" fill="white"/>
</g>
<path d="M176.226 414.866C176.142 415.202 176.072 415.524 175.988 415.832C176.184 417.064 176.45 418.17 176.772 419.15C177.108 417.904 177.304 416.476 177.346 414.866H176.226ZM176.254 420.62C175.918 419.696 175.638 418.674 175.414 417.554C175.204 418.072 174.98 418.548 174.742 418.968L174.014 418.044C174.042 417.988 174.056 417.946 174.084 417.89H169.73V416.714H174.182V417.666C174.868 416.084 175.344 414.026 175.596 411.492L176.758 411.688C176.674 412.36 176.59 413.004 176.478 413.62H178.956V414.866H178.466C178.41 417.19 178.06 419.164 177.43 420.802C177.92 421.838 178.494 422.636 179.166 423.224L178.41 424.358C177.822 423.77 177.304 423 176.856 422.062C176.352 422.986 175.736 423.77 175.008 424.428L174.308 423.308C175.12 422.622 175.764 421.726 176.254 420.62ZM172.81 423.644L172.264 422.552C172.432 422.454 172.53 422.314 172.572 422.118V419.92H171.368V420.55C171.34 422.258 170.906 423.532 170.066 424.372L169.086 423.518C169.772 422.832 170.122 421.838 170.136 420.55V418.716H173.734V421.628C174.07 421.32 174.42 420.998 174.77 420.634L175.036 421.74C174.308 422.524 173.566 423.154 172.81 423.644ZM171.494 411.52H172.6V414.614H173.286V412.276H174.364V415.734H169.702V412.276H170.794V414.614H171.494V411.52ZM168.246 411.534L169.38 412.066C168.792 413.564 167.812 414.922 166.44 416.126L166.034 414.838C167.028 413.886 167.77 412.794 168.246 411.534ZM168.316 415.286L169.436 415.818C169.254 416.308 169.03 416.784 168.778 417.246V424.47H167.532V418.996C167.21 419.36 166.86 419.71 166.482 420.06L166.09 418.786C167.098 417.778 167.84 416.616 168.316 415.286ZM182.162 417.064C181.798 417.54 181.42 418.016 181 418.492L180.566 417.064C181.854 415.44 182.82 413.536 183.45 411.38L184.696 411.968C184.374 413.004 183.968 414.012 183.464 414.978V424.47H182.162V417.064ZM184.444 413.214H188.546C188.364 412.738 188.154 412.276 187.916 411.828L189.19 411.478C189.484 412.108 189.708 412.682 189.862 413.214H193.642V414.46H184.444V413.214ZM185.718 415.314H192.452V416.504H185.718V415.314ZM185.718 417.288H192.452V418.492H185.718V417.288ZM192.746 419.374V424.442H191.458V423.714H186.698V424.442H185.41V419.374H192.746ZM186.698 422.468H191.458V420.606H186.698V422.468ZM195.378 417.204H208.048V418.52H195.378V417.204ZM210.638 416.77L209.714 416.182C210.33 414.726 210.778 413.144 211.044 411.464L212.304 411.73C212.22 412.164 212.122 412.584 212.038 412.99H213.956V414.264H211.716C211.548 414.824 211.366 415.342 211.17 415.846H213.956V417.022H212.836V418.464H214.166V418.94L215.034 418.618C215.174 419.29 215.37 419.892 215.65 420.452C215.86 419.612 216 418.688 216.056 417.666H214.432V416.756C214.95 415.86 215.426 414.908 215.86 413.872H214.418V412.752H217.036V413.83C216.616 414.894 216.196 415.818 215.79 416.602H217.12V417.302C217.092 419.01 216.868 420.48 216.476 421.684C216.798 422.048 217.162 422.314 217.568 422.51C218.184 422.79 219.15 422.972 220.452 423.028C221.264 423.028 222.034 423 222.762 422.958L222.524 424.218H221.096C218.968 424.19 217.512 423.938 216.742 423.462C216.462 423.28 216.21 423.084 215.986 422.86C215.678 423.434 215.342 423.938 214.95 424.372L214.054 423.49C214.502 423.028 214.866 422.468 215.174 421.824C214.754 421.152 214.418 420.354 214.166 419.416V419.668H212.836V422.496C213.242 422.272 213.648 421.978 214.04 421.642L214.25 422.762C213.522 423.294 212.682 423.742 211.73 424.106L211.198 423C211.478 422.888 211.632 422.706 211.632 422.468V419.668H210.162V418.464H211.632V417.022H210.638V416.77ZM222.006 417.568H220.06V418.422H222.104V419.444H220.06V420.34H222.454V421.418H220.06V422.566H218.87V421.418H217.148V420.34H218.87V419.444H217.498V418.422H218.87V417.568H217.624V416.504H218.87V415.622H217.134V414.558H218.87V413.62H217.596V412.556H218.87V411.604H220.06V412.556H222.006V414.558H222.58V415.622H222.006V417.568ZM220.06 413.62V414.558H220.9V413.62H220.06ZM220.06 415.622V416.504H220.9V415.622H220.06ZM226.864 417.386H234.872V420.956H226.864V417.386ZM233.542 419.78V418.548H228.194V419.78H233.542ZM228.348 421.11C228.796 421.586 229.216 422.146 229.594 422.804H232.268C232.66 422.244 233.01 421.656 233.318 421.054L234.564 421.488C234.298 421.964 234.004 422.398 233.696 422.804H236.86V424.064H224.792V422.804H228.18C227.872 422.356 227.508 421.95 227.088 421.572L228.348 421.11ZM226.136 413.396C226.808 413.872 227.396 414.362 227.9 414.838C228.432 414.306 228.852 413.76 229.188 413.172H225.912V411.954H230.7V412.948C230.364 413.788 229.902 414.558 229.314 415.23H233.01C232.114 414.292 231.428 413.27 230.938 412.15L232.03 411.534C232.254 412.08 232.534 412.598 232.87 413.074C233.388 412.668 233.836 412.22 234.228 411.744L235.166 412.57C234.718 413.116 234.186 413.592 233.598 414.012C233.85 414.306 234.13 414.6 234.438 414.88C235.054 414.404 235.572 413.886 235.992 413.326L236.93 414.152C236.482 414.712 235.978 415.216 235.39 415.664C236.02 416.14 236.72 416.574 237.504 416.966L236.622 417.988C235.502 417.358 234.522 416.658 233.682 415.902V416.434H228.558V415.986C227.648 416.784 226.528 417.456 225.198 418.016L224.4 416.966C225.38 416.574 226.234 416.112 226.962 415.608C226.486 415.174 225.912 414.726 225.24 414.25L226.136 413.396ZM240.766 411.968H249.04V416.49H251.448V417.708H245.974V419.136C246.268 419.458 246.576 419.766 246.912 420.06C247.85 419.528 248.662 418.772 249.334 417.778L250.356 418.632C249.614 419.556 248.774 420.284 247.822 420.802C248.886 421.586 250.104 422.272 251.504 422.874L250.832 424.05C248.816 423.098 247.206 421.95 245.974 420.606V423.028C245.974 423.98 245.554 424.456 244.742 424.456H243.118L242.824 423.196C243.342 423.252 243.832 423.294 244.294 423.294C244.532 423.294 244.658 423.098 244.658 422.72V420.676C243.258 421.908 241.606 423.014 239.702 424.008L239.17 422.776C241.284 421.81 243.118 420.648 244.658 419.29V417.708H239.366V416.49H247.682V415.412H241.242V414.264H247.682V413.158H240.766V411.968ZM241.046 418.002C241.872 418.576 242.572 419.15 243.132 419.71L242.264 420.578C241.76 420.046 241.06 419.472 240.164 418.856L241.046 418.002Z" fill="white"/>
<rect x="125" y="834" width="140" height="4" rx="2" fill="#E9E9E9"/>
<rect width="390" height="844" fill="black" fill-opacity="0.3"/>
</g>
<defs>
<clipPath id="clip0_4199_51922">
<rect width="390" height="844" rx="16" fill="white"/>
</clipPath>
<clipPath id="clip1_4199_51922">
<rect width="20" height="20" fill="white" transform="translate(137.5 408)"/>
</clipPath>
</defs>
</svg>
