<svg width="390" height="844" viewBox="0 0 390 844" fill="none" xmlns="http://www.w3.org/2000/svg">
<rect width="390" height="844" rx="16" fill="#111111"/>
<path d="M29.946 109.618C30.8887 110.374 31.6773 111.111 32.312 111.83L31.29 112.838C30.73 112.119 29.9507 111.359 28.952 110.556L29.946 109.618ZM37.926 122.232C37.45 122.232 36.6147 122.223 35.42 122.204C34.5333 122.195 33.7867 122.115 33.18 121.966C32.62 121.798 32.13 121.476 31.71 121C31.514 120.767 31.3413 120.65 31.192 120.65C30.912 120.65 30.4267 121.275 29.736 122.526L28.658 121.532C29.3673 120.403 29.9927 119.689 30.534 119.39V115.554H28.686V114.21H31.892V119.53L32.046 119.684C32.382 120.057 32.7087 120.333 33.026 120.51C33.418 120.715 34.034 120.832 34.874 120.86C35.9567 120.879 36.904 120.888 37.716 120.888L39.844 120.874C40.5627 120.846 41.1087 120.818 41.482 120.79L41.132 122.232H37.926ZM35.448 111.102H32.802V109.898H40.544V110.92C39.7227 111.611 38.864 112.194 37.968 112.67L37.996 112.698H40.824V118.9C40.824 119.777 40.348 120.216 39.396 120.216H38.346L38.024 119.012L38.99 119.054C39.298 119.054 39.452 118.905 39.452 118.606V118.018H37.576V120.286H36.232V118.018H34.412V120.3H33.04V112.698H36.148C35.6347 112.371 35.154 112.082 34.706 111.83L35.448 111.102ZM37.086 111.998C37.6273 111.718 38.122 111.419 38.57 111.102H35.77C36.358 111.485 36.7967 111.783 37.086 111.998ZM34.412 115.96V116.842H36.232V115.96H34.412ZM37.576 115.96V116.842H39.452V115.96H37.576ZM39.452 114.784V113.902H37.576V114.784H39.452ZM36.232 114.784V113.902H34.412V114.784H36.232ZM55.006 110.836V121.84H53.578V121.07H51.254V121.84H49.84V110.836H55.006ZM51.254 119.712H53.578V112.194H51.254V119.712ZM44.926 112.614C44.6273 113.267 44.2773 113.888 43.876 114.476L42.588 113.664C43.5027 112.32 44.1373 110.929 44.492 109.492L45.934 109.814C45.766 110.411 45.6213 110.883 45.5 111.228H49.21V112.614H47.348C47.3387 113.417 47.2967 114.177 47.222 114.896H49.35V116.282H47.026L46.858 117.122C47.6513 117.915 48.5053 118.858 49.42 119.95L48.524 121.308C47.6933 120.085 47.0027 119.143 46.452 118.48C45.8547 119.908 44.856 121.121 43.456 122.12L42.504 120.944C43.9413 119.871 44.884 118.564 45.332 117.024L45.5 116.282H42.812V114.896H45.724C45.7893 114.271 45.836 113.51 45.864 112.614H44.926ZM57.064 122.33L56.742 120.916C57.106 120.972 57.456 121 57.792 121C58.1 121 58.254 120.846 58.254 120.538V117.71C57.7127 117.915 57.2507 118.079 56.868 118.2L56.504 116.716C57.1107 116.576 57.694 116.408 58.254 116.212V113.44H56.728V112.026H58.254V109.548H59.738V112.026H60.984V113.44H59.738V115.596L60.746 115.078V116.562L59.738 117.066V120.902C59.738 121.854 59.2573 122.33 58.296 122.33H57.064ZM61.894 109.926H68.25V115.036H61.894V109.926ZM66.822 113.86V113.02H63.308V113.86H66.822ZM63.308 111.928H66.822V111.102H63.308V111.928ZM60.998 115.68H69.076V116.982H65.772V118.144H68.446V119.432H65.772V120.79C66.36 120.855 66.9387 120.888 67.508 120.888C68.1987 120.888 68.852 120.855 69.468 120.79L69.062 122.204C68.67 122.204 68.1847 122.195 67.606 122.176C65.73 122.157 64.4467 121.985 63.756 121.658C63.2893 121.425 62.86 121.005 62.468 120.398C62.1507 121.135 61.754 121.821 61.278 122.456L60.186 121.504C61.166 120.272 61.712 118.9 61.824 117.388L63.112 117.542C63.084 118.018 63.0187 118.494 62.916 118.97C63.336 119.735 63.8073 120.225 64.33 120.44C64.3393 120.449 64.3487 120.454 64.358 120.454V116.982H60.998V115.68ZM72.1 119.348V120.496H75.068V119.348H72.1ZM75.068 121.728H72.1V122.372H70.952V112.53H72.198V111.214H70.602V109.954H76.44V111.214H74.956V112.53H76.202V117.794C76.7527 117.075 77.1353 116.193 77.35 115.148L78.61 115.302C78.554 115.582 78.484 115.867 78.4 116.156H79.408V115.232H80.822V116.156H83.062V117.43H80.822V118.494H82.754V119.74H80.822V120.86H83.412V122.218H76.706V120.86H79.408V119.74H77.434V118.494H79.408V117.43H77.924C77.644 118.009 77.3173 118.531 76.944 118.998L76.202 118.018V122.358H75.068V121.728ZM73.864 112.53V111.214H73.304V112.53H73.864ZM75.068 118.2V117.15H74.536C74.0693 117.15 73.836 116.875 73.836 116.324V113.734H73.388V114.49C73.3693 115.983 73.0753 117.071 72.506 117.752L72.1 117.388V118.2H75.068ZM74.62 113.734V116.1C74.62 116.212 74.676 116.268 74.788 116.268H75.068V113.734H74.62ZM72.1 116.954C72.4173 116.366 72.5853 115.545 72.604 114.49V113.734H72.1V116.954ZM76.972 109.94H82.922V114.938H76.972V109.94ZM81.55 113.79V113.006H78.316V113.79H81.55ZM78.316 111.886H81.55V111.088H78.316V111.886Z" fill="#E7E7E7"/>
<rect x="16" y="142" width="358" height="52" rx="6" fill="white" fill-opacity="0.05"/>
<rect x="16.5" y="142.5" width="357" height="51" rx="5.5" stroke="white" stroke-opacity="0.05"/>
<rect x="28" y="154" width="28" height="28" rx="14" fill="#EEE6DB" fill-opacity="0.3"/>
<path d="M40 162H37C36.4696 162 35.9609 162.211 35.5858 162.586C35.2107 162.961 35 163.47 35 164V173C35 173.53 35.2107 174.039 35.5858 174.414C35.9609 174.789 36.4696 175 37 175H46C46.5304 175 47.0391 174.789 47.4142 174.414C47.7893 174.039 48 173.53 48 173V170M44 163C44 163.796 44.3161 164.559 44.8787 165.121C45.4413 165.684 46.2044 166 47 166C47.7956 166 48.5587 165.684 49.1213 165.121C49.6839 164.559 50 163.796 50 163C50 162.204 49.6839 161.441 49.1213 160.879C48.5587 160.316 47.7956 160 47 160C46.2044 160 45.4413 160.316 44.8787 160.879C44.3161 161.441 44 162.204 44 163Z" stroke="#E7E7E7" stroke-width="1.6" stroke-linecap="round" stroke-linejoin="round"/>
<path d="M71.532 163.886C71.868 164.474 72.19 165.132 72.498 165.846H73.688C74.024 165.216 74.318 164.558 74.584 163.872H69.572V162.668H72.484C72.344 162.304 72.19 161.954 72.022 161.632L73.408 161.408C73.548 161.786 73.688 162.206 73.828 162.668H76.894V163.872H75.074L75.872 164.152C75.634 164.768 75.368 165.342 75.088 165.846H77.146V167.12H69.25V165.846H71.224C70.972 165.314 70.72 164.824 70.454 164.39L71.532 163.886ZM66.282 174.316H65.064L64.77 173.028C65.134 173.07 65.484 173.098 65.82 173.098C66.156 173.098 66.324 172.93 66.324 172.608V169.584C65.82 169.78 65.302 169.962 64.784 170.13L64.448 168.8C65.092 168.646 65.708 168.464 66.324 168.24V165.37H64.728V164.096H66.324V161.562H67.668V164.096H68.718V165.37H67.668V167.68C68.018 167.512 68.368 167.33 68.704 167.148V168.492C68.354 168.674 68.004 168.842 67.668 169.01V172.944C67.668 173.854 67.206 174.316 66.282 174.316ZM71.84 167.344L73.114 167.484C72.988 167.806 72.862 168.114 72.736 168.408H77.37V169.696H75.914C75.704 170.62 75.312 171.418 74.752 172.076C75.62 172.468 76.474 172.902 77.3 173.364L76.572 174.428C75.816 173.952 74.892 173.462 73.8 172.958C72.848 173.602 71.406 174.12 69.46 174.512L68.942 173.308C70.398 173.056 71.546 172.734 72.386 172.314C71.574 171.964 70.72 171.6 69.796 171.236C70.146 170.704 70.454 170.186 70.734 169.696H69.068V168.408H71.392C71.56 168.03 71.714 167.68 71.84 167.344ZM74.668 169.696H72.064C71.868 170.046 71.644 170.382 71.42 170.704C72.148 170.956 72.848 171.236 73.548 171.544C74.066 171.04 74.444 170.424 74.668 169.696ZM79.19 171.754L78.798 170.634C79.022 170.55 79.148 170.41 79.148 170.228V162.752H80.45V170.172C81.038 169.99 81.612 169.794 82.186 169.57V161.59H83.488V173.168C84.874 172.496 85.994 171.614 86.834 170.55C86.148 169.556 85.574 168.492 85.112 167.372C84.874 167.736 84.622 168.058 84.37 168.366L83.558 167.358C84.664 165.902 85.42 163.942 85.812 161.478L87.142 161.702C87.03 162.346 86.89 162.962 86.75 163.536H91.174V164.838H90.068C89.956 167.022 89.41 168.912 88.458 170.508C89.326 171.6 90.362 172.58 91.538 173.448L90.628 174.526C89.48 173.658 88.486 172.692 87.646 171.642C86.736 172.734 85.588 173.658 84.188 174.414L83.488 173.28V174.344H82.186V170.844C81.234 171.18 80.226 171.488 79.19 171.754ZM86.344 164.838C86.204 165.23 86.05 165.594 85.882 165.958C86.33 167.19 86.918 168.324 87.618 169.36C88.318 168.072 88.71 166.56 88.808 164.838H86.344ZM99.364 167.946V169.5H101.534V167.946H99.364ZM99.364 170.732V172.468H101.534V170.732H99.364ZM99.364 173.742V174.372H98.048V166.616C97.768 167.022 97.46 167.414 97.138 167.806L96.69 166.406C97.796 164.922 98.58 163.312 99.028 161.548L100.316 161.8C100.12 162.5 99.882 163.172 99.602 163.816H101.744C101.52 163.144 101.268 162.472 100.988 161.828L102.262 161.492C102.57 162.346 102.822 163.116 102.99 163.816H105.132V165.09H102.85V166.7H104.852V167.946H102.85V169.5H104.852V170.732H102.85V172.468H105.286V173.742H99.364ZM101.534 165.09H99.364V166.7H101.534V165.09ZM96.928 167.176V168.534C96.536 168.716 96.13 168.884 95.738 169.052V172.86C95.738 173.77 95.262 174.232 94.324 174.232H93.064L92.77 172.944C93.148 173 93.512 173.028 93.862 173.028C94.226 173.028 94.408 172.86 94.408 172.524V169.556C93.876 169.738 93.33 169.906 92.798 170.06L92.462 168.716C93.12 168.576 93.764 168.408 94.408 168.212V165.272H92.728V163.984H94.408V161.52H95.738V163.984H97.04V165.272H95.738V167.722C96.144 167.554 96.536 167.372 96.928 167.176ZM107.904 161.66C108.842 162.388 109.64 163.116 110.284 163.844L109.318 164.796C108.772 164.096 107.988 163.354 106.98 162.542L107.904 161.66ZM115.94 174.204C115.17 174.204 114.33 174.19 113.434 174.176C112.524 174.162 111.782 174.078 111.194 173.938C110.634 173.77 110.144 173.434 109.724 172.958C109.528 172.72 109.36 172.608 109.192 172.608C108.898 172.608 108.394 173.238 107.68 174.498L106.7 173.588C107.4 172.454 108.03 171.74 108.59 171.46V167.498H106.714V166.266H109.836V171.558C109.906 171.614 109.976 171.684 110.046 171.768C110.368 172.146 110.704 172.426 111.054 172.608C111.474 172.804 112.09 172.93 112.916 172.958C113.714 172.972 114.652 172.986 115.744 172.986C116.43 172.986 117.13 172.972 117.83 172.958C118.53 172.944 119.076 172.916 119.454 172.888L119.132 174.204H115.94ZM110.942 166.924H114.232C114.316 166.406 114.358 165.818 114.372 165.16H111.418V163.928H113.07C112.706 163.256 112.314 162.654 111.894 162.122L113.084 161.548C113.504 162.15 113.91 162.808 114.288 163.536L113.504 163.928H115.632C116.024 163.144 116.374 162.318 116.682 161.422L117.942 161.856C117.648 162.626 117.326 163.312 116.976 163.928H118.572V165.16H115.674C115.66 165.818 115.618 166.406 115.562 166.924H119.048V168.184H115.31C114.89 169.808 113.672 171.18 111.656 172.272L110.816 171.208C112.412 170.424 113.448 169.416 113.91 168.184H110.942V166.924ZM116.01 168.842C117.13 169.598 118.138 170.424 119.048 171.306L118.124 172.314C117.2 171.32 116.234 170.452 115.226 169.724L116.01 168.842ZM121.89 161.66C122.842 162.402 123.64 163.144 124.284 163.872L123.346 164.796C122.786 164.096 122.002 163.34 120.98 162.528L121.89 161.66ZM129.94 174.204C129.17 174.204 128.33 174.19 127.434 174.176C126.524 174.162 125.782 174.078 125.194 173.938C124.634 173.77 124.144 173.434 123.724 172.958C123.528 172.72 123.36 172.608 123.192 172.608C122.898 172.608 122.394 173.238 121.68 174.498L120.7 173.588C121.4 172.454 122.03 171.74 122.59 171.46V167.498H120.714V166.266H123.836V171.558C123.906 171.614 123.976 171.684 124.046 171.768C124.368 172.146 124.704 172.426 125.054 172.608C125.474 172.804 126.09 172.93 126.916 172.958C127.714 172.972 128.652 172.986 129.744 172.986C130.43 172.986 131.13 172.972 131.83 172.958C132.53 172.944 133.076 172.916 133.454 172.888L133.132 174.204H129.94ZM127.518 163.046H124.816V161.94H132.502V162.878C131.69 163.578 130.822 164.166 129.898 164.67C129.926 164.698 129.954 164.712 129.982 164.74H132.796V170.956C132.796 171.782 132.334 172.202 131.424 172.202H130.346L130.066 171.096L131.06 171.152C131.368 171.152 131.536 170.998 131.536 170.69V169.976H129.52V172.272H128.302V169.976H126.328V172.3H125.068V164.74H128.288C127.826 164.432 127.308 164.11 126.734 163.802L127.518 163.046ZM129.086 164.04C129.674 163.746 130.22 163.41 130.724 163.046H127.588C128.12 163.382 128.624 163.704 129.086 164.04ZM126.328 167.918V168.898H128.302V167.918H126.328ZM129.52 167.918V168.898H131.536V167.918H129.52ZM131.536 166.826V165.846H129.52V166.826H131.536ZM128.302 166.826V165.846H126.328V166.826H128.302ZM146.922 162.892V173.812H145.634V173.014H143.184V173.826H141.896V162.892H146.922ZM143.184 171.768H145.634V164.138H143.184V171.768ZM136.87 164.558C136.548 165.258 136.184 165.902 135.792 166.49L134.63 165.748C135.526 164.432 136.17 163.018 136.548 161.506L137.864 161.786C137.724 162.318 137.556 162.808 137.388 163.284H141.21V164.558H139.306C139.278 165.426 139.236 166.238 139.152 166.98H141.336V168.254H138.97C138.914 168.562 138.844 168.87 138.788 169.15C139.642 170.018 140.51 170.984 141.406 172.048L140.594 173.28C139.726 172.048 138.998 171.082 138.41 170.382C137.822 171.852 136.828 173.098 135.4 174.106L134.532 173.042C135.988 171.964 136.94 170.648 137.402 169.08C137.458 168.814 137.528 168.534 137.584 168.254H134.826V166.98H137.78C137.864 166.238 137.906 165.426 137.934 164.558H136.87Z" fill="#E7E7E7"/>
<path d="M350.75 156.75H333.25C330.266 156.75 327.405 157.935 325.295 160.045C323.185 162.155 322 165.016 322 168C322 170.984 323.185 173.845 325.295 175.955C327.405 178.065 330.266 179.25 333.25 179.25H350.75C353.734 179.25 356.595 178.065 358.705 175.955C360.815 173.845 362 170.984 362 168C362 165.016 360.815 162.155 358.705 160.045C356.595 157.935 353.734 156.75 350.75 156.75ZM350.75 174.719C349.421 174.719 348.122 174.325 347.017 173.586C345.912 172.848 345.051 171.799 344.543 170.571C344.034 169.343 343.901 167.993 344.16 166.689C344.42 165.386 345.059 164.189 345.999 163.249C346.939 162.309 348.136 161.67 349.439 161.41C350.743 161.151 352.093 161.284 353.321 161.793C354.549 162.301 355.598 163.162 356.336 164.267C357.075 165.372 357.469 166.671 357.469 168C357.47 168.883 357.297 169.757 356.96 170.573C356.623 171.388 356.128 172.129 355.504 172.754C354.879 173.378 354.138 173.873 353.323 174.21C352.507 174.547 351.633 174.72 350.75 174.719Z" fill="#E59E2E"/>
<path d="M31.066 232.51H36.82C37.6227 230.578 38.3227 228.212 38.92 225.412L40.376 225.818C39.844 228.301 39.186 230.531 38.402 232.51H41.076V233.938H31.066V232.51ZM32.886 226.098C33.4273 227.526 33.9267 229.225 34.384 231.194L32.998 231.558C32.6247 229.738 32.1673 228.058 31.626 226.518L32.886 226.098ZM35.56 225.076C36.0547 226.663 36.484 228.417 36.848 230.34L35.462 230.69C35.1353 228.805 34.748 227.073 34.3 225.496L35.56 225.076ZM35.658 221.408C35.882 221.819 36.0873 222.262 36.274 222.738H41.286V224.152H31.08V227.008C31.0427 230.107 30.5993 232.599 29.75 234.484L28.504 233.378C29.204 231.857 29.568 229.733 29.596 227.008V222.738H34.65C34.454 222.355 34.244 222.005 34.02 221.688L35.658 221.408ZM45.234 226.672V228.688H48.314V226.672H45.234ZM45.164 230.032C44.9773 231.777 44.4593 233.224 43.61 234.372L42.49 233.364C43.3113 232.197 43.736 230.699 43.764 228.87V221.94H54.614V232.51C54.614 233.593 54.0587 234.134 52.948 234.134H51.338L50.946 232.706C51.506 232.762 52.0193 232.79 52.486 232.79C52.9153 232.79 53.13 232.519 53.13 231.978V230.032H49.798V233.98H48.314V230.032H45.164ZM53.13 228.688V226.672H49.798V228.688H53.13ZM53.13 225.328V223.368H49.798V225.328H53.13ZM48.314 223.368H45.234V225.328H48.314V223.368ZM57.932 227.26C57.652 227.643 57.302 228.072 56.882 228.548L56.392 226.98C57.6707 225.365 58.6133 223.489 59.22 221.352L60.592 221.996C60.284 223.032 59.878 224.031 59.374 224.992V234.484H57.932V227.26ZM60.27 223.13H64.288C64.1293 222.729 63.9333 222.299 63.7 221.842L65.1 221.464C65.38 222.061 65.59 222.617 65.73 223.13H69.496V224.502H60.27V223.13ZM61.53 225.244H68.32V226.546H61.53V225.244ZM61.53 227.218H68.32V228.534H61.53V227.218ZM68.628 229.304V234.456H67.214V233.756H62.636V234.456H61.208V229.304H68.628ZM62.636 232.37H67.214V230.662H62.636V232.37ZM72.534 222.416H75.628C75.796 222.08 75.922 221.73 76.006 221.366L77.546 221.576C77.462 221.865 77.35 222.145 77.21 222.416H81.578V229.57H72.534V222.416ZM80.164 228.338V227.526H73.948V228.338H80.164ZM73.948 226.378H80.164V225.594H73.948V226.378ZM73.948 224.446H80.164V223.662H73.948V224.446ZM73.136 230.62C72.8093 231.927 72.3613 233.056 71.792 234.008L70.56 233.21C71.1387 232.305 71.54 231.348 71.764 230.34L73.136 230.62ZM75.278 234.246C74.298 234.246 73.808 233.779 73.808 232.846V230.326H75.292V232.524C75.292 232.813 75.4273 232.958 75.698 232.958H78.554C78.7687 232.958 78.9367 232.883 79.058 232.734C79.1887 232.585 79.2773 232.113 79.324 231.32L80.724 231.782C80.6027 232.986 80.3927 233.7 80.094 233.924C79.8047 234.139 79.3847 234.246 78.834 234.246H75.278ZM77.168 229.752C77.868 230.508 78.3767 231.115 78.694 231.572L77.588 232.328C77.2147 231.749 76.7153 231.115 76.09 230.424L77.168 229.752ZM81.62 230.032C82.3947 231.077 83.02 232.029 83.496 232.888L82.32 233.7C81.8813 232.832 81.2653 231.847 80.472 230.746L81.62 230.032Z" fill="#E7E7E7"/>
<rect x="16" y="254" width="358" height="102" rx="6" fill="white" fill-opacity="0.05"/>
<rect x="16.5" y="254.5" width="357" height="101" rx="5.5" stroke="white" stroke-opacity="0.05"/>
<path d="M31.892 266.674H33.194V270.272H33.866V271.574H30.716V272.106C30.716 272.498 30.702 272.876 30.688 273.24H33.376V279.386H32.074V274.514H30.618C30.45 276.558 30.072 278.126 29.512 279.218L28.504 278.35C29.092 277.034 29.4 274.962 29.414 272.106V266.954H30.716V270.272H31.892V266.674ZM35.784 271.756V272.932C35.728 275.62 35.252 277.776 34.356 279.372L33.446 278.406C34.146 277.09 34.51 275.256 34.566 272.932V267.5C36.792 267.458 38.78 267.164 40.544 266.604L41.188 267.794C39.564 268.27 37.772 268.55 35.784 268.634V270.496H40.894V271.63C40.586 273.478 40.026 275.06 39.186 276.348C39.83 277.188 40.6 277.846 41.51 278.308L40.852 279.47C39.858 278.966 39.032 278.28 38.36 277.44C37.632 278.252 36.764 278.938 35.756 279.484L35.126 278.308C36.106 277.762 36.918 277.09 37.59 276.306C36.876 275.06 36.386 273.548 36.106 271.756H35.784ZM37.296 271.756C37.548 273.044 37.912 274.178 38.416 275.13C38.99 274.136 39.396 273.016 39.62 271.756H37.296ZM42.966 268.984H48.328V266.562H49.672V268.984H55.02V270.258H50.722C51.646 272.358 53.242 274.248 55.51 275.9L54.6 277.048C52.262 275.032 50.624 272.764 49.686 270.258H49.672V275.41H52.556V276.684H49.672V279.442H48.328V276.684H45.556V275.41H48.328V270.258H48.314C47.306 273.086 45.598 275.41 43.218 277.23L42.448 275.984C44.66 274.5 46.27 272.582 47.278 270.258H42.966V268.984ZM58.744 266.94H67.256V270.972H58.744V266.94ZM65.912 269.782V268.13H60.088V269.782H65.912ZM59.724 273.17H56.63V271.896H69.356V273.17H61.054L60.648 274.514H67.452C67.34 276.88 67.116 278.28 66.766 278.714C66.416 279.148 65.73 279.372 64.722 279.372C64.036 279.372 63.42 279.33 62.874 279.26L62.426 278.056C63.182 278.126 63.84 278.168 64.428 278.168C65.128 278.168 65.576 278.028 65.744 277.748C65.898 277.468 66.01 276.782 66.094 275.718H59.066L59.724 273.17Z" fill="#E7E7E7"/>
<path d="M326.084 270.44H327.988L329.892 276.194H329.976L331.894 270.44H333.77L330.984 278H328.856L326.084 270.44ZM337.6 269.894L335.206 270.356V268.872L338.104 268.284H339.392V278H337.6V269.894ZM343.101 278.084C342.868 278.084 342.677 278.07 342.527 278.042C342.387 278.014 342.275 277.963 342.191 277.888C342.107 277.804 342.051 277.692 342.023 277.552C341.995 277.403 341.981 277.207 341.981 276.964C341.981 276.721 341.995 276.525 342.023 276.376C342.051 276.227 342.107 276.115 342.191 276.04C342.275 275.956 342.387 275.905 342.527 275.886C342.677 275.858 342.868 275.844 343.101 275.844C343.325 275.844 343.507 275.858 343.647 275.886C343.797 275.905 343.913 275.956 343.997 276.04C344.081 276.115 344.137 276.227 344.165 276.376C344.203 276.525 344.221 276.721 344.221 276.964C344.221 277.207 344.203 277.403 344.165 277.552C344.137 277.692 344.081 277.804 343.997 277.888C343.913 277.963 343.797 278.014 343.647 278.042C343.507 278.07 343.325 278.084 343.101 278.084ZM346.088 276.348C347.002 275.62 347.754 274.995 348.342 274.472C348.939 273.949 349.406 273.492 349.742 273.1C350.087 272.699 350.325 272.344 350.456 272.036C350.596 271.719 350.666 271.411 350.666 271.112C350.666 270.823 350.619 270.58 350.526 270.384C350.432 270.188 350.302 270.034 350.134 269.922C349.975 269.81 349.784 269.731 349.56 269.684C349.336 269.637 349.098 269.614 348.846 269.614C348.528 269.614 348.192 269.637 347.838 269.684C347.483 269.731 347.105 269.815 346.704 269.936V268.452C347.058 268.349 347.441 268.275 347.852 268.228C348.272 268.172 348.706 268.144 349.154 268.144C350.18 268.144 350.988 268.368 351.576 268.816C352.164 269.264 352.458 269.959 352.458 270.902C352.458 271.313 352.406 271.7 352.304 272.064C352.201 272.419 352.014 272.787 351.744 273.17C351.482 273.543 351.118 273.954 350.652 274.402C350.185 274.841 349.583 275.354 348.846 275.942L348.244 276.418V276.53H352.752V278H346.088V276.348ZM357.623 278.14C357.1 278.14 356.629 278.07 356.209 277.93C355.789 277.781 355.425 277.519 355.117 277.146C354.818 276.773 354.585 276.264 354.417 275.62C354.258 274.967 354.179 274.141 354.179 273.142C354.179 272.143 354.258 271.322 354.417 270.678C354.585 270.034 354.818 269.525 355.117 269.152C355.425 268.769 355.789 268.508 356.209 268.368C356.629 268.219 357.1 268.144 357.623 268.144C358.146 268.144 358.617 268.219 359.037 268.368C359.466 268.508 359.83 268.769 360.129 269.152C360.428 269.525 360.656 270.034 360.815 270.678C360.983 271.322 361.067 272.143 361.067 273.142C361.067 274.141 360.983 274.967 360.815 275.62C360.656 276.264 360.428 276.773 360.129 277.146C359.83 277.519 359.466 277.781 359.037 277.93C358.617 278.07 358.146 278.14 357.623 278.14ZM357.623 276.628C357.922 276.628 358.174 276.577 358.379 276.474C358.594 276.371 358.766 276.194 358.897 275.942C359.037 275.681 359.14 275.326 359.205 274.878C359.27 274.421 359.303 273.842 359.303 273.142C359.303 272.442 359.27 271.868 359.205 271.42C359.14 270.972 359.037 270.617 358.897 270.356C358.766 270.095 358.594 269.913 358.379 269.81C358.174 269.707 357.922 269.656 357.623 269.656C357.324 269.656 357.068 269.707 356.853 269.81C356.648 269.913 356.48 270.095 356.349 270.356C356.218 270.617 356.12 270.972 356.055 271.42C355.99 271.868 355.957 272.442 355.957 273.142C355.957 273.842 355.99 274.421 356.055 274.878C356.12 275.326 356.218 275.681 356.349 275.942C356.48 276.194 356.648 276.371 356.853 276.474C357.068 276.577 357.324 276.628 357.623 276.628Z" fill="#E7E7E7" fill-opacity="0.7"/>
<path d="M28 296C158.435 296 231.565 296 362 296" stroke="#303030"/>
<path d="M34.398 324.46H37.87C38.374 323.55 38.808 322.57 39.172 321.534L40.404 321.996C40.012 322.948 39.606 323.774 39.2 324.46H41.062V325.72H38.304V325.972C38.304 326.616 38.276 327.232 38.22 327.82H41.3V329.094H38.584C38.948 330.522 39.928 331.978 41.524 333.462L40.614 334.456C39.186 332.972 38.248 331.516 37.8 330.074C37.226 332.062 36.19 333.532 34.706 334.512L33.908 333.448C35.364 332.552 36.302 331.11 36.75 329.094H34.188V327.82H36.946C36.988 327.316 37.016 326.798 37.03 326.266V325.72H34.398V324.46ZM35.966 321.59C36.498 322.402 36.918 323.13 37.198 323.746L36.218 324.432C35.91 323.774 35.476 323.046 34.944 322.234L35.966 321.59ZM28.602 321.996H34.258V323.228H33.46V330.55C33.74 330.466 34.006 330.368 34.286 330.284V331.572L33.46 331.824V334.47H32.186V332.16C31.122 332.44 30.016 332.678 28.868 332.902L28.546 331.642L29.344 331.516V323.228H28.602V321.996ZM30.618 331.278C31.15 331.166 31.682 331.04 32.186 330.914V329.108H30.618V331.278ZM30.618 327.904H32.186V326.196H30.618V327.904ZM30.618 324.992H32.186V323.228H30.618V324.992ZM48.51 334.4H46.928L46.62 333.098C47.124 333.154 47.6 333.182 48.048 333.182C48.342 333.182 48.496 333.028 48.496 332.72V329.626C47.152 329.71 45.724 329.78 44.184 329.85L43.82 328.688C44.24 328.646 44.632 328.562 44.968 328.45C46.004 328.002 47.138 327.33 48.37 326.42C47.25 326.504 46.046 326.588 44.786 326.658L44.506 325.482C44.828 325.454 45.122 325.37 45.402 325.244C45.962 324.964 46.634 324.39 47.418 323.522C46.312 323.564 45.15 323.592 43.918 323.592L43.526 322.444C47.53 322.444 50.918 322.164 53.676 321.632L54.334 322.738C52.85 323.06 51.086 323.284 49.07 323.424C48.342 324.264 47.586 324.964 46.802 325.524C47.782 325.468 48.762 325.412 49.742 325.342C50.33 324.852 50.946 324.32 51.576 323.746L52.808 324.348C50.582 326.28 48.65 327.694 47.012 328.618C48.958 328.492 50.652 328.338 52.094 328.17C51.786 327.764 51.478 327.358 51.142 326.952L52.122 326.336C53.284 327.68 54.18 328.87 54.796 329.878L53.732 330.62C53.48 330.172 53.186 329.71 52.864 329.234C51.94 329.346 50.932 329.444 49.826 329.528V333.042C49.826 333.938 49.378 334.4 48.51 334.4ZM51.716 330.172C53.116 331.18 54.278 332.188 55.216 333.196L54.264 334.148C53.452 333.182 52.304 332.146 50.834 331.04L51.716 330.172ZM46.13 330.27L47.068 331.11C46.116 332.244 44.954 333.238 43.554 334.092L42.714 333C44.058 332.216 45.206 331.306 46.13 330.27ZM63.154 327.918V329.276C62.398 329.528 61.6 329.752 60.76 329.976V332.902C60.76 333.798 60.284 334.26 59.346 334.26H57.778L57.484 332.986C57.974 333.042 58.436 333.07 58.884 333.07C59.234 333.07 59.416 332.902 59.416 332.566V330.284C58.576 330.466 57.722 330.634 56.826 330.774L56.644 329.444C57.61 329.29 58.534 329.122 59.416 328.94V326.434H56.644V325.16H59.416V323.676C58.716 323.816 58.002 323.928 57.26 324.04L56.98 322.78C58.94 322.57 60.676 322.164 62.188 321.548L62.65 322.794C62.048 323.004 61.418 323.2 60.76 323.382V325.16H63.784C63.7 324.068 63.658 322.864 63.658 321.548H65.002C65.002 322.92 65.044 324.124 65.128 325.16H69.356V326.434H65.24C65.324 327.358 65.45 328.128 65.618 328.744C65.674 329.01 65.744 329.248 65.814 329.472C66.416 328.744 66.948 327.918 67.396 326.994L68.544 327.596C67.914 328.884 67.172 329.99 66.304 330.914C66.472 331.292 66.626 331.614 66.794 331.866C67.214 332.496 67.536 332.818 67.76 332.818C67.942 332.818 68.124 332.09 68.306 330.634L69.482 331.25C69.132 333.238 68.614 334.246 67.942 334.246C67.34 334.246 66.71 333.826 66.052 333C65.786 332.664 65.548 332.286 65.338 331.838C64.372 332.65 63.294 333.294 62.09 333.756L61.348 332.608C62.664 332.132 63.812 331.446 64.792 330.55C64.624 330.088 64.484 329.612 64.358 329.108C64.162 328.352 64.008 327.456 63.896 326.434H60.76V328.632C61.6 328.408 62.398 328.17 63.154 327.918ZM66.542 321.674C67.536 322.304 68.376 322.934 69.076 323.564L68.11 324.516C67.522 323.9 66.71 323.242 65.646 322.528L66.542 321.674ZM81.396 334.33H80.122L79.786 333.084L81.116 333.112C81.48 333.112 81.662 332.874 81.662 332.412V323.592H78.414V322.318H82.978V332.776C82.978 333.812 82.446 334.33 81.396 334.33ZM76.636 321.52C77.266 322.318 77.756 323.018 78.092 323.634L77.042 324.362C76.692 323.69 76.216 322.962 75.628 322.15L76.636 321.52ZM73.668 321.408L74.886 321.968C74.522 323.06 74.06 324.096 73.472 325.09V334.47H72.156V327.022C71.75 327.526 71.316 328.016 70.854 328.492L70.434 327.134C71.89 325.496 72.968 323.592 73.668 321.408ZM74.886 323.9H76.202V334.428H74.886V323.9Z" fill="#E7E7E7"/>
<path d="M351.746 333.454L357.186 328.014C357.205 327.908 357.205 327.8 357.186 327.694L351.746 322.254C351.704 322.236 351.586 322.235 351.426 322.254L350.786 322.894C350.768 323.061 350.767 323.182 350.786 323.214L355.266 327.694C355.298 327.742 355.315 327.797 355.315 327.854C355.315 327.911 355.298 327.967 355.266 328.014L350.786 332.494C350.768 332.526 350.766 332.646 350.786 332.814L351.426 333.454C351.584 333.473 351.704 333.473 351.746 333.454Z" fill="#E7E7E7" fill-opacity="0.5"/>
<rect x="16" y="380" width="358" height="45" rx="6" fill="#EEE6DB" fill-opacity="0.3"/>
<path d="M159.591 410C159.153 410 158.779 409.848 158.468 409.543C158.156 409.239 158.001 408.873 158 408.444V397.556C158 397.128 158.156 396.762 158.468 396.457C158.78 396.153 159.154 396.001 159.591 396H164.364C164.589 396 164.778 396.075 164.931 396.224C165.084 396.373 165.16 396.558 165.159 396.778C165.159 396.998 165.082 397.182 164.93 397.332C164.778 397.482 164.589 397.557 164.364 397.556H159.591V408.444H164.364C164.589 408.444 164.778 408.519 164.931 408.668C165.084 408.818 165.16 409.002 165.159 409.222C165.159 409.442 165.082 409.627 164.93 409.777C164.778 409.927 164.589 410.001 164.364 410H159.591ZM169.276 403.778H163.568C163.343 403.778 163.154 403.703 163.002 403.554C162.85 403.404 162.773 403.22 162.773 403C162.772 402.78 162.849 402.596 163.002 402.446C163.155 402.297 163.344 402.222 163.568 402.222H169.276L167.784 400.764C167.638 400.621 167.565 400.446 167.565 400.239C167.565 400.031 167.638 399.85 167.784 399.694C167.93 399.539 168.116 399.458 168.341 399.451C168.566 399.444 168.759 399.519 168.918 399.675L171.761 402.456C171.92 402.611 172 402.793 172 403C172 403.207 171.92 403.389 171.761 403.544L168.918 406.325C168.759 406.481 168.57 406.555 168.351 406.549C168.133 406.543 167.944 406.462 167.784 406.306C167.638 406.15 167.569 405.965 167.576 405.752C167.583 405.538 167.659 405.36 167.804 405.217L169.276 403.778Z" fill="#E7E7E7"/>
<path d="M180.638 396.587C181.522 397.276 182.263 397.952 182.861 398.628L182.185 399.304C181.665 398.654 180.937 397.952 180.001 397.198L180.638 396.587ZM188.022 408.066C187.333 408.066 186.579 408.053 185.773 408.04C184.954 408.027 184.291 407.949 183.784 407.806C183.29 407.65 182.835 407.325 182.445 406.857C182.276 406.636 182.12 406.532 181.964 406.532C181.652 406.532 181.132 407.13 180.417 408.326L179.715 407.689C180.404 406.597 181.015 405.934 181.548 405.7V401.748H179.702V400.89H182.419V405.765C182.523 405.843 182.614 405.934 182.718 406.051C183.03 406.428 183.355 406.701 183.693 406.87C184.083 407.052 184.655 407.156 185.396 407.182C186.072 407.195 186.904 407.208 187.892 407.208C188.542 407.208 189.205 407.195 189.881 407.182C190.557 407.169 191.077 407.156 191.441 407.13L191.207 408.066H188.022ZM186.748 402.229C187.463 402.645 188.126 403.061 188.75 403.503C189.244 403.074 189.66 402.632 190.024 402.19L190.7 402.71C190.284 403.204 189.868 403.633 189.439 404.01C190.063 404.504 190.648 405.011 191.194 405.531L190.622 406.22C189.478 405.024 188.009 403.906 186.215 402.866L186.748 402.229ZM185.058 399.694V400.851H189.4V399.694H185.058ZM189.4 398.914V397.757H185.058V398.914H189.4ZM185.058 401.696V405.206C185.916 405.05 186.774 404.855 187.619 404.608L187.827 405.453C186.813 405.726 185.539 405.999 183.992 406.259L183.797 405.466C184.031 405.375 184.148 405.245 184.148 405.076V396.912H190.323V401.696H185.058ZM202.543 400.903V397.354H203.479V401.813H199.501V406.584H203.167V403.035H204.116V408.209H203.167V407.481H194.873V408.209H193.924V403.035H194.873V406.584H198.539V401.813H194.561V397.354H195.497V400.903H198.539V396.366H199.501V400.903H202.543ZM208.952 401.852H216.18V405.011H208.952V401.852ZM215.244 404.179V402.671H209.888V404.179H215.244ZM210.109 405.297C210.551 405.778 210.954 406.35 211.318 407.026H213.892C214.295 406.454 214.646 405.856 214.945 405.232L215.829 405.531C215.543 406.09 215.231 406.584 214.893 407.026H218.091V407.923H206.963V407.026H210.343C210.031 406.532 209.667 406.064 209.225 405.622L210.109 405.297ZM208.029 398.16C208.731 398.654 209.316 399.135 209.81 399.616C210.408 399.044 210.889 398.407 211.253 397.731H208.003V396.873H212.319V397.575C211.955 398.433 211.448 399.213 210.798 399.902H214.802C213.892 398.992 213.19 397.978 212.696 396.886L213.463 396.457C213.697 397.003 213.996 397.523 214.347 398.017C214.919 397.601 215.4 397.133 215.803 396.613L216.466 397.198C216.011 397.757 215.478 398.251 214.867 398.68C215.153 399.031 215.478 399.356 215.829 399.668C216.466 399.2 216.999 398.68 217.441 398.108L218.091 398.693C217.649 399.265 217.116 399.785 216.505 400.227C217.155 400.721 217.87 401.176 218.663 401.566L218.052 402.281C216.921 401.67 215.946 400.981 215.127 400.214V400.76H210.382V400.318C209.524 401.098 208.458 401.748 207.184 402.281L206.625 401.553C207.587 401.163 208.432 400.695 209.16 400.162C208.679 399.707 208.094 399.239 207.405 398.758L208.029 398.16ZM221.796 396.873H229.297V401.098H231.637V401.943H226.45V403.425C226.762 403.789 227.087 404.127 227.451 404.452C228.374 403.932 229.18 403.191 229.856 402.229L230.571 402.827C229.843 403.763 229.024 404.478 228.088 404.972C229.102 405.765 230.298 406.467 231.676 407.065L231.208 407.897C229.206 406.961 227.62 405.817 226.45 404.465V407.143C226.45 407.923 226.099 408.313 225.423 408.313H223.928L223.733 407.429C224.214 407.468 224.669 407.494 225.111 407.494C225.371 407.494 225.514 407.299 225.514 406.922V404.543C224.175 405.765 222.576 406.857 220.73 407.845L220.353 406.974C222.355 406.025 224.071 404.894 225.514 403.568V401.943H220.496V401.098H228.348V399.837H222.238V399.018H228.348V397.718H221.796V396.873ZM221.9 402.437C222.693 402.983 223.356 403.542 223.889 404.088L223.291 404.699C222.797 404.179 222.134 403.62 221.276 403.035L221.9 402.437Z" fill="#E7E7E7"/>
<rect width="390" height="90" fill="#1C1C1C"/>
<path d="M23.3806 76.1814L15.2206 68.0214C15.1929 67.8626 15.1929 67.7002 15.2206 67.5414L23.3806 59.3814C23.4435 59.3541 23.6211 59.3526 23.8606 59.3814L24.8206 60.3414C24.848 60.592 24.8494 60.7734 24.8206 60.8214L18.1006 67.5414C18.0531 67.6124 18.0276 67.6959 18.0276 67.7814C18.0276 67.8669 18.0531 67.9504 18.1006 68.0214L24.8206 74.7414C24.8475 74.7885 24.8504 74.9689 24.8206 75.2214L23.8606 76.1814C23.6235 76.2088 23.4445 76.2102 23.3806 76.1814Z" fill="#EAEAEA"/>
<path d="M315.644 53H367C377 53 382 58 382 68C382 78 377 83 367 83H315.644C305.644 83 300.644 78 300.644 68C300.644 58 305.644 53 315.644 53Z" fill="#F2F2F2"/>
<path d="M316.159 53.5068H366.498C376.498 53.5068 381.498 58.5068 381.498 68.5068V67.4899C381.498 77.4899 376.498 82.4899 366.498 82.4899H316.159C306.159 82.4899 301.159 77.4899 301.159 67.4899V68.5068C301.159 58.5068 306.159 53.5068 316.159 53.5068Z" fill="#1A191F"/>
<path d="M361.667 76.3903C360.058 76.3903 358.485 75.9132 357.147 75.0192C355.809 74.1253 354.766 72.8547 354.151 71.3681C353.535 69.8815 353.374 68.2457 353.688 66.6676C354.002 65.0894 354.776 63.6398 355.914 62.502C357.052 61.3642 358.502 60.5894 360.08 60.2755C361.658 59.9616 363.294 60.1227 364.78 60.7384C366.267 61.3542 367.537 62.397 368.431 63.7348C369.325 65.0727 369.803 66.6457 369.803 68.2547C369.803 70.4124 368.945 72.4818 367.42 74.0075C365.894 75.5332 363.825 76.3903 361.667 76.3903ZM361.667 62.153C360.46 62.153 359.28 62.5109 358.277 63.1814C357.274 63.8518 356.492 64.8048 356.03 65.9197C355.568 67.0347 355.447 68.2615 355.682 69.4451C355.918 70.6287 356.499 71.716 357.352 72.5693C358.206 73.4226 359.293 74.0038 360.477 74.2392C361.66 74.4746 362.887 74.3538 364.002 73.892C365.117 73.4301 366.07 72.6481 366.74 71.6447C367.411 70.6412 367.769 69.4615 367.769 68.2547C367.769 67.4535 367.611 66.66 367.304 65.9197C366.998 65.1794 366.548 64.5068 365.981 63.9402C365.415 63.3736 364.742 62.9241 364.002 62.6175C363.262 62.3109 362.468 62.153 361.667 62.153ZM361.667 71.3056C361.064 71.3056 360.474 71.1267 359.972 70.7914C359.47 70.4562 359.079 69.9797 358.848 69.4222C358.617 68.8648 358.557 68.2514 358.675 67.6595C358.792 67.0677 359.083 66.5241 359.51 66.0975C359.936 65.6708 360.48 65.3802 361.072 65.2625C361.664 65.1448 362.277 65.2052 362.834 65.4361C363.392 65.667 363.868 66.0581 364.204 66.5598C364.539 67.0615 364.718 67.6513 364.718 68.2547C364.718 68.6554 364.639 69.0521 364.486 69.4222C364.332 69.7924 364.107 70.1287 363.824 70.412C363.541 70.6953 363.205 70.92 362.834 71.0734C362.464 71.2267 362.068 71.3056 361.667 71.3056ZM329.125 70.2886C328.722 70.2886 328.329 70.1694 327.995 69.9459C327.66 69.7224 327.399 69.4047 327.245 69.0331C327.092 68.6614 327.051 68.2525 327.13 67.8579C327.208 67.4634 327.402 67.101 327.686 66.8166C327.971 66.5321 328.333 66.3384 328.728 66.2599C329.122 66.1814 329.531 66.2217 329.903 66.3757C330.275 66.5296 330.592 66.7903 330.816 67.1248C331.039 67.4592 331.158 67.8525 331.158 68.2547C331.158 68.5218 331.106 68.7863 331.004 69.0331C330.901 69.2798 330.752 69.5041 330.563 69.6929C330.374 69.8818 330.15 70.0316 329.903 70.1338C329.656 70.236 329.392 70.2886 329.125 70.2886ZM322.514 71.3056C321.911 71.3056 321.321 71.1267 320.819 70.7914C320.318 70.4562 319.927 69.9797 319.696 69.4222C319.465 68.8648 319.404 68.2514 319.522 67.6595C319.64 67.0677 319.93 66.5241 320.357 66.0975C320.784 65.6708 321.327 65.3802 321.919 65.2625C322.511 65.1448 323.124 65.2052 323.682 65.4361C324.239 65.667 324.716 66.0581 325.051 66.5598C325.386 67.0615 325.565 67.6513 325.565 68.2547C325.565 68.6554 325.486 69.0521 325.333 69.4222C325.18 69.7924 324.955 70.1287 324.672 70.412C324.388 70.6953 324.052 70.92 323.682 71.0734C323.312 71.2267 322.915 71.3056 322.514 71.3056ZM315.396 70.2886C314.993 70.2886 314.6 70.1694 314.266 69.9459C313.931 69.7224 313.671 69.4047 313.517 69.0331C313.363 68.6614 313.322 68.2525 313.401 67.8579C313.479 67.4634 313.673 67.101 313.958 66.8166C314.242 66.5321 314.604 66.3384 314.999 66.2599C315.393 66.1814 315.802 66.2217 316.174 66.3757C316.546 66.5296 316.863 66.7903 317.087 67.1248C317.31 67.4592 317.43 67.8525 317.43 68.2547C317.43 68.5218 317.377 68.7863 317.275 69.0331C317.173 69.2798 317.023 69.5041 316.834 69.6929C316.645 69.8818 316.421 70.0316 316.174 70.1338C315.927 70.236 315.663 70.2886 315.396 70.2886Z" fill="white"/>
<path d="M340.816 59.6123H341.833V76.9004H340.816V59.6123Z" fill="#F2F2F2"/>
<path d="M181.384 61.12C182.408 61.888 183.256 62.672 183.96 63.44L182.92 64.496C182.312 63.744 181.448 62.944 180.344 62.112L181.384 61.12ZM179.336 65.68H182.92V72.448C183.416 72.032 183.944 71.552 184.52 71.008L184.936 72.608C183.896 73.568 182.792 74.432 181.624 75.184L181.048 73.808C181.304 73.584 181.448 73.296 181.448 72.96V67.136H179.336V65.68ZM185.048 67.584H192.808V68.976C192.344 70.4 191.576 71.616 190.504 72.64C191.528 73.312 192.776 73.92 194.216 74.432L193.4 75.744C191.8 75.104 190.472 74.368 189.384 73.568C188.136 74.464 186.584 75.184 184.76 75.728L183.912 74.448C185.608 73.952 187.032 73.328 188.184 72.56C187.096 71.504 186.344 70.336 185.96 69.056H185.048V67.584ZM187.384 69.056C187.752 70.032 188.376 70.912 189.272 71.712C190.136 70.928 190.808 70.048 191.272 69.056H187.384ZM186.168 61.408H191.832V64.768C191.832 65.12 192.024 65.312 192.424 65.312H193.832V66.704H192.024C190.888 66.704 190.328 66.16 190.328 65.104V62.832H187.672V63.312C187.672 64.976 186.824 66.272 185.144 67.184L184.136 66.016C185.48 65.408 186.168 64.56 186.168 63.472V61.408ZM196.408 65.344H202.52C202.552 65.088 202.568 64.832 202.6 64.592H197.416V61.408H209.224V64.592H204.12C204.088 64.848 204.072 65.088 204.04 65.344H210.232V66.48H203.848L203.688 67.2H208.264V74.176H210.52V75.36H196.12V74.176H198.376V67.2H202.2C202.248 66.944 202.296 66.704 202.344 66.48H196.408V65.344ZM199.88 74.176H206.76V73.328H199.88V74.176ZM199.88 72.432H206.76V71.632H199.88V72.432ZM199.88 70.72H206.76V69.92H199.88V70.72ZM199.88 69.008H206.76V68.224H199.88V69.008ZM207.784 63.552V62.512H205.768V63.552H207.784ZM204.408 63.552V62.512H202.232V63.552H204.408ZM200.872 63.552V62.512H198.856V63.552H200.872Z" fill="#EAEAEA"/>
</svg>
